G04 #@! TF.GenerationSoftware,KiCad,Pcbnew,9.0.2*
G04 #@! TF.CreationDate,2026-03-06T21:29:27-05:00*
G04 #@! TF.ProjectId,ThumbsUp,5468756d-6273-4557-902e-6b696361645f,rev?*
G04 #@! TF.SameCoordinates,Original*
G04 #@! TF.FileFunction,Profile,NP*
%FSLAX46Y46*%
G04 Gerber Fmt 4.6, Leading zero omitted, Abs format (unit mm)*
G04 Created by KiCad (PCBNEW 9.0.2) date 2026-03-06 21:29:27*
%MOMM*%
%LPD*%
G01*
G04 APERTURE LIST*
G04 #@! TA.AperFunction,Profile*
%ADD10C,0.050000*%
G04 #@! TD*
G04 APERTURE END LIST*
D10*
X231800000Y-92400000D02*
X231800000Y-124900000D01*
X188800000Y-134400000D02*
G75*
G02*
X188300000Y-133900000I0J500000D01*
G01*
X188800000Y-124900000D02*
G75*
G02*
X188800000Y-126900000I0J-1000000D01*
G01*
X246300000Y-133900000D02*
X246300000Y-133400000D01*
X215800000Y-91400000D02*
G75*
G02*
X216800000Y-92400000I0J-1000000D01*
G01*
X216801921Y-136398813D02*
X216800000Y-168900000D01*
X203800000Y-128400000D02*
G75*
G02*
X203300000Y-127900000I0J500000D01*
G01*
X231801921Y-136398813D02*
X231800000Y-168900000D01*
X203800000Y-91400000D02*
X215800000Y-91400000D01*
X218300000Y-133400000D02*
G75*
G02*
X218800000Y-132900000I500000J0D01*
G01*
X201800000Y-92400000D02*
X201800000Y-124902368D01*
X246300000Y-133900000D02*
G75*
G02*
X245800000Y-134400000I-500000J0D01*
G01*
X206800000Y-128400000D02*
X203800000Y-128400000D01*
X231300000Y-133900000D02*
X231300000Y-133400000D01*
X203300000Y-133400000D02*
G75*
G02*
X203800000Y-132900000I500000J0D01*
G01*
X216300000Y-133900000D02*
G75*
G02*
X215800000Y-134400000I-500000J0D01*
G01*
X233800000Y-128400000D02*
G75*
G02*
X233300000Y-127900000I0J500000D01*
G01*
X233800000Y-169900000D02*
G75*
G02*
X232800000Y-168900000I0J1000000D01*
G01*
X241800000Y-129400000D02*
X241800000Y-131900000D01*
X201801921Y-136398813D02*
X201800000Y-168900000D01*
X191800000Y-132900000D02*
X188800000Y-132900000D01*
X231300000Y-127400000D02*
X231300000Y-127900000D01*
X233300000Y-127400000D02*
G75*
G02*
X233800000Y-126900000I500000J0D01*
G01*
X188800000Y-169900000D02*
G75*
G02*
X187800000Y-168900000I0J1000000D01*
G01*
X217800000Y-92400000D02*
G75*
G02*
X218800000Y-91400000I1000000J0D01*
G01*
X215800000Y-136400000D02*
G75*
G02*
X215800000Y-134400000I0J1000000D01*
G01*
X206800000Y-128400000D02*
G75*
G02*
X207800000Y-129400000I1000000J0D01*
G01*
X246800000Y-168900000D02*
G75*
G02*
X245800000Y-169900000I-1000000J0D01*
G01*
X216300000Y-133900000D02*
X216300000Y-133400000D01*
X218800000Y-124900000D02*
G75*
G02*
X218800000Y-126900000I0J-1000000D01*
G01*
X231801921Y-136398813D02*
X230800000Y-136399999D01*
X187798079Y-124901187D02*
X187800000Y-92400000D01*
X188800000Y-134400000D02*
G75*
G02*
X188800000Y-136400000I0J-1000000D01*
G01*
X242800000Y-128400000D02*
X245800000Y-128400000D01*
X233300000Y-133400000D02*
G75*
G02*
X233800000Y-132900000I500000J0D01*
G01*
X217800000Y-124900594D02*
X217800000Y-92400000D01*
X218800000Y-134400000D02*
G75*
G02*
X218300000Y-133900000I0J500000D01*
G01*
X202800000Y-168900000D02*
X202800000Y-136400000D01*
X245800000Y-169900000D02*
X233800000Y-169900000D01*
X231300000Y-127900000D02*
G75*
G02*
X230800000Y-128400000I-500000J0D01*
G01*
X233800000Y-134400000D02*
G75*
G02*
X233300000Y-133900000I0J500000D01*
G01*
X212800000Y-128400000D02*
X215800000Y-128400000D01*
X246800000Y-92400000D02*
X246800000Y-124900000D01*
X233300000Y-127400000D02*
X233300000Y-127900000D01*
X187800000Y-92400000D02*
G75*
G02*
X188800000Y-91400000I1000000J0D01*
G01*
X246801921Y-136398813D02*
X245800000Y-136399999D01*
X203300000Y-127400000D02*
X203300000Y-127900000D01*
X245800000Y-91400000D02*
G75*
G02*
X246800000Y-92400000I0J-1000000D01*
G01*
X201300000Y-127400000D02*
X201300000Y-127900000D01*
X207800000Y-129400000D02*
X196800000Y-129400000D01*
X215800000Y-126900000D02*
G75*
G02*
X215800000Y-124900000I0J1000000D01*
G01*
X215800000Y-132900000D02*
G75*
G02*
X216300000Y-133400000I0J-500000D01*
G01*
X192800000Y-129400000D02*
X192800000Y-131900000D01*
X202800000Y-92400000D02*
G75*
G02*
X203800000Y-91400000I1000000J0D01*
G01*
X245800000Y-124900000D02*
X246800000Y-124900000D01*
X218800000Y-136400000D02*
X217800000Y-136400000D01*
X202798079Y-124901187D02*
X203800000Y-124900001D01*
X230800000Y-91400000D02*
G75*
G02*
X231800000Y-92400000I0J-1000000D01*
G01*
X233800000Y-134400000D02*
G75*
G02*
X233800000Y-136400000I0J-1000000D01*
G01*
X200800000Y-132900000D02*
G75*
G02*
X201300000Y-133400000I0J-500000D01*
G01*
X187800000Y-168900000D02*
X187800000Y-136400000D01*
X188800000Y-128400000D02*
G75*
G02*
X188300000Y-127900000I0J500000D01*
G01*
X231300000Y-133900000D02*
G75*
G02*
X230800000Y-134400000I-500000J0D01*
G01*
X197800000Y-132900000D02*
G75*
G02*
X196800000Y-131900000I-1000000J0D01*
G01*
X218800000Y-134400000D02*
G75*
G02*
X218800000Y-136400000I0J-1000000D01*
G01*
X246300000Y-127900000D02*
G75*
G02*
X245800000Y-128400000I-500000J0D01*
G01*
X236800000Y-128400000D02*
G75*
G02*
X237800000Y-129400000I1000000J0D01*
G01*
X216300000Y-127400000D02*
X216300000Y-127900000D01*
X188800000Y-91400000D02*
X200800000Y-91400000D01*
X200800000Y-126900000D02*
G75*
G02*
X201300000Y-127400000I0J-500000D01*
G01*
X188300000Y-133900000D02*
X188300000Y-133400000D01*
X221800000Y-128400000D02*
G75*
G02*
X222800000Y-129400000I1000000J0D01*
G01*
X203300000Y-127400000D02*
G75*
G02*
X203800000Y-126900000I500000J0D01*
G01*
X227800000Y-132900000D02*
G75*
G02*
X226800000Y-131900000I-1000000J0D01*
G01*
X200800000Y-136400000D02*
G75*
G02*
X200800000Y-134400000I0J1000000D01*
G01*
X201300000Y-133900000D02*
X201300000Y-133400000D01*
X216801921Y-136398813D02*
X215800000Y-136399999D01*
X230800000Y-126900000D02*
G75*
G02*
X231300000Y-127400000I0J-500000D01*
G01*
X242800000Y-132900000D02*
G75*
G02*
X241800000Y-131900000I-1000000J0D01*
G01*
X236800000Y-128400000D02*
X233800000Y-128400000D01*
X221800000Y-132900000D02*
X218800000Y-132900000D01*
X226800000Y-129400000D02*
X237800000Y-129400000D01*
X232798079Y-124901187D02*
X233800000Y-124900001D01*
X231800000Y-168900000D02*
G75*
G02*
X230800000Y-169900000I-1000000J0D01*
G01*
X211800000Y-129400000D02*
X222800000Y-129400000D01*
X207800000Y-131900000D02*
G75*
G02*
X206800000Y-132900000I0J-1000000D01*
G01*
X212800000Y-132900000D02*
G75*
G02*
X211800000Y-131900000I-1000000J0D01*
G01*
X230800000Y-126900000D02*
G75*
G02*
X230800000Y-124900000I0J1000000D01*
G01*
X196800000Y-131900000D02*
X207800000Y-131900000D01*
X230800000Y-169900000D02*
X218800000Y-169900000D01*
X203800000Y-136400000D02*
X202800000Y-136400000D01*
X196800000Y-129400000D02*
G75*
G02*
X197800000Y-128400000I0J1000000D01*
G01*
X230800000Y-136400000D02*
G75*
G02*
X230800000Y-134400000I0J1000000D01*
G01*
X233800000Y-124900000D02*
G75*
G02*
X233800000Y-126900000I0J-1000000D01*
G01*
X245800000Y-132900000D02*
G75*
G02*
X246300000Y-133400000I0J-500000D01*
G01*
X200800000Y-169900000D02*
X188800000Y-169900000D01*
X197800000Y-132900000D02*
X200800000Y-132900000D01*
X218800000Y-91400000D02*
X230800000Y-91400000D01*
X216300000Y-127900000D02*
G75*
G02*
X215800000Y-128400000I-500000J0D01*
G01*
X191800000Y-128400000D02*
X188800000Y-128400000D01*
X230800000Y-124900000D02*
X231800000Y-124900000D01*
X212800000Y-132900000D02*
X215800000Y-132900000D01*
X241800000Y-129400000D02*
G75*
G02*
X242800000Y-128400000I0J1000000D01*
G01*
X246300000Y-127400000D02*
X246300000Y-127900000D01*
X200800000Y-126900000D02*
G75*
G02*
X200800000Y-124900000I0J1000000D01*
G01*
X222800000Y-131900000D02*
X211800000Y-131900000D01*
X218300000Y-127400000D02*
G75*
G02*
X218800000Y-126900000I500000J0D01*
G01*
X218800000Y-169900000D02*
G75*
G02*
X217800000Y-168900000I0J1000000D01*
G01*
X227800000Y-128400000D02*
X230800000Y-128400000D01*
X201300000Y-127900000D02*
G75*
G02*
X200800000Y-128400000I-500000J0D01*
G01*
X187798079Y-124901187D02*
X188800000Y-124900001D01*
X227800000Y-132900000D02*
X230800000Y-132900000D01*
X203800000Y-124900000D02*
G75*
G02*
X203800000Y-126900000I0J-1000000D01*
G01*
X206800000Y-132900000D02*
X203800000Y-132900000D01*
X197800000Y-128400000D02*
X200800000Y-128400000D01*
X215800000Y-126900000D02*
G75*
G02*
X216300000Y-127400000I0J-500000D01*
G01*
X188300000Y-127400000D02*
G75*
G02*
X188800000Y-126900000I500000J0D01*
G01*
X218800000Y-128400000D02*
G75*
G02*
X218300000Y-127900000I0J500000D01*
G01*
X232798079Y-124901187D02*
X232800000Y-92400000D01*
X217798079Y-124901187D02*
X218800000Y-124900001D01*
X202798079Y-124901187D02*
X202800000Y-92400000D01*
X201801921Y-136398813D02*
X200800000Y-136399999D01*
X217800000Y-168900000D02*
X217800000Y-136400000D01*
X245800000Y-126900000D02*
G75*
G02*
X246300000Y-127400000I0J-500000D01*
G01*
X215800000Y-124900000D02*
X216800000Y-124900000D01*
X236800000Y-132900000D02*
X233800000Y-132900000D01*
X216800000Y-92400000D02*
X216800000Y-124900000D01*
X188300000Y-127400000D02*
X188300000Y-127900000D01*
X203800000Y-134400000D02*
G75*
G02*
X203800000Y-136400000I0J-1000000D01*
G01*
X237800000Y-131900000D02*
G75*
G02*
X236800000Y-132900000I0J-1000000D01*
G01*
X233800000Y-136400000D02*
X232800000Y-136400000D01*
X203800000Y-134400000D02*
G75*
G02*
X203300000Y-133900000I0J500000D01*
G01*
X203800000Y-169900000D02*
G75*
G02*
X202800000Y-168900000I0J1000000D01*
G01*
X201800000Y-168900000D02*
G75*
G02*
X200800000Y-169900000I-1000000J0D01*
G01*
X192800000Y-131900000D02*
G75*
G02*
X191800000Y-132900000I0J-1000000D01*
G01*
X218300000Y-127400000D02*
X218300000Y-127900000D01*
X245800000Y-126900000D02*
G75*
G02*
X245800000Y-124900000I0J1000000D01*
G01*
X226800000Y-129400000D02*
G75*
G02*
X227800000Y-128400000I0J1000000D01*
G01*
X246801921Y-136398813D02*
X246800000Y-168900000D01*
X201300000Y-133900000D02*
G75*
G02*
X200800000Y-134400000I-500000J0D01*
G01*
X230800000Y-132900000D02*
G75*
G02*
X231300000Y-133400000I0J-500000D01*
G01*
X233800000Y-91400000D02*
X245800000Y-91400000D01*
X242800000Y-132900000D02*
X245800000Y-132900000D01*
X233300000Y-133900000D02*
X233300000Y-133400000D01*
X232800000Y-92400000D02*
G75*
G02*
X233800000Y-91400000I1000000J0D01*
G01*
X232800000Y-168900000D02*
X232800000Y-136400000D01*
X191800000Y-128400000D02*
G75*
G02*
X192800000Y-129400000I1000000J0D01*
G01*
X222800000Y-131900000D02*
G75*
G02*
X221800000Y-132900000I0J-1000000D01*
G01*
X215800000Y-169900000D02*
X203800000Y-169900000D01*
X221800000Y-128400000D02*
X218800000Y-128400000D01*
X245800000Y-136400000D02*
G75*
G02*
X245800000Y-134400000I0J1000000D01*
G01*
X188800000Y-136400000D02*
X187800000Y-136400000D01*
X188300000Y-133400000D02*
G75*
G02*
X188800000Y-132900000I500000J0D01*
G01*
X203300000Y-133900000D02*
X203300000Y-133400000D01*
X237800000Y-131900000D02*
X226800000Y-131900000D01*
X216800000Y-168900000D02*
G75*
G02*
X215800000Y-169900000I-1000000J0D01*
G01*
X200800000Y-91400000D02*
G75*
G02*
X201800000Y-92400000I0J-1000000D01*
G01*
X211800000Y-129400000D02*
G75*
G02*
X212800000Y-128400000I0J1000000D01*
G01*
X200800000Y-124900000D02*
X201800000Y-124900000D01*
X218300000Y-133900000D02*
X218300000Y-133400000D01*
M02*
