G04 #@! TF.GenerationSoftware,KiCad,Pcbnew,9.0.2*
G04 #@! TF.CreationDate,2025-12-10T21:14:10-05:00*
G04 #@! TF.ProjectId,ThumbsUp,5468756d-6273-4557-902e-6b696361645f,rev?*
G04 #@! TF.SameCoordinates,Original*
G04 #@! TF.FileFunction,Copper,L1,Top*
G04 #@! TF.FilePolarity,Positive*
%FSLAX46Y46*%
G04 Gerber Fmt 4.6, Leading zero omitted, Abs format (unit mm)*
G04 Created by KiCad (PCBNEW 9.0.2) date 2025-12-10 21:14:10*
%MOMM*%
%LPD*%
G01*
G04 APERTURE LIST*
G04 #@! TA.AperFunction,ComponentPad*
%ADD10C,7.000000*%
G04 #@! TD*
G04 #@! TA.AperFunction,ViaPad*
%ADD11C,0.800000*%
G04 #@! TD*
G04 APERTURE END LIST*
D10*
X22400000Y-275200000D03*
D11*
X194800000Y-127900000D03*
X209800000Y-127900000D03*
X239800000Y-112900000D03*
X194800000Y-112900000D03*
X224800000Y-127900000D03*
X209800000Y-112900000D03*
X224800000Y-112900000D03*
X239800000Y-127900000D03*
G04 #@! TA.AperFunction,Conductor*
G36*
X200805394Y-87425971D02*
G01*
X200958410Y-87439359D01*
X200979695Y-87443111D01*
X201122826Y-87481463D01*
X201143123Y-87488851D01*
X201277430Y-87551479D01*
X201296133Y-87562278D01*
X201417514Y-87647271D01*
X201434071Y-87661164D01*
X201538835Y-87765928D01*
X201552728Y-87782485D01*
X201637721Y-87903866D01*
X201648522Y-87922573D01*
X201711146Y-88056870D01*
X201718536Y-88077175D01*
X201756887Y-88220303D01*
X201760640Y-88241589D01*
X201774028Y-88394604D01*
X201774500Y-88405412D01*
X201774500Y-114750500D01*
X201754815Y-114817539D01*
X201702011Y-114863294D01*
X201650500Y-114874500D01*
X200808285Y-114874500D01*
X200800000Y-114874500D01*
X200704973Y-114874500D01*
X200518156Y-114909423D01*
X200340942Y-114978075D01*
X200340938Y-114978077D01*
X200179349Y-115078129D01*
X200038901Y-115206164D01*
X199924367Y-115357830D01*
X199839653Y-115527957D01*
X199787642Y-115710760D01*
X199770107Y-115899999D01*
X199770107Y-115900000D01*
X199787642Y-116089239D01*
X199839653Y-116272042D01*
X199873581Y-116340177D01*
X199924367Y-116442169D01*
X200038900Y-116593834D01*
X200179351Y-116721872D01*
X200340937Y-116821922D01*
X200518156Y-116890577D01*
X200704973Y-116925500D01*
X200791715Y-116925500D01*
X200791874Y-116925500D01*
X200808059Y-116926561D01*
X200906623Y-116939537D01*
X200937890Y-116947915D01*
X200982649Y-116966454D01*
X201022168Y-116982823D01*
X201050197Y-116999005D01*
X201068276Y-117012878D01*
X201122571Y-117054541D01*
X201145458Y-117077428D01*
X201164755Y-117102575D01*
X201192198Y-117138340D01*
X201200991Y-117149798D01*
X201217177Y-117177834D01*
X201252084Y-117262109D01*
X201260462Y-117293375D01*
X201264915Y-117327196D01*
X201272979Y-117388450D01*
X201273439Y-117391939D01*
X201274500Y-117408125D01*
X201274500Y-117891874D01*
X201273439Y-117908060D01*
X201260462Y-118006624D01*
X201252084Y-118037890D01*
X201217177Y-118122165D01*
X201200991Y-118150201D01*
X201145458Y-118222571D01*
X201122571Y-118245458D01*
X201050201Y-118300991D01*
X201022165Y-118317177D01*
X200937890Y-118352084D01*
X200906624Y-118360462D01*
X200818244Y-118372098D01*
X200808058Y-118373439D01*
X200791874Y-118374500D01*
X197941804Y-118374500D01*
X197874765Y-118354815D01*
X197829010Y-118302011D01*
X197820000Y-118273735D01*
X197801218Y-118175278D01*
X197789261Y-118112593D01*
X197789260Y-118112591D01*
X197789260Y-118112589D01*
X197717888Y-117932324D01*
X197717882Y-117932312D01*
X197702491Y-117908060D01*
X197613990Y-117768605D01*
X197481260Y-117627262D01*
X197406480Y-117572931D01*
X197324395Y-117513292D01*
X197228691Y-117468258D01*
X197148956Y-117430738D01*
X197148951Y-117430736D01*
X197148949Y-117430736D01*
X196961155Y-117382518D01*
X196767644Y-117370343D01*
X196767637Y-117370343D01*
X196575278Y-117394644D01*
X196575274Y-117394645D01*
X196390875Y-117454560D01*
X196390871Y-117454561D01*
X196220960Y-117547971D01*
X196220959Y-117547971D01*
X196071563Y-117671563D01*
X195947971Y-117820959D01*
X195947971Y-117820960D01*
X195854561Y-117990871D01*
X195854560Y-117990875D01*
X195794645Y-118175274D01*
X195794644Y-118175278D01*
X195770343Y-118367637D01*
X195770343Y-118367644D01*
X195782518Y-118561155D01*
X195789954Y-118590116D01*
X195830738Y-118748956D01*
X195848431Y-118786555D01*
X195913292Y-118924395D01*
X195982714Y-119019945D01*
X196027262Y-119081260D01*
X196168605Y-119213990D01*
X196332315Y-119317884D01*
X196332319Y-119317885D01*
X196332324Y-119317888D01*
X196512590Y-119389260D01*
X196512591Y-119389260D01*
X196512593Y-119389261D01*
X196703053Y-119425593D01*
X196800000Y-119425500D01*
X196808285Y-119425500D01*
X207791715Y-119425500D01*
X207800000Y-119425500D01*
X207896943Y-119425593D01*
X207896943Y-119425592D01*
X207896947Y-119425593D01*
X208087407Y-119389261D01*
X208094894Y-119386297D01*
X208267675Y-119317888D01*
X208267675Y-119317887D01*
X208267685Y-119317884D01*
X208431395Y-119213990D01*
X208572738Y-119081260D01*
X208686706Y-118924397D01*
X208769262Y-118748956D01*
X208817482Y-118561153D01*
X208829657Y-118367642D01*
X208805355Y-118175276D01*
X208745439Y-117990872D01*
X208652029Y-117820961D01*
X208652028Y-117820959D01*
X208603135Y-117761857D01*
X208528437Y-117671563D01*
X208379039Y-117547971D01*
X208209128Y-117454561D01*
X208066212Y-117408125D01*
X208024725Y-117394645D01*
X208024721Y-117394644D01*
X207832358Y-117370343D01*
X207638844Y-117382518D01*
X207451050Y-117430736D01*
X207451047Y-117430737D01*
X207451045Y-117430737D01*
X207451044Y-117430738D01*
X207422383Y-117444225D01*
X207275604Y-117513292D01*
X207118738Y-117627263D01*
X206986012Y-117768602D01*
X206986006Y-117768610D01*
X206882117Y-117932312D01*
X206882111Y-117932324D01*
X206810739Y-118112589D01*
X206780000Y-118273735D01*
X206748102Y-118335899D01*
X206687660Y-118370949D01*
X206658196Y-118374500D01*
X203808126Y-118374500D01*
X203791941Y-118373439D01*
X203780208Y-118371894D01*
X203693375Y-118360462D01*
X203662109Y-118352084D01*
X203577834Y-118317177D01*
X203549800Y-118300992D01*
X203514278Y-118273735D01*
X203477428Y-118245458D01*
X203454541Y-118222571D01*
X203418248Y-118175274D01*
X203399005Y-118150197D01*
X203382823Y-118122168D01*
X203363145Y-118074660D01*
X203347915Y-118037890D01*
X203339537Y-118006623D01*
X203326561Y-117908059D01*
X203325500Y-117891874D01*
X203325500Y-117408125D01*
X203326561Y-117391940D01*
X203326890Y-117389438D01*
X203335084Y-117327196D01*
X205238021Y-117327196D01*
X205287325Y-117376500D01*
X206052841Y-117376500D01*
X206155975Y-117213988D01*
X206159222Y-117209129D01*
X206179547Y-117180210D01*
X206183017Y-117175512D01*
X206211850Y-117138340D01*
X206215539Y-117133810D01*
X206238497Y-117106929D01*
X206242396Y-117102575D01*
X206407335Y-116926933D01*
X206411433Y-116922770D01*
X206436826Y-116898162D01*
X206441121Y-116894192D01*
X206476411Y-116863082D01*
X206480882Y-116859324D01*
X206508461Y-116837230D01*
X206513103Y-116833687D01*
X206658978Y-116727702D01*
X208947587Y-116727702D01*
X208959463Y-116735774D01*
X208964213Y-116739168D01*
X208992476Y-116760388D01*
X208997066Y-116764006D01*
X209182710Y-116917584D01*
X209187122Y-116921414D01*
X209213268Y-116945205D01*
X209217496Y-116949238D01*
X209250762Y-116982504D01*
X209254795Y-116986732D01*
X209278586Y-117012878D01*
X209282416Y-117017290D01*
X209435994Y-117202934D01*
X209439612Y-117207524D01*
X209460832Y-117235787D01*
X209464226Y-117240537D01*
X209490670Y-117279446D01*
X209493841Y-117284357D01*
X209512314Y-117314502D01*
X209515249Y-117319554D01*
X209631325Y-117530694D01*
X209634019Y-117535880D01*
X209649571Y-117567626D01*
X209652017Y-117572931D01*
X209670701Y-117616107D01*
X209672894Y-117621524D01*
X209685389Y-117654592D01*
X209687325Y-117660104D01*
X209761779Y-117889252D01*
X209763454Y-117894851D01*
X209772782Y-117928950D01*
X209774190Y-117934619D01*
X209784452Y-117980529D01*
X209785591Y-117986259D01*
X209789690Y-118009749D01*
X209814713Y-117984726D01*
X209815548Y-117980529D01*
X209825810Y-117934619D01*
X209827218Y-117928950D01*
X209836546Y-117894851D01*
X209838221Y-117889252D01*
X209912675Y-117660104D01*
X209914611Y-117654592D01*
X209927106Y-117621524D01*
X209929299Y-117616107D01*
X209947983Y-117572931D01*
X209950429Y-117567626D01*
X209965981Y-117535880D01*
X209968675Y-117530694D01*
X210084751Y-117319554D01*
X210087686Y-117314502D01*
X210106159Y-117284357D01*
X210109330Y-117279446D01*
X210135774Y-117240537D01*
X210139168Y-117235787D01*
X210160388Y-117207524D01*
X210164006Y-117202934D01*
X210317584Y-117017290D01*
X210321414Y-117012878D01*
X210345205Y-116986732D01*
X210349238Y-116982504D01*
X210382504Y-116949238D01*
X210386732Y-116945205D01*
X210412878Y-116921414D01*
X210417290Y-116917585D01*
X210456038Y-116885529D01*
X210133178Y-116562669D01*
X212648154Y-116562669D01*
X212770610Y-116620292D01*
X212775840Y-116622905D01*
X212807092Y-116639453D01*
X212812190Y-116642309D01*
X212852685Y-116666259D01*
X212857641Y-116669350D01*
X212887177Y-116688752D01*
X212891983Y-116692073D01*
X213086897Y-116833687D01*
X213091539Y-116837230D01*
X213119118Y-116859324D01*
X213123589Y-116863082D01*
X213158879Y-116894192D01*
X213163174Y-116898162D01*
X213188567Y-116922770D01*
X213192665Y-116926933D01*
X213357604Y-117102575D01*
X213361503Y-117106929D01*
X213384461Y-117133810D01*
X213388150Y-117138340D01*
X213416983Y-117175512D01*
X213420453Y-117180210D01*
X213440778Y-117209129D01*
X213444025Y-117213988D01*
X213547159Y-117376500D01*
X213958475Y-117376500D01*
X214198262Y-117136712D01*
X214114047Y-117025194D01*
X214110701Y-117020543D01*
X214091110Y-116991943D01*
X214087981Y-116987142D01*
X214079521Y-116973478D01*
X213158433Y-116052390D01*
X212648154Y-116562669D01*
X210133178Y-116562669D01*
X209622899Y-116052390D01*
X208947587Y-116727702D01*
X206658978Y-116727702D01*
X206708017Y-116692073D01*
X206712823Y-116688752D01*
X206719403Y-116684428D01*
X206087365Y-116052390D01*
X205770215Y-116369540D01*
X205713941Y-116567330D01*
X205712246Y-116572802D01*
X205701233Y-116605661D01*
X205699287Y-116611050D01*
X205682625Y-116654059D01*
X205680433Y-116659351D01*
X205666433Y-116691058D01*
X205663999Y-116696244D01*
X205558728Y-116907656D01*
X205556057Y-116912723D01*
X205539198Y-116942991D01*
X205536298Y-116947926D01*
X205512019Y-116987141D01*
X205508890Y-116991943D01*
X205489299Y-117020543D01*
X205485953Y-117025194D01*
X205343623Y-117213668D01*
X205340066Y-117218159D01*
X205317930Y-117244816D01*
X205314171Y-117249135D01*
X205283100Y-117283219D01*
X205279143Y-117287363D01*
X205254634Y-117311872D01*
X205250491Y-117315829D01*
X205238021Y-117327196D01*
X203335084Y-117327196D01*
X203339537Y-117293375D01*
X203347915Y-117262109D01*
X203363145Y-117225340D01*
X203382825Y-117177828D01*
X203399003Y-117149805D01*
X203454541Y-117077427D01*
X203477428Y-117054541D01*
X203549805Y-116999003D01*
X203577828Y-116982825D01*
X203662109Y-116947915D01*
X203693375Y-116939537D01*
X203791941Y-116926561D01*
X203808126Y-116925500D01*
X203895025Y-116925500D01*
X203895027Y-116925500D01*
X204081844Y-116890577D01*
X204259063Y-116821922D01*
X204420649Y-116721872D01*
X204561100Y-116593834D01*
X204675633Y-116442169D01*
X204760347Y-116272040D01*
X204812357Y-116089242D01*
X204829893Y-115900000D01*
X204812357Y-115710758D01*
X204760347Y-115527960D01*
X204759906Y-115527075D01*
X204676014Y-115358597D01*
X204675633Y-115357831D01*
X204667226Y-115346699D01*
X206793058Y-115346699D01*
X207818656Y-116372297D01*
X207834331Y-116372051D01*
X207840172Y-116372097D01*
X207887195Y-116373573D01*
X207890169Y-116373736D01*
X208917206Y-115346699D01*
X210328592Y-115346699D01*
X211390666Y-116408773D01*
X212452741Y-115346698D01*
X211390667Y-114284624D01*
X210328592Y-115346699D01*
X208917206Y-115346699D01*
X208917207Y-115346698D01*
X207855133Y-114284624D01*
X206793058Y-115346699D01*
X204667226Y-115346699D01*
X204561100Y-115206166D01*
X204548126Y-115194339D01*
X204420650Y-115078129D01*
X204420649Y-115078128D01*
X204259063Y-114978078D01*
X204259061Y-114978077D01*
X204259057Y-114978075D01*
X204171678Y-114944225D01*
X204081844Y-114909423D01*
X203895027Y-114874500D01*
X203895025Y-114874500D01*
X203835185Y-114874500D01*
X203834984Y-114874460D01*
X203801238Y-114874500D01*
X203773160Y-114874500D01*
X203772942Y-114874533D01*
X202949647Y-114875508D01*
X202882584Y-114855903D01*
X202836767Y-114803153D01*
X202825500Y-114751508D01*
X202825500Y-113578932D01*
X205025291Y-113578932D01*
X206087366Y-114641007D01*
X207149441Y-113578932D01*
X206087366Y-112516857D01*
X205025291Y-113578932D01*
X202825500Y-113578932D01*
X202825500Y-111245189D01*
X203823500Y-111245189D01*
X203823500Y-112377141D01*
X204319599Y-112873240D01*
X205381674Y-111811165D01*
X206793058Y-111811165D01*
X207855133Y-112873240D01*
X207893500Y-112834873D01*
X207893500Y-112810516D01*
X208891500Y-112810516D01*
X208891500Y-112989483D01*
X208926411Y-113164992D01*
X208926413Y-113165000D01*
X208994896Y-113330332D01*
X208994901Y-113330342D01*
X209094321Y-113479134D01*
X209094324Y-113479138D01*
X209220861Y-113605675D01*
X209220865Y-113605678D01*
X209369657Y-113705098D01*
X209369661Y-113705100D01*
X209369664Y-113705102D01*
X209535000Y-113773587D01*
X209710516Y-113808499D01*
X209710520Y-113808500D01*
X209710521Y-113808500D01*
X209889480Y-113808500D01*
X209889481Y-113808499D01*
X210065000Y-113773587D01*
X210230336Y-113705102D01*
X210379135Y-113605678D01*
X210405881Y-113578932D01*
X212096359Y-113578932D01*
X213158434Y-114641007D01*
X214220509Y-113578932D01*
X213158434Y-112516857D01*
X212096359Y-113578932D01*
X210405881Y-113578932D01*
X210505678Y-113479135D01*
X210605102Y-113330336D01*
X210673587Y-113165000D01*
X210708500Y-112989479D01*
X210708500Y-112810521D01*
X210673587Y-112635000D01*
X210605102Y-112469664D01*
X210605100Y-112469661D01*
X210605098Y-112469657D01*
X210505678Y-112320865D01*
X210505675Y-112320861D01*
X210379138Y-112194324D01*
X210379134Y-112194321D01*
X210230342Y-112094901D01*
X210230332Y-112094896D01*
X210065000Y-112026413D01*
X210064992Y-112026411D01*
X209889483Y-111991500D01*
X209889479Y-111991500D01*
X209710521Y-111991500D01*
X209710516Y-111991500D01*
X209535007Y-112026411D01*
X209534999Y-112026413D01*
X209369667Y-112094896D01*
X209369657Y-112094901D01*
X209220865Y-112194321D01*
X209220861Y-112194324D01*
X209094324Y-112320861D01*
X209094321Y-112320865D01*
X208994901Y-112469657D01*
X208994896Y-112469667D01*
X208926413Y-112634999D01*
X208926411Y-112635007D01*
X208891500Y-112810516D01*
X207893500Y-112810516D01*
X207893500Y-112786019D01*
X207893649Y-112779937D01*
X207895455Y-112743162D01*
X207895903Y-112737091D01*
X207900706Y-112688322D01*
X207901451Y-112682279D01*
X207906855Y-112645851D01*
X207907896Y-112639856D01*
X207952371Y-112416264D01*
X207953704Y-112410327D01*
X207962653Y-112374599D01*
X207964277Y-112368729D01*
X207978504Y-112321833D01*
X207980413Y-112316056D01*
X207992816Y-112281393D01*
X207995006Y-112275715D01*
X208082242Y-112065111D01*
X208084707Y-112059549D01*
X208100446Y-112026270D01*
X208103183Y-112020834D01*
X208126284Y-111977613D01*
X208129284Y-111972317D01*
X208148219Y-111940725D01*
X208151476Y-111935581D01*
X208278128Y-111746033D01*
X208281633Y-111741057D01*
X208303566Y-111711484D01*
X208307309Y-111706687D01*
X208338398Y-111668804D01*
X208342373Y-111664196D01*
X208367104Y-111636909D01*
X208371302Y-111632500D01*
X208532500Y-111471302D01*
X208536909Y-111467104D01*
X208555918Y-111449875D01*
X208407130Y-111301087D01*
X210838668Y-111301087D01*
X210953967Y-111378128D01*
X210958943Y-111381633D01*
X210988516Y-111403566D01*
X210993313Y-111407309D01*
X211031196Y-111438398D01*
X211035804Y-111442373D01*
X211063091Y-111467104D01*
X211067500Y-111471302D01*
X211228698Y-111632500D01*
X211232896Y-111636909D01*
X211257627Y-111664196D01*
X211261602Y-111668804D01*
X211292691Y-111706687D01*
X211296434Y-111711484D01*
X211318367Y-111741057D01*
X211321872Y-111746033D01*
X211448524Y-111935581D01*
X211451781Y-111940725D01*
X211470716Y-111972317D01*
X211473716Y-111977613D01*
X211496817Y-112020834D01*
X211499554Y-112026270D01*
X211515293Y-112059549D01*
X211517758Y-112065111D01*
X211604994Y-112275715D01*
X211607184Y-112281393D01*
X211619587Y-112316056D01*
X211621496Y-112321833D01*
X211635723Y-112368729D01*
X211637347Y-112374599D01*
X211646296Y-112410327D01*
X211647629Y-112416264D01*
X211680813Y-112583093D01*
X212452742Y-111811165D01*
X213864126Y-111811165D01*
X214926201Y-112873240D01*
X215776500Y-112022941D01*
X215776500Y-111599389D01*
X214926201Y-110749090D01*
X213864126Y-111811165D01*
X212452742Y-111811165D01*
X211390666Y-110749089D01*
X210838668Y-111301087D01*
X208407130Y-111301087D01*
X207855133Y-110749090D01*
X206793058Y-111811165D01*
X205381674Y-111811165D01*
X204319599Y-110749090D01*
X203823500Y-111245189D01*
X202825500Y-111245189D01*
X202825500Y-110043398D01*
X205025291Y-110043398D01*
X206087366Y-111105473D01*
X207149441Y-110043398D01*
X208560825Y-110043398D01*
X209527733Y-111010306D01*
X209539857Y-111007895D01*
X209545851Y-111006855D01*
X209582279Y-111001451D01*
X209588322Y-111000706D01*
X209637091Y-110995903D01*
X209643162Y-110995455D01*
X209679937Y-110993649D01*
X209686019Y-110993500D01*
X209734873Y-110993500D01*
X210684975Y-110043398D01*
X212096359Y-110043398D01*
X213158434Y-111105473D01*
X214220509Y-110043398D01*
X213158434Y-108981323D01*
X212096359Y-110043398D01*
X210684975Y-110043398D01*
X209622900Y-108981323D01*
X208560825Y-110043398D01*
X207149441Y-110043398D01*
X206087366Y-108981323D01*
X205025291Y-110043398D01*
X202825500Y-110043398D01*
X202825500Y-107709655D01*
X203823500Y-107709655D01*
X203823500Y-108841607D01*
X204319599Y-109337706D01*
X205381674Y-108275631D01*
X206793058Y-108275631D01*
X207855133Y-109337706D01*
X208917208Y-108275631D01*
X210328592Y-108275631D01*
X211390667Y-109337706D01*
X212452742Y-108275631D01*
X213864126Y-108275631D01*
X214926201Y-109337706D01*
X215776500Y-108487407D01*
X215776500Y-108063855D01*
X214926201Y-107213556D01*
X213864126Y-108275631D01*
X212452742Y-108275631D01*
X211390667Y-107213556D01*
X210328592Y-108275631D01*
X208917208Y-108275631D01*
X207855133Y-107213556D01*
X206793058Y-108275631D01*
X205381674Y-108275631D01*
X204319599Y-107213556D01*
X203823500Y-107709655D01*
X202825500Y-107709655D01*
X202825500Y-106507864D01*
X205025291Y-106507864D01*
X206087366Y-107569939D01*
X207149441Y-106507864D01*
X208560825Y-106507864D01*
X209622900Y-107569939D01*
X210684975Y-106507864D01*
X212096359Y-106507864D01*
X213158434Y-107569939D01*
X214220509Y-106507864D01*
X213158434Y-105445789D01*
X212096359Y-106507864D01*
X210684975Y-106507864D01*
X209622900Y-105445789D01*
X208560825Y-106507864D01*
X207149441Y-106507864D01*
X206087366Y-105445789D01*
X205025291Y-106507864D01*
X202825500Y-106507864D01*
X202825500Y-104174121D01*
X203823500Y-104174121D01*
X203823500Y-105306073D01*
X204319599Y-105802172D01*
X205381674Y-104740097D01*
X206793058Y-104740097D01*
X207855133Y-105802172D01*
X208917208Y-104740097D01*
X210328592Y-104740097D01*
X211390667Y-105802172D01*
X212452742Y-104740097D01*
X213864126Y-104740097D01*
X214926201Y-105802172D01*
X215776500Y-104951873D01*
X215776500Y-104528321D01*
X214926201Y-103678022D01*
X213864126Y-104740097D01*
X212452742Y-104740097D01*
X211390667Y-103678022D01*
X210328592Y-104740097D01*
X208917208Y-104740097D01*
X207855133Y-103678022D01*
X206793058Y-104740097D01*
X205381674Y-104740097D01*
X204319599Y-103678022D01*
X203823500Y-104174121D01*
X202825500Y-104174121D01*
X202825500Y-102972330D01*
X205025291Y-102972330D01*
X206087366Y-104034405D01*
X207149441Y-102972330D01*
X208560825Y-102972330D01*
X209622900Y-104034405D01*
X210684975Y-102972330D01*
X212096359Y-102972330D01*
X213158434Y-104034405D01*
X214220509Y-102972330D01*
X213158434Y-101910255D01*
X212096359Y-102972330D01*
X210684975Y-102972330D01*
X209622900Y-101910255D01*
X208560825Y-102972330D01*
X207149441Y-102972330D01*
X206087366Y-101910255D01*
X205025291Y-102972330D01*
X202825500Y-102972330D01*
X202825500Y-100638587D01*
X203823500Y-100638587D01*
X203823500Y-101770539D01*
X204319599Y-102266638D01*
X205381674Y-101204563D01*
X206793058Y-101204563D01*
X207855133Y-102266638D01*
X208917208Y-101204563D01*
X210328592Y-101204563D01*
X211390667Y-102266638D01*
X212452742Y-101204563D01*
X213864126Y-101204563D01*
X214926201Y-102266638D01*
X215776500Y-101416339D01*
X215776500Y-100992787D01*
X214926201Y-100142488D01*
X213864126Y-101204563D01*
X212452742Y-101204563D01*
X211390667Y-100142488D01*
X210328592Y-101204563D01*
X208917208Y-101204563D01*
X207855133Y-100142488D01*
X206793058Y-101204563D01*
X205381674Y-101204563D01*
X204319599Y-100142488D01*
X203823500Y-100638587D01*
X202825500Y-100638587D01*
X202825500Y-99436796D01*
X205025291Y-99436796D01*
X206087366Y-100498871D01*
X207149441Y-99436796D01*
X208560825Y-99436796D01*
X209622900Y-100498871D01*
X210684975Y-99436796D01*
X212096359Y-99436796D01*
X213158434Y-100498871D01*
X214220509Y-99436796D01*
X213158434Y-98374721D01*
X212096359Y-99436796D01*
X210684975Y-99436796D01*
X209622900Y-98374721D01*
X208560825Y-99436796D01*
X207149441Y-99436796D01*
X206087366Y-98374721D01*
X205025291Y-99436796D01*
X202825500Y-99436796D01*
X202825500Y-97103053D01*
X203823500Y-97103053D01*
X203823500Y-98235005D01*
X204319599Y-98731104D01*
X205381673Y-97669029D01*
X206793058Y-97669029D01*
X207855133Y-98731104D01*
X208917207Y-97669029D01*
X210328592Y-97669029D01*
X211390667Y-98731104D01*
X212452741Y-97669029D01*
X213864126Y-97669029D01*
X214926201Y-98731104D01*
X215776500Y-97880805D01*
X215776500Y-97457253D01*
X214926201Y-96606954D01*
X213864126Y-97669029D01*
X212452741Y-97669029D01*
X211390667Y-96606954D01*
X210328592Y-97669029D01*
X208917207Y-97669029D01*
X207855133Y-96606954D01*
X206793058Y-97669029D01*
X205381673Y-97669029D01*
X204319598Y-96606954D01*
X203823500Y-97103053D01*
X202825500Y-97103053D01*
X202825500Y-95901262D01*
X205025291Y-95901262D01*
X206087366Y-96963337D01*
X207149440Y-95901262D01*
X208560825Y-95901262D01*
X209622900Y-96963337D01*
X210684974Y-95901262D01*
X212096359Y-95901262D01*
X213158434Y-96963337D01*
X214220508Y-95901262D01*
X213158434Y-94839187D01*
X212096359Y-95901262D01*
X210684974Y-95901262D01*
X209622900Y-94839187D01*
X208560825Y-95901262D01*
X207149440Y-95901262D01*
X206087366Y-94839187D01*
X205025291Y-95901262D01*
X202825500Y-95901262D01*
X202825500Y-93567519D01*
X203823500Y-93567519D01*
X203823500Y-94699471D01*
X204319599Y-95195570D01*
X205381673Y-94133495D01*
X206793058Y-94133495D01*
X207855133Y-95195570D01*
X208917207Y-94133495D01*
X210328592Y-94133495D01*
X211390667Y-95195570D01*
X212452741Y-94133495D01*
X213864126Y-94133495D01*
X214926201Y-95195570D01*
X215776500Y-94345271D01*
X215776500Y-93921719D01*
X214926201Y-93071420D01*
X213864126Y-94133495D01*
X212452741Y-94133495D01*
X211390667Y-93071420D01*
X210328592Y-94133495D01*
X208917207Y-94133495D01*
X207855133Y-93071420D01*
X206793058Y-94133495D01*
X205381673Y-94133495D01*
X204319598Y-93071420D01*
X203823500Y-93567519D01*
X202825500Y-93567519D01*
X202825500Y-92365728D01*
X205025291Y-92365728D01*
X206087366Y-93427803D01*
X207149440Y-92365728D01*
X208560825Y-92365728D01*
X209622900Y-93427803D01*
X210684974Y-92365728D01*
X212096359Y-92365728D01*
X213158434Y-93427803D01*
X214220508Y-92365728D01*
X213158434Y-91303654D01*
X212096359Y-92365728D01*
X210684974Y-92365728D01*
X209622900Y-91303654D01*
X208560825Y-92365728D01*
X207149440Y-92365728D01*
X206087366Y-91303654D01*
X205025291Y-92365728D01*
X202825500Y-92365728D01*
X202825500Y-90031986D01*
X203823500Y-90031986D01*
X203823500Y-91163937D01*
X204319599Y-91660036D01*
X205381673Y-90597961D01*
X206793058Y-90597961D01*
X207855133Y-91660036D01*
X208917207Y-90597961D01*
X210328592Y-90597961D01*
X211390667Y-91660036D01*
X212452741Y-90597961D01*
X213864126Y-90597961D01*
X214926200Y-91660036D01*
X215776500Y-90809737D01*
X215776500Y-90386186D01*
X214926201Y-89535887D01*
X213864126Y-90597961D01*
X212452741Y-90597961D01*
X211390667Y-89535887D01*
X210328592Y-90597961D01*
X208917207Y-90597961D01*
X207855133Y-89535887D01*
X206793058Y-90597961D01*
X205381673Y-90597961D01*
X204319599Y-89535887D01*
X203823500Y-90031986D01*
X202825500Y-90031986D01*
X202825500Y-88830195D01*
X205025291Y-88830195D01*
X206087366Y-89892270D01*
X207149441Y-88830195D01*
X208560825Y-88830195D01*
X209622900Y-89892270D01*
X210684975Y-88830195D01*
X212096359Y-88830195D01*
X213158434Y-89892270D01*
X214220509Y-88830195D01*
X213813814Y-88423500D01*
X212503054Y-88423500D01*
X212096359Y-88830195D01*
X210684975Y-88830195D01*
X210278280Y-88423500D01*
X208967520Y-88423500D01*
X208560825Y-88830195D01*
X207149441Y-88830195D01*
X206742746Y-88423500D01*
X205431986Y-88423500D01*
X205025291Y-88830195D01*
X202825500Y-88830195D01*
X202825500Y-88405412D01*
X202825972Y-88394605D01*
X202826424Y-88389438D01*
X202839359Y-88241587D01*
X202843112Y-88220303D01*
X202881463Y-88077175D01*
X202888849Y-88056880D01*
X202951481Y-87922564D01*
X202962274Y-87903871D01*
X203047271Y-87782485D01*
X203061158Y-87765934D01*
X203165934Y-87661158D01*
X203182485Y-87647271D01*
X203216628Y-87623362D01*
X203303871Y-87562274D01*
X203322564Y-87551481D01*
X203456880Y-87488849D01*
X203477169Y-87481464D01*
X203620306Y-87443111D01*
X203641587Y-87439359D01*
X203794605Y-87425971D01*
X203805412Y-87425500D01*
X203808285Y-87425500D01*
X215791715Y-87425500D01*
X215794588Y-87425500D01*
X215805394Y-87425971D01*
X215958410Y-87439359D01*
X215979695Y-87443111D01*
X216122826Y-87481463D01*
X216143123Y-87488851D01*
X216277430Y-87551479D01*
X216296133Y-87562278D01*
X216417514Y-87647271D01*
X216434071Y-87661164D01*
X216538835Y-87765928D01*
X216552728Y-87782485D01*
X216637721Y-87903866D01*
X216648522Y-87922573D01*
X216711146Y-88056870D01*
X216718536Y-88077175D01*
X216756887Y-88220303D01*
X216760640Y-88241589D01*
X216774028Y-88394604D01*
X216774500Y-88405412D01*
X216774500Y-114750500D01*
X216754815Y-114817539D01*
X216702011Y-114863294D01*
X216650500Y-114874500D01*
X215808285Y-114874500D01*
X215800000Y-114874500D01*
X215704973Y-114874500D01*
X215518156Y-114909423D01*
X215340942Y-114978075D01*
X215340938Y-114978077D01*
X215179349Y-115078129D01*
X215038901Y-115206164D01*
X214924367Y-115357830D01*
X214839653Y-115527957D01*
X214787642Y-115710760D01*
X214770107Y-115899999D01*
X214770107Y-115900000D01*
X214787642Y-116089239D01*
X214839653Y-116272042D01*
X214873581Y-116340177D01*
X214924367Y-116442169D01*
X215038900Y-116593834D01*
X215179351Y-116721872D01*
X215340937Y-116821922D01*
X215518156Y-116890577D01*
X215704973Y-116925500D01*
X215791715Y-116925500D01*
X215791874Y-116925500D01*
X215808059Y-116926561D01*
X215906623Y-116939537D01*
X215937890Y-116947915D01*
X215982649Y-116966454D01*
X216022168Y-116982823D01*
X216050197Y-116999005D01*
X216068276Y-117012878D01*
X216122571Y-117054541D01*
X216145458Y-117077428D01*
X216164755Y-117102575D01*
X216192198Y-117138340D01*
X216200991Y-117149798D01*
X216217177Y-117177834D01*
X216252084Y-117262109D01*
X216260462Y-117293375D01*
X216264915Y-117327196D01*
X216272979Y-117388450D01*
X216273439Y-117391939D01*
X216274500Y-117408125D01*
X216274500Y-117891874D01*
X216273439Y-117908060D01*
X216260462Y-118006624D01*
X216252084Y-118037890D01*
X216217177Y-118122165D01*
X216200991Y-118150201D01*
X216145458Y-118222571D01*
X216122571Y-118245458D01*
X216050201Y-118300991D01*
X216022165Y-118317177D01*
X215937890Y-118352084D01*
X215906624Y-118360462D01*
X215818244Y-118372098D01*
X215808058Y-118373439D01*
X215791874Y-118374500D01*
X212941804Y-118374500D01*
X212874765Y-118354815D01*
X212829010Y-118302011D01*
X212820000Y-118273735D01*
X212801218Y-118175278D01*
X212789261Y-118112593D01*
X212789260Y-118112591D01*
X212789260Y-118112589D01*
X212717888Y-117932324D01*
X212717882Y-117932312D01*
X212702491Y-117908060D01*
X212613990Y-117768605D01*
X212481260Y-117627262D01*
X212406480Y-117572931D01*
X212324395Y-117513292D01*
X212228691Y-117468258D01*
X212148956Y-117430738D01*
X212148951Y-117430736D01*
X212148949Y-117430736D01*
X211961155Y-117382518D01*
X211767644Y-117370343D01*
X211767637Y-117370343D01*
X211575278Y-117394644D01*
X211575274Y-117394645D01*
X211390875Y-117454560D01*
X211390871Y-117454561D01*
X211220960Y-117547971D01*
X211220959Y-117547971D01*
X211071563Y-117671563D01*
X210947971Y-117820959D01*
X210947971Y-117820960D01*
X210854561Y-117990871D01*
X210854560Y-117990875D01*
X210794645Y-118175274D01*
X210794644Y-118175278D01*
X210770343Y-118367637D01*
X210770343Y-118367644D01*
X210782518Y-118561155D01*
X210789954Y-118590116D01*
X210830738Y-118748956D01*
X210848431Y-118786555D01*
X210913292Y-118924395D01*
X210982714Y-119019945D01*
X211027262Y-119081260D01*
X211168605Y-119213990D01*
X211332315Y-119317884D01*
X211332319Y-119317885D01*
X211332324Y-119317888D01*
X211512590Y-119389260D01*
X211512591Y-119389260D01*
X211512593Y-119389261D01*
X211703053Y-119425593D01*
X211800000Y-119425500D01*
X211808285Y-119425500D01*
X222791715Y-119425500D01*
X222800000Y-119425500D01*
X222896943Y-119425593D01*
X222896943Y-119425592D01*
X222896947Y-119425593D01*
X223087407Y-119389261D01*
X223094894Y-119386297D01*
X223267675Y-119317888D01*
X223267675Y-119317887D01*
X223267685Y-119317884D01*
X223431395Y-119213990D01*
X223572738Y-119081260D01*
X223686706Y-118924397D01*
X223769262Y-118748956D01*
X223817482Y-118561153D01*
X223829657Y-118367642D01*
X223805355Y-118175276D01*
X223745439Y-117990872D01*
X223652029Y-117820961D01*
X223652028Y-117820959D01*
X223603135Y-117761857D01*
X223528437Y-117671563D01*
X223379039Y-117547971D01*
X223209128Y-117454561D01*
X223066212Y-117408125D01*
X223024725Y-117394645D01*
X223024721Y-117394644D01*
X222832358Y-117370343D01*
X222638844Y-117382518D01*
X222451050Y-117430736D01*
X222451047Y-117430737D01*
X222451045Y-117430737D01*
X222451044Y-117430738D01*
X222422383Y-117444225D01*
X222275604Y-117513292D01*
X222118738Y-117627263D01*
X221986012Y-117768602D01*
X221986006Y-117768610D01*
X221882117Y-117932312D01*
X221882111Y-117932324D01*
X221810739Y-118112589D01*
X221780000Y-118273735D01*
X221748102Y-118335899D01*
X221687660Y-118370949D01*
X221658196Y-118374500D01*
X218808126Y-118374500D01*
X218791941Y-118373439D01*
X218780208Y-118371894D01*
X218693375Y-118360462D01*
X218662109Y-118352084D01*
X218577834Y-118317177D01*
X218549800Y-118300992D01*
X218514278Y-118273735D01*
X218477428Y-118245458D01*
X218454541Y-118222571D01*
X218418248Y-118175274D01*
X218399005Y-118150197D01*
X218382823Y-118122168D01*
X218363145Y-118074660D01*
X218347915Y-118037890D01*
X218339537Y-118006623D01*
X218326561Y-117908059D01*
X218325500Y-117891874D01*
X218325500Y-117408125D01*
X218326561Y-117391940D01*
X218326890Y-117389438D01*
X218339537Y-117293375D01*
X218347915Y-117262109D01*
X218363145Y-117225340D01*
X218382825Y-117177828D01*
X218399003Y-117149805D01*
X218454541Y-117077427D01*
X218477428Y-117054541D01*
X218549805Y-116999003D01*
X218577828Y-116982825D01*
X218662109Y-116947915D01*
X218693375Y-116939537D01*
X218791941Y-116926561D01*
X218808126Y-116925500D01*
X218895025Y-116925500D01*
X218895027Y-116925500D01*
X219081844Y-116890577D01*
X219259063Y-116821922D01*
X219420649Y-116721872D01*
X219561100Y-116593834D01*
X219665937Y-116455009D01*
X223362417Y-116455009D01*
X223539896Y-116512675D01*
X223545408Y-116514611D01*
X223578476Y-116527106D01*
X223583893Y-116529299D01*
X223627069Y-116547983D01*
X223632374Y-116550429D01*
X223664120Y-116565981D01*
X223669306Y-116568675D01*
X223880446Y-116684751D01*
X223885498Y-116687686D01*
X223915643Y-116706159D01*
X223920554Y-116709330D01*
X223959463Y-116735774D01*
X223964213Y-116739168D01*
X223992476Y-116760388D01*
X223997066Y-116764006D01*
X224182710Y-116917584D01*
X224187122Y-116921414D01*
X224213268Y-116945205D01*
X224217496Y-116949238D01*
X224250762Y-116982504D01*
X224254795Y-116986732D01*
X224278586Y-117012878D01*
X224282416Y-117017290D01*
X224435994Y-117202934D01*
X224439612Y-117207524D01*
X224460832Y-117235787D01*
X224464226Y-117240537D01*
X224490670Y-117279446D01*
X224493841Y-117284357D01*
X224512314Y-117314502D01*
X224515249Y-117319554D01*
X224553125Y-117388450D01*
X224827109Y-117114465D01*
X223765035Y-116052390D01*
X223362417Y-116455009D01*
X219665937Y-116455009D01*
X219675633Y-116442169D01*
X219760347Y-116272040D01*
X219812357Y-116089242D01*
X219829893Y-115900000D01*
X219812357Y-115710758D01*
X219760347Y-115527960D01*
X219759906Y-115527075D01*
X219676014Y-115358597D01*
X219675633Y-115357831D01*
X219667226Y-115346699D01*
X220935194Y-115346699D01*
X221997268Y-116408773D01*
X223059343Y-115346699D01*
X223059342Y-115346698D01*
X224470727Y-115346698D01*
X225532802Y-116408773D01*
X226594877Y-115346699D01*
X228006261Y-115346699D01*
X228789102Y-116129540D01*
X228774237Y-115969122D01*
X228773840Y-115963409D01*
X228772239Y-115928789D01*
X228772107Y-115923061D01*
X228772107Y-115876939D01*
X228772239Y-115871211D01*
X228773840Y-115836591D01*
X228774237Y-115830878D01*
X228796029Y-115595707D01*
X228796689Y-115590017D01*
X228801478Y-115555685D01*
X228802401Y-115550027D01*
X228810877Y-115504692D01*
X228812059Y-115499091D01*
X228819991Y-115465366D01*
X228821430Y-115459823D01*
X228886059Y-115232670D01*
X228887754Y-115227198D01*
X228898767Y-115194339D01*
X228900713Y-115188950D01*
X228917375Y-115145941D01*
X228919567Y-115140649D01*
X228933567Y-115108942D01*
X228936001Y-115103756D01*
X229041272Y-114892344D01*
X229043943Y-114887277D01*
X229060802Y-114857009D01*
X229063702Y-114852074D01*
X229087981Y-114812859D01*
X229091110Y-114808057D01*
X229110701Y-114779457D01*
X229114047Y-114774806D01*
X229256377Y-114586332D01*
X229259934Y-114581841D01*
X229282070Y-114555184D01*
X229285829Y-114550865D01*
X229309075Y-114525363D01*
X229068336Y-114284624D01*
X228006261Y-115346699D01*
X226594877Y-115346699D01*
X225783771Y-114535593D01*
X225764419Y-114548524D01*
X225759275Y-114551781D01*
X225727683Y-114570716D01*
X225722387Y-114573716D01*
X225679166Y-114596817D01*
X225673730Y-114599554D01*
X225640451Y-114615293D01*
X225634889Y-114617758D01*
X225424285Y-114704994D01*
X225418607Y-114707184D01*
X225383944Y-114719587D01*
X225378167Y-114721496D01*
X225331271Y-114735723D01*
X225325401Y-114737347D01*
X225289673Y-114746296D01*
X225283736Y-114747629D01*
X225060144Y-114792104D01*
X225054149Y-114793145D01*
X225019078Y-114798347D01*
X224470727Y-115346698D01*
X223059342Y-115346698D01*
X221997268Y-114284624D01*
X220935194Y-115346699D01*
X219667226Y-115346699D01*
X219561100Y-115206166D01*
X219548126Y-115194339D01*
X219420650Y-115078129D01*
X219420649Y-115078128D01*
X219259063Y-114978078D01*
X219259061Y-114978077D01*
X219259057Y-114978075D01*
X219171678Y-114944225D01*
X219081844Y-114909423D01*
X218895027Y-114874500D01*
X218895025Y-114874500D01*
X218835185Y-114874500D01*
X218834984Y-114874460D01*
X218801238Y-114874500D01*
X218773160Y-114874500D01*
X218772942Y-114874533D01*
X217949647Y-114875508D01*
X217882584Y-114855903D01*
X217836767Y-114803153D01*
X217825500Y-114751508D01*
X217825500Y-113578932D01*
X219167427Y-113578932D01*
X219646574Y-114058079D01*
X219678107Y-114072003D01*
X219683296Y-114074439D01*
X219724582Y-114094999D01*
X219729650Y-114097671D01*
X219759909Y-114114527D01*
X219764843Y-114117426D01*
X219965638Y-114241753D01*
X219970436Y-114244880D01*
X219999033Y-114264469D01*
X220003686Y-114267816D01*
X220040491Y-114295611D01*
X220044980Y-114299167D01*
X220071637Y-114321303D01*
X220075957Y-114325063D01*
X220250491Y-114484172D01*
X220254634Y-114488128D01*
X220279143Y-114512637D01*
X220283100Y-114516781D01*
X220314171Y-114550865D01*
X220316717Y-114553790D01*
X221053486Y-113817021D01*
X226476583Y-113817021D01*
X227300569Y-114641007D01*
X228362644Y-113578932D01*
X229774028Y-113578932D01*
X230169367Y-113974271D01*
X230179136Y-113970487D01*
X230184520Y-113968543D01*
X230217361Y-113957535D01*
X230222831Y-113955841D01*
X230267189Y-113943218D01*
X230272735Y-113941777D01*
X230306486Y-113933838D01*
X230312094Y-113932655D01*
X230544255Y-113889256D01*
X230549909Y-113888334D01*
X230584233Y-113883546D01*
X230589922Y-113882886D01*
X230635848Y-113878630D01*
X230641562Y-113878233D01*
X230676183Y-113876632D01*
X230681911Y-113876500D01*
X230776500Y-113876500D01*
X230776500Y-112576460D01*
X229774028Y-113578932D01*
X228362644Y-113578932D01*
X227300569Y-112516857D01*
X226698347Y-113119078D01*
X226693145Y-113154149D01*
X226692104Y-113160144D01*
X226647629Y-113383736D01*
X226646296Y-113389673D01*
X226637347Y-113425401D01*
X226635723Y-113431271D01*
X226621496Y-113478167D01*
X226619587Y-113483944D01*
X226607184Y-113518607D01*
X226604994Y-113524285D01*
X226517758Y-113734889D01*
X226515293Y-113740451D01*
X226499554Y-113773730D01*
X226496817Y-113779166D01*
X226476583Y-113817021D01*
X221053486Y-113817021D01*
X221291576Y-113578931D01*
X220229501Y-112516857D01*
X219167427Y-113578932D01*
X217825500Y-113578932D01*
X217825500Y-112511475D01*
X218823500Y-112511475D01*
X219523810Y-111811165D01*
X220935194Y-111811165D01*
X221997268Y-112873239D01*
X222059991Y-112810516D01*
X223891500Y-112810516D01*
X223891500Y-112989483D01*
X223926411Y-113164992D01*
X223926413Y-113165000D01*
X223994896Y-113330332D01*
X223994901Y-113330342D01*
X224094321Y-113479134D01*
X224094324Y-113479138D01*
X224220861Y-113605675D01*
X224220865Y-113605678D01*
X224369657Y-113705098D01*
X224369661Y-113705100D01*
X224369664Y-113705102D01*
X224535000Y-113773587D01*
X224710516Y-113808499D01*
X224710520Y-113808500D01*
X224710521Y-113808500D01*
X224889480Y-113808500D01*
X224889481Y-113808499D01*
X225065000Y-113773587D01*
X225230336Y-113705102D01*
X225379135Y-113605678D01*
X225505678Y-113479135D01*
X225605102Y-113330336D01*
X225673587Y-113165000D01*
X225708500Y-112989479D01*
X225708500Y-112810521D01*
X225673587Y-112635000D01*
X225605102Y-112469664D01*
X225605100Y-112469661D01*
X225605098Y-112469657D01*
X225505678Y-112320865D01*
X225505675Y-112320861D01*
X225379138Y-112194324D01*
X225379134Y-112194321D01*
X225230342Y-112094901D01*
X225230332Y-112094896D01*
X225065000Y-112026413D01*
X225064992Y-112026411D01*
X224889483Y-111991500D01*
X224889479Y-111991500D01*
X224710521Y-111991500D01*
X224710516Y-111991500D01*
X224535007Y-112026411D01*
X224534999Y-112026413D01*
X224369667Y-112094896D01*
X224369657Y-112094901D01*
X224220865Y-112194321D01*
X224220861Y-112194324D01*
X224094324Y-112320861D01*
X224094321Y-112320865D01*
X223994901Y-112469657D01*
X223994896Y-112469667D01*
X223926413Y-112634999D01*
X223926411Y-112635007D01*
X223891500Y-112810516D01*
X222059991Y-112810516D01*
X223059343Y-111811165D01*
X228006261Y-111811165D01*
X229068336Y-112873240D01*
X230130411Y-111811165D01*
X229068336Y-110749090D01*
X228006261Y-111811165D01*
X223059343Y-111811165D01*
X221997268Y-110749090D01*
X220935194Y-111811165D01*
X219523810Y-111811165D01*
X218823500Y-111110855D01*
X218823500Y-112511475D01*
X217825500Y-112511475D01*
X217825500Y-110043398D01*
X219167427Y-110043398D01*
X220229501Y-111105472D01*
X221291576Y-110043398D01*
X222702961Y-110043398D01*
X223765035Y-111105472D01*
X224827110Y-110043398D01*
X226238494Y-110043398D01*
X227300569Y-111105472D01*
X228362644Y-110043398D01*
X229774028Y-110043398D01*
X230776500Y-111045870D01*
X230776500Y-109040926D01*
X229774028Y-110043398D01*
X228362644Y-110043398D01*
X227300569Y-108981323D01*
X226238494Y-110043398D01*
X224827110Y-110043398D01*
X223765035Y-108981323D01*
X222702961Y-110043398D01*
X221291576Y-110043398D01*
X220229501Y-108981323D01*
X219167427Y-110043398D01*
X217825500Y-110043398D01*
X217825500Y-108975941D01*
X218823500Y-108975941D01*
X219523810Y-108275631D01*
X220935194Y-108275631D01*
X221997268Y-109337705D01*
X223059343Y-108275631D01*
X224470727Y-108275631D01*
X225532802Y-109337705D01*
X226594877Y-108275631D01*
X228006261Y-108275631D01*
X229068336Y-109337706D01*
X230130411Y-108275631D01*
X229068336Y-107213556D01*
X228006261Y-108275631D01*
X226594877Y-108275631D01*
X225532802Y-107213556D01*
X224470727Y-108275631D01*
X223059343Y-108275631D01*
X221997268Y-107213556D01*
X220935194Y-108275631D01*
X219523810Y-108275631D01*
X218823500Y-107575321D01*
X218823500Y-108975941D01*
X217825500Y-108975941D01*
X217825500Y-106507864D01*
X219167427Y-106507864D01*
X220229501Y-107569938D01*
X221291576Y-106507864D01*
X222702961Y-106507864D01*
X223765035Y-107569938D01*
X224827110Y-106507864D01*
X226238494Y-106507864D01*
X227300569Y-107569938D01*
X228362644Y-106507864D01*
X229774028Y-106507864D01*
X230776500Y-107510336D01*
X230776500Y-105505392D01*
X229774028Y-106507864D01*
X228362644Y-106507864D01*
X227300569Y-105445789D01*
X226238494Y-106507864D01*
X224827110Y-106507864D01*
X223765035Y-105445789D01*
X222702961Y-106507864D01*
X221291576Y-106507864D01*
X220229501Y-105445789D01*
X219167427Y-106507864D01*
X217825500Y-106507864D01*
X217825500Y-105440407D01*
X218823500Y-105440407D01*
X219523810Y-104740097D01*
X220935194Y-104740097D01*
X221997268Y-105802171D01*
X223059343Y-104740097D01*
X224470727Y-104740097D01*
X225532802Y-105802171D01*
X226594877Y-104740097D01*
X228006261Y-104740097D01*
X229068336Y-105802172D01*
X230130411Y-104740097D01*
X229068336Y-103678022D01*
X228006261Y-104740097D01*
X226594877Y-104740097D01*
X225532802Y-103678022D01*
X224470727Y-104740097D01*
X223059343Y-104740097D01*
X221997268Y-103678022D01*
X220935194Y-104740097D01*
X219523810Y-104740097D01*
X218823500Y-104039787D01*
X218823500Y-105440407D01*
X217825500Y-105440407D01*
X217825500Y-102972330D01*
X219167427Y-102972330D01*
X220229501Y-104034404D01*
X221291576Y-102972330D01*
X222702961Y-102972330D01*
X223765035Y-104034404D01*
X224827110Y-102972330D01*
X226238494Y-102972330D01*
X227300569Y-104034404D01*
X228362644Y-102972330D01*
X229774028Y-102972330D01*
X230776500Y-103974802D01*
X230776500Y-101969858D01*
X229774028Y-102972330D01*
X228362644Y-102972330D01*
X227300569Y-101910255D01*
X226238494Y-102972330D01*
X224827110Y-102972330D01*
X223765035Y-101910255D01*
X222702961Y-102972330D01*
X221291576Y-102972330D01*
X220229501Y-101910255D01*
X219167427Y-102972330D01*
X217825500Y-102972330D01*
X217825500Y-101904873D01*
X218823500Y-101904873D01*
X219523810Y-101204563D01*
X220935194Y-101204563D01*
X221997268Y-102266637D01*
X223059343Y-101204563D01*
X224470727Y-101204563D01*
X225532802Y-102266637D01*
X226594877Y-101204563D01*
X228006261Y-101204563D01*
X229068336Y-102266638D01*
X230130411Y-101204563D01*
X229068336Y-100142488D01*
X228006261Y-101204563D01*
X226594877Y-101204563D01*
X225532802Y-100142488D01*
X224470727Y-101204563D01*
X223059343Y-101204563D01*
X221997268Y-100142488D01*
X220935194Y-101204563D01*
X219523810Y-101204563D01*
X218823500Y-100504253D01*
X218823500Y-101904873D01*
X217825500Y-101904873D01*
X217825500Y-99436796D01*
X219167427Y-99436796D01*
X220229501Y-100498870D01*
X221291576Y-99436796D01*
X222702961Y-99436796D01*
X223765035Y-100498870D01*
X224827110Y-99436796D01*
X226238494Y-99436796D01*
X227300569Y-100498870D01*
X228362644Y-99436796D01*
X229774028Y-99436796D01*
X230776500Y-100439268D01*
X230776500Y-98434324D01*
X229774028Y-99436796D01*
X228362644Y-99436796D01*
X227300569Y-98374721D01*
X226238494Y-99436796D01*
X224827110Y-99436796D01*
X223765035Y-98374721D01*
X222702961Y-99436796D01*
X221291576Y-99436796D01*
X220229501Y-98374721D01*
X219167427Y-99436796D01*
X217825500Y-99436796D01*
X217825500Y-98369339D01*
X218823500Y-98369339D01*
X219523810Y-97669029D01*
X220935194Y-97669029D01*
X221997268Y-98731103D01*
X223059343Y-97669029D01*
X224470727Y-97669029D01*
X225532802Y-98731103D01*
X226594876Y-97669029D01*
X228006261Y-97669029D01*
X229068336Y-98731104D01*
X230130410Y-97669029D01*
X229068336Y-96606954D01*
X228006261Y-97669029D01*
X226594876Y-97669029D01*
X225532802Y-96606954D01*
X224470727Y-97669029D01*
X223059343Y-97669029D01*
X221997268Y-96606954D01*
X220935194Y-97669029D01*
X219523810Y-97669029D01*
X218823500Y-96968719D01*
X218823500Y-98369339D01*
X217825500Y-98369339D01*
X217825500Y-95901262D01*
X219167427Y-95901262D01*
X220229501Y-96963336D01*
X221291576Y-95901262D01*
X222702961Y-95901262D01*
X223765035Y-96963336D01*
X224827110Y-95901262D01*
X226238494Y-95901262D01*
X227300569Y-96963336D01*
X228362643Y-95901262D01*
X229774028Y-95901262D01*
X230776500Y-96903734D01*
X230776500Y-94898790D01*
X229774028Y-95901262D01*
X228362643Y-95901262D01*
X227300569Y-94839187D01*
X226238494Y-95901262D01*
X224827110Y-95901262D01*
X223765035Y-94839187D01*
X222702961Y-95901262D01*
X221291576Y-95901262D01*
X220229501Y-94839187D01*
X219167427Y-95901262D01*
X217825500Y-95901262D01*
X217825500Y-94833805D01*
X218823500Y-94833805D01*
X219523810Y-94133495D01*
X220935194Y-94133495D01*
X221997268Y-95195569D01*
X223059343Y-94133495D01*
X224470727Y-94133495D01*
X225532802Y-95195569D01*
X226594876Y-94133495D01*
X228006261Y-94133495D01*
X229068336Y-95195570D01*
X230130410Y-94133495D01*
X229068336Y-93071420D01*
X228006261Y-94133495D01*
X226594876Y-94133495D01*
X225532802Y-93071420D01*
X224470727Y-94133495D01*
X223059343Y-94133495D01*
X221997268Y-93071420D01*
X220935194Y-94133495D01*
X219523810Y-94133495D01*
X218823500Y-93433185D01*
X218823500Y-94833805D01*
X217825500Y-94833805D01*
X217825500Y-92365728D01*
X219167427Y-92365728D01*
X220229501Y-93427803D01*
X221291576Y-92365728D01*
X222702961Y-92365728D01*
X223765035Y-93427803D01*
X224827110Y-92365728D01*
X226238494Y-92365728D01*
X227300569Y-93427803D01*
X228362643Y-92365728D01*
X229774028Y-92365728D01*
X230776500Y-93368200D01*
X230776500Y-91363257D01*
X229774028Y-92365728D01*
X228362643Y-92365728D01*
X227300569Y-91303654D01*
X226238494Y-92365728D01*
X224827110Y-92365728D01*
X223765035Y-91303654D01*
X222702961Y-92365728D01*
X221291576Y-92365728D01*
X220229501Y-91303654D01*
X219167427Y-92365728D01*
X217825500Y-92365728D01*
X217825500Y-91298271D01*
X218823500Y-91298271D01*
X219523809Y-90597961D01*
X220935194Y-90597961D01*
X221997268Y-91660036D01*
X223059343Y-90597961D01*
X224470727Y-90597961D01*
X225532802Y-91660036D01*
X226594876Y-90597961D01*
X228006261Y-90597961D01*
X229068336Y-91660036D01*
X230130410Y-90597961D01*
X229068336Y-89535887D01*
X228006261Y-90597961D01*
X226594876Y-90597961D01*
X225532802Y-89535887D01*
X224470727Y-90597961D01*
X223059343Y-90597961D01*
X221997268Y-89535887D01*
X220935194Y-90597961D01*
X219523809Y-90597961D01*
X218823500Y-89897652D01*
X218823500Y-91298271D01*
X217825500Y-91298271D01*
X217825500Y-88830195D01*
X219167427Y-88830195D01*
X220229501Y-89892269D01*
X221291576Y-88830195D01*
X222702961Y-88830195D01*
X223765035Y-89892269D01*
X224827110Y-88830195D01*
X226238494Y-88830195D01*
X227300569Y-89892269D01*
X228362644Y-88830195D01*
X229774028Y-88830195D01*
X230776500Y-89832667D01*
X230776500Y-88443579D01*
X230774884Y-88425114D01*
X230756430Y-88423500D01*
X230180723Y-88423500D01*
X229774028Y-88830195D01*
X228362644Y-88830195D01*
X227955949Y-88423500D01*
X226645190Y-88423500D01*
X226238494Y-88830195D01*
X224827110Y-88830195D01*
X224420415Y-88423500D01*
X223109656Y-88423500D01*
X222702961Y-88830195D01*
X221291576Y-88830195D01*
X220884881Y-88423500D01*
X219574122Y-88423500D01*
X219167427Y-88830195D01*
X217825500Y-88830195D01*
X217825500Y-88405412D01*
X217825972Y-88394605D01*
X217826424Y-88389438D01*
X217839359Y-88241587D01*
X217843112Y-88220303D01*
X217881463Y-88077175D01*
X217888849Y-88056880D01*
X217951481Y-87922564D01*
X217962274Y-87903871D01*
X218047271Y-87782485D01*
X218061158Y-87765934D01*
X218165934Y-87661158D01*
X218182485Y-87647271D01*
X218216628Y-87623362D01*
X218303871Y-87562274D01*
X218322564Y-87551481D01*
X218456880Y-87488849D01*
X218477169Y-87481464D01*
X218620306Y-87443111D01*
X218641587Y-87439359D01*
X218794605Y-87425971D01*
X218805412Y-87425500D01*
X218808285Y-87425500D01*
X230791715Y-87425500D01*
X230794588Y-87425500D01*
X230805394Y-87425971D01*
X230958410Y-87439359D01*
X230979695Y-87443111D01*
X231122826Y-87481463D01*
X231143123Y-87488851D01*
X231277430Y-87551479D01*
X231296133Y-87562278D01*
X231417514Y-87647271D01*
X231434071Y-87661164D01*
X231538835Y-87765928D01*
X231552728Y-87782485D01*
X231637721Y-87903866D01*
X231648522Y-87922573D01*
X231711146Y-88056870D01*
X231718536Y-88077175D01*
X231756887Y-88220303D01*
X231760640Y-88241589D01*
X231774028Y-88394604D01*
X231774500Y-88405412D01*
X231774500Y-114750500D01*
X231754815Y-114817539D01*
X231702011Y-114863294D01*
X231650500Y-114874500D01*
X230808285Y-114874500D01*
X230800000Y-114874500D01*
X230704973Y-114874500D01*
X230518156Y-114909423D01*
X230340942Y-114978075D01*
X230340938Y-114978077D01*
X230179349Y-115078129D01*
X230038901Y-115206164D01*
X229924367Y-115357830D01*
X229839653Y-115527957D01*
X229787642Y-115710760D01*
X229770107Y-115899999D01*
X229770107Y-115900000D01*
X229787642Y-116089239D01*
X229839653Y-116272042D01*
X229873581Y-116340177D01*
X229924367Y-116442169D01*
X230038900Y-116593834D01*
X230179351Y-116721872D01*
X230340937Y-116821922D01*
X230518156Y-116890577D01*
X230704973Y-116925500D01*
X230791715Y-116925500D01*
X230791874Y-116925500D01*
X230808059Y-116926561D01*
X230906623Y-116939537D01*
X230937890Y-116947915D01*
X230982649Y-116966454D01*
X231022168Y-116982823D01*
X231050197Y-116999005D01*
X231068276Y-117012878D01*
X231122571Y-117054541D01*
X231145458Y-117077428D01*
X231164755Y-117102575D01*
X231192198Y-117138340D01*
X231200991Y-117149798D01*
X231217177Y-117177834D01*
X231252084Y-117262109D01*
X231260462Y-117293375D01*
X231264915Y-117327196D01*
X231272979Y-117388450D01*
X231273439Y-117391939D01*
X231274500Y-117408125D01*
X231274500Y-117891874D01*
X231273439Y-117908060D01*
X231260462Y-118006624D01*
X231252084Y-118037890D01*
X231217177Y-118122165D01*
X231200991Y-118150201D01*
X231145458Y-118222571D01*
X231122571Y-118245458D01*
X231050201Y-118300991D01*
X231022165Y-118317177D01*
X230937890Y-118352084D01*
X230906624Y-118360462D01*
X230818244Y-118372098D01*
X230808058Y-118373439D01*
X230791874Y-118374500D01*
X227941804Y-118374500D01*
X227874765Y-118354815D01*
X227829010Y-118302011D01*
X227820000Y-118273735D01*
X227801218Y-118175278D01*
X227789261Y-118112593D01*
X227789260Y-118112591D01*
X227789260Y-118112589D01*
X227717888Y-117932324D01*
X227717882Y-117932312D01*
X227702491Y-117908060D01*
X227613990Y-117768605D01*
X227481260Y-117627262D01*
X227406480Y-117572931D01*
X227324395Y-117513292D01*
X227228691Y-117468258D01*
X227148956Y-117430738D01*
X227148951Y-117430736D01*
X227148949Y-117430736D01*
X226961155Y-117382518D01*
X226767644Y-117370343D01*
X226767637Y-117370343D01*
X226575278Y-117394644D01*
X226575274Y-117394645D01*
X226390875Y-117454560D01*
X226390871Y-117454561D01*
X226220960Y-117547971D01*
X226220959Y-117547971D01*
X226071563Y-117671563D01*
X225947971Y-117820959D01*
X225947971Y-117820960D01*
X225854561Y-117990871D01*
X225854560Y-117990875D01*
X225794645Y-118175274D01*
X225794644Y-118175278D01*
X225770343Y-118367637D01*
X225770343Y-118367644D01*
X225782518Y-118561155D01*
X225789954Y-118590116D01*
X225830738Y-118748956D01*
X225848431Y-118786555D01*
X225913292Y-118924395D01*
X225982714Y-119019945D01*
X226027262Y-119081260D01*
X226168605Y-119213990D01*
X226332315Y-119317884D01*
X226332319Y-119317885D01*
X226332324Y-119317888D01*
X226512590Y-119389260D01*
X226512591Y-119389260D01*
X226512593Y-119389261D01*
X226703053Y-119425593D01*
X226800000Y-119425500D01*
X226808285Y-119425500D01*
X237791715Y-119425500D01*
X237800000Y-119425500D01*
X237896943Y-119425593D01*
X237896943Y-119425592D01*
X237896947Y-119425593D01*
X238087407Y-119389261D01*
X238094894Y-119386297D01*
X238267675Y-119317888D01*
X238267675Y-119317887D01*
X238267685Y-119317884D01*
X238431395Y-119213990D01*
X238572738Y-119081260D01*
X238686706Y-118924397D01*
X238769262Y-118748956D01*
X238817482Y-118561153D01*
X238829657Y-118367642D01*
X238805355Y-118175276D01*
X238745439Y-117990872D01*
X238703111Y-117913879D01*
X239768659Y-117913879D01*
X239772782Y-117928950D01*
X239774190Y-117934619D01*
X239784452Y-117980529D01*
X239785591Y-117986259D01*
X239791668Y-118021077D01*
X239792537Y-118026855D01*
X239800000Y-118085929D01*
X239807463Y-118026855D01*
X239808332Y-118021077D01*
X239814409Y-117986259D01*
X239815548Y-117980529D01*
X239819158Y-117964378D01*
X239768659Y-117913879D01*
X238703111Y-117913879D01*
X238652029Y-117820961D01*
X238652028Y-117820959D01*
X238603135Y-117761857D01*
X238528437Y-117671563D01*
X238379039Y-117547971D01*
X238209128Y-117454561D01*
X238066212Y-117408125D01*
X238024725Y-117394645D01*
X238024721Y-117394644D01*
X237832358Y-117370343D01*
X237638844Y-117382518D01*
X237451050Y-117430736D01*
X237451047Y-117430737D01*
X237451045Y-117430737D01*
X237451044Y-117430738D01*
X237422383Y-117444225D01*
X237275604Y-117513292D01*
X237118738Y-117627263D01*
X236986012Y-117768602D01*
X236986006Y-117768610D01*
X236882117Y-117932312D01*
X236882111Y-117932324D01*
X236810739Y-118112589D01*
X236780000Y-118273735D01*
X236748102Y-118335899D01*
X236687660Y-118370949D01*
X236658196Y-118374500D01*
X233808126Y-118374500D01*
X233791941Y-118373439D01*
X233780208Y-118371894D01*
X233693375Y-118360462D01*
X233662109Y-118352084D01*
X233577834Y-118317177D01*
X233549800Y-118300992D01*
X233514278Y-118273735D01*
X233477428Y-118245458D01*
X233454541Y-118222571D01*
X233418248Y-118175274D01*
X233399005Y-118150197D01*
X233382823Y-118122168D01*
X233363145Y-118074660D01*
X233347915Y-118037890D01*
X233339537Y-118006623D01*
X233326561Y-117908059D01*
X233325500Y-117891874D01*
X233325500Y-117408125D01*
X233326561Y-117391940D01*
X233326890Y-117389438D01*
X233339537Y-117293375D01*
X233347915Y-117262109D01*
X233363145Y-117225340D01*
X233382825Y-117177828D01*
X233399003Y-117149805D01*
X233454541Y-117077427D01*
X233477428Y-117054541D01*
X233549805Y-116999003D01*
X233577828Y-116982825D01*
X233662109Y-116947915D01*
X233693375Y-116939537D01*
X233791941Y-116926561D01*
X233808126Y-116925500D01*
X233895025Y-116925500D01*
X233895027Y-116925500D01*
X234081844Y-116890577D01*
X234259063Y-116821922D01*
X234420649Y-116721872D01*
X234561100Y-116593834D01*
X234675633Y-116442169D01*
X234760347Y-116272040D01*
X234812357Y-116089242D01*
X234829893Y-115900000D01*
X234812357Y-115710758D01*
X234760347Y-115527960D01*
X234759906Y-115527075D01*
X234676014Y-115358597D01*
X234675633Y-115357831D01*
X234561100Y-115206166D01*
X234548126Y-115194339D01*
X234420650Y-115078129D01*
X234420649Y-115078128D01*
X234259063Y-114978078D01*
X234259061Y-114978077D01*
X234259057Y-114978075D01*
X234171678Y-114944225D01*
X234081844Y-114909423D01*
X233897038Y-114874876D01*
X235549150Y-114874876D01*
X235556057Y-114887277D01*
X235558728Y-114892344D01*
X235663999Y-115103756D01*
X235666433Y-115108942D01*
X235680433Y-115140649D01*
X235682625Y-115145941D01*
X235699287Y-115188950D01*
X235701233Y-115194339D01*
X235712246Y-115227198D01*
X235713941Y-115232670D01*
X235778570Y-115459823D01*
X235780009Y-115465366D01*
X235787941Y-115499091D01*
X235789123Y-115504692D01*
X235797599Y-115550027D01*
X235798522Y-115555685D01*
X235803311Y-115590017D01*
X235803971Y-115595707D01*
X235825763Y-115830878D01*
X235826160Y-115836591D01*
X235827761Y-115871211D01*
X235827893Y-115876939D01*
X235827893Y-115923061D01*
X235827761Y-115928789D01*
X235826160Y-115963409D01*
X235825763Y-115969123D01*
X235815076Y-116084446D01*
X236139404Y-116408774D01*
X237201479Y-115346699D01*
X237201478Y-115346698D01*
X238612862Y-115346698D01*
X239674938Y-116408774D01*
X240737013Y-115346699D01*
X242148397Y-115346699D01*
X243210472Y-116408774D01*
X243773412Y-115845833D01*
X243773840Y-115836591D01*
X243774237Y-115830878D01*
X243796029Y-115595707D01*
X243796689Y-115590017D01*
X243801478Y-115555685D01*
X243802401Y-115550027D01*
X243810877Y-115504692D01*
X243812059Y-115499091D01*
X243819991Y-115465366D01*
X243821430Y-115459823D01*
X243886059Y-115232670D01*
X243887754Y-115227198D01*
X243898767Y-115194339D01*
X243900713Y-115188950D01*
X243917375Y-115145941D01*
X243919567Y-115140649D01*
X243933567Y-115108942D01*
X243936000Y-115103757D01*
X243967115Y-115041267D01*
X243210472Y-114284624D01*
X242148397Y-115346699D01*
X240737013Y-115346699D01*
X240162131Y-114771817D01*
X240060144Y-114792104D01*
X240054149Y-114793145D01*
X240017721Y-114798549D01*
X240011678Y-114799294D01*
X239962909Y-114804097D01*
X239956838Y-114804545D01*
X239920063Y-114806351D01*
X239913981Y-114806500D01*
X239686019Y-114806500D01*
X239679937Y-114806351D01*
X239643162Y-114804545D01*
X239637091Y-114804097D01*
X239588322Y-114799294D01*
X239582279Y-114798549D01*
X239545851Y-114793145D01*
X239539856Y-114792104D01*
X239316264Y-114747629D01*
X239310327Y-114746296D01*
X239274599Y-114737347D01*
X239268729Y-114735723D01*
X239234286Y-114725274D01*
X238612862Y-115346698D01*
X237201478Y-115346698D01*
X236139403Y-114284623D01*
X235549150Y-114874876D01*
X233897038Y-114874876D01*
X233895027Y-114874500D01*
X233895025Y-114874500D01*
X233835185Y-114874500D01*
X233834984Y-114874460D01*
X233801238Y-114874500D01*
X233773160Y-114874500D01*
X233772942Y-114874533D01*
X232949647Y-114875508D01*
X232882584Y-114855903D01*
X232836767Y-114803153D01*
X232825500Y-114751508D01*
X232825500Y-113064994D01*
X233823500Y-113064994D01*
X233823500Y-113876473D01*
X233907853Y-113876374D01*
X233909149Y-113876500D01*
X233918089Y-113876500D01*
X233923817Y-113876632D01*
X233958438Y-113878233D01*
X233964152Y-113878630D01*
X234010078Y-113882886D01*
X234015767Y-113883546D01*
X234050091Y-113888334D01*
X234055745Y-113889256D01*
X234287906Y-113932655D01*
X234293514Y-113933838D01*
X234327265Y-113941777D01*
X234332811Y-113943218D01*
X234377169Y-113955841D01*
X234382639Y-113957535D01*
X234415480Y-113968543D01*
X234420865Y-113970487D01*
X234641092Y-114055803D01*
X234646385Y-114057996D01*
X234678107Y-114072003D01*
X234683296Y-114074439D01*
X234724582Y-114094999D01*
X234729650Y-114097671D01*
X234759909Y-114114527D01*
X234764843Y-114117426D01*
X234845361Y-114167281D01*
X235433710Y-113578932D01*
X236845096Y-113578932D01*
X237907171Y-114641007D01*
X238250928Y-114297250D01*
X241098948Y-114297250D01*
X241442705Y-114641007D01*
X242504780Y-113578932D01*
X243916164Y-113578932D01*
X244601402Y-114264170D01*
X244629564Y-114244880D01*
X244634362Y-114241753D01*
X244835157Y-114117426D01*
X244840091Y-114114527D01*
X244870350Y-114097671D01*
X244875418Y-114094999D01*
X244916704Y-114074439D01*
X244921893Y-114072003D01*
X244953615Y-114057996D01*
X244958908Y-114055803D01*
X245179135Y-113970487D01*
X245184520Y-113968543D01*
X245217361Y-113957535D01*
X245222831Y-113955841D01*
X245267189Y-113943218D01*
X245272735Y-113941777D01*
X245306486Y-113933838D01*
X245312094Y-113932655D01*
X245544255Y-113889256D01*
X245549909Y-113888334D01*
X245584233Y-113883546D01*
X245589922Y-113882886D01*
X245635848Y-113878630D01*
X245641562Y-113878233D01*
X245676183Y-113876632D01*
X245681911Y-113876500D01*
X245742746Y-113876500D01*
X245776500Y-113842746D01*
X245776500Y-113315118D01*
X244978239Y-112516857D01*
X243916164Y-113578932D01*
X242504780Y-113578932D01*
X241706365Y-112780517D01*
X241706500Y-112786019D01*
X241706500Y-113013981D01*
X241706351Y-113020063D01*
X241704545Y-113056838D01*
X241704097Y-113062909D01*
X241699294Y-113111678D01*
X241698549Y-113117721D01*
X241693145Y-113154149D01*
X241692104Y-113160144D01*
X241647629Y-113383736D01*
X241646296Y-113389673D01*
X241637347Y-113425401D01*
X241635723Y-113431271D01*
X241621496Y-113478167D01*
X241619587Y-113483944D01*
X241607184Y-113518607D01*
X241604994Y-113524285D01*
X241517758Y-113734889D01*
X241515293Y-113740451D01*
X241499554Y-113773730D01*
X241496817Y-113779166D01*
X241473716Y-113822387D01*
X241470716Y-113827683D01*
X241451781Y-113859275D01*
X241448524Y-113864419D01*
X241321872Y-114053967D01*
X241318367Y-114058943D01*
X241296434Y-114088516D01*
X241292691Y-114093313D01*
X241261602Y-114131196D01*
X241257627Y-114135804D01*
X241232896Y-114163091D01*
X241228698Y-114167500D01*
X241098948Y-114297250D01*
X238250928Y-114297250D01*
X238375990Y-114172188D01*
X238371302Y-114167500D01*
X238367104Y-114163091D01*
X238342373Y-114135804D01*
X238338398Y-114131196D01*
X238307309Y-114093313D01*
X238303566Y-114088516D01*
X238281633Y-114058943D01*
X238278128Y-114053967D01*
X238151476Y-113864419D01*
X238148219Y-113859275D01*
X238129284Y-113827683D01*
X238126284Y-113822387D01*
X238103183Y-113779166D01*
X238100446Y-113773730D01*
X238084707Y-113740451D01*
X238082242Y-113734889D01*
X237995006Y-113524285D01*
X237992816Y-113518607D01*
X237980413Y-113483944D01*
X237978504Y-113478167D01*
X237964277Y-113431271D01*
X237962653Y-113425401D01*
X237953704Y-113389673D01*
X237952371Y-113383736D01*
X237907896Y-113160144D01*
X237906855Y-113154149D01*
X237901451Y-113117721D01*
X237900706Y-113111678D01*
X237895903Y-113062909D01*
X237895455Y-113056838D01*
X237893649Y-113020063D01*
X237893500Y-113013981D01*
X237893500Y-112810516D01*
X238891500Y-112810516D01*
X238891500Y-112989483D01*
X238926411Y-113164992D01*
X238926413Y-113165000D01*
X238994896Y-113330332D01*
X238994901Y-113330342D01*
X239094321Y-113479134D01*
X239094324Y-113479138D01*
X239220861Y-113605675D01*
X239220865Y-113605678D01*
X239369657Y-113705098D01*
X239369661Y-113705100D01*
X239369664Y-113705102D01*
X239535000Y-113773587D01*
X239710516Y-113808499D01*
X239710520Y-113808500D01*
X239710521Y-113808500D01*
X239889480Y-113808500D01*
X239889481Y-113808499D01*
X240065000Y-113773587D01*
X240230336Y-113705102D01*
X240379135Y-113605678D01*
X240505678Y-113479135D01*
X240605102Y-113330336D01*
X240673587Y-113165000D01*
X240708500Y-112989479D01*
X240708500Y-112810521D01*
X240673587Y-112635000D01*
X240605102Y-112469664D01*
X240605100Y-112469661D01*
X240605098Y-112469657D01*
X240505678Y-112320865D01*
X240505675Y-112320861D01*
X240379138Y-112194324D01*
X240379134Y-112194321D01*
X240230342Y-112094901D01*
X240230332Y-112094896D01*
X240065000Y-112026413D01*
X240064992Y-112026411D01*
X239889483Y-111991500D01*
X239889479Y-111991500D01*
X239710521Y-111991500D01*
X239710516Y-111991500D01*
X239535007Y-112026411D01*
X239534999Y-112026413D01*
X239369667Y-112094896D01*
X239369657Y-112094901D01*
X239220865Y-112194321D01*
X239220861Y-112194324D01*
X239094324Y-112320861D01*
X239094321Y-112320865D01*
X238994901Y-112469657D01*
X238994896Y-112469667D01*
X238926413Y-112634999D01*
X238926411Y-112635007D01*
X238891500Y-112810516D01*
X237893500Y-112810516D01*
X237893500Y-112786019D01*
X237893649Y-112779937D01*
X237895455Y-112743162D01*
X237895903Y-112737091D01*
X237900706Y-112688322D01*
X237901451Y-112682279D01*
X237906855Y-112645851D01*
X237907895Y-112639857D01*
X237928181Y-112537867D01*
X237907171Y-112516857D01*
X236845096Y-113578932D01*
X235433710Y-113578932D01*
X235433711Y-113578931D01*
X234371637Y-112516857D01*
X233823500Y-113064994D01*
X232825500Y-113064994D01*
X232825500Y-111811165D01*
X235077329Y-111811165D01*
X236139404Y-112873240D01*
X237201479Y-111811165D01*
X242148397Y-111811165D01*
X243210472Y-112873240D01*
X244272547Y-111811165D01*
X243210472Y-110749090D01*
X242148397Y-111811165D01*
X237201479Y-111811165D01*
X236139404Y-110749090D01*
X235077329Y-111811165D01*
X232825500Y-111811165D01*
X232825500Y-109529460D01*
X233823500Y-109529460D01*
X233823500Y-110557336D01*
X234371637Y-111105473D01*
X235433712Y-110043398D01*
X236845096Y-110043398D01*
X237907171Y-111105473D01*
X238969246Y-110043398D01*
X240380630Y-110043398D01*
X241442705Y-111105473D01*
X242504780Y-110043398D01*
X243916164Y-110043398D01*
X244978239Y-111105473D01*
X245776500Y-110307212D01*
X245776500Y-109779584D01*
X244978239Y-108981323D01*
X243916164Y-110043398D01*
X242504780Y-110043398D01*
X241442705Y-108981323D01*
X240380630Y-110043398D01*
X238969246Y-110043398D01*
X237907171Y-108981323D01*
X236845096Y-110043398D01*
X235433712Y-110043398D01*
X234371637Y-108981323D01*
X233823500Y-109529460D01*
X232825500Y-109529460D01*
X232825500Y-108275631D01*
X235077329Y-108275631D01*
X236139404Y-109337706D01*
X237201479Y-108275631D01*
X238612863Y-108275631D01*
X239674938Y-109337706D01*
X240737013Y-108275631D01*
X242148397Y-108275631D01*
X243210472Y-109337706D01*
X244272547Y-108275631D01*
X243210472Y-107213556D01*
X242148397Y-108275631D01*
X240737013Y-108275631D01*
X239674938Y-107213556D01*
X238612863Y-108275631D01*
X237201479Y-108275631D01*
X236139404Y-107213556D01*
X235077329Y-108275631D01*
X232825500Y-108275631D01*
X232825500Y-105993926D01*
X233823500Y-105993926D01*
X233823500Y-107021802D01*
X234371637Y-107569939D01*
X235433712Y-106507864D01*
X236845096Y-106507864D01*
X237907171Y-107569939D01*
X238969246Y-106507864D01*
X240380630Y-106507864D01*
X241442705Y-107569939D01*
X242504780Y-106507864D01*
X243916164Y-106507864D01*
X244978239Y-107569939D01*
X245776500Y-106771678D01*
X245776500Y-106244050D01*
X244978239Y-105445789D01*
X243916164Y-106507864D01*
X242504780Y-106507864D01*
X241442705Y-105445789D01*
X240380630Y-106507864D01*
X238969246Y-106507864D01*
X237907171Y-105445789D01*
X236845096Y-106507864D01*
X235433712Y-106507864D01*
X234371637Y-105445789D01*
X233823500Y-105993926D01*
X232825500Y-105993926D01*
X232825500Y-104740097D01*
X235077329Y-104740097D01*
X236139404Y-105802172D01*
X237201479Y-104740097D01*
X238612863Y-104740097D01*
X239674938Y-105802172D01*
X240737013Y-104740097D01*
X242148397Y-104740097D01*
X243210472Y-105802172D01*
X244272547Y-104740097D01*
X243210472Y-103678022D01*
X242148397Y-104740097D01*
X240737013Y-104740097D01*
X239674938Y-103678022D01*
X238612863Y-104740097D01*
X237201479Y-104740097D01*
X236139404Y-103678022D01*
X235077329Y-104740097D01*
X232825500Y-104740097D01*
X232825500Y-102458392D01*
X233823500Y-102458392D01*
X233823500Y-103486268D01*
X234371637Y-104034405D01*
X235433712Y-102972330D01*
X236845096Y-102972330D01*
X237907171Y-104034405D01*
X238969246Y-102972330D01*
X240380630Y-102972330D01*
X241442705Y-104034405D01*
X242504780Y-102972330D01*
X243916164Y-102972330D01*
X244978239Y-104034405D01*
X245776500Y-103236144D01*
X245776500Y-102708516D01*
X244978239Y-101910255D01*
X243916164Y-102972330D01*
X242504780Y-102972330D01*
X241442705Y-101910255D01*
X240380630Y-102972330D01*
X238969246Y-102972330D01*
X237907171Y-101910255D01*
X236845096Y-102972330D01*
X235433712Y-102972330D01*
X234371637Y-101910255D01*
X233823500Y-102458392D01*
X232825500Y-102458392D01*
X232825500Y-101204563D01*
X235077329Y-101204563D01*
X236139404Y-102266638D01*
X237201479Y-101204563D01*
X238612863Y-101204563D01*
X239674938Y-102266638D01*
X240737013Y-101204563D01*
X242148397Y-101204563D01*
X243210472Y-102266638D01*
X244272547Y-101204563D01*
X243210472Y-100142488D01*
X242148397Y-101204563D01*
X240737013Y-101204563D01*
X239674938Y-100142488D01*
X238612863Y-101204563D01*
X237201479Y-101204563D01*
X236139404Y-100142488D01*
X235077329Y-101204563D01*
X232825500Y-101204563D01*
X232825500Y-98922858D01*
X233823500Y-98922858D01*
X233823500Y-99950734D01*
X234371637Y-100498871D01*
X235433712Y-99436796D01*
X236845096Y-99436796D01*
X237907171Y-100498871D01*
X238969246Y-99436796D01*
X240380630Y-99436796D01*
X241442705Y-100498871D01*
X242504780Y-99436796D01*
X243916164Y-99436796D01*
X244978239Y-100498871D01*
X245776500Y-99700610D01*
X245776500Y-99172982D01*
X244978239Y-98374721D01*
X243916164Y-99436796D01*
X242504780Y-99436796D01*
X241442705Y-98374721D01*
X240380630Y-99436796D01*
X238969246Y-99436796D01*
X237907171Y-98374721D01*
X236845096Y-99436796D01*
X235433712Y-99436796D01*
X234371637Y-98374721D01*
X233823500Y-98922858D01*
X232825500Y-98922858D01*
X232825500Y-97669029D01*
X235077329Y-97669029D01*
X236139404Y-98731104D01*
X237201478Y-97669029D01*
X238612863Y-97669029D01*
X239674938Y-98731104D01*
X240737012Y-97669029D01*
X242148397Y-97669029D01*
X243210472Y-98731104D01*
X244272546Y-97669029D01*
X243210472Y-96606954D01*
X242148397Y-97669029D01*
X240737012Y-97669029D01*
X239674938Y-96606954D01*
X238612863Y-97669029D01*
X237201478Y-97669029D01*
X236139404Y-96606954D01*
X235077329Y-97669029D01*
X232825500Y-97669029D01*
X232825500Y-95387324D01*
X233823500Y-95387324D01*
X233823500Y-96415200D01*
X234371637Y-96963337D01*
X235433711Y-95901262D01*
X236845096Y-95901262D01*
X237907171Y-96963337D01*
X238969245Y-95901262D01*
X240380630Y-95901262D01*
X241442705Y-96963337D01*
X242504779Y-95901262D01*
X243916164Y-95901262D01*
X244978239Y-96963337D01*
X245776500Y-96165076D01*
X245776500Y-95637448D01*
X244978239Y-94839187D01*
X243916164Y-95901262D01*
X242504779Y-95901262D01*
X241442705Y-94839187D01*
X240380630Y-95901262D01*
X238969245Y-95901262D01*
X237907171Y-94839187D01*
X236845096Y-95901262D01*
X235433711Y-95901262D01*
X234371636Y-94839187D01*
X233823500Y-95387324D01*
X232825500Y-95387324D01*
X232825500Y-94133495D01*
X235077329Y-94133495D01*
X236139404Y-95195570D01*
X237201478Y-94133495D01*
X238612863Y-94133495D01*
X239674938Y-95195570D01*
X240737012Y-94133495D01*
X242148397Y-94133495D01*
X243210472Y-95195570D01*
X244272546Y-94133495D01*
X243210472Y-93071420D01*
X242148397Y-94133495D01*
X240737012Y-94133495D01*
X239674938Y-93071420D01*
X238612863Y-94133495D01*
X237201478Y-94133495D01*
X236139404Y-93071420D01*
X235077329Y-94133495D01*
X232825500Y-94133495D01*
X232825500Y-91851791D01*
X233823500Y-91851791D01*
X233823500Y-92879666D01*
X234371637Y-93427803D01*
X235433711Y-92365728D01*
X236845096Y-92365728D01*
X237907171Y-93427803D01*
X238969245Y-92365728D01*
X240380630Y-92365728D01*
X241442705Y-93427803D01*
X242504779Y-92365728D01*
X243916164Y-92365728D01*
X244978238Y-93427803D01*
X245776500Y-92629542D01*
X245776500Y-92101915D01*
X244978239Y-91303654D01*
X243916164Y-92365728D01*
X242504779Y-92365728D01*
X241442705Y-91303654D01*
X240380630Y-92365728D01*
X238969245Y-92365728D01*
X237907171Y-91303654D01*
X236845096Y-92365728D01*
X235433711Y-92365728D01*
X234371637Y-91303654D01*
X233823500Y-91851791D01*
X232825500Y-91851791D01*
X232825500Y-90597961D01*
X235077329Y-90597961D01*
X236139404Y-91660036D01*
X237201478Y-90597961D01*
X238612863Y-90597961D01*
X239674938Y-91660036D01*
X240737012Y-90597961D01*
X242148397Y-90597961D01*
X243210472Y-91660036D01*
X244272546Y-90597961D01*
X243210472Y-89535887D01*
X242148397Y-90597961D01*
X240737012Y-90597961D01*
X239674938Y-89535887D01*
X238612863Y-90597961D01*
X237201478Y-90597961D01*
X236139404Y-89535887D01*
X235077329Y-90597961D01*
X232825500Y-90597961D01*
X232825500Y-88443567D01*
X233823500Y-88443567D01*
X233823500Y-89344133D01*
X234371637Y-89892270D01*
X235433712Y-88830195D01*
X236845096Y-88830195D01*
X237907171Y-89892270D01*
X238969246Y-88830195D01*
X240380630Y-88830195D01*
X241442705Y-89892270D01*
X242504780Y-88830195D01*
X243916164Y-88830195D01*
X244978239Y-89892270D01*
X245776500Y-89094009D01*
X245776500Y-88566381D01*
X245633619Y-88423500D01*
X244322859Y-88423500D01*
X243916164Y-88830195D01*
X242504780Y-88830195D01*
X242098085Y-88423500D01*
X240787325Y-88423500D01*
X240380630Y-88830195D01*
X238969246Y-88830195D01*
X238562551Y-88423500D01*
X237251791Y-88423500D01*
X236845096Y-88830195D01*
X235433712Y-88830195D01*
X235027017Y-88423500D01*
X233843568Y-88423500D01*
X233825114Y-88425114D01*
X233823500Y-88443567D01*
X232825500Y-88443567D01*
X232825500Y-88405412D01*
X232825972Y-88394605D01*
X232826424Y-88389438D01*
X232839359Y-88241587D01*
X232843112Y-88220303D01*
X232881463Y-88077175D01*
X232888849Y-88056880D01*
X232951481Y-87922564D01*
X232962274Y-87903871D01*
X233047271Y-87782485D01*
X233061158Y-87765934D01*
X233165934Y-87661158D01*
X233182485Y-87647271D01*
X233216628Y-87623362D01*
X233303871Y-87562274D01*
X233322564Y-87551481D01*
X233456880Y-87488849D01*
X233477169Y-87481464D01*
X233620306Y-87443111D01*
X233641587Y-87439359D01*
X233794605Y-87425971D01*
X233805412Y-87425500D01*
X233808285Y-87425500D01*
X245791715Y-87425500D01*
X245794588Y-87425500D01*
X245805394Y-87425971D01*
X245958410Y-87439359D01*
X245979695Y-87443111D01*
X246122826Y-87481463D01*
X246143123Y-87488851D01*
X246277430Y-87551479D01*
X246296133Y-87562278D01*
X246417514Y-87647271D01*
X246434071Y-87661164D01*
X246538835Y-87765928D01*
X246552728Y-87782485D01*
X246637721Y-87903866D01*
X246648522Y-87922573D01*
X246711146Y-88056870D01*
X246718536Y-88077175D01*
X246756887Y-88220303D01*
X246760640Y-88241589D01*
X246774028Y-88394604D01*
X246774500Y-88405412D01*
X246774500Y-114750500D01*
X246754815Y-114817539D01*
X246702011Y-114863294D01*
X246650500Y-114874500D01*
X245808285Y-114874500D01*
X245800000Y-114874500D01*
X245704973Y-114874500D01*
X245518156Y-114909423D01*
X245340942Y-114978075D01*
X245340938Y-114978077D01*
X245179349Y-115078129D01*
X245038901Y-115206164D01*
X244924367Y-115357830D01*
X244839653Y-115527957D01*
X244787642Y-115710760D01*
X244770107Y-115899999D01*
X244770107Y-115900000D01*
X244787642Y-116089239D01*
X244839653Y-116272042D01*
X244873581Y-116340177D01*
X244924367Y-116442169D01*
X245038900Y-116593834D01*
X245179351Y-116721872D01*
X245340937Y-116821922D01*
X245518156Y-116890577D01*
X245704973Y-116925500D01*
X245791715Y-116925500D01*
X245791874Y-116925500D01*
X245808059Y-116926561D01*
X245906623Y-116939537D01*
X245937890Y-116947915D01*
X245982649Y-116966454D01*
X246022168Y-116982823D01*
X246050197Y-116999005D01*
X246068276Y-117012878D01*
X246122571Y-117054541D01*
X246145458Y-117077428D01*
X246164755Y-117102575D01*
X246192198Y-117138340D01*
X246200991Y-117149798D01*
X246217177Y-117177834D01*
X246252084Y-117262109D01*
X246260462Y-117293375D01*
X246264915Y-117327196D01*
X246272979Y-117388450D01*
X246273439Y-117391939D01*
X246274500Y-117408125D01*
X246274500Y-117891874D01*
X246273439Y-117908060D01*
X246260462Y-118006624D01*
X246252084Y-118037890D01*
X246217177Y-118122165D01*
X246200991Y-118150201D01*
X246145458Y-118222571D01*
X246122571Y-118245458D01*
X246050201Y-118300991D01*
X246022165Y-118317177D01*
X245937890Y-118352084D01*
X245906624Y-118360462D01*
X245818244Y-118372098D01*
X245808058Y-118373439D01*
X245791874Y-118374500D01*
X242941804Y-118374500D01*
X242874765Y-118354815D01*
X242829010Y-118302011D01*
X242820000Y-118273735D01*
X242801218Y-118175278D01*
X242789261Y-118112593D01*
X242789260Y-118112591D01*
X242789260Y-118112589D01*
X242717888Y-117932324D01*
X242717882Y-117932312D01*
X242702491Y-117908060D01*
X242613990Y-117768605D01*
X242481260Y-117627262D01*
X242406480Y-117572931D01*
X242324395Y-117513292D01*
X242228691Y-117468258D01*
X242148956Y-117430738D01*
X242148951Y-117430736D01*
X242148949Y-117430736D01*
X241961155Y-117382518D01*
X241767644Y-117370343D01*
X241767637Y-117370343D01*
X241575278Y-117394644D01*
X241575274Y-117394645D01*
X241390875Y-117454560D01*
X241390871Y-117454561D01*
X241220960Y-117547971D01*
X241220959Y-117547971D01*
X241071563Y-117671563D01*
X240947971Y-117820959D01*
X240947971Y-117820960D01*
X240854561Y-117990871D01*
X240854560Y-117990875D01*
X240794645Y-118175274D01*
X240794644Y-118175278D01*
X240770343Y-118367637D01*
X240770343Y-118367644D01*
X240782518Y-118561155D01*
X240789954Y-118590116D01*
X240830738Y-118748956D01*
X240848431Y-118786555D01*
X240913292Y-118924395D01*
X240982714Y-119019945D01*
X241027262Y-119081260D01*
X241168605Y-119213990D01*
X241332315Y-119317884D01*
X241332319Y-119317885D01*
X241332324Y-119317888D01*
X241512590Y-119389260D01*
X241512591Y-119389260D01*
X241512593Y-119389261D01*
X241673735Y-119420000D01*
X241735899Y-119451898D01*
X241770949Y-119512340D01*
X241774500Y-119541804D01*
X241774500Y-121758195D01*
X241754815Y-121825234D01*
X241702011Y-121870989D01*
X241673736Y-121879999D01*
X241590057Y-121895962D01*
X241512593Y-121910739D01*
X241512591Y-121910739D01*
X241512589Y-121910740D01*
X241332324Y-121982111D01*
X241332312Y-121982117D01*
X241168610Y-122086006D01*
X241168602Y-122086012D01*
X241027263Y-122218738D01*
X240913292Y-122375604D01*
X240830737Y-122551047D01*
X240830736Y-122551050D01*
X240782518Y-122738844D01*
X240770343Y-122932355D01*
X240770343Y-122932362D01*
X240794644Y-123124721D01*
X240794645Y-123124725D01*
X240854560Y-123309124D01*
X240854561Y-123309128D01*
X240947971Y-123479039D01*
X240947971Y-123479040D01*
X240991278Y-123531389D01*
X241071563Y-123628437D01*
X241220961Y-123752029D01*
X241390872Y-123845439D01*
X241575276Y-123905355D01*
X241767642Y-123929657D01*
X241961153Y-123917482D01*
X242148956Y-123869262D01*
X242324397Y-123786706D01*
X242481260Y-123672738D01*
X242613990Y-123531395D01*
X242717884Y-123367685D01*
X242718796Y-123365381D01*
X242789260Y-123187410D01*
X242793965Y-123162750D01*
X242820000Y-123026264D01*
X242851898Y-122964101D01*
X242912340Y-122929051D01*
X242941804Y-122925500D01*
X245791715Y-122925500D01*
X245791874Y-122925500D01*
X245808059Y-122926561D01*
X245906623Y-122939537D01*
X245937890Y-122947915D01*
X245982649Y-122966454D01*
X246022168Y-122982823D01*
X246050197Y-122999005D01*
X246085460Y-123026064D01*
X246122571Y-123054541D01*
X246145458Y-123077428D01*
X246200991Y-123149798D01*
X246217177Y-123177834D01*
X246252084Y-123262109D01*
X246260462Y-123293375D01*
X246273439Y-123391939D01*
X246274500Y-123408125D01*
X246274500Y-123891874D01*
X246273439Y-123908060D01*
X246260462Y-124006624D01*
X246252084Y-124037890D01*
X246217177Y-124122165D01*
X246200991Y-124150201D01*
X246145458Y-124222571D01*
X246122571Y-124245458D01*
X246050201Y-124300991D01*
X246022165Y-124317177D01*
X245937890Y-124352084D01*
X245906624Y-124360462D01*
X245818244Y-124372098D01*
X245808058Y-124373439D01*
X245791874Y-124374500D01*
X245704973Y-124374500D01*
X245518156Y-124409423D01*
X245340942Y-124478075D01*
X245340938Y-124478077D01*
X245179349Y-124578129D01*
X245038901Y-124706164D01*
X244924367Y-124857830D01*
X244839653Y-125027957D01*
X244787642Y-125210760D01*
X244770107Y-125399999D01*
X244770107Y-125400000D01*
X244787642Y-125589239D01*
X244839653Y-125772042D01*
X244873581Y-125840177D01*
X244924367Y-125942169D01*
X245038900Y-126093834D01*
X245179351Y-126221872D01*
X245340937Y-126321922D01*
X245518156Y-126390577D01*
X245704973Y-126425500D01*
X245764815Y-126425500D01*
X245765015Y-126425539D01*
X245789467Y-126425510D01*
X245789468Y-126425511D01*
X245798719Y-126425500D01*
X245798762Y-126425500D01*
X245829145Y-126425500D01*
X245829360Y-126425463D01*
X246650356Y-126424490D01*
X246717416Y-126444095D01*
X246763233Y-126496845D01*
X246774500Y-126548490D01*
X246774500Y-152894587D01*
X246774028Y-152905395D01*
X246760640Y-153058410D01*
X246756887Y-153079696D01*
X246718536Y-153222824D01*
X246711144Y-153243133D01*
X246648524Y-153377421D01*
X246637721Y-153396133D01*
X246552728Y-153517514D01*
X246538835Y-153534071D01*
X246434071Y-153638835D01*
X246417514Y-153652728D01*
X246296133Y-153737721D01*
X246277421Y-153748524D01*
X246143134Y-153811144D01*
X246122824Y-153818536D01*
X245979696Y-153856887D01*
X245958410Y-153860640D01*
X245822206Y-153872557D01*
X245805393Y-153874028D01*
X245794588Y-153874500D01*
X233805412Y-153874500D01*
X233794606Y-153874028D01*
X233775883Y-153872390D01*
X233641589Y-153860640D01*
X233620303Y-153856887D01*
X233477175Y-153818536D01*
X233456870Y-153811146D01*
X233322573Y-153748522D01*
X233303866Y-153737721D01*
X233182485Y-153652728D01*
X233165928Y-153638835D01*
X233061164Y-153534071D01*
X233047271Y-153517514D01*
X232962278Y-153396133D01*
X232951479Y-153377430D01*
X232888851Y-153243123D01*
X232881463Y-153222824D01*
X232843112Y-153079696D01*
X232839359Y-153058409D01*
X232825972Y-152905394D01*
X232825500Y-152894587D01*
X232825500Y-151955867D01*
X233823500Y-151955867D01*
X233823500Y-152856430D01*
X233825114Y-152874884D01*
X233843579Y-152876500D01*
X235027017Y-152876500D01*
X235433712Y-152469805D01*
X236845096Y-152469805D01*
X237251791Y-152876500D01*
X238562551Y-152876500D01*
X238969246Y-152469805D01*
X240380630Y-152469805D01*
X240787325Y-152876500D01*
X242098085Y-152876500D01*
X242504780Y-152469805D01*
X243916164Y-152469805D01*
X244322859Y-152876500D01*
X245633619Y-152876500D01*
X245776500Y-152733619D01*
X245776500Y-152205991D01*
X244978239Y-151407730D01*
X243916164Y-152469805D01*
X242504780Y-152469805D01*
X241442705Y-151407730D01*
X240380630Y-152469805D01*
X238969246Y-152469805D01*
X237907171Y-151407730D01*
X236845096Y-152469805D01*
X235433712Y-152469805D01*
X234371637Y-151407730D01*
X233823500Y-151955867D01*
X232825500Y-151955867D01*
X232825500Y-150702038D01*
X235077329Y-150702038D01*
X236139404Y-151764113D01*
X237201479Y-150702038D01*
X238612863Y-150702038D01*
X239674938Y-151764113D01*
X240737013Y-150702038D01*
X242148397Y-150702038D01*
X243210472Y-151764113D01*
X244272547Y-150702038D01*
X243210472Y-149639963D01*
X242148397Y-150702038D01*
X240737013Y-150702038D01*
X239674938Y-149639963D01*
X238612863Y-150702038D01*
X237201479Y-150702038D01*
X236139404Y-149639963D01*
X235077329Y-150702038D01*
X232825500Y-150702038D01*
X232825500Y-148420333D01*
X233823500Y-148420333D01*
X233823500Y-149448209D01*
X234371637Y-149996346D01*
X235433712Y-148934271D01*
X236845096Y-148934271D01*
X237907171Y-149996346D01*
X238969246Y-148934271D01*
X240380630Y-148934271D01*
X241442705Y-149996346D01*
X242504780Y-148934271D01*
X243916164Y-148934271D01*
X244978239Y-149996346D01*
X245776500Y-149198085D01*
X245776500Y-148670457D01*
X244978239Y-147872196D01*
X243916164Y-148934271D01*
X242504780Y-148934271D01*
X241442705Y-147872196D01*
X240380630Y-148934271D01*
X238969246Y-148934271D01*
X237907171Y-147872196D01*
X236845096Y-148934271D01*
X235433712Y-148934271D01*
X234371637Y-147872196D01*
X233823500Y-148420333D01*
X232825500Y-148420333D01*
X232825500Y-147166504D01*
X235077329Y-147166504D01*
X236139404Y-148228579D01*
X237201479Y-147166504D01*
X238612863Y-147166504D01*
X239674938Y-148228579D01*
X240737013Y-147166504D01*
X242148397Y-147166504D01*
X243210472Y-148228579D01*
X244272547Y-147166504D01*
X243210472Y-146104429D01*
X242148397Y-147166504D01*
X240737013Y-147166504D01*
X239674938Y-146104429D01*
X238612863Y-147166504D01*
X237201479Y-147166504D01*
X236139404Y-146104429D01*
X235077329Y-147166504D01*
X232825500Y-147166504D01*
X232825500Y-144884799D01*
X233823500Y-144884799D01*
X233823500Y-145912675D01*
X234371637Y-146460812D01*
X235433712Y-145398737D01*
X236845096Y-145398737D01*
X237907171Y-146460812D01*
X238969246Y-145398737D01*
X240380630Y-145398737D01*
X241442705Y-146460812D01*
X242504780Y-145398737D01*
X243916164Y-145398737D01*
X244978239Y-146460812D01*
X245776500Y-145662551D01*
X245776500Y-145134923D01*
X244978239Y-144336662D01*
X243916164Y-145398737D01*
X242504780Y-145398737D01*
X241442705Y-144336662D01*
X240380630Y-145398737D01*
X238969246Y-145398737D01*
X237907171Y-144336662D01*
X236845096Y-145398737D01*
X235433712Y-145398737D01*
X234371637Y-144336662D01*
X233823500Y-144884799D01*
X232825500Y-144884799D01*
X232825500Y-143630970D01*
X235077329Y-143630970D01*
X236139404Y-144693045D01*
X237201479Y-143630970D01*
X238612863Y-143630970D01*
X239674938Y-144693045D01*
X240737013Y-143630970D01*
X242148397Y-143630970D01*
X243210472Y-144693045D01*
X244272547Y-143630970D01*
X243210472Y-142568895D01*
X242148397Y-143630970D01*
X240737013Y-143630970D01*
X239674938Y-142568895D01*
X238612863Y-143630970D01*
X237201479Y-143630970D01*
X236139404Y-142568895D01*
X235077329Y-143630970D01*
X232825500Y-143630970D01*
X232825500Y-141349265D01*
X233823500Y-141349265D01*
X233823500Y-142377141D01*
X234371637Y-142925278D01*
X235433712Y-141863203D01*
X236845096Y-141863203D01*
X237907171Y-142925278D01*
X238969246Y-141863203D01*
X240380630Y-141863203D01*
X241442705Y-142925278D01*
X242504780Y-141863203D01*
X243916164Y-141863203D01*
X244978239Y-142925278D01*
X245776500Y-142127017D01*
X245776500Y-141599389D01*
X244978239Y-140801128D01*
X243916164Y-141863203D01*
X242504780Y-141863203D01*
X241442705Y-140801128D01*
X240380630Y-141863203D01*
X238969246Y-141863203D01*
X237907171Y-140801128D01*
X236845096Y-141863203D01*
X235433712Y-141863203D01*
X234371637Y-140801128D01*
X233823500Y-141349265D01*
X232825500Y-141349265D01*
X232825500Y-140095436D01*
X235077329Y-140095436D01*
X236139404Y-141157511D01*
X237201479Y-140095436D01*
X238612863Y-140095436D01*
X239674938Y-141157511D01*
X240737013Y-140095436D01*
X242148397Y-140095436D01*
X243210472Y-141157511D01*
X244272547Y-140095436D01*
X243210472Y-139033361D01*
X242148397Y-140095436D01*
X240737013Y-140095436D01*
X239674938Y-139033361D01*
X238612863Y-140095436D01*
X237201479Y-140095436D01*
X236139404Y-139033361D01*
X235077329Y-140095436D01*
X232825500Y-140095436D01*
X232825500Y-137813731D01*
X233823500Y-137813731D01*
X233823500Y-138841607D01*
X234371637Y-139389744D01*
X235433712Y-138327669D01*
X236845096Y-138327669D01*
X237907171Y-139389744D01*
X238969246Y-138327669D01*
X240380630Y-138327669D01*
X241442705Y-139389744D01*
X242504780Y-138327669D01*
X243916164Y-138327669D01*
X244978239Y-139389744D01*
X245776500Y-138591483D01*
X245776500Y-138063855D01*
X244978239Y-137265594D01*
X243916164Y-138327669D01*
X242504780Y-138327669D01*
X241442705Y-137265594D01*
X240380630Y-138327669D01*
X238969246Y-138327669D01*
X237907171Y-137265594D01*
X236845096Y-138327669D01*
X235433712Y-138327669D01*
X234371637Y-137265594D01*
X233823500Y-137813731D01*
X232825500Y-137813731D01*
X232825500Y-136559902D01*
X235077329Y-136559902D01*
X236139404Y-137621977D01*
X237201479Y-136559902D01*
X238612863Y-136559902D01*
X239674938Y-137621977D01*
X240737013Y-136559902D01*
X242148397Y-136559902D01*
X243210472Y-137621977D01*
X244272547Y-136559902D01*
X243210472Y-135497827D01*
X242148397Y-136559902D01*
X240737013Y-136559902D01*
X239674938Y-135497827D01*
X238612863Y-136559902D01*
X237201479Y-136559902D01*
X236139404Y-135497827D01*
X235077329Y-136559902D01*
X232825500Y-136559902D01*
X232825500Y-134278197D01*
X233823500Y-134278197D01*
X233823500Y-135306073D01*
X234371637Y-135854210D01*
X235433711Y-134792135D01*
X236845096Y-134792135D01*
X237907171Y-135854210D01*
X238969245Y-134792135D01*
X240380630Y-134792135D01*
X241442705Y-135854210D01*
X242504779Y-134792135D01*
X243916164Y-134792135D01*
X244978239Y-135854210D01*
X245776500Y-135055949D01*
X245776500Y-134528321D01*
X244978239Y-133730060D01*
X243916164Y-134792135D01*
X242504779Y-134792135D01*
X241442705Y-133730060D01*
X240380630Y-134792135D01*
X238969245Y-134792135D01*
X237907171Y-133730060D01*
X236845096Y-134792135D01*
X235433711Y-134792135D01*
X234371636Y-133730060D01*
X233823500Y-134278197D01*
X232825500Y-134278197D01*
X232825500Y-133024368D01*
X235077329Y-133024368D01*
X236139404Y-134086443D01*
X237201478Y-133024368D01*
X238612863Y-133024368D01*
X239674938Y-134086443D01*
X240737012Y-133024368D01*
X242148397Y-133024368D01*
X243210472Y-134086443D01*
X244272546Y-133024368D01*
X243210472Y-131962293D01*
X242148397Y-133024368D01*
X240737012Y-133024368D01*
X239674938Y-131962293D01*
X238612863Y-133024368D01*
X237201478Y-133024368D01*
X236139404Y-131962293D01*
X235077329Y-133024368D01*
X232825500Y-133024368D01*
X232825500Y-130742664D01*
X233823500Y-130742664D01*
X233823500Y-131770539D01*
X234371637Y-132318676D01*
X235433711Y-131256601D01*
X236845096Y-131256601D01*
X237907171Y-132318676D01*
X238969245Y-131256601D01*
X240380630Y-131256601D01*
X241442705Y-132318676D01*
X242504779Y-131256601D01*
X243916164Y-131256601D01*
X244978238Y-132318676D01*
X245776500Y-131520415D01*
X245776500Y-130992788D01*
X244978239Y-130194527D01*
X243916164Y-131256601D01*
X242504779Y-131256601D01*
X241442705Y-130194527D01*
X240380630Y-131256601D01*
X238969245Y-131256601D01*
X237907171Y-130194527D01*
X236845096Y-131256601D01*
X235433711Y-131256601D01*
X234371637Y-130194527D01*
X233823500Y-130742664D01*
X232825500Y-130742664D01*
X232825500Y-129488834D01*
X235077329Y-129488834D01*
X236139404Y-130550909D01*
X237201478Y-129488834D01*
X238612862Y-129488834D01*
X239674938Y-130550909D01*
X240589139Y-129636708D01*
X240424285Y-129704994D01*
X240418607Y-129707184D01*
X240383944Y-129719587D01*
X240378167Y-129721496D01*
X240331271Y-129735723D01*
X240325401Y-129737347D01*
X240289673Y-129746296D01*
X240283736Y-129747629D01*
X240060144Y-129792104D01*
X240054149Y-129793145D01*
X240017721Y-129798549D01*
X240011678Y-129799294D01*
X239962909Y-129804097D01*
X239956838Y-129804545D01*
X239920063Y-129806351D01*
X239913981Y-129806500D01*
X239686019Y-129806500D01*
X239679937Y-129806351D01*
X239643162Y-129804545D01*
X239637091Y-129804097D01*
X239588322Y-129799294D01*
X239582279Y-129798549D01*
X239545851Y-129793145D01*
X239539856Y-129792104D01*
X239316264Y-129747629D01*
X239310327Y-129746296D01*
X239274599Y-129737347D01*
X239268729Y-129735723D01*
X239221833Y-129721496D01*
X239216056Y-129719587D01*
X239181393Y-129707184D01*
X239175715Y-129704994D01*
X238965111Y-129617758D01*
X238959549Y-129615293D01*
X238926270Y-129599554D01*
X238920834Y-129596817D01*
X238877613Y-129573716D01*
X238872317Y-129570716D01*
X238840725Y-129551781D01*
X238835581Y-129548524D01*
X238746249Y-129488834D01*
X242148397Y-129488834D01*
X243210472Y-130550909D01*
X244272546Y-129488834D01*
X243210472Y-128426760D01*
X242148397Y-129488834D01*
X238746249Y-129488834D01*
X238666290Y-129435407D01*
X238612862Y-129488834D01*
X237201478Y-129488834D01*
X236139404Y-128426760D01*
X235077329Y-129488834D01*
X232825500Y-129488834D01*
X232825500Y-127423500D01*
X233823500Y-127423500D01*
X233823500Y-128235005D01*
X234371637Y-128783142D01*
X235433711Y-127721067D01*
X236845096Y-127721067D01*
X237907170Y-128783141D01*
X238045097Y-128645215D01*
X237995006Y-128524285D01*
X237992816Y-128518607D01*
X237980413Y-128483944D01*
X237978504Y-128478167D01*
X237964277Y-128431271D01*
X237962653Y-128425401D01*
X237953704Y-128389673D01*
X237952371Y-128383736D01*
X237907896Y-128160144D01*
X237906855Y-128154149D01*
X237901451Y-128117721D01*
X237900706Y-128111678D01*
X237895903Y-128062909D01*
X237895455Y-128056838D01*
X237893649Y-128020063D01*
X237893500Y-128013981D01*
X237893500Y-127810516D01*
X238891500Y-127810516D01*
X238891500Y-127989483D01*
X238926411Y-128164992D01*
X238926413Y-128165000D01*
X238994896Y-128330332D01*
X238994901Y-128330342D01*
X239094321Y-128479134D01*
X239094324Y-128479138D01*
X239220861Y-128605675D01*
X239220865Y-128605678D01*
X239369657Y-128705098D01*
X239369661Y-128705100D01*
X239369664Y-128705102D01*
X239535000Y-128773587D01*
X239710516Y-128808499D01*
X239710520Y-128808500D01*
X239710521Y-128808500D01*
X239889480Y-128808500D01*
X239889481Y-128808499D01*
X240065000Y-128773587D01*
X240230336Y-128705102D01*
X240379135Y-128605678D01*
X240505678Y-128479135D01*
X240605102Y-128330336D01*
X240673587Y-128165000D01*
X240708500Y-127989479D01*
X240708500Y-127810521D01*
X240673587Y-127635000D01*
X240605102Y-127469664D01*
X240605100Y-127469661D01*
X240605098Y-127469657D01*
X240505678Y-127320865D01*
X240505675Y-127320861D01*
X240379138Y-127194324D01*
X240379134Y-127194321D01*
X240230342Y-127094901D01*
X240230332Y-127094896D01*
X240065000Y-127026413D01*
X240064992Y-127026411D01*
X239889483Y-126991500D01*
X239889479Y-126991500D01*
X239710521Y-126991500D01*
X239710516Y-126991500D01*
X239535007Y-127026411D01*
X239534999Y-127026413D01*
X239369667Y-127094896D01*
X239369657Y-127094901D01*
X239220865Y-127194321D01*
X239220861Y-127194324D01*
X239094324Y-127320861D01*
X239094321Y-127320865D01*
X238994901Y-127469657D01*
X238994896Y-127469667D01*
X238926413Y-127634999D01*
X238926411Y-127635007D01*
X238891500Y-127810516D01*
X237893500Y-127810516D01*
X237893500Y-127786019D01*
X237893649Y-127779937D01*
X237895455Y-127743162D01*
X237895903Y-127737091D01*
X237900706Y-127688322D01*
X237901451Y-127682279D01*
X237906855Y-127645851D01*
X237907896Y-127639856D01*
X237952371Y-127416264D01*
X237953704Y-127410327D01*
X237962653Y-127374599D01*
X237964277Y-127368729D01*
X237978504Y-127321833D01*
X237980413Y-127316056D01*
X237992816Y-127281393D01*
X237995006Y-127275715D01*
X238082242Y-127065111D01*
X238084707Y-127059549D01*
X238100446Y-127026270D01*
X238103183Y-127020834D01*
X238126284Y-126977613D01*
X238129284Y-126972317D01*
X238148219Y-126940725D01*
X238151475Y-126935582D01*
X238164406Y-126916228D01*
X238014467Y-126766289D01*
X241335407Y-126766289D01*
X241448524Y-126935581D01*
X241451781Y-126940725D01*
X241470716Y-126972317D01*
X241473716Y-126977613D01*
X241496817Y-127020834D01*
X241499554Y-127026270D01*
X241515293Y-127059549D01*
X241517758Y-127065111D01*
X241604994Y-127275715D01*
X241607184Y-127281393D01*
X241619587Y-127316056D01*
X241621496Y-127321833D01*
X241635723Y-127368729D01*
X241637347Y-127374599D01*
X241646296Y-127410327D01*
X241647629Y-127416264D01*
X241692104Y-127639856D01*
X241693145Y-127645851D01*
X241698549Y-127682279D01*
X241699294Y-127688322D01*
X241704097Y-127737091D01*
X241704545Y-127743162D01*
X241706351Y-127779937D01*
X241706500Y-127786019D01*
X241706500Y-128013981D01*
X241706351Y-128020063D01*
X241704545Y-128056838D01*
X241704097Y-128062909D01*
X241699294Y-128111678D01*
X241698549Y-128117721D01*
X241693145Y-128154149D01*
X241692104Y-128160144D01*
X241647629Y-128383736D01*
X241646296Y-128389673D01*
X241637347Y-128425401D01*
X241635723Y-128431271D01*
X241621496Y-128478167D01*
X241619587Y-128483944D01*
X241607184Y-128518607D01*
X241604994Y-128524285D01*
X241536708Y-128689138D01*
X242504779Y-127721067D01*
X243916163Y-127721067D01*
X244978238Y-128783142D01*
X245776500Y-127984881D01*
X245776500Y-127457254D01*
X245742811Y-127423565D01*
X245692148Y-127423626D01*
X245690852Y-127423500D01*
X245681911Y-127423500D01*
X245676183Y-127423368D01*
X245641562Y-127421767D01*
X245635848Y-127421370D01*
X245589922Y-127417114D01*
X245584233Y-127416454D01*
X245549909Y-127411666D01*
X245544255Y-127410744D01*
X245312094Y-127367345D01*
X245306486Y-127366162D01*
X245272735Y-127358223D01*
X245267189Y-127356782D01*
X245222831Y-127344159D01*
X245217361Y-127342465D01*
X245184520Y-127331457D01*
X245179135Y-127329513D01*
X244958908Y-127244197D01*
X244953615Y-127242004D01*
X244921893Y-127227997D01*
X244916704Y-127225561D01*
X244875418Y-127205001D01*
X244870350Y-127202329D01*
X244840091Y-127185473D01*
X244835157Y-127182574D01*
X244634362Y-127058247D01*
X244629564Y-127055120D01*
X244601402Y-127035829D01*
X243916163Y-127721067D01*
X242504779Y-127721067D01*
X241442704Y-126658992D01*
X241335407Y-126766289D01*
X238014467Y-126766289D01*
X237907171Y-126658993D01*
X236845096Y-127721067D01*
X235433711Y-127721067D01*
X234845362Y-127132718D01*
X234764843Y-127182574D01*
X234759909Y-127185473D01*
X234729650Y-127202329D01*
X234724582Y-127205001D01*
X234683296Y-127225561D01*
X234678107Y-127227997D01*
X234646385Y-127242004D01*
X234641092Y-127244197D01*
X234420865Y-127329513D01*
X234415480Y-127331457D01*
X234382639Y-127342465D01*
X234377169Y-127344159D01*
X234332811Y-127356782D01*
X234327265Y-127358223D01*
X234293514Y-127366162D01*
X234287906Y-127367345D01*
X234055745Y-127410744D01*
X234050091Y-127411666D01*
X234015767Y-127416454D01*
X234010078Y-127417114D01*
X233964152Y-127421370D01*
X233958438Y-127421767D01*
X233923817Y-127423368D01*
X233918089Y-127423500D01*
X233823500Y-127423500D01*
X232825500Y-127423500D01*
X232825500Y-126549500D01*
X232845185Y-126482461D01*
X232897989Y-126436706D01*
X232949500Y-126425500D01*
X233895025Y-126425500D01*
X233895027Y-126425500D01*
X233897049Y-126425122D01*
X235549150Y-126425122D01*
X236139404Y-127015376D01*
X237201479Y-125953301D01*
X238612863Y-125953301D01*
X238882978Y-126223416D01*
X238920834Y-126203183D01*
X238926270Y-126200446D01*
X238959549Y-126184707D01*
X238965111Y-126182242D01*
X239175715Y-126095006D01*
X239181393Y-126092816D01*
X239216056Y-126080413D01*
X239221833Y-126078504D01*
X239268729Y-126064277D01*
X239274599Y-126062653D01*
X239310327Y-126053704D01*
X239316264Y-126052371D01*
X239539856Y-126007896D01*
X239545851Y-126006855D01*
X239582279Y-126001451D01*
X239588322Y-126000706D01*
X239637091Y-125995903D01*
X239643162Y-125995455D01*
X239679937Y-125993649D01*
X239686019Y-125993500D01*
X239913981Y-125993500D01*
X239920063Y-125993649D01*
X239956838Y-125995455D01*
X239962909Y-125995903D01*
X240011678Y-126000706D01*
X240017721Y-126001451D01*
X240054149Y-126006855D01*
X240060144Y-126007896D01*
X240283736Y-126052371D01*
X240289673Y-126053704D01*
X240325401Y-126062653D01*
X240331271Y-126064277D01*
X240378167Y-126078504D01*
X240383944Y-126080413D01*
X240418607Y-126092816D01*
X240424285Y-126095006D01*
X240545215Y-126145097D01*
X240737011Y-125953301D01*
X242148397Y-125953301D01*
X243210471Y-127015375D01*
X243967116Y-126258730D01*
X243936001Y-126196243D01*
X243933567Y-126191058D01*
X243919567Y-126159351D01*
X243917375Y-126154059D01*
X243900713Y-126111050D01*
X243898767Y-126105661D01*
X243887754Y-126072802D01*
X243886059Y-126067330D01*
X243821430Y-125840177D01*
X243819991Y-125834634D01*
X243812059Y-125800909D01*
X243810877Y-125795308D01*
X243802401Y-125749973D01*
X243801478Y-125744315D01*
X243796689Y-125709983D01*
X243796029Y-125704293D01*
X243774237Y-125469122D01*
X243773840Y-125463409D01*
X243773412Y-125454166D01*
X243210472Y-124891226D01*
X242148397Y-125953301D01*
X240737011Y-125953301D01*
X240737012Y-125953300D01*
X239674938Y-124891226D01*
X238612863Y-125953301D01*
X237201479Y-125953301D01*
X236139403Y-124891225D01*
X235815076Y-125215552D01*
X235825763Y-125330877D01*
X235826160Y-125336591D01*
X235827761Y-125371211D01*
X235827893Y-125376939D01*
X235827893Y-125423061D01*
X235827761Y-125428789D01*
X235826160Y-125463409D01*
X235825763Y-125469122D01*
X235803971Y-125704293D01*
X235803311Y-125709983D01*
X235798522Y-125744315D01*
X235797599Y-125749973D01*
X235789123Y-125795308D01*
X235787941Y-125800909D01*
X235780009Y-125834634D01*
X235778570Y-125840177D01*
X235713941Y-126067330D01*
X235712246Y-126072802D01*
X235701233Y-126105661D01*
X235699287Y-126111050D01*
X235682625Y-126154059D01*
X235680433Y-126159351D01*
X235666433Y-126191058D01*
X235663999Y-126196244D01*
X235558728Y-126407656D01*
X235556057Y-126412723D01*
X235549150Y-126425122D01*
X233897049Y-126425122D01*
X234081844Y-126390577D01*
X234259063Y-126321922D01*
X234420649Y-126221872D01*
X234561100Y-126093834D01*
X234675633Y-125942169D01*
X234760347Y-125772040D01*
X234812357Y-125589242D01*
X234829893Y-125400000D01*
X234812357Y-125210758D01*
X234760347Y-125027960D01*
X234759906Y-125027075D01*
X234711797Y-124930458D01*
X234675633Y-124857831D01*
X234561100Y-124706166D01*
X234548126Y-124694339D01*
X234420650Y-124578129D01*
X234420649Y-124578128D01*
X234259063Y-124478078D01*
X234259061Y-124478077D01*
X234259057Y-124478075D01*
X234162517Y-124440676D01*
X234081844Y-124409423D01*
X233895027Y-124374500D01*
X233895025Y-124374500D01*
X233808126Y-124374500D01*
X233791941Y-124373439D01*
X233780208Y-124371894D01*
X233693375Y-124360462D01*
X233662109Y-124352084D01*
X233577834Y-124317177D01*
X233549800Y-124300992D01*
X233514540Y-124273936D01*
X233477428Y-124245458D01*
X233454541Y-124222571D01*
X233422912Y-124181352D01*
X233399005Y-124150197D01*
X233382823Y-124122168D01*
X233358818Y-124064213D01*
X233347915Y-124037890D01*
X233339537Y-124006623D01*
X233326561Y-123908059D01*
X233325500Y-123891874D01*
X233325500Y-123408125D01*
X233326561Y-123391940D01*
X233329754Y-123367685D01*
X233339537Y-123293375D01*
X233347915Y-123262109D01*
X233378856Y-123187410D01*
X233382825Y-123177828D01*
X233399003Y-123149805D01*
X233454541Y-123077427D01*
X233477428Y-123054541D01*
X233549805Y-122999003D01*
X233577828Y-122982825D01*
X233662109Y-122947915D01*
X233693375Y-122939537D01*
X233791941Y-122926561D01*
X233808126Y-122925500D01*
X233808285Y-122925500D01*
X236658196Y-122925500D01*
X236725235Y-122945185D01*
X236770990Y-122997989D01*
X236779999Y-123026262D01*
X236791053Y-123084212D01*
X236810739Y-123187410D01*
X236882111Y-123367675D01*
X236882117Y-123367687D01*
X236928899Y-123441403D01*
X236986010Y-123531395D01*
X237118740Y-123672738D01*
X237170394Y-123710267D01*
X237275604Y-123786707D01*
X237304536Y-123800321D01*
X237451044Y-123869262D01*
X237638847Y-123917482D01*
X237832358Y-123929657D01*
X238024724Y-123905355D01*
X238209128Y-123845439D01*
X238379039Y-123752029D01*
X238528437Y-123628437D01*
X238652029Y-123479039D01*
X238703113Y-123386119D01*
X239768659Y-123386119D01*
X239819157Y-123335621D01*
X239815548Y-123319471D01*
X239814409Y-123313741D01*
X239808332Y-123278923D01*
X239807463Y-123273145D01*
X239800000Y-123214070D01*
X239792537Y-123273145D01*
X239791668Y-123278923D01*
X239785591Y-123313741D01*
X239784452Y-123319471D01*
X239774190Y-123365381D01*
X239772782Y-123371050D01*
X239768659Y-123386119D01*
X238703113Y-123386119D01*
X238745439Y-123309128D01*
X238805355Y-123124724D01*
X238829657Y-122932358D01*
X238817482Y-122738847D01*
X238769262Y-122551044D01*
X238709223Y-122423455D01*
X238686707Y-122375604D01*
X238584610Y-122235081D01*
X238572738Y-122218740D01*
X238431395Y-122086010D01*
X238267685Y-121982116D01*
X238267675Y-121982111D01*
X238087409Y-121910739D01*
X238087410Y-121910739D01*
X237896942Y-121874406D01*
X237800000Y-121874500D01*
X226800000Y-121874500D01*
X226703056Y-121874406D01*
X226512589Y-121910739D01*
X226332324Y-121982111D01*
X226332312Y-121982117D01*
X226168610Y-122086006D01*
X226168602Y-122086012D01*
X226027263Y-122218738D01*
X225913292Y-122375604D01*
X225830737Y-122551047D01*
X225830736Y-122551050D01*
X225782518Y-122738844D01*
X225770343Y-122932355D01*
X225770343Y-122932362D01*
X225794644Y-123124721D01*
X225794645Y-123124725D01*
X225854560Y-123309124D01*
X225854561Y-123309128D01*
X225947971Y-123479039D01*
X225947971Y-123479040D01*
X225991278Y-123531389D01*
X226071563Y-123628437D01*
X226220961Y-123752029D01*
X226390872Y-123845439D01*
X226575276Y-123905355D01*
X226767642Y-123929657D01*
X226961153Y-123917482D01*
X227148956Y-123869262D01*
X227324397Y-123786706D01*
X227481260Y-123672738D01*
X227613990Y-123531395D01*
X227717884Y-123367685D01*
X227718796Y-123365381D01*
X227789260Y-123187410D01*
X227793965Y-123162750D01*
X227820000Y-123026264D01*
X227851898Y-122964101D01*
X227912340Y-122929051D01*
X227941804Y-122925500D01*
X230791715Y-122925500D01*
X230791874Y-122925500D01*
X230808059Y-122926561D01*
X230906623Y-122939537D01*
X230937890Y-122947915D01*
X230982649Y-122966454D01*
X231022168Y-122982823D01*
X231050197Y-122999005D01*
X231085460Y-123026064D01*
X231122571Y-123054541D01*
X231145458Y-123077428D01*
X231200991Y-123149798D01*
X231217177Y-123177834D01*
X231252084Y-123262109D01*
X231260462Y-123293375D01*
X231273439Y-123391939D01*
X231274500Y-123408125D01*
X231274500Y-123891874D01*
X231273439Y-123908060D01*
X231260462Y-124006624D01*
X231252084Y-124037890D01*
X231217177Y-124122165D01*
X231200991Y-124150201D01*
X231145458Y-124222571D01*
X231122571Y-124245458D01*
X231050201Y-124300991D01*
X231022165Y-124317177D01*
X230937890Y-124352084D01*
X230906624Y-124360462D01*
X230818244Y-124372098D01*
X230808058Y-124373439D01*
X230791874Y-124374500D01*
X230704973Y-124374500D01*
X230518156Y-124409423D01*
X230340942Y-124478075D01*
X230340938Y-124478077D01*
X230179349Y-124578129D01*
X230038901Y-124706164D01*
X229924367Y-124857830D01*
X229839653Y-125027957D01*
X229787642Y-125210760D01*
X229770107Y-125399999D01*
X229770107Y-125400000D01*
X229787642Y-125589239D01*
X229839653Y-125772042D01*
X229873581Y-125840177D01*
X229924367Y-125942169D01*
X230038900Y-126093834D01*
X230179351Y-126221872D01*
X230340937Y-126321922D01*
X230518156Y-126390577D01*
X230704973Y-126425500D01*
X230764815Y-126425500D01*
X230765015Y-126425539D01*
X230789467Y-126425510D01*
X230789468Y-126425511D01*
X230798719Y-126425500D01*
X230798762Y-126425500D01*
X230829145Y-126425500D01*
X230829360Y-126425463D01*
X231650356Y-126424490D01*
X231717416Y-126444095D01*
X231763233Y-126496845D01*
X231774500Y-126548490D01*
X231774500Y-152894587D01*
X231774028Y-152905395D01*
X231760640Y-153058410D01*
X231756887Y-153079696D01*
X231718536Y-153222824D01*
X231711144Y-153243133D01*
X231648524Y-153377421D01*
X231637721Y-153396133D01*
X231552728Y-153517514D01*
X231538835Y-153534071D01*
X231434071Y-153638835D01*
X231417514Y-153652728D01*
X231296133Y-153737721D01*
X231277421Y-153748524D01*
X231143134Y-153811144D01*
X231122824Y-153818536D01*
X230979696Y-153856887D01*
X230958410Y-153860640D01*
X230822206Y-153872557D01*
X230805393Y-153874028D01*
X230794588Y-153874500D01*
X218805412Y-153874500D01*
X218794606Y-153874028D01*
X218775883Y-153872390D01*
X218641589Y-153860640D01*
X218620303Y-153856887D01*
X218477175Y-153818536D01*
X218456870Y-153811146D01*
X218322573Y-153748522D01*
X218303866Y-153737721D01*
X218182485Y-153652728D01*
X218165928Y-153638835D01*
X218061164Y-153534071D01*
X218047271Y-153517514D01*
X217962278Y-153396133D01*
X217951479Y-153377430D01*
X217888851Y-153243123D01*
X217881463Y-153222824D01*
X217843112Y-153079696D01*
X217839359Y-153058409D01*
X217825972Y-152905394D01*
X217825500Y-152894587D01*
X217825500Y-152469805D01*
X219167427Y-152469805D01*
X219574122Y-152876500D01*
X220884881Y-152876500D01*
X221291575Y-152469805D01*
X222702961Y-152469805D01*
X223109656Y-152876500D01*
X224420415Y-152876500D01*
X224827110Y-152469804D01*
X226238494Y-152469804D01*
X226645190Y-152876500D01*
X227955949Y-152876500D01*
X228362644Y-152469805D01*
X229774028Y-152469805D01*
X230180723Y-152876500D01*
X230756419Y-152876500D01*
X230774884Y-152874884D01*
X230776500Y-152856418D01*
X230776500Y-151467333D01*
X229774028Y-152469805D01*
X228362644Y-152469805D01*
X227300569Y-151407730D01*
X226238494Y-152469804D01*
X224827110Y-152469804D01*
X223765035Y-151407730D01*
X222702961Y-152469805D01*
X221291575Y-152469805D01*
X221291576Y-152469804D01*
X220229501Y-151407730D01*
X219167427Y-152469805D01*
X217825500Y-152469805D01*
X217825500Y-151402348D01*
X218823500Y-151402348D01*
X219523810Y-150702038D01*
X220935194Y-150702038D01*
X221997268Y-151764112D01*
X223059343Y-150702038D01*
X224470727Y-150702038D01*
X225532802Y-151764112D01*
X226594877Y-150702038D01*
X228006261Y-150702038D01*
X229068336Y-151764113D01*
X230130411Y-150702038D01*
X229068336Y-149639963D01*
X228006261Y-150702038D01*
X226594877Y-150702038D01*
X225532802Y-149639963D01*
X224470727Y-150702038D01*
X223059343Y-150702038D01*
X221997268Y-149639963D01*
X220935194Y-150702038D01*
X219523810Y-150702038D01*
X218823500Y-150001728D01*
X218823500Y-151402348D01*
X217825500Y-151402348D01*
X217825500Y-148934271D01*
X219167427Y-148934271D01*
X220229501Y-149996345D01*
X221291576Y-148934271D01*
X222702961Y-148934271D01*
X223765035Y-149996345D01*
X224827110Y-148934271D01*
X226238494Y-148934271D01*
X227300569Y-149996345D01*
X228362644Y-148934271D01*
X229774028Y-148934271D01*
X230776500Y-149936743D01*
X230776500Y-147931799D01*
X229774028Y-148934271D01*
X228362644Y-148934271D01*
X227300569Y-147872196D01*
X226238494Y-148934271D01*
X224827110Y-148934271D01*
X223765035Y-147872196D01*
X222702961Y-148934271D01*
X221291576Y-148934271D01*
X220229501Y-147872196D01*
X219167427Y-148934271D01*
X217825500Y-148934271D01*
X217825500Y-147866814D01*
X218823500Y-147866814D01*
X219523810Y-147166504D01*
X220935194Y-147166504D01*
X221997268Y-148228578D01*
X223059343Y-147166504D01*
X224470727Y-147166504D01*
X225532802Y-148228578D01*
X226594877Y-147166504D01*
X228006261Y-147166504D01*
X229068336Y-148228579D01*
X230130411Y-147166504D01*
X229068336Y-146104429D01*
X228006261Y-147166504D01*
X226594877Y-147166504D01*
X225532802Y-146104429D01*
X224470727Y-147166504D01*
X223059343Y-147166504D01*
X221997268Y-146104429D01*
X220935194Y-147166504D01*
X219523810Y-147166504D01*
X218823500Y-146466194D01*
X218823500Y-147866814D01*
X217825500Y-147866814D01*
X217825500Y-145398737D01*
X219167427Y-145398737D01*
X220229501Y-146460811D01*
X221291576Y-145398737D01*
X222702961Y-145398737D01*
X223765035Y-146460811D01*
X224827110Y-145398737D01*
X226238494Y-145398737D01*
X227300569Y-146460811D01*
X228362644Y-145398737D01*
X229774028Y-145398737D01*
X230776500Y-146401209D01*
X230776500Y-144396265D01*
X229774028Y-145398737D01*
X228362644Y-145398737D01*
X227300569Y-144336662D01*
X226238494Y-145398737D01*
X224827110Y-145398737D01*
X223765035Y-144336662D01*
X222702961Y-145398737D01*
X221291576Y-145398737D01*
X220229501Y-144336662D01*
X219167427Y-145398737D01*
X217825500Y-145398737D01*
X217825500Y-144331280D01*
X218823500Y-144331280D01*
X219523810Y-143630970D01*
X220935194Y-143630970D01*
X221997268Y-144693044D01*
X223059343Y-143630970D01*
X224470727Y-143630970D01*
X225532802Y-144693044D01*
X226594877Y-143630970D01*
X228006261Y-143630970D01*
X229068336Y-144693045D01*
X230130411Y-143630970D01*
X229068336Y-142568895D01*
X228006261Y-143630970D01*
X226594877Y-143630970D01*
X225532802Y-142568895D01*
X224470727Y-143630970D01*
X223059343Y-143630970D01*
X221997268Y-142568895D01*
X220935194Y-143630970D01*
X219523810Y-143630970D01*
X218823500Y-142930660D01*
X218823500Y-144331280D01*
X217825500Y-144331280D01*
X217825500Y-141863203D01*
X219167427Y-141863203D01*
X220229501Y-142925277D01*
X221291576Y-141863203D01*
X222702961Y-141863203D01*
X223765035Y-142925277D01*
X224827110Y-141863203D01*
X226238494Y-141863203D01*
X227300569Y-142925277D01*
X228362644Y-141863203D01*
X229774028Y-141863203D01*
X230776500Y-142865675D01*
X230776500Y-140860731D01*
X229774028Y-141863203D01*
X228362644Y-141863203D01*
X227300569Y-140801128D01*
X226238494Y-141863203D01*
X224827110Y-141863203D01*
X223765035Y-140801128D01*
X222702961Y-141863203D01*
X221291576Y-141863203D01*
X220229501Y-140801128D01*
X219167427Y-141863203D01*
X217825500Y-141863203D01*
X217825500Y-140795746D01*
X218823500Y-140795746D01*
X219523810Y-140095436D01*
X220935194Y-140095436D01*
X221997268Y-141157510D01*
X223059343Y-140095436D01*
X224470727Y-140095436D01*
X225532802Y-141157510D01*
X226594877Y-140095436D01*
X228006261Y-140095436D01*
X229068336Y-141157511D01*
X230130411Y-140095436D01*
X229068336Y-139033361D01*
X228006261Y-140095436D01*
X226594877Y-140095436D01*
X225532802Y-139033361D01*
X224470727Y-140095436D01*
X223059343Y-140095436D01*
X221997268Y-139033361D01*
X220935194Y-140095436D01*
X219523810Y-140095436D01*
X218823500Y-139395126D01*
X218823500Y-140795746D01*
X217825500Y-140795746D01*
X217825500Y-138327669D01*
X219167427Y-138327669D01*
X220229501Y-139389743D01*
X221291576Y-138327669D01*
X222702961Y-138327669D01*
X223765035Y-139389743D01*
X224827110Y-138327669D01*
X226238494Y-138327669D01*
X227300569Y-139389743D01*
X228362644Y-138327669D01*
X229774028Y-138327669D01*
X230776500Y-139330141D01*
X230776500Y-137325197D01*
X229774028Y-138327669D01*
X228362644Y-138327669D01*
X227300569Y-137265594D01*
X226238494Y-138327669D01*
X224827110Y-138327669D01*
X223765035Y-137265594D01*
X222702961Y-138327669D01*
X221291576Y-138327669D01*
X220229501Y-137265594D01*
X219167427Y-138327669D01*
X217825500Y-138327669D01*
X217825500Y-137260212D01*
X218823500Y-137260212D01*
X219523810Y-136559902D01*
X220935194Y-136559902D01*
X221997268Y-137621976D01*
X223059343Y-136559902D01*
X224470727Y-136559902D01*
X225532802Y-137621976D01*
X226594877Y-136559902D01*
X228006261Y-136559902D01*
X229068336Y-137621977D01*
X230130411Y-136559902D01*
X229068336Y-135497827D01*
X228006261Y-136559902D01*
X226594877Y-136559902D01*
X225532802Y-135497827D01*
X224470727Y-136559902D01*
X223059343Y-136559902D01*
X221997268Y-135497827D01*
X220935194Y-136559902D01*
X219523810Y-136559902D01*
X218823500Y-135859592D01*
X218823500Y-137260212D01*
X217825500Y-137260212D01*
X217825500Y-134792135D01*
X219167427Y-134792135D01*
X220229501Y-135854209D01*
X221291576Y-134792135D01*
X222702961Y-134792135D01*
X223765035Y-135854209D01*
X224827110Y-134792135D01*
X226238494Y-134792135D01*
X227300569Y-135854209D01*
X228362643Y-134792135D01*
X229774028Y-134792135D01*
X230776500Y-135794607D01*
X230776500Y-133789663D01*
X229774028Y-134792135D01*
X228362643Y-134792135D01*
X227300569Y-133730060D01*
X226238494Y-134792135D01*
X224827110Y-134792135D01*
X223765035Y-133730060D01*
X222702961Y-134792135D01*
X221291576Y-134792135D01*
X220229501Y-133730060D01*
X219167427Y-134792135D01*
X217825500Y-134792135D01*
X217825500Y-133724678D01*
X218823500Y-133724678D01*
X219523810Y-133024368D01*
X220935194Y-133024368D01*
X221997268Y-134086442D01*
X223059343Y-133024368D01*
X224470727Y-133024368D01*
X225532802Y-134086442D01*
X226594876Y-133024368D01*
X228006261Y-133024368D01*
X229068336Y-134086443D01*
X230130410Y-133024368D01*
X229068336Y-131962293D01*
X228006261Y-133024368D01*
X226594876Y-133024368D01*
X225532802Y-131962293D01*
X224470727Y-133024368D01*
X223059343Y-133024368D01*
X221997268Y-131962293D01*
X220935194Y-133024368D01*
X219523810Y-133024368D01*
X218823500Y-132324058D01*
X218823500Y-133724678D01*
X217825500Y-133724678D01*
X217825500Y-131256601D01*
X219167427Y-131256601D01*
X220229501Y-132318676D01*
X221291576Y-131256601D01*
X222702961Y-131256601D01*
X223765035Y-132318676D01*
X224827110Y-131256601D01*
X226238494Y-131256601D01*
X227300569Y-132318676D01*
X228362643Y-131256601D01*
X229774028Y-131256601D01*
X230776500Y-132259073D01*
X230776500Y-130254130D01*
X229774028Y-131256601D01*
X228362643Y-131256601D01*
X227300569Y-130194527D01*
X226238494Y-131256601D01*
X224827110Y-131256601D01*
X223765035Y-130194527D01*
X222702961Y-131256601D01*
X221291576Y-131256601D01*
X220229501Y-130194527D01*
X219167427Y-131256601D01*
X217825500Y-131256601D01*
X217825500Y-130189144D01*
X218823500Y-130189144D01*
X219523809Y-129488834D01*
X220935194Y-129488834D01*
X221997268Y-130550909D01*
X222741677Y-129806500D01*
X224788393Y-129806500D01*
X225532802Y-130550909D01*
X226594876Y-129488834D01*
X228006261Y-129488834D01*
X229068336Y-130550909D01*
X230130410Y-129488834D01*
X229068336Y-128426760D01*
X228006261Y-129488834D01*
X226594876Y-129488834D01*
X226250124Y-129144082D01*
X226232896Y-129163091D01*
X226228698Y-129167500D01*
X226067500Y-129328698D01*
X226063091Y-129332896D01*
X226035804Y-129357627D01*
X226031196Y-129361602D01*
X225993313Y-129392691D01*
X225988516Y-129396434D01*
X225958943Y-129418367D01*
X225953967Y-129421872D01*
X225764419Y-129548524D01*
X225759275Y-129551781D01*
X225727683Y-129570716D01*
X225722387Y-129573716D01*
X225679166Y-129596817D01*
X225673730Y-129599554D01*
X225640451Y-129615293D01*
X225634889Y-129617758D01*
X225424285Y-129704994D01*
X225418607Y-129707184D01*
X225383944Y-129719587D01*
X225378167Y-129721496D01*
X225331271Y-129735723D01*
X225325401Y-129737347D01*
X225289673Y-129746296D01*
X225283736Y-129747629D01*
X225060144Y-129792104D01*
X225054149Y-129793145D01*
X225017721Y-129798549D01*
X225011678Y-129799294D01*
X224962909Y-129804097D01*
X224956838Y-129804545D01*
X224920063Y-129806351D01*
X224913981Y-129806500D01*
X224788393Y-129806500D01*
X222741677Y-129806500D01*
X223059343Y-129488834D01*
X221997268Y-128426760D01*
X220935194Y-129488834D01*
X219523809Y-129488834D01*
X218823500Y-128788525D01*
X218823500Y-130189144D01*
X217825500Y-130189144D01*
X217825500Y-127721067D01*
X219167426Y-127721067D01*
X220229501Y-128783142D01*
X221202127Y-127810516D01*
X223891500Y-127810516D01*
X223891500Y-127989483D01*
X223926411Y-128164992D01*
X223926413Y-128165000D01*
X223994896Y-128330332D01*
X223994901Y-128330342D01*
X224094321Y-128479134D01*
X224094324Y-128479138D01*
X224220861Y-128605675D01*
X224220865Y-128605678D01*
X224369657Y-128705098D01*
X224369661Y-128705100D01*
X224369664Y-128705102D01*
X224535000Y-128773587D01*
X224710516Y-128808499D01*
X224710520Y-128808500D01*
X224710521Y-128808500D01*
X224889480Y-128808500D01*
X224889481Y-128808499D01*
X225065000Y-128773587D01*
X225230336Y-128705102D01*
X225379135Y-128605678D01*
X225505678Y-128479135D01*
X225605102Y-128330336D01*
X225673587Y-128165000D01*
X225708500Y-127989479D01*
X225708500Y-127810521D01*
X225673587Y-127635000D01*
X225605102Y-127469664D01*
X225605100Y-127469661D01*
X225605098Y-127469657D01*
X225514646Y-127334286D01*
X226625274Y-127334286D01*
X226635723Y-127368729D01*
X226637347Y-127374599D01*
X226646296Y-127410327D01*
X226647629Y-127416264D01*
X226692104Y-127639856D01*
X226693145Y-127645851D01*
X226698549Y-127682279D01*
X226699294Y-127688322D01*
X226704097Y-127737091D01*
X226704545Y-127743162D01*
X226706351Y-127779937D01*
X226706500Y-127786019D01*
X226706500Y-128013981D01*
X226706351Y-128020063D01*
X226704545Y-128056838D01*
X226704097Y-128062909D01*
X226699294Y-128111678D01*
X226698549Y-128117721D01*
X226693145Y-128154149D01*
X226692104Y-128160145D01*
X226689692Y-128172265D01*
X227300569Y-128783142D01*
X228362643Y-127721067D01*
X229774027Y-127721067D01*
X230776500Y-128723539D01*
X230776500Y-127423526D01*
X230692147Y-127423626D01*
X230690851Y-127423500D01*
X230681911Y-127423500D01*
X230676183Y-127423368D01*
X230641562Y-127421767D01*
X230635848Y-127421370D01*
X230589922Y-127417114D01*
X230584233Y-127416454D01*
X230549909Y-127411666D01*
X230544255Y-127410744D01*
X230312094Y-127367345D01*
X230306486Y-127366162D01*
X230272735Y-127358223D01*
X230267189Y-127356782D01*
X230222831Y-127344159D01*
X230217361Y-127342465D01*
X230184520Y-127331457D01*
X230179135Y-127329512D01*
X230169367Y-127325727D01*
X229774027Y-127721067D01*
X228362643Y-127721067D01*
X227300568Y-126658992D01*
X226625274Y-127334286D01*
X225514646Y-127334286D01*
X225505678Y-127320865D01*
X225505675Y-127320861D01*
X225379138Y-127194324D01*
X225379134Y-127194321D01*
X225230342Y-127094901D01*
X225230332Y-127094896D01*
X225065000Y-127026413D01*
X225064992Y-127026411D01*
X224889483Y-126991500D01*
X224889479Y-126991500D01*
X224710521Y-126991500D01*
X224710516Y-126991500D01*
X224535007Y-127026411D01*
X224534999Y-127026413D01*
X224369667Y-127094896D01*
X224369657Y-127094901D01*
X224220865Y-127194321D01*
X224220861Y-127194324D01*
X224094324Y-127320861D01*
X224094321Y-127320865D01*
X223994901Y-127469657D01*
X223994896Y-127469667D01*
X223926413Y-127634999D01*
X223926411Y-127635007D01*
X223891500Y-127810516D01*
X221202127Y-127810516D01*
X221291576Y-127721067D01*
X220316717Y-126746208D01*
X220314171Y-126749135D01*
X220283100Y-126783219D01*
X220279143Y-126787363D01*
X220254634Y-126811872D01*
X220250491Y-126815828D01*
X220075957Y-126974937D01*
X220071637Y-126978697D01*
X220044980Y-127000833D01*
X220040491Y-127004389D01*
X220003686Y-127032184D01*
X219999033Y-127035531D01*
X219970436Y-127055120D01*
X219965638Y-127058247D01*
X219764843Y-127182574D01*
X219759909Y-127185473D01*
X219729650Y-127202329D01*
X219724582Y-127205001D01*
X219683296Y-127225561D01*
X219678107Y-127227997D01*
X219646573Y-127241920D01*
X219167426Y-127721067D01*
X217825500Y-127721067D01*
X217825500Y-126549500D01*
X217845185Y-126482461D01*
X217897989Y-126436706D01*
X217949500Y-126425500D01*
X218895025Y-126425500D01*
X218895027Y-126425500D01*
X219081844Y-126390577D01*
X219259063Y-126321922D01*
X219420649Y-126221872D01*
X219561100Y-126093834D01*
X219667226Y-125953301D01*
X220935194Y-125953301D01*
X221997268Y-127015375D01*
X223059343Y-125953301D01*
X223059342Y-125953300D01*
X224470727Y-125953300D01*
X224527733Y-126010306D01*
X224539857Y-126007895D01*
X224545851Y-126006855D01*
X224582279Y-126001451D01*
X224588322Y-126000706D01*
X224637091Y-125995903D01*
X224643162Y-125995455D01*
X224679937Y-125993649D01*
X224686019Y-125993500D01*
X224913981Y-125993500D01*
X224920063Y-125993649D01*
X224956838Y-125995455D01*
X224962909Y-125995903D01*
X225011678Y-126000706D01*
X225017721Y-126001451D01*
X225054149Y-126006855D01*
X225060144Y-126007896D01*
X225283736Y-126052371D01*
X225289673Y-126053704D01*
X225325401Y-126062653D01*
X225331271Y-126064277D01*
X225378167Y-126078504D01*
X225383944Y-126080413D01*
X225418607Y-126092816D01*
X225424285Y-126095006D01*
X225634889Y-126182242D01*
X225640451Y-126184707D01*
X225673730Y-126200446D01*
X225679166Y-126203183D01*
X225722387Y-126226284D01*
X225727683Y-126229284D01*
X225759275Y-126248219D01*
X225764419Y-126251476D01*
X225953967Y-126378128D01*
X225958943Y-126381633D01*
X225988516Y-126403566D01*
X225993313Y-126407309D01*
X226031196Y-126438398D01*
X226035804Y-126442373D01*
X226063091Y-126467104D01*
X226067500Y-126471302D01*
X226072188Y-126475990D01*
X226594877Y-125953301D01*
X226594876Y-125953300D01*
X228006260Y-125953300D01*
X229068335Y-127015375D01*
X229309075Y-126774635D01*
X229285829Y-126749135D01*
X229282070Y-126744816D01*
X229259934Y-126718159D01*
X229256377Y-126713668D01*
X229114047Y-126525194D01*
X229110701Y-126520543D01*
X229091110Y-126491943D01*
X229087981Y-126487141D01*
X229063702Y-126447926D01*
X229060802Y-126442991D01*
X229043943Y-126412723D01*
X229041272Y-126407656D01*
X228936001Y-126196244D01*
X228933567Y-126191058D01*
X228919567Y-126159351D01*
X228917375Y-126154059D01*
X228900713Y-126111050D01*
X228898767Y-126105661D01*
X228887754Y-126072802D01*
X228886059Y-126067330D01*
X228821430Y-125840177D01*
X228819991Y-125834634D01*
X228812059Y-125800909D01*
X228810877Y-125795308D01*
X228802401Y-125749973D01*
X228801478Y-125744315D01*
X228796689Y-125709983D01*
X228796029Y-125704293D01*
X228774237Y-125469122D01*
X228773840Y-125463409D01*
X228772239Y-125428789D01*
X228772107Y-125423061D01*
X228772107Y-125376939D01*
X228772239Y-125371211D01*
X228773840Y-125336591D01*
X228774237Y-125330878D01*
X228789102Y-125170459D01*
X228006260Y-125953300D01*
X226594876Y-125953300D01*
X225532802Y-124891226D01*
X224470727Y-125953300D01*
X223059342Y-125953300D01*
X221997268Y-124891226D01*
X220935194Y-125953301D01*
X219667226Y-125953301D01*
X219675633Y-125942169D01*
X219760347Y-125772040D01*
X219812357Y-125589242D01*
X219829893Y-125400000D01*
X219812357Y-125210758D01*
X219760347Y-125027960D01*
X219759906Y-125027075D01*
X219711797Y-124930458D01*
X219675633Y-124857831D01*
X219665936Y-124844990D01*
X223362417Y-124844990D01*
X223765035Y-125247608D01*
X224827110Y-124185534D01*
X224553125Y-123911549D01*
X224515249Y-123980446D01*
X224512314Y-123985498D01*
X224493841Y-124015643D01*
X224490670Y-124020554D01*
X224464226Y-124059463D01*
X224460832Y-124064213D01*
X224439612Y-124092476D01*
X224435994Y-124097066D01*
X224282416Y-124282710D01*
X224278586Y-124287122D01*
X224254795Y-124313268D01*
X224250762Y-124317496D01*
X224217496Y-124350762D01*
X224213268Y-124354795D01*
X224187122Y-124378586D01*
X224182710Y-124382416D01*
X223997066Y-124535994D01*
X223992476Y-124539612D01*
X223964213Y-124560832D01*
X223959463Y-124564226D01*
X223920554Y-124590670D01*
X223915643Y-124593841D01*
X223885498Y-124612314D01*
X223880446Y-124615249D01*
X223669306Y-124731325D01*
X223664120Y-124734019D01*
X223632374Y-124749571D01*
X223627069Y-124752017D01*
X223583893Y-124770701D01*
X223578476Y-124772894D01*
X223545408Y-124785389D01*
X223539896Y-124787325D01*
X223362417Y-124844990D01*
X219665936Y-124844990D01*
X219561100Y-124706166D01*
X219548126Y-124694339D01*
X219420650Y-124578129D01*
X219420649Y-124578128D01*
X219259063Y-124478078D01*
X219259061Y-124478077D01*
X219259057Y-124478075D01*
X219162517Y-124440676D01*
X219081844Y-124409423D01*
X218895027Y-124374500D01*
X218895025Y-124374500D01*
X218808126Y-124374500D01*
X218791941Y-124373439D01*
X218780208Y-124371894D01*
X218693375Y-124360462D01*
X218662109Y-124352084D01*
X218577834Y-124317177D01*
X218549800Y-124300992D01*
X218514540Y-124273936D01*
X218477428Y-124245458D01*
X218454541Y-124222571D01*
X218422912Y-124181352D01*
X218399005Y-124150197D01*
X218382823Y-124122168D01*
X218358818Y-124064213D01*
X218347915Y-124037890D01*
X218339537Y-124006623D01*
X218326561Y-123908059D01*
X218325500Y-123891874D01*
X218325500Y-123408125D01*
X218326561Y-123391940D01*
X218329754Y-123367685D01*
X218339537Y-123293375D01*
X218347915Y-123262109D01*
X218378856Y-123187410D01*
X218382825Y-123177828D01*
X218399003Y-123149805D01*
X218454541Y-123077427D01*
X218477428Y-123054541D01*
X218549805Y-122999003D01*
X218577828Y-122982825D01*
X218662109Y-122947915D01*
X218693375Y-122939537D01*
X218791941Y-122926561D01*
X218808126Y-122925500D01*
X218808285Y-122925500D01*
X221658196Y-122925500D01*
X221725235Y-122945185D01*
X221770990Y-122997989D01*
X221779999Y-123026262D01*
X221791053Y-123084212D01*
X221810739Y-123187410D01*
X221882111Y-123367675D01*
X221882117Y-123367687D01*
X221928899Y-123441403D01*
X221986010Y-123531395D01*
X222118740Y-123672738D01*
X222170394Y-123710267D01*
X222275604Y-123786707D01*
X222304536Y-123800321D01*
X222451044Y-123869262D01*
X222638847Y-123917482D01*
X222832358Y-123929657D01*
X223024724Y-123905355D01*
X223209128Y-123845439D01*
X223379039Y-123752029D01*
X223528437Y-123628437D01*
X223652029Y-123479039D01*
X223745439Y-123309128D01*
X223805355Y-123124724D01*
X223829657Y-122932358D01*
X223817482Y-122738847D01*
X223769262Y-122551044D01*
X223709223Y-122423455D01*
X223686707Y-122375604D01*
X223584610Y-122235081D01*
X223572738Y-122218740D01*
X223431395Y-122086010D01*
X223267685Y-121982116D01*
X223267675Y-121982111D01*
X223087409Y-121910739D01*
X223087410Y-121910739D01*
X222896942Y-121874406D01*
X222800000Y-121874500D01*
X211800000Y-121874500D01*
X211703056Y-121874406D01*
X211512589Y-121910739D01*
X211332324Y-121982111D01*
X211332312Y-121982117D01*
X211168610Y-122086006D01*
X211168602Y-122086012D01*
X211027263Y-122218738D01*
X210913292Y-122375604D01*
X210830737Y-122551047D01*
X210830736Y-122551050D01*
X210782518Y-122738844D01*
X210770343Y-122932355D01*
X210770343Y-122932362D01*
X210794644Y-123124721D01*
X210794645Y-123124725D01*
X210854560Y-123309124D01*
X210854561Y-123309128D01*
X210947971Y-123479039D01*
X210947971Y-123479040D01*
X210991278Y-123531389D01*
X211071563Y-123628437D01*
X211220961Y-123752029D01*
X211390872Y-123845439D01*
X211575276Y-123905355D01*
X211767642Y-123929657D01*
X211961153Y-123917482D01*
X212148956Y-123869262D01*
X212324397Y-123786706D01*
X212481260Y-123672738D01*
X212613990Y-123531395D01*
X212717884Y-123367685D01*
X212718796Y-123365381D01*
X212789260Y-123187410D01*
X212793965Y-123162750D01*
X212820000Y-123026264D01*
X212851898Y-122964101D01*
X212912340Y-122929051D01*
X212941804Y-122925500D01*
X215791715Y-122925500D01*
X215791874Y-122925500D01*
X215808059Y-122926561D01*
X215906623Y-122939537D01*
X215937890Y-122947915D01*
X215982649Y-122966454D01*
X216022168Y-122982823D01*
X216050197Y-122999005D01*
X216085460Y-123026064D01*
X216122571Y-123054541D01*
X216145458Y-123077428D01*
X216200991Y-123149798D01*
X216217177Y-123177834D01*
X216252084Y-123262109D01*
X216260462Y-123293375D01*
X216273439Y-123391939D01*
X216274500Y-123408125D01*
X216274500Y-123891874D01*
X216273439Y-123908060D01*
X216260462Y-124006624D01*
X216252084Y-124037890D01*
X216217177Y-124122165D01*
X216200991Y-124150201D01*
X216145458Y-124222571D01*
X216122571Y-124245458D01*
X216050201Y-124300991D01*
X216022165Y-124317177D01*
X215937890Y-124352084D01*
X215906624Y-124360462D01*
X215818244Y-124372098D01*
X215808058Y-124373439D01*
X215791874Y-124374500D01*
X215704973Y-124374500D01*
X215518156Y-124409423D01*
X215340942Y-124478075D01*
X215340938Y-124478077D01*
X215179349Y-124578129D01*
X215038901Y-124706164D01*
X214924367Y-124857830D01*
X214839653Y-125027957D01*
X214787642Y-125210760D01*
X214770107Y-125399999D01*
X214770107Y-125400000D01*
X214787642Y-125589239D01*
X214839653Y-125772042D01*
X214873581Y-125840177D01*
X214924367Y-125942169D01*
X215038900Y-126093834D01*
X215179351Y-126221872D01*
X215340937Y-126321922D01*
X215518156Y-126390577D01*
X215704973Y-126425500D01*
X215764815Y-126425500D01*
X215765015Y-126425539D01*
X215789467Y-126425510D01*
X215789468Y-126425511D01*
X215798719Y-126425500D01*
X215798762Y-126425500D01*
X215829145Y-126425500D01*
X215829360Y-126425463D01*
X216650356Y-126424490D01*
X216717416Y-126444095D01*
X216763233Y-126496845D01*
X216774500Y-126548490D01*
X216774500Y-152894587D01*
X216774028Y-152905395D01*
X216760640Y-153058410D01*
X216756887Y-153079696D01*
X216718536Y-153222824D01*
X216711144Y-153243133D01*
X216648524Y-153377421D01*
X216637721Y-153396133D01*
X216552728Y-153517514D01*
X216538835Y-153534071D01*
X216434071Y-153638835D01*
X216417514Y-153652728D01*
X216296133Y-153737721D01*
X216277421Y-153748524D01*
X216143134Y-153811144D01*
X216122824Y-153818536D01*
X215979696Y-153856887D01*
X215958410Y-153860640D01*
X215822206Y-153872557D01*
X215805393Y-153874028D01*
X215794588Y-153874500D01*
X203805412Y-153874500D01*
X203794606Y-153874028D01*
X203775883Y-153872390D01*
X203641589Y-153860640D01*
X203620303Y-153856887D01*
X203477175Y-153818536D01*
X203456870Y-153811146D01*
X203322573Y-153748522D01*
X203303866Y-153737721D01*
X203182485Y-153652728D01*
X203165928Y-153638835D01*
X203061164Y-153534071D01*
X203047271Y-153517514D01*
X202962278Y-153396133D01*
X202951479Y-153377430D01*
X202888851Y-153243123D01*
X202881463Y-153222824D01*
X202843112Y-153079696D01*
X202839359Y-153058409D01*
X202825972Y-152905394D01*
X202825500Y-152894587D01*
X202825500Y-152469805D01*
X205025291Y-152469805D01*
X205431986Y-152876500D01*
X206742746Y-152876500D01*
X207149441Y-152469805D01*
X208560825Y-152469805D01*
X208967520Y-152876500D01*
X210278280Y-152876500D01*
X210684975Y-152469805D01*
X212096359Y-152469805D01*
X212503054Y-152876500D01*
X213813814Y-152876500D01*
X214220509Y-152469805D01*
X213158434Y-151407730D01*
X212096359Y-152469805D01*
X210684975Y-152469805D01*
X209622900Y-151407730D01*
X208560825Y-152469805D01*
X207149441Y-152469805D01*
X206087366Y-151407730D01*
X205025291Y-152469805D01*
X202825500Y-152469805D01*
X202825500Y-150136062D01*
X203823500Y-150136062D01*
X203823500Y-151268014D01*
X204319599Y-151764113D01*
X205381674Y-150702038D01*
X206793058Y-150702038D01*
X207855133Y-151764113D01*
X208917208Y-150702038D01*
X210328592Y-150702038D01*
X211390667Y-151764113D01*
X212452742Y-150702038D01*
X213864126Y-150702038D01*
X214926201Y-151764113D01*
X215776500Y-150913814D01*
X215776500Y-150490262D01*
X214926201Y-149639963D01*
X213864126Y-150702038D01*
X212452742Y-150702038D01*
X211390667Y-149639963D01*
X210328592Y-150702038D01*
X208917208Y-150702038D01*
X207855133Y-149639963D01*
X206793058Y-150702038D01*
X205381674Y-150702038D01*
X204319599Y-149639963D01*
X203823500Y-150136062D01*
X202825500Y-150136062D01*
X202825500Y-148934271D01*
X205025291Y-148934271D01*
X206087366Y-149996346D01*
X207149441Y-148934271D01*
X208560825Y-148934271D01*
X209622900Y-149996346D01*
X210684975Y-148934271D01*
X212096359Y-148934271D01*
X213158434Y-149996346D01*
X214220509Y-148934271D01*
X213158434Y-147872196D01*
X212096359Y-148934271D01*
X210684975Y-148934271D01*
X209622900Y-147872196D01*
X208560825Y-148934271D01*
X207149441Y-148934271D01*
X206087366Y-147872196D01*
X205025291Y-148934271D01*
X202825500Y-148934271D01*
X202825500Y-146600528D01*
X203823500Y-146600528D01*
X203823500Y-147732480D01*
X204319599Y-148228579D01*
X205381674Y-147166504D01*
X206793058Y-147166504D01*
X207855133Y-148228579D01*
X208917208Y-147166504D01*
X210328592Y-147166504D01*
X211390667Y-148228579D01*
X212452742Y-147166504D01*
X213864126Y-147166504D01*
X214926201Y-148228579D01*
X215776500Y-147378280D01*
X215776500Y-146954728D01*
X214926201Y-146104429D01*
X213864126Y-147166504D01*
X212452742Y-147166504D01*
X211390667Y-146104429D01*
X210328592Y-147166504D01*
X208917208Y-147166504D01*
X207855133Y-146104429D01*
X206793058Y-147166504D01*
X205381674Y-147166504D01*
X204319599Y-146104429D01*
X203823500Y-146600528D01*
X202825500Y-146600528D01*
X202825500Y-145398737D01*
X205025291Y-145398737D01*
X206087366Y-146460812D01*
X207149441Y-145398737D01*
X208560825Y-145398737D01*
X209622900Y-146460812D01*
X210684975Y-145398737D01*
X212096359Y-145398737D01*
X213158434Y-146460812D01*
X214220509Y-145398737D01*
X213158434Y-144336662D01*
X212096359Y-145398737D01*
X210684975Y-145398737D01*
X209622900Y-144336662D01*
X208560825Y-145398737D01*
X207149441Y-145398737D01*
X206087366Y-144336662D01*
X205025291Y-145398737D01*
X202825500Y-145398737D01*
X202825500Y-143064994D01*
X203823500Y-143064994D01*
X203823500Y-144196946D01*
X204319599Y-144693045D01*
X205381674Y-143630970D01*
X206793058Y-143630970D01*
X207855133Y-144693045D01*
X208917208Y-143630970D01*
X210328592Y-143630970D01*
X211390667Y-144693045D01*
X212452742Y-143630970D01*
X213864126Y-143630970D01*
X214926201Y-144693045D01*
X215776500Y-143842746D01*
X215776500Y-143419194D01*
X214926201Y-142568895D01*
X213864126Y-143630970D01*
X212452742Y-143630970D01*
X211390667Y-142568895D01*
X210328592Y-143630970D01*
X208917208Y-143630970D01*
X207855133Y-142568895D01*
X206793058Y-143630970D01*
X205381674Y-143630970D01*
X204319599Y-142568895D01*
X203823500Y-143064994D01*
X202825500Y-143064994D01*
X202825500Y-141863203D01*
X205025291Y-141863203D01*
X206087366Y-142925278D01*
X207149441Y-141863203D01*
X208560825Y-141863203D01*
X209622900Y-142925278D01*
X210684975Y-141863203D01*
X212096359Y-141863203D01*
X213158434Y-142925278D01*
X214220509Y-141863203D01*
X213158434Y-140801128D01*
X212096359Y-141863203D01*
X210684975Y-141863203D01*
X209622900Y-140801128D01*
X208560825Y-141863203D01*
X207149441Y-141863203D01*
X206087366Y-140801128D01*
X205025291Y-141863203D01*
X202825500Y-141863203D01*
X202825500Y-139529460D01*
X203823500Y-139529460D01*
X203823500Y-140661412D01*
X204319599Y-141157511D01*
X205381674Y-140095436D01*
X206793058Y-140095436D01*
X207855133Y-141157511D01*
X208917208Y-140095436D01*
X210328592Y-140095436D01*
X211390667Y-141157511D01*
X212452742Y-140095436D01*
X213864126Y-140095436D01*
X214926201Y-141157511D01*
X215776500Y-140307212D01*
X215776500Y-139883660D01*
X214926201Y-139033361D01*
X213864126Y-140095436D01*
X212452742Y-140095436D01*
X211390667Y-139033361D01*
X210328592Y-140095436D01*
X208917208Y-140095436D01*
X207855133Y-139033361D01*
X206793058Y-140095436D01*
X205381674Y-140095436D01*
X204319599Y-139033361D01*
X203823500Y-139529460D01*
X202825500Y-139529460D01*
X202825500Y-138327669D01*
X205025291Y-138327669D01*
X206087366Y-139389744D01*
X207149441Y-138327669D01*
X208560825Y-138327669D01*
X209622900Y-139389744D01*
X210684975Y-138327669D01*
X212096359Y-138327669D01*
X213158434Y-139389744D01*
X214220509Y-138327669D01*
X213158434Y-137265594D01*
X212096359Y-138327669D01*
X210684975Y-138327669D01*
X209622900Y-137265594D01*
X208560825Y-138327669D01*
X207149441Y-138327669D01*
X206087366Y-137265594D01*
X205025291Y-138327669D01*
X202825500Y-138327669D01*
X202825500Y-135993926D01*
X203823500Y-135993926D01*
X203823500Y-137125878D01*
X204319599Y-137621977D01*
X205381674Y-136559902D01*
X206793058Y-136559902D01*
X207855133Y-137621977D01*
X208917208Y-136559902D01*
X210328592Y-136559902D01*
X211390667Y-137621977D01*
X212452742Y-136559902D01*
X213864126Y-136559902D01*
X214926201Y-137621977D01*
X215776500Y-136771678D01*
X215776500Y-136348126D01*
X214926201Y-135497827D01*
X213864126Y-136559902D01*
X212452742Y-136559902D01*
X211390667Y-135497827D01*
X210328592Y-136559902D01*
X208917208Y-136559902D01*
X207855133Y-135497827D01*
X206793058Y-136559902D01*
X205381674Y-136559902D01*
X204319599Y-135497827D01*
X203823500Y-135993926D01*
X202825500Y-135993926D01*
X202825500Y-134792135D01*
X205025291Y-134792135D01*
X206087366Y-135854210D01*
X207149440Y-134792135D01*
X208560825Y-134792135D01*
X209622900Y-135854210D01*
X210684974Y-134792135D01*
X212096359Y-134792135D01*
X213158434Y-135854210D01*
X214220508Y-134792135D01*
X213158434Y-133730060D01*
X212096359Y-134792135D01*
X210684974Y-134792135D01*
X209622900Y-133730060D01*
X208560825Y-134792135D01*
X207149440Y-134792135D01*
X206087366Y-133730060D01*
X205025291Y-134792135D01*
X202825500Y-134792135D01*
X202825500Y-132458392D01*
X203823500Y-132458392D01*
X203823500Y-133590344D01*
X204319599Y-134086443D01*
X205381673Y-133024368D01*
X206793058Y-133024368D01*
X207855133Y-134086443D01*
X208917207Y-133024368D01*
X210328592Y-133024368D01*
X211390667Y-134086443D01*
X212452741Y-133024368D01*
X213864126Y-133024368D01*
X214926201Y-134086443D01*
X215776500Y-133236144D01*
X215776500Y-132812592D01*
X214926201Y-131962293D01*
X213864126Y-133024368D01*
X212452741Y-133024368D01*
X211390667Y-131962293D01*
X210328592Y-133024368D01*
X208917207Y-133024368D01*
X207855133Y-131962293D01*
X206793058Y-133024368D01*
X205381673Y-133024368D01*
X204319598Y-131962293D01*
X203823500Y-132458392D01*
X202825500Y-132458392D01*
X202825500Y-131256601D01*
X205025291Y-131256601D01*
X206087366Y-132318676D01*
X207149440Y-131256601D01*
X208560825Y-131256601D01*
X209622900Y-132318676D01*
X210684974Y-131256601D01*
X212096359Y-131256601D01*
X213158434Y-132318676D01*
X214220508Y-131256601D01*
X213158434Y-130194527D01*
X212096359Y-131256601D01*
X210684974Y-131256601D01*
X209622900Y-130194527D01*
X208560825Y-131256601D01*
X207149440Y-131256601D01*
X206087366Y-130194527D01*
X205025291Y-131256601D01*
X202825500Y-131256601D01*
X202825500Y-128922859D01*
X203823500Y-128922859D01*
X203823500Y-130054810D01*
X204319599Y-130550909D01*
X205381673Y-129488834D01*
X206793058Y-129488834D01*
X207855132Y-130550909D01*
X208736331Y-129669710D01*
X210509467Y-129669710D01*
X211390666Y-130550909D01*
X212452741Y-129488834D01*
X213864126Y-129488834D01*
X214926200Y-130550909D01*
X215776500Y-129700610D01*
X215776500Y-129277059D01*
X214926201Y-128426760D01*
X213864126Y-129488834D01*
X212452741Y-129488834D01*
X211570783Y-128606876D01*
X211517758Y-128734889D01*
X211515293Y-128740451D01*
X211499554Y-128773730D01*
X211496817Y-128779166D01*
X211473716Y-128822387D01*
X211470716Y-128827683D01*
X211451781Y-128859275D01*
X211448524Y-128864419D01*
X211321872Y-129053967D01*
X211318367Y-129058943D01*
X211296434Y-129088516D01*
X211292691Y-129093313D01*
X211261602Y-129131196D01*
X211257627Y-129135804D01*
X211232896Y-129163091D01*
X211228698Y-129167500D01*
X211067500Y-129328698D01*
X211063091Y-129332896D01*
X211035804Y-129357627D01*
X211031196Y-129361602D01*
X210993313Y-129392691D01*
X210988516Y-129396434D01*
X210958943Y-129418367D01*
X210953967Y-129421872D01*
X210764419Y-129548524D01*
X210759275Y-129551781D01*
X210727683Y-129570716D01*
X210722387Y-129573716D01*
X210679166Y-129596817D01*
X210673730Y-129599554D01*
X210640451Y-129615293D01*
X210634889Y-129617758D01*
X210509467Y-129669710D01*
X208736331Y-129669710D01*
X208849188Y-129556853D01*
X208840725Y-129551781D01*
X208835581Y-129548524D01*
X208646033Y-129421872D01*
X208641057Y-129418367D01*
X208611484Y-129396434D01*
X208606687Y-129392691D01*
X208568804Y-129361602D01*
X208564196Y-129357627D01*
X208536909Y-129332896D01*
X208532500Y-129328698D01*
X208371302Y-129167500D01*
X208367104Y-129163091D01*
X208342373Y-129135804D01*
X208338398Y-129131196D01*
X208307309Y-129093313D01*
X208303566Y-129088516D01*
X208281633Y-129058943D01*
X208278128Y-129053967D01*
X208151476Y-128864419D01*
X208148219Y-128859275D01*
X208129284Y-128827683D01*
X208126284Y-128822387D01*
X208103183Y-128779166D01*
X208100446Y-128773730D01*
X208084707Y-128740451D01*
X208082242Y-128734889D01*
X208024950Y-128596577D01*
X207855133Y-128426760D01*
X206793058Y-129488834D01*
X205381673Y-129488834D01*
X204319599Y-128426760D01*
X203823500Y-128922859D01*
X202825500Y-128922859D01*
X202825500Y-127721067D01*
X205025291Y-127721067D01*
X206087366Y-128783142D01*
X207059991Y-127810516D01*
X208891500Y-127810516D01*
X208891500Y-127989483D01*
X208926411Y-128164992D01*
X208926413Y-128165000D01*
X208994896Y-128330332D01*
X208994901Y-128330342D01*
X209094321Y-128479134D01*
X209094324Y-128479138D01*
X209220861Y-128605675D01*
X209220865Y-128605678D01*
X209369657Y-128705098D01*
X209369661Y-128705100D01*
X209369664Y-128705102D01*
X209535000Y-128773587D01*
X209710516Y-128808499D01*
X209710520Y-128808500D01*
X209710521Y-128808500D01*
X209889480Y-128808500D01*
X209889481Y-128808499D01*
X210065000Y-128773587D01*
X210230336Y-128705102D01*
X210379135Y-128605678D01*
X210505678Y-128479135D01*
X210605102Y-128330336D01*
X210673587Y-128165000D01*
X210708500Y-127989479D01*
X210708500Y-127810521D01*
X210690707Y-127721067D01*
X212096359Y-127721067D01*
X213158434Y-128783142D01*
X214220508Y-127721067D01*
X213158434Y-126658993D01*
X212096359Y-127721067D01*
X210690707Y-127721067D01*
X210673587Y-127635000D01*
X210605102Y-127469664D01*
X210605100Y-127469661D01*
X210605098Y-127469657D01*
X210505678Y-127320865D01*
X210505675Y-127320861D01*
X210379138Y-127194324D01*
X210379134Y-127194321D01*
X210230342Y-127094901D01*
X210230332Y-127094896D01*
X210065000Y-127026413D01*
X210064992Y-127026411D01*
X209889483Y-126991500D01*
X209889479Y-126991500D01*
X209710521Y-126991500D01*
X209710516Y-126991500D01*
X209535007Y-127026411D01*
X209534999Y-127026413D01*
X209369667Y-127094896D01*
X209369657Y-127094901D01*
X209220865Y-127194321D01*
X209220861Y-127194324D01*
X209094324Y-127320861D01*
X209094321Y-127320865D01*
X208994901Y-127469657D01*
X208994896Y-127469667D01*
X208926413Y-127634999D01*
X208926411Y-127635007D01*
X208891500Y-127810516D01*
X207059991Y-127810516D01*
X207149440Y-127721067D01*
X206087366Y-126658993D01*
X205025291Y-127721067D01*
X202825500Y-127721067D01*
X202825500Y-126549500D01*
X202845185Y-126482461D01*
X202897989Y-126436706D01*
X202949500Y-126425500D01*
X203895025Y-126425500D01*
X203895027Y-126425500D01*
X204081844Y-126390577D01*
X204259063Y-126321922D01*
X204420649Y-126221872D01*
X204561100Y-126093834D01*
X204667227Y-125953300D01*
X206793057Y-125953300D01*
X207855133Y-127015376D01*
X208917208Y-125953301D01*
X208917207Y-125953300D01*
X210328591Y-125953300D01*
X210502832Y-126127541D01*
X210634889Y-126182242D01*
X210640451Y-126184707D01*
X210673730Y-126200446D01*
X210679166Y-126203183D01*
X210722387Y-126226284D01*
X210727683Y-126229284D01*
X210759275Y-126248219D01*
X210764419Y-126251476D01*
X210953967Y-126378128D01*
X210958943Y-126381633D01*
X210988516Y-126403566D01*
X210993313Y-126407309D01*
X211031196Y-126438398D01*
X211035804Y-126442373D01*
X211063091Y-126467104D01*
X211067500Y-126471302D01*
X211228698Y-126632500D01*
X211232896Y-126636909D01*
X211257627Y-126664196D01*
X211261602Y-126668804D01*
X211292691Y-126706687D01*
X211296434Y-126711484D01*
X211318367Y-126741057D01*
X211321872Y-126746033D01*
X211448524Y-126935581D01*
X211451781Y-126940725D01*
X211456853Y-126949188D01*
X212452741Y-125953300D01*
X211390666Y-124891225D01*
X210328591Y-125953300D01*
X208917207Y-125953300D01*
X207890170Y-124926263D01*
X207887195Y-124926427D01*
X207840172Y-124927903D01*
X207834331Y-124927949D01*
X207818655Y-124927702D01*
X206793057Y-125953300D01*
X204667227Y-125953300D01*
X204675633Y-125942169D01*
X204760347Y-125772040D01*
X204812357Y-125589242D01*
X204829893Y-125400000D01*
X204812357Y-125210758D01*
X204760347Y-125027960D01*
X204759906Y-125027075D01*
X204711797Y-124930458D01*
X204675633Y-124857831D01*
X204561100Y-124706166D01*
X204548126Y-124694339D01*
X204420650Y-124578129D01*
X204420649Y-124578128D01*
X204259063Y-124478078D01*
X204259061Y-124478077D01*
X204259057Y-124478075D01*
X204162517Y-124440676D01*
X204081844Y-124409423D01*
X203895027Y-124374500D01*
X203895025Y-124374500D01*
X203808126Y-124374500D01*
X203791941Y-124373439D01*
X203780208Y-124371894D01*
X203693375Y-124360462D01*
X203662109Y-124352084D01*
X203577834Y-124317177D01*
X203549800Y-124300992D01*
X203514540Y-124273936D01*
X203477428Y-124245458D01*
X203454541Y-124222571D01*
X203422912Y-124181352D01*
X203399005Y-124150197D01*
X203382823Y-124122168D01*
X203358818Y-124064213D01*
X203347915Y-124037890D01*
X203339537Y-124006623D01*
X203335085Y-123972803D01*
X205238020Y-123972803D01*
X205250491Y-123984172D01*
X205254634Y-123988128D01*
X205279143Y-124012637D01*
X205283100Y-124016781D01*
X205314171Y-124050865D01*
X205317930Y-124055184D01*
X205340066Y-124081841D01*
X205343623Y-124086332D01*
X205485953Y-124274806D01*
X205489299Y-124279457D01*
X205508890Y-124308057D01*
X205512019Y-124312859D01*
X205536298Y-124352074D01*
X205539198Y-124357009D01*
X205556057Y-124387277D01*
X205558728Y-124392344D01*
X205663999Y-124603756D01*
X205666433Y-124608942D01*
X205680433Y-124640649D01*
X205682625Y-124645941D01*
X205699287Y-124688950D01*
X205701233Y-124694339D01*
X205712246Y-124727198D01*
X205713941Y-124732670D01*
X205770215Y-124930458D01*
X206087365Y-125247608D01*
X206719403Y-124615570D01*
X206712823Y-124611248D01*
X206708017Y-124607927D01*
X206658975Y-124572296D01*
X208947587Y-124572296D01*
X209622899Y-125247608D01*
X210133177Y-124737330D01*
X212648155Y-124737330D01*
X213158433Y-125247608D01*
X214079523Y-124326518D01*
X214087983Y-124312856D01*
X214091110Y-124308057D01*
X214110701Y-124279457D01*
X214114047Y-124274806D01*
X214198262Y-124163287D01*
X213958475Y-123923500D01*
X213547159Y-123923500D01*
X213444025Y-124086012D01*
X213440778Y-124090871D01*
X213420453Y-124119790D01*
X213416983Y-124124488D01*
X213388150Y-124161660D01*
X213384461Y-124166190D01*
X213361503Y-124193071D01*
X213357604Y-124197425D01*
X213192665Y-124373067D01*
X213188567Y-124377230D01*
X213163174Y-124401838D01*
X213158879Y-124405808D01*
X213123589Y-124436918D01*
X213119118Y-124440676D01*
X213091539Y-124462770D01*
X213086897Y-124466313D01*
X212891983Y-124607927D01*
X212887177Y-124611248D01*
X212857641Y-124630650D01*
X212852685Y-124633741D01*
X212812190Y-124657691D01*
X212807092Y-124660547D01*
X212775840Y-124677095D01*
X212770610Y-124679708D01*
X212648155Y-124737330D01*
X210133177Y-124737330D01*
X210456037Y-124414470D01*
X210417290Y-124382416D01*
X210412878Y-124378586D01*
X210386732Y-124354795D01*
X210382504Y-124350762D01*
X210349238Y-124317496D01*
X210345205Y-124313268D01*
X210321414Y-124287122D01*
X210317584Y-124282710D01*
X210164006Y-124097066D01*
X210160388Y-124092476D01*
X210139168Y-124064213D01*
X210135774Y-124059463D01*
X210109330Y-124020554D01*
X210106159Y-124015643D01*
X210087686Y-123985498D01*
X210084751Y-123980446D01*
X209968675Y-123769306D01*
X209965981Y-123764120D01*
X209950429Y-123732374D01*
X209947983Y-123727069D01*
X209929299Y-123683893D01*
X209927106Y-123678476D01*
X209914611Y-123645408D01*
X209912675Y-123639896D01*
X209838221Y-123410748D01*
X209836546Y-123405149D01*
X209827218Y-123371050D01*
X209825810Y-123365381D01*
X209815548Y-123319471D01*
X209814713Y-123315272D01*
X209789691Y-123290250D01*
X209785591Y-123313741D01*
X209784452Y-123319471D01*
X209774190Y-123365381D01*
X209772782Y-123371050D01*
X209763454Y-123405149D01*
X209761779Y-123410748D01*
X209687325Y-123639896D01*
X209685389Y-123645408D01*
X209672894Y-123678476D01*
X209670701Y-123683893D01*
X209652017Y-123727069D01*
X209649571Y-123732374D01*
X209634019Y-123764120D01*
X209631325Y-123769306D01*
X209515249Y-123980446D01*
X209512314Y-123985498D01*
X209493841Y-124015643D01*
X209490670Y-124020554D01*
X209464226Y-124059463D01*
X209460832Y-124064213D01*
X209439612Y-124092476D01*
X209435994Y-124097066D01*
X209282416Y-124282710D01*
X209278586Y-124287122D01*
X209254795Y-124313268D01*
X209250762Y-124317496D01*
X209217496Y-124350762D01*
X209213268Y-124354795D01*
X209187122Y-124378586D01*
X209182710Y-124382416D01*
X208997066Y-124535994D01*
X208992476Y-124539612D01*
X208964213Y-124560832D01*
X208959463Y-124564226D01*
X208947587Y-124572296D01*
X206658975Y-124572296D01*
X206513103Y-124466313D01*
X206508461Y-124462770D01*
X206480882Y-124440676D01*
X206476411Y-124436918D01*
X206441121Y-124405808D01*
X206436826Y-124401838D01*
X206411433Y-124377230D01*
X206407335Y-124373067D01*
X206242396Y-124197425D01*
X206238497Y-124193071D01*
X206215539Y-124166190D01*
X206211850Y-124161660D01*
X206183017Y-124124488D01*
X206179547Y-124119790D01*
X206159222Y-124090871D01*
X206155975Y-124086012D01*
X206052841Y-123923500D01*
X205287325Y-123923500D01*
X205238020Y-123972803D01*
X203335085Y-123972803D01*
X203326561Y-123908059D01*
X203325500Y-123891874D01*
X203325500Y-123408125D01*
X203326561Y-123391940D01*
X203329754Y-123367685D01*
X203339537Y-123293375D01*
X203347915Y-123262109D01*
X203378856Y-123187410D01*
X203382825Y-123177828D01*
X203399003Y-123149805D01*
X203454541Y-123077427D01*
X203477428Y-123054541D01*
X203549805Y-122999003D01*
X203577828Y-122982825D01*
X203662109Y-122947915D01*
X203693375Y-122939537D01*
X203791941Y-122926561D01*
X203808126Y-122925500D01*
X203808285Y-122925500D01*
X206658196Y-122925500D01*
X206725235Y-122945185D01*
X206770990Y-122997989D01*
X206779999Y-123026262D01*
X206791053Y-123084212D01*
X206810739Y-123187410D01*
X206882111Y-123367675D01*
X206882117Y-123367687D01*
X206928899Y-123441403D01*
X206986010Y-123531395D01*
X207118740Y-123672738D01*
X207170394Y-123710267D01*
X207275604Y-123786707D01*
X207304536Y-123800321D01*
X207451044Y-123869262D01*
X207638847Y-123917482D01*
X207832358Y-123929657D01*
X208024724Y-123905355D01*
X208209128Y-123845439D01*
X208379039Y-123752029D01*
X208528437Y-123628437D01*
X208652029Y-123479039D01*
X208745439Y-123309128D01*
X208805355Y-123124724D01*
X208829657Y-122932358D01*
X208817482Y-122738847D01*
X208769262Y-122551044D01*
X208709223Y-122423455D01*
X208686707Y-122375604D01*
X208584610Y-122235081D01*
X208572738Y-122218740D01*
X208431395Y-122086010D01*
X208267685Y-121982116D01*
X208267675Y-121982111D01*
X208087409Y-121910739D01*
X208087410Y-121910739D01*
X207896942Y-121874406D01*
X207800000Y-121874500D01*
X196800000Y-121874500D01*
X196703056Y-121874406D01*
X196512589Y-121910739D01*
X196332324Y-121982111D01*
X196332312Y-121982117D01*
X196168610Y-122086006D01*
X196168602Y-122086012D01*
X196027263Y-122218738D01*
X195913292Y-122375604D01*
X195830737Y-122551047D01*
X195830736Y-122551050D01*
X195782518Y-122738844D01*
X195770343Y-122932355D01*
X195770343Y-122932362D01*
X195794644Y-123124721D01*
X195794645Y-123124725D01*
X195854560Y-123309124D01*
X195854561Y-123309128D01*
X195947971Y-123479039D01*
X195947971Y-123479040D01*
X195991278Y-123531389D01*
X196071563Y-123628437D01*
X196220961Y-123752029D01*
X196390872Y-123845439D01*
X196575276Y-123905355D01*
X196767642Y-123929657D01*
X196961153Y-123917482D01*
X197148956Y-123869262D01*
X197324397Y-123786706D01*
X197481260Y-123672738D01*
X197613990Y-123531395D01*
X197717884Y-123367685D01*
X197718796Y-123365381D01*
X197789260Y-123187410D01*
X197793965Y-123162750D01*
X197820000Y-123026264D01*
X197851898Y-122964101D01*
X197912340Y-122929051D01*
X197941804Y-122925500D01*
X200791715Y-122925500D01*
X200791874Y-122925500D01*
X200808059Y-122926561D01*
X200906623Y-122939537D01*
X200937890Y-122947915D01*
X200982649Y-122966454D01*
X201022168Y-122982823D01*
X201050197Y-122999005D01*
X201085460Y-123026064D01*
X201122571Y-123054541D01*
X201145458Y-123077428D01*
X201200991Y-123149798D01*
X201217177Y-123177834D01*
X201252084Y-123262109D01*
X201260462Y-123293375D01*
X201273439Y-123391939D01*
X201274500Y-123408125D01*
X201274500Y-123891874D01*
X201273439Y-123908060D01*
X201260462Y-124006624D01*
X201252084Y-124037890D01*
X201217177Y-124122165D01*
X201200991Y-124150201D01*
X201145458Y-124222571D01*
X201122571Y-124245458D01*
X201050201Y-124300991D01*
X201022165Y-124317177D01*
X200937890Y-124352084D01*
X200906624Y-124360462D01*
X200818244Y-124372098D01*
X200808058Y-124373439D01*
X200791874Y-124374500D01*
X200704973Y-124374500D01*
X200518156Y-124409423D01*
X200340942Y-124478075D01*
X200340938Y-124478077D01*
X200179349Y-124578129D01*
X200038901Y-124706164D01*
X199924367Y-124857830D01*
X199839653Y-125027957D01*
X199787642Y-125210760D01*
X199770107Y-125399999D01*
X199770107Y-125400000D01*
X199787642Y-125589239D01*
X199839653Y-125772042D01*
X199873581Y-125840177D01*
X199924367Y-125942169D01*
X200038900Y-126093834D01*
X200179351Y-126221872D01*
X200340937Y-126321922D01*
X200518156Y-126390577D01*
X200704973Y-126425500D01*
X200764815Y-126425500D01*
X200765015Y-126425539D01*
X200789467Y-126425510D01*
X200789468Y-126425511D01*
X200798719Y-126425500D01*
X200798762Y-126425500D01*
X200829145Y-126425500D01*
X200829360Y-126425463D01*
X201650356Y-126424490D01*
X201717416Y-126444095D01*
X201763233Y-126496845D01*
X201774500Y-126548490D01*
X201774500Y-152894587D01*
X201774028Y-152905395D01*
X201760640Y-153058410D01*
X201756887Y-153079696D01*
X201718536Y-153222824D01*
X201711144Y-153243133D01*
X201648524Y-153377421D01*
X201637721Y-153396133D01*
X201552728Y-153517514D01*
X201538835Y-153534071D01*
X201434071Y-153638835D01*
X201417514Y-153652728D01*
X201296133Y-153737721D01*
X201277421Y-153748524D01*
X201143134Y-153811144D01*
X201122824Y-153818536D01*
X200979696Y-153856887D01*
X200958410Y-153860640D01*
X200822206Y-153872557D01*
X200805393Y-153874028D01*
X200794588Y-153874500D01*
X188805412Y-153874500D01*
X188794606Y-153874028D01*
X188775883Y-153872390D01*
X188641589Y-153860640D01*
X188620303Y-153856887D01*
X188477175Y-153818536D01*
X188456870Y-153811146D01*
X188322573Y-153748522D01*
X188303866Y-153737721D01*
X188182485Y-153652728D01*
X188165928Y-153638835D01*
X188061164Y-153534071D01*
X188047271Y-153517514D01*
X187962278Y-153396133D01*
X187951479Y-153377430D01*
X187888851Y-153243123D01*
X187881463Y-153222824D01*
X187843112Y-153079696D01*
X187839359Y-153058409D01*
X187825972Y-152905394D01*
X187825500Y-152894587D01*
X187825500Y-152469805D01*
X190883155Y-152469805D01*
X191289850Y-152876500D01*
X192600610Y-152876500D01*
X193007305Y-152469805D01*
X194418689Y-152469805D01*
X194825384Y-152876500D01*
X196136144Y-152876500D01*
X196542839Y-152469805D01*
X197954223Y-152469805D01*
X198360918Y-152876500D01*
X199671678Y-152876500D01*
X200078373Y-152469805D01*
X199016298Y-151407730D01*
X197954223Y-152469805D01*
X196542839Y-152469805D01*
X195480764Y-151407730D01*
X194418689Y-152469805D01*
X193007305Y-152469805D01*
X191945230Y-151407730D01*
X190883155Y-152469805D01*
X187825500Y-152469805D01*
X187825500Y-150702038D01*
X189115388Y-150702038D01*
X190177463Y-151764112D01*
X191239538Y-150702038D01*
X192650922Y-150702038D01*
X193712997Y-151764113D01*
X194775072Y-150702038D01*
X196186456Y-150702038D01*
X197248531Y-151764113D01*
X198310606Y-150702038D01*
X199721990Y-150702038D01*
X200776500Y-151756548D01*
X200776500Y-149647528D01*
X199721990Y-150702038D01*
X198310606Y-150702038D01*
X197248531Y-149639963D01*
X196186456Y-150702038D01*
X194775072Y-150702038D01*
X193712997Y-149639963D01*
X192650922Y-150702038D01*
X191239538Y-150702038D01*
X190177463Y-149639963D01*
X189115388Y-150702038D01*
X187825500Y-150702038D01*
X187825500Y-148934271D01*
X190883155Y-148934271D01*
X191945230Y-149996346D01*
X193007305Y-148934271D01*
X194418689Y-148934271D01*
X195480764Y-149996346D01*
X196542839Y-148934271D01*
X197954223Y-148934271D01*
X199016298Y-149996346D01*
X200078373Y-148934271D01*
X199016298Y-147872196D01*
X197954223Y-148934271D01*
X196542839Y-148934271D01*
X195480764Y-147872196D01*
X194418689Y-148934271D01*
X193007305Y-148934271D01*
X191945230Y-147872196D01*
X190883155Y-148934271D01*
X187825500Y-148934271D01*
X187825500Y-147166504D01*
X189115388Y-147166504D01*
X190177463Y-148228578D01*
X191239538Y-147166504D01*
X192650922Y-147166504D01*
X193712997Y-148228579D01*
X194775072Y-147166504D01*
X196186456Y-147166504D01*
X197248531Y-148228579D01*
X198310606Y-147166504D01*
X199721990Y-147166504D01*
X200776500Y-148221014D01*
X200776500Y-146111994D01*
X199721990Y-147166504D01*
X198310606Y-147166504D01*
X197248531Y-146104429D01*
X196186456Y-147166504D01*
X194775072Y-147166504D01*
X193712997Y-146104429D01*
X192650922Y-147166504D01*
X191239538Y-147166504D01*
X190177463Y-146104429D01*
X189115388Y-147166504D01*
X187825500Y-147166504D01*
X187825500Y-145398737D01*
X190883155Y-145398737D01*
X191945230Y-146460812D01*
X193007305Y-145398737D01*
X194418689Y-145398737D01*
X195480764Y-146460812D01*
X196542839Y-145398737D01*
X197954223Y-145398737D01*
X199016298Y-146460812D01*
X200078373Y-145398737D01*
X199016298Y-144336662D01*
X197954223Y-145398737D01*
X196542839Y-145398737D01*
X195480764Y-144336662D01*
X194418689Y-145398737D01*
X193007305Y-145398737D01*
X191945230Y-144336662D01*
X190883155Y-145398737D01*
X187825500Y-145398737D01*
X187825500Y-143630970D01*
X189115388Y-143630970D01*
X190177463Y-144693044D01*
X191239538Y-143630970D01*
X192650922Y-143630970D01*
X193712997Y-144693045D01*
X194775072Y-143630970D01*
X196186456Y-143630970D01*
X197248531Y-144693045D01*
X198310606Y-143630970D01*
X199721990Y-143630970D01*
X200776500Y-144685480D01*
X200776500Y-142576460D01*
X199721990Y-143630970D01*
X198310606Y-143630970D01*
X197248531Y-142568895D01*
X196186456Y-143630970D01*
X194775072Y-143630970D01*
X193712997Y-142568895D01*
X192650922Y-143630970D01*
X191239538Y-143630970D01*
X190177463Y-142568895D01*
X189115388Y-143630970D01*
X187825500Y-143630970D01*
X187825500Y-141863203D01*
X190883155Y-141863203D01*
X191945230Y-142925278D01*
X193007305Y-141863203D01*
X194418689Y-141863203D01*
X195480764Y-142925278D01*
X196542839Y-141863203D01*
X197954223Y-141863203D01*
X199016298Y-142925278D01*
X200078373Y-141863203D01*
X199016298Y-140801128D01*
X197954223Y-141863203D01*
X196542839Y-141863203D01*
X195480764Y-140801128D01*
X194418689Y-141863203D01*
X193007305Y-141863203D01*
X191945230Y-140801128D01*
X190883155Y-141863203D01*
X187825500Y-141863203D01*
X187825500Y-140095436D01*
X189115388Y-140095436D01*
X190177463Y-141157510D01*
X191239538Y-140095436D01*
X192650922Y-140095436D01*
X193712997Y-141157511D01*
X194775072Y-140095436D01*
X196186456Y-140095436D01*
X197248531Y-141157511D01*
X198310606Y-140095436D01*
X199721990Y-140095436D01*
X200776500Y-141149946D01*
X200776500Y-139040926D01*
X199721990Y-140095436D01*
X198310606Y-140095436D01*
X197248531Y-139033361D01*
X196186456Y-140095436D01*
X194775072Y-140095436D01*
X193712997Y-139033361D01*
X192650922Y-140095436D01*
X191239538Y-140095436D01*
X190177463Y-139033361D01*
X189115388Y-140095436D01*
X187825500Y-140095436D01*
X187825500Y-138327669D01*
X190883155Y-138327669D01*
X191945230Y-139389744D01*
X193007305Y-138327669D01*
X194418689Y-138327669D01*
X195480764Y-139389744D01*
X196542839Y-138327669D01*
X197954223Y-138327669D01*
X199016298Y-139389744D01*
X200078373Y-138327669D01*
X199016298Y-137265594D01*
X197954223Y-138327669D01*
X196542839Y-138327669D01*
X195480764Y-137265594D01*
X194418689Y-138327669D01*
X193007305Y-138327669D01*
X191945230Y-137265594D01*
X190883155Y-138327669D01*
X187825500Y-138327669D01*
X187825500Y-136559902D01*
X189115388Y-136559902D01*
X190177463Y-137621976D01*
X191239538Y-136559902D01*
X192650922Y-136559902D01*
X193712997Y-137621977D01*
X194775072Y-136559902D01*
X196186456Y-136559902D01*
X197248531Y-137621977D01*
X198310606Y-136559902D01*
X199721990Y-136559902D01*
X200776500Y-137614412D01*
X200776500Y-135505392D01*
X199721990Y-136559902D01*
X198310606Y-136559902D01*
X197248531Y-135497827D01*
X196186456Y-136559902D01*
X194775072Y-136559902D01*
X193712997Y-135497827D01*
X192650922Y-136559902D01*
X191239538Y-136559902D01*
X190177463Y-135497827D01*
X189115388Y-136559902D01*
X187825500Y-136559902D01*
X187825500Y-134792135D01*
X190883155Y-134792135D01*
X191945230Y-135854210D01*
X193007304Y-134792135D01*
X194418689Y-134792135D01*
X195480764Y-135854210D01*
X196542838Y-134792135D01*
X197954223Y-134792135D01*
X199016298Y-135854210D01*
X200078372Y-134792135D01*
X199016298Y-133730060D01*
X197954223Y-134792135D01*
X196542838Y-134792135D01*
X195480764Y-133730060D01*
X194418689Y-134792135D01*
X193007304Y-134792135D01*
X191945230Y-133730060D01*
X190883155Y-134792135D01*
X187825500Y-134792135D01*
X187825500Y-133024368D01*
X189115388Y-133024368D01*
X190177463Y-134086442D01*
X191239537Y-133024368D01*
X192650922Y-133024368D01*
X193712997Y-134086443D01*
X194775071Y-133024368D01*
X196186456Y-133024368D01*
X197248531Y-134086443D01*
X198310605Y-133024368D01*
X199721990Y-133024368D01*
X200776500Y-134078878D01*
X200776500Y-131969858D01*
X199721990Y-133024368D01*
X198310605Y-133024368D01*
X197248531Y-131962293D01*
X196186456Y-133024368D01*
X194775071Y-133024368D01*
X193712997Y-131962293D01*
X192650922Y-133024368D01*
X191239537Y-133024368D01*
X190177463Y-131962293D01*
X189115388Y-133024368D01*
X187825500Y-133024368D01*
X187825500Y-131256601D01*
X190883155Y-131256601D01*
X191945230Y-132318676D01*
X193007304Y-131256601D01*
X194418689Y-131256601D01*
X195480764Y-132318676D01*
X196542838Y-131256601D01*
X197954223Y-131256601D01*
X199016298Y-132318676D01*
X200078372Y-131256601D01*
X199016298Y-130194527D01*
X197954223Y-131256601D01*
X196542838Y-131256601D01*
X195480764Y-130194527D01*
X194418689Y-131256601D01*
X193007304Y-131256601D01*
X191945230Y-130194527D01*
X190883155Y-131256601D01*
X187825500Y-131256601D01*
X187825500Y-129488834D01*
X189115388Y-129488834D01*
X190177463Y-130550909D01*
X191239537Y-129488834D01*
X192650921Y-129488834D01*
X193712997Y-130550909D01*
X194483093Y-129780813D01*
X194316264Y-129747629D01*
X194310327Y-129746296D01*
X194274599Y-129737347D01*
X194268729Y-129735723D01*
X194221833Y-129721496D01*
X194216056Y-129719587D01*
X194181393Y-129707184D01*
X194175715Y-129704994D01*
X193965111Y-129617758D01*
X193959549Y-129615293D01*
X193926270Y-129599554D01*
X193920834Y-129596817D01*
X193877613Y-129573716D01*
X193872317Y-129570716D01*
X193840725Y-129551781D01*
X193835581Y-129548524D01*
X193746249Y-129488834D01*
X196186456Y-129488834D01*
X197248531Y-130550909D01*
X198310605Y-129488834D01*
X199721990Y-129488834D01*
X200776500Y-130543344D01*
X200776500Y-128434325D01*
X199721990Y-129488834D01*
X198310605Y-129488834D01*
X197248531Y-128426760D01*
X196186456Y-129488834D01*
X193746249Y-129488834D01*
X193646033Y-129421872D01*
X193641057Y-129418367D01*
X193611484Y-129396434D01*
X193606687Y-129392691D01*
X193568804Y-129361602D01*
X193564196Y-129357627D01*
X193536909Y-129332896D01*
X193532500Y-129328698D01*
X193371302Y-129167500D01*
X193367104Y-129163091D01*
X193342373Y-129135804D01*
X193338398Y-129131196D01*
X193307309Y-129093313D01*
X193303566Y-129088516D01*
X193281633Y-129058943D01*
X193278128Y-129053967D01*
X193201087Y-128938668D01*
X192650921Y-129488834D01*
X191239537Y-129488834D01*
X190177463Y-128426760D01*
X189115388Y-129488834D01*
X187825500Y-129488834D01*
X187825500Y-127721067D01*
X190883155Y-127721067D01*
X191945229Y-128783142D01*
X192893500Y-127834872D01*
X192893500Y-127810516D01*
X193891500Y-127810516D01*
X193891500Y-127989483D01*
X193926411Y-128164992D01*
X193926413Y-128165000D01*
X193994896Y-128330332D01*
X193994901Y-128330342D01*
X194094321Y-128479134D01*
X194094324Y-128479138D01*
X194220861Y-128605675D01*
X194220865Y-128605678D01*
X194369657Y-128705098D01*
X194369661Y-128705100D01*
X194369664Y-128705102D01*
X194535000Y-128773587D01*
X194710516Y-128808499D01*
X194710520Y-128808500D01*
X194710521Y-128808500D01*
X194889480Y-128808500D01*
X194889481Y-128808499D01*
X195065000Y-128773587D01*
X195230336Y-128705102D01*
X195379135Y-128605678D01*
X195505678Y-128479135D01*
X195605102Y-128330336D01*
X195673587Y-128165000D01*
X195708500Y-127989479D01*
X195708500Y-127810521D01*
X195690707Y-127721067D01*
X197954223Y-127721067D01*
X199016298Y-128783142D01*
X200078372Y-127721067D01*
X199016298Y-126658993D01*
X197954223Y-127721067D01*
X195690707Y-127721067D01*
X195673587Y-127635000D01*
X195605102Y-127469664D01*
X195605100Y-127469661D01*
X195605098Y-127469657D01*
X195505678Y-127320865D01*
X195505675Y-127320861D01*
X195379138Y-127194324D01*
X195379134Y-127194321D01*
X195230342Y-127094901D01*
X195230332Y-127094896D01*
X195065000Y-127026413D01*
X195064992Y-127026411D01*
X194889483Y-126991500D01*
X194889479Y-126991500D01*
X194710521Y-126991500D01*
X194710516Y-126991500D01*
X194535007Y-127026411D01*
X194534999Y-127026413D01*
X194369667Y-127094896D01*
X194369657Y-127094901D01*
X194220865Y-127194321D01*
X194220861Y-127194324D01*
X194094324Y-127320861D01*
X194094321Y-127320865D01*
X193994901Y-127469657D01*
X193994896Y-127469667D01*
X193926413Y-127634999D01*
X193926411Y-127635007D01*
X193891500Y-127810516D01*
X192893500Y-127810516D01*
X192893500Y-127786019D01*
X192893649Y-127779937D01*
X192895455Y-127743162D01*
X192895903Y-127737091D01*
X192900706Y-127688322D01*
X192901451Y-127682279D01*
X192906855Y-127645851D01*
X192907895Y-127639857D01*
X192910914Y-127624677D01*
X191945230Y-126658993D01*
X190883155Y-127721067D01*
X187825500Y-127721067D01*
X187825500Y-126549500D01*
X187845185Y-126482461D01*
X187897989Y-126436706D01*
X187949500Y-126425500D01*
X188895025Y-126425500D01*
X188895027Y-126425500D01*
X189081844Y-126390577D01*
X189259063Y-126321922D01*
X189420649Y-126221872D01*
X189561100Y-126093834D01*
X189667226Y-125953301D01*
X192650922Y-125953301D01*
X193351617Y-126653996D01*
X193367104Y-126636909D01*
X193371302Y-126632500D01*
X193532500Y-126471302D01*
X193536909Y-126467104D01*
X193564196Y-126442373D01*
X193568804Y-126438398D01*
X193606687Y-126407309D01*
X193611484Y-126403566D01*
X193641057Y-126381633D01*
X193646033Y-126378128D01*
X193835581Y-126251476D01*
X193840725Y-126248219D01*
X193872317Y-126229284D01*
X193877613Y-126226284D01*
X193920834Y-126203183D01*
X193926270Y-126200446D01*
X193959549Y-126184707D01*
X193965111Y-126182242D01*
X194175715Y-126095006D01*
X194181393Y-126092816D01*
X194216056Y-126080413D01*
X194221833Y-126078504D01*
X194268729Y-126064277D01*
X194274599Y-126062653D01*
X194310327Y-126053704D01*
X194316264Y-126052371D01*
X194539856Y-126007896D01*
X194545851Y-126006855D01*
X194582279Y-126001451D01*
X194588322Y-126000706D01*
X194637091Y-125995903D01*
X194643162Y-125995455D01*
X194679937Y-125993649D01*
X194686019Y-125993500D01*
X194734873Y-125993500D01*
X194775072Y-125953301D01*
X194775071Y-125953300D01*
X196186455Y-125953300D01*
X197248531Y-127015376D01*
X198310606Y-125953301D01*
X197248530Y-124891225D01*
X196186455Y-125953300D01*
X194775071Y-125953300D01*
X193712997Y-124891226D01*
X192650922Y-125953301D01*
X189667226Y-125953301D01*
X189675633Y-125942169D01*
X189760347Y-125772040D01*
X189812357Y-125589242D01*
X189829893Y-125400000D01*
X189812357Y-125210758D01*
X189760347Y-125027960D01*
X189759906Y-125027075D01*
X189711797Y-124930458D01*
X189675633Y-124857831D01*
X189561100Y-124706166D01*
X189548126Y-124694339D01*
X189420650Y-124578129D01*
X189420649Y-124578128D01*
X189259063Y-124478078D01*
X189259061Y-124478077D01*
X189259057Y-124478075D01*
X189162517Y-124440676D01*
X189081844Y-124409423D01*
X188895027Y-124374500D01*
X188895025Y-124374500D01*
X188808126Y-124374500D01*
X188791941Y-124373439D01*
X188780208Y-124371894D01*
X188693375Y-124360462D01*
X188662109Y-124352084D01*
X188577834Y-124317177D01*
X188549800Y-124300992D01*
X188514540Y-124273936D01*
X188477428Y-124245458D01*
X188454541Y-124222571D01*
X188426121Y-124185534D01*
X190883155Y-124185534D01*
X191945229Y-125247608D01*
X192325451Y-124867386D01*
X192180055Y-124830055D01*
X192174427Y-124828468D01*
X192140623Y-124818067D01*
X192135081Y-124816217D01*
X192090820Y-124800280D01*
X192085371Y-124798172D01*
X192052734Y-124784652D01*
X192047395Y-124782292D01*
X191829390Y-124679708D01*
X191824160Y-124677095D01*
X191792908Y-124660547D01*
X191787810Y-124657691D01*
X191747315Y-124633741D01*
X191742359Y-124630650D01*
X191712823Y-124611248D01*
X191708017Y-124607927D01*
X191513103Y-124466313D01*
X191508461Y-124462770D01*
X191480882Y-124440676D01*
X191476411Y-124436918D01*
X191441121Y-124405808D01*
X191436826Y-124401838D01*
X191411433Y-124377230D01*
X191407335Y-124373067D01*
X191242396Y-124197425D01*
X191238497Y-124193071D01*
X191232059Y-124185533D01*
X194418688Y-124185533D01*
X195480763Y-125247608D01*
X195975320Y-124753051D01*
X195972931Y-124752017D01*
X195967626Y-124749571D01*
X195935880Y-124734019D01*
X195930694Y-124731325D01*
X195719554Y-124615249D01*
X195714502Y-124612314D01*
X195684357Y-124593841D01*
X195679446Y-124590670D01*
X195640537Y-124564226D01*
X195635787Y-124560832D01*
X195607524Y-124539612D01*
X195602934Y-124535994D01*
X195436393Y-124398219D01*
X198166908Y-124398219D01*
X198804970Y-125036281D01*
X198810877Y-125004692D01*
X198812059Y-124999091D01*
X198819991Y-124965366D01*
X198821430Y-124959823D01*
X198886059Y-124732670D01*
X198887754Y-124727198D01*
X198898767Y-124694339D01*
X198900713Y-124688950D01*
X198917375Y-124645941D01*
X198919567Y-124640649D01*
X198933567Y-124608942D01*
X198936001Y-124603756D01*
X199041272Y-124392344D01*
X199043943Y-124387277D01*
X199060802Y-124357009D01*
X199063702Y-124352074D01*
X199087981Y-124312859D01*
X199091110Y-124308057D01*
X199110701Y-124279457D01*
X199114047Y-124274806D01*
X199256377Y-124086332D01*
X199259934Y-124081841D01*
X199282070Y-124055184D01*
X199285829Y-124050865D01*
X199316900Y-124016781D01*
X199320857Y-124012637D01*
X199345366Y-123988128D01*
X199349509Y-123984172D01*
X199416063Y-123923500D01*
X198547159Y-123923500D01*
X198444025Y-124086012D01*
X198440778Y-124090871D01*
X198420453Y-124119790D01*
X198416983Y-124124488D01*
X198388150Y-124161660D01*
X198384461Y-124166190D01*
X198361503Y-124193071D01*
X198357604Y-124197425D01*
X198192665Y-124373067D01*
X198188567Y-124377230D01*
X198166908Y-124398219D01*
X195436393Y-124398219D01*
X195417290Y-124382416D01*
X195412878Y-124378586D01*
X195386732Y-124354795D01*
X195382504Y-124350762D01*
X195349238Y-124317496D01*
X195345205Y-124313268D01*
X195321414Y-124287122D01*
X195317584Y-124282710D01*
X195164006Y-124097066D01*
X195160388Y-124092476D01*
X195139168Y-124064213D01*
X195135774Y-124059463D01*
X195109330Y-124020554D01*
X195106159Y-124015643D01*
X195087686Y-123985498D01*
X195084751Y-123980446D01*
X194968675Y-123769306D01*
X194965981Y-123764120D01*
X194950429Y-123732374D01*
X194947983Y-123727069D01*
X194929299Y-123683893D01*
X194927106Y-123678476D01*
X194926733Y-123677489D01*
X194418688Y-124185533D01*
X191232059Y-124185533D01*
X191215539Y-124166190D01*
X191211850Y-124161660D01*
X191183017Y-124124488D01*
X191179547Y-124119790D01*
X191159222Y-124090871D01*
X191155975Y-124086012D01*
X191088694Y-123979994D01*
X190883155Y-124185534D01*
X188426121Y-124185534D01*
X188422912Y-124181352D01*
X188399005Y-124150197D01*
X188382823Y-124122168D01*
X188358818Y-124064213D01*
X188347915Y-124037890D01*
X188339537Y-124006623D01*
X188326561Y-123908059D01*
X188325500Y-123891874D01*
X188325500Y-123408125D01*
X188326561Y-123391940D01*
X188329754Y-123367685D01*
X188339537Y-123293375D01*
X188347915Y-123262109D01*
X188378856Y-123187410D01*
X188382825Y-123177828D01*
X188399003Y-123149805D01*
X188454541Y-123077427D01*
X188477428Y-123054541D01*
X188549805Y-122999003D01*
X188577828Y-122982825D01*
X188662109Y-122947915D01*
X188693375Y-122939537D01*
X188791941Y-122926561D01*
X188808126Y-122925500D01*
X188808285Y-122925500D01*
X191658196Y-122925500D01*
X191725235Y-122945185D01*
X191770990Y-122997989D01*
X191779999Y-123026262D01*
X191791053Y-123084212D01*
X191810739Y-123187410D01*
X191882111Y-123367675D01*
X191882117Y-123367687D01*
X191928899Y-123441403D01*
X191986010Y-123531395D01*
X192118740Y-123672738D01*
X192170394Y-123710267D01*
X192275604Y-123786707D01*
X192304536Y-123800321D01*
X192451044Y-123869262D01*
X192638847Y-123917482D01*
X192832358Y-123929657D01*
X193024724Y-123905355D01*
X193209128Y-123845439D01*
X193379039Y-123752029D01*
X193528437Y-123628437D01*
X193652029Y-123479039D01*
X193745439Y-123309128D01*
X193805355Y-123124724D01*
X193829657Y-122932358D01*
X193817482Y-122738847D01*
X193769262Y-122551044D01*
X193709223Y-122423455D01*
X193686707Y-122375604D01*
X193584610Y-122235081D01*
X193572738Y-122218740D01*
X193431395Y-122086010D01*
X193267685Y-121982116D01*
X193267675Y-121982111D01*
X193087410Y-121910740D01*
X193087409Y-121910739D01*
X193087407Y-121910739D01*
X193009943Y-121895962D01*
X192926264Y-121879999D01*
X192864101Y-121848100D01*
X192829051Y-121787658D01*
X192825500Y-121758195D01*
X192825500Y-120649999D01*
X194418688Y-120649999D01*
X195301780Y-121533091D01*
X195322770Y-121511433D01*
X195326933Y-121507335D01*
X195502575Y-121342396D01*
X195506929Y-121338497D01*
X195533810Y-121315539D01*
X195538340Y-121311850D01*
X195575512Y-121283017D01*
X195580210Y-121279547D01*
X195609129Y-121259222D01*
X195613988Y-121255975D01*
X195817410Y-121126879D01*
X195822412Y-121123868D01*
X195853099Y-121106363D01*
X195858238Y-121103590D01*
X195900155Y-121082229D01*
X195905426Y-121079697D01*
X195937664Y-121065140D01*
X195943048Y-121062860D01*
X196167077Y-120974162D01*
X196172557Y-120972141D01*
X196205996Y-120960692D01*
X196211568Y-120958929D01*
X196243057Y-120949780D01*
X196542837Y-120650000D01*
X197954223Y-120650000D01*
X198180723Y-120876500D01*
X199851873Y-120876500D01*
X200078373Y-120650000D01*
X201489757Y-120650000D01*
X201716257Y-120876500D01*
X203387407Y-120876500D01*
X203613907Y-120650000D01*
X205025291Y-120650000D01*
X205251791Y-120876500D01*
X206922941Y-120876500D01*
X207149441Y-120650000D01*
X208560825Y-120650000D01*
X209622900Y-121712075D01*
X209692210Y-121642765D01*
X239387863Y-121642765D01*
X239507927Y-121808017D01*
X239511248Y-121812823D01*
X239530650Y-121842359D01*
X239533741Y-121847315D01*
X239557691Y-121887810D01*
X239560547Y-121892908D01*
X239577095Y-121924160D01*
X239579708Y-121929390D01*
X239682292Y-122147395D01*
X239684652Y-122152734D01*
X239698172Y-122185371D01*
X239700280Y-122190820D01*
X239716217Y-122235081D01*
X239718067Y-122240623D01*
X239728468Y-122274427D01*
X239730055Y-122280055D01*
X239789980Y-122513445D01*
X239791300Y-122519141D01*
X239798472Y-122553778D01*
X239799522Y-122559529D01*
X239800000Y-122562548D01*
X239800478Y-122559529D01*
X239801528Y-122553778D01*
X239808700Y-122519141D01*
X239810020Y-122513445D01*
X239869945Y-122280055D01*
X239871532Y-122274427D01*
X239881933Y-122240623D01*
X239883783Y-122235081D01*
X239899720Y-122190820D01*
X239901828Y-122185371D01*
X239915348Y-122152734D01*
X239917708Y-122147395D01*
X240020292Y-121929390D01*
X240022905Y-121924160D01*
X240039453Y-121892908D01*
X240042309Y-121887810D01*
X240066259Y-121847315D01*
X240069350Y-121842359D01*
X240088752Y-121812823D01*
X240092073Y-121808018D01*
X240106881Y-121787635D01*
X239674937Y-121355691D01*
X239387863Y-121642765D01*
X209692210Y-121642765D01*
X210684975Y-120650000D01*
X212096359Y-120650000D01*
X212322859Y-120876500D01*
X213994009Y-120876500D01*
X214220509Y-120650000D01*
X215631893Y-120650000D01*
X215858393Y-120876500D01*
X217529543Y-120876500D01*
X217756043Y-120650000D01*
X219167427Y-120650000D01*
X219393927Y-120876500D01*
X221065076Y-120876500D01*
X221291576Y-120650000D01*
X221291575Y-120649999D01*
X222702960Y-120649999D01*
X222929672Y-120876711D01*
X222961017Y-120878168D01*
X222966873Y-120878579D01*
X223013950Y-120883007D01*
X223019784Y-120883695D01*
X223054947Y-120888692D01*
X223060736Y-120889655D01*
X223297520Y-120934824D01*
X223303233Y-120936054D01*
X223337608Y-120944307D01*
X223343255Y-120945804D01*
X223388432Y-120958929D01*
X223394004Y-120960692D01*
X223427443Y-120972141D01*
X223432923Y-120974162D01*
X223656952Y-121062860D01*
X223662336Y-121065140D01*
X223694574Y-121079697D01*
X223699845Y-121082229D01*
X223741762Y-121103590D01*
X223746901Y-121106363D01*
X223777588Y-121123868D01*
X223782590Y-121126879D01*
X223986012Y-121255975D01*
X223990871Y-121259222D01*
X224019790Y-121279547D01*
X224024488Y-121283017D01*
X224061660Y-121311850D01*
X224066190Y-121315539D01*
X224093071Y-121338497D01*
X224097425Y-121342396D01*
X224116655Y-121360454D01*
X224827110Y-120649999D01*
X226238494Y-120649999D01*
X226487940Y-120899445D01*
X226539265Y-120889655D01*
X226545053Y-120888692D01*
X226580216Y-120883695D01*
X226586050Y-120883007D01*
X226633127Y-120878579D01*
X226638983Y-120878168D01*
X226674488Y-120876518D01*
X226680363Y-120876384D01*
X226800960Y-120876500D01*
X228136144Y-120876500D01*
X228362644Y-120650000D01*
X229774028Y-120650000D01*
X230000528Y-120876500D01*
X231671678Y-120876500D01*
X231898178Y-120650000D01*
X233309562Y-120650000D01*
X233536062Y-120876500D01*
X235207212Y-120876500D01*
X235433712Y-120650000D01*
X236845096Y-120650000D01*
X237071596Y-120876500D01*
X237799040Y-120876500D01*
X237919637Y-120876384D01*
X237925512Y-120876518D01*
X237961017Y-120878168D01*
X237966873Y-120878579D01*
X238013950Y-120883007D01*
X238019784Y-120883695D01*
X238054947Y-120888692D01*
X238060736Y-120889655D01*
X238297520Y-120934824D01*
X238303233Y-120936054D01*
X238337608Y-120944307D01*
X238343255Y-120945804D01*
X238388432Y-120958929D01*
X238394004Y-120960692D01*
X238427443Y-120972141D01*
X238432923Y-120974162D01*
X238584908Y-121034336D01*
X238969245Y-120649999D01*
X238584909Y-120265663D01*
X238432923Y-120325838D01*
X238427443Y-120327859D01*
X238394004Y-120339308D01*
X238388432Y-120341071D01*
X238343255Y-120354196D01*
X238337608Y-120355693D01*
X238303233Y-120363946D01*
X238297520Y-120365176D01*
X238060736Y-120410345D01*
X238054947Y-120411308D01*
X238019784Y-120416305D01*
X238013950Y-120416993D01*
X237966873Y-120421421D01*
X237961017Y-120421832D01*
X237925512Y-120423482D01*
X237919637Y-120423616D01*
X237799040Y-120423500D01*
X237071596Y-120423500D01*
X236845096Y-120650000D01*
X235433712Y-120650000D01*
X235207212Y-120423500D01*
X233536062Y-120423500D01*
X233309562Y-120650000D01*
X231898178Y-120650000D01*
X231671678Y-120423500D01*
X230000528Y-120423500D01*
X229774028Y-120650000D01*
X228362644Y-120650000D01*
X228136144Y-120423500D01*
X226800960Y-120423500D01*
X226680363Y-120423616D01*
X226674488Y-120423482D01*
X226638983Y-120421832D01*
X226633127Y-120421421D01*
X226586050Y-120416993D01*
X226580216Y-120416305D01*
X226545053Y-120411308D01*
X226539264Y-120410345D01*
X226487939Y-120400554D01*
X226238494Y-120649999D01*
X224827110Y-120649999D01*
X224116655Y-119939544D01*
X224097426Y-119957603D01*
X224093071Y-119961503D01*
X224066190Y-119984461D01*
X224061660Y-119988150D01*
X224024488Y-120016983D01*
X224019790Y-120020453D01*
X223990871Y-120040778D01*
X223986012Y-120044025D01*
X223782590Y-120173121D01*
X223777588Y-120176132D01*
X223746901Y-120193637D01*
X223741762Y-120196410D01*
X223699845Y-120217771D01*
X223694574Y-120220303D01*
X223662336Y-120234860D01*
X223656952Y-120237140D01*
X223432923Y-120325838D01*
X223427443Y-120327859D01*
X223394004Y-120339308D01*
X223388432Y-120341071D01*
X223343255Y-120354196D01*
X223337608Y-120355693D01*
X223303233Y-120363946D01*
X223297520Y-120365176D01*
X223060736Y-120410345D01*
X223054947Y-120411308D01*
X223019784Y-120416305D01*
X223013950Y-120416993D01*
X222966873Y-120421421D01*
X222961017Y-120421832D01*
X222929671Y-120423288D01*
X222702960Y-120649999D01*
X221291575Y-120649999D01*
X221065076Y-120423500D01*
X219393927Y-120423500D01*
X219167427Y-120650000D01*
X217756043Y-120650000D01*
X217529543Y-120423500D01*
X215858393Y-120423500D01*
X215631893Y-120650000D01*
X214220509Y-120650000D01*
X213994009Y-120423500D01*
X212322859Y-120423500D01*
X212096359Y-120650000D01*
X210684975Y-120650000D01*
X209692209Y-119657234D01*
X239387864Y-119657234D01*
X239674937Y-119944307D01*
X240106881Y-119512363D01*
X240092073Y-119491982D01*
X240088752Y-119487177D01*
X240069350Y-119457641D01*
X240066259Y-119452685D01*
X240042309Y-119412190D01*
X240039453Y-119407092D01*
X240022905Y-119375840D01*
X240020292Y-119370610D01*
X239917708Y-119152605D01*
X239915348Y-119147266D01*
X239901828Y-119114629D01*
X239899720Y-119109180D01*
X239883783Y-119064919D01*
X239881933Y-119059377D01*
X239871532Y-119025573D01*
X239869945Y-119019945D01*
X239810020Y-118786555D01*
X239808700Y-118780859D01*
X239801528Y-118746222D01*
X239800478Y-118740471D01*
X239800000Y-118737451D01*
X239799522Y-118740471D01*
X239798472Y-118746222D01*
X239791300Y-118780859D01*
X239789980Y-118786555D01*
X239730055Y-119019945D01*
X239728468Y-119025573D01*
X239718067Y-119059377D01*
X239716217Y-119064919D01*
X239700280Y-119109180D01*
X239698172Y-119114629D01*
X239684652Y-119147266D01*
X239682292Y-119152605D01*
X239579708Y-119370610D01*
X239577095Y-119375840D01*
X239560547Y-119407092D01*
X239557691Y-119412190D01*
X239533741Y-119452685D01*
X239530650Y-119457641D01*
X239511248Y-119487177D01*
X239507927Y-119491983D01*
X239387864Y-119657234D01*
X209692209Y-119657234D01*
X209622900Y-119587925D01*
X208560825Y-120650000D01*
X207149441Y-120650000D01*
X206922941Y-120423500D01*
X205251791Y-120423500D01*
X205025291Y-120650000D01*
X203613907Y-120650000D01*
X203387407Y-120423500D01*
X201716257Y-120423500D01*
X201489757Y-120650000D01*
X200078373Y-120650000D01*
X199851873Y-120423500D01*
X198180723Y-120423500D01*
X197954223Y-120650000D01*
X196542837Y-120650000D01*
X196542838Y-120649999D01*
X196243058Y-120350219D01*
X196211568Y-120341071D01*
X196205996Y-120339308D01*
X196172557Y-120327859D01*
X196167077Y-120325838D01*
X195943048Y-120237140D01*
X195937664Y-120234860D01*
X195905426Y-120220303D01*
X195900155Y-120217771D01*
X195858238Y-120196410D01*
X195853099Y-120193637D01*
X195822412Y-120176132D01*
X195817410Y-120173121D01*
X195613988Y-120044025D01*
X195609129Y-120040778D01*
X195580210Y-120020453D01*
X195575512Y-120016983D01*
X195538340Y-119988150D01*
X195533810Y-119984461D01*
X195506929Y-119961503D01*
X195502575Y-119957604D01*
X195326933Y-119792665D01*
X195322770Y-119788567D01*
X195301780Y-119766907D01*
X194418688Y-120649999D01*
X192825500Y-120649999D01*
X192825500Y-119541804D01*
X192845185Y-119474765D01*
X192897989Y-119429010D01*
X192926262Y-119420000D01*
X193087407Y-119389261D01*
X193094894Y-119386297D01*
X193267675Y-119317888D01*
X193267675Y-119317887D01*
X193267685Y-119317884D01*
X193431395Y-119213990D01*
X193572738Y-119081260D01*
X193686706Y-118924397D01*
X193769262Y-118748956D01*
X193817482Y-118561153D01*
X193829657Y-118367642D01*
X193805355Y-118175276D01*
X193745439Y-117990872D01*
X193652029Y-117820961D01*
X193652028Y-117820959D01*
X193603135Y-117761857D01*
X193528437Y-117671563D01*
X193379039Y-117547971D01*
X193209128Y-117454561D01*
X193066212Y-117408125D01*
X193024725Y-117394645D01*
X193024721Y-117394644D01*
X192832358Y-117370343D01*
X192638844Y-117382518D01*
X192451050Y-117430736D01*
X192451047Y-117430737D01*
X192451045Y-117430737D01*
X192451044Y-117430738D01*
X192422383Y-117444225D01*
X192275604Y-117513292D01*
X192118738Y-117627263D01*
X191986012Y-117768602D01*
X191986006Y-117768610D01*
X191882117Y-117932312D01*
X191882111Y-117932324D01*
X191810739Y-118112589D01*
X191780000Y-118273735D01*
X191748102Y-118335899D01*
X191687660Y-118370949D01*
X191658196Y-118374500D01*
X188808126Y-118374500D01*
X188791941Y-118373439D01*
X188780208Y-118371894D01*
X188693375Y-118360462D01*
X188662109Y-118352084D01*
X188577834Y-118317177D01*
X188549800Y-118300992D01*
X188514278Y-118273735D01*
X188477428Y-118245458D01*
X188454541Y-118222571D01*
X188418248Y-118175274D01*
X188399005Y-118150197D01*
X188382823Y-118122168D01*
X188363145Y-118074660D01*
X188347915Y-118037890D01*
X188339537Y-118006623D01*
X188326561Y-117908059D01*
X188325500Y-117891874D01*
X188325500Y-117408125D01*
X188326561Y-117391940D01*
X188326890Y-117389438D01*
X188339537Y-117293375D01*
X188347915Y-117262109D01*
X188363145Y-117225340D01*
X188382825Y-117177828D01*
X188399003Y-117149805D01*
X188426120Y-117114466D01*
X190883155Y-117114466D01*
X191088694Y-117320005D01*
X191155975Y-117213988D01*
X191159222Y-117209129D01*
X191179547Y-117180210D01*
X191183017Y-117175512D01*
X191211850Y-117138340D01*
X191215539Y-117133810D01*
X191232060Y-117114466D01*
X194418689Y-117114466D01*
X194926733Y-117622510D01*
X194927106Y-117621524D01*
X194929299Y-117616107D01*
X194947983Y-117572931D01*
X194950429Y-117567626D01*
X194965981Y-117535880D01*
X194968675Y-117530694D01*
X195084751Y-117319554D01*
X195087686Y-117314502D01*
X195106159Y-117284357D01*
X195109330Y-117279446D01*
X195135774Y-117240537D01*
X195139168Y-117235787D01*
X195160388Y-117207524D01*
X195164006Y-117202934D01*
X195317584Y-117017290D01*
X195321414Y-117012878D01*
X195345205Y-116986732D01*
X195349238Y-116982504D01*
X195382504Y-116949238D01*
X195386732Y-116945205D01*
X195412878Y-116921414D01*
X195417290Y-116917584D01*
X195436394Y-116901780D01*
X198166907Y-116901780D01*
X198188567Y-116922770D01*
X198192665Y-116926933D01*
X198357604Y-117102575D01*
X198361503Y-117106929D01*
X198384461Y-117133810D01*
X198388150Y-117138340D01*
X198416983Y-117175512D01*
X198420453Y-117180210D01*
X198440778Y-117209129D01*
X198444025Y-117213988D01*
X198547159Y-117376500D01*
X199416063Y-117376500D01*
X199349509Y-117315828D01*
X199345366Y-117311872D01*
X199320857Y-117287363D01*
X199316900Y-117283219D01*
X199285829Y-117249135D01*
X199282070Y-117244816D01*
X199259934Y-117218159D01*
X199256377Y-117213668D01*
X199114047Y-117025194D01*
X199110701Y-117020543D01*
X199091110Y-116991943D01*
X199087981Y-116987141D01*
X199063702Y-116947926D01*
X199060802Y-116942991D01*
X199043943Y-116912723D01*
X199041272Y-116907656D01*
X198936001Y-116696244D01*
X198933567Y-116691058D01*
X198919567Y-116659351D01*
X198917375Y-116654059D01*
X198900713Y-116611050D01*
X198898767Y-116605661D01*
X198887754Y-116572802D01*
X198886059Y-116567330D01*
X198821430Y-116340177D01*
X198819991Y-116334634D01*
X198812059Y-116300909D01*
X198810877Y-116295308D01*
X198804970Y-116263717D01*
X198166907Y-116901780D01*
X195436394Y-116901780D01*
X195602934Y-116764006D01*
X195607524Y-116760388D01*
X195635787Y-116739168D01*
X195640537Y-116735774D01*
X195679446Y-116709330D01*
X195684357Y-116706159D01*
X195714502Y-116687686D01*
X195719554Y-116684751D01*
X195930694Y-116568675D01*
X195935880Y-116565981D01*
X195967626Y-116550429D01*
X195972931Y-116547983D01*
X195975321Y-116546948D01*
X195480764Y-116052391D01*
X194418689Y-117114466D01*
X191232060Y-117114466D01*
X191238497Y-117106929D01*
X191242396Y-117102575D01*
X191407335Y-116926933D01*
X191411433Y-116922770D01*
X191436826Y-116898162D01*
X191441121Y-116894192D01*
X191476411Y-116863082D01*
X191480882Y-116859324D01*
X191508461Y-116837230D01*
X191513103Y-116833687D01*
X191708017Y-116692073D01*
X191712823Y-116688752D01*
X191742359Y-116669350D01*
X191747315Y-116666259D01*
X191787810Y-116642309D01*
X191792908Y-116639453D01*
X191824160Y-116622905D01*
X191829390Y-116620292D01*
X192047395Y-116517708D01*
X192052734Y-116515348D01*
X192085371Y-116501828D01*
X192090820Y-116499720D01*
X192135081Y-116483783D01*
X192140623Y-116481933D01*
X192174427Y-116471532D01*
X192180055Y-116469945D01*
X192325452Y-116432613D01*
X191945230Y-116052391D01*
X190883155Y-117114466D01*
X188426120Y-117114466D01*
X188454541Y-117077427D01*
X188477428Y-117054541D01*
X188549805Y-116999003D01*
X188577828Y-116982825D01*
X188662109Y-116947915D01*
X188693375Y-116939537D01*
X188791941Y-116926561D01*
X188808126Y-116925500D01*
X188895025Y-116925500D01*
X188895027Y-116925500D01*
X189081844Y-116890577D01*
X189259063Y-116821922D01*
X189420649Y-116721872D01*
X189561100Y-116593834D01*
X189675633Y-116442169D01*
X189760347Y-116272040D01*
X189812357Y-116089242D01*
X189829893Y-115900000D01*
X189812357Y-115710758D01*
X189760347Y-115527960D01*
X189759906Y-115527075D01*
X189676014Y-115358597D01*
X189675633Y-115357831D01*
X189667226Y-115346698D01*
X192650921Y-115346698D01*
X193712997Y-116408774D01*
X194775072Y-115346699D01*
X196186456Y-115346699D01*
X197248530Y-116408773D01*
X198310605Y-115346698D01*
X197248531Y-114284624D01*
X196186456Y-115346699D01*
X194775072Y-115346699D01*
X194103421Y-114675048D01*
X193965111Y-114617758D01*
X193959549Y-114615293D01*
X193926270Y-114599554D01*
X193920834Y-114596817D01*
X193877613Y-114573716D01*
X193872317Y-114570716D01*
X193840725Y-114551781D01*
X193835581Y-114548524D01*
X193646033Y-114421872D01*
X193641057Y-114418367D01*
X193611484Y-114396434D01*
X193606687Y-114392691D01*
X193605721Y-114391898D01*
X192650921Y-115346698D01*
X189667226Y-115346698D01*
X189561100Y-115206166D01*
X189548126Y-115194339D01*
X189420650Y-115078129D01*
X189420649Y-115078128D01*
X189259063Y-114978078D01*
X189259061Y-114978077D01*
X189259057Y-114978075D01*
X189171678Y-114944225D01*
X189081844Y-114909423D01*
X188895027Y-114874500D01*
X188895025Y-114874500D01*
X188835185Y-114874500D01*
X188834984Y-114874460D01*
X188801238Y-114874500D01*
X188773160Y-114874500D01*
X188772942Y-114874533D01*
X187949647Y-114875508D01*
X187882584Y-114855903D01*
X187836767Y-114803153D01*
X187825500Y-114751508D01*
X187825500Y-113578932D01*
X190883155Y-113578932D01*
X191945229Y-114641006D01*
X193007304Y-113578931D01*
X192238889Y-112810516D01*
X193891500Y-112810516D01*
X193891500Y-112989483D01*
X193926411Y-113164992D01*
X193926413Y-113165000D01*
X193994896Y-113330332D01*
X193994901Y-113330342D01*
X194094321Y-113479134D01*
X194094324Y-113479138D01*
X194220861Y-113605675D01*
X194220865Y-113605678D01*
X194369657Y-113705098D01*
X194369661Y-113705100D01*
X194369664Y-113705102D01*
X194535000Y-113773587D01*
X194710516Y-113808499D01*
X194710520Y-113808500D01*
X194710521Y-113808500D01*
X194889480Y-113808500D01*
X194889481Y-113808499D01*
X195065000Y-113773587D01*
X195230336Y-113705102D01*
X195379135Y-113605678D01*
X195405881Y-113578932D01*
X197954223Y-113578932D01*
X199016298Y-114641007D01*
X200078373Y-113578932D01*
X199016298Y-112516857D01*
X197954223Y-113578932D01*
X195405881Y-113578932D01*
X195505678Y-113479135D01*
X195605102Y-113330336D01*
X195673587Y-113165000D01*
X195708500Y-112989479D01*
X195708500Y-112810521D01*
X195673587Y-112635000D01*
X195605102Y-112469664D01*
X195605100Y-112469661D01*
X195605098Y-112469657D01*
X195505678Y-112320865D01*
X195505675Y-112320861D01*
X195379138Y-112194324D01*
X195379134Y-112194321D01*
X195230342Y-112094901D01*
X195230332Y-112094896D01*
X195065000Y-112026413D01*
X195064992Y-112026411D01*
X194889483Y-111991500D01*
X194889479Y-111991500D01*
X194710521Y-111991500D01*
X194710516Y-111991500D01*
X194535007Y-112026411D01*
X194534999Y-112026413D01*
X194369667Y-112094896D01*
X194369657Y-112094901D01*
X194220865Y-112194321D01*
X194220861Y-112194324D01*
X194094324Y-112320861D01*
X194094321Y-112320865D01*
X193994901Y-112469657D01*
X193994896Y-112469667D01*
X193926413Y-112634999D01*
X193926411Y-112635007D01*
X193891500Y-112810516D01*
X192238889Y-112810516D01*
X191945230Y-112516857D01*
X190883155Y-113578932D01*
X187825500Y-113578932D01*
X187825500Y-111811165D01*
X189115388Y-111811165D01*
X190177463Y-112873239D01*
X191239538Y-111811165D01*
X192650922Y-111811165D01*
X193030289Y-112190532D01*
X193082242Y-112065111D01*
X193084707Y-112059549D01*
X193100446Y-112026270D01*
X193103183Y-112020834D01*
X193126284Y-111977613D01*
X193129284Y-111972317D01*
X193148219Y-111940725D01*
X193151476Y-111935581D01*
X193278128Y-111746033D01*
X193281633Y-111741057D01*
X193303566Y-111711484D01*
X193307309Y-111706687D01*
X193308102Y-111705721D01*
X196291898Y-111705721D01*
X196292691Y-111706687D01*
X196296434Y-111711484D01*
X196318367Y-111741057D01*
X196321872Y-111746033D01*
X196448524Y-111935581D01*
X196451781Y-111940725D01*
X196470716Y-111972317D01*
X196473716Y-111977613D01*
X196496817Y-112020834D01*
X196499554Y-112026270D01*
X196515293Y-112059549D01*
X196517758Y-112065111D01*
X196572457Y-112197166D01*
X197248531Y-112873240D01*
X198310606Y-111811165D01*
X199721990Y-111811165D01*
X200776500Y-112865675D01*
X200776500Y-110756655D01*
X199721990Y-111811165D01*
X198310606Y-111811165D01*
X197248530Y-110749089D01*
X196291898Y-111705721D01*
X193308102Y-111705721D01*
X193338398Y-111668804D01*
X193342373Y-111664196D01*
X193367104Y-111636909D01*
X193371302Y-111632500D01*
X193532500Y-111471302D01*
X193536909Y-111467104D01*
X193564196Y-111442373D01*
X193568804Y-111438398D01*
X193606687Y-111407309D01*
X193611484Y-111403566D01*
X193641057Y-111381633D01*
X193646033Y-111378128D01*
X193835581Y-111251476D01*
X193840725Y-111248219D01*
X193872317Y-111229284D01*
X193877613Y-111226284D01*
X193920834Y-111203183D01*
X193926270Y-111200446D01*
X193959549Y-111184707D01*
X193965111Y-111182242D01*
X194093123Y-111129216D01*
X193712997Y-110749090D01*
X192650922Y-111811165D01*
X191239538Y-111811165D01*
X190177463Y-110749090D01*
X189115388Y-111811165D01*
X187825500Y-111811165D01*
X187825500Y-110043398D01*
X190883155Y-110043398D01*
X191945230Y-111105473D01*
X193007305Y-110043398D01*
X194418689Y-110043398D01*
X195480763Y-111105472D01*
X196542837Y-110043398D01*
X197954223Y-110043398D01*
X199016298Y-111105473D01*
X200078373Y-110043398D01*
X199016298Y-108981323D01*
X197954223Y-110043398D01*
X196542837Y-110043398D01*
X196542838Y-110043397D01*
X195480764Y-108981323D01*
X194418689Y-110043398D01*
X193007305Y-110043398D01*
X191945230Y-108981323D01*
X190883155Y-110043398D01*
X187825500Y-110043398D01*
X187825500Y-108275631D01*
X189115388Y-108275631D01*
X190177463Y-109337705D01*
X191239538Y-108275631D01*
X192650922Y-108275631D01*
X193712997Y-109337706D01*
X194775072Y-108275631D01*
X196186456Y-108275631D01*
X197248531Y-109337706D01*
X198310606Y-108275631D01*
X199721990Y-108275631D01*
X200776500Y-109330141D01*
X200776500Y-107221121D01*
X199721990Y-108275631D01*
X198310606Y-108275631D01*
X197248531Y-107213556D01*
X196186456Y-108275631D01*
X194775072Y-108275631D01*
X193712997Y-107213556D01*
X192650922Y-108275631D01*
X191239538Y-108275631D01*
X190177463Y-107213556D01*
X189115388Y-108275631D01*
X187825500Y-108275631D01*
X187825500Y-106507864D01*
X190883155Y-106507864D01*
X191945230Y-107569939D01*
X193007305Y-106507864D01*
X194418689Y-106507864D01*
X195480764Y-107569939D01*
X196542839Y-106507864D01*
X197954223Y-106507864D01*
X199016298Y-107569939D01*
X200078373Y-106507864D01*
X199016298Y-105445789D01*
X197954223Y-106507864D01*
X196542839Y-106507864D01*
X195480764Y-105445789D01*
X194418689Y-106507864D01*
X193007305Y-106507864D01*
X191945230Y-105445789D01*
X190883155Y-106507864D01*
X187825500Y-106507864D01*
X187825500Y-104740097D01*
X189115388Y-104740097D01*
X190177463Y-105802171D01*
X191239538Y-104740097D01*
X192650922Y-104740097D01*
X193712997Y-105802172D01*
X194775072Y-104740097D01*
X196186456Y-104740097D01*
X197248531Y-105802172D01*
X198310606Y-104740097D01*
X199721990Y-104740097D01*
X200776500Y-105794607D01*
X200776500Y-103685587D01*
X199721990Y-104740097D01*
X198310606Y-104740097D01*
X197248531Y-103678022D01*
X196186456Y-104740097D01*
X194775072Y-104740097D01*
X193712997Y-103678022D01*
X192650922Y-104740097D01*
X191239538Y-104740097D01*
X190177463Y-103678022D01*
X189115388Y-104740097D01*
X187825500Y-104740097D01*
X187825500Y-102972330D01*
X190883155Y-102972330D01*
X191945230Y-104034405D01*
X193007305Y-102972330D01*
X194418689Y-102972330D01*
X195480764Y-104034405D01*
X196542839Y-102972330D01*
X197954223Y-102972330D01*
X199016298Y-104034405D01*
X200078373Y-102972330D01*
X199016298Y-101910255D01*
X197954223Y-102972330D01*
X196542839Y-102972330D01*
X195480764Y-101910255D01*
X194418689Y-102972330D01*
X193007305Y-102972330D01*
X191945230Y-101910255D01*
X190883155Y-102972330D01*
X187825500Y-102972330D01*
X187825500Y-101204563D01*
X189115388Y-101204563D01*
X190177463Y-102266637D01*
X191239538Y-101204563D01*
X192650922Y-101204563D01*
X193712997Y-102266638D01*
X194775072Y-101204563D01*
X196186456Y-101204563D01*
X197248531Y-102266638D01*
X198310606Y-101204563D01*
X199721990Y-101204563D01*
X200776500Y-102259073D01*
X200776500Y-100150053D01*
X199721990Y-101204563D01*
X198310606Y-101204563D01*
X197248531Y-100142488D01*
X196186456Y-101204563D01*
X194775072Y-101204563D01*
X193712997Y-100142488D01*
X192650922Y-101204563D01*
X191239538Y-101204563D01*
X190177463Y-100142488D01*
X189115388Y-101204563D01*
X187825500Y-101204563D01*
X187825500Y-99436796D01*
X190883155Y-99436796D01*
X191945230Y-100498871D01*
X193007305Y-99436796D01*
X194418689Y-99436796D01*
X195480764Y-100498871D01*
X196542839Y-99436796D01*
X197954223Y-99436796D01*
X199016298Y-100498871D01*
X200078373Y-99436796D01*
X199016298Y-98374721D01*
X197954223Y-99436796D01*
X196542839Y-99436796D01*
X195480764Y-98374721D01*
X194418689Y-99436796D01*
X193007305Y-99436796D01*
X191945230Y-98374721D01*
X190883155Y-99436796D01*
X187825500Y-99436796D01*
X187825500Y-97669029D01*
X189115388Y-97669029D01*
X190177463Y-98731103D01*
X191239537Y-97669029D01*
X192650922Y-97669029D01*
X193712997Y-98731104D01*
X194775071Y-97669029D01*
X196186456Y-97669029D01*
X197248531Y-98731104D01*
X198310605Y-97669029D01*
X199721990Y-97669029D01*
X200776500Y-98723539D01*
X200776500Y-96614519D01*
X199721990Y-97669029D01*
X198310605Y-97669029D01*
X197248531Y-96606954D01*
X196186456Y-97669029D01*
X194775071Y-97669029D01*
X193712997Y-96606954D01*
X192650922Y-97669029D01*
X191239537Y-97669029D01*
X190177463Y-96606954D01*
X189115388Y-97669029D01*
X187825500Y-97669029D01*
X187825500Y-95901262D01*
X190883155Y-95901262D01*
X191945230Y-96963337D01*
X193007304Y-95901262D01*
X194418689Y-95901262D01*
X195480764Y-96963337D01*
X196542838Y-95901262D01*
X197954223Y-95901262D01*
X199016298Y-96963337D01*
X200078372Y-95901262D01*
X199016298Y-94839187D01*
X197954223Y-95901262D01*
X196542838Y-95901262D01*
X195480764Y-94839187D01*
X194418689Y-95901262D01*
X193007304Y-95901262D01*
X191945230Y-94839187D01*
X190883155Y-95901262D01*
X187825500Y-95901262D01*
X187825500Y-94133495D01*
X189115388Y-94133495D01*
X190177463Y-95195569D01*
X191239537Y-94133495D01*
X192650922Y-94133495D01*
X193712997Y-95195570D01*
X194775071Y-94133495D01*
X196186456Y-94133495D01*
X197248531Y-95195570D01*
X198310605Y-94133495D01*
X199721990Y-94133495D01*
X200776500Y-95188005D01*
X200776500Y-93078985D01*
X199721990Y-94133495D01*
X198310605Y-94133495D01*
X197248531Y-93071420D01*
X196186456Y-94133495D01*
X194775071Y-94133495D01*
X193712997Y-93071420D01*
X192650922Y-94133495D01*
X191239537Y-94133495D01*
X190177463Y-93071420D01*
X189115388Y-94133495D01*
X187825500Y-94133495D01*
X187825500Y-92365728D01*
X190883155Y-92365728D01*
X191945230Y-93427803D01*
X193007304Y-92365728D01*
X194418689Y-92365728D01*
X195480764Y-93427803D01*
X196542838Y-92365728D01*
X197954223Y-92365728D01*
X199016298Y-93427803D01*
X200078372Y-92365728D01*
X199016298Y-91303654D01*
X197954223Y-92365728D01*
X196542838Y-92365728D01*
X195480764Y-91303654D01*
X194418689Y-92365728D01*
X193007304Y-92365728D01*
X191945230Y-91303654D01*
X190883155Y-92365728D01*
X187825500Y-92365728D01*
X187825500Y-90597961D01*
X189115388Y-90597961D01*
X190177463Y-91660036D01*
X191239537Y-90597961D01*
X192650922Y-90597961D01*
X193712997Y-91660036D01*
X194775071Y-90597961D01*
X196186456Y-90597961D01*
X197248531Y-91660036D01*
X198310605Y-90597961D01*
X199721990Y-90597961D01*
X200776500Y-91652471D01*
X200776500Y-89543452D01*
X199721990Y-90597961D01*
X198310605Y-90597961D01*
X197248531Y-89535887D01*
X196186456Y-90597961D01*
X194775071Y-90597961D01*
X193712997Y-89535887D01*
X192650922Y-90597961D01*
X191239537Y-90597961D01*
X190177463Y-89535887D01*
X189115388Y-90597961D01*
X187825500Y-90597961D01*
X187825500Y-88830195D01*
X190883155Y-88830195D01*
X191945230Y-89892270D01*
X193007305Y-88830195D01*
X194418689Y-88830195D01*
X195480764Y-89892270D01*
X196542839Y-88830195D01*
X197954223Y-88830195D01*
X199016298Y-89892270D01*
X200078373Y-88830195D01*
X199671678Y-88423500D01*
X198360918Y-88423500D01*
X197954223Y-88830195D01*
X196542839Y-88830195D01*
X196136144Y-88423500D01*
X194825384Y-88423500D01*
X194418689Y-88830195D01*
X193007305Y-88830195D01*
X192600610Y-88423500D01*
X191289850Y-88423500D01*
X190883155Y-88830195D01*
X187825500Y-88830195D01*
X187825500Y-88405412D01*
X187825972Y-88394605D01*
X187826424Y-88389438D01*
X187839359Y-88241587D01*
X187843112Y-88220303D01*
X187881463Y-88077175D01*
X187888849Y-88056880D01*
X187951481Y-87922564D01*
X187962274Y-87903871D01*
X188047271Y-87782485D01*
X188061158Y-87765934D01*
X188165934Y-87661158D01*
X188182485Y-87647271D01*
X188216628Y-87623362D01*
X188303871Y-87562274D01*
X188322564Y-87551481D01*
X188456880Y-87488849D01*
X188477169Y-87481464D01*
X188620306Y-87443111D01*
X188641587Y-87439359D01*
X188794605Y-87425971D01*
X188805412Y-87425500D01*
X188808285Y-87425500D01*
X200791715Y-87425500D01*
X200794588Y-87425500D01*
X200805394Y-87425971D01*
G37*
G04 #@! TD.AperFunction*
M02*
