G04 #@! TF.GenerationSoftware,KiCad,Pcbnew,9.0.2*
G04 #@! TF.CreationDate,2026-03-06T21:29:26-05:00*
G04 #@! TF.ProjectId,ThumbsUp,5468756d-6273-4557-902e-6b696361645f,rev?*
G04 #@! TF.SameCoordinates,Original*
G04 #@! TF.FileFunction,Copper,L2,Bot*
G04 #@! TF.FilePolarity,Positive*
%FSLAX46Y46*%
G04 Gerber Fmt 4.6, Leading zero omitted, Abs format (unit mm)*
G04 Created by KiCad (PCBNEW 9.0.2) date 2026-03-06 21:29:26*
%MOMM*%
%LPD*%
G01*
G04 APERTURE LIST*
G04 APERTURE END LIST*
G04 #@! TA.AperFunction,NonConductor*
G36*
X200805394Y-91425971D02*
G01*
X200958410Y-91439359D01*
X200979695Y-91443111D01*
X201122826Y-91481463D01*
X201143123Y-91488851D01*
X201277430Y-91551479D01*
X201296133Y-91562278D01*
X201417514Y-91647271D01*
X201434071Y-91661164D01*
X201538835Y-91765928D01*
X201552728Y-91782485D01*
X201637721Y-91903866D01*
X201648522Y-91922573D01*
X201711146Y-92056870D01*
X201718536Y-92077175D01*
X201756887Y-92220303D01*
X201760640Y-92241589D01*
X201774028Y-92394604D01*
X201774500Y-92405412D01*
X201774500Y-124750500D01*
X201754815Y-124817539D01*
X201702011Y-124863294D01*
X201650500Y-124874500D01*
X200808285Y-124874500D01*
X200800000Y-124874500D01*
X200704973Y-124874500D01*
X200518156Y-124909423D01*
X200340942Y-124978075D01*
X200340938Y-124978077D01*
X200179349Y-125078129D01*
X200038901Y-125206164D01*
X199924367Y-125357830D01*
X199839653Y-125527957D01*
X199787642Y-125710760D01*
X199770107Y-125899999D01*
X199770107Y-125900000D01*
X199787642Y-126089239D01*
X199839653Y-126272042D01*
X199901305Y-126395854D01*
X199924367Y-126442169D01*
X200018337Y-126566605D01*
X200038901Y-126593835D01*
X200057785Y-126611050D01*
X200179351Y-126721872D01*
X200340937Y-126821922D01*
X200518156Y-126890577D01*
X200704973Y-126925500D01*
X200791715Y-126925500D01*
X200791874Y-126925500D01*
X200808059Y-126926561D01*
X200906623Y-126939537D01*
X200937890Y-126947915D01*
X200982649Y-126966454D01*
X201022168Y-126982823D01*
X201050197Y-126999005D01*
X201065345Y-127010629D01*
X201122571Y-127054541D01*
X201145458Y-127077428D01*
X201164755Y-127102575D01*
X201192198Y-127138340D01*
X201200991Y-127149798D01*
X201217177Y-127177834D01*
X201252084Y-127262109D01*
X201260462Y-127293375D01*
X201263909Y-127319554D01*
X201272198Y-127382518D01*
X201273439Y-127391939D01*
X201274500Y-127408125D01*
X201274500Y-127891874D01*
X201273439Y-127908060D01*
X201260462Y-128006624D01*
X201252084Y-128037890D01*
X201217177Y-128122165D01*
X201200991Y-128150201D01*
X201145458Y-128222571D01*
X201122571Y-128245458D01*
X201050201Y-128300991D01*
X201022165Y-128317177D01*
X200937890Y-128352084D01*
X200906624Y-128360462D01*
X200818244Y-128372098D01*
X200808058Y-128373439D01*
X200791874Y-128374500D01*
X197941804Y-128374500D01*
X197874765Y-128354815D01*
X197829010Y-128302011D01*
X197820000Y-128273735D01*
X197801218Y-128175278D01*
X197789261Y-128112593D01*
X197789260Y-128112591D01*
X197789260Y-128112589D01*
X197717888Y-127932324D01*
X197717882Y-127932312D01*
X197702491Y-127908060D01*
X197613990Y-127768605D01*
X197481260Y-127627262D01*
X197406480Y-127572931D01*
X197324395Y-127513292D01*
X197228691Y-127468258D01*
X197148956Y-127430738D01*
X197148951Y-127430736D01*
X197148949Y-127430736D01*
X196961155Y-127382518D01*
X196767644Y-127370343D01*
X196767637Y-127370343D01*
X196575278Y-127394644D01*
X196575274Y-127394645D01*
X196390875Y-127454560D01*
X196390871Y-127454561D01*
X196220960Y-127547971D01*
X196220959Y-127547971D01*
X196071563Y-127671563D01*
X195947971Y-127820959D01*
X195947971Y-127820960D01*
X195854561Y-127990871D01*
X195854560Y-127990875D01*
X195794645Y-128175274D01*
X195794644Y-128175278D01*
X195770343Y-128367637D01*
X195770343Y-128367644D01*
X195782518Y-128561155D01*
X195789954Y-128590116D01*
X195830738Y-128748956D01*
X195848431Y-128786555D01*
X195913292Y-128924395D01*
X195982714Y-129019945D01*
X196027262Y-129081260D01*
X196168605Y-129213990D01*
X196332315Y-129317884D01*
X196332319Y-129317885D01*
X196332324Y-129317888D01*
X196512590Y-129389260D01*
X196512591Y-129389260D01*
X196512593Y-129389261D01*
X196703053Y-129425593D01*
X196800000Y-129425500D01*
X196808285Y-129425500D01*
X207791715Y-129425500D01*
X207800000Y-129425500D01*
X207896943Y-129425593D01*
X207896943Y-129425592D01*
X207896947Y-129425593D01*
X208087407Y-129389261D01*
X208094894Y-129386297D01*
X208267675Y-129317888D01*
X208267675Y-129317887D01*
X208267685Y-129317884D01*
X208431395Y-129213990D01*
X208572738Y-129081260D01*
X208686706Y-128924397D01*
X208769262Y-128748956D01*
X208817482Y-128561153D01*
X208829657Y-128367642D01*
X208805355Y-128175276D01*
X208745439Y-127990872D01*
X208652029Y-127820961D01*
X208652028Y-127820959D01*
X208603135Y-127761857D01*
X208528437Y-127671563D01*
X208379039Y-127547971D01*
X208209128Y-127454561D01*
X208066212Y-127408125D01*
X208024725Y-127394645D01*
X208024721Y-127394644D01*
X207832358Y-127370343D01*
X207638844Y-127382518D01*
X207451050Y-127430736D01*
X207451047Y-127430737D01*
X207451045Y-127430737D01*
X207451044Y-127430738D01*
X207422383Y-127444225D01*
X207275604Y-127513292D01*
X207118738Y-127627263D01*
X206986012Y-127768602D01*
X206986006Y-127768610D01*
X206882117Y-127932312D01*
X206882111Y-127932324D01*
X206810739Y-128112589D01*
X206780000Y-128273735D01*
X206748102Y-128335899D01*
X206687660Y-128370949D01*
X206658196Y-128374500D01*
X203808126Y-128374500D01*
X203791941Y-128373439D01*
X203780208Y-128371894D01*
X203693375Y-128360462D01*
X203662109Y-128352084D01*
X203577834Y-128317177D01*
X203549800Y-128300992D01*
X203514278Y-128273735D01*
X203477428Y-128245458D01*
X203454541Y-128222571D01*
X203418248Y-128175274D01*
X203399005Y-128150197D01*
X203382823Y-128122168D01*
X203363145Y-128074660D01*
X203347915Y-128037890D01*
X203339537Y-128006623D01*
X203326561Y-127908059D01*
X203325500Y-127891874D01*
X203325500Y-127408125D01*
X203326561Y-127391940D01*
X203326890Y-127389438D01*
X203339537Y-127293375D01*
X203347915Y-127262109D01*
X203363145Y-127225340D01*
X203382825Y-127177828D01*
X203399003Y-127149805D01*
X203426121Y-127114465D01*
X209631893Y-127114465D01*
X209996857Y-127479429D01*
X210084751Y-127319554D01*
X210087686Y-127314502D01*
X210106159Y-127284357D01*
X210109330Y-127279446D01*
X210135774Y-127240537D01*
X210139168Y-127235787D01*
X210160388Y-127207524D01*
X210164006Y-127202934D01*
X210317584Y-127017290D01*
X210321414Y-127012878D01*
X210323460Y-127010629D01*
X213271261Y-127010629D01*
X213357604Y-127102575D01*
X213361503Y-127106929D01*
X213384461Y-127133810D01*
X213388150Y-127138340D01*
X213416983Y-127175512D01*
X213420453Y-127180210D01*
X213440778Y-127209129D01*
X213444025Y-127213988D01*
X213547159Y-127376500D01*
X214416063Y-127376500D01*
X214349509Y-127315828D01*
X214345366Y-127311872D01*
X214320857Y-127287363D01*
X214316900Y-127283219D01*
X214285829Y-127249135D01*
X214282070Y-127244816D01*
X214259934Y-127218159D01*
X214256377Y-127213668D01*
X214114047Y-127025194D01*
X214110701Y-127020543D01*
X214091110Y-126991943D01*
X214087981Y-126987141D01*
X214063702Y-126947926D01*
X214060802Y-126942991D01*
X214043943Y-126912723D01*
X214041272Y-126907656D01*
X213936001Y-126696244D01*
X213933567Y-126691058D01*
X213919567Y-126659351D01*
X213917375Y-126654059D01*
X213900713Y-126611050D01*
X213898767Y-126605661D01*
X213887754Y-126572802D01*
X213886059Y-126567330D01*
X213848072Y-126433819D01*
X213271261Y-127010629D01*
X210323460Y-127010629D01*
X210345205Y-126986732D01*
X210349238Y-126982504D01*
X210382504Y-126949238D01*
X210386732Y-126945205D01*
X210412878Y-126921414D01*
X210417290Y-126917584D01*
X210602934Y-126764006D01*
X210607524Y-126760388D01*
X210635787Y-126739168D01*
X210640537Y-126735774D01*
X210679446Y-126709330D01*
X210684357Y-126706159D01*
X210714502Y-126687686D01*
X210719554Y-126684751D01*
X210930694Y-126568675D01*
X210935880Y-126565981D01*
X210967626Y-126550429D01*
X210972931Y-126547983D01*
X211016107Y-126529299D01*
X211021524Y-126527106D01*
X211054592Y-126514611D01*
X211060104Y-126512675D01*
X211131163Y-126489586D01*
X210693967Y-126052390D01*
X209631893Y-127114465D01*
X203426121Y-127114465D01*
X203454541Y-127077427D01*
X203477428Y-127054541D01*
X203549805Y-126999003D01*
X203577828Y-126982825D01*
X203662109Y-126947915D01*
X203693375Y-126939537D01*
X203791941Y-126926561D01*
X203808126Y-126925500D01*
X203895025Y-126925500D01*
X203895027Y-126925500D01*
X204081844Y-126890577D01*
X204259063Y-126821922D01*
X204420649Y-126721872D01*
X204561100Y-126593834D01*
X204675633Y-126442169D01*
X204760347Y-126272040D01*
X204812357Y-126089242D01*
X204829893Y-125900000D01*
X204812357Y-125710758D01*
X204760347Y-125527960D01*
X204759906Y-125527075D01*
X204676014Y-125358597D01*
X204675633Y-125357831D01*
X204561100Y-125206166D01*
X204548126Y-125194339D01*
X204420650Y-125078129D01*
X204420649Y-125078128D01*
X204259063Y-124978078D01*
X204259061Y-124978077D01*
X204259057Y-124978075D01*
X204171678Y-124944225D01*
X204081844Y-124909423D01*
X203895027Y-124874500D01*
X203895025Y-124874500D01*
X203835185Y-124874500D01*
X203834984Y-124874460D01*
X203801238Y-124874500D01*
X203773160Y-124874500D01*
X203772942Y-124874533D01*
X202947734Y-124875510D01*
X202880671Y-124855905D01*
X202834854Y-124803155D01*
X202823587Y-124751503D01*
X202823603Y-124484172D01*
X202823605Y-124455857D01*
X205219432Y-124455857D01*
X205250492Y-124484172D01*
X205254634Y-124488128D01*
X205279143Y-124512637D01*
X205283100Y-124516781D01*
X205314171Y-124550865D01*
X205317930Y-124555184D01*
X205340066Y-124581841D01*
X205343623Y-124586332D01*
X205485953Y-124774806D01*
X205489299Y-124779457D01*
X205508890Y-124808057D01*
X205512019Y-124812859D01*
X205536298Y-124852074D01*
X205539198Y-124857009D01*
X205556057Y-124887277D01*
X205558728Y-124892344D01*
X205663999Y-125103756D01*
X205666433Y-125108942D01*
X205680433Y-125140649D01*
X205682625Y-125145941D01*
X205699287Y-125188950D01*
X205701233Y-125194339D01*
X205712246Y-125227198D01*
X205713941Y-125232670D01*
X205778570Y-125459823D01*
X205780009Y-125465366D01*
X205787941Y-125499091D01*
X205789123Y-125504692D01*
X205797599Y-125550027D01*
X205798522Y-125555685D01*
X205803311Y-125590017D01*
X205803971Y-125595707D01*
X205825763Y-125830878D01*
X205826160Y-125836591D01*
X205827761Y-125871211D01*
X205827893Y-125876939D01*
X205827893Y-125923061D01*
X205827761Y-125928789D01*
X205826160Y-125963409D01*
X205825763Y-125969122D01*
X205825297Y-125974141D01*
X206452740Y-125346698D01*
X207864126Y-125346698D01*
X208926201Y-126408773D01*
X209988275Y-125346698D01*
X211399660Y-125346698D01*
X212461735Y-126408773D01*
X213523809Y-125346698D01*
X212461735Y-124284623D01*
X211399660Y-125346698D01*
X209988275Y-125346698D01*
X208926201Y-124284623D01*
X207864126Y-125346698D01*
X206452740Y-125346698D01*
X206452741Y-125346697D01*
X205390666Y-124284623D01*
X205219432Y-124455857D01*
X202823605Y-124455857D01*
X202823639Y-123876475D01*
X203821638Y-123876475D01*
X203907853Y-123876374D01*
X203909149Y-123876500D01*
X203918089Y-123876500D01*
X203923817Y-123876632D01*
X203958438Y-123878233D01*
X203964152Y-123878630D01*
X204010078Y-123882886D01*
X204015767Y-123883546D01*
X204050091Y-123888334D01*
X204055745Y-123889256D01*
X204287906Y-123932655D01*
X204293514Y-123933838D01*
X204323106Y-123940798D01*
X204684974Y-123578931D01*
X206096359Y-123578931D01*
X207158434Y-124641006D01*
X208220508Y-123578931D01*
X209631893Y-123578931D01*
X210693968Y-124641006D01*
X211756042Y-123578931D01*
X213167427Y-123578931D01*
X214221289Y-124632793D01*
X214256377Y-124586331D01*
X214259934Y-124581841D01*
X214282070Y-124555184D01*
X214285829Y-124550865D01*
X214316900Y-124516781D01*
X214320857Y-124512637D01*
X214345366Y-124488128D01*
X214349509Y-124484172D01*
X214524043Y-124325063D01*
X214528363Y-124321303D01*
X214555020Y-124299167D01*
X214559509Y-124295611D01*
X214596314Y-124267816D01*
X214600966Y-124264469D01*
X214617071Y-124253436D01*
X215291576Y-123578931D01*
X214229502Y-122516857D01*
X213167427Y-123578931D01*
X211756042Y-123578931D01*
X210693968Y-122516857D01*
X209631893Y-123578931D01*
X208220508Y-123578931D01*
X207158434Y-122516857D01*
X206096359Y-123578931D01*
X204684974Y-123578931D01*
X203821706Y-122715663D01*
X203821638Y-123876475D01*
X202823639Y-123876475D01*
X202823761Y-121811164D01*
X204328592Y-121811164D01*
X205390667Y-122873239D01*
X206452741Y-121811164D01*
X207864126Y-121811164D01*
X208926201Y-122873239D01*
X209988275Y-121811164D01*
X211399660Y-121811164D01*
X212461735Y-122873239D01*
X213523809Y-121811164D01*
X214935194Y-121811164D01*
X215776500Y-122652470D01*
X215776500Y-120969859D01*
X214935194Y-121811164D01*
X213523809Y-121811164D01*
X212461735Y-120749090D01*
X211399660Y-121811164D01*
X209988275Y-121811164D01*
X208926201Y-120749090D01*
X207864126Y-121811164D01*
X206452741Y-121811164D01*
X205390667Y-120749090D01*
X204328592Y-121811164D01*
X202823761Y-121811164D01*
X202823815Y-120906557D01*
X203821813Y-120906557D01*
X204684974Y-120043397D01*
X206096359Y-120043397D01*
X207158434Y-121105472D01*
X208220508Y-120043397D01*
X209631893Y-120043397D01*
X210693968Y-121105472D01*
X211756042Y-120043397D01*
X213167427Y-120043397D01*
X214229502Y-121105472D01*
X215291576Y-120043397D01*
X214229502Y-118981323D01*
X213167427Y-120043397D01*
X211756042Y-120043397D01*
X210693968Y-118981323D01*
X209631893Y-120043397D01*
X208220508Y-120043397D01*
X207158434Y-118981323D01*
X206096359Y-120043397D01*
X204684974Y-120043397D01*
X203821915Y-119180338D01*
X203821813Y-120906557D01*
X202823815Y-120906557D01*
X202823971Y-118275631D01*
X204328592Y-118275631D01*
X205390667Y-119337706D01*
X206452742Y-118275631D01*
X207864126Y-118275631D01*
X208926201Y-119337706D01*
X209988276Y-118275631D01*
X211399660Y-118275631D01*
X212461735Y-119337706D01*
X213523810Y-118275631D01*
X214935194Y-118275631D01*
X215776500Y-119116937D01*
X215776500Y-117434325D01*
X214935194Y-118275631D01*
X213523810Y-118275631D01*
X212461735Y-117213556D01*
X211399660Y-118275631D01*
X209988276Y-118275631D01*
X208926201Y-117213556D01*
X207864126Y-118275631D01*
X206452742Y-118275631D01*
X205390667Y-117213556D01*
X204328592Y-118275631D01*
X202823971Y-118275631D01*
X202824024Y-117370815D01*
X203822022Y-117370815D01*
X204684973Y-116507864D01*
X206096359Y-116507864D01*
X207158434Y-117569939D01*
X208220509Y-116507864D01*
X209631893Y-116507864D01*
X210693968Y-117569939D01*
X211756043Y-116507864D01*
X213167427Y-116507864D01*
X214229502Y-117569939D01*
X215291577Y-116507864D01*
X214229502Y-115445789D01*
X213167427Y-116507864D01*
X211756043Y-116507864D01*
X210693968Y-115445789D01*
X209631893Y-116507864D01*
X208220509Y-116507864D01*
X207158434Y-115445789D01*
X206096359Y-116507864D01*
X204684973Y-116507864D01*
X204684974Y-116507863D01*
X203822124Y-115645013D01*
X203822022Y-117370815D01*
X202824024Y-117370815D01*
X202824180Y-114740097D01*
X204328592Y-114740097D01*
X205390667Y-115802172D01*
X206452742Y-114740097D01*
X207864126Y-114740097D01*
X208926201Y-115802172D01*
X209988276Y-114740097D01*
X211399660Y-114740097D01*
X212461735Y-115802172D01*
X213523810Y-114740097D01*
X214935194Y-114740097D01*
X215776500Y-115581403D01*
X215776500Y-113898791D01*
X214935194Y-114740097D01*
X213523810Y-114740097D01*
X212461735Y-113678022D01*
X211399660Y-114740097D01*
X209988276Y-114740097D01*
X208926201Y-113678022D01*
X207864126Y-114740097D01*
X206452742Y-114740097D01*
X205390667Y-113678022D01*
X204328592Y-114740097D01*
X202824180Y-114740097D01*
X202824233Y-113835072D01*
X203822231Y-113835072D01*
X204684973Y-112972330D01*
X206096359Y-112972330D01*
X207158434Y-114034405D01*
X208220509Y-112972330D01*
X209631893Y-112972330D01*
X210693968Y-114034405D01*
X211756043Y-112972330D01*
X213167427Y-112972330D01*
X214229502Y-114034405D01*
X215291577Y-112972330D01*
X214229502Y-111910255D01*
X213167427Y-112972330D01*
X211756043Y-112972330D01*
X210693968Y-111910255D01*
X209631893Y-112972330D01*
X208220509Y-112972330D01*
X207158434Y-111910255D01*
X206096359Y-112972330D01*
X204684973Y-112972330D01*
X204684974Y-112972329D01*
X203822333Y-112109688D01*
X203822231Y-113835072D01*
X202824233Y-113835072D01*
X202824388Y-111204563D01*
X204328592Y-111204563D01*
X205390667Y-112266638D01*
X206452742Y-111204563D01*
X207864126Y-111204563D01*
X208926201Y-112266638D01*
X209988276Y-111204563D01*
X211399660Y-111204563D01*
X212461735Y-112266638D01*
X213523810Y-111204563D01*
X214935194Y-111204563D01*
X215776500Y-112045869D01*
X215776500Y-110363257D01*
X214935194Y-111204563D01*
X213523810Y-111204563D01*
X212461735Y-110142488D01*
X211399660Y-111204563D01*
X209988276Y-111204563D01*
X208926201Y-110142488D01*
X207864126Y-111204563D01*
X206452742Y-111204563D01*
X205390667Y-110142488D01*
X204328592Y-111204563D01*
X202824388Y-111204563D01*
X202824442Y-110299329D01*
X203822440Y-110299329D01*
X204684973Y-109436796D01*
X206096359Y-109436796D01*
X207158434Y-110498871D01*
X208220509Y-109436796D01*
X209631893Y-109436796D01*
X210693968Y-110498871D01*
X211756043Y-109436796D01*
X213167427Y-109436796D01*
X214229502Y-110498871D01*
X215291577Y-109436796D01*
X214229502Y-108374721D01*
X213167427Y-109436796D01*
X211756043Y-109436796D01*
X210693968Y-108374721D01*
X209631893Y-109436796D01*
X208220509Y-109436796D01*
X207158434Y-108374721D01*
X206096359Y-109436796D01*
X204684973Y-109436796D01*
X204684974Y-109436795D01*
X203822542Y-108574363D01*
X203822440Y-110299329D01*
X202824442Y-110299329D01*
X202824597Y-107669029D01*
X204328592Y-107669029D01*
X205390667Y-108731104D01*
X206452742Y-107669029D01*
X207864126Y-107669029D01*
X208926201Y-108731104D01*
X209988276Y-107669029D01*
X211399660Y-107669029D01*
X212461735Y-108731104D01*
X213523810Y-107669029D01*
X214935194Y-107669029D01*
X215776500Y-108510335D01*
X215776500Y-106827723D01*
X214935194Y-107669029D01*
X213523810Y-107669029D01*
X212461735Y-106606954D01*
X211399660Y-107669029D01*
X209988276Y-107669029D01*
X208926201Y-106606954D01*
X207864126Y-107669029D01*
X206452742Y-107669029D01*
X205390667Y-106606954D01*
X204328592Y-107669029D01*
X202824597Y-107669029D01*
X202824651Y-106763586D01*
X203822649Y-106763586D01*
X204684973Y-105901262D01*
X206096359Y-105901262D01*
X207158434Y-106963337D01*
X208220509Y-105901262D01*
X209631893Y-105901262D01*
X210693968Y-106963337D01*
X211756043Y-105901262D01*
X213167427Y-105901262D01*
X214229502Y-106963337D01*
X215291577Y-105901262D01*
X214229502Y-104839187D01*
X213167427Y-105901262D01*
X211756043Y-105901262D01*
X210693968Y-104839187D01*
X209631893Y-105901262D01*
X208220509Y-105901262D01*
X207158434Y-104839187D01*
X206096359Y-105901262D01*
X204684973Y-105901262D01*
X204684974Y-105901261D01*
X203822751Y-105039038D01*
X203822649Y-106763586D01*
X202824651Y-106763586D01*
X202824806Y-104133495D01*
X204328592Y-104133495D01*
X205390667Y-105195570D01*
X206452742Y-104133495D01*
X207864126Y-104133495D01*
X208926201Y-105195570D01*
X209988276Y-104133495D01*
X211399660Y-104133495D01*
X212461735Y-105195570D01*
X213523810Y-104133495D01*
X214935194Y-104133495D01*
X215776500Y-104974801D01*
X215776500Y-103292189D01*
X214935194Y-104133495D01*
X213523810Y-104133495D01*
X212461735Y-103071420D01*
X211399660Y-104133495D01*
X209988276Y-104133495D01*
X208926201Y-103071420D01*
X207864126Y-104133495D01*
X206452742Y-104133495D01*
X205390667Y-103071420D01*
X204328592Y-104133495D01*
X202824806Y-104133495D01*
X202824860Y-103227843D01*
X203822858Y-103227843D01*
X204684973Y-102365728D01*
X206096359Y-102365728D01*
X207158434Y-103427803D01*
X208220509Y-102365728D01*
X209631893Y-102365728D01*
X210693968Y-103427803D01*
X211756043Y-102365728D01*
X213167427Y-102365728D01*
X214229502Y-103427803D01*
X215291577Y-102365728D01*
X214229502Y-101303653D01*
X213167427Y-102365728D01*
X211756043Y-102365728D01*
X210693968Y-101303653D01*
X209631893Y-102365728D01*
X208220509Y-102365728D01*
X207158434Y-101303653D01*
X206096359Y-102365728D01*
X204684973Y-102365728D01*
X204684974Y-102365727D01*
X203822960Y-101503713D01*
X203822858Y-103227843D01*
X202824860Y-103227843D01*
X202825015Y-100597961D01*
X204328592Y-100597961D01*
X205390667Y-101660036D01*
X206452742Y-100597961D01*
X207864126Y-100597961D01*
X208926201Y-101660036D01*
X209988276Y-100597961D01*
X211399660Y-100597961D01*
X212461735Y-101660036D01*
X213523810Y-100597961D01*
X214935194Y-100597961D01*
X215776500Y-101439267D01*
X215776500Y-99756655D01*
X214935194Y-100597961D01*
X213523810Y-100597961D01*
X212461735Y-99535886D01*
X211399660Y-100597961D01*
X209988276Y-100597961D01*
X208926201Y-99535886D01*
X207864126Y-100597961D01*
X206452742Y-100597961D01*
X205390667Y-99535886D01*
X204328592Y-100597961D01*
X202825015Y-100597961D01*
X202825069Y-99692100D01*
X203823067Y-99692100D01*
X204684973Y-98830194D01*
X206096359Y-98830194D01*
X207158434Y-99892269D01*
X208220509Y-98830194D01*
X209631893Y-98830194D01*
X210693968Y-99892269D01*
X211756043Y-98830194D01*
X213167427Y-98830194D01*
X214229502Y-99892269D01*
X215291577Y-98830194D01*
X214229502Y-97768119D01*
X213167427Y-98830194D01*
X211756043Y-98830194D01*
X210693968Y-97768119D01*
X209631893Y-98830194D01*
X208220509Y-98830194D01*
X207158434Y-97768119D01*
X206096359Y-98830194D01*
X204684973Y-98830194D01*
X204684974Y-98830193D01*
X203823169Y-97968388D01*
X203823067Y-99692100D01*
X202825069Y-99692100D01*
X202825224Y-97062427D01*
X204328592Y-97062427D01*
X205390667Y-98124502D01*
X206452742Y-97062427D01*
X207864126Y-97062427D01*
X208926201Y-98124502D01*
X209988276Y-97062427D01*
X211399660Y-97062427D01*
X212461735Y-98124502D01*
X213523810Y-97062427D01*
X214935194Y-97062427D01*
X215776500Y-97903733D01*
X215776500Y-96221121D01*
X214935194Y-97062427D01*
X213523810Y-97062427D01*
X212461735Y-96000352D01*
X211399660Y-97062427D01*
X209988276Y-97062427D01*
X208926201Y-96000352D01*
X207864126Y-97062427D01*
X206452742Y-97062427D01*
X205390667Y-96000352D01*
X204328592Y-97062427D01*
X202825224Y-97062427D01*
X202825278Y-96156357D01*
X203823276Y-96156357D01*
X204684973Y-95294660D01*
X206096359Y-95294660D01*
X207158434Y-96356735D01*
X208220509Y-95294660D01*
X209631893Y-95294660D01*
X210693968Y-96356735D01*
X211756043Y-95294660D01*
X213167427Y-95294660D01*
X214229502Y-96356735D01*
X215291577Y-95294660D01*
X214229502Y-94232585D01*
X213167427Y-95294660D01*
X211756043Y-95294660D01*
X210693968Y-94232585D01*
X209631893Y-95294660D01*
X208220509Y-95294660D01*
X207158434Y-94232585D01*
X206096359Y-95294660D01*
X204684973Y-95294660D01*
X204684974Y-95294659D01*
X203823378Y-94433063D01*
X203823276Y-96156357D01*
X202825278Y-96156357D01*
X202825433Y-93526893D01*
X204328592Y-93526893D01*
X205390667Y-94588968D01*
X206452742Y-93526893D01*
X207864126Y-93526893D01*
X208926201Y-94588968D01*
X209988276Y-93526893D01*
X211399660Y-93526893D01*
X212461735Y-94588968D01*
X213523810Y-93526893D01*
X213523809Y-93526892D01*
X214935193Y-93526892D01*
X215776500Y-94368199D01*
X215776500Y-92685586D01*
X214935193Y-93526892D01*
X213523809Y-93526892D01*
X212461735Y-92464818D01*
X211399660Y-93526893D01*
X209988276Y-93526893D01*
X208926201Y-92464818D01*
X207864126Y-93526893D01*
X206452742Y-93526893D01*
X205390667Y-92464818D01*
X204328592Y-93526893D01*
X202825433Y-93526893D01*
X202825499Y-92405388D01*
X202825970Y-92394620D01*
X202839359Y-92241585D01*
X202843112Y-92220303D01*
X202881463Y-92077175D01*
X202888849Y-92056880D01*
X202951481Y-91922564D01*
X202962274Y-91903871D01*
X203047271Y-91782485D01*
X203061158Y-91765934D01*
X203165934Y-91661158D01*
X203182485Y-91647271D01*
X203216628Y-91623362D01*
X203303871Y-91562274D01*
X203322564Y-91551481D01*
X203456880Y-91488849D01*
X203477169Y-91481464D01*
X203620306Y-91443111D01*
X203641587Y-91439359D01*
X203794605Y-91425971D01*
X203805412Y-91425500D01*
X203808285Y-91425500D01*
X215791715Y-91425500D01*
X215794588Y-91425500D01*
X215805394Y-91425971D01*
X215958410Y-91439359D01*
X215979695Y-91443111D01*
X216122826Y-91481463D01*
X216143123Y-91488851D01*
X216277430Y-91551479D01*
X216296133Y-91562278D01*
X216417514Y-91647271D01*
X216434071Y-91661164D01*
X216538835Y-91765928D01*
X216552728Y-91782485D01*
X216637721Y-91903866D01*
X216648522Y-91922573D01*
X216711146Y-92056870D01*
X216718536Y-92077175D01*
X216756887Y-92220303D01*
X216760640Y-92241589D01*
X216774028Y-92394604D01*
X216774500Y-92405412D01*
X216774500Y-124750500D01*
X216754815Y-124817539D01*
X216702011Y-124863294D01*
X216650500Y-124874500D01*
X215808285Y-124874500D01*
X215800000Y-124874500D01*
X215704973Y-124874500D01*
X215518156Y-124909423D01*
X215340942Y-124978075D01*
X215340938Y-124978077D01*
X215179349Y-125078129D01*
X215038901Y-125206164D01*
X214924367Y-125357830D01*
X214839653Y-125527957D01*
X214787642Y-125710760D01*
X214770107Y-125899999D01*
X214770107Y-125900000D01*
X214787642Y-126089239D01*
X214839653Y-126272042D01*
X214901305Y-126395854D01*
X214924367Y-126442169D01*
X215018337Y-126566605D01*
X215038901Y-126593835D01*
X215057785Y-126611050D01*
X215179351Y-126721872D01*
X215340937Y-126821922D01*
X215518156Y-126890577D01*
X215704973Y-126925500D01*
X215791715Y-126925500D01*
X215791874Y-126925500D01*
X215808059Y-126926561D01*
X215906623Y-126939537D01*
X215937890Y-126947915D01*
X215982649Y-126966454D01*
X216022168Y-126982823D01*
X216050197Y-126999005D01*
X216065345Y-127010629D01*
X216122571Y-127054541D01*
X216145458Y-127077428D01*
X216164755Y-127102575D01*
X216192198Y-127138340D01*
X216200991Y-127149798D01*
X216217177Y-127177834D01*
X216252084Y-127262109D01*
X216260462Y-127293375D01*
X216263909Y-127319554D01*
X216272198Y-127382518D01*
X216273439Y-127391939D01*
X216274500Y-127408125D01*
X216274500Y-127891874D01*
X216273439Y-127908060D01*
X216260462Y-128006624D01*
X216252084Y-128037890D01*
X216217177Y-128122165D01*
X216200991Y-128150201D01*
X216145458Y-128222571D01*
X216122571Y-128245458D01*
X216050201Y-128300991D01*
X216022165Y-128317177D01*
X215937890Y-128352084D01*
X215906624Y-128360462D01*
X215818244Y-128372098D01*
X215808058Y-128373439D01*
X215791874Y-128374500D01*
X212941804Y-128374500D01*
X212874765Y-128354815D01*
X212829010Y-128302011D01*
X212820000Y-128273735D01*
X212801218Y-128175278D01*
X212789261Y-128112593D01*
X212789260Y-128112591D01*
X212789260Y-128112589D01*
X212717888Y-127932324D01*
X212717882Y-127932312D01*
X212702491Y-127908060D01*
X212613990Y-127768605D01*
X212481260Y-127627262D01*
X212406480Y-127572931D01*
X212324395Y-127513292D01*
X212228691Y-127468258D01*
X212148956Y-127430738D01*
X212148951Y-127430736D01*
X212148949Y-127430736D01*
X211961155Y-127382518D01*
X211767644Y-127370343D01*
X211767637Y-127370343D01*
X211575278Y-127394644D01*
X211575274Y-127394645D01*
X211390875Y-127454560D01*
X211390871Y-127454561D01*
X211220960Y-127547971D01*
X211220959Y-127547971D01*
X211071563Y-127671563D01*
X210947971Y-127820959D01*
X210947971Y-127820960D01*
X210854561Y-127990871D01*
X210854560Y-127990875D01*
X210794645Y-128175274D01*
X210794644Y-128175278D01*
X210770343Y-128367637D01*
X210770343Y-128367644D01*
X210782518Y-128561155D01*
X210789954Y-128590116D01*
X210830738Y-128748956D01*
X210848431Y-128786555D01*
X210913292Y-128924395D01*
X210982714Y-129019945D01*
X211027262Y-129081260D01*
X211168605Y-129213990D01*
X211332315Y-129317884D01*
X211332319Y-129317885D01*
X211332324Y-129317888D01*
X211512590Y-129389260D01*
X211512591Y-129389260D01*
X211512593Y-129389261D01*
X211703053Y-129425593D01*
X211800000Y-129425500D01*
X211808285Y-129425500D01*
X222791715Y-129425500D01*
X222800000Y-129425500D01*
X222896943Y-129425593D01*
X222896943Y-129425592D01*
X222896947Y-129425593D01*
X223087407Y-129389261D01*
X223094894Y-129386297D01*
X223267675Y-129317888D01*
X223267675Y-129317887D01*
X223267685Y-129317884D01*
X223431395Y-129213990D01*
X223572738Y-129081260D01*
X223686706Y-128924397D01*
X223769262Y-128748956D01*
X223817482Y-128561153D01*
X223829657Y-128367642D01*
X223805355Y-128175276D01*
X223745439Y-127990872D01*
X223652029Y-127820961D01*
X223652028Y-127820959D01*
X223603135Y-127761857D01*
X223528437Y-127671563D01*
X223379039Y-127547971D01*
X223209128Y-127454561D01*
X223066212Y-127408125D01*
X223024725Y-127394645D01*
X223024721Y-127394644D01*
X222832358Y-127370343D01*
X222638844Y-127382518D01*
X222451050Y-127430736D01*
X222451047Y-127430737D01*
X222451045Y-127430737D01*
X222451044Y-127430738D01*
X222422383Y-127444225D01*
X222275604Y-127513292D01*
X222118738Y-127627263D01*
X221986012Y-127768602D01*
X221986006Y-127768610D01*
X221882117Y-127932312D01*
X221882111Y-127932324D01*
X221810739Y-128112589D01*
X221780000Y-128273735D01*
X221748102Y-128335899D01*
X221687660Y-128370949D01*
X221658196Y-128374500D01*
X218808126Y-128374500D01*
X218791941Y-128373439D01*
X218780208Y-128371894D01*
X218693375Y-128360462D01*
X218662109Y-128352084D01*
X218577834Y-128317177D01*
X218549800Y-128300992D01*
X218514278Y-128273735D01*
X218477428Y-128245458D01*
X218454541Y-128222571D01*
X218418248Y-128175274D01*
X218399005Y-128150197D01*
X218382823Y-128122168D01*
X218363145Y-128074660D01*
X218347915Y-128037890D01*
X218339537Y-128006623D01*
X218326561Y-127908059D01*
X218325500Y-127891874D01*
X218325500Y-127408125D01*
X218326561Y-127391940D01*
X218326890Y-127389438D01*
X218339537Y-127293375D01*
X218347915Y-127262109D01*
X218363145Y-127225340D01*
X218366610Y-127216974D01*
X220341004Y-127216974D01*
X220500530Y-127376500D01*
X221052841Y-127376500D01*
X221155975Y-127213988D01*
X221159222Y-127209129D01*
X221179547Y-127180210D01*
X221183017Y-127175512D01*
X221211850Y-127138340D01*
X221215539Y-127133810D01*
X221238497Y-127106929D01*
X221242396Y-127102575D01*
X221407335Y-126926933D01*
X221411433Y-126922770D01*
X221436826Y-126898162D01*
X221441121Y-126894192D01*
X221476411Y-126863082D01*
X221480882Y-126859324D01*
X221508461Y-126837230D01*
X221513103Y-126833687D01*
X221529610Y-126821694D01*
X224066799Y-126821694D01*
X224182710Y-126917584D01*
X224187122Y-126921414D01*
X224213268Y-126945205D01*
X224217496Y-126949238D01*
X224250762Y-126982504D01*
X224254795Y-126986732D01*
X224278586Y-127012878D01*
X224282416Y-127017290D01*
X224435994Y-127202934D01*
X224439612Y-127207524D01*
X224460832Y-127235787D01*
X224464226Y-127240537D01*
X224490670Y-127279446D01*
X224493841Y-127284357D01*
X224512314Y-127314502D01*
X224515249Y-127319554D01*
X224631325Y-127530694D01*
X224634019Y-127535880D01*
X224649571Y-127567626D01*
X224652017Y-127572931D01*
X224670701Y-127616107D01*
X224672894Y-127621524D01*
X224685389Y-127654592D01*
X224687325Y-127660104D01*
X224761779Y-127889252D01*
X224763454Y-127894851D01*
X224772782Y-127928950D01*
X224774190Y-127934619D01*
X224784452Y-127980529D01*
X224785591Y-127986259D01*
X224791668Y-128021077D01*
X224792537Y-128026856D01*
X224799999Y-128085930D01*
X224807463Y-128026855D01*
X224808332Y-128021077D01*
X224814409Y-127986259D01*
X224815548Y-127980529D01*
X224825810Y-127934619D01*
X224827218Y-127928950D01*
X224836546Y-127894851D01*
X224838221Y-127889252D01*
X224912675Y-127660104D01*
X224914611Y-127654592D01*
X224927106Y-127621524D01*
X224929299Y-127616107D01*
X224947983Y-127572931D01*
X224950429Y-127567626D01*
X224965981Y-127535880D01*
X224968675Y-127530694D01*
X225084751Y-127319554D01*
X225087686Y-127314502D01*
X225106159Y-127284357D01*
X225109330Y-127279446D01*
X225135774Y-127240537D01*
X225139168Y-127235787D01*
X225160388Y-127207524D01*
X225164006Y-127202934D01*
X225317584Y-127017290D01*
X225321414Y-127012878D01*
X225345205Y-126986732D01*
X225349238Y-126982504D01*
X225382504Y-126949238D01*
X225386732Y-126945205D01*
X225412878Y-126921414D01*
X225417290Y-126917584D01*
X225572716Y-126789003D01*
X225415370Y-126631657D01*
X227792369Y-126631657D01*
X227807092Y-126639453D01*
X227812190Y-126642309D01*
X227852685Y-126666259D01*
X227857641Y-126669350D01*
X227887177Y-126688752D01*
X227891983Y-126692073D01*
X228086897Y-126833687D01*
X228091539Y-126837230D01*
X228119118Y-126859324D01*
X228123589Y-126863082D01*
X228158879Y-126894192D01*
X228163174Y-126898162D01*
X228188567Y-126922770D01*
X228192665Y-126926933D01*
X228357604Y-127102575D01*
X228361503Y-127106929D01*
X228384461Y-127133810D01*
X228388150Y-127138340D01*
X228416983Y-127175512D01*
X228420453Y-127180210D01*
X228440778Y-127209129D01*
X228444025Y-127213988D01*
X228547159Y-127376500D01*
X229171677Y-127376500D01*
X229292129Y-127256046D01*
X229285829Y-127249135D01*
X229282070Y-127244816D01*
X229259934Y-127218159D01*
X229256377Y-127213668D01*
X229114047Y-127025194D01*
X229110701Y-127020543D01*
X229091110Y-126991943D01*
X229087981Y-126987141D01*
X229063702Y-126947926D01*
X229060802Y-126942991D01*
X229043943Y-126912723D01*
X229041272Y-126907656D01*
X228936001Y-126696244D01*
X228933567Y-126691058D01*
X228919567Y-126659351D01*
X228917375Y-126654059D01*
X228900713Y-126611050D01*
X228898767Y-126605661D01*
X228887754Y-126572802D01*
X228886059Y-126567331D01*
X228885852Y-126566605D01*
X228371637Y-126052390D01*
X227792369Y-126631657D01*
X225415370Y-126631657D01*
X224836103Y-126052390D01*
X224066799Y-126821694D01*
X221529610Y-126821694D01*
X221708017Y-126692073D01*
X221712823Y-126688752D01*
X221742359Y-126669350D01*
X221747315Y-126666259D01*
X221787810Y-126642309D01*
X221792908Y-126639453D01*
X221824160Y-126622905D01*
X221829389Y-126620292D01*
X221855965Y-126607785D01*
X221300569Y-126052390D01*
X220670016Y-126682943D01*
X220666435Y-126691054D01*
X220663999Y-126696244D01*
X220558728Y-126907656D01*
X220556057Y-126912723D01*
X220539198Y-126942991D01*
X220536298Y-126947926D01*
X220512019Y-126987141D01*
X220508890Y-126991943D01*
X220489299Y-127020543D01*
X220485953Y-127025194D01*
X220343623Y-127213668D01*
X220341004Y-127216974D01*
X218366610Y-127216974D01*
X218382825Y-127177828D01*
X218399003Y-127149805D01*
X218454541Y-127077427D01*
X218477428Y-127054541D01*
X218549805Y-126999003D01*
X218577828Y-126982825D01*
X218662109Y-126947915D01*
X218693375Y-126939537D01*
X218791941Y-126926561D01*
X218808126Y-126925500D01*
X218895025Y-126925500D01*
X218895027Y-126925500D01*
X219081844Y-126890577D01*
X219259063Y-126821922D01*
X219420649Y-126721872D01*
X219561100Y-126593834D01*
X219675633Y-126442169D01*
X219760347Y-126272040D01*
X219812357Y-126089242D01*
X219829893Y-125900000D01*
X219812357Y-125710758D01*
X219760347Y-125527960D01*
X219759906Y-125527075D01*
X219676014Y-125358597D01*
X219675633Y-125357831D01*
X219667226Y-125346698D01*
X222006262Y-125346698D01*
X223051682Y-126392118D01*
X223081254Y-126395854D01*
X224130411Y-125346698D01*
X225541796Y-125346698D01*
X226582853Y-126387755D01*
X226630965Y-126381677D01*
X227665945Y-125346698D01*
X226603870Y-124284623D01*
X225541796Y-125346698D01*
X224130411Y-125346698D01*
X223068336Y-124284623D01*
X222006262Y-125346698D01*
X219667226Y-125346698D01*
X219561100Y-125206166D01*
X219548126Y-125194339D01*
X219420650Y-125078129D01*
X219420649Y-125078128D01*
X219259063Y-124978078D01*
X219259061Y-124978077D01*
X219259057Y-124978075D01*
X219171678Y-124944225D01*
X219081844Y-124909423D01*
X218895027Y-124874500D01*
X218895025Y-124874500D01*
X218835185Y-124874500D01*
X218834984Y-124874460D01*
X218801238Y-124874500D01*
X218773160Y-124874500D01*
X218772942Y-124874533D01*
X217949647Y-124875508D01*
X217882584Y-124855903D01*
X217836767Y-124803153D01*
X217825500Y-124751508D01*
X217825500Y-123578931D01*
X220238495Y-123578931D01*
X221300570Y-124641006D01*
X222362644Y-123578931D01*
X223774029Y-123578931D01*
X224836103Y-124641006D01*
X225898178Y-123578931D01*
X227309562Y-123578931D01*
X228371637Y-124641006D01*
X229433711Y-123578931D01*
X228371637Y-122516857D01*
X227309562Y-123578931D01*
X225898178Y-123578931D01*
X224836103Y-122516857D01*
X223774029Y-123578931D01*
X222362644Y-123578931D01*
X221300570Y-122516857D01*
X220238495Y-123578931D01*
X217825500Y-123578931D01*
X217825500Y-121458393D01*
X218823500Y-121458393D01*
X218823500Y-122163936D01*
X219532803Y-122873239D01*
X220594877Y-121811164D01*
X222006262Y-121811164D01*
X223068336Y-122873239D01*
X224130411Y-121811164D01*
X225541796Y-121811164D01*
X226603870Y-122873239D01*
X227665945Y-121811164D01*
X229077329Y-121811164D01*
X230139404Y-122873239D01*
X230776500Y-122236143D01*
X230776500Y-121386186D01*
X230139404Y-120749090D01*
X229077329Y-121811164D01*
X227665945Y-121811164D01*
X226603870Y-120749090D01*
X225541796Y-121811164D01*
X224130411Y-121811164D01*
X223068336Y-120749090D01*
X222006262Y-121811164D01*
X220594877Y-121811164D01*
X219532803Y-120749090D01*
X218823500Y-121458393D01*
X217825500Y-121458393D01*
X217825500Y-120043397D01*
X220238495Y-120043397D01*
X221300570Y-121105472D01*
X222362644Y-120043397D01*
X223774029Y-120043397D01*
X224836103Y-121105472D01*
X225898178Y-120043397D01*
X227309562Y-120043397D01*
X228371637Y-121105472D01*
X229433711Y-120043397D01*
X228371637Y-118981323D01*
X227309562Y-120043397D01*
X225898178Y-120043397D01*
X224836103Y-118981323D01*
X223774029Y-120043397D01*
X222362644Y-120043397D01*
X221300570Y-118981323D01*
X220238495Y-120043397D01*
X217825500Y-120043397D01*
X217825500Y-117922859D01*
X218823500Y-117922859D01*
X218823500Y-118628403D01*
X219532803Y-119337706D01*
X220594878Y-118275631D01*
X222006262Y-118275631D01*
X223068336Y-119337705D01*
X224130411Y-118275631D01*
X225541796Y-118275631D01*
X226603870Y-119337705D01*
X227665945Y-118275631D01*
X229077329Y-118275631D01*
X230139404Y-119337705D01*
X230776500Y-118700610D01*
X230776500Y-117850652D01*
X230139404Y-117213556D01*
X229077329Y-118275631D01*
X227665945Y-118275631D01*
X226603870Y-117213556D01*
X225541796Y-118275631D01*
X224130411Y-118275631D01*
X223068336Y-117213556D01*
X222006262Y-118275631D01*
X220594878Y-118275631D01*
X219532803Y-117213556D01*
X218823500Y-117922859D01*
X217825500Y-117922859D01*
X217825500Y-116507864D01*
X220238495Y-116507864D01*
X221300570Y-117569939D01*
X222362645Y-116507864D01*
X223774029Y-116507864D01*
X224836103Y-117569938D01*
X225898178Y-116507864D01*
X227309562Y-116507864D01*
X228371637Y-117569938D01*
X229433712Y-116507864D01*
X228371637Y-115445789D01*
X227309562Y-116507864D01*
X225898178Y-116507864D01*
X224836103Y-115445789D01*
X223774029Y-116507864D01*
X222362645Y-116507864D01*
X221300570Y-115445789D01*
X220238495Y-116507864D01*
X217825500Y-116507864D01*
X217825500Y-114387325D01*
X218823500Y-114387325D01*
X218823500Y-115092869D01*
X219532803Y-115802172D01*
X220594878Y-114740097D01*
X222006262Y-114740097D01*
X223068336Y-115802171D01*
X224130411Y-114740097D01*
X225541796Y-114740097D01*
X226603870Y-115802171D01*
X227665945Y-114740097D01*
X229077329Y-114740097D01*
X230139404Y-115802171D01*
X230776500Y-115165076D01*
X230776500Y-114315118D01*
X230139404Y-113678022D01*
X229077329Y-114740097D01*
X227665945Y-114740097D01*
X226603870Y-113678022D01*
X225541796Y-114740097D01*
X224130411Y-114740097D01*
X223068336Y-113678022D01*
X222006262Y-114740097D01*
X220594878Y-114740097D01*
X219532803Y-113678022D01*
X218823500Y-114387325D01*
X217825500Y-114387325D01*
X217825500Y-112972330D01*
X220238495Y-112972330D01*
X221300570Y-114034405D01*
X222362645Y-112972330D01*
X223774029Y-112972330D01*
X224836103Y-114034404D01*
X225898178Y-112972330D01*
X227309562Y-112972330D01*
X228371637Y-114034404D01*
X229433712Y-112972330D01*
X228371637Y-111910255D01*
X227309562Y-112972330D01*
X225898178Y-112972330D01*
X224836103Y-111910255D01*
X223774029Y-112972330D01*
X222362645Y-112972330D01*
X221300570Y-111910255D01*
X220238495Y-112972330D01*
X217825500Y-112972330D01*
X217825500Y-110851791D01*
X218823500Y-110851791D01*
X218823500Y-111557335D01*
X219532803Y-112266638D01*
X220594878Y-111204563D01*
X222006262Y-111204563D01*
X223068336Y-112266637D01*
X224130411Y-111204563D01*
X225541796Y-111204563D01*
X226603870Y-112266637D01*
X227665945Y-111204563D01*
X229077329Y-111204563D01*
X230139404Y-112266637D01*
X230776500Y-111629542D01*
X230776500Y-110779584D01*
X230139404Y-110142488D01*
X229077329Y-111204563D01*
X227665945Y-111204563D01*
X226603870Y-110142488D01*
X225541796Y-111204563D01*
X224130411Y-111204563D01*
X223068336Y-110142488D01*
X222006262Y-111204563D01*
X220594878Y-111204563D01*
X219532803Y-110142488D01*
X218823500Y-110851791D01*
X217825500Y-110851791D01*
X217825500Y-109436796D01*
X220238495Y-109436796D01*
X221300570Y-110498871D01*
X222362645Y-109436796D01*
X223774029Y-109436796D01*
X224836103Y-110498870D01*
X225898178Y-109436796D01*
X227309562Y-109436796D01*
X228371637Y-110498870D01*
X229433712Y-109436796D01*
X228371637Y-108374721D01*
X227309562Y-109436796D01*
X225898178Y-109436796D01*
X224836103Y-108374721D01*
X223774029Y-109436796D01*
X222362645Y-109436796D01*
X221300570Y-108374721D01*
X220238495Y-109436796D01*
X217825500Y-109436796D01*
X217825500Y-107316257D01*
X218823500Y-107316257D01*
X218823500Y-108021801D01*
X219532803Y-108731104D01*
X220594878Y-107669029D01*
X222006262Y-107669029D01*
X223068336Y-108731103D01*
X224130411Y-107669029D01*
X225541796Y-107669029D01*
X226603870Y-108731103D01*
X227665945Y-107669029D01*
X229077329Y-107669029D01*
X230139404Y-108731103D01*
X230776500Y-108094008D01*
X230776500Y-107244050D01*
X230139404Y-106606954D01*
X229077329Y-107669029D01*
X227665945Y-107669029D01*
X226603870Y-106606954D01*
X225541796Y-107669029D01*
X224130411Y-107669029D01*
X223068336Y-106606954D01*
X222006262Y-107669029D01*
X220594878Y-107669029D01*
X219532803Y-106606954D01*
X218823500Y-107316257D01*
X217825500Y-107316257D01*
X217825500Y-105901262D01*
X220238495Y-105901262D01*
X221300570Y-106963337D01*
X222362645Y-105901262D01*
X223774029Y-105901262D01*
X224836103Y-106963336D01*
X225898178Y-105901262D01*
X227309562Y-105901262D01*
X228371637Y-106963336D01*
X229433712Y-105901262D01*
X228371637Y-104839187D01*
X227309562Y-105901262D01*
X225898178Y-105901262D01*
X224836103Y-104839187D01*
X223774029Y-105901262D01*
X222362645Y-105901262D01*
X221300570Y-104839187D01*
X220238495Y-105901262D01*
X217825500Y-105901262D01*
X217825500Y-103780723D01*
X218823500Y-103780723D01*
X218823500Y-104486267D01*
X219532803Y-105195570D01*
X220594878Y-104133495D01*
X222006262Y-104133495D01*
X223068336Y-105195569D01*
X224130411Y-104133495D01*
X225541796Y-104133495D01*
X226603870Y-105195569D01*
X227665945Y-104133495D01*
X229077329Y-104133495D01*
X230139404Y-105195569D01*
X230776500Y-104558474D01*
X230776500Y-103708516D01*
X230139404Y-103071420D01*
X229077329Y-104133495D01*
X227665945Y-104133495D01*
X226603870Y-103071420D01*
X225541796Y-104133495D01*
X224130411Y-104133495D01*
X223068336Y-103071420D01*
X222006262Y-104133495D01*
X220594878Y-104133495D01*
X219532803Y-103071420D01*
X218823500Y-103780723D01*
X217825500Y-103780723D01*
X217825500Y-102365728D01*
X220238495Y-102365728D01*
X221300570Y-103427803D01*
X222362645Y-102365728D01*
X223774029Y-102365728D01*
X224836103Y-103427802D01*
X225898178Y-102365728D01*
X227309562Y-102365728D01*
X228371637Y-103427802D01*
X229433712Y-102365728D01*
X228371637Y-101303653D01*
X227309562Y-102365728D01*
X225898178Y-102365728D01*
X224836103Y-101303653D01*
X223774029Y-102365728D01*
X222362645Y-102365728D01*
X221300570Y-101303653D01*
X220238495Y-102365728D01*
X217825500Y-102365728D01*
X217825500Y-100245189D01*
X218823500Y-100245189D01*
X218823500Y-100950733D01*
X219532803Y-101660036D01*
X220594878Y-100597961D01*
X222006262Y-100597961D01*
X223068336Y-101660035D01*
X224130411Y-100597961D01*
X225541796Y-100597961D01*
X226603870Y-101660035D01*
X227665945Y-100597961D01*
X229077329Y-100597961D01*
X230139404Y-101660035D01*
X230776500Y-101022940D01*
X230776500Y-100172982D01*
X230139404Y-99535886D01*
X229077329Y-100597961D01*
X227665945Y-100597961D01*
X226603870Y-99535886D01*
X225541796Y-100597961D01*
X224130411Y-100597961D01*
X223068336Y-99535886D01*
X222006262Y-100597961D01*
X220594878Y-100597961D01*
X219532803Y-99535886D01*
X218823500Y-100245189D01*
X217825500Y-100245189D01*
X217825500Y-98830194D01*
X220238495Y-98830194D01*
X221300570Y-99892269D01*
X222362645Y-98830194D01*
X223774029Y-98830194D01*
X224836103Y-99892268D01*
X225898178Y-98830194D01*
X227309562Y-98830194D01*
X228371637Y-99892268D01*
X229433712Y-98830194D01*
X228371637Y-97768119D01*
X227309562Y-98830194D01*
X225898178Y-98830194D01*
X224836103Y-97768119D01*
X223774029Y-98830194D01*
X222362645Y-98830194D01*
X221300570Y-97768119D01*
X220238495Y-98830194D01*
X217825500Y-98830194D01*
X217825500Y-96709655D01*
X218823500Y-96709655D01*
X218823500Y-97415199D01*
X219532803Y-98124502D01*
X220594878Y-97062427D01*
X222006262Y-97062427D01*
X223068336Y-98124501D01*
X224130411Y-97062427D01*
X225541796Y-97062427D01*
X226603870Y-98124501D01*
X227665945Y-97062427D01*
X229077329Y-97062427D01*
X230139404Y-98124501D01*
X230776500Y-97487406D01*
X230776500Y-96637448D01*
X230139404Y-96000352D01*
X229077329Y-97062427D01*
X227665945Y-97062427D01*
X226603870Y-96000352D01*
X225541796Y-97062427D01*
X224130411Y-97062427D01*
X223068336Y-96000352D01*
X222006262Y-97062427D01*
X220594878Y-97062427D01*
X219532803Y-96000352D01*
X218823500Y-96709655D01*
X217825500Y-96709655D01*
X217825500Y-95294660D01*
X220238495Y-95294660D01*
X221300570Y-96356735D01*
X222362645Y-95294660D01*
X223774029Y-95294660D01*
X224836103Y-96356734D01*
X225898178Y-95294660D01*
X227309562Y-95294660D01*
X228371637Y-96356734D01*
X229433712Y-95294660D01*
X228371637Y-94232585D01*
X227309562Y-95294660D01*
X225898178Y-95294660D01*
X224836103Y-94232585D01*
X223774029Y-95294660D01*
X222362645Y-95294660D01*
X221300570Y-94232585D01*
X220238495Y-95294660D01*
X217825500Y-95294660D01*
X217825500Y-93174121D01*
X218823500Y-93174121D01*
X218823500Y-93879665D01*
X219532803Y-94588968D01*
X220594878Y-93526893D01*
X222006262Y-93526893D01*
X223068336Y-94588967D01*
X224130410Y-93526893D01*
X225541796Y-93526893D01*
X226603870Y-94588967D01*
X227665945Y-93526892D01*
X229077329Y-93526892D01*
X230139404Y-94588967D01*
X230776500Y-93951872D01*
X230776500Y-93101914D01*
X230139404Y-92464818D01*
X229077329Y-93526892D01*
X227665945Y-93526892D01*
X226603870Y-92464818D01*
X225541796Y-93526893D01*
X224130410Y-93526893D01*
X224130411Y-93526892D01*
X223068336Y-92464818D01*
X222006262Y-93526893D01*
X220594878Y-93526893D01*
X219532803Y-92464818D01*
X218823500Y-93174121D01*
X217825500Y-93174121D01*
X217825500Y-92405412D01*
X217825972Y-92394605D01*
X217826424Y-92389438D01*
X217839359Y-92241587D01*
X217843112Y-92220303D01*
X217881463Y-92077175D01*
X217888849Y-92056880D01*
X217951481Y-91922564D01*
X217962274Y-91903871D01*
X218047271Y-91782485D01*
X218061158Y-91765934D01*
X218165934Y-91661158D01*
X218182485Y-91647271D01*
X218216628Y-91623362D01*
X218303871Y-91562274D01*
X218322564Y-91551481D01*
X218456880Y-91488849D01*
X218477169Y-91481464D01*
X218620306Y-91443111D01*
X218641587Y-91439359D01*
X218794605Y-91425971D01*
X218805412Y-91425500D01*
X218808285Y-91425500D01*
X230791715Y-91425500D01*
X230794588Y-91425500D01*
X230805394Y-91425971D01*
X230958410Y-91439359D01*
X230979695Y-91443111D01*
X231122826Y-91481463D01*
X231143123Y-91488851D01*
X231277430Y-91551479D01*
X231296133Y-91562278D01*
X231417514Y-91647271D01*
X231434071Y-91661164D01*
X231538835Y-91765928D01*
X231552728Y-91782485D01*
X231637721Y-91903866D01*
X231648522Y-91922573D01*
X231711146Y-92056870D01*
X231718536Y-92077175D01*
X231756887Y-92220303D01*
X231760640Y-92241589D01*
X231774028Y-92394604D01*
X231774500Y-92405412D01*
X231774500Y-124750500D01*
X231754815Y-124817539D01*
X231702011Y-124863294D01*
X231650500Y-124874500D01*
X230808285Y-124874500D01*
X230800000Y-124874500D01*
X230704973Y-124874500D01*
X230518156Y-124909423D01*
X230340942Y-124978075D01*
X230340938Y-124978077D01*
X230179349Y-125078129D01*
X230038901Y-125206164D01*
X229924367Y-125357830D01*
X229839653Y-125527957D01*
X229787642Y-125710760D01*
X229770107Y-125899999D01*
X229770107Y-125900000D01*
X229787642Y-126089239D01*
X229839653Y-126272042D01*
X229901305Y-126395854D01*
X229924367Y-126442169D01*
X230018337Y-126566605D01*
X230038901Y-126593835D01*
X230057785Y-126611050D01*
X230179351Y-126721872D01*
X230340937Y-126821922D01*
X230518156Y-126890577D01*
X230704973Y-126925500D01*
X230791715Y-126925500D01*
X230791874Y-126925500D01*
X230808059Y-126926561D01*
X230906623Y-126939537D01*
X230937890Y-126947915D01*
X230982649Y-126966454D01*
X231022168Y-126982823D01*
X231050197Y-126999005D01*
X231065345Y-127010629D01*
X231122571Y-127054541D01*
X231145458Y-127077428D01*
X231164755Y-127102575D01*
X231192198Y-127138340D01*
X231200991Y-127149798D01*
X231217177Y-127177834D01*
X231252084Y-127262109D01*
X231260462Y-127293375D01*
X231263909Y-127319554D01*
X231272198Y-127382518D01*
X231273439Y-127391939D01*
X231274500Y-127408125D01*
X231274500Y-127891874D01*
X231273439Y-127908060D01*
X231260462Y-128006624D01*
X231252084Y-128037890D01*
X231217177Y-128122165D01*
X231200991Y-128150201D01*
X231145458Y-128222571D01*
X231122571Y-128245458D01*
X231050201Y-128300991D01*
X231022165Y-128317177D01*
X230937890Y-128352084D01*
X230906624Y-128360462D01*
X230818244Y-128372098D01*
X230808058Y-128373439D01*
X230791874Y-128374500D01*
X227941804Y-128374500D01*
X227874765Y-128354815D01*
X227829010Y-128302011D01*
X227820000Y-128273735D01*
X227801218Y-128175278D01*
X227789261Y-128112593D01*
X227789260Y-128112591D01*
X227789260Y-128112589D01*
X227717888Y-127932324D01*
X227717882Y-127932312D01*
X227702491Y-127908060D01*
X227613990Y-127768605D01*
X227481260Y-127627262D01*
X227406480Y-127572931D01*
X227324395Y-127513292D01*
X227228691Y-127468258D01*
X227148956Y-127430738D01*
X227148951Y-127430736D01*
X227148949Y-127430736D01*
X226961155Y-127382518D01*
X226767644Y-127370343D01*
X226767637Y-127370343D01*
X226575278Y-127394644D01*
X226575274Y-127394645D01*
X226390875Y-127454560D01*
X226390871Y-127454561D01*
X226220960Y-127547971D01*
X226220959Y-127547971D01*
X226071563Y-127671563D01*
X225947971Y-127820959D01*
X225947971Y-127820960D01*
X225854561Y-127990871D01*
X225854560Y-127990875D01*
X225794645Y-128175274D01*
X225794644Y-128175278D01*
X225770343Y-128367637D01*
X225770343Y-128367644D01*
X225782518Y-128561155D01*
X225789954Y-128590116D01*
X225830738Y-128748956D01*
X225848431Y-128786555D01*
X225913292Y-128924395D01*
X225982714Y-129019945D01*
X226027262Y-129081260D01*
X226168605Y-129213990D01*
X226332315Y-129317884D01*
X226332319Y-129317885D01*
X226332324Y-129317888D01*
X226512590Y-129389260D01*
X226512591Y-129389260D01*
X226512593Y-129389261D01*
X226703053Y-129425593D01*
X226800000Y-129425500D01*
X226808285Y-129425500D01*
X237791715Y-129425500D01*
X237800000Y-129425500D01*
X237896943Y-129425593D01*
X237896943Y-129425592D01*
X237896947Y-129425593D01*
X238087407Y-129389261D01*
X238094894Y-129386297D01*
X238267675Y-129317888D01*
X238267675Y-129317887D01*
X238267685Y-129317884D01*
X238431395Y-129213990D01*
X238572738Y-129081260D01*
X238686706Y-128924397D01*
X238769262Y-128748956D01*
X238817482Y-128561153D01*
X238829657Y-128367642D01*
X238805355Y-128175276D01*
X238745439Y-127990872D01*
X238652029Y-127820961D01*
X238652028Y-127820959D01*
X238603135Y-127761857D01*
X238528437Y-127671563D01*
X238379039Y-127547971D01*
X238209128Y-127454561D01*
X238066212Y-127408125D01*
X238024725Y-127394645D01*
X238024721Y-127394644D01*
X237832358Y-127370343D01*
X237638844Y-127382518D01*
X237451050Y-127430736D01*
X237451047Y-127430737D01*
X237451045Y-127430737D01*
X237451044Y-127430738D01*
X237422383Y-127444225D01*
X237275604Y-127513292D01*
X237118738Y-127627263D01*
X236986012Y-127768602D01*
X236986006Y-127768610D01*
X236882117Y-127932312D01*
X236882111Y-127932324D01*
X236810739Y-128112589D01*
X236780000Y-128273735D01*
X236748102Y-128335899D01*
X236687660Y-128370949D01*
X236658196Y-128374500D01*
X233808126Y-128374500D01*
X233791941Y-128373439D01*
X233780208Y-128371894D01*
X233693375Y-128360462D01*
X233662109Y-128352084D01*
X233577834Y-128317177D01*
X233549800Y-128300992D01*
X233514278Y-128273735D01*
X233477428Y-128245458D01*
X233454541Y-128222571D01*
X233418248Y-128175274D01*
X233399005Y-128150197D01*
X233382823Y-128122168D01*
X233363145Y-128074660D01*
X233347915Y-128037890D01*
X233339537Y-128006623D01*
X233326561Y-127908059D01*
X233325500Y-127891874D01*
X233325500Y-127408125D01*
X233326561Y-127391940D01*
X233326890Y-127389438D01*
X233328593Y-127376500D01*
X235183937Y-127376500D01*
X236052841Y-127376500D01*
X236155975Y-127213988D01*
X236159222Y-127209129D01*
X236179547Y-127180210D01*
X236183017Y-127175512D01*
X236211850Y-127138340D01*
X236215539Y-127133810D01*
X236238497Y-127106929D01*
X236242396Y-127102575D01*
X236363706Y-126973392D01*
X235897608Y-126507294D01*
X238523335Y-126507294D01*
X238539896Y-126512675D01*
X238545408Y-126514611D01*
X238578476Y-126527106D01*
X238583893Y-126529299D01*
X238627069Y-126547983D01*
X238632374Y-126550429D01*
X238664120Y-126565981D01*
X238669306Y-126568675D01*
X238880446Y-126684751D01*
X238885498Y-126687686D01*
X238915643Y-126706159D01*
X238920554Y-126709330D01*
X238959463Y-126735774D01*
X238964213Y-126739168D01*
X238992476Y-126760388D01*
X238997066Y-126764006D01*
X239182710Y-126917584D01*
X239187122Y-126921414D01*
X239213268Y-126945205D01*
X239217496Y-126949238D01*
X239250762Y-126982504D01*
X239254795Y-126986732D01*
X239278586Y-127012878D01*
X239282416Y-127017290D01*
X239435994Y-127202934D01*
X239439612Y-127207524D01*
X239460832Y-127235787D01*
X239464226Y-127240537D01*
X239490670Y-127279446D01*
X239493841Y-127284357D01*
X239512314Y-127314502D01*
X239515249Y-127319554D01*
X239628756Y-127526021D01*
X240040313Y-127114464D01*
X238978238Y-126052390D01*
X238523335Y-126507294D01*
X235897608Y-126507294D01*
X235767920Y-126377606D01*
X235713941Y-126567330D01*
X235712246Y-126572802D01*
X235701233Y-126605661D01*
X235699287Y-126611050D01*
X235682625Y-126654059D01*
X235680433Y-126659351D01*
X235666433Y-126691058D01*
X235663999Y-126696244D01*
X235558728Y-126907656D01*
X235556057Y-126912723D01*
X235539198Y-126942991D01*
X235536298Y-126947926D01*
X235512019Y-126987141D01*
X235508890Y-126991943D01*
X235489299Y-127020543D01*
X235485953Y-127025194D01*
X235343623Y-127213668D01*
X235340066Y-127218159D01*
X235317930Y-127244816D01*
X235314171Y-127249135D01*
X235283100Y-127283219D01*
X235279143Y-127287363D01*
X235254634Y-127311872D01*
X235250491Y-127315828D01*
X235183937Y-127376500D01*
X233328593Y-127376500D01*
X233339537Y-127293375D01*
X233347915Y-127262109D01*
X233363145Y-127225340D01*
X233382825Y-127177828D01*
X233399003Y-127149805D01*
X233454541Y-127077427D01*
X233477428Y-127054541D01*
X233549805Y-126999003D01*
X233577828Y-126982825D01*
X233662109Y-126947915D01*
X233693375Y-126939537D01*
X233791941Y-126926561D01*
X233808126Y-126925500D01*
X233895025Y-126925500D01*
X233895027Y-126925500D01*
X234081844Y-126890577D01*
X234259063Y-126821922D01*
X234420649Y-126721872D01*
X234561100Y-126593834D01*
X234675633Y-126442169D01*
X234760347Y-126272040D01*
X234812357Y-126089242D01*
X234829893Y-125900000D01*
X234812357Y-125710758D01*
X234760347Y-125527960D01*
X234759906Y-125527075D01*
X234676014Y-125358597D01*
X234675633Y-125357831D01*
X234667226Y-125346698D01*
X236148397Y-125346698D01*
X237210472Y-126408773D01*
X238272546Y-125346698D01*
X239683931Y-125346698D01*
X240746006Y-126408773D01*
X241808080Y-125346698D01*
X243219465Y-125346698D01*
X243772107Y-125899340D01*
X243772107Y-125876939D01*
X243772239Y-125871211D01*
X243773840Y-125836591D01*
X243774237Y-125830878D01*
X243796029Y-125595707D01*
X243796689Y-125590017D01*
X243801478Y-125555685D01*
X243802401Y-125550027D01*
X243810877Y-125504692D01*
X243812059Y-125499091D01*
X243819991Y-125465366D01*
X243821430Y-125459823D01*
X243886059Y-125232670D01*
X243887754Y-125227198D01*
X243898767Y-125194339D01*
X243900713Y-125188950D01*
X243917375Y-125145941D01*
X243919567Y-125140649D01*
X243933567Y-125108942D01*
X243936001Y-125103756D01*
X244041272Y-124892344D01*
X244043943Y-124887277D01*
X244060802Y-124857009D01*
X244063702Y-124852074D01*
X244087981Y-124812859D01*
X244091110Y-124808057D01*
X244110701Y-124779457D01*
X244114047Y-124774806D01*
X244256377Y-124586332D01*
X244259934Y-124581841D01*
X244282070Y-124555184D01*
X244285829Y-124550865D01*
X244316900Y-124516781D01*
X244320857Y-124512637D01*
X244345366Y-124488128D01*
X244349508Y-124484172D01*
X244418339Y-124421423D01*
X244281539Y-124284623D01*
X243219465Y-125346698D01*
X241808080Y-125346698D01*
X240746006Y-124284623D01*
X239683931Y-125346698D01*
X238272546Y-125346698D01*
X237210472Y-124284623D01*
X236148397Y-125346698D01*
X234667226Y-125346698D01*
X234561100Y-125206166D01*
X234548126Y-125194339D01*
X234420650Y-125078129D01*
X234420649Y-125078128D01*
X234259063Y-124978078D01*
X234259061Y-124978077D01*
X234259057Y-124978075D01*
X234171678Y-124944225D01*
X234081844Y-124909423D01*
X233895027Y-124874500D01*
X233895025Y-124874500D01*
X233835185Y-124874500D01*
X233834984Y-124874460D01*
X233801238Y-124874500D01*
X233773160Y-124874500D01*
X233772942Y-124874533D01*
X232947734Y-124875510D01*
X232880671Y-124855905D01*
X232834854Y-124803155D01*
X232823587Y-124751503D01*
X232823603Y-124484172D01*
X232823657Y-123578931D01*
X234380630Y-123578931D01*
X235442705Y-124641006D01*
X236504779Y-123578931D01*
X237916164Y-123578931D01*
X238978239Y-124641006D01*
X240040313Y-123578931D01*
X241451698Y-123578931D01*
X242513773Y-124641006D01*
X243575846Y-123578932D01*
X244987232Y-123578932D01*
X245336409Y-123928109D01*
X245544255Y-123889256D01*
X245549909Y-123888334D01*
X245584233Y-123883546D01*
X245589922Y-123882886D01*
X245635848Y-123878630D01*
X245641562Y-123878233D01*
X245676183Y-123876632D01*
X245681911Y-123876500D01*
X245776500Y-123876500D01*
X245776500Y-122789664D01*
X244987232Y-123578932D01*
X243575846Y-123578932D01*
X243575847Y-123578931D01*
X242513773Y-122516857D01*
X241451698Y-123578931D01*
X240040313Y-123578931D01*
X238978239Y-122516857D01*
X237916164Y-123578931D01*
X236504779Y-123578931D01*
X235442705Y-122516857D01*
X234380630Y-123578931D01*
X232823657Y-123578931D01*
X232823707Y-122726470D01*
X233821705Y-122726470D01*
X234737012Y-121811164D01*
X236148397Y-121811164D01*
X237210472Y-122873239D01*
X238272546Y-121811164D01*
X239683931Y-121811164D01*
X240746006Y-122873239D01*
X241808080Y-121811164D01*
X243219465Y-121811164D01*
X244281540Y-122873239D01*
X245343614Y-121811164D01*
X244281540Y-120749090D01*
X243219465Y-121811164D01*
X241808080Y-121811164D01*
X240746006Y-120749090D01*
X239683931Y-121811164D01*
X238272546Y-121811164D01*
X237210472Y-120749090D01*
X236148397Y-121811164D01*
X234737012Y-121811164D01*
X233821814Y-120895966D01*
X233821705Y-122726470D01*
X232823707Y-122726470D01*
X232823866Y-120043397D01*
X234380630Y-120043397D01*
X235442705Y-121105472D01*
X236504779Y-120043397D01*
X237916164Y-120043397D01*
X238978239Y-121105472D01*
X240040313Y-120043397D01*
X241451698Y-120043397D01*
X242513773Y-121105472D01*
X243575847Y-120043397D01*
X244987232Y-120043397D01*
X245776500Y-120832665D01*
X245776500Y-119254130D01*
X244987232Y-120043397D01*
X243575847Y-120043397D01*
X242513773Y-118981323D01*
X241451698Y-120043397D01*
X240040313Y-120043397D01*
X238978239Y-118981323D01*
X237916164Y-120043397D01*
X236504779Y-120043397D01*
X235442705Y-118981323D01*
X234380630Y-120043397D01*
X232823866Y-120043397D01*
X232823916Y-119190728D01*
X233821914Y-119190728D01*
X234737011Y-118275631D01*
X236148397Y-118275631D01*
X237210472Y-119337706D01*
X238272547Y-118275631D01*
X239683931Y-118275631D01*
X240746006Y-119337706D01*
X241808081Y-118275631D01*
X243219465Y-118275631D01*
X244281540Y-119337706D01*
X245343615Y-118275631D01*
X244281540Y-117213556D01*
X243219465Y-118275631D01*
X241808081Y-118275631D01*
X240746006Y-117213556D01*
X239683931Y-118275631D01*
X238272547Y-118275631D01*
X237210472Y-117213556D01*
X236148397Y-118275631D01*
X234737011Y-118275631D01*
X234737012Y-118275630D01*
X233822023Y-117360641D01*
X233821914Y-119190728D01*
X232823916Y-119190728D01*
X232824075Y-116507864D01*
X234380630Y-116507864D01*
X235442705Y-117569939D01*
X236504780Y-116507864D01*
X237916164Y-116507864D01*
X238978239Y-117569939D01*
X240040314Y-116507864D01*
X241451698Y-116507864D01*
X242513773Y-117569939D01*
X243575848Y-116507864D01*
X244987232Y-116507864D01*
X245776500Y-117297132D01*
X245776500Y-115718596D01*
X244987232Y-116507864D01*
X243575848Y-116507864D01*
X242513773Y-115445789D01*
X241451698Y-116507864D01*
X240040314Y-116507864D01*
X238978239Y-115445789D01*
X237916164Y-116507864D01*
X236504780Y-116507864D01*
X235442705Y-115445789D01*
X234380630Y-116507864D01*
X232824075Y-116507864D01*
X232824125Y-115654985D01*
X233822123Y-115654985D01*
X234737011Y-114740097D01*
X236148397Y-114740097D01*
X237210472Y-115802172D01*
X238272547Y-114740097D01*
X239683931Y-114740097D01*
X240746006Y-115802172D01*
X241808081Y-114740097D01*
X243219465Y-114740097D01*
X244281540Y-115802172D01*
X245343615Y-114740097D01*
X244281540Y-113678022D01*
X243219465Y-114740097D01*
X241808081Y-114740097D01*
X240746006Y-113678022D01*
X239683931Y-114740097D01*
X238272547Y-114740097D01*
X237210472Y-113678022D01*
X236148397Y-114740097D01*
X234737011Y-114740097D01*
X234737012Y-114740096D01*
X233822232Y-113825316D01*
X233822123Y-115654985D01*
X232824125Y-115654985D01*
X232824284Y-112972330D01*
X234380630Y-112972330D01*
X235442705Y-114034405D01*
X236504780Y-112972330D01*
X237916164Y-112972330D01*
X238978239Y-114034405D01*
X240040314Y-112972330D01*
X241451698Y-112972330D01*
X242513773Y-114034405D01*
X243575848Y-112972330D01*
X244987232Y-112972330D01*
X245776500Y-113761598D01*
X245776500Y-112183062D01*
X244987232Y-112972330D01*
X243575848Y-112972330D01*
X242513773Y-111910255D01*
X241451698Y-112972330D01*
X240040314Y-112972330D01*
X238978239Y-111910255D01*
X237916164Y-112972330D01*
X236504780Y-112972330D01*
X235442705Y-111910255D01*
X234380630Y-112972330D01*
X232824284Y-112972330D01*
X232824334Y-112119242D01*
X233822332Y-112119242D01*
X234737011Y-111204563D01*
X236148397Y-111204563D01*
X237210472Y-112266638D01*
X238272547Y-111204563D01*
X239683931Y-111204563D01*
X240746006Y-112266638D01*
X241808081Y-111204563D01*
X243219465Y-111204563D01*
X244281540Y-112266638D01*
X245343615Y-111204563D01*
X244281540Y-110142488D01*
X243219465Y-111204563D01*
X241808081Y-111204563D01*
X240746006Y-110142488D01*
X239683931Y-111204563D01*
X238272547Y-111204563D01*
X237210472Y-110142488D01*
X236148397Y-111204563D01*
X234737011Y-111204563D01*
X234737012Y-111204562D01*
X233822441Y-110289991D01*
X233822332Y-112119242D01*
X232824334Y-112119242D01*
X232824493Y-109436796D01*
X234380630Y-109436796D01*
X235442705Y-110498871D01*
X236504780Y-109436796D01*
X237916164Y-109436796D01*
X238978239Y-110498871D01*
X240040314Y-109436796D01*
X241451698Y-109436796D01*
X242513773Y-110498871D01*
X243575848Y-109436796D01*
X244987232Y-109436796D01*
X245776500Y-110226064D01*
X245776500Y-108647528D01*
X244987232Y-109436796D01*
X243575848Y-109436796D01*
X242513773Y-108374721D01*
X241451698Y-109436796D01*
X240040314Y-109436796D01*
X238978239Y-108374721D01*
X237916164Y-109436796D01*
X236504780Y-109436796D01*
X235442705Y-108374721D01*
X234380630Y-109436796D01*
X232824493Y-109436796D01*
X232824543Y-108583499D01*
X233822541Y-108583499D01*
X234737011Y-107669029D01*
X236148397Y-107669029D01*
X237210472Y-108731104D01*
X238272547Y-107669029D01*
X239683931Y-107669029D01*
X240746006Y-108731104D01*
X241808081Y-107669029D01*
X243219465Y-107669029D01*
X244281540Y-108731104D01*
X245343615Y-107669029D01*
X244281540Y-106606954D01*
X243219465Y-107669029D01*
X241808081Y-107669029D01*
X240746006Y-106606954D01*
X239683931Y-107669029D01*
X238272547Y-107669029D01*
X237210472Y-106606954D01*
X236148397Y-107669029D01*
X234737011Y-107669029D01*
X234737012Y-107669028D01*
X233822650Y-106754666D01*
X233822541Y-108583499D01*
X232824543Y-108583499D01*
X232824702Y-105901262D01*
X234380630Y-105901262D01*
X235442705Y-106963337D01*
X236504780Y-105901262D01*
X237916164Y-105901262D01*
X238978239Y-106963337D01*
X240040314Y-105901262D01*
X241451698Y-105901262D01*
X242513773Y-106963337D01*
X243575848Y-105901262D01*
X244987232Y-105901262D01*
X245776500Y-106690530D01*
X245776500Y-105111994D01*
X244987232Y-105901262D01*
X243575848Y-105901262D01*
X242513773Y-104839187D01*
X241451698Y-105901262D01*
X240040314Y-105901262D01*
X238978239Y-104839187D01*
X237916164Y-105901262D01*
X236504780Y-105901262D01*
X235442705Y-104839187D01*
X234380630Y-105901262D01*
X232824702Y-105901262D01*
X232824752Y-105047756D01*
X233822750Y-105047756D01*
X234737011Y-104133495D01*
X236148397Y-104133495D01*
X237210472Y-105195570D01*
X238272547Y-104133495D01*
X239683931Y-104133495D01*
X240746006Y-105195570D01*
X241808081Y-104133495D01*
X243219465Y-104133495D01*
X244281540Y-105195570D01*
X245343615Y-104133495D01*
X244281540Y-103071420D01*
X243219465Y-104133495D01*
X241808081Y-104133495D01*
X240746006Y-103071420D01*
X239683931Y-104133495D01*
X238272547Y-104133495D01*
X237210472Y-103071420D01*
X236148397Y-104133495D01*
X234737011Y-104133495D01*
X234737012Y-104133494D01*
X233822859Y-103219341D01*
X233822750Y-105047756D01*
X232824752Y-105047756D01*
X232824911Y-102365728D01*
X234380630Y-102365728D01*
X235442705Y-103427803D01*
X236504780Y-102365728D01*
X237916164Y-102365728D01*
X238978239Y-103427803D01*
X240040314Y-102365728D01*
X241451698Y-102365728D01*
X242513773Y-103427803D01*
X243575848Y-102365728D01*
X244987232Y-102365728D01*
X245776500Y-103154996D01*
X245776500Y-101576460D01*
X244987232Y-102365728D01*
X243575848Y-102365728D01*
X242513773Y-101303653D01*
X241451698Y-102365728D01*
X240040314Y-102365728D01*
X238978239Y-101303653D01*
X237916164Y-102365728D01*
X236504780Y-102365728D01*
X235442705Y-101303653D01*
X234380630Y-102365728D01*
X232824911Y-102365728D01*
X232824961Y-101512013D01*
X233822959Y-101512013D01*
X234737011Y-100597961D01*
X236148397Y-100597961D01*
X237210472Y-101660036D01*
X238272547Y-100597961D01*
X239683931Y-100597961D01*
X240746006Y-101660036D01*
X241808081Y-100597961D01*
X243219465Y-100597961D01*
X244281540Y-101660036D01*
X245343615Y-100597961D01*
X244281540Y-99535886D01*
X243219465Y-100597961D01*
X241808081Y-100597961D01*
X240746006Y-99535886D01*
X239683931Y-100597961D01*
X238272547Y-100597961D01*
X237210472Y-99535886D01*
X236148397Y-100597961D01*
X234737011Y-100597961D01*
X234737012Y-100597960D01*
X233823068Y-99684016D01*
X233822959Y-101512013D01*
X232824961Y-101512013D01*
X232825120Y-98830194D01*
X234380630Y-98830194D01*
X235442705Y-99892269D01*
X236504780Y-98830194D01*
X237916164Y-98830194D01*
X238978239Y-99892269D01*
X240040314Y-98830194D01*
X241451698Y-98830194D01*
X242513773Y-99892269D01*
X243575848Y-98830194D01*
X244987232Y-98830194D01*
X245776500Y-99619462D01*
X245776500Y-98040926D01*
X244987232Y-98830194D01*
X243575848Y-98830194D01*
X242513773Y-97768119D01*
X241451698Y-98830194D01*
X240040314Y-98830194D01*
X238978239Y-97768119D01*
X237916164Y-98830194D01*
X236504780Y-98830194D01*
X235442705Y-97768119D01*
X234380630Y-98830194D01*
X232825120Y-98830194D01*
X232825170Y-97976270D01*
X233823168Y-97976270D01*
X234737011Y-97062427D01*
X236148397Y-97062427D01*
X237210472Y-98124502D01*
X238272547Y-97062427D01*
X239683931Y-97062427D01*
X240746006Y-98124502D01*
X241808081Y-97062427D01*
X243219465Y-97062427D01*
X244281540Y-98124502D01*
X245343615Y-97062427D01*
X244281540Y-96000352D01*
X243219465Y-97062427D01*
X241808081Y-97062427D01*
X240746006Y-96000352D01*
X239683931Y-97062427D01*
X238272547Y-97062427D01*
X237210472Y-96000352D01*
X236148397Y-97062427D01*
X234737011Y-97062427D01*
X234737012Y-97062426D01*
X233823277Y-96148691D01*
X233823168Y-97976270D01*
X232825170Y-97976270D01*
X232825329Y-95294660D01*
X234380630Y-95294660D01*
X235442705Y-96356735D01*
X236504780Y-95294660D01*
X237916164Y-95294660D01*
X238978239Y-96356735D01*
X240040314Y-95294660D01*
X241451698Y-95294660D01*
X242513773Y-96356735D01*
X243575848Y-95294660D01*
X244987232Y-95294660D01*
X245776500Y-96083928D01*
X245776500Y-94505392D01*
X244987232Y-95294660D01*
X243575848Y-95294660D01*
X242513773Y-94232585D01*
X241451698Y-95294660D01*
X240040314Y-95294660D01*
X238978239Y-94232585D01*
X237916164Y-95294660D01*
X236504780Y-95294660D01*
X235442705Y-94232585D01*
X234380630Y-95294660D01*
X232825329Y-95294660D01*
X232825379Y-94440527D01*
X233823377Y-94440527D01*
X234737011Y-93526893D01*
X236148397Y-93526893D01*
X237210472Y-94588968D01*
X238272547Y-93526893D01*
X239683931Y-93526893D01*
X240746006Y-94588968D01*
X241808081Y-93526893D01*
X243219465Y-93526893D01*
X244281540Y-94588968D01*
X245343615Y-93526893D01*
X244281540Y-92464818D01*
X243219465Y-93526893D01*
X241808081Y-93526893D01*
X240746006Y-92464818D01*
X239683931Y-93526893D01*
X238272547Y-93526893D01*
X237210472Y-92464818D01*
X236148397Y-93526893D01*
X234737011Y-93526893D01*
X234737012Y-93526892D01*
X233823486Y-92613366D01*
X233823377Y-94440527D01*
X232825379Y-94440527D01*
X232825499Y-92405388D01*
X232825970Y-92394620D01*
X232839359Y-92241585D01*
X232843112Y-92220303D01*
X232881463Y-92077175D01*
X232888849Y-92056880D01*
X232951481Y-91922564D01*
X232962274Y-91903871D01*
X233047271Y-91782485D01*
X233061158Y-91765934D01*
X233165934Y-91661158D01*
X233182485Y-91647271D01*
X233216628Y-91623362D01*
X233303871Y-91562274D01*
X233322564Y-91551481D01*
X233456880Y-91488849D01*
X233477169Y-91481464D01*
X233620306Y-91443111D01*
X233641587Y-91439359D01*
X233794605Y-91425971D01*
X233805412Y-91425500D01*
X233808285Y-91425500D01*
X245791715Y-91425500D01*
X245794588Y-91425500D01*
X245805394Y-91425971D01*
X245958410Y-91439359D01*
X245979695Y-91443111D01*
X246122826Y-91481463D01*
X246143123Y-91488851D01*
X246277430Y-91551479D01*
X246296133Y-91562278D01*
X246417514Y-91647271D01*
X246434071Y-91661164D01*
X246538835Y-91765928D01*
X246552728Y-91782485D01*
X246637721Y-91903866D01*
X246648522Y-91922573D01*
X246711146Y-92056870D01*
X246718536Y-92077175D01*
X246756887Y-92220303D01*
X246760640Y-92241589D01*
X246774028Y-92394604D01*
X246774500Y-92405412D01*
X246774500Y-124750500D01*
X246754815Y-124817539D01*
X246702011Y-124863294D01*
X246650500Y-124874500D01*
X245808285Y-124874500D01*
X245800000Y-124874500D01*
X245704973Y-124874500D01*
X245518156Y-124909423D01*
X245340942Y-124978075D01*
X245340938Y-124978077D01*
X245179349Y-125078129D01*
X245038901Y-125206164D01*
X244924367Y-125357830D01*
X244839653Y-125527957D01*
X244787642Y-125710760D01*
X244770107Y-125899999D01*
X244770107Y-125900000D01*
X244787642Y-126089239D01*
X244839653Y-126272042D01*
X244901305Y-126395854D01*
X244924367Y-126442169D01*
X245018337Y-126566605D01*
X245038901Y-126593835D01*
X245057785Y-126611050D01*
X245179351Y-126721872D01*
X245340937Y-126821922D01*
X245518156Y-126890577D01*
X245704973Y-126925500D01*
X245791715Y-126925500D01*
X245791874Y-126925500D01*
X245808059Y-126926561D01*
X245906623Y-126939537D01*
X245937890Y-126947915D01*
X245982649Y-126966454D01*
X246022168Y-126982823D01*
X246050197Y-126999005D01*
X246065345Y-127010629D01*
X246122571Y-127054541D01*
X246145458Y-127077428D01*
X246164755Y-127102575D01*
X246192198Y-127138340D01*
X246200991Y-127149798D01*
X246217177Y-127177834D01*
X246252084Y-127262109D01*
X246260462Y-127293375D01*
X246263909Y-127319554D01*
X246272198Y-127382518D01*
X246273439Y-127391939D01*
X246274500Y-127408125D01*
X246274500Y-127891874D01*
X246273439Y-127908060D01*
X246260462Y-128006624D01*
X246252084Y-128037890D01*
X246217177Y-128122165D01*
X246200991Y-128150201D01*
X246145458Y-128222571D01*
X246122571Y-128245458D01*
X246050201Y-128300991D01*
X246022165Y-128317177D01*
X245937890Y-128352084D01*
X245906624Y-128360462D01*
X245818244Y-128372098D01*
X245808058Y-128373439D01*
X245791874Y-128374500D01*
X242941804Y-128374500D01*
X242874765Y-128354815D01*
X242829010Y-128302011D01*
X242820000Y-128273735D01*
X242801218Y-128175278D01*
X242789261Y-128112593D01*
X242789260Y-128112591D01*
X242789260Y-128112589D01*
X242717888Y-127932324D01*
X242717882Y-127932312D01*
X242702491Y-127908060D01*
X242613990Y-127768605D01*
X242481260Y-127627262D01*
X242406480Y-127572931D01*
X242324395Y-127513292D01*
X242228691Y-127468258D01*
X242148956Y-127430738D01*
X242148951Y-127430736D01*
X242148949Y-127430736D01*
X241961155Y-127382518D01*
X241767644Y-127370343D01*
X241767637Y-127370343D01*
X241575278Y-127394644D01*
X241575274Y-127394645D01*
X241390875Y-127454560D01*
X241390871Y-127454561D01*
X241220960Y-127547971D01*
X241220959Y-127547971D01*
X241071563Y-127671563D01*
X240947971Y-127820959D01*
X240947971Y-127820960D01*
X240854561Y-127990871D01*
X240854560Y-127990875D01*
X240794645Y-128175274D01*
X240794644Y-128175278D01*
X240770343Y-128367637D01*
X240770343Y-128367644D01*
X240782518Y-128561155D01*
X240789954Y-128590116D01*
X240830738Y-128748956D01*
X240848431Y-128786555D01*
X240913292Y-128924395D01*
X240982714Y-129019945D01*
X241027262Y-129081260D01*
X241168605Y-129213990D01*
X241332315Y-129317884D01*
X241332319Y-129317885D01*
X241332324Y-129317888D01*
X241512590Y-129389260D01*
X241512591Y-129389260D01*
X241512593Y-129389261D01*
X241673735Y-129420000D01*
X241735899Y-129451898D01*
X241770949Y-129512340D01*
X241774500Y-129541804D01*
X241774500Y-131758195D01*
X241754815Y-131825234D01*
X241702011Y-131870989D01*
X241673736Y-131879999D01*
X241590057Y-131895962D01*
X241512593Y-131910739D01*
X241512591Y-131910739D01*
X241512589Y-131910740D01*
X241332324Y-131982111D01*
X241332312Y-131982117D01*
X241168610Y-132086006D01*
X241168602Y-132086012D01*
X241027263Y-132218738D01*
X240913292Y-132375604D01*
X240830737Y-132551047D01*
X240830736Y-132551050D01*
X240782518Y-132738844D01*
X240770343Y-132932355D01*
X240770343Y-132932362D01*
X240794644Y-133124721D01*
X240794645Y-133124725D01*
X240854560Y-133309124D01*
X240854561Y-133309128D01*
X240947971Y-133479039D01*
X240947971Y-133479040D01*
X240991278Y-133531389D01*
X241071563Y-133628437D01*
X241220961Y-133752029D01*
X241390872Y-133845439D01*
X241575276Y-133905355D01*
X241767642Y-133929657D01*
X241961153Y-133917482D01*
X242148956Y-133869262D01*
X242324397Y-133786706D01*
X242481260Y-133672738D01*
X242613990Y-133531395D01*
X242717884Y-133367685D01*
X242718796Y-133365381D01*
X242789260Y-133187410D01*
X242793965Y-133162750D01*
X242820000Y-133026264D01*
X242851898Y-132964101D01*
X242912340Y-132929051D01*
X242941804Y-132925500D01*
X245791715Y-132925500D01*
X245791874Y-132925500D01*
X245808059Y-132926561D01*
X245906623Y-132939537D01*
X245937890Y-132947915D01*
X245982649Y-132966454D01*
X246022168Y-132982823D01*
X246050197Y-132999005D01*
X246085460Y-133026064D01*
X246122571Y-133054541D01*
X246145458Y-133077428D01*
X246200991Y-133149798D01*
X246217177Y-133177834D01*
X246252084Y-133262109D01*
X246260462Y-133293375D01*
X246273439Y-133391939D01*
X246274500Y-133408125D01*
X246274500Y-133891874D01*
X246273439Y-133908060D01*
X246260462Y-134006624D01*
X246252084Y-134037890D01*
X246217177Y-134122165D01*
X246200991Y-134150201D01*
X246145458Y-134222571D01*
X246122571Y-134245458D01*
X246050201Y-134300991D01*
X246022165Y-134317177D01*
X245937890Y-134352084D01*
X245906624Y-134360462D01*
X245818244Y-134372098D01*
X245808058Y-134373439D01*
X245791874Y-134374500D01*
X245704973Y-134374500D01*
X245518156Y-134409423D01*
X245340942Y-134478075D01*
X245340938Y-134478077D01*
X245179349Y-134578129D01*
X245038901Y-134706164D01*
X244924367Y-134857830D01*
X244839653Y-135027957D01*
X244787642Y-135210760D01*
X244770107Y-135399999D01*
X244770107Y-135400000D01*
X244787642Y-135589239D01*
X244839653Y-135772042D01*
X244873581Y-135840177D01*
X244924367Y-135942169D01*
X245038900Y-136093834D01*
X245179351Y-136221872D01*
X245340937Y-136321922D01*
X245518156Y-136390577D01*
X245704973Y-136425500D01*
X245764815Y-136425500D01*
X245765015Y-136425539D01*
X245789467Y-136425510D01*
X245789468Y-136425511D01*
X245798719Y-136425500D01*
X245798762Y-136425500D01*
X245829145Y-136425500D01*
X245829360Y-136425463D01*
X246652267Y-136424488D01*
X246719327Y-136444093D01*
X246765144Y-136496843D01*
X246776411Y-136548495D01*
X246774500Y-168891717D01*
X246774500Y-168894587D01*
X246774028Y-168905395D01*
X246760640Y-169058410D01*
X246756887Y-169079696D01*
X246718536Y-169222824D01*
X246711144Y-169243133D01*
X246648524Y-169377421D01*
X246637721Y-169396133D01*
X246552728Y-169517514D01*
X246538835Y-169534071D01*
X246434071Y-169638835D01*
X246417514Y-169652728D01*
X246296133Y-169737721D01*
X246277421Y-169748524D01*
X246143134Y-169811144D01*
X246122824Y-169818536D01*
X245979696Y-169856887D01*
X245958410Y-169860640D01*
X245822206Y-169872557D01*
X245805393Y-169874028D01*
X245794588Y-169874500D01*
X233805412Y-169874500D01*
X233794606Y-169874028D01*
X233775883Y-169872390D01*
X233641589Y-169860640D01*
X233620303Y-169856887D01*
X233477175Y-169818536D01*
X233456870Y-169811146D01*
X233322573Y-169748522D01*
X233303866Y-169737721D01*
X233182485Y-169652728D01*
X233165928Y-169638835D01*
X233061164Y-169534071D01*
X233047271Y-169517514D01*
X232962278Y-169396133D01*
X232951479Y-169377430D01*
X232888851Y-169243123D01*
X232881463Y-169222824D01*
X232843112Y-169079696D01*
X232839359Y-169058409D01*
X232825972Y-168905394D01*
X232825500Y-168894587D01*
X232825500Y-168686617D01*
X233823500Y-168686617D01*
X234737011Y-167773105D01*
X236148397Y-167773105D01*
X237210472Y-168835180D01*
X238272547Y-167773105D01*
X239683931Y-167773105D01*
X240746006Y-168835180D01*
X241808081Y-167773105D01*
X243219465Y-167773105D01*
X244281540Y-168835180D01*
X245343615Y-167773105D01*
X244281540Y-166711030D01*
X243219465Y-167773105D01*
X241808081Y-167773105D01*
X240746006Y-166711030D01*
X239683931Y-167773105D01*
X238272547Y-167773105D01*
X237210472Y-166711030D01*
X236148397Y-167773105D01*
X234737011Y-167773105D01*
X234737012Y-167773104D01*
X233823500Y-166859592D01*
X233823500Y-168686617D01*
X232825500Y-168686617D01*
X232825500Y-166005338D01*
X234380630Y-166005338D01*
X235442705Y-167067413D01*
X236504779Y-166005338D01*
X237916164Y-166005338D01*
X238978239Y-167067413D01*
X240040313Y-166005338D01*
X241451698Y-166005338D01*
X242513773Y-167067413D01*
X243575847Y-166005338D01*
X244987232Y-166005338D01*
X245776622Y-166794728D01*
X245776716Y-165215853D01*
X244987232Y-166005338D01*
X243575847Y-166005338D01*
X242513773Y-164943263D01*
X241451698Y-166005338D01*
X240040313Y-166005338D01*
X238978239Y-164943263D01*
X237916164Y-166005338D01*
X236504779Y-166005338D01*
X235442705Y-164943263D01*
X234380630Y-166005338D01*
X232825500Y-166005338D01*
X232825500Y-165151084D01*
X233823500Y-165151084D01*
X234737013Y-164237571D01*
X236148397Y-164237571D01*
X237210472Y-165299646D01*
X238272546Y-164237571D01*
X239683931Y-164237571D01*
X240746006Y-165299646D01*
X241808080Y-164237571D01*
X243219465Y-164237571D01*
X244281540Y-165299646D01*
X245343614Y-164237571D01*
X244281540Y-163175496D01*
X243219465Y-164237571D01*
X241808080Y-164237571D01*
X240746006Y-163175496D01*
X239683931Y-164237571D01*
X238272546Y-164237571D01*
X237210472Y-163175496D01*
X236148397Y-164237571D01*
X234737013Y-164237571D01*
X233823500Y-163324058D01*
X233823500Y-165151084D01*
X232825500Y-165151084D01*
X232825500Y-162469804D01*
X234380630Y-162469804D01*
X235442705Y-163531879D01*
X236504779Y-162469804D01*
X237916164Y-162469804D01*
X238978239Y-163531879D01*
X240040313Y-162469804D01*
X241451698Y-162469804D01*
X242513773Y-163531879D01*
X243575847Y-162469804D01*
X244987232Y-162469804D01*
X245776831Y-163259403D01*
X245776925Y-161680110D01*
X244987232Y-162469804D01*
X243575847Y-162469804D01*
X242513773Y-161407729D01*
X241451698Y-162469804D01*
X240040313Y-162469804D01*
X238978239Y-161407729D01*
X237916164Y-162469804D01*
X236504779Y-162469804D01*
X235442705Y-161407729D01*
X234380630Y-162469804D01*
X232825500Y-162469804D01*
X232825500Y-161615550D01*
X233823500Y-161615550D01*
X234737012Y-160702037D01*
X236148397Y-160702037D01*
X237210472Y-161764112D01*
X238272546Y-160702037D01*
X239683931Y-160702037D01*
X240746006Y-161764112D01*
X241808080Y-160702037D01*
X243219465Y-160702037D01*
X244281540Y-161764112D01*
X245343614Y-160702037D01*
X244281540Y-159639963D01*
X243219465Y-160702037D01*
X241808080Y-160702037D01*
X240746006Y-159639963D01*
X239683931Y-160702037D01*
X238272546Y-160702037D01*
X237210472Y-159639963D01*
X236148397Y-160702037D01*
X234737012Y-160702037D01*
X233823500Y-159788525D01*
X233823500Y-161615550D01*
X232825500Y-161615550D01*
X232825500Y-158934270D01*
X234380630Y-158934270D01*
X235442705Y-159996345D01*
X236504779Y-158934270D01*
X237916164Y-158934270D01*
X238978239Y-159996345D01*
X240040313Y-158934270D01*
X241451698Y-158934270D01*
X242513773Y-159996345D01*
X243575847Y-158934270D01*
X244987232Y-158934270D01*
X245777040Y-159724078D01*
X245777133Y-158144368D01*
X244987232Y-158934270D01*
X243575847Y-158934270D01*
X242513773Y-157872196D01*
X241451698Y-158934270D01*
X240040313Y-158934270D01*
X238978239Y-157872196D01*
X237916164Y-158934270D01*
X236504779Y-158934270D01*
X235442705Y-157872196D01*
X234380630Y-158934270D01*
X232825500Y-158934270D01*
X232825500Y-158080017D01*
X233823500Y-158080017D01*
X234737013Y-157166504D01*
X236148397Y-157166504D01*
X237210472Y-158228579D01*
X238272547Y-157166504D01*
X239683931Y-157166504D01*
X240746006Y-158228579D01*
X241808081Y-157166504D01*
X243219465Y-157166504D01*
X244281540Y-158228579D01*
X245343615Y-157166504D01*
X244281540Y-156104429D01*
X243219465Y-157166504D01*
X241808081Y-157166504D01*
X240746006Y-156104429D01*
X239683931Y-157166504D01*
X238272547Y-157166504D01*
X237210472Y-156104429D01*
X236148397Y-157166504D01*
X234737013Y-157166504D01*
X233823500Y-156252991D01*
X233823500Y-158080017D01*
X232825500Y-158080017D01*
X232825500Y-155398737D01*
X234380630Y-155398737D01*
X235442705Y-156460812D01*
X236504780Y-155398737D01*
X237916164Y-155398737D01*
X238978239Y-156460812D01*
X240040314Y-155398737D01*
X241451698Y-155398737D01*
X242513773Y-156460812D01*
X243575848Y-155398737D01*
X243575847Y-155398736D01*
X244987231Y-155398736D01*
X245777249Y-156188754D01*
X245777342Y-154608625D01*
X244987231Y-155398736D01*
X243575847Y-155398736D01*
X242513773Y-154336662D01*
X241451698Y-155398737D01*
X240040314Y-155398737D01*
X238978239Y-154336662D01*
X237916164Y-155398737D01*
X236504780Y-155398737D01*
X235442705Y-154336662D01*
X234380630Y-155398737D01*
X232825500Y-155398737D01*
X232825500Y-154544483D01*
X233823500Y-154544483D01*
X234737013Y-153630970D01*
X236148397Y-153630970D01*
X237210472Y-154693045D01*
X238272547Y-153630970D01*
X239683931Y-153630970D01*
X240746006Y-154693045D01*
X241808081Y-153630970D01*
X243219465Y-153630970D01*
X244281540Y-154693045D01*
X245343615Y-153630970D01*
X244281540Y-152568895D01*
X243219465Y-153630970D01*
X241808081Y-153630970D01*
X240746006Y-152568895D01*
X239683931Y-153630970D01*
X238272547Y-153630970D01*
X237210472Y-152568895D01*
X236148397Y-153630970D01*
X234737013Y-153630970D01*
X233823500Y-152717457D01*
X233823500Y-154544483D01*
X232825500Y-154544483D01*
X232825500Y-151863203D01*
X234380630Y-151863203D01*
X235442705Y-152925278D01*
X236504780Y-151863203D01*
X237916164Y-151863203D01*
X238978239Y-152925278D01*
X240040314Y-151863203D01*
X241451698Y-151863203D01*
X242513773Y-152925278D01*
X243575848Y-151863203D01*
X243575847Y-151863202D01*
X244987231Y-151863202D01*
X245777458Y-152653429D01*
X245777551Y-151072882D01*
X244987231Y-151863202D01*
X243575847Y-151863202D01*
X242513773Y-150801128D01*
X241451698Y-151863203D01*
X240040314Y-151863203D01*
X238978239Y-150801128D01*
X237916164Y-151863203D01*
X236504780Y-151863203D01*
X235442705Y-150801128D01*
X234380630Y-151863203D01*
X232825500Y-151863203D01*
X232825500Y-151008949D01*
X233823500Y-151008949D01*
X234737013Y-150095436D01*
X236148397Y-150095436D01*
X237210472Y-151157511D01*
X238272547Y-150095436D01*
X239683931Y-150095436D01*
X240746006Y-151157511D01*
X241808081Y-150095436D01*
X243219465Y-150095436D01*
X244281540Y-151157511D01*
X245343615Y-150095436D01*
X244281540Y-149033361D01*
X243219465Y-150095436D01*
X241808081Y-150095436D01*
X240746006Y-149033361D01*
X239683931Y-150095436D01*
X238272547Y-150095436D01*
X237210472Y-149033361D01*
X236148397Y-150095436D01*
X234737013Y-150095436D01*
X233823500Y-149181923D01*
X233823500Y-151008949D01*
X232825500Y-151008949D01*
X232825500Y-148327669D01*
X234380630Y-148327669D01*
X235442705Y-149389744D01*
X236504780Y-148327669D01*
X237916164Y-148327669D01*
X238978239Y-149389744D01*
X240040314Y-148327669D01*
X241451698Y-148327669D01*
X242513773Y-149389744D01*
X243575848Y-148327669D01*
X243575847Y-148327668D01*
X244987231Y-148327668D01*
X245777666Y-149118103D01*
X245777760Y-147537139D01*
X244987231Y-148327668D01*
X243575847Y-148327668D01*
X242513773Y-147265594D01*
X241451698Y-148327669D01*
X240040314Y-148327669D01*
X238978239Y-147265594D01*
X237916164Y-148327669D01*
X236504780Y-148327669D01*
X235442705Y-147265594D01*
X234380630Y-148327669D01*
X232825500Y-148327669D01*
X232825500Y-147473415D01*
X233823500Y-147473415D01*
X234737013Y-146559902D01*
X236148397Y-146559902D01*
X237210472Y-147621977D01*
X238272547Y-146559902D01*
X239683931Y-146559902D01*
X240746006Y-147621977D01*
X241808081Y-146559902D01*
X243219465Y-146559902D01*
X244281540Y-147621977D01*
X245343615Y-146559902D01*
X244281540Y-145497827D01*
X243219465Y-146559902D01*
X241808081Y-146559902D01*
X240746006Y-145497827D01*
X239683931Y-146559902D01*
X238272547Y-146559902D01*
X237210472Y-145497827D01*
X236148397Y-146559902D01*
X234737013Y-146559902D01*
X233823500Y-145646389D01*
X233823500Y-147473415D01*
X232825500Y-147473415D01*
X232825500Y-144792135D01*
X234380630Y-144792135D01*
X235442705Y-145854210D01*
X236504780Y-144792135D01*
X237916164Y-144792135D01*
X238978239Y-145854210D01*
X240040314Y-144792135D01*
X241451698Y-144792135D01*
X242513773Y-145854210D01*
X243575848Y-144792135D01*
X243575847Y-144792134D01*
X244987231Y-144792134D01*
X245777875Y-145582778D01*
X245777969Y-144001396D01*
X244987231Y-144792134D01*
X243575847Y-144792134D01*
X242513773Y-143730060D01*
X241451698Y-144792135D01*
X240040314Y-144792135D01*
X238978239Y-143730060D01*
X237916164Y-144792135D01*
X236504780Y-144792135D01*
X235442705Y-143730060D01*
X234380630Y-144792135D01*
X232825500Y-144792135D01*
X232825500Y-143937881D01*
X233823500Y-143937881D01*
X234737013Y-143024368D01*
X236148397Y-143024368D01*
X237210472Y-144086443D01*
X238272547Y-143024368D01*
X239683931Y-143024368D01*
X240746006Y-144086443D01*
X241808081Y-143024368D01*
X243219465Y-143024368D01*
X244281540Y-144086443D01*
X245343615Y-143024368D01*
X244281540Y-141962293D01*
X243219465Y-143024368D01*
X241808081Y-143024368D01*
X240746006Y-141962293D01*
X239683931Y-143024368D01*
X238272547Y-143024368D01*
X237210472Y-141962293D01*
X236148397Y-143024368D01*
X234737013Y-143024368D01*
X233823500Y-142110855D01*
X233823500Y-143937881D01*
X232825500Y-143937881D01*
X232825500Y-141256601D01*
X234380630Y-141256601D01*
X235442705Y-142318676D01*
X236504780Y-141256601D01*
X237916164Y-141256601D01*
X238978239Y-142318676D01*
X240040314Y-141256601D01*
X241451698Y-141256601D01*
X242513773Y-142318676D01*
X243575848Y-141256601D01*
X243575847Y-141256600D01*
X244987231Y-141256600D01*
X245778084Y-142047453D01*
X245778178Y-140465653D01*
X244987231Y-141256600D01*
X243575847Y-141256600D01*
X242513773Y-140194526D01*
X241451698Y-141256601D01*
X240040314Y-141256601D01*
X238978239Y-140194526D01*
X237916164Y-141256601D01*
X236504780Y-141256601D01*
X235442705Y-140194526D01*
X234380630Y-141256601D01*
X232825500Y-141256601D01*
X232825500Y-140402347D01*
X233823500Y-140402347D01*
X234737013Y-139488834D01*
X236148397Y-139488834D01*
X237210472Y-140550909D01*
X238272547Y-139488834D01*
X239683931Y-139488834D01*
X240746006Y-140550909D01*
X241808081Y-139488834D01*
X243219465Y-139488834D01*
X244281540Y-140550909D01*
X245343615Y-139488834D01*
X244281540Y-138426759D01*
X243219465Y-139488834D01*
X241808081Y-139488834D01*
X240746006Y-138426759D01*
X239683931Y-139488834D01*
X238272547Y-139488834D01*
X237210472Y-138426759D01*
X236148397Y-139488834D01*
X234737013Y-139488834D01*
X233823500Y-138575321D01*
X233823500Y-140402347D01*
X232825500Y-140402347D01*
X232825500Y-137721067D01*
X234380630Y-137721067D01*
X235442705Y-138783142D01*
X236504780Y-137721067D01*
X237916164Y-137721067D01*
X238978239Y-138783142D01*
X240040314Y-137721067D01*
X241451698Y-137721067D01*
X242513773Y-138783142D01*
X243575848Y-137721067D01*
X243575847Y-137721066D01*
X244987231Y-137721066D01*
X245778293Y-138512128D01*
X245778358Y-137423524D01*
X245692147Y-137423626D01*
X245690851Y-137423500D01*
X245681911Y-137423500D01*
X245676183Y-137423368D01*
X245641562Y-137421767D01*
X245635848Y-137421370D01*
X245589922Y-137417114D01*
X245584233Y-137416454D01*
X245549909Y-137411666D01*
X245544255Y-137410744D01*
X245336407Y-137371890D01*
X244987231Y-137721066D01*
X243575847Y-137721066D01*
X242513773Y-136658992D01*
X241451698Y-137721067D01*
X240040314Y-137721067D01*
X238978239Y-136658992D01*
X237916164Y-137721067D01*
X236504780Y-137721067D01*
X235442705Y-136658992D01*
X234380630Y-137721067D01*
X232825500Y-137721067D01*
X232825500Y-136549500D01*
X232845185Y-136482461D01*
X232897989Y-136436706D01*
X232949500Y-136425500D01*
X233895025Y-136425500D01*
X233895027Y-136425500D01*
X234081844Y-136390577D01*
X234259063Y-136321922D01*
X234420649Y-136221872D01*
X234561100Y-136093834D01*
X234667227Y-135953300D01*
X236148397Y-135953300D01*
X237210472Y-137015375D01*
X238272547Y-135953300D01*
X239683931Y-135953300D01*
X240746006Y-137015375D01*
X241808081Y-135953300D01*
X241808080Y-135953299D01*
X243219464Y-135953299D01*
X244281539Y-137015374D01*
X244418338Y-136878575D01*
X244349508Y-136815828D01*
X244345366Y-136811872D01*
X244320857Y-136787363D01*
X244316900Y-136783219D01*
X244285829Y-136749135D01*
X244282070Y-136744816D01*
X244259934Y-136718159D01*
X244256377Y-136713668D01*
X244114047Y-136525194D01*
X244110701Y-136520543D01*
X244091110Y-136491943D01*
X244087981Y-136487141D01*
X244063702Y-136447926D01*
X244060802Y-136442991D01*
X244043943Y-136412723D01*
X244041272Y-136407656D01*
X243936001Y-136196244D01*
X243933567Y-136191058D01*
X243919567Y-136159351D01*
X243917375Y-136154059D01*
X243900713Y-136111050D01*
X243898767Y-136105661D01*
X243887754Y-136072802D01*
X243886059Y-136067330D01*
X243821430Y-135840177D01*
X243819991Y-135834634D01*
X243812059Y-135800909D01*
X243810877Y-135795308D01*
X243802401Y-135749973D01*
X243801478Y-135744315D01*
X243796689Y-135709983D01*
X243796029Y-135704293D01*
X243774237Y-135469122D01*
X243773840Y-135463409D01*
X243772239Y-135428789D01*
X243772107Y-135423061D01*
X243772107Y-135400657D01*
X243219464Y-135953299D01*
X241808080Y-135953299D01*
X240746006Y-134891225D01*
X239683931Y-135953300D01*
X238272547Y-135953300D01*
X237210472Y-134891225D01*
X236148397Y-135953300D01*
X234667227Y-135953300D01*
X234675633Y-135942169D01*
X234760347Y-135772040D01*
X234812357Y-135589242D01*
X234829893Y-135400000D01*
X234812357Y-135210758D01*
X234760347Y-135027960D01*
X234759906Y-135027075D01*
X234692261Y-134891225D01*
X234675633Y-134857831D01*
X234561100Y-134706166D01*
X234548126Y-134694339D01*
X234420650Y-134578129D01*
X234420649Y-134578128D01*
X234259063Y-134478078D01*
X234259061Y-134478077D01*
X234259057Y-134478075D01*
X234162517Y-134440676D01*
X234081844Y-134409423D01*
X233895027Y-134374500D01*
X233895025Y-134374500D01*
X233808126Y-134374500D01*
X233791941Y-134373439D01*
X233780208Y-134371894D01*
X233693375Y-134360462D01*
X233662109Y-134352084D01*
X233577834Y-134317177D01*
X233549800Y-134300992D01*
X233514540Y-134273936D01*
X233477428Y-134245458D01*
X233454541Y-134222571D01*
X233422912Y-134181352D01*
X233399005Y-134150197D01*
X233382823Y-134122168D01*
X233358818Y-134064213D01*
X233347915Y-134037890D01*
X233339537Y-134006623D01*
X233328594Y-133923500D01*
X235183937Y-133923500D01*
X235250491Y-133984172D01*
X235254634Y-133988128D01*
X235279143Y-134012637D01*
X235283100Y-134016781D01*
X235314171Y-134050865D01*
X235317930Y-134055184D01*
X235340066Y-134081841D01*
X235343623Y-134086332D01*
X235485953Y-134274806D01*
X235489299Y-134279457D01*
X235508890Y-134308057D01*
X235512019Y-134312859D01*
X235536298Y-134352074D01*
X235539198Y-134357009D01*
X235556057Y-134387277D01*
X235558728Y-134392344D01*
X235663999Y-134603756D01*
X235666433Y-134608942D01*
X235680433Y-134640649D01*
X235682625Y-134645941D01*
X235699287Y-134688950D01*
X235701233Y-134694339D01*
X235712246Y-134727198D01*
X235713941Y-134732670D01*
X235767920Y-134922391D01*
X235897606Y-134792705D01*
X238523336Y-134792705D01*
X238978239Y-135247608D01*
X240040314Y-134185533D01*
X239628757Y-133773976D01*
X239515249Y-133980446D01*
X239512314Y-133985498D01*
X239493841Y-134015643D01*
X239490670Y-134020554D01*
X239464226Y-134059463D01*
X239460832Y-134064213D01*
X239439612Y-134092476D01*
X239435994Y-134097066D01*
X239282416Y-134282710D01*
X239278586Y-134287122D01*
X239254795Y-134313268D01*
X239250762Y-134317496D01*
X239217496Y-134350762D01*
X239213268Y-134354795D01*
X239187122Y-134378586D01*
X239182710Y-134382416D01*
X238997066Y-134535994D01*
X238992476Y-134539612D01*
X238964213Y-134560832D01*
X238959463Y-134564226D01*
X238920554Y-134590670D01*
X238915643Y-134593841D01*
X238885498Y-134612314D01*
X238880446Y-134615249D01*
X238669306Y-134731325D01*
X238664120Y-134734019D01*
X238632374Y-134749571D01*
X238627069Y-134752017D01*
X238583893Y-134770701D01*
X238578476Y-134772894D01*
X238545408Y-134785389D01*
X238539896Y-134787325D01*
X238523336Y-134792705D01*
X235897606Y-134792705D01*
X236363705Y-134326606D01*
X236242396Y-134197425D01*
X236238497Y-134193071D01*
X236215539Y-134166190D01*
X236211850Y-134161660D01*
X236183017Y-134124488D01*
X236179547Y-134119790D01*
X236159222Y-134090871D01*
X236155975Y-134086012D01*
X236052841Y-133923500D01*
X235183937Y-133923500D01*
X233328594Y-133923500D01*
X233326561Y-133908059D01*
X233325500Y-133891874D01*
X233325500Y-133408125D01*
X233326561Y-133391940D01*
X233329754Y-133367685D01*
X233339537Y-133293375D01*
X233347915Y-133262109D01*
X233378856Y-133187410D01*
X233382825Y-133177828D01*
X233399003Y-133149805D01*
X233454541Y-133077427D01*
X233477428Y-133054541D01*
X233549805Y-132999003D01*
X233577828Y-132982825D01*
X233662109Y-132947915D01*
X233693375Y-132939537D01*
X233791941Y-132926561D01*
X233808126Y-132925500D01*
X233808285Y-132925500D01*
X236658196Y-132925500D01*
X236725235Y-132945185D01*
X236770990Y-132997989D01*
X236779999Y-133026262D01*
X236791053Y-133084212D01*
X236810739Y-133187410D01*
X236882111Y-133367675D01*
X236882117Y-133367687D01*
X236952784Y-133479039D01*
X236986010Y-133531395D01*
X237118740Y-133672738D01*
X237170394Y-133710267D01*
X237275604Y-133786707D01*
X237304536Y-133800321D01*
X237451044Y-133869262D01*
X237638847Y-133917482D01*
X237832358Y-133929657D01*
X238024724Y-133905355D01*
X238209128Y-133845439D01*
X238379039Y-133752029D01*
X238528437Y-133628437D01*
X238652029Y-133479039D01*
X238745439Y-133309128D01*
X238805355Y-133124724D01*
X238829657Y-132932358D01*
X238817482Y-132738847D01*
X238769262Y-132551044D01*
X238709223Y-132423455D01*
X238686707Y-132375604D01*
X238584610Y-132235081D01*
X238572738Y-132218740D01*
X238431395Y-132086010D01*
X238267685Y-131982116D01*
X238267675Y-131982111D01*
X238087409Y-131910739D01*
X238087410Y-131910739D01*
X237896942Y-131874406D01*
X237800000Y-131874500D01*
X226800000Y-131874500D01*
X226703056Y-131874406D01*
X226512589Y-131910739D01*
X226332324Y-131982111D01*
X226332312Y-131982117D01*
X226168610Y-132086006D01*
X226168602Y-132086012D01*
X226027263Y-132218738D01*
X225913292Y-132375604D01*
X225830737Y-132551047D01*
X225830736Y-132551050D01*
X225782518Y-132738844D01*
X225770343Y-132932355D01*
X225770343Y-132932362D01*
X225794644Y-133124721D01*
X225794645Y-133124725D01*
X225854560Y-133309124D01*
X225854561Y-133309128D01*
X225947971Y-133479039D01*
X225947971Y-133479040D01*
X225991278Y-133531389D01*
X226071563Y-133628437D01*
X226220961Y-133752029D01*
X226390872Y-133845439D01*
X226575276Y-133905355D01*
X226767642Y-133929657D01*
X226961153Y-133917482D01*
X227148956Y-133869262D01*
X227324397Y-133786706D01*
X227481260Y-133672738D01*
X227613990Y-133531395D01*
X227717884Y-133367685D01*
X227718796Y-133365381D01*
X227789260Y-133187410D01*
X227793965Y-133162750D01*
X227820000Y-133026264D01*
X227851898Y-132964101D01*
X227912340Y-132929051D01*
X227941804Y-132925500D01*
X230791715Y-132925500D01*
X230791874Y-132925500D01*
X230808059Y-132926561D01*
X230906623Y-132939537D01*
X230937890Y-132947915D01*
X230982649Y-132966454D01*
X231022168Y-132982823D01*
X231050197Y-132999005D01*
X231085460Y-133026064D01*
X231122571Y-133054541D01*
X231145458Y-133077428D01*
X231200991Y-133149798D01*
X231217177Y-133177834D01*
X231252084Y-133262109D01*
X231260462Y-133293375D01*
X231273439Y-133391939D01*
X231274500Y-133408125D01*
X231274500Y-133891874D01*
X231273439Y-133908060D01*
X231260462Y-134006624D01*
X231252084Y-134037890D01*
X231217177Y-134122165D01*
X231200991Y-134150201D01*
X231145458Y-134222571D01*
X231122571Y-134245458D01*
X231050201Y-134300991D01*
X231022165Y-134317177D01*
X230937890Y-134352084D01*
X230906624Y-134360462D01*
X230818244Y-134372098D01*
X230808058Y-134373439D01*
X230791874Y-134374500D01*
X230704973Y-134374500D01*
X230518156Y-134409423D01*
X230340942Y-134478075D01*
X230340938Y-134478077D01*
X230179349Y-134578129D01*
X230038901Y-134706164D01*
X229924367Y-134857830D01*
X229839653Y-135027957D01*
X229787642Y-135210760D01*
X229770107Y-135399999D01*
X229770107Y-135400000D01*
X229787642Y-135589239D01*
X229839653Y-135772042D01*
X229873581Y-135840177D01*
X229924367Y-135942169D01*
X230038900Y-136093834D01*
X230179351Y-136221872D01*
X230340937Y-136321922D01*
X230518156Y-136390577D01*
X230704973Y-136425500D01*
X230764815Y-136425500D01*
X230765015Y-136425539D01*
X230789467Y-136425510D01*
X230789468Y-136425511D01*
X230798719Y-136425500D01*
X230798762Y-136425500D01*
X230829145Y-136425500D01*
X230829360Y-136425463D01*
X231652267Y-136424488D01*
X231719327Y-136444093D01*
X231765144Y-136496843D01*
X231776411Y-136548495D01*
X231774500Y-168891717D01*
X231774500Y-168894587D01*
X231774028Y-168905395D01*
X231760640Y-169058410D01*
X231756887Y-169079696D01*
X231718536Y-169222824D01*
X231711144Y-169243133D01*
X231648524Y-169377421D01*
X231637721Y-169396133D01*
X231552728Y-169517514D01*
X231538835Y-169534071D01*
X231434071Y-169638835D01*
X231417514Y-169652728D01*
X231296133Y-169737721D01*
X231277421Y-169748524D01*
X231143134Y-169811144D01*
X231122824Y-169818536D01*
X230979696Y-169856887D01*
X230958410Y-169860640D01*
X230822206Y-169872557D01*
X230805393Y-169874028D01*
X230794588Y-169874500D01*
X218805412Y-169874500D01*
X218794606Y-169874028D01*
X218775883Y-169872390D01*
X218641589Y-169860640D01*
X218620303Y-169856887D01*
X218477175Y-169818536D01*
X218456870Y-169811146D01*
X218322573Y-169748522D01*
X218303866Y-169737721D01*
X218182485Y-169652728D01*
X218165928Y-169638835D01*
X218061164Y-169534071D01*
X218047271Y-169517514D01*
X217962278Y-169396133D01*
X217951479Y-169377430D01*
X217888851Y-169243123D01*
X217881463Y-169222824D01*
X217843112Y-169079696D01*
X217839359Y-169058409D01*
X217825972Y-168905394D01*
X217825500Y-168894587D01*
X217825500Y-167420333D01*
X218823500Y-167420333D01*
X218823500Y-168125877D01*
X219532803Y-168835180D01*
X220594878Y-167773105D01*
X222006262Y-167773105D01*
X223068336Y-168835179D01*
X224130411Y-167773105D01*
X225541796Y-167773105D01*
X226603870Y-168835179D01*
X227665945Y-167773105D01*
X229077329Y-167773105D01*
X230139403Y-168835179D01*
X230776540Y-168198043D01*
X230776589Y-167348215D01*
X230139404Y-166711030D01*
X229077329Y-167773105D01*
X227665945Y-167773105D01*
X226603870Y-166711030D01*
X225541796Y-167773105D01*
X224130411Y-167773105D01*
X223068336Y-166711030D01*
X222006262Y-167773105D01*
X220594878Y-167773105D01*
X219532803Y-166711030D01*
X218823500Y-167420333D01*
X217825500Y-167420333D01*
X217825500Y-166005338D01*
X220238495Y-166005338D01*
X221300570Y-167067413D01*
X222362644Y-166005338D01*
X223774029Y-166005338D01*
X224836103Y-167067412D01*
X225898178Y-166005338D01*
X227309562Y-166005338D01*
X228371637Y-167067412D01*
X229433711Y-166005338D01*
X228371637Y-164943263D01*
X227309562Y-166005338D01*
X225898178Y-166005338D01*
X224836103Y-164943263D01*
X223774029Y-166005338D01*
X222362644Y-166005338D01*
X221300570Y-164943263D01*
X220238495Y-166005338D01*
X217825500Y-166005338D01*
X217825500Y-163884799D01*
X218823500Y-163884799D01*
X218823500Y-164590343D01*
X219532803Y-165299646D01*
X220594877Y-164237571D01*
X222006262Y-164237571D01*
X223068336Y-165299645D01*
X224130411Y-164237571D01*
X225541796Y-164237571D01*
X226603870Y-165299645D01*
X227665945Y-164237571D01*
X229077329Y-164237571D01*
X230139403Y-165299645D01*
X230776749Y-164662300D01*
X230776798Y-163812891D01*
X230139404Y-163175496D01*
X229077329Y-164237571D01*
X227665945Y-164237571D01*
X226603870Y-163175496D01*
X225541796Y-164237571D01*
X224130411Y-164237571D01*
X223068336Y-163175496D01*
X222006262Y-164237571D01*
X220594877Y-164237571D01*
X219532802Y-163175496D01*
X218823500Y-163884799D01*
X217825500Y-163884799D01*
X217825500Y-162469804D01*
X220238495Y-162469804D01*
X221300570Y-163531879D01*
X222362644Y-162469804D01*
X223774029Y-162469804D01*
X224836103Y-163531878D01*
X225898178Y-162469804D01*
X227309562Y-162469804D01*
X228371637Y-163531878D01*
X229433711Y-162469804D01*
X228371637Y-161407729D01*
X227309562Y-162469804D01*
X225898178Y-162469804D01*
X224836103Y-161407729D01*
X223774029Y-162469804D01*
X222362644Y-162469804D01*
X221300570Y-161407729D01*
X220238495Y-162469804D01*
X217825500Y-162469804D01*
X217825500Y-160349266D01*
X218823500Y-160349266D01*
X218823500Y-161054809D01*
X219532803Y-161764112D01*
X220594877Y-160702037D01*
X222006262Y-160702037D01*
X223068336Y-161764112D01*
X224130411Y-160702037D01*
X225541796Y-160702037D01*
X226603870Y-161764112D01*
X227665945Y-160702037D01*
X229077329Y-160702037D01*
X230139404Y-161764112D01*
X230776958Y-161126557D01*
X230777007Y-160277566D01*
X230139404Y-159639963D01*
X229077329Y-160702037D01*
X227665945Y-160702037D01*
X226603870Y-159639963D01*
X225541796Y-160702037D01*
X224130411Y-160702037D01*
X223068336Y-159639963D01*
X222006262Y-160702037D01*
X220594877Y-160702037D01*
X219532803Y-159639963D01*
X218823500Y-160349266D01*
X217825500Y-160349266D01*
X217825500Y-158934270D01*
X220238495Y-158934270D01*
X221300570Y-159996345D01*
X222362644Y-158934270D01*
X223774029Y-158934270D01*
X224836103Y-159996345D01*
X225898178Y-158934270D01*
X227309562Y-158934270D01*
X228371637Y-159996345D01*
X229433711Y-158934270D01*
X228371637Y-157872196D01*
X227309562Y-158934270D01*
X225898178Y-158934270D01*
X224836103Y-157872196D01*
X223774029Y-158934270D01*
X222362644Y-158934270D01*
X221300570Y-157872196D01*
X220238495Y-158934270D01*
X217825500Y-158934270D01*
X217825500Y-156813732D01*
X218823500Y-156813732D01*
X218823500Y-157519276D01*
X219532803Y-158228579D01*
X220594878Y-157166504D01*
X222006262Y-157166504D01*
X223068336Y-158228578D01*
X224130411Y-157166504D01*
X225541796Y-157166504D01*
X226603870Y-158228578D01*
X227665945Y-157166504D01*
X229077329Y-157166504D01*
X230139403Y-158228578D01*
X230777166Y-157590815D01*
X230777216Y-156742241D01*
X230139404Y-156104429D01*
X229077329Y-157166504D01*
X227665945Y-157166504D01*
X226603870Y-156104429D01*
X225541796Y-157166504D01*
X224130411Y-157166504D01*
X223068336Y-156104429D01*
X222006262Y-157166504D01*
X220594878Y-157166504D01*
X219532803Y-156104429D01*
X218823500Y-156813732D01*
X217825500Y-156813732D01*
X217825500Y-155398737D01*
X220238495Y-155398737D01*
X221300570Y-156460812D01*
X222362645Y-155398737D01*
X223774029Y-155398737D01*
X224836103Y-156460811D01*
X225898178Y-155398737D01*
X227309562Y-155398737D01*
X228371637Y-156460811D01*
X229433712Y-155398737D01*
X228371637Y-154336662D01*
X227309562Y-155398737D01*
X225898178Y-155398737D01*
X224836103Y-154336662D01*
X223774029Y-155398737D01*
X222362645Y-155398737D01*
X221300570Y-154336662D01*
X220238495Y-155398737D01*
X217825500Y-155398737D01*
X217825500Y-153278198D01*
X218823500Y-153278198D01*
X218823500Y-153983742D01*
X219532803Y-154693045D01*
X220594878Y-153630970D01*
X222006262Y-153630970D01*
X223068336Y-154693044D01*
X224130411Y-153630970D01*
X225541796Y-153630970D01*
X226603870Y-154693044D01*
X227665945Y-153630970D01*
X229077329Y-153630970D01*
X230139403Y-154693044D01*
X230777375Y-154055072D01*
X230777425Y-153206916D01*
X230139404Y-152568895D01*
X229077329Y-153630970D01*
X227665945Y-153630970D01*
X226603870Y-152568895D01*
X225541796Y-153630970D01*
X224130411Y-153630970D01*
X223068336Y-152568895D01*
X222006262Y-153630970D01*
X220594878Y-153630970D01*
X219532803Y-152568895D01*
X218823500Y-153278198D01*
X217825500Y-153278198D01*
X217825500Y-151863203D01*
X220238495Y-151863203D01*
X221300570Y-152925278D01*
X222362645Y-151863203D01*
X223774029Y-151863203D01*
X224836103Y-152925277D01*
X225898178Y-151863203D01*
X227309562Y-151863203D01*
X228371637Y-152925277D01*
X229433712Y-151863203D01*
X228371637Y-150801128D01*
X227309562Y-151863203D01*
X225898178Y-151863203D01*
X224836103Y-150801128D01*
X223774029Y-151863203D01*
X222362645Y-151863203D01*
X221300570Y-150801128D01*
X220238495Y-151863203D01*
X217825500Y-151863203D01*
X217825500Y-149742664D01*
X218823500Y-149742664D01*
X218823500Y-150448208D01*
X219532803Y-151157511D01*
X220594878Y-150095436D01*
X222006262Y-150095436D01*
X223068336Y-151157510D01*
X224130411Y-150095436D01*
X225541796Y-150095436D01*
X226603870Y-151157510D01*
X227665945Y-150095436D01*
X229077329Y-150095436D01*
X230139403Y-151157510D01*
X230777584Y-150519330D01*
X230777633Y-149671590D01*
X230139404Y-149033361D01*
X229077329Y-150095436D01*
X227665945Y-150095436D01*
X226603870Y-149033361D01*
X225541796Y-150095436D01*
X224130411Y-150095436D01*
X223068336Y-149033361D01*
X222006262Y-150095436D01*
X220594878Y-150095436D01*
X219532803Y-149033361D01*
X218823500Y-149742664D01*
X217825500Y-149742664D01*
X217825500Y-148327669D01*
X220238495Y-148327669D01*
X221300570Y-149389744D01*
X222362645Y-148327669D01*
X223774029Y-148327669D01*
X224836103Y-149389743D01*
X225898178Y-148327669D01*
X227309562Y-148327669D01*
X228371637Y-149389743D01*
X229433712Y-148327669D01*
X228371637Y-147265594D01*
X227309562Y-148327669D01*
X225898178Y-148327669D01*
X224836103Y-147265594D01*
X223774029Y-148327669D01*
X222362645Y-148327669D01*
X221300570Y-147265594D01*
X220238495Y-148327669D01*
X217825500Y-148327669D01*
X217825500Y-146207130D01*
X218823500Y-146207130D01*
X218823500Y-146912674D01*
X219532803Y-147621977D01*
X220594878Y-146559902D01*
X222006262Y-146559902D01*
X223068336Y-147621976D01*
X224130411Y-146559902D01*
X225541796Y-146559902D01*
X226603870Y-147621976D01*
X227665945Y-146559902D01*
X229077329Y-146559902D01*
X230139403Y-147621976D01*
X230777793Y-146983587D01*
X230777842Y-146136265D01*
X230139404Y-145497827D01*
X229077329Y-146559902D01*
X227665945Y-146559902D01*
X226603870Y-145497827D01*
X225541796Y-146559902D01*
X224130411Y-146559902D01*
X223068336Y-145497827D01*
X222006262Y-146559902D01*
X220594878Y-146559902D01*
X219532803Y-145497827D01*
X218823500Y-146207130D01*
X217825500Y-146207130D01*
X217825500Y-144792135D01*
X220238495Y-144792135D01*
X221300570Y-145854210D01*
X222362645Y-144792135D01*
X223774029Y-144792135D01*
X224836103Y-145854209D01*
X225898178Y-144792135D01*
X227309562Y-144792135D01*
X228371637Y-145854209D01*
X229433712Y-144792135D01*
X228371637Y-143730060D01*
X227309562Y-144792135D01*
X225898178Y-144792135D01*
X224836103Y-143730060D01*
X223774029Y-144792135D01*
X222362645Y-144792135D01*
X221300570Y-143730060D01*
X220238495Y-144792135D01*
X217825500Y-144792135D01*
X217825500Y-142671596D01*
X218823500Y-142671596D01*
X218823500Y-143377140D01*
X219532803Y-144086443D01*
X220594878Y-143024368D01*
X222006262Y-143024368D01*
X223068336Y-144086442D01*
X224130411Y-143024368D01*
X225541796Y-143024368D01*
X226603870Y-144086442D01*
X227665945Y-143024368D01*
X229077329Y-143024368D01*
X230139403Y-144086442D01*
X230778002Y-143447844D01*
X230778051Y-142600940D01*
X230139404Y-141962293D01*
X229077329Y-143024368D01*
X227665945Y-143024368D01*
X226603870Y-141962293D01*
X225541796Y-143024368D01*
X224130411Y-143024368D01*
X223068336Y-141962293D01*
X222006262Y-143024368D01*
X220594878Y-143024368D01*
X219532803Y-141962293D01*
X218823500Y-142671596D01*
X217825500Y-142671596D01*
X217825500Y-141256601D01*
X220238495Y-141256601D01*
X221300570Y-142318676D01*
X222362645Y-141256601D01*
X223774029Y-141256601D01*
X224836103Y-142318675D01*
X225898178Y-141256601D01*
X227309562Y-141256601D01*
X228371637Y-142318675D01*
X229433712Y-141256601D01*
X228371637Y-140194526D01*
X227309562Y-141256601D01*
X225898178Y-141256601D01*
X224836103Y-140194526D01*
X223774029Y-141256601D01*
X222362645Y-141256601D01*
X221300570Y-140194526D01*
X220238495Y-141256601D01*
X217825500Y-141256601D01*
X217825500Y-139136062D01*
X218823500Y-139136062D01*
X218823500Y-139841606D01*
X219532803Y-140550909D01*
X220594878Y-139488834D01*
X222006262Y-139488834D01*
X223068336Y-140550908D01*
X224130411Y-139488834D01*
X225541796Y-139488834D01*
X226603870Y-140550908D01*
X227665945Y-139488834D01*
X229077329Y-139488834D01*
X230139403Y-140550908D01*
X230778211Y-139912101D01*
X230778260Y-139065615D01*
X230139404Y-138426759D01*
X229077329Y-139488834D01*
X227665945Y-139488834D01*
X226603870Y-138426759D01*
X225541796Y-139488834D01*
X224130411Y-139488834D01*
X223068336Y-138426759D01*
X222006262Y-139488834D01*
X220594878Y-139488834D01*
X219532803Y-138426759D01*
X218823500Y-139136062D01*
X217825500Y-139136062D01*
X217825500Y-137721067D01*
X220238495Y-137721067D01*
X221300570Y-138783142D01*
X222362645Y-137721067D01*
X223774029Y-137721067D01*
X224836103Y-138783141D01*
X225898178Y-137721067D01*
X227309562Y-137721067D01*
X228371637Y-138783141D01*
X229433712Y-137721067D01*
X228371637Y-136658992D01*
X227309562Y-137721067D01*
X225898178Y-137721067D01*
X224836103Y-136658992D01*
X223774029Y-137721067D01*
X222362645Y-137721067D01*
X221300570Y-136658992D01*
X220238495Y-137721067D01*
X217825500Y-137721067D01*
X217825500Y-136549500D01*
X217845185Y-136482461D01*
X217897989Y-136436706D01*
X217949500Y-136425500D01*
X218895025Y-136425500D01*
X218895027Y-136425500D01*
X219081844Y-136390577D01*
X219259063Y-136321922D01*
X219420649Y-136221872D01*
X219561100Y-136093834D01*
X219667228Y-135953299D01*
X222006261Y-135953299D01*
X223068336Y-137015374D01*
X224130411Y-135953299D01*
X225541795Y-135953299D01*
X226603870Y-137015374D01*
X227665945Y-135953299D01*
X226630969Y-134918323D01*
X226582851Y-134912244D01*
X225541795Y-135953299D01*
X224130411Y-135953299D01*
X223081256Y-134904144D01*
X223051680Y-134907880D01*
X222006261Y-135953299D01*
X219667228Y-135953299D01*
X219675633Y-135942169D01*
X219760347Y-135772040D01*
X219812357Y-135589242D01*
X219829893Y-135400000D01*
X219812357Y-135210758D01*
X219760347Y-135027960D01*
X219759906Y-135027075D01*
X219692261Y-134891225D01*
X219675633Y-134857831D01*
X219561100Y-134706166D01*
X219548126Y-134694339D01*
X219420650Y-134578129D01*
X219420649Y-134578128D01*
X219259063Y-134478078D01*
X219259061Y-134478077D01*
X219259057Y-134478075D01*
X219162517Y-134440676D01*
X219081844Y-134409423D01*
X218895027Y-134374500D01*
X218895025Y-134374500D01*
X218808126Y-134374500D01*
X218791941Y-134373439D01*
X218780208Y-134371894D01*
X218693375Y-134360462D01*
X218662109Y-134352084D01*
X218577834Y-134317177D01*
X218549800Y-134300992D01*
X218514540Y-134273936D01*
X218477428Y-134245458D01*
X218454541Y-134222571D01*
X218422912Y-134181352D01*
X218399005Y-134150197D01*
X218382823Y-134122168D01*
X218366610Y-134083024D01*
X220341003Y-134083024D01*
X220343623Y-134086332D01*
X220485953Y-134274806D01*
X220489299Y-134279457D01*
X220508890Y-134308057D01*
X220512019Y-134312859D01*
X220536298Y-134352074D01*
X220539198Y-134357009D01*
X220556057Y-134387277D01*
X220558728Y-134392344D01*
X220663999Y-134603756D01*
X220666434Y-134608943D01*
X220670014Y-134617052D01*
X221300569Y-135247607D01*
X221855964Y-134692212D01*
X221829390Y-134679708D01*
X221824160Y-134677095D01*
X221792908Y-134660547D01*
X221787810Y-134657691D01*
X221747315Y-134633741D01*
X221742359Y-134630650D01*
X221712823Y-134611248D01*
X221708017Y-134607927D01*
X221529607Y-134478304D01*
X224066800Y-134478304D01*
X224836103Y-135247607D01*
X225415368Y-134668341D01*
X227792370Y-134668341D01*
X228371636Y-135247607D01*
X228885853Y-134733390D01*
X228886060Y-134732666D01*
X228887754Y-134727198D01*
X228898767Y-134694339D01*
X228900713Y-134688950D01*
X228917375Y-134645941D01*
X228919567Y-134640649D01*
X228933567Y-134608942D01*
X228936001Y-134603756D01*
X229041272Y-134392344D01*
X229043943Y-134387277D01*
X229060802Y-134357009D01*
X229063702Y-134352074D01*
X229087981Y-134312859D01*
X229091110Y-134308057D01*
X229110701Y-134279457D01*
X229114047Y-134274806D01*
X229256377Y-134086332D01*
X229259934Y-134081841D01*
X229282070Y-134055184D01*
X229285829Y-134050865D01*
X229292130Y-134043951D01*
X229171679Y-133923500D01*
X228547159Y-133923500D01*
X228444025Y-134086012D01*
X228440778Y-134090871D01*
X228420453Y-134119790D01*
X228416983Y-134124488D01*
X228388150Y-134161660D01*
X228384461Y-134166190D01*
X228361503Y-134193071D01*
X228357604Y-134197425D01*
X228192665Y-134373067D01*
X228188567Y-134377230D01*
X228163174Y-134401838D01*
X228158879Y-134405808D01*
X228123589Y-134436918D01*
X228119118Y-134440676D01*
X228091539Y-134462770D01*
X228086897Y-134466313D01*
X227891983Y-134607927D01*
X227887177Y-134611248D01*
X227857641Y-134630650D01*
X227852685Y-134633741D01*
X227812190Y-134657691D01*
X227807092Y-134660547D01*
X227792370Y-134668341D01*
X225415368Y-134668341D01*
X225572715Y-134510994D01*
X225417290Y-134382416D01*
X225412878Y-134378586D01*
X225386732Y-134354795D01*
X225382504Y-134350762D01*
X225349238Y-134317496D01*
X225345205Y-134313268D01*
X225321414Y-134287122D01*
X225317584Y-134282710D01*
X225164006Y-134097066D01*
X225160388Y-134092476D01*
X225139168Y-134064213D01*
X225135774Y-134059463D01*
X225109330Y-134020554D01*
X225106159Y-134015643D01*
X225087686Y-133985498D01*
X225084751Y-133980446D01*
X224968675Y-133769306D01*
X224965981Y-133764120D01*
X224950429Y-133732374D01*
X224947983Y-133727069D01*
X224929299Y-133683893D01*
X224927106Y-133678476D01*
X224914611Y-133645408D01*
X224912675Y-133639896D01*
X224838221Y-133410748D01*
X224836546Y-133405149D01*
X224827218Y-133371050D01*
X224825810Y-133365381D01*
X224815548Y-133319471D01*
X224814409Y-133313741D01*
X224808332Y-133278923D01*
X224807463Y-133273145D01*
X224799999Y-133214068D01*
X224792537Y-133273144D01*
X224791668Y-133278923D01*
X224785591Y-133313741D01*
X224784452Y-133319471D01*
X224774190Y-133365381D01*
X224772782Y-133371050D01*
X224763454Y-133405149D01*
X224761779Y-133410748D01*
X224687325Y-133639896D01*
X224685389Y-133645408D01*
X224672894Y-133678476D01*
X224670701Y-133683893D01*
X224652017Y-133727069D01*
X224649571Y-133732374D01*
X224634019Y-133764120D01*
X224631325Y-133769306D01*
X224515249Y-133980446D01*
X224512314Y-133985498D01*
X224493841Y-134015643D01*
X224490670Y-134020554D01*
X224464226Y-134059463D01*
X224460832Y-134064213D01*
X224439612Y-134092476D01*
X224435994Y-134097066D01*
X224282416Y-134282710D01*
X224278586Y-134287122D01*
X224254795Y-134313268D01*
X224250762Y-134317496D01*
X224217496Y-134350762D01*
X224213268Y-134354795D01*
X224187122Y-134378586D01*
X224182710Y-134382416D01*
X224066800Y-134478304D01*
X221529607Y-134478304D01*
X221513103Y-134466313D01*
X221508461Y-134462770D01*
X221480882Y-134440676D01*
X221476411Y-134436918D01*
X221441121Y-134405808D01*
X221436826Y-134401838D01*
X221411433Y-134377230D01*
X221407335Y-134373067D01*
X221242396Y-134197425D01*
X221238497Y-134193071D01*
X221215539Y-134166190D01*
X221211850Y-134161660D01*
X221183017Y-134124488D01*
X221179547Y-134119790D01*
X221159222Y-134090871D01*
X221155975Y-134086012D01*
X221052841Y-133923500D01*
X220500528Y-133923500D01*
X220341003Y-134083024D01*
X218366610Y-134083024D01*
X218358818Y-134064213D01*
X218347915Y-134037890D01*
X218339537Y-134006623D01*
X218326561Y-133908059D01*
X218325500Y-133891874D01*
X218325500Y-133408125D01*
X218326561Y-133391940D01*
X218329754Y-133367685D01*
X218339537Y-133293375D01*
X218347915Y-133262109D01*
X218378856Y-133187410D01*
X218382825Y-133177828D01*
X218399003Y-133149805D01*
X218454541Y-133077427D01*
X218477428Y-133054541D01*
X218549805Y-132999003D01*
X218577828Y-132982825D01*
X218662109Y-132947915D01*
X218693375Y-132939537D01*
X218791941Y-132926561D01*
X218808126Y-132925500D01*
X218808285Y-132925500D01*
X221658196Y-132925500D01*
X221725235Y-132945185D01*
X221770990Y-132997989D01*
X221779999Y-133026262D01*
X221791053Y-133084212D01*
X221810739Y-133187410D01*
X221882111Y-133367675D01*
X221882117Y-133367687D01*
X221952784Y-133479039D01*
X221986010Y-133531395D01*
X222118740Y-133672738D01*
X222170394Y-133710267D01*
X222275604Y-133786707D01*
X222304536Y-133800321D01*
X222451044Y-133869262D01*
X222638847Y-133917482D01*
X222832358Y-133929657D01*
X223024724Y-133905355D01*
X223209128Y-133845439D01*
X223379039Y-133752029D01*
X223528437Y-133628437D01*
X223652029Y-133479039D01*
X223745439Y-133309128D01*
X223805355Y-133124724D01*
X223829657Y-132932358D01*
X223817482Y-132738847D01*
X223769262Y-132551044D01*
X223709223Y-132423455D01*
X223686707Y-132375604D01*
X223584610Y-132235081D01*
X223572738Y-132218740D01*
X223431395Y-132086010D01*
X223267685Y-131982116D01*
X223267675Y-131982111D01*
X223087409Y-131910739D01*
X223087410Y-131910739D01*
X222896942Y-131874406D01*
X222800000Y-131874500D01*
X211800000Y-131874500D01*
X211703056Y-131874406D01*
X211512589Y-131910739D01*
X211332324Y-131982111D01*
X211332312Y-131982117D01*
X211168610Y-132086006D01*
X211168602Y-132086012D01*
X211027263Y-132218738D01*
X210913292Y-132375604D01*
X210830737Y-132551047D01*
X210830736Y-132551050D01*
X210782518Y-132738844D01*
X210770343Y-132932355D01*
X210770343Y-132932362D01*
X210794644Y-133124721D01*
X210794645Y-133124725D01*
X210854560Y-133309124D01*
X210854561Y-133309128D01*
X210947971Y-133479039D01*
X210947971Y-133479040D01*
X210991278Y-133531389D01*
X211071563Y-133628437D01*
X211220961Y-133752029D01*
X211390872Y-133845439D01*
X211575276Y-133905355D01*
X211767642Y-133929657D01*
X211961153Y-133917482D01*
X212148956Y-133869262D01*
X212324397Y-133786706D01*
X212481260Y-133672738D01*
X212613990Y-133531395D01*
X212717884Y-133367685D01*
X212718796Y-133365381D01*
X212789260Y-133187410D01*
X212793965Y-133162750D01*
X212820000Y-133026264D01*
X212851898Y-132964101D01*
X212912340Y-132929051D01*
X212941804Y-132925500D01*
X215791715Y-132925500D01*
X215791874Y-132925500D01*
X215808059Y-132926561D01*
X215906623Y-132939537D01*
X215937890Y-132947915D01*
X215982649Y-132966454D01*
X216022168Y-132982823D01*
X216050197Y-132999005D01*
X216085460Y-133026064D01*
X216122571Y-133054541D01*
X216145458Y-133077428D01*
X216200991Y-133149798D01*
X216217177Y-133177834D01*
X216252084Y-133262109D01*
X216260462Y-133293375D01*
X216273439Y-133391939D01*
X216274500Y-133408125D01*
X216274500Y-133891874D01*
X216273439Y-133908060D01*
X216260462Y-134006624D01*
X216252084Y-134037890D01*
X216217177Y-134122165D01*
X216200991Y-134150201D01*
X216145458Y-134222571D01*
X216122571Y-134245458D01*
X216050201Y-134300991D01*
X216022165Y-134317177D01*
X215937890Y-134352084D01*
X215906624Y-134360462D01*
X215818244Y-134372098D01*
X215808058Y-134373439D01*
X215791874Y-134374500D01*
X215704973Y-134374500D01*
X215518156Y-134409423D01*
X215340942Y-134478075D01*
X215340938Y-134478077D01*
X215179349Y-134578129D01*
X215038901Y-134706164D01*
X214924367Y-134857830D01*
X214839653Y-135027957D01*
X214787642Y-135210760D01*
X214770107Y-135399999D01*
X214770107Y-135400000D01*
X214787642Y-135589239D01*
X214839653Y-135772042D01*
X214873581Y-135840177D01*
X214924367Y-135942169D01*
X215038900Y-136093834D01*
X215179351Y-136221872D01*
X215340937Y-136321922D01*
X215518156Y-136390577D01*
X215704973Y-136425500D01*
X215764815Y-136425500D01*
X215765015Y-136425539D01*
X215789467Y-136425510D01*
X215789468Y-136425511D01*
X215798719Y-136425500D01*
X215798762Y-136425500D01*
X215829145Y-136425500D01*
X215829360Y-136425463D01*
X216652267Y-136424488D01*
X216719327Y-136444093D01*
X216765144Y-136496843D01*
X216776411Y-136548495D01*
X216774500Y-168891717D01*
X216774500Y-168894587D01*
X216774028Y-168905395D01*
X216760640Y-169058410D01*
X216756887Y-169079696D01*
X216718536Y-169222824D01*
X216711144Y-169243133D01*
X216648524Y-169377421D01*
X216637721Y-169396133D01*
X216552728Y-169517514D01*
X216538835Y-169534071D01*
X216434071Y-169638835D01*
X216417514Y-169652728D01*
X216296133Y-169737721D01*
X216277421Y-169748524D01*
X216143134Y-169811144D01*
X216122824Y-169818536D01*
X215979696Y-169856887D01*
X215958410Y-169860640D01*
X215822206Y-169872557D01*
X215805393Y-169874028D01*
X215794588Y-169874500D01*
X203805412Y-169874500D01*
X203794606Y-169874028D01*
X203775883Y-169872390D01*
X203641589Y-169860640D01*
X203620303Y-169856887D01*
X203477175Y-169818536D01*
X203456870Y-169811146D01*
X203322573Y-169748522D01*
X203303866Y-169737721D01*
X203182485Y-169652728D01*
X203165928Y-169638835D01*
X203061164Y-169534071D01*
X203047271Y-169517514D01*
X202962278Y-169396133D01*
X202951479Y-169377430D01*
X202888851Y-169243123D01*
X202881463Y-169222824D01*
X202843112Y-169079696D01*
X202839359Y-169058409D01*
X202825972Y-168905394D01*
X202825500Y-168894587D01*
X202825500Y-167773105D01*
X204328592Y-167773105D01*
X205390667Y-168835180D01*
X206452742Y-167773105D01*
X207864126Y-167773105D01*
X208926201Y-168835180D01*
X209988276Y-167773105D01*
X211399660Y-167773105D01*
X212461735Y-168835180D01*
X213523810Y-167773105D01*
X213523809Y-167773104D01*
X214935193Y-167773104D01*
X215776515Y-168614426D01*
X215776614Y-166931683D01*
X214935193Y-167773104D01*
X213523809Y-167773104D01*
X212461735Y-166711030D01*
X211399660Y-167773105D01*
X209988276Y-167773105D01*
X208926201Y-166711030D01*
X207864126Y-167773105D01*
X206452742Y-167773105D01*
X205390667Y-166711030D01*
X204328592Y-167773105D01*
X202825500Y-167773105D01*
X202825500Y-166866813D01*
X203823500Y-166866813D01*
X204684975Y-166005338D01*
X206096359Y-166005338D01*
X207158434Y-167067413D01*
X208220508Y-166005338D01*
X209631893Y-166005338D01*
X210693968Y-167067413D01*
X211756042Y-166005338D01*
X213167427Y-166005338D01*
X214229502Y-167067413D01*
X215291576Y-166005338D01*
X214229502Y-164943263D01*
X213167427Y-166005338D01*
X211756042Y-166005338D01*
X210693968Y-164943263D01*
X209631893Y-166005338D01*
X208220508Y-166005338D01*
X207158434Y-164943263D01*
X206096359Y-166005338D01*
X204684975Y-166005338D01*
X203823500Y-165143863D01*
X203823500Y-166866813D01*
X202825500Y-166866813D01*
X202825500Y-164237571D01*
X204328592Y-164237571D01*
X205390667Y-165299646D01*
X206452741Y-164237571D01*
X207864126Y-164237571D01*
X208926201Y-165299646D01*
X209988275Y-164237571D01*
X211399660Y-164237571D01*
X212461735Y-165299646D01*
X213523809Y-164237571D01*
X214935194Y-164237571D01*
X215776723Y-165079100D01*
X215776823Y-163395941D01*
X214935194Y-164237571D01*
X213523809Y-164237571D01*
X212461735Y-163175496D01*
X211399660Y-164237571D01*
X209988275Y-164237571D01*
X208926201Y-163175496D01*
X207864126Y-164237571D01*
X206452741Y-164237571D01*
X205390667Y-163175496D01*
X204328592Y-164237571D01*
X202825500Y-164237571D01*
X202825500Y-163331279D01*
X203823500Y-163331279D01*
X204684975Y-162469804D01*
X206096359Y-162469804D01*
X207158434Y-163531879D01*
X208220508Y-162469804D01*
X209631893Y-162469804D01*
X210693968Y-163531879D01*
X211756042Y-162469804D01*
X213167427Y-162469804D01*
X214229502Y-163531879D01*
X215291576Y-162469804D01*
X214229502Y-161407729D01*
X213167427Y-162469804D01*
X211756042Y-162469804D01*
X210693968Y-161407729D01*
X209631893Y-162469804D01*
X208220508Y-162469804D01*
X207158434Y-161407729D01*
X206096359Y-162469804D01*
X204684975Y-162469804D01*
X203823500Y-161608329D01*
X203823500Y-163331279D01*
X202825500Y-163331279D01*
X202825500Y-160702037D01*
X204328592Y-160702037D01*
X205390667Y-161764112D01*
X206452741Y-160702037D01*
X207864126Y-160702037D01*
X208926201Y-161764112D01*
X209988275Y-160702037D01*
X211399660Y-160702037D01*
X212461735Y-161764112D01*
X213523809Y-160702037D01*
X214935194Y-160702037D01*
X215776932Y-161543775D01*
X215777032Y-159860198D01*
X214935194Y-160702037D01*
X213523809Y-160702037D01*
X212461735Y-159639963D01*
X211399660Y-160702037D01*
X209988275Y-160702037D01*
X208926201Y-159639963D01*
X207864126Y-160702037D01*
X206452741Y-160702037D01*
X205390667Y-159639963D01*
X204328592Y-160702037D01*
X202825500Y-160702037D01*
X202825500Y-159795745D01*
X203823500Y-159795745D01*
X204684974Y-158934270D01*
X206096359Y-158934270D01*
X207158434Y-159996345D01*
X208220508Y-158934270D01*
X209631893Y-158934270D01*
X210693968Y-159996345D01*
X211756042Y-158934270D01*
X213167427Y-158934270D01*
X214229502Y-159996345D01*
X215291576Y-158934270D01*
X214229502Y-157872196D01*
X213167427Y-158934270D01*
X211756042Y-158934270D01*
X210693968Y-157872196D01*
X209631893Y-158934270D01*
X208220508Y-158934270D01*
X207158434Y-157872196D01*
X206096359Y-158934270D01*
X204684974Y-158934270D01*
X203823500Y-158072796D01*
X203823500Y-159795745D01*
X202825500Y-159795745D01*
X202825500Y-157166504D01*
X204328592Y-157166504D01*
X205390667Y-158228579D01*
X206452742Y-157166504D01*
X207864126Y-157166504D01*
X208926201Y-158228579D01*
X209988276Y-157166504D01*
X211399660Y-157166504D01*
X212461735Y-158228579D01*
X213523810Y-157166504D01*
X213523809Y-157166503D01*
X214935193Y-157166503D01*
X215777141Y-158008451D01*
X215777241Y-156324455D01*
X214935193Y-157166503D01*
X213523809Y-157166503D01*
X212461735Y-156104429D01*
X211399660Y-157166504D01*
X209988276Y-157166504D01*
X208926201Y-156104429D01*
X207864126Y-157166504D01*
X206452742Y-157166504D01*
X205390667Y-156104429D01*
X204328592Y-157166504D01*
X202825500Y-157166504D01*
X202825500Y-156260212D01*
X203823500Y-156260212D01*
X204684975Y-155398737D01*
X206096359Y-155398737D01*
X207158434Y-156460812D01*
X208220509Y-155398737D01*
X209631893Y-155398737D01*
X210693968Y-156460812D01*
X211756043Y-155398737D01*
X213167427Y-155398737D01*
X214229502Y-156460812D01*
X215291577Y-155398737D01*
X214229502Y-154336662D01*
X213167427Y-155398737D01*
X211756043Y-155398737D01*
X210693968Y-154336662D01*
X209631893Y-155398737D01*
X208220509Y-155398737D01*
X207158434Y-154336662D01*
X206096359Y-155398737D01*
X204684975Y-155398737D01*
X203823500Y-154537262D01*
X203823500Y-156260212D01*
X202825500Y-156260212D01*
X202825500Y-153630970D01*
X204328592Y-153630970D01*
X205390667Y-154693045D01*
X206452742Y-153630970D01*
X207864126Y-153630970D01*
X208926201Y-154693045D01*
X209988276Y-153630970D01*
X211399660Y-153630970D01*
X212461735Y-154693045D01*
X213523810Y-153630970D01*
X213523809Y-153630969D01*
X214935193Y-153630969D01*
X215777350Y-154473126D01*
X215777450Y-152788712D01*
X214935193Y-153630969D01*
X213523809Y-153630969D01*
X212461735Y-152568895D01*
X211399660Y-153630970D01*
X209988276Y-153630970D01*
X208926201Y-152568895D01*
X207864126Y-153630970D01*
X206452742Y-153630970D01*
X205390667Y-152568895D01*
X204328592Y-153630970D01*
X202825500Y-153630970D01*
X202825500Y-152724678D01*
X203823500Y-152724678D01*
X204684975Y-151863203D01*
X206096359Y-151863203D01*
X207158434Y-152925278D01*
X208220509Y-151863203D01*
X209631893Y-151863203D01*
X210693968Y-152925278D01*
X211756043Y-151863203D01*
X213167427Y-151863203D01*
X214229502Y-152925278D01*
X215291577Y-151863203D01*
X214229502Y-150801128D01*
X213167427Y-151863203D01*
X211756043Y-151863203D01*
X210693968Y-150801128D01*
X209631893Y-151863203D01*
X208220509Y-151863203D01*
X207158434Y-150801128D01*
X206096359Y-151863203D01*
X204684975Y-151863203D01*
X203823500Y-151001728D01*
X203823500Y-152724678D01*
X202825500Y-152724678D01*
X202825500Y-150095436D01*
X204328592Y-150095436D01*
X205390667Y-151157511D01*
X206452742Y-150095436D01*
X207864126Y-150095436D01*
X208926201Y-151157511D01*
X209988276Y-150095436D01*
X211399660Y-150095436D01*
X212461735Y-151157511D01*
X213523810Y-150095436D01*
X213523809Y-150095435D01*
X214935193Y-150095435D01*
X215777559Y-150937801D01*
X215777659Y-149252969D01*
X214935193Y-150095435D01*
X213523809Y-150095435D01*
X212461735Y-149033361D01*
X211399660Y-150095436D01*
X209988276Y-150095436D01*
X208926201Y-149033361D01*
X207864126Y-150095436D01*
X206452742Y-150095436D01*
X205390667Y-149033361D01*
X204328592Y-150095436D01*
X202825500Y-150095436D01*
X202825500Y-149189144D01*
X203823500Y-149189144D01*
X204684975Y-148327669D01*
X206096359Y-148327669D01*
X207158434Y-149389744D01*
X208220509Y-148327669D01*
X209631893Y-148327669D01*
X210693968Y-149389744D01*
X211756043Y-148327669D01*
X213167427Y-148327669D01*
X214229502Y-149389744D01*
X215291577Y-148327669D01*
X214229502Y-147265594D01*
X213167427Y-148327669D01*
X211756043Y-148327669D01*
X210693968Y-147265594D01*
X209631893Y-148327669D01*
X208220509Y-148327669D01*
X207158434Y-147265594D01*
X206096359Y-148327669D01*
X204684975Y-148327669D01*
X203823500Y-147466194D01*
X203823500Y-149189144D01*
X202825500Y-149189144D01*
X202825500Y-146559902D01*
X204328592Y-146559902D01*
X205390667Y-147621977D01*
X206452742Y-146559902D01*
X207864126Y-146559902D01*
X208926201Y-147621977D01*
X209988276Y-146559902D01*
X211399660Y-146559902D01*
X212461735Y-147621977D01*
X213523810Y-146559902D01*
X213523809Y-146559901D01*
X214935193Y-146559901D01*
X215777768Y-147402476D01*
X215777868Y-145717226D01*
X214935193Y-146559901D01*
X213523809Y-146559901D01*
X212461735Y-145497827D01*
X211399660Y-146559902D01*
X209988276Y-146559902D01*
X208926201Y-145497827D01*
X207864126Y-146559902D01*
X206452742Y-146559902D01*
X205390667Y-145497827D01*
X204328592Y-146559902D01*
X202825500Y-146559902D01*
X202825500Y-145653610D01*
X203823500Y-145653610D01*
X204684975Y-144792135D01*
X206096359Y-144792135D01*
X207158434Y-145854210D01*
X208220509Y-144792135D01*
X209631893Y-144792135D01*
X210693968Y-145854210D01*
X211756043Y-144792135D01*
X213167427Y-144792135D01*
X214229502Y-145854210D01*
X215291577Y-144792135D01*
X214229502Y-143730060D01*
X213167427Y-144792135D01*
X211756043Y-144792135D01*
X210693968Y-143730060D01*
X209631893Y-144792135D01*
X208220509Y-144792135D01*
X207158434Y-143730060D01*
X206096359Y-144792135D01*
X204684975Y-144792135D01*
X203823500Y-143930660D01*
X203823500Y-145653610D01*
X202825500Y-145653610D01*
X202825500Y-143024368D01*
X204328592Y-143024368D01*
X205390667Y-144086443D01*
X206452742Y-143024368D01*
X207864126Y-143024368D01*
X208926201Y-144086443D01*
X209988276Y-143024368D01*
X211399660Y-143024368D01*
X212461735Y-144086443D01*
X213523810Y-143024368D01*
X213523809Y-143024367D01*
X214935193Y-143024367D01*
X215777977Y-143867151D01*
X215778077Y-142181483D01*
X214935193Y-143024367D01*
X213523809Y-143024367D01*
X212461735Y-141962293D01*
X211399660Y-143024368D01*
X209988276Y-143024368D01*
X208926201Y-141962293D01*
X207864126Y-143024368D01*
X206452742Y-143024368D01*
X205390667Y-141962293D01*
X204328592Y-143024368D01*
X202825500Y-143024368D01*
X202825500Y-142118076D01*
X203823500Y-142118076D01*
X204684975Y-141256601D01*
X206096359Y-141256601D01*
X207158434Y-142318676D01*
X208220509Y-141256601D01*
X209631893Y-141256601D01*
X210693968Y-142318676D01*
X211756043Y-141256601D01*
X213167427Y-141256601D01*
X214229502Y-142318676D01*
X215291577Y-141256601D01*
X214229502Y-140194526D01*
X213167427Y-141256601D01*
X211756043Y-141256601D01*
X210693968Y-140194526D01*
X209631893Y-141256601D01*
X208220509Y-141256601D01*
X207158434Y-140194526D01*
X206096359Y-141256601D01*
X204684975Y-141256601D01*
X203823500Y-140395126D01*
X203823500Y-142118076D01*
X202825500Y-142118076D01*
X202825500Y-139488834D01*
X204328592Y-139488834D01*
X205390667Y-140550909D01*
X206452742Y-139488834D01*
X207864126Y-139488834D01*
X208926201Y-140550909D01*
X209988276Y-139488834D01*
X211399660Y-139488834D01*
X212461735Y-140550909D01*
X213523810Y-139488834D01*
X213523809Y-139488833D01*
X214935193Y-139488833D01*
X215778186Y-140331826D01*
X215778286Y-138645740D01*
X214935193Y-139488833D01*
X213523809Y-139488833D01*
X212461735Y-138426759D01*
X211399660Y-139488834D01*
X209988276Y-139488834D01*
X208926201Y-138426759D01*
X207864126Y-139488834D01*
X206452742Y-139488834D01*
X205390667Y-138426759D01*
X204328592Y-139488834D01*
X202825500Y-139488834D01*
X202825500Y-137423500D01*
X203823500Y-137423500D01*
X203823500Y-138582542D01*
X204684975Y-137721067D01*
X206096359Y-137721067D01*
X207158434Y-138783142D01*
X208220509Y-137721067D01*
X209631893Y-137721067D01*
X210693968Y-138783142D01*
X211756043Y-137721067D01*
X213167427Y-137721067D01*
X214229502Y-138783142D01*
X215291577Y-137721067D01*
X214617077Y-137046567D01*
X214600967Y-137035532D01*
X214596314Y-137032184D01*
X214559509Y-137004389D01*
X214555020Y-137000833D01*
X214528363Y-136978697D01*
X214524043Y-136974937D01*
X214349509Y-136815828D01*
X214345366Y-136811872D01*
X214320857Y-136787363D01*
X214316900Y-136783219D01*
X214285829Y-136749135D01*
X214282070Y-136744816D01*
X214259934Y-136718159D01*
X214256377Y-136713668D01*
X214221289Y-136667204D01*
X213167427Y-137721067D01*
X211756043Y-137721067D01*
X210693968Y-136658992D01*
X209631893Y-137721067D01*
X208220509Y-137721067D01*
X207158434Y-136658992D01*
X206096359Y-137721067D01*
X204684975Y-137721067D01*
X204323108Y-137359200D01*
X204293514Y-137366162D01*
X204287906Y-137367345D01*
X204055745Y-137410744D01*
X204050091Y-137411666D01*
X204015767Y-137416454D01*
X204010078Y-137417114D01*
X203964152Y-137421370D01*
X203958438Y-137421767D01*
X203923817Y-137423368D01*
X203918089Y-137423500D01*
X203823500Y-137423500D01*
X202825500Y-137423500D01*
X202825500Y-136844141D01*
X205219433Y-136844141D01*
X205390667Y-137015375D01*
X206452742Y-135953300D01*
X207864126Y-135953300D01*
X208926201Y-137015375D01*
X209988276Y-135953300D01*
X211399660Y-135953300D01*
X212461735Y-137015375D01*
X213523810Y-135953300D01*
X212461735Y-134891225D01*
X211399660Y-135953300D01*
X209988276Y-135953300D01*
X208926201Y-134891225D01*
X207864126Y-135953300D01*
X206452742Y-135953300D01*
X205825297Y-135325855D01*
X205825763Y-135330878D01*
X205826160Y-135336591D01*
X205827761Y-135371211D01*
X205827893Y-135376939D01*
X205827893Y-135423061D01*
X205827761Y-135428789D01*
X205826160Y-135463409D01*
X205825763Y-135469122D01*
X205803971Y-135704293D01*
X205803311Y-135709983D01*
X205798522Y-135744315D01*
X205797599Y-135749973D01*
X205789123Y-135795308D01*
X205787941Y-135800909D01*
X205780009Y-135834634D01*
X205778570Y-135840177D01*
X205713941Y-136067330D01*
X205712246Y-136072802D01*
X205701233Y-136105661D01*
X205699287Y-136111050D01*
X205682625Y-136154059D01*
X205680433Y-136159351D01*
X205666433Y-136191058D01*
X205663999Y-136196244D01*
X205558728Y-136407656D01*
X205556057Y-136412723D01*
X205539198Y-136442991D01*
X205536298Y-136447926D01*
X205512019Y-136487141D01*
X205508890Y-136491943D01*
X205489299Y-136520543D01*
X205485953Y-136525194D01*
X205343623Y-136713668D01*
X205340066Y-136718159D01*
X205317930Y-136744816D01*
X205314171Y-136749135D01*
X205283100Y-136783219D01*
X205279143Y-136787363D01*
X205254634Y-136811872D01*
X205250491Y-136815829D01*
X205219433Y-136844141D01*
X202825500Y-136844141D01*
X202825500Y-136549500D01*
X202845185Y-136482461D01*
X202897989Y-136436706D01*
X202949500Y-136425500D01*
X203895025Y-136425500D01*
X203895027Y-136425500D01*
X204081844Y-136390577D01*
X204259063Y-136321922D01*
X204420649Y-136221872D01*
X204561100Y-136093834D01*
X204675633Y-135942169D01*
X204760347Y-135772040D01*
X204812357Y-135589242D01*
X204829893Y-135400000D01*
X204812357Y-135210758D01*
X204760347Y-135027960D01*
X204759906Y-135027075D01*
X204692261Y-134891225D01*
X204675633Y-134857831D01*
X204561100Y-134706166D01*
X204548126Y-134694339D01*
X204420650Y-134578129D01*
X204420649Y-134578128D01*
X204259063Y-134478078D01*
X204259061Y-134478077D01*
X204259057Y-134478075D01*
X204162517Y-134440676D01*
X204081844Y-134409423D01*
X203895027Y-134374500D01*
X203895025Y-134374500D01*
X203808126Y-134374500D01*
X203791941Y-134373439D01*
X203780208Y-134371894D01*
X203693375Y-134360462D01*
X203662109Y-134352084D01*
X203577834Y-134317177D01*
X203549800Y-134300992D01*
X203514540Y-134273936D01*
X203477428Y-134245458D01*
X203454541Y-134222571D01*
X203426119Y-134185532D01*
X209631892Y-134185532D01*
X210693967Y-135247607D01*
X211131162Y-134810412D01*
X211060104Y-134787325D01*
X211054592Y-134785389D01*
X211021524Y-134772894D01*
X211016107Y-134770701D01*
X210972931Y-134752017D01*
X210967626Y-134749571D01*
X210935880Y-134734019D01*
X210930694Y-134731325D01*
X210719554Y-134615249D01*
X210714502Y-134612314D01*
X210684357Y-134593841D01*
X210679446Y-134590670D01*
X210640537Y-134564226D01*
X210635787Y-134560832D01*
X210607524Y-134539612D01*
X210602934Y-134535994D01*
X210417290Y-134382416D01*
X210412878Y-134378586D01*
X210386732Y-134354795D01*
X210382504Y-134350762D01*
X210349238Y-134317496D01*
X210345205Y-134313268D01*
X210323458Y-134289368D01*
X213271262Y-134289368D01*
X213848073Y-134866179D01*
X213886059Y-134732670D01*
X213887754Y-134727198D01*
X213898767Y-134694339D01*
X213900713Y-134688950D01*
X213917375Y-134645941D01*
X213919567Y-134640649D01*
X213933567Y-134608942D01*
X213936001Y-134603756D01*
X214041272Y-134392344D01*
X214043943Y-134387277D01*
X214060802Y-134357009D01*
X214063702Y-134352074D01*
X214087981Y-134312859D01*
X214091110Y-134308057D01*
X214110701Y-134279457D01*
X214114047Y-134274806D01*
X214256377Y-134086332D01*
X214259934Y-134081841D01*
X214282070Y-134055184D01*
X214285829Y-134050865D01*
X214316900Y-134016781D01*
X214320857Y-134012637D01*
X214345366Y-133988128D01*
X214349509Y-133984172D01*
X214416063Y-133923500D01*
X213547159Y-133923500D01*
X213444025Y-134086012D01*
X213440778Y-134090871D01*
X213420453Y-134119790D01*
X213416983Y-134124488D01*
X213388150Y-134161660D01*
X213384461Y-134166190D01*
X213361503Y-134193071D01*
X213357604Y-134197425D01*
X213271262Y-134289368D01*
X210323458Y-134289368D01*
X210321414Y-134287122D01*
X210317584Y-134282710D01*
X210164006Y-134097066D01*
X210160388Y-134092476D01*
X210139168Y-134064213D01*
X210135774Y-134059463D01*
X210109330Y-134020554D01*
X210106159Y-134015643D01*
X210087686Y-133985498D01*
X210084751Y-133980446D01*
X209996856Y-133820568D01*
X209631892Y-134185532D01*
X203426119Y-134185532D01*
X203422912Y-134181352D01*
X203399005Y-134150197D01*
X203382823Y-134122168D01*
X203358818Y-134064213D01*
X203347915Y-134037890D01*
X203339537Y-134006623D01*
X203326561Y-133908059D01*
X203325500Y-133891874D01*
X203325500Y-133408125D01*
X203326561Y-133391940D01*
X203329754Y-133367685D01*
X203339537Y-133293375D01*
X203347915Y-133262109D01*
X203378856Y-133187410D01*
X203382825Y-133177828D01*
X203399003Y-133149805D01*
X203454541Y-133077427D01*
X203477428Y-133054541D01*
X203549805Y-132999003D01*
X203577828Y-132982825D01*
X203662109Y-132947915D01*
X203693375Y-132939537D01*
X203791941Y-132926561D01*
X203808126Y-132925500D01*
X203808285Y-132925500D01*
X206658196Y-132925500D01*
X206725235Y-132945185D01*
X206770990Y-132997989D01*
X206779999Y-133026262D01*
X206791053Y-133084212D01*
X206810739Y-133187410D01*
X206882111Y-133367675D01*
X206882117Y-133367687D01*
X206952784Y-133479039D01*
X206986010Y-133531395D01*
X207118740Y-133672738D01*
X207170394Y-133710267D01*
X207275604Y-133786707D01*
X207304536Y-133800321D01*
X207451044Y-133869262D01*
X207638847Y-133917482D01*
X207832358Y-133929657D01*
X208024724Y-133905355D01*
X208209128Y-133845439D01*
X208379039Y-133752029D01*
X208528437Y-133628437D01*
X208652029Y-133479039D01*
X208745439Y-133309128D01*
X208805355Y-133124724D01*
X208829657Y-132932358D01*
X208817482Y-132738847D01*
X208769262Y-132551044D01*
X208709223Y-132423455D01*
X208686707Y-132375604D01*
X208584610Y-132235081D01*
X208572738Y-132218740D01*
X208431395Y-132086010D01*
X208267685Y-131982116D01*
X208267675Y-131982111D01*
X208087409Y-131910739D01*
X208087410Y-131910739D01*
X207896942Y-131874406D01*
X207800000Y-131874500D01*
X196800000Y-131874500D01*
X196703056Y-131874406D01*
X196512589Y-131910739D01*
X196332324Y-131982111D01*
X196332312Y-131982117D01*
X196168610Y-132086006D01*
X196168602Y-132086012D01*
X196027263Y-132218738D01*
X195913292Y-132375604D01*
X195830737Y-132551047D01*
X195830736Y-132551050D01*
X195782518Y-132738844D01*
X195770343Y-132932355D01*
X195770343Y-132932362D01*
X195794644Y-133124721D01*
X195794645Y-133124725D01*
X195854560Y-133309124D01*
X195854561Y-133309128D01*
X195947971Y-133479039D01*
X195947971Y-133479040D01*
X195991278Y-133531389D01*
X196071563Y-133628437D01*
X196220961Y-133752029D01*
X196390872Y-133845439D01*
X196575276Y-133905355D01*
X196767642Y-133929657D01*
X196961153Y-133917482D01*
X197148956Y-133869262D01*
X197324397Y-133786706D01*
X197481260Y-133672738D01*
X197613990Y-133531395D01*
X197717884Y-133367685D01*
X197718796Y-133365381D01*
X197789260Y-133187410D01*
X197793965Y-133162750D01*
X197820000Y-133026264D01*
X197851898Y-132964101D01*
X197912340Y-132929051D01*
X197941804Y-132925500D01*
X200791715Y-132925500D01*
X200791874Y-132925500D01*
X200808059Y-132926561D01*
X200906623Y-132939537D01*
X200937890Y-132947915D01*
X200982649Y-132966454D01*
X201022168Y-132982823D01*
X201050197Y-132999005D01*
X201085460Y-133026064D01*
X201122571Y-133054541D01*
X201145458Y-133077428D01*
X201200991Y-133149798D01*
X201217177Y-133177834D01*
X201252084Y-133262109D01*
X201260462Y-133293375D01*
X201273439Y-133391939D01*
X201274500Y-133408125D01*
X201274500Y-133891874D01*
X201273439Y-133908060D01*
X201260462Y-134006624D01*
X201252084Y-134037890D01*
X201217177Y-134122165D01*
X201200991Y-134150201D01*
X201145458Y-134222571D01*
X201122571Y-134245458D01*
X201050201Y-134300991D01*
X201022165Y-134317177D01*
X200937890Y-134352084D01*
X200906624Y-134360462D01*
X200818244Y-134372098D01*
X200808058Y-134373439D01*
X200791874Y-134374500D01*
X200704973Y-134374500D01*
X200518156Y-134409423D01*
X200340942Y-134478075D01*
X200340938Y-134478077D01*
X200179349Y-134578129D01*
X200038901Y-134706164D01*
X199924367Y-134857830D01*
X199839653Y-135027957D01*
X199787642Y-135210760D01*
X199770107Y-135399999D01*
X199770107Y-135400000D01*
X199787642Y-135589239D01*
X199839653Y-135772042D01*
X199873581Y-135840177D01*
X199924367Y-135942169D01*
X200038900Y-136093834D01*
X200179351Y-136221872D01*
X200340937Y-136321922D01*
X200518156Y-136390577D01*
X200704973Y-136425500D01*
X200764815Y-136425500D01*
X200765015Y-136425539D01*
X200789467Y-136425510D01*
X200789468Y-136425511D01*
X200798719Y-136425500D01*
X200798762Y-136425500D01*
X200829145Y-136425500D01*
X200829360Y-136425463D01*
X201652267Y-136424488D01*
X201719327Y-136444093D01*
X201765144Y-136496843D01*
X201776411Y-136548495D01*
X201774500Y-168891717D01*
X201774500Y-168894587D01*
X201774028Y-168905395D01*
X201760640Y-169058410D01*
X201756887Y-169079696D01*
X201718536Y-169222824D01*
X201711144Y-169243133D01*
X201648524Y-169377421D01*
X201637721Y-169396133D01*
X201552728Y-169517514D01*
X201538835Y-169534071D01*
X201434071Y-169638835D01*
X201417514Y-169652728D01*
X201296133Y-169737721D01*
X201277421Y-169748524D01*
X201143134Y-169811144D01*
X201122824Y-169818536D01*
X200979696Y-169856887D01*
X200958410Y-169860640D01*
X200822206Y-169872557D01*
X200805393Y-169874028D01*
X200794588Y-169874500D01*
X188805412Y-169874500D01*
X188794606Y-169874028D01*
X188775883Y-169872390D01*
X188641589Y-169860640D01*
X188620303Y-169856887D01*
X188477175Y-169818536D01*
X188456870Y-169811146D01*
X188322573Y-169748522D01*
X188303866Y-169737721D01*
X188182485Y-169652728D01*
X188165928Y-169638835D01*
X188061164Y-169534071D01*
X188047271Y-169517514D01*
X187962278Y-169396133D01*
X187951479Y-169377430D01*
X187888851Y-169243123D01*
X187881463Y-169222824D01*
X187843112Y-169079696D01*
X187839359Y-169058409D01*
X187825972Y-168905394D01*
X187825500Y-168894587D01*
X187825500Y-167773105D01*
X190186456Y-167773105D01*
X191248531Y-168835179D01*
X192310606Y-167773105D01*
X193721990Y-167773105D01*
X194784065Y-168835179D01*
X195846140Y-167773105D01*
X197257524Y-167773105D01*
X198319599Y-168835180D01*
X199381674Y-167773105D01*
X198319599Y-166711030D01*
X197257524Y-167773105D01*
X195846140Y-167773105D01*
X194784065Y-166711030D01*
X193721990Y-167773105D01*
X192310606Y-167773105D01*
X191248531Y-166711030D01*
X190186456Y-167773105D01*
X187825500Y-167773105D01*
X187825500Y-165600528D01*
X188823500Y-165600528D01*
X188823500Y-166410148D01*
X189480764Y-167067412D01*
X190542839Y-166005338D01*
X191954223Y-166005338D01*
X193016298Y-167067412D01*
X194078372Y-166005338D01*
X195489757Y-166005338D01*
X196551832Y-167067413D01*
X197613906Y-166005338D01*
X199025291Y-166005338D01*
X200087365Y-167067412D01*
X200776647Y-166378131D01*
X200776690Y-165632588D01*
X200087365Y-164943263D01*
X199025291Y-166005338D01*
X197613906Y-166005338D01*
X196551832Y-164943263D01*
X195489757Y-166005338D01*
X194078372Y-166005338D01*
X193016298Y-164943263D01*
X191954223Y-166005338D01*
X190542839Y-166005338D01*
X189480764Y-164943263D01*
X188823500Y-165600528D01*
X187825500Y-165600528D01*
X187825500Y-164237571D01*
X190186456Y-164237571D01*
X191248531Y-165299645D01*
X192310605Y-164237571D01*
X193721990Y-164237571D01*
X194784065Y-165299645D01*
X195846139Y-164237571D01*
X197257524Y-164237571D01*
X198319599Y-165299646D01*
X199381673Y-164237571D01*
X198319599Y-163175496D01*
X197257524Y-164237571D01*
X195846139Y-164237571D01*
X194784065Y-163175496D01*
X193721990Y-164237571D01*
X192310605Y-164237571D01*
X191248531Y-163175496D01*
X190186456Y-164237571D01*
X187825500Y-164237571D01*
X187825500Y-162064994D01*
X188823500Y-162064994D01*
X188823500Y-162874614D01*
X189480764Y-163531878D01*
X190542839Y-162469804D01*
X191954223Y-162469804D01*
X193016298Y-163531878D01*
X194078372Y-162469804D01*
X195489757Y-162469804D01*
X196551832Y-163531879D01*
X197613906Y-162469804D01*
X199025291Y-162469804D01*
X200087365Y-163531878D01*
X200776856Y-162842388D01*
X200776899Y-162097263D01*
X200087365Y-161407729D01*
X199025291Y-162469804D01*
X197613906Y-162469804D01*
X196551832Y-161407729D01*
X195489757Y-162469804D01*
X194078372Y-162469804D01*
X193016298Y-161407729D01*
X191954223Y-162469804D01*
X190542839Y-162469804D01*
X189480764Y-161407729D01*
X188823500Y-162064994D01*
X187825500Y-162064994D01*
X187825500Y-160702037D01*
X190186456Y-160702037D01*
X191248531Y-161764112D01*
X192310605Y-160702037D01*
X193721990Y-160702037D01*
X194784065Y-161764112D01*
X195846139Y-160702037D01*
X197257524Y-160702037D01*
X198319599Y-161764112D01*
X199381673Y-160702037D01*
X198319599Y-159639963D01*
X197257524Y-160702037D01*
X195846139Y-160702037D01*
X194784065Y-159639963D01*
X193721990Y-160702037D01*
X192310605Y-160702037D01*
X191248531Y-159639963D01*
X190186456Y-160702037D01*
X187825500Y-160702037D01*
X187825500Y-158529461D01*
X188823500Y-158529461D01*
X188823500Y-159339080D01*
X189480765Y-159996345D01*
X190542839Y-158934270D01*
X191954223Y-158934270D01*
X193016298Y-159996345D01*
X194078372Y-158934270D01*
X195489757Y-158934270D01*
X196551832Y-159996345D01*
X197613906Y-158934270D01*
X199025291Y-158934270D01*
X200087365Y-159996345D01*
X200777065Y-159306645D01*
X200777108Y-158561938D01*
X200087366Y-157872196D01*
X199025291Y-158934270D01*
X197613906Y-158934270D01*
X196551832Y-157872196D01*
X195489757Y-158934270D01*
X194078372Y-158934270D01*
X193016298Y-157872196D01*
X191954223Y-158934270D01*
X190542839Y-158934270D01*
X189480764Y-157872196D01*
X188823500Y-158529461D01*
X187825500Y-158529461D01*
X187825500Y-157166504D01*
X190186456Y-157166504D01*
X191248531Y-158228578D01*
X192310606Y-157166504D01*
X193721990Y-157166504D01*
X194784065Y-158228578D01*
X195846140Y-157166504D01*
X197257524Y-157166504D01*
X198319599Y-158228579D01*
X199381674Y-157166504D01*
X198319599Y-156104429D01*
X197257524Y-157166504D01*
X195846140Y-157166504D01*
X194784065Y-156104429D01*
X193721990Y-157166504D01*
X192310606Y-157166504D01*
X191248531Y-156104429D01*
X190186456Y-157166504D01*
X187825500Y-157166504D01*
X187825500Y-154993927D01*
X188823500Y-154993927D01*
X188823500Y-155803547D01*
X189480764Y-156460811D01*
X190542839Y-155398737D01*
X191954223Y-155398737D01*
X193016298Y-156460811D01*
X194078373Y-155398737D01*
X195489757Y-155398737D01*
X196551832Y-156460812D01*
X197613907Y-155398737D01*
X199025291Y-155398737D01*
X200087365Y-156460811D01*
X200777274Y-155770903D01*
X200777317Y-155026613D01*
X200087366Y-154336662D01*
X199025291Y-155398737D01*
X197613907Y-155398737D01*
X196551832Y-154336662D01*
X195489757Y-155398737D01*
X194078373Y-155398737D01*
X193016298Y-154336662D01*
X191954223Y-155398737D01*
X190542839Y-155398737D01*
X189480764Y-154336662D01*
X188823500Y-154993927D01*
X187825500Y-154993927D01*
X187825500Y-153630970D01*
X190186456Y-153630970D01*
X191248531Y-154693044D01*
X192310606Y-153630970D01*
X193721990Y-153630970D01*
X194784065Y-154693044D01*
X195846140Y-153630970D01*
X197257524Y-153630970D01*
X198319599Y-154693045D01*
X199381674Y-153630970D01*
X198319599Y-152568895D01*
X197257524Y-153630970D01*
X195846140Y-153630970D01*
X194784065Y-152568895D01*
X193721990Y-153630970D01*
X192310606Y-153630970D01*
X191248531Y-152568895D01*
X190186456Y-153630970D01*
X187825500Y-153630970D01*
X187825500Y-151458393D01*
X188823500Y-151458393D01*
X188823500Y-152268013D01*
X189480764Y-152925277D01*
X190542839Y-151863203D01*
X191954223Y-151863203D01*
X193016298Y-152925277D01*
X194078373Y-151863203D01*
X195489757Y-151863203D01*
X196551832Y-152925278D01*
X197613907Y-151863203D01*
X199025291Y-151863203D01*
X200087365Y-152925277D01*
X200777483Y-152235160D01*
X200777526Y-151491288D01*
X200087366Y-150801128D01*
X199025291Y-151863203D01*
X197613907Y-151863203D01*
X196551832Y-150801128D01*
X195489757Y-151863203D01*
X194078373Y-151863203D01*
X193016298Y-150801128D01*
X191954223Y-151863203D01*
X190542839Y-151863203D01*
X189480764Y-150801128D01*
X188823500Y-151458393D01*
X187825500Y-151458393D01*
X187825500Y-150095436D01*
X190186456Y-150095436D01*
X191248531Y-151157510D01*
X192310606Y-150095436D01*
X193721990Y-150095436D01*
X194784065Y-151157510D01*
X195846140Y-150095436D01*
X197257524Y-150095436D01*
X198319599Y-151157511D01*
X199381674Y-150095436D01*
X198319599Y-149033361D01*
X197257524Y-150095436D01*
X195846140Y-150095436D01*
X194784065Y-149033361D01*
X193721990Y-150095436D01*
X192310606Y-150095436D01*
X191248531Y-149033361D01*
X190186456Y-150095436D01*
X187825500Y-150095436D01*
X187825500Y-147922859D01*
X188823500Y-147922859D01*
X188823500Y-148732479D01*
X189480764Y-149389743D01*
X190542839Y-148327669D01*
X191954223Y-148327669D01*
X193016298Y-149389743D01*
X194078373Y-148327669D01*
X195489757Y-148327669D01*
X196551832Y-149389744D01*
X197613907Y-148327669D01*
X199025291Y-148327669D01*
X200087365Y-149389743D01*
X200777692Y-148699417D01*
X200777735Y-147955963D01*
X200087366Y-147265594D01*
X199025291Y-148327669D01*
X197613907Y-148327669D01*
X196551832Y-147265594D01*
X195489757Y-148327669D01*
X194078373Y-148327669D01*
X193016298Y-147265594D01*
X191954223Y-148327669D01*
X190542839Y-148327669D01*
X189480764Y-147265594D01*
X188823500Y-147922859D01*
X187825500Y-147922859D01*
X187825500Y-146559902D01*
X190186456Y-146559902D01*
X191248531Y-147621976D01*
X192310606Y-146559902D01*
X193721990Y-146559902D01*
X194784065Y-147621976D01*
X195846140Y-146559902D01*
X197257524Y-146559902D01*
X198319599Y-147621977D01*
X199381674Y-146559902D01*
X198319599Y-145497827D01*
X197257524Y-146559902D01*
X195846140Y-146559902D01*
X194784065Y-145497827D01*
X193721990Y-146559902D01*
X192310606Y-146559902D01*
X191248531Y-145497827D01*
X190186456Y-146559902D01*
X187825500Y-146559902D01*
X187825500Y-144387325D01*
X188823500Y-144387325D01*
X188823500Y-145196945D01*
X189480764Y-145854209D01*
X190542839Y-144792135D01*
X191954223Y-144792135D01*
X193016298Y-145854209D01*
X194078373Y-144792135D01*
X195489757Y-144792135D01*
X196551832Y-145854210D01*
X197613907Y-144792135D01*
X199025291Y-144792135D01*
X200087365Y-145854209D01*
X200777901Y-145163674D01*
X200777944Y-144420638D01*
X200087366Y-143730060D01*
X199025291Y-144792135D01*
X197613907Y-144792135D01*
X196551832Y-143730060D01*
X195489757Y-144792135D01*
X194078373Y-144792135D01*
X193016298Y-143730060D01*
X191954223Y-144792135D01*
X190542839Y-144792135D01*
X189480764Y-143730060D01*
X188823500Y-144387325D01*
X187825500Y-144387325D01*
X187825500Y-143024368D01*
X190186456Y-143024368D01*
X191248531Y-144086442D01*
X192310606Y-143024368D01*
X193721990Y-143024368D01*
X194784065Y-144086442D01*
X195846140Y-143024368D01*
X197257524Y-143024368D01*
X198319599Y-144086443D01*
X199381674Y-143024368D01*
X198319599Y-141962293D01*
X197257524Y-143024368D01*
X195846140Y-143024368D01*
X194784065Y-141962293D01*
X193721990Y-143024368D01*
X192310606Y-143024368D01*
X191248531Y-141962293D01*
X190186456Y-143024368D01*
X187825500Y-143024368D01*
X187825500Y-140851791D01*
X188823500Y-140851791D01*
X188823500Y-141661411D01*
X189480764Y-142318675D01*
X190542839Y-141256601D01*
X191954223Y-141256601D01*
X193016298Y-142318675D01*
X194078373Y-141256601D01*
X195489757Y-141256601D01*
X196551832Y-142318676D01*
X197613907Y-141256601D01*
X199025291Y-141256601D01*
X200087365Y-142318675D01*
X200778110Y-141627931D01*
X200778153Y-140885313D01*
X200087366Y-140194526D01*
X199025291Y-141256601D01*
X197613907Y-141256601D01*
X196551832Y-140194526D01*
X195489757Y-141256601D01*
X194078373Y-141256601D01*
X193016298Y-140194526D01*
X191954223Y-141256601D01*
X190542839Y-141256601D01*
X189480764Y-140194526D01*
X188823500Y-140851791D01*
X187825500Y-140851791D01*
X187825500Y-139488834D01*
X190186456Y-139488834D01*
X191248531Y-140550908D01*
X192310606Y-139488834D01*
X193721990Y-139488834D01*
X194784065Y-140550908D01*
X195846140Y-139488834D01*
X197257524Y-139488834D01*
X198319599Y-140550909D01*
X199381674Y-139488834D01*
X198319599Y-138426759D01*
X197257524Y-139488834D01*
X195846140Y-139488834D01*
X194784065Y-138426759D01*
X193721990Y-139488834D01*
X192310606Y-139488834D01*
X191248531Y-138426759D01*
X190186456Y-139488834D01*
X187825500Y-139488834D01*
X187825500Y-137423500D01*
X188823500Y-137423500D01*
X188823500Y-138125877D01*
X189480764Y-138783141D01*
X190542838Y-137721067D01*
X191954223Y-137721067D01*
X193016298Y-138783141D01*
X194078373Y-137721067D01*
X195489757Y-137721067D01*
X196551832Y-138783142D01*
X197613907Y-137721067D01*
X197613906Y-137721066D01*
X199025290Y-137721066D01*
X200087365Y-138783141D01*
X200778319Y-138092188D01*
X200778358Y-137423524D01*
X200692147Y-137423626D01*
X200690851Y-137423500D01*
X200681911Y-137423500D01*
X200676183Y-137423368D01*
X200641562Y-137421767D01*
X200635848Y-137421370D01*
X200589922Y-137417114D01*
X200584233Y-137416454D01*
X200549909Y-137411666D01*
X200544255Y-137410744D01*
X200312094Y-137367345D01*
X200306486Y-137366162D01*
X200272735Y-137358223D01*
X200267189Y-137356782D01*
X200222831Y-137344159D01*
X200217361Y-137342465D01*
X200184520Y-137331457D01*
X200179135Y-137329513D01*
X199958908Y-137244197D01*
X199953615Y-137242004D01*
X199921893Y-137227997D01*
X199916704Y-137225561D01*
X199875418Y-137205001D01*
X199870350Y-137202329D01*
X199840091Y-137185473D01*
X199835157Y-137182574D01*
X199667556Y-137078800D01*
X199025290Y-137721066D01*
X197613906Y-137721066D01*
X196551832Y-136658992D01*
X195489757Y-137721067D01*
X194078373Y-137721067D01*
X193016298Y-136658992D01*
X191954223Y-137721067D01*
X190542838Y-137721067D01*
X190542839Y-137721066D01*
X189912760Y-137090987D01*
X189764843Y-137182574D01*
X189759909Y-137185473D01*
X189729650Y-137202329D01*
X189724582Y-137205001D01*
X189683296Y-137225561D01*
X189678107Y-137227997D01*
X189646385Y-137242004D01*
X189641092Y-137244197D01*
X189420865Y-137329513D01*
X189415480Y-137331457D01*
X189382639Y-137342465D01*
X189377169Y-137344159D01*
X189332811Y-137356782D01*
X189327265Y-137358223D01*
X189293514Y-137366162D01*
X189287906Y-137367345D01*
X189055745Y-137410744D01*
X189050091Y-137411666D01*
X189015767Y-137416454D01*
X189010078Y-137417114D01*
X188964152Y-137421370D01*
X188958438Y-137421767D01*
X188923817Y-137423368D01*
X188918089Y-137423500D01*
X188823500Y-137423500D01*
X187825500Y-137423500D01*
X187825500Y-136549500D01*
X187845185Y-136482461D01*
X187897989Y-136436706D01*
X187949500Y-136425500D01*
X188895025Y-136425500D01*
X188895027Y-136425500D01*
X189081844Y-136390577D01*
X189179211Y-136352857D01*
X190586014Y-136352857D01*
X191248531Y-137015374D01*
X192310606Y-135953300D01*
X193721990Y-135953300D01*
X194784065Y-137015374D01*
X195846140Y-135953300D01*
X197257524Y-135953300D01*
X198319598Y-137015374D01*
X199003391Y-136331581D01*
X198936001Y-136196244D01*
X198933567Y-136191058D01*
X198919567Y-136159351D01*
X198917375Y-136154059D01*
X198900713Y-136111050D01*
X198898767Y-136105661D01*
X198887754Y-136072802D01*
X198886059Y-136067330D01*
X198821430Y-135840177D01*
X198819991Y-135834634D01*
X198812059Y-135800909D01*
X198810877Y-135795308D01*
X198802401Y-135749973D01*
X198801478Y-135744315D01*
X198796689Y-135709983D01*
X198796029Y-135704293D01*
X198774237Y-135469122D01*
X198773840Y-135463409D01*
X198772239Y-135428789D01*
X198772107Y-135423061D01*
X198772107Y-135376939D01*
X198772239Y-135371211D01*
X198773447Y-135345073D01*
X198319599Y-134891225D01*
X197257524Y-135953300D01*
X195846140Y-135953300D01*
X194784065Y-134891225D01*
X193721990Y-135953300D01*
X192310606Y-135953300D01*
X191248531Y-134891225D01*
X190824331Y-135315424D01*
X190825763Y-135330877D01*
X190826160Y-135336591D01*
X190827761Y-135371211D01*
X190827893Y-135376939D01*
X190827893Y-135423061D01*
X190827761Y-135428789D01*
X190826160Y-135463409D01*
X190825763Y-135469122D01*
X190803971Y-135704293D01*
X190803311Y-135709983D01*
X190798522Y-135744315D01*
X190797599Y-135749973D01*
X190789123Y-135795308D01*
X190787941Y-135800909D01*
X190780009Y-135834634D01*
X190778570Y-135840177D01*
X190713941Y-136067330D01*
X190712246Y-136072802D01*
X190701233Y-136105661D01*
X190699287Y-136111050D01*
X190682625Y-136154059D01*
X190680433Y-136159351D01*
X190666433Y-136191058D01*
X190663999Y-136196244D01*
X190586014Y-136352857D01*
X189179211Y-136352857D01*
X189259063Y-136321922D01*
X189420649Y-136221872D01*
X189561100Y-136093834D01*
X189675633Y-135942169D01*
X189760347Y-135772040D01*
X189812357Y-135589242D01*
X189829893Y-135400000D01*
X189812357Y-135210758D01*
X189760347Y-135027960D01*
X189759906Y-135027075D01*
X189692261Y-134891225D01*
X189675633Y-134857831D01*
X189561100Y-134706166D01*
X189548126Y-134694339D01*
X189420650Y-134578129D01*
X189420649Y-134578128D01*
X189259063Y-134478078D01*
X189259061Y-134478077D01*
X189259057Y-134478075D01*
X189162517Y-134440676D01*
X189081844Y-134409423D01*
X188895027Y-134374500D01*
X188895025Y-134374500D01*
X188808126Y-134374500D01*
X188791941Y-134373439D01*
X188780208Y-134371894D01*
X188693375Y-134360462D01*
X188662109Y-134352084D01*
X188577834Y-134317177D01*
X188549800Y-134300992D01*
X188514540Y-134273936D01*
X188477428Y-134245458D01*
X188454541Y-134222571D01*
X188422912Y-134181352D01*
X188399005Y-134150197D01*
X188382823Y-134122168D01*
X188358818Y-134064213D01*
X188347915Y-134037890D01*
X188339537Y-134006623D01*
X188326561Y-133908059D01*
X188325500Y-133891874D01*
X188325500Y-133408125D01*
X188326561Y-133391940D01*
X188329754Y-133367685D01*
X188339537Y-133293375D01*
X188347915Y-133262109D01*
X188378856Y-133187410D01*
X188382825Y-133177828D01*
X188399003Y-133149805D01*
X188454541Y-133077427D01*
X188477428Y-133054541D01*
X188549805Y-132999003D01*
X188577828Y-132982825D01*
X188662109Y-132947915D01*
X188693375Y-132939537D01*
X188791941Y-132926561D01*
X188808126Y-132925500D01*
X188808285Y-132925500D01*
X191658196Y-132925500D01*
X191725235Y-132945185D01*
X191770990Y-132997989D01*
X191779999Y-133026262D01*
X191791053Y-133084212D01*
X191810739Y-133187410D01*
X191882111Y-133367675D01*
X191882117Y-133367687D01*
X191952784Y-133479039D01*
X191986010Y-133531395D01*
X192118740Y-133672738D01*
X192170394Y-133710267D01*
X192275604Y-133786707D01*
X192304536Y-133800321D01*
X192451044Y-133869262D01*
X192638847Y-133917482D01*
X192832358Y-133929657D01*
X193024724Y-133905355D01*
X193209128Y-133845439D01*
X193379039Y-133752029D01*
X193528437Y-133628437D01*
X193652029Y-133479039D01*
X193670151Y-133446076D01*
X194750300Y-133446076D01*
X194784064Y-133479840D01*
X194841883Y-133422021D01*
X194838221Y-133410748D01*
X194836546Y-133405149D01*
X194827218Y-133371050D01*
X194825810Y-133365381D01*
X194815548Y-133319471D01*
X194814409Y-133313741D01*
X194808332Y-133278923D01*
X194807463Y-133273145D01*
X194800000Y-133214070D01*
X194792537Y-133273145D01*
X194791668Y-133278923D01*
X194785591Y-133313741D01*
X194784452Y-133319471D01*
X194774190Y-133365381D01*
X194772782Y-133371050D01*
X194763454Y-133405149D01*
X194761779Y-133410748D01*
X194750300Y-133446076D01*
X193670151Y-133446076D01*
X193745439Y-133309128D01*
X193805355Y-133124724D01*
X193829657Y-132932358D01*
X193817482Y-132738847D01*
X193769262Y-132551044D01*
X193709223Y-132423455D01*
X193686707Y-132375604D01*
X193584610Y-132235081D01*
X193572738Y-132218740D01*
X193431395Y-132086010D01*
X193267685Y-131982116D01*
X193267675Y-131982111D01*
X193087410Y-131910740D01*
X193087409Y-131910739D01*
X193087407Y-131910739D01*
X193009943Y-131895962D01*
X192926264Y-131879999D01*
X192864101Y-131848100D01*
X192829051Y-131787658D01*
X192825500Y-131758195D01*
X192825500Y-131705970D01*
X194433785Y-131705970D01*
X194507927Y-131808017D01*
X194511248Y-131812823D01*
X194530650Y-131842359D01*
X194533741Y-131847315D01*
X194557691Y-131887810D01*
X194560547Y-131892908D01*
X194577095Y-131924160D01*
X194579708Y-131929390D01*
X194682292Y-132147395D01*
X194684652Y-132152734D01*
X194698172Y-132185371D01*
X194700280Y-132190820D01*
X194716217Y-132235081D01*
X194718067Y-132240623D01*
X194728468Y-132274427D01*
X194730055Y-132280055D01*
X194789980Y-132513445D01*
X194791300Y-132519141D01*
X194798472Y-132553778D01*
X194799522Y-132559529D01*
X194800000Y-132562548D01*
X194800478Y-132559529D01*
X194801528Y-132553778D01*
X194808700Y-132519141D01*
X194810020Y-132513445D01*
X194869945Y-132280055D01*
X194871532Y-132274427D01*
X194881933Y-132240623D01*
X194883783Y-132235081D01*
X194899720Y-132190820D01*
X194901828Y-132185371D01*
X194915348Y-132152734D01*
X194917708Y-132147395D01*
X195020292Y-131929390D01*
X195022905Y-131924160D01*
X195039453Y-131892908D01*
X195042309Y-131887810D01*
X195066259Y-131847315D01*
X195069350Y-131842359D01*
X195088752Y-131812823D01*
X195092073Y-131808018D01*
X195152803Y-131724429D01*
X194784065Y-131355691D01*
X194433785Y-131705970D01*
X192825500Y-131705970D01*
X192825500Y-130649998D01*
X195489756Y-130649998D01*
X195915090Y-131075332D01*
X195937664Y-131065140D01*
X195943048Y-131062860D01*
X196167077Y-130974162D01*
X196172557Y-130972141D01*
X196205996Y-130960692D01*
X196211568Y-130958929D01*
X196256745Y-130945804D01*
X196262392Y-130944307D01*
X196296767Y-130936054D01*
X196302480Y-130934824D01*
X196539264Y-130889655D01*
X196545053Y-130888692D01*
X196580216Y-130883695D01*
X196586050Y-130883007D01*
X196633127Y-130878579D01*
X196638983Y-130878168D01*
X196674488Y-130876518D01*
X196680363Y-130876384D01*
X196800960Y-130876500D01*
X197387406Y-130876500D01*
X197613907Y-130649999D01*
X199025291Y-130649999D01*
X199251792Y-130876500D01*
X200922940Y-130876500D01*
X201149441Y-130649999D01*
X202560825Y-130649999D01*
X202787326Y-130876500D01*
X204458474Y-130876500D01*
X204684975Y-130649999D01*
X206096359Y-130649999D01*
X206322860Y-130876500D01*
X207799040Y-130876500D01*
X207919637Y-130876384D01*
X207925512Y-130876518D01*
X207961017Y-130878168D01*
X207966873Y-130878579D01*
X207989774Y-130880733D01*
X208220508Y-130649998D01*
X209631892Y-130649998D01*
X210410631Y-131428737D01*
X210502575Y-131342396D01*
X210506929Y-131338497D01*
X210533810Y-131315539D01*
X210538340Y-131311850D01*
X210575512Y-131283017D01*
X210580210Y-131279547D01*
X210609129Y-131259222D01*
X210613988Y-131255975D01*
X210817410Y-131126879D01*
X210822412Y-131123868D01*
X210853099Y-131106363D01*
X210858238Y-131103590D01*
X210900155Y-131082229D01*
X210905426Y-131079697D01*
X210937664Y-131065140D01*
X210943048Y-131062860D01*
X211167077Y-130974162D01*
X211172557Y-130972141D01*
X211205996Y-130960692D01*
X211211568Y-130958929D01*
X211256745Y-130945804D01*
X211262392Y-130944307D01*
X211296767Y-130936054D01*
X211302480Y-130934824D01*
X211510993Y-130895047D01*
X211756041Y-130649999D01*
X213167427Y-130649999D01*
X213393928Y-130876500D01*
X215065076Y-130876500D01*
X215291577Y-130649999D01*
X216702961Y-130649999D01*
X216929462Y-130876500D01*
X218600610Y-130876500D01*
X218827111Y-130649999D01*
X220238495Y-130649999D01*
X220464996Y-130876500D01*
X222136144Y-130876500D01*
X222362645Y-130649999D01*
X223774029Y-130649999D01*
X224836103Y-131712073D01*
X225898178Y-130649999D01*
X227309563Y-130649999D01*
X227536064Y-130876500D01*
X229207211Y-130876500D01*
X229433712Y-130649999D01*
X230845097Y-130649999D01*
X231071598Y-130876500D01*
X232742745Y-130876500D01*
X232969246Y-130649999D01*
X234380630Y-130649999D01*
X234607131Y-130876500D01*
X236278279Y-130876500D01*
X236504780Y-130649999D01*
X236504779Y-130649998D01*
X237916163Y-130649998D01*
X238178232Y-130912067D01*
X238297521Y-130934824D01*
X238303233Y-130936054D01*
X238337608Y-130944307D01*
X238343255Y-130945804D01*
X238388432Y-130958929D01*
X238394004Y-130960692D01*
X238427443Y-130972141D01*
X238432923Y-130974162D01*
X238656952Y-131062860D01*
X238662336Y-131065140D01*
X238694574Y-131079697D01*
X238699845Y-131082229D01*
X238741762Y-131103590D01*
X238746901Y-131106363D01*
X238777588Y-131123868D01*
X238782590Y-131126879D01*
X238986012Y-131255975D01*
X238990871Y-131259222D01*
X239019790Y-131279547D01*
X239024488Y-131283017D01*
X239061660Y-131311850D01*
X239066190Y-131315539D01*
X239093071Y-131338497D01*
X239097425Y-131342396D01*
X239226606Y-131463705D01*
X240040313Y-130649998D01*
X239226607Y-129836292D01*
X239097425Y-129957604D01*
X239093071Y-129961503D01*
X239066190Y-129984461D01*
X239061660Y-129988150D01*
X239024488Y-130016983D01*
X239019790Y-130020453D01*
X238990871Y-130040778D01*
X238986012Y-130044025D01*
X238782590Y-130173121D01*
X238777588Y-130176132D01*
X238746901Y-130193637D01*
X238741762Y-130196410D01*
X238699845Y-130217771D01*
X238694574Y-130220303D01*
X238662336Y-130234860D01*
X238656952Y-130237140D01*
X238432923Y-130325838D01*
X238427443Y-130327859D01*
X238394004Y-130339308D01*
X238388432Y-130341071D01*
X238343255Y-130354196D01*
X238337608Y-130355693D01*
X238303233Y-130363946D01*
X238297520Y-130365176D01*
X238178230Y-130387931D01*
X237916163Y-130649998D01*
X236504779Y-130649998D01*
X236278281Y-130423500D01*
X234607129Y-130423500D01*
X234380630Y-130649999D01*
X232969246Y-130649999D01*
X232742747Y-130423500D01*
X231071596Y-130423500D01*
X230845097Y-130649999D01*
X229433712Y-130649999D01*
X229207213Y-130423500D01*
X227536062Y-130423500D01*
X227309563Y-130649999D01*
X225898178Y-130649999D01*
X224836103Y-129587924D01*
X223774029Y-130649999D01*
X222362645Y-130649999D01*
X222136146Y-130423500D01*
X220464994Y-130423500D01*
X220238495Y-130649999D01*
X218827111Y-130649999D01*
X218600612Y-130423500D01*
X216929460Y-130423500D01*
X216702961Y-130649999D01*
X215291577Y-130649999D01*
X215065078Y-130423500D01*
X213393926Y-130423500D01*
X213167427Y-130649999D01*
X211756041Y-130649999D01*
X211756042Y-130649998D01*
X211510996Y-130404952D01*
X211302480Y-130365176D01*
X211296767Y-130363946D01*
X211262392Y-130355693D01*
X211256745Y-130354196D01*
X211211568Y-130341071D01*
X211205996Y-130339308D01*
X211172557Y-130327859D01*
X211167077Y-130325838D01*
X210943048Y-130237140D01*
X210937664Y-130234860D01*
X210905426Y-130220303D01*
X210900155Y-130217771D01*
X210858238Y-130196410D01*
X210853099Y-130193637D01*
X210822412Y-130176132D01*
X210817410Y-130173121D01*
X210613988Y-130044025D01*
X210609129Y-130040778D01*
X210580210Y-130020453D01*
X210575512Y-130016983D01*
X210538340Y-129988150D01*
X210533810Y-129984461D01*
X210506929Y-129961503D01*
X210502575Y-129957604D01*
X210410629Y-129871261D01*
X209631892Y-130649998D01*
X208220508Y-130649998D01*
X207989776Y-130419266D01*
X207966873Y-130421421D01*
X207961017Y-130421832D01*
X207925512Y-130423482D01*
X207919637Y-130423616D01*
X207799040Y-130423500D01*
X206322858Y-130423500D01*
X206096359Y-130649999D01*
X204684975Y-130649999D01*
X204458476Y-130423500D01*
X202787324Y-130423500D01*
X202560825Y-130649999D01*
X201149441Y-130649999D01*
X200922942Y-130423500D01*
X199251790Y-130423500D01*
X199025291Y-130649999D01*
X197613907Y-130649999D01*
X197387408Y-130423500D01*
X196800960Y-130423500D01*
X196680363Y-130423616D01*
X196674488Y-130423482D01*
X196638983Y-130421832D01*
X196633127Y-130421421D01*
X196586050Y-130416993D01*
X196580216Y-130416305D01*
X196545053Y-130411308D01*
X196539264Y-130410345D01*
X196302480Y-130365176D01*
X196296767Y-130363946D01*
X196262392Y-130355693D01*
X196256745Y-130354196D01*
X196211568Y-130341071D01*
X196205996Y-130339308D01*
X196172557Y-130327859D01*
X196167077Y-130325838D01*
X195943048Y-130237140D01*
X195937664Y-130234860D01*
X195915088Y-130224666D01*
X195489756Y-130649998D01*
X192825500Y-130649998D01*
X192825500Y-129594027D01*
X194433786Y-129594027D01*
X194784065Y-129944306D01*
X195152802Y-129575568D01*
X195092073Y-129491982D01*
X195088752Y-129487177D01*
X195069350Y-129457641D01*
X195066259Y-129452685D01*
X195042309Y-129412190D01*
X195039453Y-129407092D01*
X195022905Y-129375840D01*
X195020292Y-129370610D01*
X194917708Y-129152605D01*
X194915348Y-129147266D01*
X194901828Y-129114629D01*
X194899720Y-129109180D01*
X194883783Y-129064919D01*
X194881933Y-129059377D01*
X194871532Y-129025573D01*
X194869945Y-129019945D01*
X194810020Y-128786555D01*
X194808700Y-128780859D01*
X194801528Y-128746222D01*
X194800478Y-128740471D01*
X194800000Y-128737451D01*
X194799522Y-128740471D01*
X194798472Y-128746222D01*
X194791300Y-128780859D01*
X194789980Y-128786555D01*
X194730055Y-129019945D01*
X194728468Y-129025573D01*
X194718067Y-129059377D01*
X194716217Y-129064919D01*
X194700280Y-129109180D01*
X194698172Y-129114629D01*
X194684652Y-129147266D01*
X194682292Y-129152605D01*
X194579708Y-129370610D01*
X194577095Y-129375840D01*
X194560547Y-129407092D01*
X194557691Y-129412190D01*
X194533741Y-129452685D01*
X194530650Y-129457641D01*
X194511248Y-129487177D01*
X194507927Y-129491983D01*
X194433786Y-129594027D01*
X192825500Y-129594027D01*
X192825500Y-129541804D01*
X192845185Y-129474765D01*
X192897989Y-129429010D01*
X192926262Y-129420000D01*
X193087407Y-129389261D01*
X193094894Y-129386297D01*
X193267675Y-129317888D01*
X193267675Y-129317887D01*
X193267685Y-129317884D01*
X193431395Y-129213990D01*
X193572738Y-129081260D01*
X193686706Y-128924397D01*
X193769262Y-128748956D01*
X193817482Y-128561153D01*
X193829657Y-128367642D01*
X193805355Y-128175276D01*
X193745439Y-127990872D01*
X193670150Y-127853922D01*
X194750299Y-127853922D01*
X194761779Y-127889251D01*
X194763454Y-127894851D01*
X194772782Y-127928950D01*
X194774190Y-127934619D01*
X194784452Y-127980529D01*
X194785591Y-127986259D01*
X194791668Y-128021077D01*
X194792537Y-128026855D01*
X194800000Y-128085929D01*
X194807463Y-128026855D01*
X194808332Y-128021077D01*
X194814409Y-127986259D01*
X194815548Y-127980529D01*
X194825810Y-127934619D01*
X194827218Y-127928950D01*
X194836546Y-127894851D01*
X194838221Y-127889253D01*
X194841884Y-127877977D01*
X194784064Y-127820157D01*
X194750299Y-127853922D01*
X193670150Y-127853922D01*
X193652029Y-127820961D01*
X193652028Y-127820959D01*
X193603135Y-127761857D01*
X193528437Y-127671563D01*
X193379039Y-127547971D01*
X193209128Y-127454561D01*
X193066212Y-127408125D01*
X193024725Y-127394645D01*
X193024721Y-127394644D01*
X192832358Y-127370343D01*
X192638844Y-127382518D01*
X192451050Y-127430736D01*
X192451047Y-127430737D01*
X192451045Y-127430737D01*
X192451044Y-127430738D01*
X192422383Y-127444225D01*
X192275604Y-127513292D01*
X192118738Y-127627263D01*
X191986012Y-127768602D01*
X191986006Y-127768610D01*
X191882117Y-127932312D01*
X191882111Y-127932324D01*
X191810739Y-128112589D01*
X191780000Y-128273735D01*
X191748102Y-128335899D01*
X191687660Y-128370949D01*
X191658196Y-128374500D01*
X188808126Y-128374500D01*
X188791941Y-128373439D01*
X188780208Y-128371894D01*
X188693375Y-128360462D01*
X188662109Y-128352084D01*
X188577834Y-128317177D01*
X188549800Y-128300992D01*
X188514278Y-128273735D01*
X188477428Y-128245458D01*
X188454541Y-128222571D01*
X188418248Y-128175274D01*
X188399005Y-128150197D01*
X188382823Y-128122168D01*
X188363145Y-128074660D01*
X188347915Y-128037890D01*
X188339537Y-128006623D01*
X188326561Y-127908059D01*
X188325500Y-127891874D01*
X188325500Y-127408125D01*
X188326561Y-127391940D01*
X188326890Y-127389438D01*
X188339537Y-127293375D01*
X188347915Y-127262109D01*
X188363145Y-127225340D01*
X188382825Y-127177828D01*
X188399003Y-127149805D01*
X188454541Y-127077427D01*
X188477428Y-127054541D01*
X188549805Y-126999003D01*
X188577828Y-126982825D01*
X188662109Y-126947915D01*
X188693375Y-126939537D01*
X188791941Y-126926561D01*
X188808126Y-126925500D01*
X188895025Y-126925500D01*
X188895027Y-126925500D01*
X189081844Y-126890577D01*
X189259063Y-126821922D01*
X189420649Y-126721872D01*
X189561100Y-126593834D01*
X189675633Y-126442169D01*
X189760347Y-126272040D01*
X189812357Y-126089242D01*
X189829893Y-125900000D01*
X189812357Y-125710758D01*
X189760347Y-125527960D01*
X189759906Y-125527075D01*
X189676014Y-125358597D01*
X189675633Y-125357831D01*
X189561100Y-125206166D01*
X189548126Y-125194339D01*
X189420650Y-125078129D01*
X189420649Y-125078128D01*
X189259063Y-124978078D01*
X189259061Y-124978077D01*
X189259057Y-124978075D01*
X189179203Y-124947140D01*
X190586013Y-124947140D01*
X190663999Y-125103756D01*
X190666433Y-125108942D01*
X190680433Y-125140649D01*
X190682625Y-125145941D01*
X190699287Y-125188950D01*
X190701233Y-125194339D01*
X190712246Y-125227198D01*
X190713941Y-125232670D01*
X190778570Y-125459823D01*
X190780009Y-125465366D01*
X190787941Y-125499091D01*
X190789123Y-125504692D01*
X190797599Y-125550027D01*
X190798522Y-125555685D01*
X190803311Y-125590017D01*
X190803971Y-125595707D01*
X190825763Y-125830878D01*
X190826160Y-125836591D01*
X190827761Y-125871211D01*
X190827893Y-125876939D01*
X190827893Y-125923061D01*
X190827761Y-125928789D01*
X190826160Y-125963409D01*
X190825763Y-125969123D01*
X190824331Y-125984572D01*
X191248531Y-126408772D01*
X192310605Y-125346698D01*
X193721990Y-125346698D01*
X194784065Y-126408772D01*
X195846139Y-125346698D01*
X197257524Y-125346698D01*
X198319598Y-126408772D01*
X198773447Y-125954923D01*
X198772239Y-125928789D01*
X198772107Y-125923061D01*
X198772107Y-125876939D01*
X198772239Y-125871211D01*
X198773840Y-125836591D01*
X198774237Y-125830878D01*
X198796029Y-125595707D01*
X198796689Y-125590017D01*
X198801478Y-125555685D01*
X198802401Y-125550027D01*
X198810877Y-125504692D01*
X198812059Y-125499091D01*
X198819991Y-125465366D01*
X198821430Y-125459823D01*
X198886059Y-125232670D01*
X198887754Y-125227198D01*
X198898767Y-125194339D01*
X198900713Y-125188950D01*
X198917375Y-125145941D01*
X198919567Y-125140649D01*
X198933567Y-125108942D01*
X198936001Y-125103756D01*
X199003392Y-124968416D01*
X198319599Y-124284623D01*
X197257524Y-125346698D01*
X195846139Y-125346698D01*
X194784065Y-124284623D01*
X193721990Y-125346698D01*
X192310605Y-125346698D01*
X191248530Y-124284623D01*
X190586013Y-124947140D01*
X189179203Y-124947140D01*
X189171678Y-124944225D01*
X189081844Y-124909423D01*
X188895027Y-124874500D01*
X188895025Y-124874500D01*
X188835185Y-124874500D01*
X188834984Y-124874460D01*
X188801238Y-124874500D01*
X188773160Y-124874500D01*
X188772942Y-124874533D01*
X187947734Y-124875510D01*
X187880671Y-124855905D01*
X187834854Y-124803155D01*
X187823587Y-124751503D01*
X187823603Y-124484172D01*
X187823639Y-123876475D01*
X188821638Y-123876475D01*
X188907853Y-123876374D01*
X188909149Y-123876500D01*
X188918089Y-123876500D01*
X188923817Y-123876632D01*
X188958438Y-123878233D01*
X188964152Y-123878630D01*
X189010078Y-123882886D01*
X189015767Y-123883546D01*
X189050091Y-123888334D01*
X189055745Y-123889256D01*
X189287906Y-123932655D01*
X189293514Y-123933838D01*
X189327265Y-123941777D01*
X189332811Y-123943218D01*
X189377169Y-123955841D01*
X189382639Y-123957535D01*
X189415480Y-123968543D01*
X189420865Y-123970487D01*
X189641092Y-124055803D01*
X189646385Y-124057996D01*
X189678107Y-124072003D01*
X189683296Y-124074439D01*
X189724582Y-124094999D01*
X189729650Y-124097671D01*
X189759909Y-124114527D01*
X189764843Y-124117426D01*
X189912758Y-124209011D01*
X190542838Y-123578931D01*
X191954223Y-123578931D01*
X193016298Y-124641006D01*
X194078372Y-123578931D01*
X195489757Y-123578931D01*
X196551832Y-124641006D01*
X197613906Y-123578931D01*
X199025291Y-123578931D01*
X199667558Y-124221198D01*
X199835157Y-124117426D01*
X199840091Y-124114527D01*
X199870350Y-124097671D01*
X199875418Y-124094999D01*
X199916704Y-124074439D01*
X199921893Y-124072003D01*
X199953615Y-124057996D01*
X199958908Y-124055803D01*
X200179135Y-123970487D01*
X200184520Y-123968543D01*
X200217361Y-123957535D01*
X200222831Y-123955841D01*
X200267189Y-123943218D01*
X200272735Y-123941777D01*
X200306486Y-123933838D01*
X200312094Y-123932655D01*
X200544255Y-123889256D01*
X200549909Y-123888334D01*
X200584233Y-123883546D01*
X200589922Y-123882886D01*
X200635848Y-123878630D01*
X200641562Y-123878233D01*
X200676183Y-123876632D01*
X200681911Y-123876500D01*
X200776500Y-123876500D01*
X200776500Y-123205991D01*
X200087366Y-122516857D01*
X199025291Y-123578931D01*
X197613906Y-123578931D01*
X196551832Y-122516857D01*
X195489757Y-123578931D01*
X194078372Y-123578931D01*
X193016298Y-122516857D01*
X191954223Y-123578931D01*
X190542838Y-123578931D01*
X189480764Y-122516856D01*
X188821679Y-123175942D01*
X188821638Y-123876475D01*
X187823639Y-123876475D01*
X187823761Y-121811164D01*
X190186456Y-121811164D01*
X191248531Y-122873239D01*
X192310605Y-121811164D01*
X193721990Y-121811164D01*
X194784065Y-122873239D01*
X195846139Y-121811164D01*
X197257524Y-121811164D01*
X198319599Y-122873239D01*
X199381673Y-121811164D01*
X198319599Y-120749090D01*
X197257524Y-121811164D01*
X195846139Y-121811164D01*
X194784065Y-120749090D01*
X193721990Y-121811164D01*
X192310605Y-121811164D01*
X191248531Y-120749090D01*
X190186456Y-121811164D01*
X187823761Y-121811164D01*
X187823842Y-120446547D01*
X188821840Y-120446547D01*
X189480765Y-121105472D01*
X190542839Y-120043397D01*
X191954223Y-120043397D01*
X193016298Y-121105472D01*
X194078372Y-120043397D01*
X195489757Y-120043397D01*
X196551832Y-121105472D01*
X197613906Y-120043397D01*
X199025291Y-120043397D01*
X200087365Y-121105472D01*
X200776500Y-120416338D01*
X200776500Y-119670457D01*
X200087366Y-118981323D01*
X199025291Y-120043397D01*
X197613906Y-120043397D01*
X196551832Y-118981323D01*
X195489757Y-120043397D01*
X194078372Y-120043397D01*
X193016298Y-118981323D01*
X191954223Y-120043397D01*
X190542839Y-120043397D01*
X189480764Y-118981322D01*
X188821888Y-119640199D01*
X188821840Y-120446547D01*
X187823842Y-120446547D01*
X187823970Y-118275631D01*
X190186456Y-118275631D01*
X191248531Y-119337705D01*
X192310606Y-118275631D01*
X193721990Y-118275631D01*
X194784065Y-119337705D01*
X195846140Y-118275631D01*
X197257524Y-118275631D01*
X198319599Y-119337706D01*
X199381674Y-118275631D01*
X198319599Y-117213556D01*
X197257524Y-118275631D01*
X195846140Y-118275631D01*
X194784065Y-117213556D01*
X193721990Y-118275631D01*
X192310606Y-118275631D01*
X191248531Y-117213556D01*
X190186456Y-118275631D01*
X187823970Y-118275631D01*
X187824051Y-116911223D01*
X188822049Y-116911223D01*
X189480764Y-117569938D01*
X190542839Y-116507864D01*
X191954223Y-116507864D01*
X193016298Y-117569938D01*
X194078373Y-116507864D01*
X195489757Y-116507864D01*
X196551832Y-117569939D01*
X197613907Y-116507864D01*
X199025291Y-116507864D01*
X200087366Y-117569939D01*
X200776500Y-116880805D01*
X200776500Y-116134923D01*
X200087366Y-115445789D01*
X199025291Y-116507864D01*
X197613907Y-116507864D01*
X196551832Y-115445789D01*
X195489757Y-116507864D01*
X194078373Y-116507864D01*
X193016298Y-115445789D01*
X191954223Y-116507864D01*
X190542839Y-116507864D01*
X189480764Y-115445788D01*
X188822097Y-116104456D01*
X188822049Y-116911223D01*
X187824051Y-116911223D01*
X187824179Y-114740097D01*
X190186456Y-114740097D01*
X191248531Y-115802171D01*
X192310606Y-114740097D01*
X193721990Y-114740097D01*
X194784065Y-115802171D01*
X195846140Y-114740097D01*
X197257524Y-114740097D01*
X198319599Y-115802172D01*
X199381674Y-114740097D01*
X198319599Y-113678022D01*
X197257524Y-114740097D01*
X195846140Y-114740097D01*
X194784065Y-113678022D01*
X193721990Y-114740097D01*
X192310606Y-114740097D01*
X191248531Y-113678022D01*
X190186456Y-114740097D01*
X187824179Y-114740097D01*
X187824260Y-113375898D01*
X188822258Y-113375898D01*
X189480764Y-114034404D01*
X190542839Y-112972330D01*
X191954223Y-112972330D01*
X193016298Y-114034404D01*
X194078373Y-112972330D01*
X195489757Y-112972330D01*
X196551832Y-114034405D01*
X197613907Y-112972330D01*
X199025291Y-112972330D01*
X200087366Y-114034405D01*
X200776500Y-113345271D01*
X200776500Y-112599389D01*
X200087366Y-111910255D01*
X199025291Y-112972330D01*
X197613907Y-112972330D01*
X196551832Y-111910255D01*
X195489757Y-112972330D01*
X194078373Y-112972330D01*
X193016298Y-111910255D01*
X191954223Y-112972330D01*
X190542839Y-112972330D01*
X189480764Y-111910254D01*
X188822306Y-112568713D01*
X188822258Y-113375898D01*
X187824260Y-113375898D01*
X187824388Y-111204563D01*
X190186456Y-111204563D01*
X191248531Y-112266637D01*
X192310606Y-111204563D01*
X193721990Y-111204563D01*
X194784065Y-112266637D01*
X195846140Y-111204563D01*
X197257524Y-111204563D01*
X198319599Y-112266638D01*
X199381674Y-111204563D01*
X198319599Y-110142488D01*
X197257524Y-111204563D01*
X195846140Y-111204563D01*
X194784065Y-110142488D01*
X193721990Y-111204563D01*
X192310606Y-111204563D01*
X191248531Y-110142488D01*
X190186456Y-111204563D01*
X187824388Y-111204563D01*
X187824469Y-109840573D01*
X188822467Y-109840573D01*
X189480764Y-110498870D01*
X190542839Y-109436796D01*
X191954223Y-109436796D01*
X193016298Y-110498870D01*
X194078373Y-109436796D01*
X195489757Y-109436796D01*
X196551832Y-110498871D01*
X197613907Y-109436796D01*
X199025291Y-109436796D01*
X200087366Y-110498871D01*
X200776500Y-109809737D01*
X200776500Y-109063855D01*
X200087366Y-108374721D01*
X199025291Y-109436796D01*
X197613907Y-109436796D01*
X196551832Y-108374721D01*
X195489757Y-109436796D01*
X194078373Y-109436796D01*
X193016298Y-108374721D01*
X191954223Y-109436796D01*
X190542839Y-109436796D01*
X189480764Y-108374720D01*
X188822515Y-109032970D01*
X188822467Y-109840573D01*
X187824469Y-109840573D01*
X187824597Y-107669029D01*
X190186456Y-107669029D01*
X191248531Y-108731103D01*
X192310606Y-107669029D01*
X193721990Y-107669029D01*
X194784065Y-108731103D01*
X195846140Y-107669029D01*
X197257524Y-107669029D01*
X198319599Y-108731104D01*
X199381674Y-107669029D01*
X198319599Y-106606954D01*
X197257524Y-107669029D01*
X195846140Y-107669029D01*
X194784065Y-106606954D01*
X193721990Y-107669029D01*
X192310606Y-107669029D01*
X191248531Y-106606954D01*
X190186456Y-107669029D01*
X187824597Y-107669029D01*
X187824678Y-106305248D01*
X188822676Y-106305248D01*
X189480764Y-106963336D01*
X190542839Y-105901262D01*
X191954223Y-105901262D01*
X193016298Y-106963336D01*
X194078373Y-105901262D01*
X195489757Y-105901262D01*
X196551832Y-106963337D01*
X197613907Y-105901262D01*
X199025291Y-105901262D01*
X200087366Y-106963337D01*
X200776500Y-106274203D01*
X200776500Y-105528321D01*
X200087366Y-104839187D01*
X199025291Y-105901262D01*
X197613907Y-105901262D01*
X196551832Y-104839187D01*
X195489757Y-105901262D01*
X194078373Y-105901262D01*
X193016298Y-104839187D01*
X191954223Y-105901262D01*
X190542839Y-105901262D01*
X189480764Y-104839186D01*
X188822724Y-105497227D01*
X188822676Y-106305248D01*
X187824678Y-106305248D01*
X187824806Y-104133495D01*
X190186456Y-104133495D01*
X191248531Y-105195569D01*
X192310606Y-104133495D01*
X193721990Y-104133495D01*
X194784065Y-105195569D01*
X195846140Y-104133495D01*
X197257524Y-104133495D01*
X198319599Y-105195570D01*
X199381674Y-104133495D01*
X198319599Y-103071420D01*
X197257524Y-104133495D01*
X195846140Y-104133495D01*
X194784065Y-103071420D01*
X193721990Y-104133495D01*
X192310606Y-104133495D01*
X191248531Y-103071420D01*
X190186456Y-104133495D01*
X187824806Y-104133495D01*
X187824887Y-102769924D01*
X188822886Y-102769924D01*
X189480764Y-103427802D01*
X190542839Y-102365728D01*
X191954223Y-102365728D01*
X193016298Y-103427802D01*
X194078373Y-102365728D01*
X195489757Y-102365728D01*
X196551832Y-103427803D01*
X197613907Y-102365728D01*
X199025291Y-102365728D01*
X200087366Y-103427803D01*
X200776500Y-102738669D01*
X200776500Y-101992787D01*
X200087366Y-101303653D01*
X199025291Y-102365728D01*
X197613907Y-102365728D01*
X196551832Y-101303653D01*
X195489757Y-102365728D01*
X194078373Y-102365728D01*
X193016298Y-101303653D01*
X191954223Y-102365728D01*
X190542839Y-102365728D01*
X189480764Y-101303652D01*
X188822933Y-101961483D01*
X188822886Y-102769924D01*
X187824887Y-102769924D01*
X187825015Y-100597961D01*
X190186456Y-100597961D01*
X191248531Y-101660035D01*
X192310606Y-100597961D01*
X193721990Y-100597961D01*
X194784065Y-101660035D01*
X195846140Y-100597961D01*
X197257524Y-100597961D01*
X198319599Y-101660036D01*
X199381674Y-100597961D01*
X198319599Y-99535886D01*
X197257524Y-100597961D01*
X195846140Y-100597961D01*
X194784065Y-99535886D01*
X193721990Y-100597961D01*
X192310606Y-100597961D01*
X191248531Y-99535886D01*
X190186456Y-100597961D01*
X187825015Y-100597961D01*
X187825096Y-99234599D01*
X188823095Y-99234599D01*
X189480764Y-99892268D01*
X190542839Y-98830194D01*
X191954223Y-98830194D01*
X193016298Y-99892268D01*
X194078373Y-98830194D01*
X195489757Y-98830194D01*
X196551832Y-99892269D01*
X197613907Y-98830194D01*
X199025291Y-98830194D01*
X200087366Y-99892269D01*
X200776500Y-99203135D01*
X200776500Y-98457253D01*
X200087366Y-97768119D01*
X199025291Y-98830194D01*
X197613907Y-98830194D01*
X196551832Y-97768119D01*
X195489757Y-98830194D01*
X194078373Y-98830194D01*
X193016298Y-97768119D01*
X191954223Y-98830194D01*
X190542839Y-98830194D01*
X189480764Y-97768118D01*
X188823142Y-98425740D01*
X188823095Y-99234599D01*
X187825096Y-99234599D01*
X187825224Y-97062427D01*
X190186456Y-97062427D01*
X191248531Y-98124501D01*
X192310606Y-97062427D01*
X193721990Y-97062427D01*
X194784065Y-98124501D01*
X195846140Y-97062427D01*
X197257524Y-97062427D01*
X198319599Y-98124502D01*
X199381674Y-97062427D01*
X198319599Y-96000352D01*
X197257524Y-97062427D01*
X195846140Y-97062427D01*
X194784065Y-96000352D01*
X193721990Y-97062427D01*
X192310606Y-97062427D01*
X191248531Y-96000352D01*
X190186456Y-97062427D01*
X187825224Y-97062427D01*
X187825305Y-95699274D01*
X188823304Y-95699274D01*
X189480764Y-96356734D01*
X190542839Y-95294660D01*
X191954223Y-95294660D01*
X193016298Y-96356734D01*
X194078373Y-95294660D01*
X195489757Y-95294660D01*
X196551832Y-96356735D01*
X197613907Y-95294660D01*
X199025291Y-95294660D01*
X200087366Y-96356735D01*
X200776500Y-95667601D01*
X200776500Y-94921719D01*
X200087366Y-94232585D01*
X199025291Y-95294660D01*
X197613907Y-95294660D01*
X196551832Y-94232585D01*
X195489757Y-95294660D01*
X194078373Y-95294660D01*
X193016298Y-94232585D01*
X191954223Y-95294660D01*
X190542839Y-95294660D01*
X189480764Y-94232584D01*
X188823351Y-94889997D01*
X188823304Y-95699274D01*
X187825305Y-95699274D01*
X187825433Y-93526892D01*
X190186456Y-93526892D01*
X191248531Y-94588967D01*
X192310606Y-93526893D01*
X192310605Y-93526892D01*
X193721990Y-93526892D01*
X194784065Y-94588967D01*
X195846140Y-93526893D01*
X197257524Y-93526893D01*
X198319599Y-94588968D01*
X199381674Y-93526893D01*
X198319599Y-92464818D01*
X197257524Y-93526893D01*
X195846140Y-93526893D01*
X194784065Y-92464818D01*
X193721990Y-93526892D01*
X192310605Y-93526892D01*
X191248531Y-92464818D01*
X190186456Y-93526892D01*
X187825433Y-93526892D01*
X187825499Y-92405388D01*
X187825970Y-92394620D01*
X187839359Y-92241585D01*
X187843112Y-92220303D01*
X187881463Y-92077175D01*
X187888849Y-92056880D01*
X187951481Y-91922564D01*
X187962274Y-91903871D01*
X188047271Y-91782485D01*
X188061158Y-91765934D01*
X188165934Y-91661158D01*
X188182485Y-91647271D01*
X188216628Y-91623362D01*
X188303871Y-91562274D01*
X188322564Y-91551481D01*
X188456880Y-91488849D01*
X188477169Y-91481464D01*
X188620306Y-91443111D01*
X188641587Y-91439359D01*
X188794605Y-91425971D01*
X188805412Y-91425500D01*
X188808285Y-91425500D01*
X200791715Y-91425500D01*
X200794588Y-91425500D01*
X200805394Y-91425971D01*
G37*
G04 #@! TD.AperFunction*
M02*
