G04 #@! TF.GenerationSoftware,KiCad,Pcbnew,9.0.2*
G04 #@! TF.CreationDate,2026-06-11T16:35:57-04:00*
G04 #@! TF.ProjectId,ThumbsUp,5468756d-6273-4557-902e-6b696361645f,rev?*
G04 #@! TF.SameCoordinates,Original*
G04 #@! TF.FileFunction,Soldermask,Bot*
G04 #@! TF.FilePolarity,Negative*
%FSLAX46Y46*%
G04 Gerber Fmt 4.6, Leading zero omitted, Abs format (unit mm)*
G04 Created by KiCad (PCBNEW 9.0.2) date 2026-06-11 16:35:57*
%MOMM*%
%LPD*%
G01*
G04 APERTURE LIST*
G04 APERTURE END LIST*
G36*
X139459340Y-247637434D02*
G01*
X139801123Y-247705419D01*
X140134596Y-247806577D01*
X140456548Y-247939934D01*
X140763879Y-248104206D01*
X141053628Y-248297810D01*
X141323006Y-248518883D01*
X141569417Y-248765294D01*
X141790490Y-249034672D01*
X141984094Y-249324421D01*
X142148366Y-249631752D01*
X142281723Y-249953704D01*
X142382881Y-250287177D01*
X142450866Y-250628960D01*
X142485023Y-250975761D01*
X142485023Y-251324239D01*
X142450866Y-251671040D01*
X142382881Y-252012823D01*
X142281723Y-252346296D01*
X142148366Y-252668248D01*
X141984094Y-252975579D01*
X141790490Y-253265328D01*
X141569417Y-253534706D01*
X141323006Y-253781117D01*
X141053628Y-254002190D01*
X140763879Y-254195794D01*
X140456548Y-254360066D01*
X140134596Y-254493423D01*
X139801123Y-254594581D01*
X139459340Y-254662566D01*
X139112539Y-254696723D01*
X138764061Y-254696723D01*
X138417260Y-254662566D01*
X138075477Y-254594581D01*
X137742004Y-254493423D01*
X137420052Y-254360066D01*
X137112721Y-254195794D01*
X136822972Y-254002190D01*
X136553594Y-253781117D01*
X136307183Y-253534706D01*
X136086110Y-253265328D01*
X135892506Y-252975579D01*
X135728234Y-252668248D01*
X135594877Y-252346296D01*
X135493719Y-252012823D01*
X135425734Y-251671040D01*
X135391577Y-251324239D01*
X135391577Y-250975761D01*
X135425734Y-250628960D01*
X135493719Y-250287177D01*
X135594877Y-249953704D01*
X135728234Y-249631752D01*
X135892506Y-249324421D01*
X136086110Y-249034672D01*
X136307183Y-248765294D01*
X136553594Y-248518883D01*
X136822972Y-248297810D01*
X137112721Y-248104206D01*
X137420052Y-247939934D01*
X137742004Y-247806577D01*
X138075477Y-247705419D01*
X138417260Y-247637434D01*
X138764061Y-247603277D01*
X139112539Y-247603277D01*
X139459340Y-247637434D01*
G37*
G36*
X154989340Y-247637434D02*
G01*
X155331123Y-247705419D01*
X155664596Y-247806577D01*
X155986548Y-247939934D01*
X156293879Y-248104206D01*
X156583628Y-248297810D01*
X156853006Y-248518883D01*
X157099417Y-248765294D01*
X157320490Y-249034672D01*
X157514094Y-249324421D01*
X157678366Y-249631752D01*
X157811723Y-249953704D01*
X157912881Y-250287177D01*
X157980866Y-250628960D01*
X158015023Y-250975761D01*
X158015023Y-251324239D01*
X157980866Y-251671040D01*
X157912881Y-252012823D01*
X157811723Y-252346296D01*
X157678366Y-252668248D01*
X157514094Y-252975579D01*
X157320490Y-253265328D01*
X157099417Y-253534706D01*
X156853006Y-253781117D01*
X156583628Y-254002190D01*
X156293879Y-254195794D01*
X155986548Y-254360066D01*
X155664596Y-254493423D01*
X155331123Y-254594581D01*
X154989340Y-254662566D01*
X154642539Y-254696723D01*
X154294061Y-254696723D01*
X153947260Y-254662566D01*
X153605477Y-254594581D01*
X153272004Y-254493423D01*
X152950052Y-254360066D01*
X152642721Y-254195794D01*
X152352972Y-254002190D01*
X152083594Y-253781117D01*
X151837183Y-253534706D01*
X151616110Y-253265328D01*
X151422506Y-252975579D01*
X151258234Y-252668248D01*
X151124877Y-252346296D01*
X151023719Y-252012823D01*
X150955734Y-251671040D01*
X150921577Y-251324239D01*
X150921577Y-250975761D01*
X150955734Y-250628960D01*
X151023719Y-250287177D01*
X151124877Y-249953704D01*
X151258234Y-249631752D01*
X151422506Y-249324421D01*
X151616110Y-249034672D01*
X151837183Y-248765294D01*
X152083594Y-248518883D01*
X152352972Y-248297810D01*
X152642721Y-248104206D01*
X152950052Y-247939934D01*
X153272004Y-247806577D01*
X153605477Y-247705419D01*
X153947260Y-247637434D01*
X154294061Y-247603277D01*
X154642539Y-247603277D01*
X154989340Y-247637434D01*
G37*
G36*
X87989340Y-243687434D02*
G01*
X88331123Y-243755419D01*
X88664596Y-243856577D01*
X88986548Y-243989934D01*
X89293879Y-244154206D01*
X89583628Y-244347810D01*
X89853006Y-244568883D01*
X90099417Y-244815294D01*
X90320490Y-245084672D01*
X90514094Y-245374421D01*
X90678366Y-245681752D01*
X90811723Y-246003704D01*
X90912881Y-246337177D01*
X90980866Y-246678960D01*
X91015023Y-247025761D01*
X91015023Y-247374239D01*
X90980866Y-247721040D01*
X90912881Y-248062823D01*
X90811723Y-248396296D01*
X90678366Y-248718248D01*
X90514094Y-249025579D01*
X90320490Y-249315328D01*
X90099417Y-249584706D01*
X89853006Y-249831117D01*
X89583628Y-250052190D01*
X89293879Y-250245794D01*
X88986548Y-250410066D01*
X88664596Y-250543423D01*
X88331123Y-250644581D01*
X87989340Y-250712566D01*
X87642539Y-250746723D01*
X87294061Y-250746723D01*
X86947260Y-250712566D01*
X86605477Y-250644581D01*
X86272004Y-250543423D01*
X85950052Y-250410066D01*
X85642721Y-250245794D01*
X85352972Y-250052190D01*
X85083594Y-249831117D01*
X84837183Y-249584706D01*
X84616110Y-249315328D01*
X84422506Y-249025579D01*
X84258234Y-248718248D01*
X84124877Y-248396296D01*
X84023719Y-248062823D01*
X83955734Y-247721040D01*
X83921577Y-247374239D01*
X83921577Y-247025761D01*
X83955734Y-246678960D01*
X84023719Y-246337177D01*
X84124877Y-246003704D01*
X84258234Y-245681752D01*
X84422506Y-245374421D01*
X84616110Y-245084672D01*
X84837183Y-244815294D01*
X85083594Y-244568883D01*
X85352972Y-244347810D01*
X85642721Y-244154206D01*
X85950052Y-243989934D01*
X86272004Y-243856577D01*
X86605477Y-243755419D01*
X86947260Y-243687434D01*
X87294061Y-243653277D01*
X87642539Y-243653277D01*
X87989340Y-243687434D01*
G37*
G36*
X121479340Y-239537434D02*
G01*
X121821123Y-239605419D01*
X122154596Y-239706577D01*
X122476548Y-239839934D01*
X122783879Y-240004206D01*
X123073628Y-240197810D01*
X123343006Y-240418883D01*
X123589417Y-240665294D01*
X123810490Y-240934672D01*
X124004094Y-241224421D01*
X124168366Y-241531752D01*
X124301723Y-241853704D01*
X124402881Y-242187177D01*
X124470866Y-242528960D01*
X124505023Y-242875761D01*
X124505023Y-243224239D01*
X124470866Y-243571040D01*
X124402881Y-243912823D01*
X124301723Y-244246296D01*
X124168366Y-244568248D01*
X124004094Y-244875579D01*
X123810490Y-245165328D01*
X123589417Y-245434706D01*
X123343006Y-245681117D01*
X123073628Y-245902190D01*
X122783879Y-246095794D01*
X122476548Y-246260066D01*
X122154596Y-246393423D01*
X121821123Y-246494581D01*
X121479340Y-246562566D01*
X121132539Y-246596723D01*
X120784061Y-246596723D01*
X120437260Y-246562566D01*
X120095477Y-246494581D01*
X119762004Y-246393423D01*
X119440052Y-246260066D01*
X119132721Y-246095794D01*
X118842972Y-245902190D01*
X118573594Y-245681117D01*
X118327183Y-245434706D01*
X118106110Y-245165328D01*
X117912506Y-244875579D01*
X117748234Y-244568248D01*
X117614877Y-244246296D01*
X117513719Y-243912823D01*
X117445734Y-243571040D01*
X117411577Y-243224239D01*
X117411577Y-242875761D01*
X117445734Y-242528960D01*
X117513719Y-242187177D01*
X117614877Y-241853704D01*
X117748234Y-241531752D01*
X117912506Y-241224421D01*
X118106110Y-240934672D01*
X118327183Y-240665294D01*
X118573594Y-240418883D01*
X118842972Y-240197810D01*
X119132721Y-240004206D01*
X119440052Y-239839934D01*
X119762004Y-239706577D01*
X120095477Y-239605419D01*
X120437260Y-239537434D01*
X120784061Y-239503277D01*
X121132539Y-239503277D01*
X121479340Y-239537434D01*
G37*
G36*
X103489787Y-234697434D02*
G01*
X103831570Y-234765419D01*
X104165043Y-234866577D01*
X104486995Y-234999934D01*
X104794326Y-235164206D01*
X105084075Y-235357810D01*
X105353453Y-235578883D01*
X105599864Y-235825294D01*
X105820937Y-236094672D01*
X106014541Y-236384421D01*
X106178813Y-236691752D01*
X106312170Y-237013704D01*
X106413328Y-237347177D01*
X106481313Y-237688960D01*
X106515470Y-238035761D01*
X106515470Y-238384239D01*
X106481313Y-238731040D01*
X106413328Y-239072823D01*
X106312170Y-239406296D01*
X106178813Y-239728248D01*
X106014541Y-240035579D01*
X105820937Y-240325328D01*
X105599864Y-240594706D01*
X105353453Y-240841117D01*
X105084075Y-241062190D01*
X104794326Y-241255794D01*
X104486995Y-241420066D01*
X104165043Y-241553423D01*
X103831570Y-241654581D01*
X103489787Y-241722566D01*
X103142986Y-241756723D01*
X102794508Y-241756723D01*
X102447707Y-241722566D01*
X102105924Y-241654581D01*
X101772451Y-241553423D01*
X101450499Y-241420066D01*
X101143168Y-241255794D01*
X100853419Y-241062190D01*
X100584041Y-240841117D01*
X100337630Y-240594706D01*
X100116557Y-240325328D01*
X99922953Y-240035579D01*
X99758681Y-239728248D01*
X99625324Y-239406296D01*
X99524166Y-239072823D01*
X99456181Y-238731040D01*
X99422024Y-238384239D01*
X99422024Y-238035761D01*
X99456181Y-237688960D01*
X99524166Y-237347177D01*
X99625324Y-237013704D01*
X99758681Y-236691752D01*
X99922953Y-236384421D01*
X100116557Y-236094672D01*
X100337630Y-235825294D01*
X100584041Y-235578883D01*
X100853419Y-235357810D01*
X101143168Y-235164206D01*
X101450499Y-234999934D01*
X101772451Y-234866577D01*
X102105924Y-234765419D01*
X102447707Y-234697434D01*
X102794508Y-234663277D01*
X103142986Y-234663277D01*
X103489787Y-234697434D01*
G37*
M02*
