G04 #@! TF.GenerationSoftware,KiCad,Pcbnew,9.0.2*
G04 #@! TF.CreationDate,2026-06-11T16:35:56-04:00*
G04 #@! TF.ProjectId,ThumbsUp,5468756d-6273-4557-902e-6b696361645f,rev?*
G04 #@! TF.SameCoordinates,Original*
G04 #@! TF.FileFunction,Copper,L1,Top*
G04 #@! TF.FilePolarity,Positive*
%FSLAX46Y46*%
G04 Gerber Fmt 4.6, Leading zero omitted, Abs format (unit mm)*
G04 Created by KiCad (PCBNEW 9.0.2) date 2026-06-11 16:35:56*
%MOMM*%
%LPD*%
G01*
G04 APERTURE LIST*
G04 #@! TA.AperFunction,ComponentPad*
%ADD10C,7.000000*%
G04 #@! TD*
G04 #@! TA.AperFunction,Conductor*
%ADD11C,0.200000*%
G04 #@! TD*
G04 APERTURE END LIST*
D10*
X138938300Y-251150000D03*
X120958300Y-243050000D03*
X87468300Y-247200000D03*
X154468300Y-251150000D03*
X102968747Y-238210000D03*
D11*
X84150000Y-247950000D02*
X87310000Y-247950000D01*
G04 #@! TA.AperFunction,NonConductor*
G36*
X108976807Y-229730115D02*
G01*
X109075369Y-229743098D01*
X109106625Y-229751474D01*
X109190911Y-229786393D01*
X109218931Y-229802572D01*
X109291304Y-229858107D01*
X109314192Y-229880995D01*
X109369727Y-229953368D01*
X109385908Y-229981390D01*
X109420823Y-230065669D01*
X109429201Y-230096930D01*
X109441855Y-230192991D01*
X109442185Y-230195491D01*
X109443247Y-230211686D01*
X109443247Y-230676917D01*
X109443241Y-230676957D01*
X109443245Y-230695435D01*
X109442188Y-230711618D01*
X109429235Y-230810189D01*
X109420860Y-230841469D01*
X109385966Y-230925746D01*
X109369777Y-230953793D01*
X109314253Y-231026159D01*
X109291355Y-231049056D01*
X109218987Y-231104580D01*
X109190940Y-231120769D01*
X109106662Y-231155662D01*
X109075382Y-231164036D01*
X108976768Y-231176993D01*
X108960589Y-231178050D01*
X108941315Y-231178046D01*
X108940682Y-231178145D01*
X108873735Y-231178143D01*
X108873723Y-231178143D01*
X108873722Y-231178143D01*
X108873721Y-231178143D01*
X108873714Y-231178143D01*
X108686908Y-231213056D01*
X108686906Y-231213057D01*
X108509883Y-231281629D01*
X108509689Y-231281704D01*
X108348102Y-231381748D01*
X108207650Y-231509780D01*
X108207648Y-231509782D01*
X108093117Y-231661439D01*
X108008400Y-231831568D01*
X107956638Y-232013488D01*
X107956390Y-232014361D01*
X107938854Y-232203600D01*
X107956390Y-232392839D01*
X108008401Y-232575634D01*
X108093116Y-232745759D01*
X108207650Y-232897420D01*
X108348102Y-233025452D01*
X108509689Y-233125496D01*
X108686908Y-233194143D01*
X108873717Y-233229056D01*
X108873717Y-233229055D01*
X108873723Y-233229057D01*
X108964692Y-233229053D01*
X108972800Y-233229318D01*
X109218357Y-233245419D01*
X109234435Y-233247535D01*
X109250386Y-233250709D01*
X109471807Y-233294756D01*
X109487474Y-233298954D01*
X109716650Y-233376752D01*
X109731635Y-233382959D01*
X109731826Y-233383053D01*
X109948704Y-233490008D01*
X109962743Y-233498114D01*
X110163980Y-233632578D01*
X110176841Y-233642446D01*
X110225405Y-233685036D01*
X110358805Y-233802025D01*
X110370274Y-233813494D01*
X110412672Y-233861839D01*
X110524263Y-233989085D01*
X110529850Y-233995455D01*
X110539724Y-234008323D01*
X110674183Y-234209553D01*
X110682293Y-234223599D01*
X110789340Y-234440664D01*
X110795547Y-234455649D01*
X110873345Y-234684825D01*
X110877543Y-234700492D01*
X110924763Y-234937863D01*
X110926880Y-234953943D01*
X110942981Y-235199494D01*
X110943247Y-235207607D01*
X110943247Y-236228126D01*
X110943231Y-236336150D01*
X110977795Y-236599121D01*
X111046349Y-236855323D01*
X111046352Y-236855331D01*
X111147729Y-237100411D01*
X111147729Y-237100412D01*
X111280196Y-237330178D01*
X111280198Y-237330181D01*
X111337080Y-237404427D01*
X111441495Y-237540716D01*
X111628866Y-237728421D01*
X111628874Y-237728428D01*
X111839120Y-237890098D01*
X112068655Y-238022975D01*
X112313551Y-238124787D01*
X112316390Y-238125552D01*
X112569641Y-238193799D01*
X112832540Y-238228829D01*
X112929974Y-238228987D01*
X112929975Y-238228988D01*
X112929976Y-238228988D01*
X112933583Y-238228994D01*
X112933879Y-238229053D01*
X112968690Y-238229053D01*
X112979266Y-238229071D01*
X112979266Y-238229070D01*
X113003621Y-238229112D01*
X113003920Y-238229053D01*
X114917293Y-238229053D01*
X114917619Y-238229148D01*
X114968748Y-238229146D01*
X114968748Y-238229147D01*
X115063776Y-238229143D01*
X115250595Y-238194213D01*
X115427815Y-238125550D01*
X115589401Y-238025493D01*
X115729851Y-237897450D01*
X115844382Y-237745780D01*
X115929095Y-237575647D01*
X115981105Y-237392846D01*
X115998576Y-237204302D01*
X118504612Y-237204302D01*
X119546726Y-238246416D01*
X119604028Y-238229034D01*
X120628760Y-237204302D01*
X122040146Y-237204302D01*
X123102221Y-238266377D01*
X124164296Y-237204302D01*
X123102221Y-236142227D01*
X122040146Y-237204302D01*
X120628760Y-237204302D01*
X120628761Y-237204301D01*
X119566687Y-236142227D01*
X118504612Y-237204302D01*
X115998576Y-237204302D01*
X115998641Y-237203600D01*
X115981105Y-237014354D01*
X115929095Y-236831553D01*
X115844382Y-236661420D01*
X115797338Y-236599121D01*
X115729852Y-236509751D01*
X115727210Y-236507342D01*
X115589401Y-236381706D01*
X115589398Y-236381704D01*
X115589393Y-236381700D01*
X115427821Y-236281653D01*
X115427810Y-236281647D01*
X115250600Y-236212988D01*
X115250595Y-236212987D01*
X115063776Y-236178057D01*
X115063775Y-236178056D01*
X115063772Y-236178056D01*
X115001691Y-236178054D01*
X115001666Y-236178049D01*
X114976872Y-236178052D01*
X114960681Y-236176992D01*
X114862117Y-236164023D01*
X114830847Y-236155647D01*
X114828249Y-236154571D01*
X114746569Y-236120742D01*
X114718533Y-236104557D01*
X114646163Y-236049026D01*
X114623273Y-236026136D01*
X114567742Y-235953766D01*
X114551558Y-235925733D01*
X114516650Y-235841447D01*
X114508276Y-235810181D01*
X114497339Y-235727053D01*
X117027364Y-235727053D01*
X117798920Y-236498609D01*
X118570477Y-235727053D01*
X120562898Y-235727053D01*
X121334454Y-236498609D01*
X122106011Y-235727053D01*
X124098431Y-235727053D01*
X124869987Y-236498609D01*
X125266228Y-236102368D01*
X125279458Y-236083056D01*
X125282804Y-236078404D01*
X125425142Y-235889926D01*
X125428701Y-235885434D01*
X125450850Y-235858763D01*
X125454611Y-235854441D01*
X125485686Y-235820357D01*
X125489641Y-235816215D01*
X125514141Y-235791717D01*
X125518283Y-235787762D01*
X125584881Y-235727053D01*
X124098431Y-235727053D01*
X122106011Y-235727053D01*
X120562898Y-235727053D01*
X118570477Y-235727053D01*
X117027364Y-235727053D01*
X114497339Y-235727053D01*
X114495308Y-235711618D01*
X114494248Y-235695426D01*
X114494249Y-235680856D01*
X114494247Y-235680830D01*
X114494247Y-235211700D01*
X114495312Y-235195486D01*
X114496033Y-235190017D01*
X114508310Y-235096937D01*
X114516688Y-235065692D01*
X114551617Y-234981402D01*
X114567789Y-234953396D01*
X114623337Y-234881012D01*
X114646212Y-234858139D01*
X114718584Y-234802599D01*
X114746599Y-234786419D01*
X114830886Y-234751490D01*
X114862133Y-234743111D01*
X114933524Y-234733694D01*
X114960638Y-234730118D01*
X114976854Y-234729053D01*
X120958185Y-234729053D01*
X126960613Y-234729053D01*
X126976807Y-234730115D01*
X127075369Y-234743098D01*
X127106625Y-234751474D01*
X127190911Y-234786393D01*
X127218931Y-234802572D01*
X127291304Y-234858107D01*
X127314192Y-234880995D01*
X127369727Y-234953368D01*
X127385908Y-234981390D01*
X127420823Y-235065669D01*
X127429201Y-235096930D01*
X127442185Y-235195490D01*
X127443247Y-235211685D01*
X127443247Y-235676917D01*
X127443241Y-235676957D01*
X127443245Y-235695435D01*
X127442188Y-235711618D01*
X127429235Y-235810189D01*
X127420860Y-235841469D01*
X127385966Y-235925746D01*
X127369777Y-235953793D01*
X127314253Y-236026159D01*
X127291355Y-236049056D01*
X127218987Y-236104580D01*
X127190940Y-236120769D01*
X127106662Y-236155662D01*
X127075382Y-236164036D01*
X126976768Y-236176993D01*
X126960589Y-236178050D01*
X126941315Y-236178046D01*
X126940682Y-236178145D01*
X126873735Y-236178143D01*
X126873723Y-236178143D01*
X126873722Y-236178143D01*
X126873721Y-236178143D01*
X126873714Y-236178143D01*
X126686908Y-236213056D01*
X126686906Y-236213057D01*
X126509689Y-236281704D01*
X126348180Y-236381700D01*
X126348102Y-236381748D01*
X126224874Y-236494079D01*
X126207648Y-236509782D01*
X126093117Y-236661439D01*
X126008400Y-236831568D01*
X125956390Y-237014360D01*
X125955114Y-237028128D01*
X125938854Y-237203600D01*
X125956390Y-237392839D01*
X126008401Y-237575634D01*
X126093116Y-237745759D01*
X126207650Y-237897420D01*
X126348102Y-238025452D01*
X126509689Y-238125496D01*
X126686908Y-238194143D01*
X126873717Y-238229056D01*
X126873717Y-238229055D01*
X126873723Y-238229057D01*
X126933628Y-238229054D01*
X126934225Y-238229172D01*
X126958272Y-238229088D01*
X126958273Y-238229089D01*
X126968695Y-238229053D01*
X126968748Y-238229053D01*
X126977034Y-238229052D01*
X126977034Y-238229051D01*
X126992515Y-238229050D01*
X127002920Y-238229486D01*
X127155455Y-238242331D01*
X127176787Y-238246025D01*
X127320343Y-238284048D01*
X127340717Y-238291402D01*
X127475452Y-238353820D01*
X127494237Y-238364608D01*
X127616064Y-238449528D01*
X127632683Y-238463418D01*
X127737866Y-238568233D01*
X127751816Y-238584806D01*
X127837159Y-238706334D01*
X127848012Y-238725080D01*
X127857440Y-238745246D01*
X127899761Y-238835770D01*
X127910902Y-238859599D01*
X127918327Y-238879948D01*
X127956848Y-239023359D01*
X127960618Y-239044688D01*
X127974025Y-239197500D01*
X127974500Y-239208338D01*
X127974500Y-243151337D01*
X127974485Y-243151384D01*
X127974485Y-243361232D01*
X128007614Y-243676519D01*
X128007615Y-243676527D01*
X128007616Y-243676529D01*
X128018352Y-243727053D01*
X128073515Y-243986642D01*
X128169607Y-244282462D01*
X128171459Y-244288164D01*
X128300377Y-244577803D01*
X128458855Y-244852385D01*
X128493570Y-244900183D01*
X128645159Y-245108901D01*
X128857245Y-245344540D01*
X128857248Y-245344542D01*
X128857251Y-245344546D01*
X129092806Y-245556736D01*
X129349245Y-245743149D01*
X129623759Y-245901744D01*
X129623763Y-245901746D01*
X129623767Y-245901748D01*
X129725009Y-245946861D01*
X129913344Y-246030783D01*
X129913347Y-246030784D01*
X129913346Y-246030784D01*
X129964829Y-246047531D01*
X130214828Y-246128855D01*
X130214831Y-246128855D01*
X130214832Y-246128856D01*
X130283603Y-246143500D01*
X130524910Y-246194884D01*
X130840194Y-246228148D01*
X130998711Y-246228214D01*
X131006538Y-246228215D01*
X131006571Y-246228225D01*
X131006572Y-246228216D01*
X132917324Y-246229029D01*
X132917729Y-246229148D01*
X132968748Y-246229146D01*
X132968748Y-246229147D01*
X133063776Y-246229143D01*
X133250595Y-246194213D01*
X133372852Y-246146845D01*
X133427810Y-246125552D01*
X133427810Y-246125551D01*
X133427815Y-246125550D01*
X133589401Y-246025493D01*
X133729851Y-245897450D01*
X133844382Y-245745780D01*
X133929095Y-245575647D01*
X133981105Y-245392846D01*
X133998641Y-245203600D01*
X133981105Y-245014354D01*
X133929095Y-244831553D01*
X133844382Y-244661420D01*
X133841745Y-244657928D01*
X133729852Y-244509751D01*
X133677005Y-244461572D01*
X133589401Y-244381706D01*
X133589398Y-244381704D01*
X133589393Y-244381700D01*
X133427821Y-244281653D01*
X133427810Y-244281647D01*
X133411609Y-244275370D01*
X136182282Y-244275370D01*
X137244357Y-245337445D01*
X138306432Y-244275370D01*
X139717816Y-244275370D01*
X140779891Y-245337445D01*
X141841966Y-244275370D01*
X141293649Y-243727053D01*
X140266133Y-243727053D01*
X139717816Y-244275370D01*
X138306432Y-244275370D01*
X137758115Y-243727053D01*
X136730599Y-243727053D01*
X136182282Y-244275370D01*
X133411609Y-244275370D01*
X133250600Y-244212988D01*
X133250595Y-244212987D01*
X133063776Y-244178057D01*
X133063775Y-244178056D01*
X133063772Y-244178056D01*
X133001691Y-244178054D01*
X133001666Y-244178049D01*
X132976872Y-244178052D01*
X132960681Y-244176992D01*
X132862117Y-244164023D01*
X132830847Y-244155647D01*
X132746569Y-244120742D01*
X132718533Y-244104557D01*
X132646163Y-244049026D01*
X132623273Y-244026136D01*
X132567742Y-243953766D01*
X132551558Y-243925733D01*
X132516650Y-243841447D01*
X132508276Y-243810181D01*
X132507003Y-243800509D01*
X132500614Y-243751943D01*
X132495308Y-243711618D01*
X132494248Y-243695426D01*
X132494249Y-243680856D01*
X132494247Y-243680830D01*
X132494247Y-243211700D01*
X132495312Y-243195486D01*
X132499437Y-243164212D01*
X132508310Y-243096937D01*
X132516688Y-243065692D01*
X132551617Y-242981402D01*
X132567789Y-242953396D01*
X132623337Y-242881012D01*
X132646212Y-242858139D01*
X132718584Y-242802599D01*
X132746599Y-242786419D01*
X132830886Y-242751490D01*
X132862133Y-242743111D01*
X132934028Y-242733628D01*
X132960638Y-242730118D01*
X132976854Y-242729053D01*
X138958185Y-242729053D01*
X144960613Y-242729053D01*
X144976807Y-242730115D01*
X145075369Y-242743098D01*
X145106625Y-242751474D01*
X145190911Y-242786393D01*
X145218931Y-242802572D01*
X145291304Y-242858107D01*
X145314192Y-242880995D01*
X145369727Y-242953368D01*
X145385908Y-242981390D01*
X145420823Y-243065669D01*
X145429201Y-243096930D01*
X145437750Y-243161828D01*
X145441855Y-243192991D01*
X145442185Y-243195491D01*
X145443247Y-243211686D01*
X145443247Y-243676917D01*
X145443241Y-243676957D01*
X145443245Y-243695435D01*
X145442188Y-243711618D01*
X145429235Y-243810189D01*
X145420860Y-243841469D01*
X145385966Y-243925746D01*
X145369777Y-243953793D01*
X145314253Y-244026159D01*
X145291355Y-244049056D01*
X145218987Y-244104580D01*
X145190940Y-244120769D01*
X145106662Y-244155662D01*
X145075382Y-244164036D01*
X144976768Y-244176993D01*
X144960589Y-244178050D01*
X144941315Y-244178046D01*
X144940682Y-244178145D01*
X144873735Y-244178143D01*
X144873723Y-244178143D01*
X144873722Y-244178143D01*
X144873721Y-244178143D01*
X144873714Y-244178143D01*
X144686908Y-244213056D01*
X144686906Y-244213057D01*
X144509689Y-244281704D01*
X144348180Y-244381700D01*
X144348102Y-244381748D01*
X144213109Y-244504804D01*
X144207648Y-244509782D01*
X144093117Y-244661439D01*
X144008400Y-244831568D01*
X143956640Y-245013481D01*
X143956390Y-245014361D01*
X143938854Y-245203600D01*
X143956390Y-245392839D01*
X144008401Y-245575634D01*
X144093116Y-245745759D01*
X144207650Y-245897420D01*
X144348102Y-246025452D01*
X144509689Y-246125496D01*
X144686908Y-246194143D01*
X144873717Y-246229056D01*
X144873717Y-246229055D01*
X144873723Y-246229057D01*
X144968748Y-246229053D01*
X146164855Y-246229053D01*
X146165297Y-246229140D01*
X146189502Y-246229079D01*
X146189503Y-246229080D01*
X146199961Y-246229053D01*
X146200149Y-246229053D01*
X146235292Y-246229053D01*
X146235732Y-246228962D01*
X147200894Y-246226514D01*
X148417468Y-246228977D01*
X148418049Y-246229148D01*
X148468748Y-246229146D01*
X148468748Y-246229147D01*
X148563776Y-246229143D01*
X148750595Y-246194213D01*
X148872852Y-246146845D01*
X148927810Y-246125552D01*
X148927810Y-246125551D01*
X148927815Y-246125550D01*
X149060907Y-246043137D01*
X152092185Y-246043137D01*
X152567421Y-246518373D01*
X152745644Y-246444551D01*
X152748470Y-246443421D01*
X152765642Y-246436797D01*
X152768495Y-246435736D01*
X152791561Y-246427483D01*
X152794436Y-246426494D01*
X152811919Y-246420718D01*
X152814823Y-246419798D01*
X153215161Y-246298357D01*
X153218089Y-246297508D01*
X153235838Y-246292597D01*
X153238779Y-246291822D01*
X153262540Y-246285871D01*
X153265494Y-246285170D01*
X153283447Y-246281138D01*
X153286428Y-246280507D01*
X153696712Y-246198896D01*
X153699696Y-246198340D01*
X153717791Y-246195199D01*
X153720791Y-246194716D01*
X153745023Y-246191119D01*
X153748043Y-246190709D01*
X153766357Y-246188449D01*
X153769390Y-246188112D01*
X154104349Y-246155121D01*
X154216333Y-246043137D01*
X155627718Y-246043137D01*
X155953260Y-246368679D01*
X156121777Y-246419798D01*
X156124681Y-246420718D01*
X156142164Y-246426494D01*
X156145039Y-246427483D01*
X156168105Y-246435736D01*
X156170958Y-246436797D01*
X156188130Y-246443421D01*
X156190956Y-246444551D01*
X156577451Y-246604643D01*
X156580246Y-246605841D01*
X156597065Y-246613296D01*
X156599831Y-246614563D01*
X156621976Y-246625036D01*
X156624712Y-246626372D01*
X156641166Y-246634654D01*
X156643869Y-246636056D01*
X156979532Y-246815472D01*
X157751867Y-246043136D01*
X156689793Y-244981062D01*
X155627718Y-246043137D01*
X154216333Y-246043137D01*
X154216334Y-246043136D01*
X153154259Y-244981062D01*
X152092185Y-246043137D01*
X149060907Y-246043137D01*
X149089401Y-246025493D01*
X149229851Y-245897450D01*
X149344382Y-245745780D01*
X149429095Y-245575647D01*
X149481105Y-245392846D01*
X149498641Y-245203600D01*
X149481105Y-245014354D01*
X149429095Y-244831553D01*
X149344382Y-244661420D01*
X149341745Y-244657928D01*
X149229852Y-244509751D01*
X149177005Y-244461572D01*
X149089401Y-244381706D01*
X149089398Y-244381704D01*
X149089393Y-244381700D01*
X148927821Y-244281653D01*
X148927810Y-244281647D01*
X148911609Y-244275370D01*
X150324418Y-244275370D01*
X151386492Y-245337444D01*
X152448566Y-244275370D01*
X153859952Y-244275370D01*
X154922026Y-245337444D01*
X155984101Y-244275369D01*
X157395485Y-244275369D01*
X158448105Y-245327989D01*
X158442984Y-245272721D01*
X158442587Y-245267009D01*
X158440986Y-245232389D01*
X158440854Y-245226661D01*
X158440854Y-245180539D01*
X158440986Y-245174811D01*
X158442587Y-245140191D01*
X158442984Y-245134478D01*
X158464775Y-244899312D01*
X158465435Y-244893619D01*
X158470224Y-244859293D01*
X158471146Y-244853642D01*
X158479621Y-244808304D01*
X158480804Y-244802697D01*
X158488739Y-244768962D01*
X158490179Y-244763419D01*
X158554812Y-244536266D01*
X158556505Y-244530797D01*
X158567516Y-244497943D01*
X158569462Y-244492555D01*
X158586123Y-244449546D01*
X158588316Y-244444251D01*
X158602318Y-244412540D01*
X158604753Y-244407354D01*
X158710026Y-244195945D01*
X158712696Y-244190879D01*
X158729553Y-244160615D01*
X158732453Y-244155679D01*
X158756733Y-244116463D01*
X158759863Y-244111661D01*
X158779458Y-244083056D01*
X158782804Y-244078404D01*
X158925142Y-243889926D01*
X158928701Y-243885434D01*
X158950850Y-243858763D01*
X158954611Y-243854441D01*
X158985686Y-243820357D01*
X158989641Y-243816215D01*
X159014141Y-243791717D01*
X159018283Y-243787763D01*
X159025473Y-243781208D01*
X158971318Y-243727053D01*
X157943802Y-243727053D01*
X157395485Y-244275369D01*
X155984101Y-244275369D01*
X155435785Y-243727053D01*
X154408269Y-243727053D01*
X153859952Y-244275370D01*
X152448566Y-244275370D01*
X152448567Y-244275369D01*
X151900251Y-243727053D01*
X150872735Y-243727053D01*
X150324418Y-244275370D01*
X148911609Y-244275370D01*
X148750600Y-244212988D01*
X148750595Y-244212987D01*
X148563776Y-244178057D01*
X148563775Y-244178056D01*
X148563772Y-244178056D01*
X148501691Y-244178054D01*
X148501666Y-244178049D01*
X148476872Y-244178052D01*
X148460681Y-244176992D01*
X148362117Y-244164023D01*
X148330847Y-244155647D01*
X148246569Y-244120742D01*
X148218533Y-244104557D01*
X148146163Y-244049026D01*
X148123273Y-244026136D01*
X148067742Y-243953766D01*
X148051558Y-243925733D01*
X148016650Y-243841447D01*
X148008276Y-243810181D01*
X148007003Y-243800509D01*
X148000614Y-243751943D01*
X147995308Y-243711618D01*
X147994248Y-243695426D01*
X147994249Y-243680856D01*
X147994247Y-243680830D01*
X147994247Y-243211700D01*
X147995312Y-243195486D01*
X147999437Y-243164212D01*
X148008310Y-243096937D01*
X148016688Y-243065692D01*
X148051617Y-242981402D01*
X148067789Y-242953396D01*
X148123337Y-242881012D01*
X148146212Y-242858139D01*
X148218584Y-242802599D01*
X148246599Y-242786419D01*
X148330886Y-242751490D01*
X148362133Y-242743111D01*
X148434028Y-242733628D01*
X148460638Y-242730118D01*
X148476854Y-242729053D01*
X154458185Y-242729053D01*
X160460613Y-242729053D01*
X160476807Y-242730115D01*
X160575369Y-242743098D01*
X160606625Y-242751474D01*
X160690911Y-242786393D01*
X160718931Y-242802572D01*
X160791304Y-242858107D01*
X160814192Y-242880995D01*
X160869727Y-242953368D01*
X160885908Y-242981390D01*
X160920823Y-243065669D01*
X160929201Y-243096930D01*
X160937750Y-243161828D01*
X160941855Y-243192991D01*
X160942185Y-243195491D01*
X160943247Y-243211686D01*
X160943247Y-243676917D01*
X160943241Y-243676957D01*
X160943245Y-243695435D01*
X160942188Y-243711618D01*
X160929235Y-243810189D01*
X160920860Y-243841469D01*
X160885966Y-243925746D01*
X160869777Y-243953793D01*
X160814253Y-244026159D01*
X160791355Y-244049056D01*
X160718987Y-244104580D01*
X160690940Y-244120769D01*
X160606662Y-244155662D01*
X160575382Y-244164036D01*
X160476768Y-244176993D01*
X160460589Y-244178050D01*
X160441315Y-244178046D01*
X160440682Y-244178145D01*
X160373735Y-244178143D01*
X160373723Y-244178143D01*
X160373722Y-244178143D01*
X160373721Y-244178143D01*
X160373714Y-244178143D01*
X160186908Y-244213056D01*
X160186906Y-244213057D01*
X160009689Y-244281704D01*
X159848180Y-244381700D01*
X159848102Y-244381748D01*
X159713109Y-244504804D01*
X159707648Y-244509782D01*
X159593117Y-244661439D01*
X159508400Y-244831568D01*
X159456640Y-245013481D01*
X159456390Y-245014361D01*
X159438854Y-245203600D01*
X159456390Y-245392839D01*
X159508401Y-245575634D01*
X159593116Y-245745759D01*
X159707650Y-245897420D01*
X159848102Y-246025452D01*
X160009689Y-246125496D01*
X160186908Y-246194143D01*
X160373717Y-246229056D01*
X160373717Y-246229055D01*
X160373723Y-246229057D01*
X160466753Y-246229053D01*
X160473242Y-246229222D01*
X160774431Y-246245008D01*
X160787339Y-246246365D01*
X161082011Y-246293036D01*
X161094694Y-246295731D01*
X161382894Y-246372955D01*
X161395227Y-246376963D01*
X161673772Y-246483887D01*
X161685616Y-246489161D01*
X161691887Y-246492357D01*
X161951448Y-246624612D01*
X161962688Y-246631101D01*
X162212905Y-246793596D01*
X162223406Y-246801226D01*
X162455259Y-246988980D01*
X162464903Y-246997663D01*
X162512836Y-247045597D01*
X162675869Y-247208632D01*
X162684554Y-247218278D01*
X162691740Y-247227152D01*
X162868180Y-247445042D01*
X162872308Y-247450139D01*
X162879937Y-247460640D01*
X163042423Y-247710855D01*
X163048912Y-247722095D01*
X163184356Y-247987926D01*
X163189636Y-247999784D01*
X163296553Y-248278323D01*
X163300563Y-248290667D01*
X163377774Y-248578839D01*
X163380473Y-248591535D01*
X163427142Y-248886220D01*
X163428498Y-248899129D01*
X163444330Y-249201324D01*
X163444500Y-249207811D01*
X163444500Y-249997438D01*
X163444394Y-250002562D01*
X163427722Y-250405662D01*
X163426876Y-250415876D01*
X163377287Y-250813690D01*
X163375600Y-250823798D01*
X163293334Y-251216146D01*
X163290818Y-251226082D01*
X163176430Y-251610306D01*
X163173102Y-251619999D01*
X163027376Y-251993459D01*
X163023260Y-252002844D01*
X162847200Y-252362981D01*
X162842322Y-252371994D01*
X162637108Y-252716390D01*
X162631502Y-252724971D01*
X162398560Y-253051224D01*
X162392266Y-253059311D01*
X162133168Y-253365229D01*
X162126226Y-253372769D01*
X161842769Y-253656226D01*
X161835229Y-253663168D01*
X161529311Y-253922266D01*
X161521224Y-253928560D01*
X161194971Y-254161502D01*
X161186390Y-254167108D01*
X160841994Y-254372322D01*
X160832981Y-254377200D01*
X160472844Y-254553260D01*
X160463459Y-254557376D01*
X160089999Y-254703102D01*
X160080306Y-254706430D01*
X159696082Y-254820818D01*
X159686146Y-254823334D01*
X159293798Y-254905600D01*
X159283690Y-254907287D01*
X158885876Y-254956876D01*
X158875662Y-254957722D01*
X158472563Y-254974394D01*
X158467439Y-254974500D01*
X156311652Y-254974500D01*
X156244613Y-254954815D01*
X156198858Y-254902011D01*
X156188914Y-254832853D01*
X156217939Y-254769297D01*
X156253199Y-254741142D01*
X156412569Y-254655956D01*
X156531566Y-254592351D01*
X156859040Y-254373540D01*
X157163490Y-254123684D01*
X157441984Y-253845190D01*
X157691840Y-253540740D01*
X157910651Y-253213266D01*
X157963601Y-253114204D01*
X159163252Y-253114204D01*
X159795700Y-253746652D01*
X160066998Y-253640790D01*
X160362178Y-253496485D01*
X160644475Y-253328274D01*
X160911888Y-253137343D01*
X161127731Y-252954534D01*
X160225327Y-252052130D01*
X159163252Y-253114204D01*
X157963601Y-253114204D01*
X158096311Y-252865921D01*
X158247031Y-252502052D01*
X158361359Y-252125161D01*
X158438196Y-251738878D01*
X158476800Y-251346925D01*
X158476800Y-251346438D01*
X160931019Y-251346438D01*
X161781937Y-252197356D01*
X161798274Y-252174475D01*
X161966485Y-251892178D01*
X162110790Y-251596998D01*
X162230230Y-251290902D01*
X162323991Y-250975963D01*
X162386513Y-250677782D01*
X161993094Y-250284363D01*
X160931019Y-251346438D01*
X158476800Y-251346438D01*
X158476800Y-250953075D01*
X158438196Y-250561122D01*
X158361359Y-250174839D01*
X158247031Y-249797948D01*
X158137081Y-249532505D01*
X159209417Y-249532505D01*
X159249620Y-249665038D01*
X160225327Y-250640745D01*
X161287402Y-249578671D01*
X160225327Y-248516596D01*
X159209417Y-249532505D01*
X158137081Y-249532505D01*
X158096311Y-249434079D01*
X158005009Y-249263266D01*
X157910657Y-249086745D01*
X157910656Y-249086743D01*
X157910651Y-249086734D01*
X157691840Y-248759260D01*
X157441984Y-248454810D01*
X157441983Y-248454809D01*
X157441979Y-248454804D01*
X157163495Y-248176320D01*
X156859045Y-247926464D01*
X156859044Y-247926463D01*
X156859040Y-247926460D01*
X156531566Y-247707649D01*
X156531561Y-247707646D01*
X156531554Y-247707642D01*
X156184228Y-247521992D01*
X156184223Y-247521990D01*
X155906784Y-247407070D01*
X157799318Y-247407070D01*
X157806074Y-247412615D01*
X157808397Y-247414570D01*
X157822318Y-247426577D01*
X157824598Y-247428592D01*
X157842750Y-247445042D01*
X157844984Y-247447117D01*
X157858334Y-247459827D01*
X157860513Y-247461954D01*
X158156346Y-247757787D01*
X158158473Y-247759966D01*
X158171183Y-247773316D01*
X158173258Y-247775550D01*
X158189708Y-247793702D01*
X158191723Y-247795982D01*
X158203730Y-247809903D01*
X158205685Y-247812226D01*
X158471069Y-248135597D01*
X158472968Y-248137970D01*
X158484284Y-248152469D01*
X158486127Y-248154890D01*
X158500721Y-248174566D01*
X158502507Y-248177038D01*
X158513116Y-248192102D01*
X158514837Y-248194610D01*
X158747261Y-248542458D01*
X158748921Y-248545009D01*
X158758768Y-248560559D01*
X158760363Y-248563148D01*
X158762996Y-248567541D01*
X159519634Y-247810903D01*
X160931018Y-247810903D01*
X161993093Y-248872978D01*
X162327464Y-248538607D01*
X162274328Y-248400179D01*
X162180477Y-248215980D01*
X162067884Y-248042596D01*
X161937780Y-247881929D01*
X161791593Y-247735740D01*
X161630931Y-247605636D01*
X161457544Y-247493035D01*
X161319317Y-247422604D01*
X160931018Y-247810903D01*
X159519634Y-247810903D01*
X158457560Y-246748829D01*
X157799318Y-247407070D01*
X155906784Y-247407070D01*
X155820353Y-247371269D01*
X155443455Y-247256939D01*
X155057184Y-247180105D01*
X155057167Y-247180102D01*
X154760769Y-247150910D01*
X154665225Y-247141500D01*
X154271375Y-247141500D01*
X154183011Y-247150203D01*
X153879432Y-247180102D01*
X153879415Y-247180105D01*
X153493144Y-247256939D01*
X153116246Y-247371269D01*
X152752376Y-247521990D01*
X152752371Y-247521992D01*
X152405045Y-247707642D01*
X152405027Y-247707653D01*
X152077568Y-247926454D01*
X152077554Y-247926464D01*
X151773104Y-248176320D01*
X151494620Y-248454804D01*
X151244764Y-248759254D01*
X151244754Y-248759268D01*
X151025953Y-249086727D01*
X151025942Y-249086745D01*
X150840292Y-249434071D01*
X150840290Y-249434076D01*
X150689569Y-249797946D01*
X150575239Y-250174844D01*
X150498405Y-250561115D01*
X150498402Y-250561132D01*
X150473528Y-250813690D01*
X150459800Y-250953075D01*
X150459800Y-251346925D01*
X150461876Y-251368001D01*
X150498402Y-251738867D01*
X150498405Y-251738884D01*
X150575239Y-252125155D01*
X150689569Y-252502053D01*
X150840290Y-252865923D01*
X150840292Y-252865928D01*
X151025942Y-253213254D01*
X151025953Y-253213272D01*
X151244754Y-253540731D01*
X151244764Y-253540745D01*
X151494620Y-253845195D01*
X151773104Y-254123679D01*
X151773109Y-254123683D01*
X151773110Y-254123684D01*
X152077560Y-254373540D01*
X152405034Y-254592351D01*
X152405043Y-254592356D01*
X152405045Y-254592357D01*
X152683401Y-254741142D01*
X152733246Y-254790104D01*
X152748706Y-254858242D01*
X152724874Y-254923922D01*
X152669317Y-254966290D01*
X152624948Y-254974500D01*
X140781652Y-254974500D01*
X140714613Y-254954815D01*
X140668858Y-254902011D01*
X140658914Y-254832853D01*
X140687939Y-254769297D01*
X140723199Y-254741142D01*
X140882569Y-254655956D01*
X141001566Y-254592351D01*
X141329040Y-254373540D01*
X141633490Y-254123684D01*
X141911984Y-253845190D01*
X142161840Y-253540740D01*
X142380651Y-253213266D01*
X142433601Y-253114204D01*
X145021117Y-253114204D01*
X145883413Y-253976500D01*
X146282971Y-253976500D01*
X147145266Y-253114204D01*
X148556651Y-253114204D01*
X149418947Y-253976500D01*
X149818505Y-253976500D01*
X150133772Y-253661232D01*
X149954356Y-253325569D01*
X149952954Y-253322866D01*
X149944672Y-253306412D01*
X149943336Y-253303676D01*
X149932863Y-253281531D01*
X149931596Y-253278765D01*
X149924141Y-253261946D01*
X149922943Y-253259151D01*
X149762851Y-252872656D01*
X149761721Y-252869830D01*
X149755097Y-252852658D01*
X149754036Y-252849805D01*
X149745783Y-252826739D01*
X149744794Y-252823864D01*
X149739018Y-252806381D01*
X149738098Y-252803477D01*
X149616657Y-252403139D01*
X149615808Y-252400211D01*
X149610897Y-252382462D01*
X149610122Y-252379521D01*
X149604171Y-252355760D01*
X149603470Y-252352806D01*
X149599438Y-252334853D01*
X149598807Y-252331872D01*
X149555699Y-252115156D01*
X148556651Y-253114204D01*
X147145266Y-253114204D01*
X146083192Y-252052130D01*
X145021117Y-253114204D01*
X142433601Y-253114204D01*
X142566311Y-252865921D01*
X142717031Y-252502052D01*
X142831359Y-252125161D01*
X142861748Y-251972387D01*
X143879299Y-251972387D01*
X144315425Y-252408513D01*
X145377500Y-251346438D01*
X146788884Y-251346438D01*
X147850959Y-252408513D01*
X148913034Y-251346438D01*
X147850959Y-250284363D01*
X146788884Y-251346438D01*
X145377500Y-251346438D01*
X144315424Y-250284362D01*
X143922468Y-250677318D01*
X143941194Y-250867436D01*
X143941455Y-250870468D01*
X143942808Y-250888810D01*
X143942994Y-250891843D01*
X143944197Y-250916311D01*
X143944310Y-250919351D01*
X143944763Y-250937770D01*
X143944800Y-250940819D01*
X143944800Y-251359181D01*
X143944763Y-251362230D01*
X143944310Y-251380649D01*
X143944197Y-251383689D01*
X143942994Y-251408157D01*
X143942808Y-251411190D01*
X143941455Y-251429532D01*
X143941194Y-251432564D01*
X143900188Y-251848910D01*
X143899851Y-251851943D01*
X143897591Y-251870257D01*
X143897181Y-251873277D01*
X143893584Y-251897509D01*
X143893101Y-251900509D01*
X143889960Y-251918604D01*
X143889404Y-251921589D01*
X143879299Y-251972387D01*
X142861748Y-251972387D01*
X142908196Y-251738878D01*
X142946800Y-251346925D01*
X142946800Y-250953075D01*
X142908196Y-250561122D01*
X142831359Y-250174839D01*
X142717031Y-249797948D01*
X142626203Y-249578671D01*
X145021117Y-249578671D01*
X146083192Y-250640746D01*
X147145267Y-249578671D01*
X148556651Y-249578671D01*
X149499477Y-250521497D01*
X149506412Y-250451090D01*
X149506749Y-250448057D01*
X149509009Y-250429743D01*
X149509419Y-250426723D01*
X149513016Y-250402491D01*
X149513499Y-250399491D01*
X149516640Y-250381396D01*
X149517196Y-250378412D01*
X149598807Y-249968128D01*
X149599438Y-249965147D01*
X149603470Y-249947194D01*
X149604171Y-249944240D01*
X149610122Y-249920479D01*
X149610897Y-249917538D01*
X149615808Y-249899789D01*
X149616657Y-249896861D01*
X149738098Y-249496523D01*
X149739018Y-249493619D01*
X149744794Y-249476136D01*
X149745783Y-249473261D01*
X149754036Y-249450195D01*
X149755097Y-249447342D01*
X149761721Y-249430170D01*
X149762851Y-249427344D01*
X149922943Y-249040849D01*
X149924141Y-249038054D01*
X149931596Y-249021235D01*
X149932863Y-249018469D01*
X149943336Y-248996324D01*
X149944672Y-248993588D01*
X149952954Y-248977134D01*
X149954356Y-248974431D01*
X149996923Y-248894793D01*
X149618726Y-248516596D01*
X148556651Y-249578671D01*
X147145267Y-249578671D01*
X146083192Y-248516596D01*
X145021117Y-249578671D01*
X142626203Y-249578671D01*
X142566311Y-249434079D01*
X142475009Y-249263266D01*
X142380657Y-249086745D01*
X142380656Y-249086743D01*
X142380651Y-249086734D01*
X142161840Y-248759260D01*
X141911984Y-248454810D01*
X141911983Y-248454809D01*
X141911979Y-248454804D01*
X141633495Y-248176320D01*
X141329045Y-247926464D01*
X141329044Y-247926463D01*
X141329040Y-247926460D01*
X141156097Y-247810903D01*
X143253349Y-247810903D01*
X144315425Y-248872979D01*
X145377500Y-247810904D01*
X145377499Y-247810903D01*
X146788883Y-247810903D01*
X147850959Y-248872979D01*
X148913034Y-247810904D01*
X150324418Y-247810904D01*
X150548280Y-248034766D01*
X150730915Y-247812226D01*
X150732870Y-247809903D01*
X150744877Y-247795982D01*
X150746892Y-247793702D01*
X150763342Y-247775550D01*
X150765417Y-247773316D01*
X150778127Y-247759966D01*
X150780254Y-247757787D01*
X151076087Y-247461954D01*
X151078266Y-247459827D01*
X151091616Y-247447117D01*
X151093850Y-247445042D01*
X151112002Y-247428592D01*
X151114282Y-247426577D01*
X151128203Y-247414570D01*
X151130526Y-247412615D01*
X151453897Y-247147231D01*
X151456270Y-247145332D01*
X151470769Y-247134016D01*
X151473190Y-247132173D01*
X151492866Y-247117579D01*
X151495338Y-247115793D01*
X151510402Y-247105184D01*
X151512910Y-247103463D01*
X151649715Y-247012052D01*
X151386492Y-246748829D01*
X150324418Y-247810904D01*
X148913034Y-247810904D01*
X148329282Y-247227152D01*
X148268233Y-247227155D01*
X148265802Y-247226671D01*
X147374920Y-247224866D01*
X146788883Y-247810903D01*
X145377499Y-247810903D01*
X144790187Y-247223591D01*
X144758744Y-247220680D01*
X144753052Y-247220020D01*
X144718711Y-247215232D01*
X144713053Y-247214309D01*
X144480903Y-247170921D01*
X144475302Y-247169740D01*
X144441584Y-247161812D01*
X144436043Y-247160373D01*
X144391680Y-247147755D01*
X144386204Y-247146060D01*
X144353327Y-247135043D01*
X144347936Y-247133097D01*
X144127705Y-247047788D01*
X144122416Y-247045597D01*
X144090722Y-247031605D01*
X144085537Y-247029172D01*
X144051851Y-247012401D01*
X143253349Y-247810903D01*
X141156097Y-247810903D01*
X141001566Y-247707649D01*
X141001561Y-247707646D01*
X141001554Y-247707642D01*
X140654228Y-247521992D01*
X140654223Y-247521990D01*
X140290353Y-247371269D01*
X139913455Y-247256939D01*
X139527184Y-247180105D01*
X139527167Y-247180102D01*
X139230769Y-247150910D01*
X139135225Y-247141500D01*
X138741375Y-247141500D01*
X138653011Y-247150203D01*
X138349432Y-247180102D01*
X138349415Y-247180105D01*
X137963144Y-247256939D01*
X137586246Y-247371269D01*
X137222376Y-247521990D01*
X137222371Y-247521992D01*
X136875045Y-247707642D01*
X136875027Y-247707653D01*
X136547568Y-247926454D01*
X136547554Y-247926464D01*
X136243104Y-248176320D01*
X135964620Y-248454804D01*
X135714764Y-248759254D01*
X135714754Y-248759268D01*
X135495953Y-249086727D01*
X135495942Y-249086745D01*
X135310292Y-249434071D01*
X135310290Y-249434076D01*
X135159569Y-249797946D01*
X135045239Y-250174844D01*
X134968405Y-250561115D01*
X134968402Y-250561132D01*
X134943528Y-250813690D01*
X134929800Y-250953075D01*
X134929800Y-251346925D01*
X134931876Y-251368001D01*
X134968402Y-251738867D01*
X134968405Y-251738884D01*
X135045239Y-252125155D01*
X135159569Y-252502053D01*
X135310290Y-252865923D01*
X135310292Y-252865928D01*
X135495942Y-253213254D01*
X135495953Y-253213272D01*
X135714754Y-253540731D01*
X135714764Y-253540745D01*
X135964620Y-253845195D01*
X136243104Y-254123679D01*
X136243109Y-254123683D01*
X136243110Y-254123684D01*
X136547560Y-254373540D01*
X136875034Y-254592351D01*
X136875043Y-254592356D01*
X136875045Y-254592357D01*
X137153401Y-254741142D01*
X137203246Y-254790104D01*
X137218706Y-254858242D01*
X137194874Y-254923922D01*
X137139317Y-254966290D01*
X137094948Y-254974500D01*
X98199776Y-254974500D01*
X98197166Y-254974473D01*
X97360542Y-254956862D01*
X97355328Y-254956642D01*
X96521524Y-254903929D01*
X96516324Y-254903490D01*
X95847531Y-254832853D01*
X95685482Y-254815737D01*
X95680313Y-254815081D01*
X95371780Y-254769297D01*
X94853866Y-254692441D01*
X94848721Y-254691566D01*
X94028209Y-254534265D01*
X94023105Y-254533175D01*
X93209913Y-254341482D01*
X93204860Y-254340178D01*
X92400453Y-254114437D01*
X92395459Y-254112921D01*
X91601291Y-253853539D01*
X91596365Y-253851815D01*
X91091781Y-253663168D01*
X90813784Y-253559234D01*
X90808942Y-253557307D01*
X90039360Y-253232052D01*
X90034597Y-253229919D01*
X89496591Y-252975347D01*
X92126964Y-252975347D01*
X92687806Y-253158523D01*
X93456805Y-253374327D01*
X93776721Y-253449740D01*
X94112257Y-253114204D01*
X95523642Y-253114204D01*
X96284938Y-253875500D01*
X96602831Y-253909076D01*
X96838048Y-253923946D01*
X97647791Y-253114204D01*
X99059176Y-253114204D01*
X99921472Y-253976500D01*
X100321030Y-253976500D01*
X101183325Y-253114204D01*
X102594710Y-253114204D01*
X103457006Y-253976500D01*
X103856564Y-253976500D01*
X104718859Y-253114204D01*
X106130244Y-253114204D01*
X106992540Y-253976500D01*
X107392098Y-253976500D01*
X108254393Y-253114204D01*
X109665778Y-253114204D01*
X110528074Y-253976500D01*
X110927632Y-253976500D01*
X111789927Y-253114204D01*
X113201312Y-253114204D01*
X114063608Y-253976500D01*
X114463166Y-253976500D01*
X115325461Y-253114204D01*
X116736845Y-253114204D01*
X117599141Y-253976500D01*
X117998699Y-253976500D01*
X118860994Y-253114204D01*
X120272379Y-253114204D01*
X121134675Y-253976500D01*
X121534233Y-253976500D01*
X122396528Y-253114204D01*
X123807913Y-253114204D01*
X124670209Y-253976500D01*
X125069767Y-253976500D01*
X125932062Y-253114204D01*
X127343447Y-253114204D01*
X128205743Y-253976500D01*
X128605301Y-253976500D01*
X129467596Y-253114204D01*
X130878981Y-253114204D01*
X131741277Y-253976500D01*
X132140835Y-253976500D01*
X133003130Y-253114204D01*
X131941056Y-252052130D01*
X130878981Y-253114204D01*
X129467596Y-253114204D01*
X128405522Y-252052130D01*
X127343447Y-253114204D01*
X125932062Y-253114204D01*
X124869988Y-252052130D01*
X123807913Y-253114204D01*
X122396528Y-253114204D01*
X121334454Y-252052130D01*
X120272379Y-253114204D01*
X118860994Y-253114204D01*
X117798920Y-252052130D01*
X116736845Y-253114204D01*
X115325461Y-253114204D01*
X114263386Y-252052130D01*
X113201312Y-253114204D01*
X111789927Y-253114204D01*
X110727853Y-252052130D01*
X109665778Y-253114204D01*
X108254393Y-253114204D01*
X107192319Y-252052130D01*
X106130244Y-253114204D01*
X104718859Y-253114204D01*
X103656785Y-252052130D01*
X102594710Y-253114204D01*
X101183325Y-253114204D01*
X100121251Y-252052130D01*
X99059176Y-253114204D01*
X97647791Y-253114204D01*
X96585717Y-252052130D01*
X95523642Y-253114204D01*
X94112257Y-253114204D01*
X93050182Y-252052129D01*
X92126964Y-252975347D01*
X89496591Y-252975347D01*
X89279420Y-252872587D01*
X89274765Y-252870264D01*
X88535229Y-252481437D01*
X88530693Y-252478929D01*
X87808219Y-252059354D01*
X87803762Y-252056639D01*
X87099570Y-251607027D01*
X87095231Y-251604126D01*
X86796082Y-251394900D01*
X86774557Y-251368001D01*
X90241904Y-251368001D01*
X91282416Y-252408513D01*
X92344491Y-251346438D01*
X93755875Y-251346438D01*
X94817950Y-252408513D01*
X95880025Y-251346438D01*
X97291409Y-251346438D01*
X98353484Y-252408513D01*
X99415559Y-251346438D01*
X100826943Y-251346438D01*
X101889018Y-252408513D01*
X102951093Y-251346438D01*
X104362477Y-251346438D01*
X105424552Y-252408513D01*
X106486627Y-251346438D01*
X107898011Y-251346438D01*
X108960086Y-252408513D01*
X110022161Y-251346438D01*
X111433545Y-251346438D01*
X112495620Y-252408513D01*
X113557695Y-251346438D01*
X114969079Y-251346438D01*
X116031153Y-252408512D01*
X117093228Y-251346438D01*
X118504612Y-251346438D01*
X119566687Y-252408512D01*
X120628762Y-251346438D01*
X122040146Y-251346438D01*
X123102221Y-252408513D01*
X124164296Y-251346438D01*
X125575680Y-251346438D01*
X126637755Y-252408513D01*
X127699830Y-251346438D01*
X129111214Y-251346438D01*
X130173289Y-252408513D01*
X131235364Y-251346438D01*
X132646748Y-251346438D01*
X133708822Y-252408512D01*
X134021796Y-252095538D01*
X133987196Y-251921588D01*
X133986640Y-251918604D01*
X133983499Y-251900509D01*
X133983016Y-251897509D01*
X133979419Y-251873277D01*
X133979009Y-251870257D01*
X133976749Y-251851943D01*
X133976412Y-251848910D01*
X133935406Y-251432564D01*
X133935145Y-251429532D01*
X133933792Y-251411190D01*
X133933606Y-251408157D01*
X133932403Y-251383689D01*
X133932290Y-251380649D01*
X133931837Y-251362230D01*
X133931800Y-251359181D01*
X133931800Y-250940819D01*
X133931837Y-250937770D01*
X133932290Y-250919351D01*
X133932403Y-250916311D01*
X133933606Y-250891843D01*
X133933792Y-250888810D01*
X133935145Y-250870468D01*
X133935406Y-250867436D01*
X133967368Y-250542908D01*
X133708823Y-250284363D01*
X132646748Y-251346438D01*
X131235364Y-251346438D01*
X130173289Y-250284363D01*
X129111214Y-251346438D01*
X127699830Y-251346438D01*
X126637755Y-250284363D01*
X125575680Y-251346438D01*
X124164296Y-251346438D01*
X123102221Y-250284363D01*
X122040146Y-251346438D01*
X120628762Y-251346438D01*
X119566687Y-250284363D01*
X118504612Y-251346438D01*
X117093228Y-251346438D01*
X116031153Y-250284363D01*
X114969079Y-251346438D01*
X113557695Y-251346438D01*
X112495620Y-250284363D01*
X111433545Y-251346438D01*
X110022161Y-251346438D01*
X108960086Y-250284363D01*
X107898011Y-251346438D01*
X106486627Y-251346438D01*
X105424552Y-250284363D01*
X104362477Y-251346438D01*
X102951093Y-251346438D01*
X101889018Y-250284363D01*
X100826943Y-251346438D01*
X99415559Y-251346438D01*
X98353484Y-250284363D01*
X97291409Y-251346438D01*
X95880025Y-251346438D01*
X94817950Y-250284363D01*
X93755875Y-251346438D01*
X92344491Y-251346438D01*
X91354497Y-250356444D01*
X91205685Y-250537774D01*
X91203730Y-250540097D01*
X91191723Y-250554018D01*
X91189708Y-250556298D01*
X91173258Y-250574450D01*
X91171183Y-250576684D01*
X91158473Y-250590034D01*
X91156346Y-250592213D01*
X90860513Y-250888046D01*
X90858334Y-250890173D01*
X90844984Y-250902883D01*
X90842750Y-250904958D01*
X90824598Y-250921408D01*
X90822318Y-250923423D01*
X90808397Y-250935430D01*
X90806074Y-250937385D01*
X90482703Y-251202769D01*
X90480330Y-251204668D01*
X90465831Y-251215984D01*
X90463410Y-251217827D01*
X90443734Y-251232421D01*
X90441262Y-251234207D01*
X90426198Y-251244816D01*
X90423689Y-251246538D01*
X90241904Y-251368001D01*
X86774557Y-251368001D01*
X86752429Y-251340348D01*
X86745198Y-251270853D01*
X86776687Y-251208482D01*
X86836898Y-251173035D01*
X86879306Y-251169885D01*
X87110585Y-251192663D01*
X87271375Y-251208500D01*
X87271378Y-251208500D01*
X87665222Y-251208500D01*
X87665225Y-251208500D01*
X88057178Y-251169896D01*
X88443461Y-251093059D01*
X88820352Y-250978731D01*
X89184221Y-250828011D01*
X89531566Y-250642351D01*
X89859040Y-250423540D01*
X90163490Y-250173684D01*
X90441984Y-249895190D01*
X90691840Y-249590740D01*
X90699904Y-249578671D01*
X91988108Y-249578671D01*
X93050183Y-250640746D01*
X94112258Y-249578671D01*
X95523642Y-249578671D01*
X96585717Y-250640746D01*
X97647792Y-249578671D01*
X99059176Y-249578671D01*
X100121251Y-250640746D01*
X101183326Y-249578671D01*
X102594710Y-249578671D01*
X103656785Y-250640746D01*
X104718860Y-249578671D01*
X106130244Y-249578671D01*
X107192319Y-250640746D01*
X108254394Y-249578671D01*
X109665778Y-249578671D01*
X110727853Y-250640746D01*
X111789928Y-249578671D01*
X113201312Y-249578671D01*
X114263386Y-250640745D01*
X115325461Y-249578671D01*
X116736845Y-249578671D01*
X117798920Y-250640745D01*
X118860995Y-249578671D01*
X120272379Y-249578671D01*
X121334454Y-250640745D01*
X122396529Y-249578671D01*
X123807913Y-249578671D01*
X124869988Y-250640746D01*
X125932063Y-249578671D01*
X127343447Y-249578671D01*
X128405522Y-250640746D01*
X129467597Y-249578671D01*
X130878981Y-249578671D01*
X131941056Y-250640746D01*
X133003131Y-249578671D01*
X131941056Y-248516596D01*
X130878981Y-249578671D01*
X129467597Y-249578671D01*
X128405522Y-248516596D01*
X127343447Y-249578671D01*
X125932063Y-249578671D01*
X124869988Y-248516596D01*
X123807913Y-249578671D01*
X122396529Y-249578671D01*
X121334454Y-248516596D01*
X120272379Y-249578671D01*
X118860995Y-249578671D01*
X117798920Y-248516596D01*
X116736845Y-249578671D01*
X115325461Y-249578671D01*
X114263386Y-248516596D01*
X113201312Y-249578671D01*
X111789928Y-249578671D01*
X110727853Y-248516596D01*
X109665778Y-249578671D01*
X108254394Y-249578671D01*
X107192319Y-248516596D01*
X106130244Y-249578671D01*
X104718860Y-249578671D01*
X103656785Y-248516596D01*
X102594710Y-249578671D01*
X101183326Y-249578671D01*
X100121251Y-248516596D01*
X99059176Y-249578671D01*
X97647792Y-249578671D01*
X96585717Y-248516596D01*
X95523642Y-249578671D01*
X94112258Y-249578671D01*
X93050183Y-248516596D01*
X91988108Y-249578671D01*
X90699904Y-249578671D01*
X90910651Y-249263266D01*
X91096311Y-248915921D01*
X91247031Y-248552052D01*
X91361359Y-248175161D01*
X91433815Y-247810904D01*
X93755875Y-247810904D01*
X94817950Y-248872979D01*
X95880025Y-247810904D01*
X97291409Y-247810904D01*
X98353484Y-248872979D01*
X99415559Y-247810904D01*
X100826943Y-247810904D01*
X101889018Y-248872979D01*
X102951093Y-247810904D01*
X104362477Y-247810904D01*
X105424552Y-248872979D01*
X106486627Y-247810904D01*
X107898011Y-247810904D01*
X108960086Y-248872979D01*
X110022161Y-247810904D01*
X111433545Y-247810904D01*
X112495620Y-248872979D01*
X113557695Y-247810904D01*
X114969079Y-247810904D01*
X116031153Y-248872978D01*
X117093228Y-247810904D01*
X117093227Y-247810903D01*
X118504612Y-247810903D01*
X119566686Y-248872978D01*
X120412679Y-248026985D01*
X120259390Y-248011888D01*
X120256357Y-248011551D01*
X120238043Y-248009291D01*
X120235023Y-248008881D01*
X120210791Y-248005284D01*
X120207791Y-248004801D01*
X120189696Y-248001660D01*
X120186712Y-248001104D01*
X119776428Y-247919493D01*
X119773447Y-247918862D01*
X119769400Y-247917953D01*
X122147195Y-247917953D01*
X123102221Y-248872979D01*
X124164296Y-247810904D01*
X125575680Y-247810904D01*
X126637755Y-248872979D01*
X127699830Y-247810904D01*
X127699829Y-247810903D01*
X129111213Y-247810903D01*
X130173289Y-248872979D01*
X131235364Y-247810904D01*
X131235363Y-247810903D01*
X132646747Y-247810903D01*
X133708823Y-248872979D01*
X134770898Y-247810904D01*
X133941377Y-246981383D01*
X133933618Y-246986189D01*
X133928681Y-246989091D01*
X133898411Y-247005953D01*
X133893345Y-247008623D01*
X133852061Y-247029183D01*
X133846872Y-247031619D01*
X133815165Y-247045620D01*
X133809874Y-247047812D01*
X133589643Y-247133139D01*
X133584257Y-247135084D01*
X133551392Y-247146101D01*
X133545915Y-247147797D01*
X133501555Y-247160419D01*
X133496012Y-247161859D01*
X133462282Y-247169793D01*
X133456680Y-247170975D01*
X133247580Y-247210070D01*
X132646747Y-247810903D01*
X131235363Y-247810903D01*
X130634439Y-247209979D01*
X130407210Y-247186006D01*
X130403983Y-247185622D01*
X130384525Y-247183052D01*
X130381319Y-247182586D01*
X130355520Y-247178490D01*
X130352323Y-247177940D01*
X130333018Y-247174355D01*
X130329833Y-247173720D01*
X129994183Y-247102247D01*
X129991012Y-247101528D01*
X129971894Y-247096930D01*
X129968740Y-247096128D01*
X129943510Y-247089355D01*
X129940401Y-247088476D01*
X129921611Y-247082903D01*
X129918512Y-247081940D01*
X129859404Y-247062712D01*
X129111213Y-247810903D01*
X127699829Y-247810903D01*
X126637755Y-246748829D01*
X125575680Y-247810904D01*
X124164296Y-247810904D01*
X123635685Y-247282293D01*
X123565842Y-247328961D01*
X123563291Y-247330621D01*
X123547741Y-247340468D01*
X123545152Y-247342063D01*
X123524141Y-247354657D01*
X123521511Y-247356190D01*
X123505492Y-247365265D01*
X123502824Y-247366733D01*
X123133869Y-247563944D01*
X123131166Y-247565346D01*
X123114712Y-247573628D01*
X123111976Y-247574964D01*
X123089831Y-247585437D01*
X123087065Y-247586704D01*
X123070246Y-247594159D01*
X123067451Y-247595357D01*
X122680956Y-247755449D01*
X122678130Y-247756579D01*
X122660958Y-247763203D01*
X122658105Y-247764264D01*
X122635039Y-247772517D01*
X122632164Y-247773506D01*
X122614681Y-247779282D01*
X122611777Y-247780202D01*
X122211439Y-247901643D01*
X122208511Y-247902492D01*
X122190762Y-247907403D01*
X122187821Y-247908178D01*
X122164060Y-247914129D01*
X122161106Y-247914830D01*
X122147195Y-247917953D01*
X119769400Y-247917953D01*
X119755494Y-247914830D01*
X119752540Y-247914129D01*
X119728779Y-247908178D01*
X119725838Y-247907403D01*
X119708089Y-247902492D01*
X119705161Y-247901643D01*
X119304823Y-247780202D01*
X119301919Y-247779282D01*
X119284436Y-247773506D01*
X119281561Y-247772517D01*
X119258495Y-247764264D01*
X119255642Y-247763203D01*
X119238470Y-247756579D01*
X119235644Y-247755449D01*
X118849149Y-247595357D01*
X118846354Y-247594159D01*
X118829535Y-247586704D01*
X118826769Y-247585437D01*
X118804624Y-247574964D01*
X118801888Y-247573628D01*
X118785434Y-247565346D01*
X118782730Y-247563944D01*
X118762424Y-247553090D01*
X118504612Y-247810903D01*
X117093227Y-247810903D01*
X116031153Y-246748829D01*
X114969079Y-247810904D01*
X113557695Y-247810904D01*
X112495620Y-246748829D01*
X111433545Y-247810904D01*
X110022161Y-247810904D01*
X108960086Y-246748829D01*
X107898011Y-247810904D01*
X106486627Y-247810904D01*
X105424552Y-246748829D01*
X104362477Y-247810904D01*
X102951093Y-247810904D01*
X101889018Y-246748829D01*
X100826943Y-247810904D01*
X99415559Y-247810904D01*
X98353484Y-246748829D01*
X97291409Y-247810904D01*
X95880025Y-247810904D01*
X94817950Y-246748829D01*
X93755875Y-247810904D01*
X91433815Y-247810904D01*
X91438196Y-247788878D01*
X91476800Y-247396925D01*
X91476800Y-247003075D01*
X91438196Y-246611122D01*
X91361359Y-246224839D01*
X91247031Y-245847948D01*
X91213139Y-245766126D01*
X92265117Y-245766126D01*
X92319943Y-245946861D01*
X92320792Y-245949789D01*
X92325703Y-245967538D01*
X92326478Y-245970479D01*
X92332429Y-245994240D01*
X92333130Y-245997194D01*
X92337162Y-246015147D01*
X92337793Y-246018128D01*
X92419404Y-246428412D01*
X92419960Y-246431396D01*
X92423101Y-246449491D01*
X92423584Y-246452491D01*
X92427181Y-246476723D01*
X92427591Y-246479743D01*
X92427996Y-246483025D01*
X93050183Y-247105212D01*
X94112258Y-246043137D01*
X95523642Y-246043137D01*
X96585717Y-247105212D01*
X97647792Y-246043137D01*
X99059176Y-246043137D01*
X100121251Y-247105212D01*
X101183326Y-246043137D01*
X102594710Y-246043137D01*
X103656785Y-247105212D01*
X104718860Y-246043137D01*
X106130244Y-246043137D01*
X107192319Y-247105212D01*
X108254394Y-246043137D01*
X109665778Y-246043137D01*
X110727853Y-247105212D01*
X111789928Y-246043137D01*
X113201312Y-246043137D01*
X114263386Y-247105211D01*
X115325461Y-246043137D01*
X114263386Y-244981062D01*
X113201312Y-246043137D01*
X111789928Y-246043137D01*
X110727853Y-244981062D01*
X109665778Y-246043137D01*
X108254394Y-246043137D01*
X107192319Y-244981062D01*
X106130244Y-246043137D01*
X104718860Y-246043137D01*
X103656785Y-244981062D01*
X102594710Y-246043137D01*
X101183326Y-246043137D01*
X100121251Y-244981062D01*
X99059176Y-246043137D01*
X97647792Y-246043137D01*
X96585717Y-244981062D01*
X95523642Y-246043137D01*
X94112258Y-246043137D01*
X93050182Y-244981061D01*
X92265117Y-245766126D01*
X91213139Y-245766126D01*
X91096311Y-245484079D01*
X91073148Y-245440745D01*
X90910657Y-245136745D01*
X90910656Y-245136743D01*
X90910651Y-245136734D01*
X90691840Y-244809260D01*
X90441984Y-244504810D01*
X90441983Y-244504809D01*
X90441979Y-244504804D01*
X90163495Y-244226320D01*
X89859045Y-243976464D01*
X89859044Y-243976463D01*
X89859040Y-243976460D01*
X89531566Y-243757649D01*
X89531561Y-243757646D01*
X89531554Y-243757642D01*
X89187190Y-243573575D01*
X90922134Y-243573575D01*
X91156346Y-243807787D01*
X91158473Y-243809966D01*
X91171183Y-243823316D01*
X91173258Y-243825550D01*
X91189708Y-243843702D01*
X91191723Y-243845982D01*
X91203730Y-243859903D01*
X91205685Y-243862226D01*
X91471069Y-244185597D01*
X91472968Y-244187970D01*
X91484284Y-244202469D01*
X91486127Y-244204890D01*
X91500721Y-244224566D01*
X91502507Y-244227038D01*
X91513116Y-244242102D01*
X91514837Y-244244610D01*
X91747261Y-244592458D01*
X91748921Y-244595009D01*
X91758768Y-244610559D01*
X91760363Y-244613148D01*
X91772957Y-244634159D01*
X91774490Y-244636789D01*
X91783565Y-244652808D01*
X91785033Y-244655476D01*
X91847505Y-244772354D01*
X92344489Y-244275370D01*
X93755875Y-244275370D01*
X94817950Y-245337445D01*
X95880025Y-244275370D01*
X97291409Y-244275370D01*
X98353484Y-245337445D01*
X99415559Y-244275370D01*
X100826943Y-244275370D01*
X101889018Y-245337445D01*
X102951093Y-244275370D01*
X104362477Y-244275370D01*
X105424552Y-245337445D01*
X106486627Y-244275370D01*
X107898011Y-244275370D01*
X108960086Y-245337445D01*
X110022161Y-244275370D01*
X111433545Y-244275370D01*
X112495620Y-245337445D01*
X113557695Y-244275370D01*
X114969079Y-244275370D01*
X116031153Y-245337444D01*
X116353340Y-245015257D01*
X116252851Y-244772656D01*
X116251721Y-244769830D01*
X116245097Y-244752658D01*
X116244036Y-244749805D01*
X116235783Y-244726739D01*
X116234794Y-244723864D01*
X116229018Y-244706381D01*
X116228098Y-244703477D01*
X116106657Y-244303139D01*
X116105808Y-244300211D01*
X116100897Y-244282462D01*
X116100122Y-244279521D01*
X116094171Y-244255760D01*
X116093470Y-244252806D01*
X116089438Y-244234853D01*
X116088807Y-244231872D01*
X116007196Y-243821588D01*
X116006640Y-243818604D01*
X116003499Y-243800509D01*
X116003016Y-243797509D01*
X115999419Y-243773277D01*
X115999009Y-243770257D01*
X115996749Y-243751943D01*
X115996412Y-243748910D01*
X115955406Y-243332564D01*
X115955145Y-243329532D01*
X115953792Y-243311190D01*
X115953606Y-243308157D01*
X115952794Y-243291654D01*
X114969079Y-244275370D01*
X113557695Y-244275370D01*
X112495620Y-243213295D01*
X111433545Y-244275370D01*
X110022161Y-244275370D01*
X108960086Y-243213295D01*
X107898011Y-244275370D01*
X106486627Y-244275370D01*
X105424552Y-243213295D01*
X104362477Y-244275370D01*
X102951093Y-244275370D01*
X101889018Y-243213295D01*
X100826943Y-244275370D01*
X99415559Y-244275370D01*
X98353484Y-243213295D01*
X97291409Y-244275370D01*
X95880025Y-244275370D01*
X94831708Y-243227053D01*
X94804192Y-243227053D01*
X93755875Y-244275370D01*
X92344489Y-244275370D01*
X92344490Y-244275369D01*
X91282415Y-243213294D01*
X90922134Y-243573575D01*
X89187190Y-243573575D01*
X89184228Y-243571992D01*
X89184223Y-243571990D01*
X89178641Y-243569678D01*
X89024007Y-243505626D01*
X88820353Y-243421269D01*
X88443455Y-243306939D01*
X88057184Y-243230105D01*
X88057167Y-243230102D01*
X87760769Y-243200910D01*
X87665225Y-243191500D01*
X87271375Y-243191500D01*
X87183011Y-243200203D01*
X86879432Y-243230102D01*
X86879415Y-243230105D01*
X86493144Y-243306939D01*
X86116246Y-243421269D01*
X85752376Y-243571990D01*
X85752371Y-243571992D01*
X85405045Y-243757642D01*
X85405027Y-243757653D01*
X85077568Y-243976454D01*
X85077554Y-243976464D01*
X84773104Y-244226320D01*
X84494620Y-244504804D01*
X84244764Y-244809254D01*
X84244754Y-244809268D01*
X84025953Y-245136727D01*
X84025942Y-245136745D01*
X83840292Y-245484071D01*
X83840290Y-245484076D01*
X83689569Y-245847946D01*
X83575239Y-246224844D01*
X83498405Y-246611115D01*
X83498402Y-246611132D01*
X83480083Y-246797134D01*
X83459800Y-247003075D01*
X83459800Y-247396925D01*
X83466205Y-247461954D01*
X83498402Y-247788867D01*
X83498404Y-247788880D01*
X83539117Y-247993553D01*
X83541500Y-248017745D01*
X83541500Y-248030111D01*
X83556525Y-248086188D01*
X83559426Y-248097012D01*
X83561268Y-248104914D01*
X83575239Y-248175155D01*
X83575810Y-248177038D01*
X83610279Y-248290667D01*
X83611128Y-248293464D01*
X83611751Y-248363331D01*
X83574503Y-248422444D01*
X83511208Y-248452035D01*
X83441964Y-248442708D01*
X83401739Y-248413984D01*
X83302012Y-248306938D01*
X83298535Y-248303045D01*
X82755245Y-247668302D01*
X82751962Y-247664299D01*
X82235842Y-247007233D01*
X82232747Y-247003117D01*
X81744737Y-246324920D01*
X81741806Y-246320661D01*
X81282776Y-245622546D01*
X81280010Y-245618139D01*
X81274351Y-245608689D01*
X81031773Y-245203600D01*
X80850079Y-244900183D01*
X80848757Y-244897921D01*
X80841234Y-244884734D01*
X80841225Y-244884721D01*
X80826716Y-244859293D01*
X80160030Y-243690870D01*
X80154690Y-243680386D01*
X80085956Y-243527896D01*
X80078369Y-243505630D01*
X80041060Y-243348685D01*
X80037815Y-243325378D01*
X80030831Y-243164203D01*
X80031403Y-243153160D01*
X82027064Y-243153160D01*
X82443581Y-243569677D01*
X83054327Y-242958932D01*
X95974971Y-242958932D01*
X96585717Y-243569678D01*
X97647792Y-242507603D01*
X97647791Y-242507602D01*
X99059175Y-242507602D01*
X100121250Y-243569677D01*
X100913318Y-242777609D01*
X100859596Y-242755357D01*
X100856801Y-242754159D01*
X100839982Y-242746704D01*
X100837216Y-242745437D01*
X100815071Y-242734964D01*
X100812335Y-242733628D01*
X100795881Y-242725346D01*
X100793178Y-242723944D01*
X100424223Y-242526733D01*
X100421555Y-242525265D01*
X100405536Y-242516190D01*
X100402906Y-242514657D01*
X100391138Y-242507603D01*
X106130244Y-242507603D01*
X107192319Y-243569678D01*
X108254394Y-242507603D01*
X109665778Y-242507603D01*
X110727853Y-243569678D01*
X111789928Y-242507603D01*
X113201312Y-242507603D01*
X114263386Y-243569677D01*
X114979989Y-242853075D01*
X116949800Y-242853075D01*
X116949800Y-243246925D01*
X116955711Y-243306939D01*
X116988402Y-243638867D01*
X116988405Y-243638884D01*
X117065239Y-244025155D01*
X117179569Y-244402053D01*
X117330290Y-244765923D01*
X117330292Y-244765928D01*
X117515942Y-245113254D01*
X117515953Y-245113272D01*
X117734754Y-245440731D01*
X117734764Y-245440745D01*
X117984620Y-245745195D01*
X118263104Y-246023679D01*
X118263109Y-246023683D01*
X118263110Y-246023684D01*
X118567560Y-246273540D01*
X118895034Y-246492351D01*
X118895043Y-246492356D01*
X118895045Y-246492357D01*
X119242371Y-246678007D01*
X119242373Y-246678007D01*
X119242379Y-246678011D01*
X119606248Y-246828731D01*
X119983139Y-246943059D01*
X120369422Y-247019896D01*
X120761375Y-247058500D01*
X120761378Y-247058500D01*
X121155222Y-247058500D01*
X121155225Y-247058500D01*
X121547178Y-247019896D01*
X121933461Y-246943059D01*
X122310352Y-246828731D01*
X122674221Y-246678011D01*
X122704379Y-246661891D01*
X124426667Y-246661891D01*
X124869988Y-247105212D01*
X125932063Y-246043137D01*
X125932062Y-246043136D01*
X127343446Y-246043136D01*
X128405521Y-247105211D01*
X128883866Y-246626866D01*
X128838679Y-246600761D01*
X128835886Y-246599098D01*
X128819129Y-246588822D01*
X128816380Y-246587086D01*
X128794477Y-246572851D01*
X128791787Y-246571053D01*
X128775634Y-246559945D01*
X128772985Y-246558072D01*
X128495434Y-246356312D01*
X128492834Y-246354369D01*
X128477275Y-246342424D01*
X128474733Y-246340419D01*
X128454435Y-246323976D01*
X128451933Y-246321894D01*
X128436997Y-246309131D01*
X128434559Y-246306993D01*
X128428913Y-246301907D01*
X134673285Y-246301907D01*
X135476590Y-247105212D01*
X136538665Y-246043137D01*
X137950049Y-246043137D01*
X138115912Y-246209000D01*
X138166712Y-246198896D01*
X138169696Y-246198340D01*
X138187791Y-246195199D01*
X138190791Y-246194716D01*
X138215023Y-246191119D01*
X138218043Y-246190709D01*
X138236357Y-246188449D01*
X138239390Y-246188112D01*
X138655736Y-246147106D01*
X138658768Y-246146845D01*
X138677110Y-246145492D01*
X138680143Y-246145306D01*
X138704611Y-246144103D01*
X138707651Y-246143990D01*
X138726070Y-246143537D01*
X138729119Y-246143500D01*
X139147481Y-246143500D01*
X139150530Y-246143537D01*
X139168949Y-246143990D01*
X139171989Y-246144103D01*
X139196457Y-246145306D01*
X139199490Y-246145492D01*
X139217832Y-246146845D01*
X139220864Y-246147106D01*
X139637210Y-246188112D01*
X139640243Y-246188449D01*
X139658557Y-246190709D01*
X139661577Y-246191119D01*
X139685809Y-246194716D01*
X139688809Y-246195199D01*
X139706904Y-246198340D01*
X139709888Y-246198896D01*
X139883838Y-246233496D01*
X140074197Y-246043137D01*
X141485583Y-246043137D01*
X142547657Y-247105211D01*
X143300561Y-246352307D01*
X143282805Y-246328796D01*
X143279458Y-246324144D01*
X143259863Y-246295539D01*
X143256733Y-246290737D01*
X143232453Y-246251521D01*
X143229553Y-246246585D01*
X143212696Y-246216321D01*
X143210026Y-246211255D01*
X143104753Y-245999846D01*
X143102318Y-245994660D01*
X143088316Y-245962949D01*
X143086123Y-245957654D01*
X143069462Y-245914645D01*
X143067516Y-245909257D01*
X143056505Y-245876403D01*
X143054812Y-245870934D01*
X142990179Y-245643781D01*
X142988739Y-245638238D01*
X142980804Y-245604503D01*
X142979621Y-245598896D01*
X142971146Y-245553558D01*
X142970224Y-245547907D01*
X142965435Y-245513581D01*
X142964775Y-245507889D01*
X142953570Y-245386974D01*
X142547658Y-244981062D01*
X141485583Y-246043137D01*
X140074197Y-246043137D01*
X140074198Y-246043136D01*
X139012124Y-244981062D01*
X137950049Y-246043137D01*
X136538665Y-246043137D01*
X135476589Y-244981061D01*
X134975064Y-245482586D01*
X134972720Y-245507892D01*
X134972060Y-245513586D01*
X134967271Y-245547912D01*
X134966349Y-245553564D01*
X134957874Y-245598900D01*
X134956691Y-245604504D01*
X134948758Y-245638233D01*
X134947319Y-245643776D01*
X134882687Y-245870940D01*
X134880992Y-245876412D01*
X134869975Y-245909283D01*
X134868029Y-245914674D01*
X134851368Y-245957679D01*
X134849177Y-245962969D01*
X134835185Y-245994658D01*
X134832751Y-245999842D01*
X134727481Y-246211262D01*
X134724809Y-246216331D01*
X134707938Y-246246620D01*
X134705034Y-246251562D01*
X134680753Y-246290774D01*
X134677628Y-246295569D01*
X134673285Y-246301907D01*
X128428913Y-246301907D01*
X128179587Y-246077313D01*
X128177205Y-246075109D01*
X128162966Y-246061591D01*
X128160641Y-246059325D01*
X128142172Y-246040848D01*
X128139906Y-246038521D01*
X128126398Y-246024280D01*
X128124198Y-246021899D01*
X127894637Y-245766845D01*
X127892499Y-245764407D01*
X127879763Y-245749490D01*
X127877689Y-245746995D01*
X127861253Y-245726692D01*
X127859243Y-245724142D01*
X127847285Y-245708553D01*
X127845343Y-245705951D01*
X127776045Y-245610537D01*
X127343446Y-246043136D01*
X125932062Y-246043136D01*
X125347630Y-245458704D01*
X125275033Y-245594524D01*
X125273565Y-245597192D01*
X125264490Y-245613211D01*
X125262957Y-245615841D01*
X125250363Y-245636852D01*
X125248768Y-245639441D01*
X125238921Y-245654991D01*
X125237261Y-245657542D01*
X125004837Y-246005390D01*
X125003116Y-246007898D01*
X124992507Y-246022962D01*
X124990721Y-246025434D01*
X124976127Y-246045110D01*
X124974284Y-246047531D01*
X124962968Y-246062030D01*
X124961069Y-246064403D01*
X124695685Y-246387774D01*
X124693730Y-246390097D01*
X124681723Y-246404018D01*
X124679708Y-246406298D01*
X124663258Y-246424450D01*
X124661183Y-246426684D01*
X124648473Y-246440034D01*
X124646346Y-246442213D01*
X124426667Y-246661891D01*
X122704379Y-246661891D01*
X123021566Y-246492351D01*
X123349040Y-246273540D01*
X123653490Y-246023684D01*
X123931984Y-245745190D01*
X124181840Y-245440740D01*
X124400651Y-245113266D01*
X124586311Y-244765921D01*
X124712377Y-244461572D01*
X125761882Y-244461572D01*
X126637754Y-245337444D01*
X127266323Y-244708875D01*
X127254386Y-244682056D01*
X127253105Y-244679073D01*
X127245596Y-244660939D01*
X127244395Y-244657928D01*
X127235035Y-244633539D01*
X127233910Y-244630489D01*
X127227358Y-244611980D01*
X127226316Y-244608910D01*
X127120302Y-244282542D01*
X127119340Y-244279444D01*
X127113768Y-244260629D01*
X127112888Y-244257506D01*
X127106128Y-244232273D01*
X127105329Y-244229128D01*
X127100745Y-244210031D01*
X127100028Y-244206862D01*
X127028703Y-243871215D01*
X127028071Y-243868037D01*
X127024501Y-243848774D01*
X127023953Y-243845588D01*
X127019864Y-243819787D01*
X127019397Y-243816565D01*
X127016829Y-243797062D01*
X127016447Y-243793832D01*
X126992747Y-243568287D01*
X126637754Y-243213294D01*
X125879592Y-243971456D01*
X125827793Y-244231872D01*
X125827162Y-244234853D01*
X125823130Y-244252806D01*
X125822429Y-244255760D01*
X125816478Y-244279521D01*
X125815703Y-244282462D01*
X125810792Y-244300211D01*
X125809943Y-244303139D01*
X125761882Y-244461572D01*
X124712377Y-244461572D01*
X124737031Y-244402052D01*
X124851359Y-244025161D01*
X124928196Y-243638878D01*
X124966800Y-243246925D01*
X124966800Y-242853075D01*
X124928196Y-242461122D01*
X124851359Y-242074839D01*
X124737031Y-241697948D01*
X124586311Y-241334079D01*
X124550461Y-241267009D01*
X124400657Y-240986745D01*
X124400656Y-240986743D01*
X124400651Y-240986734D01*
X124235679Y-240739836D01*
X125575680Y-240739836D01*
X126637755Y-241801911D01*
X126976500Y-241463166D01*
X126976500Y-240016506D01*
X126637755Y-239677761D01*
X125575680Y-240739836D01*
X124235679Y-240739836D01*
X124181840Y-240659260D01*
X123931984Y-240354810D01*
X123931983Y-240354809D01*
X123931979Y-240354804D01*
X123653495Y-240076320D01*
X123349045Y-239826464D01*
X123349044Y-239826463D01*
X123349040Y-239826460D01*
X123021566Y-239607649D01*
X123021561Y-239607646D01*
X123021554Y-239607642D01*
X122674228Y-239421992D01*
X122674223Y-239421990D01*
X122310353Y-239271269D01*
X121933455Y-239156939D01*
X121547184Y-239080105D01*
X121547167Y-239080102D01*
X121250769Y-239050910D01*
X121155225Y-239041500D01*
X120761375Y-239041500D01*
X120673011Y-239050203D01*
X120369432Y-239080102D01*
X120369415Y-239080105D01*
X119983144Y-239156939D01*
X119606246Y-239271269D01*
X119242376Y-239421990D01*
X119242371Y-239421992D01*
X118895045Y-239607642D01*
X118895027Y-239607653D01*
X118567568Y-239826454D01*
X118567554Y-239826464D01*
X118263104Y-240076320D01*
X117984620Y-240354804D01*
X117734764Y-240659254D01*
X117734754Y-240659268D01*
X117515953Y-240986727D01*
X117515942Y-240986745D01*
X117330292Y-241334071D01*
X117330290Y-241334076D01*
X117179569Y-241697946D01*
X117065239Y-242074844D01*
X116988405Y-242461115D01*
X116988402Y-242461132D01*
X116959805Y-242751492D01*
X116949800Y-242853075D01*
X114979989Y-242853075D01*
X115325461Y-242507603D01*
X114263386Y-241445528D01*
X113201312Y-242507603D01*
X111789928Y-242507603D01*
X110727853Y-241445528D01*
X109665778Y-242507603D01*
X108254394Y-242507603D01*
X107192319Y-241445528D01*
X106130244Y-242507603D01*
X100391138Y-242507603D01*
X100381895Y-242502063D01*
X100379306Y-242500468D01*
X100363756Y-242490621D01*
X100361205Y-242488961D01*
X100013357Y-242256537D01*
X100010849Y-242254816D01*
X99995785Y-242244207D01*
X99993313Y-242242421D01*
X99973637Y-242227827D01*
X99971216Y-242225984D01*
X99956717Y-242214668D01*
X99954344Y-242212769D01*
X99630973Y-241947385D01*
X99628650Y-241945430D01*
X99624729Y-241942048D01*
X99059175Y-242507602D01*
X97647791Y-242507602D01*
X96913626Y-241773437D01*
X96909752Y-241785725D01*
X96908014Y-241790844D01*
X96831747Y-242000400D01*
X96829783Y-242005449D01*
X96817246Y-242035713D01*
X96815067Y-242040665D01*
X96796655Y-242080146D01*
X96794262Y-242084998D01*
X96779157Y-242114012D01*
X96776557Y-242118751D01*
X96665067Y-242311856D01*
X96662261Y-242316480D01*
X96644684Y-242344071D01*
X96641680Y-242348567D01*
X96616695Y-242384252D01*
X96613494Y-242388618D01*
X96593556Y-242414602D01*
X96590168Y-242418823D01*
X96446813Y-242589662D01*
X96443242Y-242593734D01*
X96421116Y-242617877D01*
X96417376Y-242621784D01*
X96386571Y-242652586D01*
X96382662Y-242656327D01*
X96358538Y-242678430D01*
X96354472Y-242681995D01*
X96183641Y-242825329D01*
X96179420Y-242828717D01*
X96153444Y-242848647D01*
X96149081Y-242851846D01*
X96113396Y-242876830D01*
X96108898Y-242879835D01*
X96081295Y-242897418D01*
X96076669Y-242900225D01*
X95974971Y-242958932D01*
X83054327Y-242958932D01*
X83505656Y-242507603D01*
X84917040Y-242507603D01*
X85164196Y-242754759D01*
X85292731Y-242686056D01*
X85295434Y-242684654D01*
X85311888Y-242676372D01*
X85314624Y-242675036D01*
X85336769Y-242664563D01*
X85339535Y-242663296D01*
X85356354Y-242655841D01*
X85359149Y-242654643D01*
X85745644Y-242494551D01*
X85748470Y-242493421D01*
X85765642Y-242486797D01*
X85768495Y-242485736D01*
X85791561Y-242477483D01*
X85794436Y-242476494D01*
X85811919Y-242470718D01*
X85814823Y-242469798D01*
X86215161Y-242348357D01*
X86218089Y-242347508D01*
X86235838Y-242342597D01*
X86238779Y-242341822D01*
X86262540Y-242335871D01*
X86265494Y-242335170D01*
X86283447Y-242331138D01*
X86286428Y-242330507D01*
X86303531Y-242327105D01*
X88633071Y-242327105D01*
X88650173Y-242330507D01*
X88653153Y-242331138D01*
X88671106Y-242335170D01*
X88674060Y-242335871D01*
X88697821Y-242341822D01*
X88700762Y-242342597D01*
X88718511Y-242347508D01*
X88721439Y-242348357D01*
X89121777Y-242469798D01*
X89124681Y-242470718D01*
X89142164Y-242476494D01*
X89145039Y-242477483D01*
X89168105Y-242485736D01*
X89170958Y-242486797D01*
X89188130Y-242493421D01*
X89190956Y-242494551D01*
X89577451Y-242654643D01*
X89580246Y-242655841D01*
X89597065Y-242663296D01*
X89599831Y-242664563D01*
X89621976Y-242675036D01*
X89624712Y-242676372D01*
X89641166Y-242684654D01*
X89643869Y-242686056D01*
X90012824Y-242883267D01*
X90015492Y-242884735D01*
X90031511Y-242893810D01*
X90034141Y-242895343D01*
X90055152Y-242907937D01*
X90057741Y-242909532D01*
X90073291Y-242919379D01*
X90075841Y-242921038D01*
X90128261Y-242956064D01*
X90576723Y-242507602D01*
X89514648Y-241445527D01*
X88633071Y-242327105D01*
X86303531Y-242327105D01*
X86696712Y-242248896D01*
X86699696Y-242248340D01*
X86717791Y-242245199D01*
X86720791Y-242244716D01*
X86745023Y-242241119D01*
X86748043Y-242240709D01*
X86766357Y-242238449D01*
X86769390Y-242238112D01*
X86771491Y-242237904D01*
X85979115Y-241445528D01*
X84917040Y-242507603D01*
X83505656Y-242507603D01*
X83221079Y-242223026D01*
X83207938Y-242246620D01*
X83205034Y-242251562D01*
X83180753Y-242290774D01*
X83177628Y-242295569D01*
X83158052Y-242324147D01*
X83154708Y-242328796D01*
X83012387Y-242517268D01*
X83008830Y-242521758D01*
X82986688Y-242548424D01*
X82982927Y-242552746D01*
X82951856Y-242586830D01*
X82947899Y-242590974D01*
X82923396Y-242615477D01*
X82919255Y-242619431D01*
X82744730Y-242778539D01*
X82740413Y-242782297D01*
X82713766Y-242804427D01*
X82709274Y-242807985D01*
X82672471Y-242835780D01*
X82667824Y-242839124D01*
X82639223Y-242858719D01*
X82634420Y-242861849D01*
X82433618Y-242986189D01*
X82428681Y-242989091D01*
X82398411Y-243005953D01*
X82393345Y-243008623D01*
X82352061Y-243029183D01*
X82346872Y-243031619D01*
X82315165Y-243045620D01*
X82309874Y-243047812D01*
X82089643Y-243133139D01*
X82084257Y-243135084D01*
X82051392Y-243146101D01*
X82045915Y-243147797D01*
X82027064Y-243153160D01*
X80031403Y-243153160D01*
X80032047Y-243140716D01*
X80055644Y-242981113D01*
X80061278Y-242958278D01*
X80114601Y-242806020D01*
X80124445Y-242784663D01*
X80205583Y-242645213D01*
X80219287Y-242626099D01*
X80325306Y-242504496D01*
X80342376Y-242488314D01*
X80469464Y-242388933D01*
X80489283Y-242376267D01*
X80632852Y-242302693D01*
X80654719Y-242293997D01*
X80783296Y-242256537D01*
X80809604Y-242248872D01*
X80832710Y-242244466D01*
X80999417Y-242228849D01*
X81011149Y-242228309D01*
X81417410Y-242228969D01*
X81418019Y-242229148D01*
X81468748Y-242229146D01*
X81468748Y-242229147D01*
X81563776Y-242229143D01*
X81750595Y-242194213D01*
X81927815Y-242125550D01*
X82089401Y-242025493D01*
X82229851Y-241897450D01*
X82344382Y-241745780D01*
X82429095Y-241575647D01*
X82481105Y-241392846D01*
X82498641Y-241203600D01*
X82498636Y-241203551D01*
X82487190Y-241080027D01*
X82481105Y-241014354D01*
X82429095Y-240831553D01*
X82344382Y-240661420D01*
X82245744Y-240530797D01*
X82232915Y-240513807D01*
X83375300Y-240513807D01*
X83380992Y-240530788D01*
X83382687Y-240536260D01*
X83447319Y-240763424D01*
X83448758Y-240768967D01*
X83456691Y-240802696D01*
X83457874Y-240808300D01*
X83466349Y-240853636D01*
X83467271Y-240859288D01*
X83472060Y-240893614D01*
X83472720Y-240899307D01*
X83489465Y-241080027D01*
X84211348Y-241801910D01*
X85273423Y-240739836D01*
X86684807Y-240739836D01*
X87746882Y-241801911D01*
X88808957Y-240739836D01*
X90220341Y-240739836D01*
X91282415Y-241801910D01*
X91480633Y-241603693D01*
X91479621Y-241598896D01*
X91471146Y-241553558D01*
X91470224Y-241547907D01*
X91465435Y-241513581D01*
X91464775Y-241507888D01*
X91442984Y-241272722D01*
X91442587Y-241267009D01*
X91440986Y-241232389D01*
X91440854Y-241226661D01*
X91440854Y-241180539D01*
X91440986Y-241174811D01*
X91442587Y-241140191D01*
X91442984Y-241134478D01*
X91464775Y-240899312D01*
X91465435Y-240893619D01*
X91470224Y-240859293D01*
X91471146Y-240853642D01*
X91479621Y-240808304D01*
X91480804Y-240802697D01*
X91488739Y-240768962D01*
X91490179Y-240763419D01*
X91554812Y-240536266D01*
X91556505Y-240530797D01*
X91567516Y-240497943D01*
X91569462Y-240492555D01*
X91586123Y-240449546D01*
X91588316Y-240444251D01*
X91602318Y-240412540D01*
X91604753Y-240407354D01*
X91710026Y-240195945D01*
X91712696Y-240190879D01*
X91729553Y-240160615D01*
X91732453Y-240155679D01*
X91743114Y-240138459D01*
X91331708Y-239727053D01*
X91233124Y-239727053D01*
X90220341Y-240739836D01*
X88808957Y-240739836D01*
X87796174Y-239727053D01*
X87697590Y-239727053D01*
X86684807Y-240739836D01*
X85273423Y-240739836D01*
X84260640Y-239727053D01*
X84162056Y-239727053D01*
X83375300Y-240513807D01*
X82232915Y-240513807D01*
X82229852Y-240509751D01*
X82204665Y-240486789D01*
X82089401Y-240381706D01*
X82089398Y-240381704D01*
X82089393Y-240381700D01*
X81927821Y-240281653D01*
X81927810Y-240281647D01*
X81750600Y-240212988D01*
X81750595Y-240212987D01*
X81563776Y-240178057D01*
X81563775Y-240178056D01*
X81563772Y-240178056D01*
X81501691Y-240178054D01*
X81501666Y-240178049D01*
X81476872Y-240178052D01*
X81460681Y-240176992D01*
X81362117Y-240164023D01*
X81330847Y-240155647D01*
X81246569Y-240120742D01*
X81218533Y-240104557D01*
X81146163Y-240049026D01*
X81123273Y-240026136D01*
X81067742Y-239953766D01*
X81051558Y-239925733D01*
X81016650Y-239841447D01*
X81008276Y-239810181D01*
X80995308Y-239711618D01*
X80994248Y-239695426D01*
X80994249Y-239680856D01*
X80994247Y-239680830D01*
X80994247Y-239211700D01*
X80995312Y-239195486D01*
X81000396Y-239156939D01*
X81008310Y-239096937D01*
X81016688Y-239065692D01*
X81051617Y-238981402D01*
X81067789Y-238953396D01*
X81123337Y-238881012D01*
X81146212Y-238858139D01*
X81218584Y-238802599D01*
X81246599Y-238786419D01*
X81330886Y-238751490D01*
X81362133Y-238743111D01*
X81436765Y-238733267D01*
X81460638Y-238730118D01*
X81476854Y-238729053D01*
X87458185Y-238729053D01*
X93460613Y-238729053D01*
X93476807Y-238730115D01*
X93575369Y-238743098D01*
X93606625Y-238751474D01*
X93690911Y-238786393D01*
X93718931Y-238802572D01*
X93791304Y-238858107D01*
X93814192Y-238880995D01*
X93869727Y-238953368D01*
X93885908Y-238981390D01*
X93920823Y-239065669D01*
X93929201Y-239096930D01*
X93941855Y-239192991D01*
X93942185Y-239195491D01*
X93943247Y-239211686D01*
X93943247Y-239676917D01*
X93943241Y-239676957D01*
X93943245Y-239695435D01*
X93942188Y-239711618D01*
X93929235Y-239810189D01*
X93920860Y-239841469D01*
X93885966Y-239925746D01*
X93869777Y-239953793D01*
X93814253Y-240026159D01*
X93791355Y-240049056D01*
X93718987Y-240104580D01*
X93690940Y-240120769D01*
X93606662Y-240155662D01*
X93575382Y-240164036D01*
X93476768Y-240176993D01*
X93460589Y-240178050D01*
X93441315Y-240178046D01*
X93440682Y-240178145D01*
X93373735Y-240178143D01*
X93373723Y-240178143D01*
X93373722Y-240178143D01*
X93373721Y-240178143D01*
X93373714Y-240178143D01*
X93186908Y-240213056D01*
X93186906Y-240213057D01*
X93009689Y-240281704D01*
X92848180Y-240381700D01*
X92848102Y-240381748D01*
X92712372Y-240505476D01*
X92707648Y-240509782D01*
X92593117Y-240661439D01*
X92508400Y-240831568D01*
X92456640Y-241013481D01*
X92456390Y-241014361D01*
X92438854Y-241203600D01*
X92456390Y-241392839D01*
X92508401Y-241575634D01*
X92593116Y-241745759D01*
X92707650Y-241897420D01*
X92848102Y-242025452D01*
X93009689Y-242125496D01*
X93186908Y-242194143D01*
X93373717Y-242229056D01*
X93373717Y-242229055D01*
X93373723Y-242229057D01*
X93468748Y-242229053D01*
X94968396Y-242229053D01*
X94978961Y-242229053D01*
X95003809Y-242229053D01*
X95004061Y-242229001D01*
X95058104Y-242229006D01*
X95058115Y-242229007D01*
X95058115Y-242229006D01*
X95058116Y-242229007D01*
X95234831Y-242197863D01*
X95403452Y-242136503D01*
X95558855Y-242046792D01*
X95696317Y-241931456D01*
X95724853Y-241897450D01*
X95811656Y-241794005D01*
X95811659Y-241794001D01*
X95813482Y-241790844D01*
X95901380Y-241638602D01*
X95962749Y-241469984D01*
X95993903Y-241293271D01*
X95993899Y-241203552D01*
X95993899Y-240739835D01*
X97291408Y-240739835D01*
X98353483Y-241801910D01*
X98950649Y-241204744D01*
X98936326Y-241185434D01*
X98934540Y-241182962D01*
X98923931Y-241167898D01*
X98922210Y-241165390D01*
X98689786Y-240817542D01*
X98688126Y-240814991D01*
X98678279Y-240799441D01*
X98676684Y-240796852D01*
X98664090Y-240775841D01*
X98662557Y-240773211D01*
X98653482Y-240757192D01*
X98652014Y-240754524D01*
X98454803Y-240385569D01*
X98453401Y-240382866D01*
X98445119Y-240366412D01*
X98443783Y-240363676D01*
X98433310Y-240341531D01*
X98432043Y-240338765D01*
X98424588Y-240321946D01*
X98423390Y-240319151D01*
X98263298Y-239932656D01*
X98262168Y-239929830D01*
X98255544Y-239912658D01*
X98254483Y-239909805D01*
X98246230Y-239886739D01*
X98245241Y-239883864D01*
X98239465Y-239866381D01*
X98238545Y-239863477D01*
X98222071Y-239809172D01*
X97291408Y-240739835D01*
X95993899Y-240739835D01*
X95993899Y-238013075D01*
X98960247Y-238013075D01*
X98960247Y-238406925D01*
X98970113Y-238507094D01*
X98998849Y-238798867D01*
X98998852Y-238798884D01*
X99075686Y-239185155D01*
X99190016Y-239562053D01*
X99340737Y-239925923D01*
X99340739Y-239925928D01*
X99526389Y-240273254D01*
X99526400Y-240273272D01*
X99745201Y-240600731D01*
X99745211Y-240600745D01*
X99995067Y-240905195D01*
X100273551Y-241183679D01*
X100273556Y-241183683D01*
X100273557Y-241183684D01*
X100578007Y-241433540D01*
X100905481Y-241652351D01*
X100905490Y-241652356D01*
X100905492Y-241652357D01*
X101252818Y-241838007D01*
X101252820Y-241838007D01*
X101252826Y-241838011D01*
X101616695Y-241988731D01*
X101993586Y-242103059D01*
X102379869Y-242179896D01*
X102771822Y-242218500D01*
X102771825Y-242218500D01*
X103165669Y-242218500D01*
X103165672Y-242218500D01*
X103557625Y-242179896D01*
X103943908Y-242103059D01*
X104320799Y-241988731D01*
X104684668Y-241838011D01*
X105032013Y-241652351D01*
X105359487Y-241433540D01*
X105663937Y-241183684D01*
X105942431Y-240905190D01*
X106078134Y-240739836D01*
X107898011Y-240739836D01*
X108960086Y-241801911D01*
X110022161Y-240739836D01*
X111433545Y-240739836D01*
X112495620Y-241801911D01*
X113557695Y-240739836D01*
X114969079Y-240739836D01*
X116031153Y-241801910D01*
X116137334Y-241695729D01*
X116228098Y-241396523D01*
X116229018Y-241393619D01*
X116234794Y-241376136D01*
X116235783Y-241373261D01*
X116244036Y-241350195D01*
X116245097Y-241347342D01*
X116251721Y-241330170D01*
X116252851Y-241327344D01*
X116412943Y-240940849D01*
X116414141Y-240938054D01*
X116421596Y-240921235D01*
X116422863Y-240918469D01*
X116433336Y-240896324D01*
X116434672Y-240893588D01*
X116442954Y-240877134D01*
X116444356Y-240874431D01*
X116641567Y-240505476D01*
X116643035Y-240502808D01*
X116652110Y-240486789D01*
X116653643Y-240484159D01*
X116666237Y-240463148D01*
X116667832Y-240460559D01*
X116677679Y-240445009D01*
X116679338Y-240442459D01*
X116726006Y-240372614D01*
X116031153Y-239677761D01*
X114969079Y-240739836D01*
X113557695Y-240739836D01*
X112495620Y-239677761D01*
X111433545Y-240739836D01*
X110022161Y-240739836D01*
X108960086Y-239677761D01*
X107898011Y-240739836D01*
X106078134Y-240739836D01*
X106192287Y-240600740D01*
X106411098Y-240273266D01*
X106596758Y-239925921D01*
X106747478Y-239562052D01*
X106861806Y-239185161D01*
X106904193Y-238972068D01*
X109665777Y-238972068D01*
X110727853Y-240034144D01*
X111534943Y-239227053D01*
X113456296Y-239227053D01*
X114263386Y-240034143D01*
X115070386Y-239227142D01*
X114768232Y-239227155D01*
X114767720Y-239227053D01*
X113456296Y-239227053D01*
X111534943Y-239227053D01*
X111778740Y-238983256D01*
X111751830Y-238972069D01*
X116736845Y-238972069D01*
X117346408Y-239581632D01*
X117566087Y-239361954D01*
X117568266Y-239359827D01*
X117581616Y-239347117D01*
X117583850Y-239345042D01*
X117602002Y-239328592D01*
X117604282Y-239326577D01*
X117618203Y-239314570D01*
X117620526Y-239312615D01*
X117943897Y-239047231D01*
X117946270Y-239045332D01*
X117960769Y-239034016D01*
X117963190Y-239032173D01*
X117982866Y-239017579D01*
X117985338Y-239015793D01*
X118000402Y-239005184D01*
X118002910Y-239003463D01*
X118085138Y-238948520D01*
X123831460Y-238948520D01*
X123913689Y-239003463D01*
X123916198Y-239005184D01*
X123931262Y-239015793D01*
X123933734Y-239017579D01*
X123953410Y-239032173D01*
X123955831Y-239034016D01*
X123970330Y-239045332D01*
X123972703Y-239047231D01*
X124296074Y-239312615D01*
X124298397Y-239314570D01*
X124312318Y-239326577D01*
X124314598Y-239328592D01*
X124332750Y-239345042D01*
X124334984Y-239347117D01*
X124348334Y-239359827D01*
X124350513Y-239361954D01*
X124646346Y-239657787D01*
X124648473Y-239659966D01*
X124661183Y-239673316D01*
X124663258Y-239675550D01*
X124679708Y-239693702D01*
X124681723Y-239695982D01*
X124693730Y-239709903D01*
X124695685Y-239712226D01*
X124919358Y-239984772D01*
X125932062Y-238972068D01*
X125852235Y-238892241D01*
X125803132Y-238861840D01*
X125798330Y-238858710D01*
X125769725Y-238839115D01*
X125765075Y-238835770D01*
X125728269Y-238807975D01*
X125723779Y-238804418D01*
X125697130Y-238782289D01*
X125692811Y-238778532D01*
X125518283Y-238619438D01*
X125514141Y-238615483D01*
X125489641Y-238590985D01*
X125485686Y-238586843D01*
X125454611Y-238552759D01*
X125450850Y-238548437D01*
X125428701Y-238521766D01*
X125425142Y-238517274D01*
X125282804Y-238328796D01*
X125279458Y-238324145D01*
X125269277Y-238309283D01*
X124869987Y-237909993D01*
X123831460Y-238948520D01*
X118085138Y-238948520D01*
X118350758Y-238771039D01*
X118353309Y-238769379D01*
X118368859Y-238759532D01*
X118371448Y-238757937D01*
X118392459Y-238745343D01*
X118395089Y-238743810D01*
X118411108Y-238734735D01*
X118413775Y-238733267D01*
X118549594Y-238660668D01*
X117798920Y-237909994D01*
X116736845Y-238972069D01*
X111751830Y-238972069D01*
X111670471Y-238938246D01*
X111666752Y-238936628D01*
X111644422Y-238926476D01*
X111640756Y-238924736D01*
X111611510Y-238910267D01*
X111607913Y-238908414D01*
X111586310Y-238896834D01*
X111582769Y-238894860D01*
X111324990Y-238745633D01*
X111321510Y-238743542D01*
X111300686Y-238730559D01*
X111297283Y-238728359D01*
X111270171Y-238710199D01*
X111266840Y-238707889D01*
X111246939Y-238693595D01*
X111243690Y-238691180D01*
X111007578Y-238509621D01*
X111004401Y-238507094D01*
X110985459Y-238491516D01*
X110982375Y-238488894D01*
X110957863Y-238467356D01*
X110954861Y-238464630D01*
X110936983Y-238447854D01*
X110934074Y-238445033D01*
X110723656Y-238234241D01*
X110720838Y-238231324D01*
X110704105Y-238213427D01*
X110701394Y-238210431D01*
X110679897Y-238185882D01*
X110677269Y-238182781D01*
X110661716Y-238163799D01*
X110659199Y-238160622D01*
X110580259Y-238057586D01*
X109665777Y-238972068D01*
X106904193Y-238972068D01*
X106938643Y-238798878D01*
X106977247Y-238406925D01*
X106977247Y-238013075D01*
X106938643Y-237621122D01*
X106861806Y-237234839D01*
X106852542Y-237204301D01*
X107898010Y-237204301D01*
X108960086Y-238266377D01*
X110022161Y-237204302D01*
X108960085Y-236142226D01*
X107898010Y-237204301D01*
X106852542Y-237204301D01*
X106747478Y-236857948D01*
X106596758Y-236494079D01*
X106542920Y-236393356D01*
X106411104Y-236146745D01*
X106411103Y-236146743D01*
X106411098Y-236146734D01*
X106192287Y-235819260D01*
X105942431Y-235514810D01*
X105942430Y-235514809D01*
X105942426Y-235514804D01*
X105663942Y-235236320D01*
X105359492Y-234986464D01*
X105359491Y-234986463D01*
X105359487Y-234986460D01*
X105179179Y-234865982D01*
X106700795Y-234865982D01*
X106704177Y-234869903D01*
X106706132Y-234872226D01*
X106971516Y-235195597D01*
X106973415Y-235197970D01*
X106984731Y-235212469D01*
X106986574Y-235214890D01*
X107001168Y-235234566D01*
X107002954Y-235237038D01*
X107013563Y-235252102D01*
X107015284Y-235254610D01*
X107247708Y-235602458D01*
X107249368Y-235605009D01*
X107259215Y-235620559D01*
X107260810Y-235623148D01*
X107273404Y-235644159D01*
X107274937Y-235646789D01*
X107284012Y-235662808D01*
X107285480Y-235665476D01*
X107482691Y-236034431D01*
X107484093Y-236037134D01*
X107492375Y-236053588D01*
X107493711Y-236056324D01*
X107504184Y-236078469D01*
X107505451Y-236081235D01*
X107512906Y-236098054D01*
X107514104Y-236100849D01*
X107536356Y-236154571D01*
X108254393Y-235436534D01*
X107192318Y-234374459D01*
X106700795Y-234865982D01*
X105179179Y-234865982D01*
X105032013Y-234767649D01*
X105032008Y-234767646D01*
X105032001Y-234767642D01*
X104684675Y-234581992D01*
X104684670Y-234581990D01*
X104320800Y-234431269D01*
X103943902Y-234316939D01*
X103557631Y-234240105D01*
X103557614Y-234240102D01*
X103247435Y-234209553D01*
X103165672Y-234201500D01*
X102771822Y-234201500D01*
X102695927Y-234208975D01*
X102379879Y-234240102D01*
X102379862Y-234240105D01*
X101993591Y-234316939D01*
X101616693Y-234431269D01*
X101252823Y-234581990D01*
X101252818Y-234581992D01*
X100905492Y-234767642D01*
X100905474Y-234767653D01*
X100578015Y-234986454D01*
X100578001Y-234986464D01*
X100273551Y-235236320D01*
X99995067Y-235514804D01*
X99745211Y-235819254D01*
X99745201Y-235819268D01*
X99526400Y-236146727D01*
X99526389Y-236146745D01*
X99340739Y-236494071D01*
X99340737Y-236494076D01*
X99190016Y-236857946D01*
X99075686Y-237234844D01*
X98998852Y-237621115D01*
X98998849Y-237621132D01*
X98971638Y-237897417D01*
X98960247Y-238013075D01*
X95993899Y-238013075D01*
X95993899Y-237204302D01*
X97291409Y-237204302D01*
X97970218Y-237883111D01*
X98006859Y-237511090D01*
X98007196Y-237508057D01*
X98009456Y-237489743D01*
X98009866Y-237486723D01*
X98013463Y-237462491D01*
X98013946Y-237459491D01*
X98017087Y-237441396D01*
X98017643Y-237438412D01*
X98099254Y-237028128D01*
X98099885Y-237025147D01*
X98103917Y-237007194D01*
X98104618Y-237004240D01*
X98110569Y-236980479D01*
X98111344Y-236977538D01*
X98116255Y-236959789D01*
X98117104Y-236956861D01*
X98238545Y-236556523D01*
X98239465Y-236553619D01*
X98245241Y-236536136D01*
X98246230Y-236533261D01*
X98254483Y-236510195D01*
X98255544Y-236507342D01*
X98262168Y-236490170D01*
X98263298Y-236487344D01*
X98390795Y-236179538D01*
X98353484Y-236142227D01*
X97291409Y-237204302D01*
X95993899Y-237204302D01*
X95993899Y-234208975D01*
X95994371Y-234198161D01*
X95997409Y-234163463D01*
X96004125Y-234086744D01*
X97709385Y-234086744D01*
X98353484Y-234730843D01*
X99415559Y-233668768D01*
X100826943Y-233668768D01*
X100834175Y-233676000D01*
X100837216Y-233674563D01*
X100839982Y-233673296D01*
X100856801Y-233665841D01*
X100859596Y-233664643D01*
X101246091Y-233504551D01*
X101248917Y-233503421D01*
X101266089Y-233496797D01*
X101268942Y-233495736D01*
X101292008Y-233487483D01*
X101294883Y-233486494D01*
X101312366Y-233480718D01*
X101315270Y-233479798D01*
X101369578Y-233463324D01*
X104567919Y-233463324D01*
X104622224Y-233479798D01*
X104625128Y-233480718D01*
X104642611Y-233486494D01*
X104645486Y-233487483D01*
X104668552Y-233495736D01*
X104671405Y-233496797D01*
X104688577Y-233503421D01*
X104691403Y-233504551D01*
X105077898Y-233664643D01*
X105080693Y-233665841D01*
X105097512Y-233673296D01*
X105100278Y-233674563D01*
X105122423Y-233685036D01*
X105125159Y-233686372D01*
X105141613Y-233694654D01*
X105144316Y-233696056D01*
X105513271Y-233893267D01*
X105515939Y-233894735D01*
X105531958Y-233903810D01*
X105534588Y-233905343D01*
X105555599Y-233917937D01*
X105558188Y-233919532D01*
X105573738Y-233929379D01*
X105576289Y-233931039D01*
X105924137Y-234163463D01*
X105926645Y-234165184D01*
X105941709Y-234175793D01*
X105944181Y-234177579D01*
X105963491Y-234191902D01*
X106486626Y-233668767D01*
X105424551Y-232606692D01*
X104567919Y-233463324D01*
X101369578Y-233463324D01*
X101715608Y-233358357D01*
X101718536Y-233357508D01*
X101736285Y-233352597D01*
X101739226Y-233351822D01*
X101762987Y-233345871D01*
X101765941Y-233345170D01*
X101783894Y-233341138D01*
X101786875Y-233340507D01*
X102197159Y-233258896D01*
X102200143Y-233258340D01*
X102218238Y-233255199D01*
X102221238Y-233254716D01*
X102245470Y-233251119D01*
X102248490Y-233250709D01*
X102266804Y-233248449D01*
X102269837Y-233248112D01*
X102507071Y-233224746D01*
X101889018Y-232606693D01*
X100826943Y-233668768D01*
X99415559Y-233668768D01*
X98804123Y-233057332D01*
X98727496Y-233211236D01*
X98724823Y-233216306D01*
X98707949Y-233246601D01*
X98705045Y-233251544D01*
X98680764Y-233290756D01*
X98677640Y-233295550D01*
X98658067Y-233324124D01*
X98654723Y-233328772D01*
X98512409Y-233517240D01*
X98508854Y-233521729D01*
X98486724Y-233548382D01*
X98482965Y-233552702D01*
X98451895Y-233586789D01*
X98447937Y-233590935D01*
X98423423Y-233615451D01*
X98419279Y-233619407D01*
X98244745Y-233778527D01*
X98240424Y-233782288D01*
X98213773Y-233804420D01*
X98209287Y-233807973D01*
X98172485Y-233835769D01*
X98167834Y-233839116D01*
X98139234Y-233858710D01*
X98134433Y-233861839D01*
X97933629Y-233986182D01*
X97928690Y-233989085D01*
X97898418Y-234005948D01*
X97893353Y-234008618D01*
X97852069Y-234029178D01*
X97846881Y-234031614D01*
X97815177Y-234045614D01*
X97809886Y-234047805D01*
X97709385Y-234086744D01*
X96004125Y-234086744D01*
X96007771Y-234045098D01*
X96011527Y-234023811D01*
X96049896Y-233880660D01*
X96057288Y-233860356D01*
X96119944Y-233726026D01*
X96130745Y-233707324D01*
X96215779Y-233585914D01*
X96229659Y-233569377D01*
X96334492Y-233464575D01*
X96351040Y-233450695D01*
X96472465Y-233365703D01*
X96491180Y-233354902D01*
X96625530Y-233292284D01*
X96645817Y-233284905D01*
X96789007Y-233246570D01*
X96810276Y-233242824D01*
X96961690Y-233229614D01*
X96972425Y-233229146D01*
X97063778Y-233229143D01*
X97250599Y-233194212D01*
X97427821Y-233125547D01*
X97589409Y-233025487D01*
X97690335Y-232933473D01*
X97729854Y-232897446D01*
X97729855Y-232897443D01*
X97729860Y-232897440D01*
X97844391Y-232745766D01*
X97929102Y-232575630D01*
X97929104Y-232575622D01*
X97929106Y-232575618D01*
X97981108Y-232392828D01*
X97981109Y-232392825D01*
X97998641Y-232203576D01*
X97981100Y-232014328D01*
X97948854Y-231901001D01*
X99059176Y-231901001D01*
X100121251Y-232963076D01*
X101183326Y-231901001D01*
X102594710Y-231901001D01*
X103656785Y-232963076D01*
X104718860Y-231901001D01*
X106130244Y-231901001D01*
X107036770Y-232807527D01*
X106990179Y-232643781D01*
X106988739Y-232638238D01*
X106980804Y-232604503D01*
X106979621Y-232598896D01*
X106971146Y-232553558D01*
X106970224Y-232547907D01*
X106965435Y-232513581D01*
X106964775Y-232507888D01*
X106942984Y-232272722D01*
X106942587Y-232267009D01*
X106940986Y-232232389D01*
X106940854Y-232226661D01*
X106940854Y-232180539D01*
X106940986Y-232174811D01*
X106942587Y-232140191D01*
X106942984Y-232134478D01*
X106964775Y-231899312D01*
X106965435Y-231893619D01*
X106970224Y-231859293D01*
X106971146Y-231853642D01*
X106979621Y-231808304D01*
X106980804Y-231802697D01*
X106988739Y-231768962D01*
X106990179Y-231763419D01*
X107054812Y-231536266D01*
X107056505Y-231530797D01*
X107067516Y-231497943D01*
X107069462Y-231492555D01*
X107086123Y-231449546D01*
X107088316Y-231444251D01*
X107102318Y-231412540D01*
X107104753Y-231407354D01*
X107210026Y-231195945D01*
X107212696Y-231190879D01*
X107229553Y-231160615D01*
X107232453Y-231155679D01*
X107256733Y-231116463D01*
X107259863Y-231111661D01*
X107279458Y-231083056D01*
X107282804Y-231078405D01*
X107346910Y-230993517D01*
X107192319Y-230838926D01*
X106130244Y-231901001D01*
X104718860Y-231901001D01*
X103656785Y-230838926D01*
X102594710Y-231901001D01*
X101183326Y-231901001D01*
X100121251Y-230838926D01*
X99059176Y-231901001D01*
X97948854Y-231901001D01*
X97929085Y-231831525D01*
X97928665Y-231830682D01*
X97844746Y-231662159D01*
X97844365Y-231661393D01*
X97729827Y-231509724D01*
X97729825Y-231509722D01*
X97729826Y-231509722D01*
X97589372Y-231381684D01*
X97427783Y-231281634D01*
X97427782Y-231281633D01*
X97427778Y-231281631D01*
X97427773Y-231281629D01*
X97250557Y-231212976D01*
X97250554Y-231212975D01*
X97250553Y-231212975D01*
X97063730Y-231178052D01*
X97063728Y-231178052D01*
X96976870Y-231178052D01*
X96960695Y-231176993D01*
X96862115Y-231164023D01*
X96830848Y-231155647D01*
X96746565Y-231120741D01*
X96718533Y-231104557D01*
X96646163Y-231049026D01*
X96623273Y-231026136D01*
X96567742Y-230953766D01*
X96551558Y-230925733D01*
X96516650Y-230841447D01*
X96508276Y-230810181D01*
X96495308Y-230711618D01*
X96494248Y-230695426D01*
X96494249Y-230680856D01*
X96494247Y-230680830D01*
X96494247Y-230211700D01*
X96495312Y-230195486D01*
X96496033Y-230190017D01*
X96508310Y-230096937D01*
X96516688Y-230065692D01*
X96551617Y-229981402D01*
X96567789Y-229953396D01*
X96623337Y-229881012D01*
X96646212Y-229858139D01*
X96718584Y-229802599D01*
X96746599Y-229786419D01*
X96830886Y-229751490D01*
X96862133Y-229743111D01*
X96933524Y-229733694D01*
X96960638Y-229730118D01*
X96976854Y-229729053D01*
X102958185Y-229729053D01*
X108960613Y-229729053D01*
X108976807Y-229730115D01*
G37*
G04 #@! TD.AperFunction*
M02*
