G04 #@! TF.GenerationSoftware,KiCad,Pcbnew,9.0.2*
G04 #@! TF.CreationDate,2026-06-11T16:31:22-04:00*
G04 #@! TF.ProjectId,ThumbsUp,5468756d-6273-4557-902e-6b696361645f,rev?*
G04 #@! TF.SameCoordinates,Original*
G04 #@! TF.FileFunction,Copper,L1,Top*
G04 #@! TF.FilePolarity,Positive*
%FSLAX46Y46*%
G04 Gerber Fmt 4.6, Leading zero omitted, Abs format (unit mm)*
G04 Created by KiCad (PCBNEW 9.0.2) date 2026-06-11 16:31:22*
%MOMM*%
%LPD*%
G01*
G04 APERTURE LIST*
G04 #@! TA.AperFunction,ComponentPad*
%ADD10C,7.000000*%
G04 #@! TD*
G04 #@! TA.AperFunction,Conductor*
%ADD11C,0.200000*%
G04 #@! TD*
G04 APERTURE END LIST*
D10*
X39600000Y-159390000D03*
X87468300Y-165450000D03*
X102968300Y-156450000D03*
X64523271Y-218965794D03*
X39100000Y-206389340D03*
X139118300Y-169450000D03*
X120968300Y-161450000D03*
X49551420Y-222977490D03*
X154468300Y-169450000D03*
D11*
X139368300Y-168950000D02*
X139118300Y-168700000D01*
X139118300Y-168700000D02*
X136620000Y-168700000D01*
X37250000Y-161740000D02*
X39600000Y-159390000D01*
G04 #@! TA.AperFunction,NonConductor*
G36*
X100686244Y-152945185D02*
G01*
X100731999Y-152997989D01*
X100741943Y-153067147D01*
X100712918Y-153130703D01*
X100688096Y-153152602D01*
X100577568Y-153226454D01*
X100577554Y-153226464D01*
X100273104Y-153476320D01*
X99994620Y-153754804D01*
X99744764Y-154059254D01*
X99744754Y-154059268D01*
X99525953Y-154386727D01*
X99525942Y-154386745D01*
X99340292Y-154734071D01*
X99340290Y-154734076D01*
X99189569Y-155097946D01*
X99075239Y-155474844D01*
X98998405Y-155861115D01*
X98998402Y-155861132D01*
X98968503Y-156164711D01*
X98961308Y-156237770D01*
X98959800Y-156253078D01*
X98959800Y-156646921D01*
X98998402Y-157038867D01*
X98998405Y-157038884D01*
X99075239Y-157425155D01*
X99189569Y-157802053D01*
X99340290Y-158165923D01*
X99340292Y-158165928D01*
X99525942Y-158513254D01*
X99525953Y-158513272D01*
X99744754Y-158840731D01*
X99744764Y-158840745D01*
X99994620Y-159145195D01*
X100273104Y-159423679D01*
X100273109Y-159423683D01*
X100273110Y-159423684D01*
X100577560Y-159673540D01*
X100905034Y-159892351D01*
X100905043Y-159892356D01*
X100905045Y-159892357D01*
X101252371Y-160078007D01*
X101252373Y-160078007D01*
X101252379Y-160078011D01*
X101616248Y-160228731D01*
X101993139Y-160343059D01*
X102379422Y-160419896D01*
X102771375Y-160458500D01*
X102771378Y-160458500D01*
X103165222Y-160458500D01*
X103165225Y-160458500D01*
X103557178Y-160419896D01*
X103943461Y-160343059D01*
X104320352Y-160228731D01*
X104684221Y-160078011D01*
X105031566Y-159892351D01*
X105359040Y-159673540D01*
X105506665Y-159552387D01*
X106898860Y-159552387D01*
X107689644Y-160343171D01*
X108751719Y-159281096D01*
X110163104Y-159281096D01*
X111225179Y-160343171D01*
X112287253Y-159281096D01*
X113698638Y-159281096D01*
X114760713Y-160343171D01*
X115822787Y-159281096D01*
X114760713Y-158219022D01*
X113698638Y-159281096D01*
X112287253Y-159281096D01*
X111225179Y-158219022D01*
X110163104Y-159281096D01*
X108751719Y-159281096D01*
X107689645Y-158219022D01*
X107629721Y-158278945D01*
X107513657Y-158559151D01*
X107512459Y-158561946D01*
X107505004Y-158578765D01*
X107503737Y-158581531D01*
X107493264Y-158603676D01*
X107491928Y-158606412D01*
X107483646Y-158622866D01*
X107482244Y-158625569D01*
X107285033Y-158994524D01*
X107283565Y-158997192D01*
X107274490Y-159013211D01*
X107272957Y-159015841D01*
X107260363Y-159036852D01*
X107258768Y-159039441D01*
X107248921Y-159054991D01*
X107247261Y-159057542D01*
X107014837Y-159405390D01*
X107013116Y-159407898D01*
X107002507Y-159422962D01*
X107000721Y-159425434D01*
X106986127Y-159445110D01*
X106984284Y-159447531D01*
X106972968Y-159462030D01*
X106971069Y-159464403D01*
X106898860Y-159552387D01*
X105506665Y-159552387D01*
X105663490Y-159423684D01*
X105941984Y-159145190D01*
X106191840Y-158840740D01*
X106410651Y-158513266D01*
X106596311Y-158165921D01*
X106747031Y-157802052D01*
X106834614Y-157513329D01*
X108395337Y-157513329D01*
X109457412Y-158575404D01*
X110519486Y-157513329D01*
X111930871Y-157513329D01*
X112992946Y-158575404D01*
X114055020Y-157513329D01*
X115466405Y-157513329D01*
X116528480Y-158575404D01*
X117590554Y-157513329D01*
X117003504Y-156926279D01*
X123124522Y-156926279D01*
X123124712Y-156926372D01*
X123141166Y-156934654D01*
X123143869Y-156936056D01*
X123512824Y-157133267D01*
X123515492Y-157134735D01*
X123531511Y-157143810D01*
X123534141Y-157145343D01*
X123555152Y-157157937D01*
X123557741Y-157159532D01*
X123573291Y-157169379D01*
X123575842Y-157171039D01*
X123923690Y-157403463D01*
X123926198Y-157405184D01*
X123941262Y-157415793D01*
X123943734Y-157417579D01*
X123963410Y-157432173D01*
X123965831Y-157434016D01*
X123980330Y-157445332D01*
X123982703Y-157447231D01*
X124306074Y-157712615D01*
X124308397Y-157714570D01*
X124322318Y-157726577D01*
X124324598Y-157728592D01*
X124342750Y-157745042D01*
X124344984Y-157747117D01*
X124358334Y-157759827D01*
X124360513Y-157761954D01*
X124386755Y-157788196D01*
X124661622Y-157513329D01*
X126073006Y-157513329D01*
X127135082Y-158575404D01*
X128197156Y-157513329D01*
X127776386Y-157092559D01*
X126901378Y-156684957D01*
X126073006Y-157513329D01*
X124661622Y-157513329D01*
X123599547Y-156451254D01*
X123124522Y-156926279D01*
X117003504Y-156926279D01*
X116528480Y-156451255D01*
X115466405Y-157513329D01*
X114055020Y-157513329D01*
X112992946Y-156451255D01*
X111930871Y-157513329D01*
X110519486Y-157513329D01*
X109457412Y-156451255D01*
X108395337Y-157513329D01*
X106834614Y-157513329D01*
X106861359Y-157425161D01*
X106938196Y-157038878D01*
X106976800Y-156646925D01*
X106976800Y-156253075D01*
X106938196Y-155861122D01*
X106861359Y-155474839D01*
X106747031Y-155097948D01*
X106596311Y-154734079D01*
X106582142Y-154707572D01*
X107665559Y-154707572D01*
X107673749Y-154727343D01*
X107674879Y-154730170D01*
X107681503Y-154747342D01*
X107682564Y-154750195D01*
X107690817Y-154773261D01*
X107691806Y-154776136D01*
X107697582Y-154793619D01*
X107698502Y-154796523D01*
X107819943Y-155196861D01*
X107820792Y-155199789D01*
X107825703Y-155217538D01*
X107826478Y-155220479D01*
X107832429Y-155244240D01*
X107833130Y-155247194D01*
X107837162Y-155265147D01*
X107837793Y-155268128D01*
X107919404Y-155678412D01*
X107919960Y-155681396D01*
X107923101Y-155699491D01*
X107923584Y-155702491D01*
X107927181Y-155726723D01*
X107927591Y-155729743D01*
X107929851Y-155748057D01*
X107930188Y-155751090D01*
X107971194Y-156167436D01*
X107971455Y-156170468D01*
X107972808Y-156188810D01*
X107972994Y-156191843D01*
X107974197Y-156216311D01*
X107974310Y-156219351D01*
X107974763Y-156237770D01*
X107974800Y-156240819D01*
X107974800Y-156522482D01*
X108751718Y-155745563D01*
X110163104Y-155745563D01*
X111225179Y-156807638D01*
X112287254Y-155745563D01*
X113698638Y-155745563D01*
X114760713Y-156807638D01*
X115822788Y-155745563D01*
X117234172Y-155745563D01*
X118296247Y-156807638D01*
X119358322Y-155745563D01*
X120769706Y-155745563D01*
X121495325Y-156471182D01*
X121667210Y-156488112D01*
X121670243Y-156488449D01*
X121688557Y-156490709D01*
X121691577Y-156491119D01*
X121715809Y-156494716D01*
X121718809Y-156495199D01*
X121736904Y-156498340D01*
X121739888Y-156498896D01*
X122074052Y-156565365D01*
X122893855Y-155745562D01*
X124305239Y-155745562D01*
X125367314Y-156807637D01*
X125938520Y-156236431D01*
X124489407Y-155561394D01*
X124305239Y-155745562D01*
X122893855Y-155745562D01*
X121831781Y-154683488D01*
X120769706Y-155745563D01*
X119358322Y-155745563D01*
X118296247Y-154683488D01*
X117234172Y-155745563D01*
X115822788Y-155745563D01*
X114760713Y-154683488D01*
X113698638Y-155745563D01*
X112287254Y-155745563D01*
X111225179Y-154683488D01*
X110163104Y-155745563D01*
X108751718Y-155745563D01*
X108751719Y-155745562D01*
X107689644Y-154683487D01*
X107665559Y-154707572D01*
X106582142Y-154707572D01*
X106567317Y-154679836D01*
X106410657Y-154386745D01*
X106410656Y-154386743D01*
X106410651Y-154386734D01*
X106191840Y-154059260D01*
X106124984Y-153977796D01*
X108395337Y-153977796D01*
X109457412Y-155039871D01*
X110519487Y-153977796D01*
X111930871Y-153977796D01*
X112992946Y-155039871D01*
X114055021Y-153977796D01*
X115466405Y-153977796D01*
X116528480Y-155039871D01*
X117590555Y-153977796D01*
X119001939Y-153977796D01*
X120064013Y-155039870D01*
X120896277Y-154207606D01*
X120626555Y-154147867D01*
X120054865Y-154050011D01*
X119479042Y-153979941D01*
X119032308Y-153947426D01*
X119001939Y-153977796D01*
X117590555Y-153977796D01*
X117536259Y-153923500D01*
X115520701Y-153923500D01*
X115466405Y-153977796D01*
X114055021Y-153977796D01*
X114000725Y-153923500D01*
X111985167Y-153923500D01*
X111930871Y-153977796D01*
X110519487Y-153977796D01*
X110465191Y-153923500D01*
X108449633Y-153923500D01*
X108395337Y-153977796D01*
X106124984Y-153977796D01*
X105941984Y-153754810D01*
X105941983Y-153754809D01*
X105941979Y-153754804D01*
X105663495Y-153476320D01*
X105359045Y-153226464D01*
X105359044Y-153226463D01*
X105359040Y-153226460D01*
X105248504Y-153152602D01*
X105203699Y-153098990D01*
X105194992Y-153029665D01*
X105225146Y-152966637D01*
X105284589Y-152929918D01*
X105317395Y-152925500D01*
X118312375Y-152925500D01*
X118319144Y-152925500D01*
X118322146Y-152925536D01*
X118945884Y-152940642D01*
X118951853Y-152940932D01*
X119572606Y-152986112D01*
X119578584Y-152986693D01*
X120196428Y-153061876D01*
X120202352Y-153062743D01*
X120815821Y-153167751D01*
X120821690Y-153168902D01*
X121429371Y-153303494D01*
X121435172Y-153304927D01*
X122035631Y-153468786D01*
X122041378Y-153470506D01*
X122633183Y-153663241D01*
X122638832Y-153665233D01*
X123188531Y-153874202D01*
X123220587Y-153886388D01*
X123226148Y-153888657D01*
X123797302Y-154138064D01*
X123799995Y-154139280D01*
X144970254Y-164000965D01*
X144970268Y-164000977D01*
X144970270Y-164000973D01*
X145035281Y-164031268D01*
X145035436Y-164031303D01*
X145333542Y-164170149D01*
X146065739Y-164476537D01*
X146809521Y-164753682D01*
X147563683Y-165001134D01*
X148032855Y-165134735D01*
X148327064Y-165218514D01*
X148622375Y-165290089D01*
X149098468Y-165405481D01*
X149618118Y-165509821D01*
X149876652Y-165561733D01*
X150660427Y-165687032D01*
X151448550Y-165781179D01*
X152239785Y-165844027D01*
X152245834Y-165844266D01*
X152312040Y-165866588D01*
X152355670Y-165921162D01*
X152362868Y-165990659D01*
X152331351Y-166053017D01*
X152309816Y-166071271D01*
X152077568Y-166226454D01*
X152077554Y-166226464D01*
X151773104Y-166476320D01*
X151494620Y-166754804D01*
X151244764Y-167059254D01*
X151244754Y-167059268D01*
X151025953Y-167386727D01*
X151025942Y-167386745D01*
X150840292Y-167734071D01*
X150840290Y-167734076D01*
X150689569Y-168097946D01*
X150575239Y-168474844D01*
X150498405Y-168861115D01*
X150498402Y-168861132D01*
X150468503Y-169164711D01*
X150459800Y-169253075D01*
X150459800Y-169646925D01*
X150467880Y-169728961D01*
X150498402Y-170038867D01*
X150498405Y-170038884D01*
X150575239Y-170425155D01*
X150689569Y-170802053D01*
X150754095Y-170957831D01*
X150833705Y-171150027D01*
X150840290Y-171165923D01*
X150840292Y-171165928D01*
X151025942Y-171513254D01*
X151025953Y-171513272D01*
X151244754Y-171840731D01*
X151244764Y-171840745D01*
X151494620Y-172145195D01*
X151773104Y-172423679D01*
X151773109Y-172423683D01*
X151773110Y-172423684D01*
X152077560Y-172673540D01*
X152405034Y-172892351D01*
X152405043Y-172892356D01*
X152405045Y-172892357D01*
X152752371Y-173078007D01*
X152752373Y-173078007D01*
X152752379Y-173078011D01*
X153116248Y-173228731D01*
X153493139Y-173343059D01*
X153879422Y-173419896D01*
X154271375Y-173458500D01*
X154271378Y-173458500D01*
X154665222Y-173458500D01*
X154665225Y-173458500D01*
X155057178Y-173419896D01*
X155443461Y-173343059D01*
X155820352Y-173228731D01*
X156184221Y-173078011D01*
X156531566Y-172892351D01*
X156859040Y-172673540D01*
X157163490Y-172423684D01*
X157258455Y-172328719D01*
X158566066Y-172328719D01*
X158954887Y-172717540D01*
X160016962Y-171655465D01*
X161428346Y-171655465D01*
X162207492Y-172434611D01*
X162274373Y-172303351D01*
X162348461Y-172110344D01*
X162401968Y-171910653D01*
X162434308Y-171706459D01*
X162446500Y-171473864D01*
X162446500Y-170870616D01*
X162437233Y-170646577D01*
X161428346Y-171655465D01*
X160016962Y-171655465D01*
X159260521Y-170899024D01*
X159198502Y-171103477D01*
X159197582Y-171106381D01*
X159191806Y-171123864D01*
X159190817Y-171126739D01*
X159182564Y-171149805D01*
X159181503Y-171152658D01*
X159174879Y-171169830D01*
X159173749Y-171172656D01*
X159013657Y-171559151D01*
X159012459Y-171561946D01*
X159005004Y-171578765D01*
X159003737Y-171581531D01*
X158993264Y-171603676D01*
X158991928Y-171606412D01*
X158983646Y-171622866D01*
X158982244Y-171625569D01*
X158785033Y-171994524D01*
X158783565Y-171997192D01*
X158774490Y-172013211D01*
X158772957Y-172015841D01*
X158760363Y-172036852D01*
X158758768Y-172039441D01*
X158748921Y-172054991D01*
X158747261Y-172057542D01*
X158566066Y-172328719D01*
X157258455Y-172328719D01*
X157441984Y-172145190D01*
X157691840Y-171840740D01*
X157910651Y-171513266D01*
X158096311Y-171165921D01*
X158247031Y-170802052D01*
X158361359Y-170425161D01*
X158438196Y-170038878D01*
X158453086Y-169887698D01*
X159660579Y-169887698D01*
X160722654Y-170949773D01*
X161784729Y-169887698D01*
X160722654Y-168825623D01*
X159660579Y-169887698D01*
X158453086Y-169887698D01*
X158476800Y-169646925D01*
X158476800Y-169253075D01*
X158438196Y-168861122D01*
X158361359Y-168474839D01*
X158247031Y-168097948D01*
X158096311Y-167734079D01*
X158072812Y-167690116D01*
X157910657Y-167386745D01*
X157910656Y-167386743D01*
X157910651Y-167386734D01*
X157729396Y-167115466D01*
X158897275Y-167115466D01*
X158982244Y-167274431D01*
X158983646Y-167277134D01*
X158991928Y-167293588D01*
X158993264Y-167296324D01*
X159003737Y-167318469D01*
X159005004Y-167321235D01*
X159012459Y-167338054D01*
X159013657Y-167340849D01*
X159173749Y-167727344D01*
X159174879Y-167730170D01*
X159181503Y-167747342D01*
X159182564Y-167750195D01*
X159190817Y-167773261D01*
X159191806Y-167776136D01*
X159197582Y-167793619D01*
X159198502Y-167796523D01*
X159319943Y-168196861D01*
X159320792Y-168199789D01*
X159325703Y-168217538D01*
X159326478Y-168220479D01*
X159332429Y-168244240D01*
X159333130Y-168247194D01*
X159337162Y-168265147D01*
X159337793Y-168268128D01*
X159419404Y-168678412D01*
X159419960Y-168681396D01*
X159423101Y-168699491D01*
X159423584Y-168702491D01*
X159424982Y-168711910D01*
X160016961Y-168119930D01*
X158954886Y-167057855D01*
X158897275Y-167115466D01*
X157729396Y-167115466D01*
X157691840Y-167059260D01*
X157441984Y-166754810D01*
X157441983Y-166754809D01*
X157441979Y-166754804D01*
X157163495Y-166476320D01*
X156859045Y-166226464D01*
X156859044Y-166226463D01*
X156859040Y-166226460D01*
X156754456Y-166156579D01*
X156673672Y-166102601D01*
X156628867Y-166048989D01*
X156620160Y-165979664D01*
X156650314Y-165916637D01*
X156709757Y-165879917D01*
X156742563Y-165875499D01*
X158437048Y-165875499D01*
X158437052Y-165875500D01*
X158461715Y-165875500D01*
X158467439Y-165875500D01*
X158472562Y-165875605D01*
X158875682Y-165892278D01*
X158885855Y-165893121D01*
X159283690Y-165942712D01*
X159293798Y-165944399D01*
X159686146Y-166026665D01*
X159696082Y-166029181D01*
X160080319Y-166143573D01*
X160089987Y-166146892D01*
X160358409Y-166251632D01*
X160463459Y-166292623D01*
X160472830Y-166296732D01*
X160832998Y-166472808D01*
X160841994Y-166477677D01*
X161186390Y-166682891D01*
X161194965Y-166688493D01*
X161287839Y-166754804D01*
X161521224Y-166921439D01*
X161529311Y-166927733D01*
X161684615Y-167059268D01*
X161818492Y-167172656D01*
X161835229Y-167186831D01*
X161842769Y-167193773D01*
X162126226Y-167477230D01*
X162133168Y-167484770D01*
X162392266Y-167790688D01*
X162398560Y-167798775D01*
X162631502Y-168125028D01*
X162637108Y-168133609D01*
X162842322Y-168478005D01*
X162847195Y-168487010D01*
X163023260Y-168847155D01*
X163027376Y-168856540D01*
X163173102Y-169230000D01*
X163176430Y-169239693D01*
X163290818Y-169623917D01*
X163293334Y-169633853D01*
X163375600Y-170026201D01*
X163377287Y-170036309D01*
X163426876Y-170434123D01*
X163427722Y-170444337D01*
X163444394Y-170847437D01*
X163444500Y-170852561D01*
X163444500Y-171496753D01*
X163444330Y-171503243D01*
X163428544Y-171804433D01*
X163427187Y-171817340D01*
X163380517Y-172112010D01*
X163377819Y-172124706D01*
X163300600Y-172412892D01*
X163296589Y-172425237D01*
X163189670Y-172703770D01*
X163184391Y-172715627D01*
X163048941Y-172981464D01*
X163042455Y-172992697D01*
X162981670Y-173086298D01*
X162879962Y-173242914D01*
X162872333Y-173253414D01*
X162684570Y-173485282D01*
X162675885Y-173494927D01*
X162464927Y-173705885D01*
X162455282Y-173714570D01*
X162223414Y-173902333D01*
X162212914Y-173909962D01*
X161962697Y-174072455D01*
X161951464Y-174078941D01*
X161685627Y-174214391D01*
X161673770Y-174219670D01*
X161395237Y-174326589D01*
X161382892Y-174330600D01*
X161094706Y-174407819D01*
X161082010Y-174410517D01*
X160787340Y-174457187D01*
X160774433Y-174458544D01*
X160473244Y-174474330D01*
X160466754Y-174474500D01*
X160373273Y-174474500D01*
X160186456Y-174509423D01*
X160009242Y-174578075D01*
X160009238Y-174578077D01*
X159847649Y-174678129D01*
X159707201Y-174806164D01*
X159592667Y-174957830D01*
X159507953Y-175127957D01*
X159455942Y-175310760D01*
X159438407Y-175499999D01*
X159438407Y-175500000D01*
X159455942Y-175689239D01*
X159507953Y-175872042D01*
X159592286Y-176041403D01*
X159592667Y-176042169D01*
X159707200Y-176193834D01*
X159847651Y-176321872D01*
X160009237Y-176421922D01*
X160186456Y-176490577D01*
X160373273Y-176525500D01*
X160460015Y-176525500D01*
X160460174Y-176525500D01*
X160476359Y-176526561D01*
X160574923Y-176539537D01*
X160606190Y-176547915D01*
X160650949Y-176566454D01*
X160690468Y-176582823D01*
X160718497Y-176599005D01*
X160746565Y-176620543D01*
X160790871Y-176654541D01*
X160813758Y-176677428D01*
X160869291Y-176749798D01*
X160885477Y-176777834D01*
X160920384Y-176862109D01*
X160928762Y-176893375D01*
X160941739Y-176991939D01*
X160942800Y-177008125D01*
X160942800Y-177491874D01*
X160941739Y-177508060D01*
X160928762Y-177606624D01*
X160920384Y-177637890D01*
X160885477Y-177722165D01*
X160869291Y-177750201D01*
X160813758Y-177822571D01*
X160790871Y-177845458D01*
X160718501Y-177900991D01*
X160690465Y-177917177D01*
X160606190Y-177952084D01*
X160574924Y-177960462D01*
X160486544Y-177972098D01*
X160476358Y-177973439D01*
X160460174Y-177974500D01*
X148476426Y-177974500D01*
X148460241Y-177973439D01*
X148448508Y-177971894D01*
X148361675Y-177960462D01*
X148330409Y-177952084D01*
X148246134Y-177917177D01*
X148218100Y-177900992D01*
X148182840Y-177873936D01*
X148145728Y-177845458D01*
X148122841Y-177822571D01*
X148091212Y-177781352D01*
X148067305Y-177750197D01*
X148051123Y-177722168D01*
X148031445Y-177674660D01*
X148016215Y-177637890D01*
X148007837Y-177606623D01*
X147994861Y-177508059D01*
X147993800Y-177491874D01*
X147993800Y-177008125D01*
X147994861Y-176991940D01*
X147996894Y-176976500D01*
X149852237Y-176976500D01*
X151160393Y-176976500D01*
X151178127Y-176958766D01*
X152589511Y-176958766D01*
X152607245Y-176976500D01*
X154695927Y-176976500D01*
X154713661Y-176958766D01*
X156125045Y-176958766D01*
X156142779Y-176976500D01*
X158231461Y-176976500D01*
X158249195Y-176958766D01*
X157187120Y-175896691D01*
X156125045Y-176958766D01*
X154713661Y-176958766D01*
X153651586Y-175896691D01*
X152589511Y-176958766D01*
X151178127Y-176958766D01*
X150383226Y-176163865D01*
X150382241Y-176167330D01*
X150380546Y-176172802D01*
X150369533Y-176205661D01*
X150367587Y-176211050D01*
X150350925Y-176254059D01*
X150348733Y-176259351D01*
X150334733Y-176291058D01*
X150332299Y-176296244D01*
X150227028Y-176507656D01*
X150224357Y-176512723D01*
X150207498Y-176542991D01*
X150204598Y-176547926D01*
X150180319Y-176587141D01*
X150177190Y-176591943D01*
X150157599Y-176620543D01*
X150154253Y-176625194D01*
X150011923Y-176813668D01*
X150008366Y-176818159D01*
X149986230Y-176844816D01*
X149982471Y-176849135D01*
X149951400Y-176883219D01*
X149947443Y-176887363D01*
X149922934Y-176911872D01*
X149918791Y-176915828D01*
X149852237Y-176976500D01*
X147996894Y-176976500D01*
X148007837Y-176893376D01*
X148016215Y-176862109D01*
X148031445Y-176825340D01*
X148051125Y-176777828D01*
X148067303Y-176749805D01*
X148122841Y-176677427D01*
X148145728Y-176654541D01*
X148218105Y-176599003D01*
X148246128Y-176582825D01*
X148330409Y-176547915D01*
X148361675Y-176539537D01*
X148460241Y-176526561D01*
X148476426Y-176525500D01*
X148563325Y-176525500D01*
X148563327Y-176525500D01*
X148750144Y-176490577D01*
X148927363Y-176421922D01*
X149088949Y-176321872D01*
X149229400Y-176193834D01*
X149343933Y-176042169D01*
X149428647Y-175872040D01*
X149480657Y-175689242D01*
X149498193Y-175500000D01*
X149480657Y-175310758D01*
X149446583Y-175190999D01*
X150821744Y-175190999D01*
X151883819Y-176253074D01*
X152945894Y-175190999D01*
X152945893Y-175190998D01*
X154357277Y-175190998D01*
X155419353Y-176253074D01*
X156481428Y-175190999D01*
X157892812Y-175190999D01*
X158460062Y-175758249D01*
X158442537Y-175569122D01*
X158442140Y-175563409D01*
X158440539Y-175528789D01*
X158440407Y-175523061D01*
X158440407Y-175476939D01*
X158440539Y-175471211D01*
X158442140Y-175436591D01*
X158442537Y-175430878D01*
X158464329Y-175195707D01*
X158464989Y-175190017D01*
X158469778Y-175155685D01*
X158470701Y-175150027D01*
X158479177Y-175104692D01*
X158480359Y-175099091D01*
X158488291Y-175065366D01*
X158489730Y-175059823D01*
X158554359Y-174832670D01*
X158556054Y-174827198D01*
X158567067Y-174794339D01*
X158569013Y-174788950D01*
X158585675Y-174745941D01*
X158587867Y-174740649D01*
X158601867Y-174708942D01*
X158604301Y-174703756D01*
X158709572Y-174492344D01*
X158712243Y-174487277D01*
X158729102Y-174457009D01*
X158732002Y-174452074D01*
X158756281Y-174412859D01*
X158759410Y-174408057D01*
X158779001Y-174379457D01*
X158782347Y-174374806D01*
X158924677Y-174186332D01*
X158928234Y-174181841D01*
X158950370Y-174155184D01*
X158954129Y-174150865D01*
X158964953Y-174138990D01*
X158954887Y-174128924D01*
X157892812Y-175190999D01*
X156481428Y-175190999D01*
X155616599Y-174326170D01*
X155239888Y-174401104D01*
X155236904Y-174401660D01*
X155218809Y-174404801D01*
X155215809Y-174405284D01*
X155191577Y-174408881D01*
X155188557Y-174409291D01*
X155170243Y-174411551D01*
X155167209Y-174411888D01*
X155133021Y-174415254D01*
X154357277Y-175190998D01*
X152945893Y-175190998D01*
X151883819Y-174128924D01*
X150821744Y-175190999D01*
X149446583Y-175190999D01*
X149428647Y-175127960D01*
X149428206Y-175127075D01*
X149344314Y-174958597D01*
X149343933Y-174957831D01*
X149229400Y-174806166D01*
X149216426Y-174794339D01*
X149088950Y-174678129D01*
X149088949Y-174678128D01*
X148927363Y-174578078D01*
X148927361Y-174578077D01*
X148927357Y-174578075D01*
X148839978Y-174544225D01*
X148750144Y-174509423D01*
X148563327Y-174474500D01*
X148478862Y-174474500D01*
X147210562Y-174474500D01*
X146210562Y-174474500D01*
X145110562Y-174474500D01*
X144976585Y-174474500D01*
X144968300Y-174474500D01*
X144873273Y-174474500D01*
X144686456Y-174509423D01*
X144509242Y-174578075D01*
X144509238Y-174578077D01*
X144347649Y-174678129D01*
X144207201Y-174806164D01*
X144092667Y-174957830D01*
X144007953Y-175127957D01*
X143955942Y-175310760D01*
X143938407Y-175499999D01*
X143938407Y-175500000D01*
X143955942Y-175689239D01*
X144007953Y-175872042D01*
X144092286Y-176041403D01*
X144092667Y-176042169D01*
X144207200Y-176193834D01*
X144347651Y-176321872D01*
X144509237Y-176421922D01*
X144686456Y-176490577D01*
X144873273Y-176525500D01*
X144960015Y-176525500D01*
X144960174Y-176525500D01*
X144976359Y-176526561D01*
X145074923Y-176539537D01*
X145106190Y-176547915D01*
X145150949Y-176566454D01*
X145190468Y-176582823D01*
X145218497Y-176599005D01*
X145246565Y-176620543D01*
X145290871Y-176654541D01*
X145313758Y-176677428D01*
X145369291Y-176749798D01*
X145385477Y-176777834D01*
X145420384Y-176862109D01*
X145428762Y-176893375D01*
X145441739Y-176991939D01*
X145442800Y-177008125D01*
X145442800Y-177491874D01*
X145441739Y-177508060D01*
X145428762Y-177606624D01*
X145420384Y-177637890D01*
X145385477Y-177722165D01*
X145369291Y-177750201D01*
X145313758Y-177822571D01*
X145290871Y-177845458D01*
X145218501Y-177900991D01*
X145190465Y-177917177D01*
X145106190Y-177952084D01*
X145074924Y-177960462D01*
X144986544Y-177972098D01*
X144976358Y-177973439D01*
X144960174Y-177974500D01*
X132976426Y-177974500D01*
X132960241Y-177973439D01*
X132948508Y-177971894D01*
X132861675Y-177960462D01*
X132830409Y-177952084D01*
X132746134Y-177917177D01*
X132718100Y-177900992D01*
X132682840Y-177873936D01*
X132645728Y-177845458D01*
X132622841Y-177822571D01*
X132591212Y-177781352D01*
X132567305Y-177750197D01*
X132551123Y-177722168D01*
X132531445Y-177674660D01*
X132516215Y-177637890D01*
X132507837Y-177606623D01*
X132494861Y-177508059D01*
X132493800Y-177491874D01*
X132493800Y-177008125D01*
X132494861Y-176991940D01*
X132499228Y-176958766D01*
X134911842Y-176958766D01*
X134929576Y-176976500D01*
X137018257Y-176976500D01*
X137035990Y-176958766D01*
X138447376Y-176958766D01*
X138465110Y-176976500D01*
X140553791Y-176976500D01*
X140571525Y-176958765D01*
X141982909Y-176958765D01*
X142000644Y-176976500D01*
X143584363Y-176976500D01*
X143517809Y-176915828D01*
X143513666Y-176911872D01*
X143489157Y-176887363D01*
X143485200Y-176883219D01*
X143454129Y-176849135D01*
X143450370Y-176844816D01*
X143428234Y-176818159D01*
X143424677Y-176813668D01*
X143282347Y-176625194D01*
X143279001Y-176620543D01*
X143259410Y-176591943D01*
X143256281Y-176587141D01*
X143232002Y-176547926D01*
X143229102Y-176542991D01*
X143212243Y-176512723D01*
X143209572Y-176507656D01*
X143104301Y-176296244D01*
X143101867Y-176291058D01*
X143087867Y-176259351D01*
X143085675Y-176254059D01*
X143069013Y-176211050D01*
X143067067Y-176205661D01*
X143056054Y-176172802D01*
X143054359Y-176167330D01*
X142992336Y-175949338D01*
X141982909Y-176958765D01*
X140571525Y-176958765D01*
X139509450Y-175896691D01*
X138447376Y-176958766D01*
X137035990Y-176958766D01*
X137035991Y-176958765D01*
X135973916Y-175896691D01*
X134911842Y-176958766D01*
X132499228Y-176958766D01*
X132507837Y-176893376D01*
X132516215Y-176862109D01*
X132531445Y-176825340D01*
X132551125Y-176777828D01*
X132567303Y-176749805D01*
X132622841Y-176677427D01*
X132645728Y-176654541D01*
X132718105Y-176599003D01*
X132746128Y-176582825D01*
X132830409Y-176547915D01*
X132861675Y-176539537D01*
X132960241Y-176526561D01*
X132976426Y-176525500D01*
X133063325Y-176525500D01*
X133063327Y-176525500D01*
X133250144Y-176490577D01*
X133427363Y-176421922D01*
X133588949Y-176321872D01*
X133729400Y-176193834D01*
X133843933Y-176042169D01*
X133928647Y-175872040D01*
X133980657Y-175689242D01*
X133998193Y-175500000D01*
X133980657Y-175310758D01*
X133946583Y-175190998D01*
X136679608Y-175190998D01*
X137741683Y-176253073D01*
X138803757Y-175190999D01*
X140215142Y-175190999D01*
X141277217Y-176253073D01*
X142339292Y-175190999D01*
X141277217Y-174128924D01*
X140215142Y-175190999D01*
X138803757Y-175190999D01*
X138803758Y-175190998D01*
X137931093Y-174318333D01*
X137915494Y-174314830D01*
X137912540Y-174314129D01*
X137888779Y-174308178D01*
X137885838Y-174307403D01*
X137868089Y-174302492D01*
X137865161Y-174301643D01*
X137637902Y-174232704D01*
X136679608Y-175190998D01*
X133946583Y-175190998D01*
X133928647Y-175127960D01*
X133928206Y-175127075D01*
X133844314Y-174958597D01*
X133843933Y-174957831D01*
X133729400Y-174806166D01*
X133716426Y-174794339D01*
X133588950Y-174678129D01*
X133588949Y-174678128D01*
X133427363Y-174578078D01*
X133427361Y-174578077D01*
X133427357Y-174578075D01*
X133339978Y-174544225D01*
X133250144Y-174509423D01*
X133063327Y-174474500D01*
X133063325Y-174474500D01*
X132905412Y-174474500D01*
X132894606Y-174474028D01*
X132875883Y-174472390D01*
X132741589Y-174460640D01*
X132720303Y-174456887D01*
X132577175Y-174418536D01*
X132556870Y-174411146D01*
X132422573Y-174348522D01*
X132403866Y-174337721D01*
X132282485Y-174252728D01*
X132265928Y-174238835D01*
X132161164Y-174134071D01*
X132147271Y-174117514D01*
X132062278Y-173996133D01*
X132051479Y-173977430D01*
X131988851Y-173843123D01*
X131981463Y-173822824D01*
X131977513Y-173808084D01*
X131943111Y-173679695D01*
X131939359Y-173658409D01*
X131925972Y-173505394D01*
X131925500Y-173494587D01*
X131925500Y-173423231D01*
X134911841Y-173423231D01*
X135973916Y-174485306D01*
X136651138Y-173808084D01*
X136573776Y-173766733D01*
X136571108Y-173765265D01*
X136555089Y-173756190D01*
X136552459Y-173754657D01*
X136531448Y-173742063D01*
X136528859Y-173740468D01*
X136513309Y-173730621D01*
X136510758Y-173728961D01*
X136173385Y-173503536D01*
X142063214Y-173503536D01*
X143044984Y-174485306D01*
X144107059Y-173423232D01*
X145518443Y-173423232D01*
X145571711Y-173476500D01*
X147589325Y-173476500D01*
X147642593Y-173423232D01*
X149053977Y-173423232D01*
X149272101Y-173641356D01*
X149309392Y-173655803D01*
X149314685Y-173657996D01*
X149346407Y-173672003D01*
X149351596Y-173674439D01*
X149392882Y-173694999D01*
X149397950Y-173697671D01*
X149428209Y-173714527D01*
X149433143Y-173717426D01*
X149633938Y-173841753D01*
X149638736Y-173844880D01*
X149667333Y-173864469D01*
X149671986Y-173867816D01*
X149708791Y-173895611D01*
X149713280Y-173899167D01*
X149739937Y-173921303D01*
X149744257Y-173925063D01*
X149918791Y-174084172D01*
X149922934Y-174088128D01*
X149947443Y-174112637D01*
X149951400Y-174116781D01*
X149982471Y-174150865D01*
X149986230Y-174155184D01*
X150008366Y-174181841D01*
X150011923Y-174186332D01*
X150154253Y-174374806D01*
X150157599Y-174379457D01*
X150177190Y-174408057D01*
X150180319Y-174412859D01*
X150183446Y-174417911D01*
X150645038Y-173956319D01*
X156658132Y-173956319D01*
X157187120Y-174485307D01*
X158249195Y-173423232D01*
X159660579Y-173423232D01*
X159818891Y-173581544D01*
X159847435Y-173570487D01*
X159852820Y-173568543D01*
X159885661Y-173557535D01*
X159891131Y-173555841D01*
X159935489Y-173543218D01*
X159941035Y-173541777D01*
X159974786Y-173533838D01*
X159980394Y-173532655D01*
X160212555Y-173489256D01*
X160218209Y-173488334D01*
X160252533Y-173483546D01*
X160258222Y-173482886D01*
X160304148Y-173478630D01*
X160309862Y-173478233D01*
X160344483Y-173476632D01*
X160350211Y-173476500D01*
X160443866Y-173476500D01*
X160676459Y-173464308D01*
X160880653Y-173431968D01*
X161080344Y-173378461D01*
X161273351Y-173304373D01*
X161457574Y-173210507D01*
X161526950Y-173165453D01*
X160722654Y-172361157D01*
X159660579Y-173423232D01*
X158249195Y-173423232D01*
X157912261Y-173086298D01*
X157860513Y-173138046D01*
X157858334Y-173140173D01*
X157844984Y-173152883D01*
X157842750Y-173154958D01*
X157824598Y-173171408D01*
X157822318Y-173173423D01*
X157808397Y-173185430D01*
X157806074Y-173187385D01*
X157482703Y-173452769D01*
X157480330Y-173454668D01*
X157465831Y-173465984D01*
X157463410Y-173467827D01*
X157443734Y-173482421D01*
X157441262Y-173484207D01*
X157426198Y-173494816D01*
X157423690Y-173496537D01*
X157075842Y-173728961D01*
X157073291Y-173730621D01*
X157057741Y-173740468D01*
X157055152Y-173742063D01*
X157034141Y-173754657D01*
X157031511Y-173756190D01*
X157015492Y-173765265D01*
X157012824Y-173766733D01*
X156658132Y-173956319D01*
X150645038Y-173956319D01*
X151178126Y-173423231D01*
X150116052Y-172361157D01*
X149053977Y-173423232D01*
X147642593Y-173423232D01*
X146580518Y-172361157D01*
X145518443Y-173423232D01*
X144107059Y-173423232D01*
X143133001Y-172449174D01*
X143122968Y-172462030D01*
X143121069Y-172464403D01*
X142855685Y-172787774D01*
X142853730Y-172790097D01*
X142841723Y-172804018D01*
X142839708Y-172806298D01*
X142823258Y-172824450D01*
X142821183Y-172826684D01*
X142808473Y-172840034D01*
X142806346Y-172842213D01*
X142510513Y-173138046D01*
X142508334Y-173140173D01*
X142494984Y-173152883D01*
X142492750Y-173154958D01*
X142474598Y-173171408D01*
X142472318Y-173173423D01*
X142458397Y-173185430D01*
X142456074Y-173187385D01*
X142132703Y-173452769D01*
X142130330Y-173454668D01*
X142115831Y-173465984D01*
X142113410Y-173467827D01*
X142093734Y-173482421D01*
X142091262Y-173484207D01*
X142076198Y-173494816D01*
X142073689Y-173496538D01*
X142063214Y-173503536D01*
X136173385Y-173503536D01*
X136162910Y-173496537D01*
X136160402Y-173494816D01*
X136145338Y-173484207D01*
X136142866Y-173482421D01*
X136123190Y-173467827D01*
X136120769Y-173465984D01*
X136106270Y-173454668D01*
X136103897Y-173452769D01*
X135780526Y-173187385D01*
X135778203Y-173185430D01*
X135764282Y-173173423D01*
X135762002Y-173171408D01*
X135743850Y-173154958D01*
X135741616Y-173152883D01*
X135728266Y-173140173D01*
X135726087Y-173138046D01*
X135461557Y-172873516D01*
X134911841Y-173423231D01*
X131925500Y-173423231D01*
X131925500Y-171655465D01*
X133144075Y-171655465D01*
X134206149Y-172717539D01*
X134850076Y-172073612D01*
X134839339Y-172057542D01*
X134837679Y-172054991D01*
X134827832Y-172039441D01*
X134826237Y-172036852D01*
X134813643Y-172015841D01*
X134812110Y-172013211D01*
X134803035Y-171997192D01*
X134801567Y-171994524D01*
X134604356Y-171625569D01*
X134602954Y-171622866D01*
X134594672Y-171606412D01*
X134593336Y-171603676D01*
X134582863Y-171581531D01*
X134581596Y-171578765D01*
X134574141Y-171561946D01*
X134572943Y-171559151D01*
X134412851Y-171172656D01*
X134411721Y-171169830D01*
X134405097Y-171152658D01*
X134404036Y-171149805D01*
X134395783Y-171126739D01*
X134394794Y-171123864D01*
X134389018Y-171106381D01*
X134388098Y-171103477D01*
X134266657Y-170703139D01*
X134265808Y-170700211D01*
X134260897Y-170682462D01*
X134260122Y-170679521D01*
X134254171Y-170655760D01*
X134253470Y-170652806D01*
X134249966Y-170637206D01*
X134206150Y-170593390D01*
X133144075Y-171655465D01*
X131925500Y-171655465D01*
X131925500Y-169253075D01*
X135109800Y-169253075D01*
X135109800Y-169646925D01*
X135117880Y-169728961D01*
X135148402Y-170038867D01*
X135148405Y-170038884D01*
X135225239Y-170425155D01*
X135339569Y-170802053D01*
X135404095Y-170957831D01*
X135483705Y-171150027D01*
X135490290Y-171165923D01*
X135490292Y-171165928D01*
X135675942Y-171513254D01*
X135675953Y-171513272D01*
X135894754Y-171840731D01*
X135894764Y-171840745D01*
X136144620Y-172145195D01*
X136423104Y-172423679D01*
X136423109Y-172423683D01*
X136423110Y-172423684D01*
X136727560Y-172673540D01*
X137055034Y-172892351D01*
X137055043Y-172892356D01*
X137055045Y-172892357D01*
X137402371Y-173078007D01*
X137402373Y-173078007D01*
X137402379Y-173078011D01*
X137766248Y-173228731D01*
X138143139Y-173343059D01*
X138529422Y-173419896D01*
X138921375Y-173458500D01*
X138921378Y-173458500D01*
X139315222Y-173458500D01*
X139315225Y-173458500D01*
X139707178Y-173419896D01*
X140093461Y-173343059D01*
X140470352Y-173228731D01*
X140834221Y-173078011D01*
X141181566Y-172892351D01*
X141509040Y-172673540D01*
X141813490Y-172423684D01*
X142091984Y-172145190D01*
X142341840Y-171840740D01*
X142465637Y-171655465D01*
X143750676Y-171655465D01*
X144812751Y-172717539D01*
X145874826Y-171655465D01*
X147286210Y-171655465D01*
X148348285Y-172717540D01*
X149410360Y-171655465D01*
X148348285Y-170593390D01*
X147286210Y-171655465D01*
X145874826Y-171655465D01*
X144812751Y-170593390D01*
X143750676Y-171655465D01*
X142465637Y-171655465D01*
X142560651Y-171513266D01*
X142746311Y-171165921D01*
X142897031Y-170802052D01*
X143011359Y-170425161D01*
X143088196Y-170038878D01*
X143103086Y-169887698D01*
X145518443Y-169887698D01*
X146580518Y-170949773D01*
X147642593Y-169887698D01*
X146580518Y-168825623D01*
X145518443Y-169887698D01*
X143103086Y-169887698D01*
X143126800Y-169646925D01*
X143126800Y-169253075D01*
X143088196Y-168861122D01*
X143011359Y-168474839D01*
X142897031Y-168097948D01*
X142843868Y-167969602D01*
X143901004Y-167969602D01*
X143969943Y-168196861D01*
X143970792Y-168199789D01*
X143975703Y-168217538D01*
X143976478Y-168220479D01*
X143982429Y-168244240D01*
X143983130Y-168247194D01*
X143987162Y-168265147D01*
X143987793Y-168268128D01*
X144009871Y-168379125D01*
X144812751Y-169182005D01*
X145874826Y-168119931D01*
X147286210Y-168119931D01*
X148348285Y-169182006D01*
X149410360Y-168119931D01*
X148348285Y-167057856D01*
X147286210Y-168119931D01*
X145874826Y-168119931D01*
X144812751Y-167057856D01*
X143901004Y-167969602D01*
X142843868Y-167969602D01*
X142746311Y-167734079D01*
X142722812Y-167690116D01*
X142560657Y-167386745D01*
X142560656Y-167386743D01*
X142560651Y-167386734D01*
X142341840Y-167059260D01*
X142091984Y-166754810D01*
X142091983Y-166754809D01*
X142091979Y-166754804D01*
X141813495Y-166476320D01*
X141509045Y-166226464D01*
X141509044Y-166226463D01*
X141509040Y-166226460D01*
X141181566Y-166007649D01*
X141181561Y-166007646D01*
X141181554Y-166007642D01*
X140834228Y-165821992D01*
X140834223Y-165821990D01*
X140795989Y-165806153D01*
X140764856Y-165793257D01*
X142541816Y-165793257D01*
X142806346Y-166057787D01*
X142808473Y-166059966D01*
X142821183Y-166073316D01*
X142823258Y-166075550D01*
X142839708Y-166093702D01*
X142841723Y-166095982D01*
X142853730Y-166109903D01*
X142855685Y-166112226D01*
X143121069Y-166435597D01*
X143122968Y-166437970D01*
X143134284Y-166452469D01*
X143136127Y-166454890D01*
X143150721Y-166474566D01*
X143152507Y-166477038D01*
X143163116Y-166492102D01*
X143164837Y-166494610D01*
X143397261Y-166842458D01*
X143398921Y-166845009D01*
X143408768Y-166860559D01*
X143410363Y-166863148D01*
X143422957Y-166884159D01*
X143424490Y-166886789D01*
X143433565Y-166902808D01*
X143435033Y-166905476D01*
X143476384Y-166982838D01*
X144107057Y-166352164D01*
X145518443Y-166352164D01*
X146580518Y-167414239D01*
X147642593Y-166352164D01*
X147233609Y-165943180D01*
X146481919Y-165696540D01*
X146477280Y-165694916D01*
X146257561Y-165613045D01*
X145518443Y-166352164D01*
X144107057Y-166352164D01*
X144107058Y-166352163D01*
X143044983Y-165290089D01*
X142541816Y-165793257D01*
X140764856Y-165793257D01*
X140671668Y-165754657D01*
X140470353Y-165671269D01*
X140093455Y-165556939D01*
X139707184Y-165480105D01*
X139707167Y-165480102D01*
X139410769Y-165450910D01*
X139315225Y-165441500D01*
X138921375Y-165441500D01*
X138833011Y-165450203D01*
X138529432Y-165480102D01*
X138529415Y-165480105D01*
X138143144Y-165556939D01*
X137766246Y-165671269D01*
X137402376Y-165821990D01*
X137402371Y-165821992D01*
X137055045Y-166007642D01*
X137055027Y-166007653D01*
X136727568Y-166226454D01*
X136727554Y-166226464D01*
X136423104Y-166476320D01*
X136144620Y-166754804D01*
X135894764Y-167059254D01*
X135894754Y-167059268D01*
X135675953Y-167386727D01*
X135675942Y-167386745D01*
X135490292Y-167734071D01*
X135490290Y-167734076D01*
X135339569Y-168097946D01*
X135225239Y-168474844D01*
X135148405Y-168861115D01*
X135148402Y-168861132D01*
X135118503Y-169164711D01*
X135109800Y-169253075D01*
X131925500Y-169253075D01*
X131925500Y-168119931D01*
X133144075Y-168119931D01*
X134122235Y-169098091D01*
X134156412Y-168751090D01*
X134156749Y-168748057D01*
X134159009Y-168729743D01*
X134159419Y-168726723D01*
X134163016Y-168702491D01*
X134163499Y-168699491D01*
X134166640Y-168681396D01*
X134167196Y-168678412D01*
X134248807Y-168268128D01*
X134249438Y-168265147D01*
X134253470Y-168247194D01*
X134254171Y-168244240D01*
X134260122Y-168220479D01*
X134260897Y-168217538D01*
X134265808Y-168199789D01*
X134266657Y-168196861D01*
X134388098Y-167796523D01*
X134389018Y-167793619D01*
X134394794Y-167776136D01*
X134395783Y-167773261D01*
X134404036Y-167750195D01*
X134405097Y-167747342D01*
X134411721Y-167730170D01*
X134412851Y-167727344D01*
X134548398Y-167400104D01*
X134206150Y-167057856D01*
X133144075Y-168119931D01*
X131925500Y-168119931D01*
X131925500Y-167410282D01*
X131925500Y-167410280D01*
X131894340Y-167233567D01*
X131832969Y-167064950D01*
X131743249Y-166909551D01*
X131660492Y-166810924D01*
X131627908Y-166772091D01*
X131490450Y-166656752D01*
X131490449Y-166656751D01*
X131354184Y-166578078D01*
X131335054Y-166567033D01*
X131335051Y-166567032D01*
X131335050Y-166567031D01*
X131166433Y-166505660D01*
X130989720Y-166474500D01*
X130910562Y-166474500D01*
X126976585Y-166474500D01*
X126968300Y-166474500D01*
X126873273Y-166474500D01*
X126686456Y-166509423D01*
X126509242Y-166578075D01*
X126509238Y-166578077D01*
X126347649Y-166678129D01*
X126207201Y-166806164D01*
X126092667Y-166957830D01*
X126007953Y-167127957D01*
X125955942Y-167310760D01*
X125938407Y-167499999D01*
X125938407Y-167500000D01*
X125955942Y-167689239D01*
X126007953Y-167872042D01*
X126079557Y-168015841D01*
X126092667Y-168042169D01*
X126207200Y-168193834D01*
X126347651Y-168321872D01*
X126509237Y-168421922D01*
X126509241Y-168421923D01*
X126509242Y-168421924D01*
X126513772Y-168423679D01*
X126686456Y-168490577D01*
X126873273Y-168525500D01*
X126960015Y-168525500D01*
X126960174Y-168525500D01*
X126976359Y-168526561D01*
X127074923Y-168539537D01*
X127106190Y-168547915D01*
X127150949Y-168566454D01*
X127190468Y-168582823D01*
X127218497Y-168599005D01*
X127246565Y-168620543D01*
X127290871Y-168654541D01*
X127313758Y-168677428D01*
X127369291Y-168749798D01*
X127385477Y-168777834D01*
X127420384Y-168862109D01*
X127428762Y-168893375D01*
X127441739Y-168991939D01*
X127442800Y-169008125D01*
X127442800Y-169491874D01*
X127441739Y-169508060D01*
X127428762Y-169606624D01*
X127420384Y-169637890D01*
X127385477Y-169722165D01*
X127369291Y-169750201D01*
X127313758Y-169822571D01*
X127290871Y-169845458D01*
X127218501Y-169900991D01*
X127190465Y-169917177D01*
X127106190Y-169952084D01*
X127074924Y-169960462D01*
X126986544Y-169972098D01*
X126976358Y-169973439D01*
X126960174Y-169974500D01*
X114976426Y-169974500D01*
X114960241Y-169973439D01*
X114948508Y-169971894D01*
X114861675Y-169960462D01*
X114830409Y-169952084D01*
X114746134Y-169917177D01*
X114718100Y-169900992D01*
X114682840Y-169873936D01*
X114645728Y-169845458D01*
X114622841Y-169822571D01*
X114579764Y-169766433D01*
X114567305Y-169750197D01*
X114551123Y-169722168D01*
X114524543Y-169657996D01*
X114516215Y-169637890D01*
X114507837Y-169606623D01*
X114494861Y-169508059D01*
X114493800Y-169491874D01*
X114493800Y-169008125D01*
X114494861Y-168991940D01*
X114496894Y-168976500D01*
X116352237Y-168976500D01*
X116733986Y-168976500D01*
X117590555Y-168119931D01*
X119001939Y-168119931D01*
X119858508Y-168976500D01*
X120269520Y-168976500D01*
X121126089Y-168119931D01*
X122537473Y-168119931D01*
X123394042Y-168976500D01*
X123805054Y-168976500D01*
X124661623Y-168119931D01*
X123599548Y-167057856D01*
X122537473Y-168119931D01*
X121126089Y-168119931D01*
X120064014Y-167057856D01*
X119001939Y-168119931D01*
X117590555Y-168119931D01*
X116996136Y-167525512D01*
X116996061Y-167528789D01*
X116994460Y-167563409D01*
X116994063Y-167569122D01*
X116972271Y-167804293D01*
X116971611Y-167809983D01*
X116966822Y-167844315D01*
X116965899Y-167849973D01*
X116957423Y-167895308D01*
X116956241Y-167900909D01*
X116948309Y-167934634D01*
X116946870Y-167940177D01*
X116882241Y-168167330D01*
X116880546Y-168172802D01*
X116869533Y-168205661D01*
X116867587Y-168211050D01*
X116850925Y-168254059D01*
X116848733Y-168259351D01*
X116834733Y-168291058D01*
X116832299Y-168296244D01*
X116727028Y-168507656D01*
X116724357Y-168512723D01*
X116707498Y-168542991D01*
X116704598Y-168547926D01*
X116680319Y-168587141D01*
X116677190Y-168591943D01*
X116657599Y-168620543D01*
X116654253Y-168625194D01*
X116511923Y-168813668D01*
X116508366Y-168818159D01*
X116486230Y-168844816D01*
X116482471Y-168849135D01*
X116451400Y-168883219D01*
X116447443Y-168887363D01*
X116422934Y-168911872D01*
X116418791Y-168915828D01*
X116352237Y-168976500D01*
X114496894Y-168976500D01*
X114507837Y-168893376D01*
X114516215Y-168862109D01*
X114531445Y-168825340D01*
X114551125Y-168777828D01*
X114567303Y-168749805D01*
X114622841Y-168677427D01*
X114645728Y-168654541D01*
X114663466Y-168640930D01*
X114718105Y-168599003D01*
X114746128Y-168582825D01*
X114830409Y-168547915D01*
X114861675Y-168539537D01*
X114960241Y-168526561D01*
X114976426Y-168525500D01*
X115063325Y-168525500D01*
X115063327Y-168525500D01*
X115250144Y-168490577D01*
X115427363Y-168421922D01*
X115588949Y-168321872D01*
X115729400Y-168193834D01*
X115843933Y-168042169D01*
X115928647Y-167872040D01*
X115980657Y-167689242D01*
X115998193Y-167500000D01*
X115980657Y-167310758D01*
X115928647Y-167127960D01*
X115928206Y-167127075D01*
X115844314Y-166958597D01*
X115843933Y-166957831D01*
X115729400Y-166806166D01*
X115716426Y-166794339D01*
X115617062Y-166703756D01*
X115588949Y-166678128D01*
X115427363Y-166578078D01*
X115427361Y-166578077D01*
X115427357Y-166578075D01*
X115339978Y-166544225D01*
X115250144Y-166509423D01*
X115063327Y-166474500D01*
X115063325Y-166474500D01*
X114972367Y-166474500D01*
X114964257Y-166474235D01*
X114718679Y-166458139D01*
X114702598Y-166456021D01*
X114465235Y-166408806D01*
X114449568Y-166404608D01*
X114295073Y-166352164D01*
X117234172Y-166352164D01*
X118296247Y-167414239D01*
X119253986Y-166456500D01*
X120874042Y-166456500D01*
X121831781Y-167414239D01*
X122893856Y-166352164D01*
X124305240Y-166352164D01*
X124994861Y-167041785D01*
X125054359Y-166832670D01*
X125056054Y-166827198D01*
X125067067Y-166794339D01*
X125069013Y-166788950D01*
X125085675Y-166745941D01*
X125087867Y-166740649D01*
X125101867Y-166708942D01*
X125104301Y-166703756D01*
X125209572Y-166492344D01*
X125212243Y-166487277D01*
X125229102Y-166457009D01*
X125232002Y-166452074D01*
X125256281Y-166412859D01*
X125259410Y-166408057D01*
X125279001Y-166379457D01*
X125282347Y-166374806D01*
X125424677Y-166186332D01*
X125428234Y-166181841D01*
X125450370Y-166155184D01*
X125454129Y-166150865D01*
X125485200Y-166116781D01*
X125489157Y-166112637D01*
X125513666Y-166088128D01*
X125517809Y-166084172D01*
X125692343Y-165925063D01*
X125696663Y-165921303D01*
X125723320Y-165899167D01*
X125727809Y-165895611D01*
X125764614Y-165867816D01*
X125769267Y-165864469D01*
X125797864Y-165844880D01*
X125802662Y-165841753D01*
X125874499Y-165797273D01*
X125850124Y-165772898D01*
X131955572Y-165772898D01*
X132008309Y-165803346D01*
X132012935Y-165806153D01*
X132040536Y-165823737D01*
X132045034Y-165826743D01*
X132080713Y-165851726D01*
X132085074Y-165854923D01*
X132111043Y-165874849D01*
X132115263Y-165878236D01*
X132286091Y-166021576D01*
X132290157Y-166025142D01*
X132314290Y-166047255D01*
X132318200Y-166050998D01*
X132349002Y-166081800D01*
X132352745Y-166085710D01*
X132374858Y-166109843D01*
X132378424Y-166113909D01*
X132521764Y-166284737D01*
X132525151Y-166288957D01*
X132545077Y-166314926D01*
X132548274Y-166319287D01*
X132573257Y-166354966D01*
X132576263Y-166359464D01*
X132593847Y-166387065D01*
X132596654Y-166391691D01*
X132708151Y-166584810D01*
X132710753Y-166589553D01*
X132725864Y-166618581D01*
X132728257Y-166623432D01*
X132746666Y-166662909D01*
X132748845Y-166667861D01*
X132761372Y-166698103D01*
X132763333Y-166703147D01*
X132839605Y-166912704D01*
X132841344Y-166917827D01*
X132851191Y-166949058D01*
X132852707Y-166954259D01*
X132862353Y-166990267D01*
X133500457Y-166352163D01*
X132438382Y-165290089D01*
X131955572Y-165772898D01*
X125850124Y-165772898D01*
X125367315Y-165290089D01*
X124305240Y-166352164D01*
X122893856Y-166352164D01*
X122695329Y-166153637D01*
X122690957Y-166155449D01*
X122688130Y-166156579D01*
X122670958Y-166163203D01*
X122668105Y-166164264D01*
X122645039Y-166172517D01*
X122642164Y-166173506D01*
X122624681Y-166179282D01*
X122621777Y-166180202D01*
X122221439Y-166301643D01*
X122218511Y-166302492D01*
X122200762Y-166307403D01*
X122197821Y-166308178D01*
X122174060Y-166314129D01*
X122171106Y-166314830D01*
X122153153Y-166318862D01*
X122150172Y-166319493D01*
X121739888Y-166401104D01*
X121736904Y-166401660D01*
X121718809Y-166404801D01*
X121715809Y-166405284D01*
X121691577Y-166408881D01*
X121688557Y-166409291D01*
X121670243Y-166411551D01*
X121667210Y-166411888D01*
X121250864Y-166452894D01*
X121247832Y-166453155D01*
X121229490Y-166454508D01*
X121226457Y-166454694D01*
X121201989Y-166455897D01*
X121198949Y-166456010D01*
X121180530Y-166456463D01*
X121177481Y-166456500D01*
X120874042Y-166456500D01*
X119253986Y-166456500D01*
X119358322Y-166352164D01*
X119102182Y-166096024D01*
X118859149Y-165995357D01*
X118856354Y-165994159D01*
X118839535Y-165986704D01*
X118836769Y-165985437D01*
X118814624Y-165974964D01*
X118811888Y-165973628D01*
X118795434Y-165965346D01*
X118792731Y-165963944D01*
X118423776Y-165766733D01*
X118421108Y-165765265D01*
X118405089Y-165756190D01*
X118402459Y-165754657D01*
X118381448Y-165742063D01*
X118378859Y-165740468D01*
X118363309Y-165730621D01*
X118360758Y-165728961D01*
X118059001Y-165527334D01*
X117234172Y-166352164D01*
X114295073Y-166352164D01*
X114220388Y-166326812D01*
X114205402Y-166320605D01*
X114205217Y-166320514D01*
X114178631Y-166307403D01*
X113988339Y-166213561D01*
X113974292Y-166205451D01*
X113810460Y-166095982D01*
X113773056Y-166070990D01*
X113760190Y-166061117D01*
X113744383Y-166047255D01*
X113660428Y-165973628D01*
X113578228Y-165901540D01*
X113566759Y-165890071D01*
X113407182Y-165708109D01*
X113397308Y-165695241D01*
X113381290Y-165671269D01*
X113262848Y-165494007D01*
X113254738Y-165479960D01*
X113218009Y-165405481D01*
X113147691Y-165262890D01*
X113141487Y-165247911D01*
X113063691Y-165018731D01*
X113059493Y-165003064D01*
X113033808Y-164873936D01*
X113012276Y-164765690D01*
X113010161Y-164749632D01*
X112999331Y-164584397D01*
X115466405Y-164584397D01*
X116528479Y-165646471D01*
X117306496Y-164868455D01*
X117280254Y-164842213D01*
X117278127Y-164840034D01*
X117265417Y-164826684D01*
X117263342Y-164824450D01*
X117246892Y-164806298D01*
X117244877Y-164804018D01*
X117232870Y-164790097D01*
X117230915Y-164787774D01*
X116965531Y-164464403D01*
X116963632Y-164462030D01*
X116952316Y-164447531D01*
X116950473Y-164445110D01*
X116935879Y-164425434D01*
X116934093Y-164422962D01*
X116923484Y-164407898D01*
X116921763Y-164405390D01*
X116689339Y-164057542D01*
X116687679Y-164054991D01*
X116677832Y-164039441D01*
X116676237Y-164036852D01*
X116663643Y-164015841D01*
X116662110Y-164013211D01*
X116653035Y-163997192D01*
X116651567Y-163994524D01*
X116454356Y-163625569D01*
X116452954Y-163622866D01*
X116444672Y-163606412D01*
X116444579Y-163606222D01*
X115466405Y-164584397D01*
X112999331Y-164584397D01*
X112994065Y-164504043D01*
X112993800Y-164495933D01*
X112993800Y-163367248D01*
X112993800Y-163367242D01*
X112959143Y-163103997D01*
X112890422Y-162847527D01*
X112889379Y-162845009D01*
X112806829Y-162645714D01*
X113869552Y-162645714D01*
X113927364Y-162861469D01*
X113928350Y-162865406D01*
X113933923Y-162889308D01*
X113934779Y-162893272D01*
X113941152Y-162925309D01*
X113941879Y-162929307D01*
X113945877Y-162953527D01*
X113946472Y-162957537D01*
X113962683Y-163080675D01*
X114760713Y-163878705D01*
X115822787Y-162816630D01*
X114760712Y-161754555D01*
X113869552Y-162645714D01*
X112806829Y-162645714D01*
X112788818Y-162602231D01*
X112788810Y-162602214D01*
X112656059Y-162372285D01*
X112656055Y-162372278D01*
X112507856Y-162179141D01*
X112494420Y-162161631D01*
X112494414Y-162161624D01*
X112306675Y-161973885D01*
X112306668Y-161973879D01*
X112096030Y-161812251D01*
X112096028Y-161812249D01*
X112096022Y-161812245D01*
X112096017Y-161812242D01*
X112096014Y-161812240D01*
X111866085Y-161679489D01*
X111866068Y-161679481D01*
X111620777Y-161577879D01*
X111620779Y-161577879D01*
X111364301Y-161509156D01*
X111101067Y-161474501D01*
X111101064Y-161474500D01*
X111101058Y-161474500D01*
X110978862Y-161474500D01*
X108976585Y-161474500D01*
X108968300Y-161474500D01*
X108873273Y-161474500D01*
X108686456Y-161509423D01*
X108509242Y-161578075D01*
X108509238Y-161578077D01*
X108347649Y-161678129D01*
X108207201Y-161806164D01*
X108092667Y-161957830D01*
X108007953Y-162127957D01*
X107955942Y-162310760D01*
X107938407Y-162499999D01*
X107938407Y-162500000D01*
X107955942Y-162689239D01*
X108007953Y-162872042D01*
X108050525Y-162957537D01*
X108092667Y-163042169D01*
X108207200Y-163193834D01*
X108347651Y-163321872D01*
X108509237Y-163421922D01*
X108686456Y-163490577D01*
X108873273Y-163525500D01*
X108960015Y-163525500D01*
X108960174Y-163525500D01*
X108976359Y-163526561D01*
X109074923Y-163539537D01*
X109106190Y-163547915D01*
X109133317Y-163559151D01*
X109190468Y-163582823D01*
X109218497Y-163599005D01*
X109249592Y-163622866D01*
X109290871Y-163654541D01*
X109313758Y-163677428D01*
X109369291Y-163749798D01*
X109385477Y-163777834D01*
X109420384Y-163862109D01*
X109428762Y-163893375D01*
X109441739Y-163991939D01*
X109442800Y-164008125D01*
X109442800Y-164491874D01*
X109441739Y-164508060D01*
X109428762Y-164606624D01*
X109420384Y-164637890D01*
X109385477Y-164722165D01*
X109369291Y-164750201D01*
X109313758Y-164822571D01*
X109290871Y-164845458D01*
X109218501Y-164900991D01*
X109190465Y-164917177D01*
X109106190Y-164952084D01*
X109074924Y-164960462D01*
X108986544Y-164972098D01*
X108976358Y-164973439D01*
X108960174Y-164974500D01*
X96976426Y-164974500D01*
X96960241Y-164973439D01*
X96948508Y-164971894D01*
X96861675Y-164960462D01*
X96830409Y-164952084D01*
X96746134Y-164917177D01*
X96718100Y-164900992D01*
X96675697Y-164868455D01*
X96645728Y-164845458D01*
X96622841Y-164822571D01*
X96573081Y-164757724D01*
X96567305Y-164750197D01*
X96551123Y-164722168D01*
X96530979Y-164673535D01*
X96516215Y-164637890D01*
X96507837Y-164606623D01*
X96494861Y-164508059D01*
X96493800Y-164491874D01*
X96493800Y-164008125D01*
X96494861Y-163991940D01*
X96507837Y-163893376D01*
X96516215Y-163862109D01*
X96531445Y-163825340D01*
X96551125Y-163777828D01*
X96567303Y-163749805D01*
X96622841Y-163677427D01*
X96645728Y-163654541D01*
X96718105Y-163599003D01*
X96746128Y-163582825D01*
X96830409Y-163547915D01*
X96861675Y-163539537D01*
X96960241Y-163526561D01*
X96976426Y-163525500D01*
X97063325Y-163525500D01*
X97063327Y-163525500D01*
X97250144Y-163490577D01*
X97427363Y-163421922D01*
X97588949Y-163321872D01*
X97729400Y-163193834D01*
X97843933Y-163042169D01*
X97928647Y-162872040D01*
X97944412Y-162816630D01*
X99556503Y-162816630D01*
X100618577Y-163878704D01*
X101680652Y-162816630D01*
X103092036Y-162816630D01*
X104154111Y-163878704D01*
X105216185Y-162816630D01*
X104154111Y-161754555D01*
X103092036Y-162816630D01*
X101680652Y-162816630D01*
X100618577Y-161754555D01*
X99556503Y-162816630D01*
X97944412Y-162816630D01*
X97980657Y-162689242D01*
X97998193Y-162500000D01*
X97980657Y-162310758D01*
X97928647Y-162127960D01*
X97928206Y-162127075D01*
X97886639Y-162043597D01*
X97843933Y-161957831D01*
X97729400Y-161806166D01*
X97716426Y-161794339D01*
X97588950Y-161678129D01*
X97588949Y-161678128D01*
X97427363Y-161578078D01*
X97427361Y-161578077D01*
X97427357Y-161578075D01*
X97331989Y-161541130D01*
X97250144Y-161509423D01*
X97063327Y-161474500D01*
X96978862Y-161474500D01*
X96476585Y-161474500D01*
X96468300Y-161474500D01*
X96335542Y-161474500D01*
X96335536Y-161474500D01*
X96335532Y-161474501D01*
X96072298Y-161509156D01*
X95815821Y-161577879D01*
X95570531Y-161679481D01*
X95570514Y-161679489D01*
X95340585Y-161812240D01*
X95340569Y-161812251D01*
X95129931Y-161973879D01*
X95129924Y-161973885D01*
X94942185Y-162161624D01*
X94942179Y-162161631D01*
X94780551Y-162372269D01*
X94780540Y-162372285D01*
X94647789Y-162602214D01*
X94647781Y-162602231D01*
X94546179Y-162847521D01*
X94477456Y-163103998D01*
X94442801Y-163367232D01*
X94442800Y-163367248D01*
X94442800Y-169494587D01*
X94442328Y-169505395D01*
X94428940Y-169658410D01*
X94425187Y-169679696D01*
X94386836Y-169822824D01*
X94379444Y-169843133D01*
X94316824Y-169977421D01*
X94306021Y-169996133D01*
X94221028Y-170117514D01*
X94207135Y-170134071D01*
X94102371Y-170238835D01*
X94085814Y-170252728D01*
X93964433Y-170337721D01*
X93945721Y-170348524D01*
X93818054Y-170408057D01*
X93811434Y-170411144D01*
X93791124Y-170418536D01*
X93647996Y-170456887D01*
X93626710Y-170460640D01*
X93490506Y-170472557D01*
X93473693Y-170474028D01*
X93462888Y-170474500D01*
X93373273Y-170474500D01*
X93186456Y-170509423D01*
X93009242Y-170578075D01*
X93009238Y-170578077D01*
X92847649Y-170678129D01*
X92707201Y-170806164D01*
X92592667Y-170957830D01*
X92507953Y-171127957D01*
X92455942Y-171310760D01*
X92438407Y-171499999D01*
X92438407Y-171500000D01*
X92455942Y-171689239D01*
X92507953Y-171872042D01*
X92579557Y-172015841D01*
X92592667Y-172042169D01*
X92707200Y-172193834D01*
X92847651Y-172321872D01*
X93009237Y-172421922D01*
X93186456Y-172490577D01*
X93373273Y-172525500D01*
X93460015Y-172525500D01*
X93460174Y-172525500D01*
X93476359Y-172526561D01*
X93574923Y-172539537D01*
X93606190Y-172547915D01*
X93650949Y-172566454D01*
X93690468Y-172582823D01*
X93718497Y-172599005D01*
X93746565Y-172620543D01*
X93790871Y-172654541D01*
X93813758Y-172677428D01*
X93869291Y-172749798D01*
X93885477Y-172777834D01*
X93920384Y-172862109D01*
X93928762Y-172893375D01*
X93935005Y-172940790D01*
X93941121Y-172987250D01*
X93941739Y-172991939D01*
X93942800Y-173008125D01*
X93942800Y-173491874D01*
X93941739Y-173508060D01*
X93928762Y-173606624D01*
X93920384Y-173637890D01*
X93885477Y-173722165D01*
X93869291Y-173750201D01*
X93813758Y-173822571D01*
X93790871Y-173845458D01*
X93718501Y-173900991D01*
X93690465Y-173917177D01*
X93606190Y-173952084D01*
X93574924Y-173960462D01*
X93486544Y-173972098D01*
X93476358Y-173973439D01*
X93460174Y-173974500D01*
X81476426Y-173974500D01*
X81460241Y-173973439D01*
X81448508Y-173971894D01*
X81361675Y-173960462D01*
X81330409Y-173952084D01*
X81246134Y-173917177D01*
X81218100Y-173900992D01*
X81182840Y-173873936D01*
X81145728Y-173845458D01*
X81122841Y-173822571D01*
X81079764Y-173766433D01*
X81067305Y-173750197D01*
X81051123Y-173722168D01*
X81024543Y-173657996D01*
X81016215Y-173637890D01*
X81007837Y-173606623D01*
X80994861Y-173508059D01*
X80993800Y-173491874D01*
X80993800Y-173008125D01*
X80994861Y-172991940D01*
X80995190Y-172989438D01*
X81007837Y-172893375D01*
X81016215Y-172862109D01*
X81031445Y-172825340D01*
X81051125Y-172777828D01*
X81067303Y-172749805D01*
X81122841Y-172677427D01*
X81145728Y-172654541D01*
X81218105Y-172599003D01*
X81246128Y-172582825D01*
X81330409Y-172547915D01*
X81361675Y-172539537D01*
X81460241Y-172526561D01*
X81476426Y-172525500D01*
X81563325Y-172525500D01*
X81563327Y-172525500D01*
X81750144Y-172490577D01*
X81927363Y-172421922D01*
X82088949Y-172321872D01*
X82229400Y-172193834D01*
X82343933Y-172042169D01*
X82428647Y-171872040D01*
X82480657Y-171689242D01*
X82483787Y-171655465D01*
X83646600Y-171655465D01*
X84708675Y-172717540D01*
X85770750Y-171655465D01*
X87182134Y-171655465D01*
X88244209Y-172717540D01*
X89306284Y-171655465D01*
X90717668Y-171655465D01*
X91779742Y-172717539D01*
X91820958Y-172676323D01*
X91782347Y-172625194D01*
X91779001Y-172620543D01*
X91759410Y-172591943D01*
X91756281Y-172587141D01*
X91732002Y-172547926D01*
X91729102Y-172542991D01*
X91712243Y-172512723D01*
X91709572Y-172507656D01*
X91604301Y-172296244D01*
X91601867Y-172291058D01*
X91587867Y-172259351D01*
X91585675Y-172254059D01*
X91569013Y-172211050D01*
X91567067Y-172205661D01*
X91556054Y-172172802D01*
X91554359Y-172167330D01*
X91489730Y-171940177D01*
X91488291Y-171934634D01*
X91480359Y-171900909D01*
X91479177Y-171895308D01*
X91470701Y-171849973D01*
X91469778Y-171844315D01*
X91464989Y-171809983D01*
X91464329Y-171804293D01*
X91442537Y-171569122D01*
X91442140Y-171563409D01*
X91440539Y-171528789D01*
X91440407Y-171523061D01*
X91440407Y-171476939D01*
X91440539Y-171471211D01*
X91442140Y-171436591D01*
X91442537Y-171430878D01*
X91464329Y-171195707D01*
X91464989Y-171190017D01*
X91469778Y-171155685D01*
X91470701Y-171150027D01*
X91479177Y-171104692D01*
X91480359Y-171099091D01*
X91488291Y-171065366D01*
X91489730Y-171059823D01*
X91554359Y-170832670D01*
X91556054Y-170827198D01*
X91561155Y-170811977D01*
X90717668Y-171655465D01*
X89306284Y-171655465D01*
X88244209Y-170593390D01*
X87182134Y-171655465D01*
X85770750Y-171655465D01*
X84708675Y-170593390D01*
X83646600Y-171655465D01*
X82483787Y-171655465D01*
X82498193Y-171500000D01*
X82497214Y-171489440D01*
X82480657Y-171310760D01*
X82480657Y-171310758D01*
X82428647Y-171127960D01*
X82428206Y-171127075D01*
X82355685Y-170981433D01*
X82343933Y-170957831D01*
X82229400Y-170806166D01*
X82088949Y-170678128D01*
X81927363Y-170578078D01*
X81927361Y-170578077D01*
X81927357Y-170578075D01*
X81839978Y-170544225D01*
X81750144Y-170509423D01*
X81563327Y-170474500D01*
X81478862Y-170474500D01*
X80476585Y-170474500D01*
X80468300Y-170474500D01*
X80378580Y-170474500D01*
X80378579Y-170474500D01*
X80201866Y-170505660D01*
X80033252Y-170567030D01*
X80033245Y-170567033D01*
X79877852Y-170656750D01*
X79877849Y-170656752D01*
X79740391Y-170772091D01*
X79625052Y-170909548D01*
X79611387Y-170933218D01*
X79560819Y-170981433D01*
X79492212Y-170994655D01*
X79427348Y-170968687D01*
X79386820Y-170911773D01*
X79380000Y-170871217D01*
X79380000Y-169600330D01*
X82166199Y-169600330D01*
X82309392Y-169655803D01*
X82314685Y-169657996D01*
X82346407Y-169672003D01*
X82351596Y-169674439D01*
X82392882Y-169694999D01*
X82397950Y-169697671D01*
X82428209Y-169714527D01*
X82433143Y-169717426D01*
X82633938Y-169841753D01*
X82638736Y-169844880D01*
X82667333Y-169864469D01*
X82671986Y-169867816D01*
X82708791Y-169895611D01*
X82713280Y-169899167D01*
X82739937Y-169921303D01*
X82744257Y-169925063D01*
X82918791Y-170084172D01*
X82922934Y-170088128D01*
X82947443Y-170112637D01*
X82951400Y-170116781D01*
X82982471Y-170150865D01*
X82986230Y-170155184D01*
X83008366Y-170181841D01*
X83011923Y-170186332D01*
X83154253Y-170374806D01*
X83157599Y-170379457D01*
X83177190Y-170408057D01*
X83180319Y-170412859D01*
X83204598Y-170452074D01*
X83207498Y-170457009D01*
X83224357Y-170487277D01*
X83227028Y-170492344D01*
X83283973Y-170606706D01*
X83743050Y-170147629D01*
X89209832Y-170147629D01*
X90011976Y-170949773D01*
X91074051Y-169887698D01*
X90568615Y-169382262D01*
X90482703Y-169452769D01*
X90480330Y-169454668D01*
X90465831Y-169465984D01*
X90463410Y-169467827D01*
X90443734Y-169482421D01*
X90441262Y-169484207D01*
X90426198Y-169494816D01*
X90423690Y-169496537D01*
X90075842Y-169728961D01*
X90073291Y-169730621D01*
X90057741Y-169740468D01*
X90055152Y-169742063D01*
X90034141Y-169754657D01*
X90031511Y-169756190D01*
X90015492Y-169765265D01*
X90012824Y-169766733D01*
X89643869Y-169963944D01*
X89641166Y-169965346D01*
X89624712Y-169973628D01*
X89621976Y-169974964D01*
X89599831Y-169985437D01*
X89597065Y-169986704D01*
X89580246Y-169994159D01*
X89577451Y-169995357D01*
X89209832Y-170147629D01*
X83743050Y-170147629D01*
X84002982Y-169887697D01*
X82940907Y-168825622D01*
X82166199Y-169600330D01*
X79380000Y-169600330D01*
X79380000Y-167726997D01*
X80504000Y-167726997D01*
X80504000Y-168512865D01*
X81173141Y-169182006D01*
X82235216Y-168119931D01*
X81173141Y-167057856D01*
X80504000Y-167726997D01*
X79380000Y-167726997D01*
X79380000Y-166352164D01*
X81878833Y-166352164D01*
X82807770Y-167281101D01*
X82762851Y-167172656D01*
X82761721Y-167169830D01*
X82755097Y-167152658D01*
X82754036Y-167149805D01*
X82745783Y-167126739D01*
X82744794Y-167123864D01*
X82739018Y-167106381D01*
X82738098Y-167103477D01*
X82616657Y-166703139D01*
X82615808Y-166700211D01*
X82610897Y-166682462D01*
X82610122Y-166679521D01*
X82604171Y-166655760D01*
X82603470Y-166652806D01*
X82599438Y-166634853D01*
X82598807Y-166631872D01*
X82517196Y-166221588D01*
X82516640Y-166218604D01*
X82513499Y-166200509D01*
X82513016Y-166197509D01*
X82509419Y-166173277D01*
X82509009Y-166170257D01*
X82506749Y-166151943D01*
X82506412Y-166148910D01*
X82468367Y-165762629D01*
X81878833Y-166352164D01*
X79380000Y-166352164D01*
X79380000Y-164191463D01*
X80504000Y-164191463D01*
X80504000Y-164977331D01*
X81173141Y-165646472D01*
X81566538Y-165253075D01*
X83459800Y-165253075D01*
X83459800Y-165646925D01*
X83465826Y-165708109D01*
X83498402Y-166038867D01*
X83498405Y-166038884D01*
X83575239Y-166425155D01*
X83689569Y-166802053D01*
X83754095Y-166957831D01*
X83824198Y-167127075D01*
X83840290Y-167165923D01*
X83840292Y-167165928D01*
X84025942Y-167513254D01*
X84025953Y-167513272D01*
X84244754Y-167840731D01*
X84244764Y-167840745D01*
X84494620Y-168145195D01*
X84773104Y-168423679D01*
X84773109Y-168423683D01*
X84773110Y-168423684D01*
X85077560Y-168673540D01*
X85405034Y-168892351D01*
X85405043Y-168892356D01*
X85405045Y-168892357D01*
X85752371Y-169078007D01*
X85752373Y-169078007D01*
X85752379Y-169078011D01*
X86116248Y-169228731D01*
X86493139Y-169343059D01*
X86879422Y-169419896D01*
X87271375Y-169458500D01*
X87271378Y-169458500D01*
X87665222Y-169458500D01*
X87665225Y-169458500D01*
X88057178Y-169419896D01*
X88443461Y-169343059D01*
X88820352Y-169228731D01*
X89184221Y-169078011D01*
X89531566Y-168892351D01*
X89835896Y-168689004D01*
X91286741Y-168689004D01*
X91779743Y-169182006D01*
X92841818Y-168119931D01*
X92091971Y-167370084D01*
X92013657Y-167559151D01*
X92012459Y-167561946D01*
X92005004Y-167578765D01*
X92003737Y-167581531D01*
X91993264Y-167603676D01*
X91991928Y-167606412D01*
X91983646Y-167622866D01*
X91982244Y-167625569D01*
X91785033Y-167994524D01*
X91783565Y-167997192D01*
X91774490Y-168013211D01*
X91772957Y-168015841D01*
X91760363Y-168036852D01*
X91758768Y-168039441D01*
X91748921Y-168054991D01*
X91747261Y-168057542D01*
X91514837Y-168405390D01*
X91513116Y-168407898D01*
X91502507Y-168422962D01*
X91500721Y-168425434D01*
X91486127Y-168445110D01*
X91484284Y-168447531D01*
X91472968Y-168462030D01*
X91471069Y-168464403D01*
X91286741Y-168689004D01*
X89835896Y-168689004D01*
X89859040Y-168673540D01*
X90163490Y-168423684D01*
X90441984Y-168145190D01*
X90691840Y-167840740D01*
X90910651Y-167513266D01*
X91096311Y-167165921D01*
X91247031Y-166802052D01*
X91361359Y-166425161D01*
X91375879Y-166352164D01*
X92485435Y-166352164D01*
X93444800Y-167311529D01*
X93444800Y-165392799D01*
X92485435Y-166352164D01*
X91375879Y-166352164D01*
X91438196Y-166038878D01*
X91476800Y-165646925D01*
X91476800Y-165253075D01*
X91438196Y-164861122D01*
X91361359Y-164474839D01*
X91247031Y-164097948D01*
X91096311Y-163734079D01*
X91066030Y-163677428D01*
X90910657Y-163386745D01*
X90910656Y-163386743D01*
X90910651Y-163386734D01*
X90691840Y-163059260D01*
X90492718Y-162816630D01*
X92485435Y-162816630D01*
X93444800Y-163775995D01*
X93444800Y-163350911D01*
X93444866Y-163346854D01*
X93445669Y-163322323D01*
X93445868Y-163318272D01*
X93448004Y-163285676D01*
X93448336Y-163281631D01*
X93450742Y-163257201D01*
X93451206Y-163253168D01*
X93490128Y-162957536D01*
X93490723Y-162953527D01*
X93494721Y-162929307D01*
X93495448Y-162925309D01*
X93501821Y-162893272D01*
X93502677Y-162889308D01*
X93508250Y-162865406D01*
X93509236Y-162861469D01*
X93586409Y-162573457D01*
X93587523Y-162569558D01*
X93594643Y-162546085D01*
X93595883Y-162542224D01*
X93606381Y-162511294D01*
X93607748Y-162507474D01*
X93616399Y-162484486D01*
X93617892Y-162480707D01*
X93732003Y-162205218D01*
X93733616Y-162201497D01*
X93743745Y-162179141D01*
X93745481Y-162175472D01*
X93759929Y-162146174D01*
X93761782Y-162142565D01*
X93773355Y-162120913D01*
X93775327Y-162117365D01*
X93824737Y-162031783D01*
X93547509Y-161754555D01*
X92485435Y-162816630D01*
X90492718Y-162816630D01*
X90441984Y-162754810D01*
X90441983Y-162754809D01*
X90441979Y-162754804D01*
X90163495Y-162476320D01*
X89859045Y-162226464D01*
X89859044Y-162226463D01*
X89859040Y-162226460D01*
X89531566Y-162007649D01*
X89531561Y-162007646D01*
X89531554Y-162007642D01*
X89184228Y-161821992D01*
X89184223Y-161821990D01*
X88820353Y-161671269D01*
X88443455Y-161556939D01*
X88057184Y-161480105D01*
X88057167Y-161480102D01*
X87760769Y-161450910D01*
X87665225Y-161441500D01*
X87271375Y-161441500D01*
X87183011Y-161450203D01*
X86879432Y-161480102D01*
X86879415Y-161480105D01*
X86493144Y-161556939D01*
X86116246Y-161671269D01*
X85752376Y-161821990D01*
X85752371Y-161821992D01*
X85405045Y-162007642D01*
X85405027Y-162007653D01*
X85077568Y-162226454D01*
X85077554Y-162226464D01*
X84773104Y-162476320D01*
X84494620Y-162754804D01*
X84244764Y-163059254D01*
X84244754Y-163059268D01*
X84025953Y-163386727D01*
X84025942Y-163386745D01*
X83840292Y-163734071D01*
X83840290Y-163734076D01*
X83689569Y-164097946D01*
X83575239Y-164474844D01*
X83498405Y-164861115D01*
X83498402Y-164861132D01*
X83477042Y-165078009D01*
X83459800Y-165253075D01*
X81566538Y-165253075D01*
X82235215Y-164584397D01*
X81173140Y-163522322D01*
X80504000Y-164191463D01*
X79380000Y-164191463D01*
X79380000Y-162816630D01*
X81878833Y-162816630D01*
X82770670Y-163708467D01*
X82922943Y-163340849D01*
X82924141Y-163338054D01*
X82931596Y-163321235D01*
X82932863Y-163318469D01*
X82943336Y-163296324D01*
X82944672Y-163293588D01*
X82952954Y-163277134D01*
X82954356Y-163274431D01*
X83151567Y-162905476D01*
X83153035Y-162902808D01*
X83162110Y-162886789D01*
X83163643Y-162884159D01*
X83176237Y-162863148D01*
X83177832Y-162860559D01*
X83187679Y-162845009D01*
X83189339Y-162842458D01*
X83421763Y-162494610D01*
X83423484Y-162492102D01*
X83434093Y-162477038D01*
X83435879Y-162474566D01*
X83450473Y-162454890D01*
X83452316Y-162452469D01*
X83463632Y-162437970D01*
X83465531Y-162435597D01*
X83536037Y-162349684D01*
X82940908Y-161754555D01*
X81878833Y-162816630D01*
X79380000Y-162816630D01*
X79380000Y-160655930D01*
X80504000Y-160655930D01*
X80504000Y-161441797D01*
X81173141Y-162110938D01*
X82235215Y-161048863D01*
X83646600Y-161048863D01*
X84229294Y-161631557D01*
X84453897Y-161447231D01*
X84456270Y-161445332D01*
X84470769Y-161434016D01*
X84473190Y-161432173D01*
X84492866Y-161417579D01*
X84495338Y-161415793D01*
X84510402Y-161405184D01*
X84512910Y-161403463D01*
X84860758Y-161171039D01*
X84863309Y-161169379D01*
X84878859Y-161159532D01*
X84881448Y-161157937D01*
X84902459Y-161145343D01*
X84905089Y-161143810D01*
X84921108Y-161134735D01*
X84923776Y-161133267D01*
X85081684Y-161048863D01*
X90717668Y-161048863D01*
X91779743Y-162110938D01*
X92841817Y-161048863D01*
X94253202Y-161048863D01*
X94448747Y-161244409D01*
X94456620Y-161237036D01*
X94459628Y-161234310D01*
X94484187Y-161212773D01*
X94487276Y-161210151D01*
X94506248Y-161194580D01*
X94509430Y-161192055D01*
X94745995Y-161010533D01*
X94749255Y-161008115D01*
X94769214Y-160993813D01*
X94772550Y-160991504D01*
X94799708Y-160973358D01*
X94803122Y-160971157D01*
X94823959Y-160958201D01*
X94827434Y-160956118D01*
X95085664Y-160807027D01*
X95089213Y-160805055D01*
X95110865Y-160793482D01*
X95114474Y-160791629D01*
X95119915Y-160788946D01*
X98048652Y-160788946D01*
X98133938Y-160841753D01*
X98138736Y-160844880D01*
X98167333Y-160864469D01*
X98171986Y-160867816D01*
X98208791Y-160895611D01*
X98213280Y-160899167D01*
X98239937Y-160921303D01*
X98244257Y-160925063D01*
X98418791Y-161084172D01*
X98422934Y-161088128D01*
X98447443Y-161112637D01*
X98451400Y-161116781D01*
X98482471Y-161150865D01*
X98486230Y-161155184D01*
X98508366Y-161181841D01*
X98511923Y-161186332D01*
X98654253Y-161374806D01*
X98657599Y-161379457D01*
X98677190Y-161408057D01*
X98680319Y-161412859D01*
X98704598Y-161452074D01*
X98707498Y-161457009D01*
X98724357Y-161487277D01*
X98727028Y-161492344D01*
X98832299Y-161703756D01*
X98834733Y-161708942D01*
X98848733Y-161740649D01*
X98850925Y-161745941D01*
X98867587Y-161788950D01*
X98869533Y-161794339D01*
X98880546Y-161827198D01*
X98882241Y-161832670D01*
X98936914Y-162024833D01*
X99720243Y-161241504D01*
X101516910Y-161241504D01*
X102386344Y-162110937D01*
X103040782Y-161456500D01*
X102759119Y-161456500D01*
X102756070Y-161456463D01*
X102737651Y-161456010D01*
X102734611Y-161455897D01*
X102710143Y-161454694D01*
X102707110Y-161454508D01*
X102688768Y-161453155D01*
X102685736Y-161452894D01*
X102269390Y-161411888D01*
X102266357Y-161411551D01*
X102248043Y-161409291D01*
X102245023Y-161408881D01*
X102220791Y-161405284D01*
X102217791Y-161404801D01*
X102199696Y-161401660D01*
X102196712Y-161401104D01*
X101786428Y-161319493D01*
X101783447Y-161318862D01*
X101765494Y-161314830D01*
X101762540Y-161314129D01*
X101738779Y-161308178D01*
X101735838Y-161307403D01*
X101718089Y-161302492D01*
X101715161Y-161301643D01*
X101516910Y-161241504D01*
X99720243Y-161241504D01*
X99886972Y-161074775D01*
X104885715Y-161074775D01*
X105921878Y-162110938D01*
X106983952Y-161048863D01*
X106685011Y-160749922D01*
X112229812Y-160749922D01*
X112263082Y-160763703D01*
X112266803Y-160765316D01*
X112289159Y-160775445D01*
X112292828Y-160777181D01*
X112322126Y-160791629D01*
X112325735Y-160793482D01*
X112347387Y-160805055D01*
X112350936Y-160807027D01*
X112609166Y-160956118D01*
X112612641Y-160958201D01*
X112633478Y-160971157D01*
X112636892Y-160973358D01*
X112664050Y-160991504D01*
X112667386Y-160993813D01*
X112687345Y-161008115D01*
X112690605Y-161010533D01*
X112927170Y-161192055D01*
X112930352Y-161194580D01*
X112949324Y-161210151D01*
X112952413Y-161212773D01*
X112976972Y-161234310D01*
X112979980Y-161237036D01*
X112997897Y-161253817D01*
X113000813Y-161256639D01*
X113211661Y-161467487D01*
X113214483Y-161470403D01*
X113231264Y-161488320D01*
X113233990Y-161491328D01*
X113255527Y-161515887D01*
X113258149Y-161518976D01*
X113273720Y-161537948D01*
X113276245Y-161541130D01*
X113400639Y-161703244D01*
X113850808Y-161253075D01*
X116959800Y-161253075D01*
X116959800Y-161646925D01*
X116965908Y-161708942D01*
X116998402Y-162038867D01*
X116998405Y-162038884D01*
X117075239Y-162425155D01*
X117189569Y-162802053D01*
X117340290Y-163165923D01*
X117340292Y-163165928D01*
X117525942Y-163513254D01*
X117525953Y-163513272D01*
X117744754Y-163840731D01*
X117744764Y-163840745D01*
X117994620Y-164145195D01*
X118273104Y-164423679D01*
X118273109Y-164423683D01*
X118273110Y-164423684D01*
X118577560Y-164673540D01*
X118905034Y-164892351D01*
X118905043Y-164892356D01*
X118905045Y-164892357D01*
X119252371Y-165078007D01*
X119252373Y-165078007D01*
X119252379Y-165078011D01*
X119616248Y-165228731D01*
X119993139Y-165343059D01*
X120379422Y-165419896D01*
X120771375Y-165458500D01*
X120771378Y-165458500D01*
X121165222Y-165458500D01*
X121165225Y-165458500D01*
X121557178Y-165419896D01*
X121943461Y-165343059D01*
X122320352Y-165228731D01*
X122684221Y-165078011D01*
X123031566Y-164892351D01*
X123359040Y-164673540D01*
X123467661Y-164584397D01*
X126073007Y-164584397D01*
X126965110Y-165476500D01*
X127305054Y-165476500D01*
X128197156Y-164584397D01*
X129608541Y-164584397D01*
X130500644Y-165476500D01*
X130840588Y-165476500D01*
X131732690Y-164584397D01*
X133144075Y-164584397D01*
X134206150Y-165646472D01*
X135268224Y-164584397D01*
X136679609Y-164584397D01*
X137002681Y-164907469D01*
X137006354Y-164905841D01*
X137009149Y-164904643D01*
X137395644Y-164744551D01*
X137398470Y-164743421D01*
X137415642Y-164736797D01*
X137418495Y-164735736D01*
X137441561Y-164727483D01*
X137444436Y-164726494D01*
X137461919Y-164720718D01*
X137464823Y-164719798D01*
X137865161Y-164598357D01*
X137868089Y-164597508D01*
X137885838Y-164592597D01*
X137888779Y-164591822D01*
X137912540Y-164585871D01*
X137915494Y-164585170D01*
X137933447Y-164581138D01*
X137936428Y-164580507D01*
X138004111Y-164567044D01*
X140232495Y-164567044D01*
X140300173Y-164580507D01*
X140303153Y-164581138D01*
X140321106Y-164585170D01*
X140324060Y-164585871D01*
X140347821Y-164591822D01*
X140350762Y-164592597D01*
X140368511Y-164597508D01*
X140371439Y-164598357D01*
X140771777Y-164719798D01*
X140774681Y-164720718D01*
X140792164Y-164726494D01*
X140795039Y-164727483D01*
X140818105Y-164735736D01*
X140820958Y-164736797D01*
X140838130Y-164743421D01*
X140840956Y-164744551D01*
X141227451Y-164904643D01*
X141230246Y-164905841D01*
X141247065Y-164913296D01*
X141249831Y-164914563D01*
X141271976Y-164925036D01*
X141274712Y-164926372D01*
X141291166Y-164934654D01*
X141293869Y-164936056D01*
X141662824Y-165133267D01*
X141665492Y-165134735D01*
X141681511Y-165143810D01*
X141684141Y-165145343D01*
X141705152Y-165157937D01*
X141707741Y-165159532D01*
X141723291Y-165169379D01*
X141725841Y-165171038D01*
X141741911Y-165181776D01*
X142339291Y-164584396D01*
X143750676Y-164584396D01*
X144812750Y-165646471D01*
X145244486Y-165214735D01*
X144932338Y-165084118D01*
X144927849Y-165082135D01*
X144789626Y-165017755D01*
X144789339Y-165017703D01*
X144542908Y-164902863D01*
X143785180Y-164549892D01*
X143750676Y-164584396D01*
X142339291Y-164584396D01*
X141277217Y-163522322D01*
X140232495Y-164567044D01*
X138004111Y-164567044D01*
X138346712Y-164498896D01*
X138349696Y-164498340D01*
X138367791Y-164495199D01*
X138370791Y-164494716D01*
X138395023Y-164491119D01*
X138398043Y-164490709D01*
X138416357Y-164488449D01*
X138419390Y-164488112D01*
X138681643Y-164462282D01*
X137741683Y-163522322D01*
X136679609Y-164584397D01*
X135268224Y-164584397D01*
X134206150Y-163522322D01*
X133144075Y-164584397D01*
X131732690Y-164584397D01*
X130670616Y-163522322D01*
X129608541Y-164584397D01*
X128197156Y-164584397D01*
X127135082Y-163522322D01*
X126073007Y-164584397D01*
X123467661Y-164584397D01*
X123663490Y-164423684D01*
X123941984Y-164145190D01*
X124171581Y-163865426D01*
X125354036Y-163865426D01*
X125367315Y-163878705D01*
X126429390Y-162816630D01*
X127840774Y-162816630D01*
X128902849Y-163878705D01*
X129964923Y-162816630D01*
X131376308Y-162816630D01*
X132438383Y-163878705D01*
X133500457Y-162816630D01*
X134911842Y-162816630D01*
X135973916Y-163878704D01*
X137035991Y-162816630D01*
X138447376Y-162816630D01*
X139509450Y-163878704D01*
X140410349Y-162977804D01*
X138961237Y-162302768D01*
X138447376Y-162816630D01*
X137035991Y-162816630D01*
X135973916Y-161754555D01*
X134911842Y-162816630D01*
X133500457Y-162816630D01*
X132438383Y-161754555D01*
X131376308Y-162816630D01*
X129964923Y-162816630D01*
X128902849Y-161754555D01*
X127840774Y-162816630D01*
X126429390Y-162816630D01*
X125905292Y-162292532D01*
X125837793Y-162631872D01*
X125837162Y-162634853D01*
X125833130Y-162652806D01*
X125832429Y-162655760D01*
X125826478Y-162679521D01*
X125825703Y-162682462D01*
X125820792Y-162700211D01*
X125819943Y-162703139D01*
X125698502Y-163103477D01*
X125697582Y-163106381D01*
X125691806Y-163123864D01*
X125690817Y-163126739D01*
X125682564Y-163149805D01*
X125681503Y-163152658D01*
X125674879Y-163169830D01*
X125673749Y-163172656D01*
X125513657Y-163559151D01*
X125512459Y-163561946D01*
X125505004Y-163578765D01*
X125503737Y-163581531D01*
X125493264Y-163603676D01*
X125491928Y-163606412D01*
X125483646Y-163622866D01*
X125482244Y-163625569D01*
X125354036Y-163865426D01*
X124171581Y-163865426D01*
X124191840Y-163840740D01*
X124410651Y-163513266D01*
X124596311Y-163165921D01*
X124747031Y-162802052D01*
X124861359Y-162425161D01*
X124938196Y-162038878D01*
X124976800Y-161646925D01*
X124976800Y-161253075D01*
X124956687Y-161048863D01*
X126073007Y-161048863D01*
X127135082Y-162110938D01*
X128197156Y-161048863D01*
X129608541Y-161048863D01*
X130670616Y-162110938D01*
X131732690Y-161048863D01*
X133144074Y-161048863D01*
X134206150Y-162110938D01*
X135268224Y-161048863D01*
X134395096Y-160175735D01*
X134137294Y-160055643D01*
X133144074Y-161048863D01*
X131732690Y-161048863D01*
X130670616Y-159986789D01*
X129608541Y-161048863D01*
X128197156Y-161048863D01*
X127135082Y-159986789D01*
X126073007Y-161048863D01*
X124956687Y-161048863D01*
X124938196Y-160861122D01*
X124861359Y-160474839D01*
X124747031Y-160097948D01*
X124596311Y-159734079D01*
X124568059Y-159681224D01*
X124410657Y-159386745D01*
X124410656Y-159386743D01*
X124410651Y-159386734D01*
X124191840Y-159059260D01*
X123941984Y-158754810D01*
X123941983Y-158754809D01*
X123941979Y-158754804D01*
X123727876Y-158540701D01*
X125045634Y-158540701D01*
X125247261Y-158842458D01*
X125248921Y-158845009D01*
X125258768Y-158860559D01*
X125260363Y-158863148D01*
X125272957Y-158884159D01*
X125274490Y-158886789D01*
X125283565Y-158902808D01*
X125285033Y-158905476D01*
X125482244Y-159274431D01*
X125483646Y-159277134D01*
X125491928Y-159293588D01*
X125493264Y-159296324D01*
X125503737Y-159318469D01*
X125505004Y-159321235D01*
X125512459Y-159338054D01*
X125513657Y-159340849D01*
X125673749Y-159727344D01*
X125674879Y-159730170D01*
X125681503Y-159747342D01*
X125682564Y-159750195D01*
X125690817Y-159773261D01*
X125691806Y-159776136D01*
X125697582Y-159793619D01*
X125698502Y-159796523D01*
X125748648Y-159961836D01*
X126429389Y-159281096D01*
X127840774Y-159281096D01*
X128902849Y-160343171D01*
X129964923Y-159281096D01*
X131376307Y-159281096D01*
X132438382Y-160343171D01*
X133174435Y-159607118D01*
X131725322Y-158932081D01*
X131376307Y-159281096D01*
X129964923Y-159281096D01*
X128902849Y-158219022D01*
X127840774Y-159281096D01*
X126429389Y-159281096D01*
X125367314Y-158219021D01*
X125045634Y-158540701D01*
X123727876Y-158540701D01*
X123663495Y-158476320D01*
X123359045Y-158226464D01*
X123359044Y-158226463D01*
X123359040Y-158226460D01*
X123031566Y-158007649D01*
X123031561Y-158007646D01*
X123031554Y-158007642D01*
X122684228Y-157821992D01*
X122684223Y-157821990D01*
X122320353Y-157671269D01*
X121943455Y-157556939D01*
X121557184Y-157480105D01*
X121557167Y-157480102D01*
X121260769Y-157450910D01*
X121165225Y-157441500D01*
X120771375Y-157441500D01*
X120683011Y-157450203D01*
X120379432Y-157480102D01*
X120379415Y-157480105D01*
X119993144Y-157556939D01*
X119616246Y-157671269D01*
X119252376Y-157821990D01*
X119252371Y-157821992D01*
X118905045Y-158007642D01*
X118905027Y-158007653D01*
X118577568Y-158226454D01*
X118577554Y-158226464D01*
X118273104Y-158476320D01*
X117994620Y-158754804D01*
X117744764Y-159059254D01*
X117744754Y-159059268D01*
X117525953Y-159386727D01*
X117525942Y-159386745D01*
X117340292Y-159734071D01*
X117340290Y-159734076D01*
X117189569Y-160097946D01*
X117075239Y-160474844D01*
X116998405Y-160861115D01*
X116998402Y-160861132D01*
X116983926Y-161008115D01*
X116959800Y-161253075D01*
X113850808Y-161253075D01*
X114055020Y-161048863D01*
X112992945Y-159986788D01*
X112229812Y-160749922D01*
X106685011Y-160749922D01*
X106205231Y-160270142D01*
X105982703Y-160452769D01*
X105980330Y-160454668D01*
X105965831Y-160465984D01*
X105963410Y-160467827D01*
X105943734Y-160482421D01*
X105941262Y-160484207D01*
X105926198Y-160494816D01*
X105923690Y-160496537D01*
X105575842Y-160728961D01*
X105573291Y-160730621D01*
X105557741Y-160740468D01*
X105555152Y-160742063D01*
X105534141Y-160754657D01*
X105531511Y-160756190D01*
X105515492Y-160765265D01*
X105512824Y-160766733D01*
X105143869Y-160963944D01*
X105141166Y-160965346D01*
X105124712Y-160973628D01*
X105121976Y-160974964D01*
X105099831Y-160985437D01*
X105097065Y-160986704D01*
X105080246Y-160994159D01*
X105077451Y-160995357D01*
X104885715Y-161074775D01*
X99886972Y-161074775D01*
X99912884Y-161048863D01*
X98850810Y-159986788D01*
X98048652Y-160788946D01*
X95119915Y-160788946D01*
X95143772Y-160777181D01*
X95147441Y-160775445D01*
X95169797Y-160765316D01*
X95173518Y-160763703D01*
X95449007Y-160649592D01*
X95452786Y-160648099D01*
X95475774Y-160639448D01*
X95479594Y-160638081D01*
X95510524Y-160627583D01*
X95514385Y-160626343D01*
X95537858Y-160619223D01*
X95541757Y-160618109D01*
X95829769Y-160540936D01*
X95833706Y-160539950D01*
X95857608Y-160534377D01*
X95861572Y-160533521D01*
X95861936Y-160533448D01*
X95315277Y-159986789D01*
X94253202Y-161048863D01*
X92841817Y-161048863D01*
X91779743Y-159986789D01*
X90717668Y-161048863D01*
X85081684Y-161048863D01*
X85292731Y-160936056D01*
X85295434Y-160934654D01*
X85311888Y-160926372D01*
X85314624Y-160925036D01*
X85336769Y-160914563D01*
X85339535Y-160913296D01*
X85356354Y-160905841D01*
X85359149Y-160904643D01*
X85548215Y-160826329D01*
X84708675Y-159986789D01*
X83646600Y-161048863D01*
X82235215Y-161048863D01*
X81173141Y-159986789D01*
X80504000Y-160655930D01*
X79380000Y-160655930D01*
X79380000Y-159281096D01*
X81878833Y-159281096D01*
X82940908Y-160343171D01*
X84002982Y-159281096D01*
X85414367Y-159281096D01*
X86476442Y-160343171D01*
X87538516Y-159281096D01*
X88949901Y-159281096D01*
X90011976Y-160343171D01*
X91074050Y-159281096D01*
X92485435Y-159281096D01*
X93547510Y-160343171D01*
X94609584Y-159281096D01*
X96020969Y-159281096D01*
X97083044Y-160343171D01*
X98145118Y-159281096D01*
X97083044Y-158219022D01*
X96020969Y-159281096D01*
X94609584Y-159281096D01*
X93547510Y-158219022D01*
X92485435Y-159281096D01*
X91074050Y-159281096D01*
X90011976Y-158219022D01*
X88949901Y-159281096D01*
X87538516Y-159281096D01*
X86476442Y-158219022D01*
X85414367Y-159281096D01*
X84002982Y-159281096D01*
X82940908Y-158219022D01*
X81878833Y-159281096D01*
X79380000Y-159281096D01*
X79380000Y-157120396D01*
X80504000Y-157120396D01*
X80504000Y-157906263D01*
X81173141Y-158575404D01*
X82235215Y-157513329D01*
X83646600Y-157513329D01*
X84708675Y-158575404D01*
X85770749Y-157513329D01*
X87182134Y-157513329D01*
X88244209Y-158575404D01*
X89306283Y-157513329D01*
X90717668Y-157513329D01*
X91779743Y-158575404D01*
X92841817Y-157513329D01*
X94253202Y-157513329D01*
X95315277Y-158575404D01*
X96377351Y-157513329D01*
X95315277Y-156451255D01*
X94253202Y-157513329D01*
X92841817Y-157513329D01*
X91779743Y-156451255D01*
X90717668Y-157513329D01*
X89306283Y-157513329D01*
X88244209Y-156451255D01*
X87182134Y-157513329D01*
X85770749Y-157513329D01*
X84708675Y-156451255D01*
X83646600Y-157513329D01*
X82235215Y-157513329D01*
X81173141Y-156451255D01*
X80504000Y-157120396D01*
X79380000Y-157120396D01*
X79380000Y-155745562D01*
X81878832Y-155745562D01*
X82940908Y-156807638D01*
X84002983Y-155745563D01*
X85414367Y-155745563D01*
X86476442Y-156807638D01*
X87538517Y-155745563D01*
X88949901Y-155745563D01*
X90011976Y-156807638D01*
X91074051Y-155745563D01*
X92485435Y-155745563D01*
X93547510Y-156807638D01*
X94609585Y-155745563D01*
X96020969Y-155745563D01*
X97083043Y-156807637D01*
X97991861Y-155898819D01*
X98006412Y-155751090D01*
X98006749Y-155748057D01*
X98009009Y-155729743D01*
X98009419Y-155726723D01*
X98013016Y-155702491D01*
X98013499Y-155699491D01*
X98016640Y-155681396D01*
X98017196Y-155678412D01*
X98027278Y-155627722D01*
X97083044Y-154683488D01*
X96020969Y-155745563D01*
X94609585Y-155745563D01*
X93547510Y-154683488D01*
X92485435Y-155745563D01*
X91074051Y-155745563D01*
X90011976Y-154683488D01*
X88949901Y-155745563D01*
X87538517Y-155745563D01*
X86476442Y-154683488D01*
X85414367Y-155745563D01*
X84002983Y-155745563D01*
X83091423Y-154834003D01*
X82602129Y-155047540D01*
X82554838Y-155069556D01*
X81878832Y-155745562D01*
X79380000Y-155745562D01*
X79380000Y-155260051D01*
X79399685Y-155193012D01*
X79452489Y-155147257D01*
X79474270Y-155139668D01*
X79755840Y-155070149D01*
X80360134Y-154889510D01*
X80954977Y-154679838D01*
X81492179Y-154460714D01*
X84129518Y-154460714D01*
X84708675Y-155039871D01*
X85649983Y-154098562D01*
X85363073Y-154147646D01*
X84797024Y-154272950D01*
X84237730Y-154425492D01*
X84129518Y-154460714D01*
X81492179Y-154460714D01*
X81538977Y-154441625D01*
X81763232Y-154337233D01*
X81763269Y-154337227D01*
X81832378Y-154305047D01*
X81832381Y-154305044D01*
X81832388Y-154305042D01*
X81832387Y-154305042D01*
X82189160Y-154138947D01*
X82189161Y-154138949D01*
X82189186Y-154138934D01*
X82190525Y-154138311D01*
X82193128Y-154137137D01*
X82558237Y-153977796D01*
X87182134Y-153977796D01*
X88244209Y-155039871D01*
X89306284Y-153977796D01*
X90717668Y-153977796D01*
X91779743Y-155039871D01*
X92841818Y-153977796D01*
X94253202Y-153977796D01*
X95315277Y-155039871D01*
X96377352Y-153977796D01*
X96323056Y-153923500D01*
X94307498Y-153923500D01*
X94253202Y-153977796D01*
X92841818Y-153977796D01*
X92787522Y-153923500D01*
X90771964Y-153923500D01*
X90717668Y-153977796D01*
X89306284Y-153977796D01*
X89251988Y-153923500D01*
X87680516Y-153923500D01*
X87225415Y-153934514D01*
X87182134Y-153977796D01*
X82558237Y-153977796D01*
X82764779Y-153887657D01*
X82770252Y-153885425D01*
X83351806Y-153664471D01*
X83357443Y-153662485D01*
X83948986Y-153469942D01*
X83954691Y-153468237D01*
X84554871Y-153304543D01*
X84560640Y-153303119D01*
X85168072Y-153168654D01*
X85173888Y-153167514D01*
X85787086Y-153062609D01*
X85792980Y-153061747D01*
X86410555Y-152986636D01*
X86416464Y-152986063D01*
X87036925Y-152940930D01*
X87042866Y-152940642D01*
X87666968Y-152925535D01*
X87669944Y-152925500D01*
X87676067Y-152925500D01*
X100619205Y-152925500D01*
X100686244Y-152945185D01*
G37*
G04 #@! TD.AperFunction*
G04 #@! TA.AperFunction,NonConductor*
G36*
X45000104Y-198199685D02*
G01*
X45045859Y-198252489D01*
X45055803Y-198321647D01*
X45026778Y-198385203D01*
X45008539Y-198402385D01*
X44811266Y-198553718D01*
X44811256Y-198553728D01*
X44623523Y-198741404D01*
X44623516Y-198741412D01*
X44461879Y-198951989D01*
X44329102Y-199181859D01*
X44329099Y-199181866D01*
X44227457Y-199427102D01*
X44158690Y-199683499D01*
X44158689Y-199683500D01*
X44123969Y-199946692D01*
X44123937Y-200068863D01*
X44123937Y-200068865D01*
X44123846Y-200387946D01*
X44123840Y-200387998D01*
X44123840Y-200410679D01*
X44123830Y-200445828D01*
X44123840Y-200445878D01*
X44123840Y-200505687D01*
X44141616Y-200600776D01*
X44158763Y-200692502D01*
X44158763Y-200692503D01*
X44227415Y-200869717D01*
X44227417Y-200869721D01*
X44227418Y-200869723D01*
X44327468Y-201031309D01*
X44455506Y-201171760D01*
X44607171Y-201286293D01*
X44777298Y-201371006D01*
X44777299Y-201371006D01*
X44777300Y-201371007D01*
X44960098Y-201423017D01*
X45149339Y-201440553D01*
X45149340Y-201440553D01*
X45149341Y-201440553D01*
X45196650Y-201436169D01*
X45338582Y-201423017D01*
X45521380Y-201371007D01*
X45691509Y-201286293D01*
X45843174Y-201171760D01*
X45971212Y-201031309D01*
X46071262Y-200869723D01*
X46139917Y-200692504D01*
X46174840Y-200505687D01*
X46174840Y-200418791D01*
X46175902Y-200402598D01*
X46176231Y-200400098D01*
X46188885Y-200304044D01*
X46197266Y-200272780D01*
X46232176Y-200188519D01*
X46248363Y-200160487D01*
X46248377Y-200160469D01*
X46303896Y-200088126D01*
X46326779Y-200065246D01*
X46399158Y-200009717D01*
X46427180Y-199993543D01*
X46511457Y-199958641D01*
X46542716Y-199950268D01*
X46641902Y-199937218D01*
X46658067Y-199936160D01*
X47141208Y-199936160D01*
X47157400Y-199937221D01*
X47255959Y-199950204D01*
X47287223Y-199958583D01*
X47371499Y-199993495D01*
X47399527Y-200009677D01*
X47471903Y-200065215D01*
X47494784Y-200088096D01*
X47550320Y-200160469D01*
X47566504Y-200188500D01*
X47601416Y-200272776D01*
X47609795Y-200304038D01*
X47622778Y-200402596D01*
X47623840Y-200418791D01*
X47623840Y-212402542D01*
X47622780Y-212418718D01*
X47609809Y-212517297D01*
X47601434Y-212548564D01*
X47566529Y-212632852D01*
X47550346Y-212660888D01*
X47494812Y-212733273D01*
X47471924Y-212756164D01*
X47399552Y-212811706D01*
X47371520Y-212827893D01*
X47287240Y-212862811D01*
X47255974Y-212871192D01*
X47172769Y-212882153D01*
X47158005Y-212884098D01*
X47141812Y-212885160D01*
X46657459Y-212885160D01*
X46641282Y-212884100D01*
X46641267Y-212884098D01*
X46542711Y-212871129D01*
X46511444Y-212862754D01*
X46427163Y-212827847D01*
X46399127Y-212811661D01*
X46326758Y-212756131D01*
X46303868Y-212733241D01*
X46248338Y-212660872D01*
X46232153Y-212632839D01*
X46197243Y-212548550D01*
X46188870Y-212517290D01*
X46177828Y-212433368D01*
X46175900Y-212418715D01*
X46174840Y-212402540D01*
X46174840Y-212315635D01*
X46157064Y-212220544D01*
X46139917Y-212128816D01*
X46071262Y-211951597D01*
X45971212Y-211790011D01*
X45843174Y-211649560D01*
X45691509Y-211535027D01*
X45641929Y-211510339D01*
X45521381Y-211450313D01*
X45521382Y-211450313D01*
X45416482Y-211420467D01*
X45338582Y-211398303D01*
X45338579Y-211398302D01*
X45338581Y-211398302D01*
X45149341Y-211380767D01*
X45149339Y-211380767D01*
X44960100Y-211398302D01*
X44777297Y-211450313D01*
X44607170Y-211535027D01*
X44455504Y-211649561D01*
X44327469Y-211790009D01*
X44227417Y-211951598D01*
X44227415Y-211951602D01*
X44158763Y-212128816D01*
X44158763Y-212128817D01*
X44123840Y-212315635D01*
X44123840Y-212379980D01*
X44123831Y-212380037D01*
X44123840Y-212410657D01*
X44123840Y-212433327D01*
X44123844Y-212433368D01*
X44123854Y-212469296D01*
X44123832Y-212469370D01*
X44123845Y-212520694D01*
X44123862Y-212585324D01*
X44123885Y-212673436D01*
X44160781Y-212976665D01*
X44233952Y-213273246D01*
X44233956Y-213273258D01*
X44342337Y-213558859D01*
X44484339Y-213829305D01*
X44484349Y-213829321D01*
X44657917Y-214080693D01*
X44860510Y-214309312D01*
X44860522Y-214309324D01*
X45089185Y-214511857D01*
X45089188Y-214511860D01*
X45340596Y-214685363D01*
X45340600Y-214685365D01*
X45340604Y-214685368D01*
X45611097Y-214827313D01*
X45896726Y-214935626D01*
X45896730Y-214935627D01*
X45896733Y-214935628D01*
X46045026Y-214972176D01*
X46193318Y-215008725D01*
X46193319Y-215008725D01*
X46193326Y-215008727D01*
X46496574Y-215045551D01*
X46496578Y-215045551D01*
X46614084Y-215045553D01*
X46614087Y-215045554D01*
X46638749Y-215045554D01*
X46638750Y-215045555D01*
X62888596Y-215045914D01*
X62955634Y-215065600D01*
X63001388Y-215118405D01*
X63011329Y-215187564D01*
X62982303Y-215251119D01*
X62936046Y-215284475D01*
X62926988Y-215288227D01*
X62807350Y-215337783D01*
X62807347Y-215337784D01*
X62807341Y-215337787D01*
X62460016Y-215523436D01*
X62459998Y-215523447D01*
X62132539Y-215742248D01*
X62132525Y-215742258D01*
X61828075Y-215992114D01*
X61549591Y-216270598D01*
X61299735Y-216575048D01*
X61299725Y-216575062D01*
X61080924Y-216902521D01*
X61080913Y-216902539D01*
X60895263Y-217249865D01*
X60895261Y-217249870D01*
X60744540Y-217613740D01*
X60630210Y-217990638D01*
X60553376Y-218376909D01*
X60553373Y-218376926D01*
X60523575Y-218679480D01*
X60514771Y-218768869D01*
X60514771Y-219162719D01*
X60526375Y-219280537D01*
X60553373Y-219554661D01*
X60553376Y-219554678D01*
X60630210Y-219940949D01*
X60744540Y-220317847D01*
X60895261Y-220681717D01*
X60895263Y-220681722D01*
X61080913Y-221029048D01*
X61080924Y-221029066D01*
X61299725Y-221356525D01*
X61299735Y-221356539D01*
X61549591Y-221660989D01*
X61828075Y-221939473D01*
X61828080Y-221939477D01*
X61828081Y-221939478D01*
X62132531Y-222189334D01*
X62460005Y-222408145D01*
X62460014Y-222408150D01*
X62460016Y-222408151D01*
X62807342Y-222593801D01*
X62807344Y-222593801D01*
X62807350Y-222593805D01*
X63171219Y-222744525D01*
X63548110Y-222858853D01*
X63934393Y-222935690D01*
X64326346Y-222974294D01*
X64326349Y-222974294D01*
X64720193Y-222974294D01*
X64720196Y-222974294D01*
X65112149Y-222935690D01*
X65187473Y-222920707D01*
X67736697Y-222920707D01*
X68798772Y-223982781D01*
X69860847Y-222920707D01*
X68798772Y-221858632D01*
X67736697Y-222920707D01*
X65187473Y-222920707D01*
X65498432Y-222858853D01*
X65875323Y-222744525D01*
X66239192Y-222593805D01*
X66586537Y-222408145D01*
X66914011Y-222189334D01*
X67218461Y-221939478D01*
X67496955Y-221660984D01*
X67746811Y-221356534D01*
X67882848Y-221152940D01*
X69504464Y-221152940D01*
X70507841Y-222156317D01*
X70574199Y-222085736D01*
X70578215Y-222081657D01*
X70603084Y-222057539D01*
X70607288Y-222053647D01*
X70641844Y-222023102D01*
X70646223Y-222019407D01*
X70673230Y-221997672D01*
X70677775Y-221994185D01*
X70868415Y-221854763D01*
X70873117Y-221851488D01*
X70902021Y-221832334D01*
X70906872Y-221829278D01*
X70946453Y-221805606D01*
X70951433Y-221802782D01*
X70981946Y-221786396D01*
X70987048Y-221783806D01*
X71007581Y-221773971D01*
X71628613Y-221152939D01*
X70566539Y-220090865D01*
X69504464Y-221152940D01*
X67882848Y-221152940D01*
X67965622Y-221029060D01*
X68151282Y-220681715D01*
X68302002Y-220317846D01*
X68416330Y-219940955D01*
X68493167Y-219554672D01*
X68531771Y-219162719D01*
X68531771Y-218768869D01*
X68493167Y-218376916D01*
X68416330Y-217990633D01*
X68303113Y-217617405D01*
X69504463Y-217617405D01*
X70566538Y-218679480D01*
X71167052Y-218078966D01*
X71028243Y-217846013D01*
X70837329Y-217578620D01*
X70624958Y-217327876D01*
X70392615Y-217095534D01*
X70194299Y-216927569D01*
X69504463Y-217617405D01*
X68303113Y-217617405D01*
X68302002Y-217613742D01*
X68151282Y-217249873D01*
X67970531Y-216911713D01*
X67965628Y-216902539D01*
X67965627Y-216902537D01*
X67965622Y-216902528D01*
X67746811Y-216575054D01*
X67496955Y-216270604D01*
X67496954Y-216270603D01*
X67496950Y-216270598D01*
X67218466Y-215992114D01*
X66914016Y-215742258D01*
X66914015Y-215742257D01*
X66914011Y-215742254D01*
X66586537Y-215523443D01*
X66586532Y-215523440D01*
X66586525Y-215523436D01*
X66239199Y-215337786D01*
X66239194Y-215337784D01*
X66110670Y-215284547D01*
X66056267Y-215240706D01*
X66034202Y-215174411D01*
X66051482Y-215106712D01*
X66102619Y-215059102D01*
X66158123Y-215045986D01*
X67697467Y-215046020D01*
X67702498Y-215046125D01*
X68105653Y-215062797D01*
X68115820Y-215063640D01*
X68513674Y-215113229D01*
X68523746Y-215114910D01*
X68916137Y-215197183D01*
X68926034Y-215199690D01*
X69310281Y-215314083D01*
X69319960Y-215317406D01*
X69693428Y-215463132D01*
X69702808Y-215467246D01*
X70062975Y-215643319D01*
X70071980Y-215648193D01*
X70416373Y-215853405D01*
X70424941Y-215859003D01*
X70751202Y-216091947D01*
X70759284Y-216098238D01*
X71065208Y-216357342D01*
X71072748Y-216364283D01*
X71356213Y-216647747D01*
X71363154Y-216655287D01*
X71572551Y-216902521D01*
X71622247Y-216961196D01*
X71628542Y-216969284D01*
X71861480Y-217295535D01*
X71867086Y-217304114D01*
X72072305Y-217648516D01*
X72077182Y-217657530D01*
X72253243Y-218017668D01*
X72257360Y-218027053D01*
X72403086Y-218400519D01*
X72406414Y-218410212D01*
X72520800Y-218794430D01*
X72523315Y-218804364D01*
X72565928Y-219007594D01*
X72605583Y-219196720D01*
X72607270Y-219206829D01*
X72656856Y-219604642D01*
X72657701Y-219614854D01*
X72674042Y-220009959D01*
X72674394Y-220018457D01*
X72674500Y-220023581D01*
X72674500Y-221546325D01*
X72673978Y-221557687D01*
X72659184Y-221718461D01*
X72655038Y-221740800D01*
X72612711Y-221890676D01*
X72604559Y-221911884D01*
X72535594Y-222051525D01*
X72523709Y-222070889D01*
X72430424Y-222195601D01*
X72415206Y-222212471D01*
X72300732Y-222318070D01*
X72282690Y-222331881D01*
X72150871Y-222414819D01*
X72130613Y-222425106D01*
X71980422Y-222484766D01*
X71969673Y-222488475D01*
X71704146Y-222566666D01*
X71701219Y-222567489D01*
X71610331Y-222591848D01*
X71438927Y-222673940D01*
X71438926Y-222673941D01*
X71285525Y-222786128D01*
X71155351Y-222924590D01*
X71155346Y-222924596D01*
X71052832Y-223084615D01*
X71052830Y-223084619D01*
X70981464Y-223260751D01*
X70981463Y-223260754D01*
X70943673Y-223447005D01*
X70943672Y-223447009D01*
X70940747Y-223637024D01*
X70940748Y-223637035D01*
X70948000Y-223679433D01*
X70972789Y-223824359D01*
X71033601Y-223988809D01*
X71038707Y-224002615D01*
X71136251Y-224165716D01*
X71246498Y-224290461D01*
X71262103Y-224308118D01*
X71396397Y-224412823D01*
X71411979Y-224424972D01*
X71411982Y-224424974D01*
X71537812Y-224490072D01*
X71580776Y-224512299D01*
X71762743Y-224567125D01*
X71951687Y-224587581D01*
X72141172Y-224572972D01*
X72202997Y-224556409D01*
X72203020Y-224556408D01*
X72224958Y-224550527D01*
X72224960Y-224550528D01*
X72225112Y-224550487D01*
X72241005Y-224547324D01*
X72326874Y-224536014D01*
X72339589Y-224534340D01*
X72371960Y-224534338D01*
X72462404Y-224546240D01*
X72493672Y-224554618D01*
X72577954Y-224589526D01*
X72605987Y-224605709D01*
X72678364Y-224661244D01*
X72701250Y-224684130D01*
X72720568Y-224709305D01*
X72756783Y-224756501D01*
X72772969Y-224784535D01*
X72810940Y-224876211D01*
X72816151Y-224891561D01*
X72941367Y-225358864D01*
X72941408Y-225359017D01*
X72944572Y-225374921D01*
X72957554Y-225473490D01*
X72957556Y-225505864D01*
X72945651Y-225596309D01*
X72937273Y-225627578D01*
X72902365Y-225711856D01*
X72886179Y-225739891D01*
X72830649Y-225812260D01*
X72807759Y-225835150D01*
X72735390Y-225890680D01*
X72707353Y-225906867D01*
X72615589Y-225944873D01*
X72600234Y-225950085D01*
X66822635Y-227498191D01*
X61024727Y-229051733D01*
X61008812Y-229054897D01*
X60984950Y-229058037D01*
X60910257Y-229067866D01*
X60877889Y-229067864D01*
X60787455Y-229055954D01*
X60756189Y-229047575D01*
X60671920Y-229012666D01*
X60643886Y-228996479D01*
X60571522Y-228940947D01*
X60548636Y-228918060D01*
X60493108Y-228845693D01*
X60476926Y-228817666D01*
X60438767Y-228725539D01*
X60433562Y-228710204D01*
X60308431Y-228243210D01*
X60305268Y-228227303D01*
X60292303Y-228128731D01*
X60292305Y-228096377D01*
X60304222Y-228005927D01*
X60312598Y-227974675D01*
X60347513Y-227890398D01*
X60363694Y-227862373D01*
X60419228Y-227790003D01*
X60442109Y-227767122D01*
X60514486Y-227711585D01*
X60542506Y-227695408D01*
X60634637Y-227657243D01*
X60649983Y-227652033D01*
X60668732Y-227647007D01*
X60669132Y-227646828D01*
X60733623Y-227629554D01*
X60905044Y-227547481D01*
X61058464Y-227435305D01*
X61188659Y-227296847D01*
X61291193Y-227136822D01*
X61362576Y-226960681D01*
X61400376Y-226774422D01*
X61403305Y-226584389D01*
X61381387Y-226456240D01*
X64201163Y-226456240D01*
X64762040Y-227017117D01*
X66131336Y-226650216D01*
X66325312Y-226456240D01*
X65263238Y-225394166D01*
X64201163Y-226456240D01*
X61381387Y-226456240D01*
X61371264Y-226397053D01*
X61305345Y-226218796D01*
X61207791Y-226055687D01*
X61081926Y-225913282D01*
X60932036Y-225796430D01*
X60932035Y-225796429D01*
X60763226Y-225709112D01*
X60643655Y-225673099D01*
X60581245Y-225654302D01*
X60581243Y-225654301D01*
X60581241Y-225654301D01*
X60392295Y-225633865D01*
X60392292Y-225633865D01*
X60392291Y-225633865D01*
X60352294Y-225636953D01*
X60202797Y-225648497D01*
X60121226Y-225670362D01*
X60121215Y-225670365D01*
X60119041Y-225670947D01*
X60111084Y-225673078D01*
X60111085Y-225673079D01*
X60110803Y-225673154D01*
X60110249Y-225673303D01*
X60040359Y-225692030D01*
X58672324Y-226058592D01*
X58672325Y-226058593D01*
X56779342Y-226565816D01*
X56779209Y-226565812D01*
X56638474Y-226603526D01*
X56513474Y-226663386D01*
X56467061Y-226685612D01*
X56370505Y-226756221D01*
X56313649Y-226797798D01*
X56183464Y-226936262D01*
X56151605Y-226985990D01*
X56080937Y-227096292D01*
X56054339Y-227161932D01*
X56009561Y-227272438D01*
X56009560Y-227272439D01*
X55971767Y-227458688D01*
X55971766Y-227458700D01*
X55968840Y-227648717D01*
X55968841Y-227648731D01*
X56000880Y-227836052D01*
X56000881Y-227836058D01*
X56066800Y-228014317D01*
X56164352Y-228177429D01*
X56290209Y-228319833D01*
X56290211Y-228319835D01*
X56440096Y-228436691D01*
X56521762Y-228478938D01*
X56608897Y-228524016D01*
X56608908Y-228524020D01*
X56790866Y-228578835D01*
X56790868Y-228578835D01*
X56790877Y-228578838D01*
X56979828Y-228599289D01*
X57169320Y-228584671D01*
X57253231Y-228562188D01*
X57269156Y-228559022D01*
X57367730Y-228546073D01*
X57400086Y-228546081D01*
X57490523Y-228558003D01*
X57521776Y-228566381D01*
X57606052Y-228601295D01*
X57634076Y-228617475D01*
X57706452Y-228673007D01*
X57729334Y-228695885D01*
X57784877Y-228768249D01*
X57801061Y-228796267D01*
X57839154Y-228888165D01*
X57844380Y-228903553D01*
X57969553Y-229370700D01*
X57972720Y-229386631D01*
X57985677Y-229485184D01*
X57985672Y-229517545D01*
X57973755Y-229607991D01*
X57965377Y-229639251D01*
X57930465Y-229723526D01*
X57914285Y-229751550D01*
X57858757Y-229823922D01*
X57835874Y-229846808D01*
X57763504Y-229902351D01*
X57735479Y-229918536D01*
X57643655Y-229956588D01*
X57628278Y-229961810D01*
X51850786Y-231509887D01*
X46053029Y-233063390D01*
X46052733Y-233063469D01*
X46052586Y-233063508D01*
X46036977Y-233066593D01*
X45938399Y-233079574D01*
X45906029Y-233079575D01*
X45815584Y-233067671D01*
X45784317Y-233059293D01*
X45700039Y-233024387D01*
X45672004Y-233008202D01*
X45599632Y-232952671D01*
X45576743Y-232929782D01*
X45521207Y-232857409D01*
X45505023Y-232829379D01*
X45467040Y-232737686D01*
X45461832Y-232722347D01*
X45345218Y-232287141D01*
X45345218Y-232287129D01*
X45336579Y-232254895D01*
X45333415Y-232238992D01*
X45320428Y-232140427D01*
X45320425Y-232108051D01*
X45323495Y-232084721D01*
X45332327Y-232017611D01*
X45340703Y-231986345D01*
X45375613Y-231902065D01*
X45391799Y-231874032D01*
X45447334Y-231801667D01*
X45470221Y-231778783D01*
X45542604Y-231723254D01*
X45570632Y-231707078D01*
X45662339Y-231669109D01*
X45677659Y-231663910D01*
X45761799Y-231641357D01*
X45933200Y-231559262D01*
X46086599Y-231447071D01*
X46216772Y-231308605D01*
X46319288Y-231148579D01*
X46390655Y-230972441D01*
X46428444Y-230786188D01*
X46431367Y-230596164D01*
X46399326Y-230408837D01*
X46333412Y-230230587D01*
X46333411Y-230230584D01*
X46235873Y-230067493D01*
X46235872Y-230067492D01*
X46235867Y-230067483D01*
X46235860Y-230067475D01*
X46110019Y-229925082D01*
X46110017Y-229925080D01*
X46110015Y-229925078D01*
X45960141Y-229808221D01*
X45960138Y-229808219D01*
X45960135Y-229808217D01*
X45791351Y-229720894D01*
X45791342Y-229720890D01*
X45669365Y-229684138D01*
X45609380Y-229666064D01*
X45609377Y-229666063D01*
X45446554Y-229648431D01*
X45420438Y-229645603D01*
X45420437Y-229645603D01*
X45420432Y-229645603D01*
X45230959Y-229660205D01*
X45230946Y-229660208D01*
X45158154Y-229679705D01*
X45126093Y-229683927D01*
X43799535Y-229684137D01*
X43794621Y-229684137D01*
X43787880Y-229683954D01*
X43474199Y-229666877D01*
X43460761Y-229665407D01*
X43154158Y-229614838D01*
X43140960Y-229611914D01*
X42841688Y-229528272D01*
X42828886Y-229523929D01*
X42708810Y-229475745D01*
X47039522Y-229475745D01*
X47055071Y-229497009D01*
X47058346Y-229501711D01*
X47077490Y-229530603D01*
X47080542Y-229535450D01*
X47201759Y-229738135D01*
X47204586Y-229743118D01*
X47220979Y-229773647D01*
X47223570Y-229778753D01*
X47243490Y-229820351D01*
X47245844Y-229825572D01*
X47259355Y-229857492D01*
X47261466Y-229862820D01*
X47343372Y-230084319D01*
X47345233Y-230089733D01*
X47355731Y-230122731D01*
X47357340Y-230128224D01*
X47369279Y-230172771D01*
X47370634Y-230178340D01*
X47378054Y-230212216D01*
X47379151Y-230217841D01*
X47418969Y-230450638D01*
X47419804Y-230456306D01*
X47424062Y-230490694D01*
X47424634Y-230496392D01*
X47428182Y-230542372D01*
X47428491Y-230548090D01*
X47429559Y-230582727D01*
X47429603Y-230588456D01*
X47425971Y-230824588D01*
X47425751Y-230830312D01*
X47423619Y-230864891D01*
X47423135Y-230870593D01*
X47421102Y-230889383D01*
X47585569Y-231053850D01*
X48647644Y-229991775D01*
X50059028Y-229991775D01*
X50820104Y-230752851D01*
X51592484Y-230545893D01*
X51642446Y-230532505D01*
X52183176Y-229991775D01*
X53594562Y-229991775D01*
X53608490Y-230005703D01*
X55283754Y-229556817D01*
X54656637Y-228929700D01*
X53594562Y-229991775D01*
X52183176Y-229991775D01*
X52183177Y-229991774D01*
X51121103Y-228929700D01*
X50059028Y-229991775D01*
X48647644Y-229991775D01*
X47585568Y-228929699D01*
X47039522Y-229475745D01*
X42708810Y-229475745D01*
X42540491Y-229408202D01*
X42528237Y-229402491D01*
X42490031Y-229382079D01*
X42310354Y-229286083D01*
X42254165Y-229256063D01*
X42242608Y-229249053D01*
X41986081Y-229073647D01*
X41975361Y-229065424D01*
X41739471Y-228863150D01*
X41729703Y-228853804D01*
X41615109Y-228731506D01*
X41517220Y-228627036D01*
X41508531Y-228616685D01*
X41322010Y-228368154D01*
X41314504Y-228356929D01*
X41156129Y-228089542D01*
X41149890Y-228077562D01*
X41021569Y-227794539D01*
X41016669Y-227781946D01*
X40988317Y-227695406D01*
X40918919Y-227483580D01*
X40917005Y-227477148D01*
X40915824Y-227472743D01*
X41971456Y-227472743D01*
X42039126Y-227621997D01*
X42148867Y-227807274D01*
X42278093Y-227979462D01*
X42425338Y-228136606D01*
X42588775Y-228276753D01*
X42766532Y-228398298D01*
X42956441Y-228499760D01*
X43036474Y-228531876D01*
X43344341Y-228224008D01*
X44755727Y-228224008D01*
X45193826Y-228662107D01*
X45366749Y-228648781D01*
X45372472Y-228648472D01*
X45407129Y-228647408D01*
X45412859Y-228647365D01*
X45458973Y-228648081D01*
X45464695Y-228648302D01*
X45499265Y-228650438D01*
X45504968Y-228650923D01*
X45739755Y-228676348D01*
X45745436Y-228677096D01*
X45779688Y-228682416D01*
X45785326Y-228683426D01*
X45830522Y-228692601D01*
X45836108Y-228693870D01*
X45869706Y-228702323D01*
X45875224Y-228703847D01*
X46101350Y-228771980D01*
X46106797Y-228773760D01*
X46139495Y-228785285D01*
X46144854Y-228787314D01*
X46187596Y-228804638D01*
X46192853Y-228806911D01*
X46224320Y-228821391D01*
X46229463Y-228823904D01*
X46262755Y-228841128D01*
X46879876Y-228224007D01*
X48291260Y-228224007D01*
X49353336Y-229286083D01*
X50415411Y-228224008D01*
X51826795Y-228224008D01*
X52888870Y-229286083D01*
X53950945Y-228224008D01*
X52888870Y-227161933D01*
X51826795Y-228224008D01*
X50415411Y-228224008D01*
X50141499Y-227950096D01*
X49833984Y-227980384D01*
X49830952Y-227980645D01*
X49812610Y-227981998D01*
X49809577Y-227982184D01*
X49785109Y-227983387D01*
X49782069Y-227983500D01*
X49763650Y-227983953D01*
X49760601Y-227983990D01*
X49342239Y-227983990D01*
X49339190Y-227983953D01*
X49320771Y-227983500D01*
X49317731Y-227983387D01*
X49293263Y-227982184D01*
X49290230Y-227981998D01*
X49271888Y-227980645D01*
X49268856Y-227980384D01*
X48852510Y-227939378D01*
X48849477Y-227939041D01*
X48831163Y-227936781D01*
X48828143Y-227936371D01*
X48803911Y-227932774D01*
X48800911Y-227932291D01*
X48782816Y-227929150D01*
X48779831Y-227928594D01*
X48618721Y-227896546D01*
X48291260Y-228224007D01*
X46879876Y-228224007D01*
X45817802Y-227161933D01*
X44755727Y-228224008D01*
X43344341Y-228224008D01*
X43344342Y-228224007D01*
X42282267Y-227161932D01*
X41971456Y-227472743D01*
X40915824Y-227472743D01*
X40643182Y-226456241D01*
X42987960Y-226456241D01*
X44050035Y-227518316D01*
X45112110Y-226456241D01*
X44050035Y-225394166D01*
X42987960Y-226456241D01*
X40643182Y-226456241D01*
X40169039Y-224688473D01*
X41220192Y-224688473D01*
X42282268Y-225750549D01*
X43344343Y-224688474D01*
X42282267Y-223626398D01*
X41220192Y-224688473D01*
X40169039Y-224688473D01*
X39425088Y-221914771D01*
X40458360Y-221914771D01*
X40907598Y-223589683D01*
X41576574Y-222920707D01*
X42987960Y-222920707D01*
X44050034Y-223982781D01*
X44568630Y-223464185D01*
X44548526Y-223260054D01*
X44548265Y-223257022D01*
X44546912Y-223238680D01*
X44546726Y-223235647D01*
X44545523Y-223211179D01*
X44545410Y-223208139D01*
X44544957Y-223189720D01*
X44544920Y-223186671D01*
X44544920Y-222780565D01*
X45542920Y-222780565D01*
X45542920Y-223174415D01*
X45550981Y-223256262D01*
X45581522Y-223566357D01*
X45581525Y-223566374D01*
X45658359Y-223952645D01*
X45772689Y-224329543D01*
X45862897Y-224547323D01*
X45913974Y-224670634D01*
X45923410Y-224693413D01*
X45923412Y-224693418D01*
X46109062Y-225040744D01*
X46109073Y-225040762D01*
X46327874Y-225368221D01*
X46327884Y-225368235D01*
X46577740Y-225672685D01*
X46856224Y-225951169D01*
X46856229Y-225951173D01*
X46856230Y-225951174D01*
X47160680Y-226201030D01*
X47488154Y-226419841D01*
X47488163Y-226419846D01*
X47488165Y-226419847D01*
X47835491Y-226605497D01*
X47835493Y-226605497D01*
X47835499Y-226605501D01*
X48199368Y-226756221D01*
X48576259Y-226870549D01*
X48962542Y-226947386D01*
X49354495Y-226985990D01*
X49354498Y-226985990D01*
X49748342Y-226985990D01*
X49748345Y-226985990D01*
X50140298Y-226947386D01*
X50526581Y-226870549D01*
X50903472Y-226756221D01*
X51267341Y-226605501D01*
X51546586Y-226456241D01*
X53594562Y-226456241D01*
X54656636Y-227518315D01*
X55013805Y-227161146D01*
X55036081Y-227051370D01*
X55037350Y-227045782D01*
X55045803Y-227012175D01*
X55047327Y-227006658D01*
X55060629Y-226962498D01*
X55062408Y-226957049D01*
X55073926Y-226924364D01*
X55075953Y-226919009D01*
X55164648Y-226700122D01*
X55166921Y-226694866D01*
X55181403Y-226663386D01*
X55183918Y-226658236D01*
X55205110Y-226617270D01*
X55207857Y-226612248D01*
X55225187Y-226582229D01*
X55228167Y-226577332D01*
X55355574Y-226378470D01*
X55358772Y-226373722D01*
X55378789Y-226345443D01*
X55382206Y-226340845D01*
X55410562Y-226304472D01*
X55414188Y-226300036D01*
X55436741Y-226273711D01*
X55440568Y-226269448D01*
X55484835Y-226222364D01*
X54656637Y-225394166D01*
X53594562Y-226456241D01*
X51546586Y-226456241D01*
X51614686Y-226419841D01*
X51942160Y-226201030D01*
X52246610Y-225951174D01*
X52525104Y-225672680D01*
X52774960Y-225368230D01*
X52993771Y-225040756D01*
X53179431Y-224693411D01*
X53181476Y-224688474D01*
X55362329Y-224688474D01*
X56328552Y-225654697D01*
X56352393Y-225647114D01*
X56357885Y-225645505D01*
X56592252Y-225582699D01*
X57486477Y-224688474D01*
X58897863Y-224688474D01*
X59115916Y-224906527D01*
X59851961Y-224709305D01*
X59852035Y-224709285D01*
X59852686Y-224709111D01*
X59862972Y-224706356D01*
X59966694Y-224678554D01*
X59972261Y-224677199D01*
X60006115Y-224669782D01*
X60011737Y-224668686D01*
X60057202Y-224660906D01*
X60062870Y-224660070D01*
X60097268Y-224655808D01*
X60102968Y-224655235D01*
X60338434Y-224637053D01*
X60344150Y-224636744D01*
X60378763Y-224635674D01*
X60384487Y-224635629D01*
X60430605Y-224636333D01*
X60436334Y-224636553D01*
X60470954Y-224638685D01*
X60476666Y-224639170D01*
X60711497Y-224664569D01*
X60717178Y-224665317D01*
X60751441Y-224670634D01*
X60757084Y-224671644D01*
X60802286Y-224680816D01*
X60807867Y-224682083D01*
X60841463Y-224690531D01*
X60846984Y-224692055D01*
X60978746Y-224731739D01*
X61022012Y-224688473D01*
X62433396Y-224688473D01*
X63495471Y-225750548D01*
X64557545Y-224688474D01*
X65968930Y-224688474D01*
X67031005Y-225750548D01*
X68093080Y-224688474D01*
X68093079Y-224688473D01*
X69504463Y-224688473D01*
X70338814Y-225522824D01*
X70960967Y-225356119D01*
X70987876Y-225329210D01*
X70932927Y-225300783D01*
X70927905Y-225298036D01*
X70897906Y-225280716D01*
X70893013Y-225277739D01*
X70854179Y-225252859D01*
X70849427Y-225249657D01*
X70821129Y-225229625D01*
X70816530Y-225226207D01*
X70630275Y-225080989D01*
X70625841Y-225077364D01*
X70599525Y-225054817D01*
X70595261Y-225050990D01*
X70561661Y-225019397D01*
X70557580Y-225015377D01*
X70533456Y-224990497D01*
X70529565Y-224986295D01*
X70373164Y-224809327D01*
X70369468Y-224804944D01*
X70347734Y-224777932D01*
X70344248Y-224773389D01*
X70317026Y-224736160D01*
X70313752Y-224731458D01*
X70294620Y-224702582D01*
X70291570Y-224697739D01*
X70170354Y-224495055D01*
X70167527Y-224490072D01*
X70151127Y-224459530D01*
X70148534Y-224454419D01*
X70128617Y-224412823D01*
X70126263Y-224407603D01*
X70112761Y-224375701D01*
X70110652Y-224370378D01*
X70032877Y-224160059D01*
X69504463Y-224688473D01*
X68093079Y-224688473D01*
X67031005Y-223626399D01*
X65968930Y-224688474D01*
X64557545Y-224688474D01*
X64557546Y-224688473D01*
X63792659Y-223923586D01*
X63775762Y-223921078D01*
X63772762Y-223920595D01*
X63754667Y-223917454D01*
X63751683Y-223916898D01*
X63341399Y-223835287D01*
X63338418Y-223834656D01*
X63320465Y-223830624D01*
X63317511Y-223829923D01*
X63297067Y-223824802D01*
X62433396Y-224688473D01*
X61022012Y-224688473D01*
X59959938Y-223626399D01*
X58897863Y-224688474D01*
X57486477Y-224688474D01*
X57486478Y-224688473D01*
X56424404Y-223626399D01*
X55362329Y-224688474D01*
X53181476Y-224688474D01*
X53330151Y-224329542D01*
X53444479Y-223952651D01*
X53521316Y-223566368D01*
X53559920Y-223174415D01*
X53559920Y-222780565D01*
X53521316Y-222388612D01*
X53452925Y-222044791D01*
X54470476Y-222044791D01*
X54502524Y-222205901D01*
X54503080Y-222208886D01*
X54506221Y-222226981D01*
X54506704Y-222229981D01*
X54510301Y-222254213D01*
X54510711Y-222257233D01*
X54512971Y-222275547D01*
X54513308Y-222278580D01*
X54554314Y-222694926D01*
X54554575Y-222697958D01*
X54555928Y-222716300D01*
X54556114Y-222719333D01*
X54557317Y-222743801D01*
X54557430Y-222746841D01*
X54557883Y-222765260D01*
X54557920Y-222768309D01*
X54557920Y-223186671D01*
X54557883Y-223189720D01*
X54557430Y-223208139D01*
X54557317Y-223211179D01*
X54556114Y-223235647D01*
X54555928Y-223238680D01*
X54554575Y-223257022D01*
X54554314Y-223260054D01*
X54513308Y-223676400D01*
X54512971Y-223679433D01*
X54510711Y-223697747D01*
X54510301Y-223700767D01*
X54506704Y-223724999D01*
X54506221Y-223727999D01*
X54503080Y-223746094D01*
X54502524Y-223749079D01*
X54489318Y-223815463D01*
X54656637Y-223982782D01*
X55718712Y-222920707D01*
X57130096Y-222920707D01*
X58192171Y-223982782D01*
X59254246Y-222920707D01*
X59254245Y-222920706D01*
X60665629Y-222920706D01*
X61727704Y-223982781D01*
X62271485Y-223438999D01*
X61978747Y-223282527D01*
X61976079Y-223281059D01*
X61960060Y-223271984D01*
X61957430Y-223270451D01*
X61936419Y-223257857D01*
X61933830Y-223256262D01*
X61918280Y-223246415D01*
X61915729Y-223244755D01*
X61567881Y-223012331D01*
X61565373Y-223010610D01*
X61550309Y-223000001D01*
X61547837Y-222998215D01*
X61528161Y-222983621D01*
X61525740Y-222981778D01*
X61511241Y-222970462D01*
X61508868Y-222968563D01*
X61185497Y-222703179D01*
X61183174Y-222701224D01*
X61169253Y-222689217D01*
X61166973Y-222687202D01*
X61148821Y-222670752D01*
X61146587Y-222668677D01*
X61133237Y-222655967D01*
X61131058Y-222653840D01*
X61031777Y-222554559D01*
X60665629Y-222920706D01*
X59254245Y-222920706D01*
X58192171Y-221858632D01*
X57130096Y-222920707D01*
X55718712Y-222920707D01*
X54656636Y-221858631D01*
X54470476Y-222044791D01*
X53452925Y-222044791D01*
X53444479Y-222002329D01*
X53330151Y-221625438D01*
X53179431Y-221261569D01*
X53121367Y-221152940D01*
X55362329Y-221152940D01*
X56424404Y-222215015D01*
X57486479Y-221152940D01*
X57486478Y-221152939D01*
X58897862Y-221152939D01*
X59959937Y-222215014D01*
X60387426Y-221787525D01*
X60244310Y-221573335D01*
X60242650Y-221570785D01*
X60232803Y-221555235D01*
X60231208Y-221552646D01*
X60218614Y-221531635D01*
X60217081Y-221529005D01*
X60208006Y-221512986D01*
X60206538Y-221510318D01*
X60009327Y-221141363D01*
X60007925Y-221138660D01*
X59999643Y-221122206D01*
X59998307Y-221119470D01*
X59987834Y-221097325D01*
X59986567Y-221094559D01*
X59979112Y-221077740D01*
X59977914Y-221074945D01*
X59817822Y-220688450D01*
X59816692Y-220685624D01*
X59810068Y-220668452D01*
X59809007Y-220665599D01*
X59800754Y-220642533D01*
X59799765Y-220639658D01*
X59793989Y-220622175D01*
X59793069Y-220619271D01*
X59708923Y-220341878D01*
X58897862Y-221152939D01*
X57486478Y-221152939D01*
X56424404Y-220090865D01*
X55362329Y-221152940D01*
X53121367Y-221152940D01*
X53115179Y-221141363D01*
X52993777Y-220914235D01*
X52993776Y-220914233D01*
X52993771Y-220914224D01*
X52774960Y-220586750D01*
X52525104Y-220282300D01*
X52525103Y-220282299D01*
X52525099Y-220282294D01*
X52246615Y-220003810D01*
X51942165Y-219753954D01*
X51942164Y-219753953D01*
X51942160Y-219753950D01*
X51614686Y-219535139D01*
X51614681Y-219535136D01*
X51614674Y-219535132D01*
X51334121Y-219385173D01*
X53594562Y-219385173D01*
X54656637Y-220447248D01*
X55718712Y-219385173D01*
X57130096Y-219385173D01*
X58192171Y-220447248D01*
X59254246Y-219385173D01*
X58192171Y-218323098D01*
X57130096Y-219385173D01*
X55718712Y-219385173D01*
X54656637Y-218323098D01*
X53594562Y-219385173D01*
X51334121Y-219385173D01*
X51267348Y-219349482D01*
X51267343Y-219349480D01*
X50903473Y-219198759D01*
X50526575Y-219084429D01*
X50140304Y-219007595D01*
X50140287Y-219007592D01*
X49843889Y-218978400D01*
X49748345Y-218968990D01*
X49354495Y-218968990D01*
X49266131Y-218977693D01*
X48962552Y-219007592D01*
X48962535Y-219007595D01*
X48576264Y-219084429D01*
X48199366Y-219198759D01*
X47835496Y-219349480D01*
X47835491Y-219349482D01*
X47488165Y-219535132D01*
X47488147Y-219535143D01*
X47160688Y-219753944D01*
X47160674Y-219753954D01*
X46856224Y-220003810D01*
X46577740Y-220282294D01*
X46327884Y-220586744D01*
X46327874Y-220586758D01*
X46109073Y-220914217D01*
X46109062Y-220914235D01*
X45923412Y-221261561D01*
X45923410Y-221261566D01*
X45772689Y-221625436D01*
X45658359Y-222002334D01*
X45581525Y-222388605D01*
X45581522Y-222388622D01*
X45552449Y-222683812D01*
X45542920Y-222780565D01*
X44544920Y-222780565D01*
X44544920Y-222768309D01*
X44544957Y-222765260D01*
X44545410Y-222746841D01*
X44545523Y-222743801D01*
X44546726Y-222719333D01*
X44546912Y-222716300D01*
X44548265Y-222697958D01*
X44548526Y-222694926D01*
X44578812Y-222387409D01*
X44050035Y-221858632D01*
X42987960Y-222920707D01*
X41576574Y-222920707D01*
X41576575Y-222920706D01*
X40514500Y-221858631D01*
X40458360Y-221914771D01*
X39425088Y-221914771D01*
X39220753Y-221152940D01*
X41220193Y-221152940D01*
X42282268Y-222215015D01*
X43344343Y-221152940D01*
X42282268Y-220090865D01*
X41220193Y-221152940D01*
X39220753Y-221152940D01*
X38677355Y-219126969D01*
X39710628Y-219126969D01*
X39899902Y-219832649D01*
X40514501Y-220447248D01*
X41576576Y-219385173D01*
X42987960Y-219385173D01*
X44050035Y-220447248D01*
X45112110Y-219385173D01*
X44050035Y-218323098D01*
X42987960Y-219385173D01*
X41576576Y-219385173D01*
X40514500Y-218323097D01*
X39710628Y-219126969D01*
X38677355Y-219126969D01*
X38272466Y-217617406D01*
X41220193Y-217617406D01*
X42282268Y-218679481D01*
X43344343Y-217617406D01*
X44755727Y-217617406D01*
X45817802Y-218679481D01*
X46879877Y-217617406D01*
X48291261Y-217617406D01*
X48713445Y-218039590D01*
X48779832Y-218026386D01*
X48782816Y-218025830D01*
X48800911Y-218022689D01*
X48803911Y-218022206D01*
X48828143Y-218018609D01*
X48831163Y-218018199D01*
X48849477Y-218015939D01*
X48852510Y-218015602D01*
X49268856Y-217974596D01*
X49271888Y-217974335D01*
X49290230Y-217972982D01*
X49293263Y-217972796D01*
X49317731Y-217971593D01*
X49320771Y-217971480D01*
X49339190Y-217971027D01*
X49342239Y-217970990D01*
X49760601Y-217970990D01*
X49763650Y-217971027D01*
X49782069Y-217971480D01*
X49785109Y-217971593D01*
X49809577Y-217972796D01*
X49812610Y-217972982D01*
X49830952Y-217974335D01*
X49833984Y-217974596D01*
X50038115Y-217994700D01*
X50415409Y-217617406D01*
X51826795Y-217617406D01*
X52888870Y-218679481D01*
X53950945Y-217617406D01*
X55362329Y-217617406D01*
X56424404Y-218679481D01*
X57486479Y-217617406D01*
X58897863Y-217617406D01*
X59560123Y-218279666D01*
X59561383Y-218266884D01*
X59561720Y-218263851D01*
X59563980Y-218245537D01*
X59564390Y-218242517D01*
X59567987Y-218218285D01*
X59568470Y-218215285D01*
X59571611Y-218197190D01*
X59572167Y-218194206D01*
X59653778Y-217783922D01*
X59654409Y-217780941D01*
X59658441Y-217762988D01*
X59659142Y-217760034D01*
X59665093Y-217736273D01*
X59665868Y-217733332D01*
X59670779Y-217715583D01*
X59671628Y-217712655D01*
X59793069Y-217312317D01*
X59793989Y-217309413D01*
X59799765Y-217291930D01*
X59800754Y-217289055D01*
X59809007Y-217265989D01*
X59810068Y-217263136D01*
X59816692Y-217245964D01*
X59817822Y-217243138D01*
X59977914Y-216856643D01*
X59979112Y-216853848D01*
X59986567Y-216837029D01*
X59987834Y-216834263D01*
X59998307Y-216812118D01*
X59999643Y-216809382D01*
X60007925Y-216792928D01*
X60009327Y-216790225D01*
X60073943Y-216669336D01*
X59959938Y-216555331D01*
X58897863Y-217617406D01*
X57486479Y-217617406D01*
X56424404Y-216555331D01*
X55362329Y-217617406D01*
X53950945Y-217617406D01*
X52888870Y-216555331D01*
X51826795Y-217617406D01*
X50415409Y-217617406D01*
X50415410Y-217617405D01*
X49353336Y-216555331D01*
X48291261Y-217617406D01*
X46879877Y-217617406D01*
X45817802Y-216555331D01*
X44755727Y-217617406D01*
X43344343Y-217617406D01*
X42282268Y-216555331D01*
X41220193Y-217617406D01*
X38272466Y-217617406D01*
X37798323Y-215849639D01*
X39452426Y-215849639D01*
X40514501Y-216911714D01*
X41576576Y-215849639D01*
X41576575Y-215849638D01*
X42987959Y-215849638D01*
X44050035Y-216911714D01*
X44918193Y-216043556D01*
X46717411Y-216043556D01*
X47585568Y-216911713D01*
X48453648Y-216043633D01*
X50253022Y-216043633D01*
X51121102Y-216911713D01*
X51989104Y-216043711D01*
X53788634Y-216043711D01*
X54656636Y-216911713D01*
X55524560Y-216043789D01*
X57324246Y-216043789D01*
X58192170Y-216911713D01*
X59060055Y-216043828D01*
X57324246Y-216043789D01*
X55524560Y-216043789D01*
X55524599Y-216043750D01*
X53788634Y-216043711D01*
X51989104Y-216043711D01*
X51989143Y-216043672D01*
X50253022Y-216043633D01*
X48453648Y-216043633D01*
X48453687Y-216043594D01*
X46717411Y-216043556D01*
X44918193Y-216043556D01*
X45112110Y-215849639D01*
X44759156Y-215496685D01*
X44509921Y-215324682D01*
X44506873Y-215322510D01*
X44488621Y-215309083D01*
X44485635Y-215306816D01*
X44461904Y-215288227D01*
X44458993Y-215285875D01*
X44441593Y-215271377D01*
X44438752Y-215268936D01*
X44187511Y-215046403D01*
X44184746Y-215043879D01*
X44168243Y-215028348D01*
X44165550Y-215025735D01*
X44144233Y-215004421D01*
X44141630Y-215001739D01*
X44126108Y-214985254D01*
X44123582Y-214982489D01*
X43997447Y-214840150D01*
X42987959Y-215849638D01*
X41576575Y-215849638D01*
X40514501Y-214787564D01*
X39452426Y-215849639D01*
X37798323Y-215849639D01*
X37181890Y-213551365D01*
X38215164Y-213551365D01*
X38604048Y-215001261D01*
X38746734Y-215143947D01*
X39808809Y-214081872D01*
X41220193Y-214081872D01*
X42282268Y-215143947D01*
X43344343Y-214081872D01*
X42282268Y-213019797D01*
X41220193Y-214081872D01*
X39808809Y-214081872D01*
X38746733Y-213019796D01*
X38215164Y-213551365D01*
X37181890Y-213551365D01*
X36850037Y-212314105D01*
X39452426Y-212314105D01*
X40514501Y-213376180D01*
X41576576Y-212314105D01*
X40514501Y-211252030D01*
X39452426Y-212314105D01*
X36850037Y-212314105D01*
X36443458Y-210798238D01*
X41472093Y-210798238D01*
X42282268Y-211608413D01*
X43344343Y-210546338D01*
X43199553Y-210401548D01*
X44900516Y-210401548D01*
X45080218Y-210384897D01*
X45085931Y-210384500D01*
X45120551Y-210382899D01*
X45126279Y-210382767D01*
X45172401Y-210382767D01*
X45178129Y-210382899D01*
X45212749Y-210384500D01*
X45218462Y-210384897D01*
X45453633Y-210406689D01*
X45459323Y-210407349D01*
X45493655Y-210412138D01*
X45499313Y-210413061D01*
X45544648Y-210421537D01*
X45550249Y-210422719D01*
X45583974Y-210430651D01*
X45589517Y-210432090D01*
X45816670Y-210496719D01*
X45822142Y-210498414D01*
X45855001Y-210509427D01*
X45860390Y-210511373D01*
X45903399Y-210528035D01*
X45908691Y-210530227D01*
X45940398Y-210544227D01*
X45945584Y-210546661D01*
X46156996Y-210651932D01*
X46162063Y-210654603D01*
X46192331Y-210671462D01*
X46197266Y-210674362D01*
X46236481Y-210698641D01*
X46241283Y-210701770D01*
X46269883Y-210721361D01*
X46274534Y-210724707D01*
X46463008Y-210867037D01*
X46467499Y-210870594D01*
X46494156Y-210892730D01*
X46498475Y-210896489D01*
X46514822Y-210911391D01*
X46625840Y-210800374D01*
X46625840Y-210292301D01*
X45817802Y-209484263D01*
X44900516Y-210401548D01*
X43199553Y-210401548D01*
X42683802Y-209885797D01*
X42492213Y-210077386D01*
X42490034Y-210079513D01*
X42476684Y-210092223D01*
X42474450Y-210094298D01*
X42456298Y-210110748D01*
X42454018Y-210112763D01*
X42440097Y-210124770D01*
X42437774Y-210126725D01*
X42114403Y-210392109D01*
X42112030Y-210394008D01*
X42097531Y-210405324D01*
X42095110Y-210407167D01*
X42075434Y-210421761D01*
X42072962Y-210423547D01*
X42057898Y-210434156D01*
X42055390Y-210435877D01*
X41707542Y-210668301D01*
X41704991Y-210669961D01*
X41689441Y-210679808D01*
X41686852Y-210681403D01*
X41665841Y-210693997D01*
X41663211Y-210695530D01*
X41647192Y-210704605D01*
X41644524Y-210706073D01*
X41472093Y-210798238D01*
X36443458Y-210798238D01*
X36167708Y-209770149D01*
X36167130Y-209767908D01*
X36062454Y-209346251D01*
X36065406Y-209276447D01*
X36105631Y-209219318D01*
X36170356Y-209193004D01*
X36239033Y-209205861D01*
X36270482Y-209228697D01*
X36404804Y-209363019D01*
X36404809Y-209363023D01*
X36404810Y-209363024D01*
X36709260Y-209612880D01*
X37036734Y-209831691D01*
X37036743Y-209831696D01*
X37036745Y-209831697D01*
X37384071Y-210017347D01*
X37384073Y-210017347D01*
X37384079Y-210017351D01*
X37747948Y-210168071D01*
X38124839Y-210282399D01*
X38511122Y-210359236D01*
X38903075Y-210397840D01*
X38903078Y-210397840D01*
X39296922Y-210397840D01*
X39296925Y-210397840D01*
X39688878Y-210359236D01*
X40075161Y-210282399D01*
X40452052Y-210168071D01*
X40815921Y-210017351D01*
X41163266Y-209831691D01*
X41490740Y-209612880D01*
X41795190Y-209363024D01*
X42057812Y-209100402D01*
X43309791Y-209100402D01*
X44050035Y-209840646D01*
X45112110Y-208778571D01*
X44050034Y-207716495D01*
X43876570Y-207889960D01*
X43830202Y-208042817D01*
X43829282Y-208045721D01*
X43823506Y-208063204D01*
X43822517Y-208066079D01*
X43814264Y-208089145D01*
X43813203Y-208091998D01*
X43806579Y-208109170D01*
X43805449Y-208111996D01*
X43645357Y-208498491D01*
X43644159Y-208501286D01*
X43636704Y-208518105D01*
X43635437Y-208520871D01*
X43624964Y-208543016D01*
X43623628Y-208545752D01*
X43615346Y-208562206D01*
X43613944Y-208564909D01*
X43416733Y-208933864D01*
X43415265Y-208936532D01*
X43406190Y-208952551D01*
X43404657Y-208955181D01*
X43392063Y-208976192D01*
X43390468Y-208978781D01*
X43380621Y-208994331D01*
X43378961Y-208996882D01*
X43309791Y-209100402D01*
X42057812Y-209100402D01*
X42073684Y-209084530D01*
X42323540Y-208780080D01*
X42542351Y-208452606D01*
X42728011Y-208105261D01*
X42878731Y-207741392D01*
X42993059Y-207364501D01*
X43063414Y-207010804D01*
X44755727Y-207010804D01*
X45817802Y-208072879D01*
X46625840Y-207264841D01*
X46625840Y-206756767D01*
X45817802Y-205948729D01*
X44755727Y-207010804D01*
X43063414Y-207010804D01*
X43069896Y-206978218D01*
X43108500Y-206586265D01*
X43108500Y-206192415D01*
X43069896Y-205800462D01*
X42993059Y-205414179D01*
X42878731Y-205037288D01*
X42728011Y-204673419D01*
X42633271Y-204496174D01*
X43734821Y-204496174D01*
X43805449Y-204666684D01*
X43806579Y-204669510D01*
X43813203Y-204686682D01*
X43814264Y-204689535D01*
X43822517Y-204712601D01*
X43823506Y-204715476D01*
X43829282Y-204732959D01*
X43830202Y-204735863D01*
X43951643Y-205136201D01*
X43952492Y-205139129D01*
X43957403Y-205156878D01*
X43958178Y-205159819D01*
X43964129Y-205183580D01*
X43964830Y-205186534D01*
X43968862Y-205204487D01*
X43969493Y-205207468D01*
X44051104Y-205617752D01*
X44051660Y-205620736D01*
X44054801Y-205638831D01*
X44055284Y-205641831D01*
X44058881Y-205666063D01*
X44059291Y-205669083D01*
X44061551Y-205687397D01*
X44061888Y-205690430D01*
X44102894Y-206106776D01*
X44103155Y-206109808D01*
X44104508Y-206128150D01*
X44104694Y-206131183D01*
X44105897Y-206155651D01*
X44106010Y-206158691D01*
X44106463Y-206177110D01*
X44106500Y-206180159D01*
X44106500Y-206248647D01*
X45112110Y-205243037D01*
X44050034Y-204180961D01*
X43734821Y-204496174D01*
X42633271Y-204496174D01*
X42542357Y-204326085D01*
X42542356Y-204326083D01*
X42542351Y-204326074D01*
X42323540Y-203998600D01*
X42073684Y-203694150D01*
X42073683Y-203694149D01*
X42073679Y-203694144D01*
X41854805Y-203475270D01*
X44755727Y-203475270D01*
X45817802Y-204537345D01*
X46625840Y-203729307D01*
X46625840Y-203221233D01*
X45817802Y-202413195D01*
X44755727Y-203475270D01*
X41854805Y-203475270D01*
X41795195Y-203415660D01*
X41490745Y-203165804D01*
X41490744Y-203165803D01*
X41490740Y-203165800D01*
X41163266Y-202946989D01*
X41163261Y-202946986D01*
X41163254Y-202946982D01*
X40815928Y-202761332D01*
X40815923Y-202761330D01*
X40452053Y-202610609D01*
X40075155Y-202496279D01*
X39688884Y-202419445D01*
X39688867Y-202419442D01*
X39392469Y-202390250D01*
X39296925Y-202380840D01*
X38903075Y-202380840D01*
X38814711Y-202389543D01*
X38511132Y-202419442D01*
X38511115Y-202419445D01*
X38124844Y-202496279D01*
X37747946Y-202610609D01*
X37384076Y-202761330D01*
X37384071Y-202761332D01*
X37036745Y-202946982D01*
X37036727Y-202946993D01*
X36709268Y-203165794D01*
X36709254Y-203165804D01*
X36404804Y-203415660D01*
X36126320Y-203694144D01*
X35876464Y-203998594D01*
X35876454Y-203998608D01*
X35712602Y-204243831D01*
X35658990Y-204288636D01*
X35589665Y-204297343D01*
X35526638Y-204267189D01*
X35489918Y-204207746D01*
X35485500Y-204174940D01*
X35485500Y-201140895D01*
X36483500Y-201140895D01*
X36483500Y-202116364D01*
X36492459Y-202110378D01*
X36495009Y-202108719D01*
X36510559Y-202098872D01*
X36513148Y-202097277D01*
X36534159Y-202084683D01*
X36536789Y-202083150D01*
X36552808Y-202074075D01*
X36555476Y-202072607D01*
X36924431Y-201875396D01*
X36927134Y-201873994D01*
X36943588Y-201865712D01*
X36946324Y-201864376D01*
X36968469Y-201853903D01*
X36971235Y-201852636D01*
X36988054Y-201845181D01*
X36990849Y-201843983D01*
X37377344Y-201683891D01*
X37380170Y-201682761D01*
X37397342Y-201676137D01*
X37400195Y-201675076D01*
X37423261Y-201666823D01*
X37426136Y-201665834D01*
X37443619Y-201660058D01*
X37446523Y-201659138D01*
X37846861Y-201537697D01*
X37849789Y-201536848D01*
X37865922Y-201532383D01*
X37755034Y-201421495D01*
X39738432Y-201421495D01*
X39798910Y-201427452D01*
X39801943Y-201427789D01*
X39820257Y-201430049D01*
X39823277Y-201430459D01*
X39847509Y-201434056D01*
X39850509Y-201434539D01*
X39868604Y-201437680D01*
X39871588Y-201438236D01*
X40281872Y-201519847D01*
X40284853Y-201520478D01*
X40302806Y-201524510D01*
X40305760Y-201525211D01*
X40329521Y-201531162D01*
X40332462Y-201531937D01*
X40350211Y-201536848D01*
X40353139Y-201537697D01*
X40753477Y-201659138D01*
X40756381Y-201660058D01*
X40773864Y-201665834D01*
X40776739Y-201666823D01*
X40799805Y-201675076D01*
X40802658Y-201676137D01*
X40819830Y-201682761D01*
X40822656Y-201683891D01*
X41209151Y-201843983D01*
X41211946Y-201845181D01*
X41228765Y-201852636D01*
X41231531Y-201853903D01*
X41253676Y-201864376D01*
X41256412Y-201865712D01*
X41272866Y-201873994D01*
X41275569Y-201875396D01*
X41362315Y-201921762D01*
X41576575Y-201707502D01*
X42987959Y-201707502D01*
X44050034Y-202769577D01*
X44492131Y-202327480D01*
X44482010Y-202324601D01*
X44476538Y-202322906D01*
X44443679Y-202311893D01*
X44438290Y-202309947D01*
X44395281Y-202293285D01*
X44389989Y-202291093D01*
X44358282Y-202277093D01*
X44353096Y-202274659D01*
X44141684Y-202169388D01*
X44136617Y-202166717D01*
X44106349Y-202149858D01*
X44101414Y-202146958D01*
X44062199Y-202122679D01*
X44057397Y-202119550D01*
X44028797Y-202099959D01*
X44024146Y-202096613D01*
X43835672Y-201954283D01*
X43831181Y-201950726D01*
X43804524Y-201928590D01*
X43800205Y-201924831D01*
X43766121Y-201893760D01*
X43761977Y-201889803D01*
X43737468Y-201865294D01*
X43733512Y-201861151D01*
X43574403Y-201686617D01*
X43570643Y-201682297D01*
X43548507Y-201655640D01*
X43544951Y-201651151D01*
X43517156Y-201614346D01*
X43513809Y-201609693D01*
X43494220Y-201581096D01*
X43491093Y-201576298D01*
X43366766Y-201375503D01*
X43363867Y-201370569D01*
X43349923Y-201345538D01*
X42987959Y-201707502D01*
X41576575Y-201707502D01*
X40514500Y-200645428D01*
X39738432Y-201421495D01*
X37755034Y-201421495D01*
X36978966Y-200645428D01*
X36483500Y-201140895D01*
X35485500Y-201140895D01*
X35485500Y-199939736D01*
X37684659Y-199939736D01*
X38746734Y-201001811D01*
X39808808Y-199939736D01*
X41220193Y-199939736D01*
X42282267Y-201001810D01*
X43125910Y-200158167D01*
X43125937Y-200068580D01*
X43125974Y-199930094D01*
X43126042Y-199926034D01*
X43126852Y-199901506D01*
X43127051Y-199897459D01*
X43129195Y-199864867D01*
X43129529Y-199860818D01*
X43131942Y-199836390D01*
X43132406Y-199832362D01*
X43144592Y-199739985D01*
X42708606Y-199304000D01*
X41855930Y-199304000D01*
X41220193Y-199939736D01*
X39808808Y-199939736D01*
X39173072Y-199304000D01*
X38320396Y-199304000D01*
X37684659Y-199939736D01*
X35485500Y-199939736D01*
X35485500Y-198304000D01*
X35505185Y-198236961D01*
X35557989Y-198191206D01*
X35609500Y-198180000D01*
X44933065Y-198180000D01*
X45000104Y-198199685D01*
G37*
G04 #@! TD.AperFunction*
M02*
