M48
; DRILL file {KiCad 9.0.2} date 2026-03-17T14:20:47-0400
; FORMAT={-:-/ absolute / metric / decimal}
; #@! TF.CreationDate,2026-03-17T14:20:47-04:00
; #@! TF.GenerationSoftware,Kicad,Pcbnew,9.0.2
; #@! TF.FileFunction,Plated,1,2,PTH
FMAT,2
METRIC
; #@! TA.AperFunction,Plated,PTH,ComponentDrill
T1C1.000
; #@! TA.AperFunction,Plated,PTH,ComponentDrill
T2C3.500
%
G90
G05
T1
X33.6Y-161.39
X33.6Y-163.93
X33.6Y-166.47
X33.6Y-169.01
X48.996Y-227.447
X51.298Y-226.373
X53.6Y-225.3
X55.902Y-224.227
X83.69Y-246.95
X86.23Y-246.95
X88.77Y-246.95
X91.31Y-246.95
X109.148Y-157.0
X111.688Y-157.0
X114.228Y-157.0
X116.768Y-157.0
X131.168Y-250.0
X133.708Y-250.0
X136.248Y-250.0
X138.788Y-250.0
X155.838Y-166.0
X158.378Y-166.0
X160.918Y-166.0
X163.458Y-166.0
X166.968Y-202.42
X166.968Y-204.96
X166.968Y-207.5
X166.968Y-210.04
T2
X36.9Y-206.4
X85.768Y-162.2
X111.068Y-244.3
X137.368Y-168.7
X164.5Y-247.6
M30
