M48
; DRILL file {KiCad 9.0.2} date 2026-03-06T21:55:19-0500
; FORMAT={-:-/ absolute / metric / decimal}
; #@! TF.CreationDate,2026-03-06T21:55:19-05:00
; #@! TF.GenerationSoftware,Kicad,Pcbnew,9.0.2
; #@! TF.FileFunction,Plated,1,2,PTH
FMAT,2
METRIC
; #@! TA.AperFunction,Plated,PTH,ComponentDrill
T1C1.000
; #@! TA.AperFunction,Plated,PTH,ComponentDrill
T2C3.500
%
G90
G05
T1
X33.6Y-161.39
X33.6Y-163.93
X33.6Y-166.47
X33.6Y-169.01
X48.996Y-227.447
X51.298Y-226.373
X53.6Y-225.3
X55.902Y-224.227
X83.69Y-246.95
X86.23Y-246.95
X88.77Y-246.95
X91.31Y-246.95
X99.148Y-157.0
X101.688Y-157.0
X104.228Y-157.0
X106.768Y-157.0
X125.668Y-247.0
X128.208Y-247.0
X130.748Y-247.0
X133.288Y-247.0
X148.338Y-163.0
X150.878Y-163.0
X153.418Y-163.0
X155.958Y-163.0
X164.468Y-199.42
X164.468Y-201.96
X164.468Y-204.5
X164.468Y-207.04
T2
X36.9Y-206.4
X85.768Y-162.2
X103.068Y-241.3
X134.868Y-165.7
X162.0Y-244.6
M30
