M48
; DRILL file {KiCad 9.0.2} date 2026-01-01T18:22:34-0500
; FORMAT={-:-/ absolute / metric / decimal}
; #@! TF.CreationDate,2026-01-01T18:22:34-05:00
; #@! TF.GenerationSoftware,Kicad,Pcbnew,9.0.2
; #@! TF.FileFunction,Plated,1,2,PTH
FMAT,2
METRIC
; #@! TA.AperFunction,Plated,PTH,ComponentDrill
T1C1.000
; #@! TA.AperFunction,Plated,PTH,ComponentDrill
T2C3.500
%
G90
G05
T1
X39.6Y-152.39
X39.6Y-154.93
X39.6Y-157.47
X39.6Y-160.01
X50.996Y-206.447
X53.298Y-205.373
X55.6Y-204.3
X57.902Y-203.227
X83.69Y-220.95
X86.23Y-220.95
X88.77Y-220.95
X91.31Y-220.95
X99.148Y-143.0
X101.688Y-143.0
X104.228Y-143.0
X106.768Y-143.0
X132.668Y-221.0
X135.208Y-221.0
X137.748Y-221.0
X140.288Y-221.0
X148.338Y-149.0
X150.878Y-149.0
X153.418Y-149.0
X155.958Y-149.0
X164.468Y-179.42
X164.468Y-181.96
X164.468Y-184.5
X164.468Y-187.04
T2
X42.9Y-186.4
X85.768Y-148.2
X103.068Y-215.3
X134.868Y-151.7
X152.0Y-218.6
M30
