G04 #@! TF.GenerationSoftware,KiCad,Pcbnew,9.0.2*
G04 #@! TF.CreationDate,2026-06-11T16:31:23-04:00*
G04 #@! TF.ProjectId,ThumbsUp,5468756d-6273-4557-902e-6b696361645f,rev?*
G04 #@! TF.SameCoordinates,Original*
G04 #@! TF.FileFunction,Profile,NP*
%FSLAX46Y46*%
G04 Gerber Fmt 4.6, Leading zero omitted, Abs format (unit mm)*
G04 Created by KiCad (PCBNEW 9.0.2) date 2026-06-11 16:31:23*
%MOMM*%
%LPD*%
G01*
G04 APERTURE LIST*
G04 #@! TA.AperFunction,Profile*
%ADD10C,0.050000*%
G04 #@! TD*
G04 APERTURE END LIST*
D10*
X160468300Y-174500000D02*
X160470000Y-174500000D01*
X127468300Y-169500000D02*
G75*
G02*
X126968300Y-170000000I-500000J0D01*
G01*
X87468300Y-174000000D02*
X81468300Y-174000000D01*
X40893197Y-227486816D02*
X36142771Y-209775605D01*
X46649340Y-199910660D02*
X47149340Y-199910660D01*
X147968300Y-177000000D02*
G75*
G02*
X148468300Y-176500000I500000J0D01*
G01*
X93468300Y-172500000D02*
G75*
G02*
X93968300Y-173000000I0J-500000D01*
G01*
X138968300Y-178000000D02*
X132968300Y-178000000D01*
X51847183Y-231537252D02*
X46051627Y-233090165D01*
X46051627Y-233090165D02*
G75*
G02*
X45439232Y-232736617I-129427J482965D01*
G01*
X120968300Y-170000000D02*
X126968300Y-170000000D01*
X80968300Y-173000000D02*
X80968300Y-173500000D01*
X148468300Y-174500000D02*
X147200000Y-174500000D01*
X138968300Y-178000000D02*
X144968300Y-178000000D01*
X72838732Y-224877307D02*
X72968143Y-225360269D01*
X60281696Y-228241954D02*
X60411105Y-228724916D01*
X72226361Y-224523753D02*
G75*
G02*
X71708716Y-222591880I-258761J965953D01*
G01*
X102968300Y-165000000D02*
X96968300Y-165000000D01*
X57254510Y-228535447D02*
G75*
G02*
X56736864Y-226603560I-258810J965947D01*
G01*
X93968300Y-173000000D02*
X93968300Y-173500000D01*
X160468300Y-176500000D02*
G75*
G02*
X160468300Y-174500000I0J1000000D01*
G01*
X153429753Y-165850000D02*
G75*
G02*
X144984550Y-163979472I47J20000000D01*
G01*
X114968300Y-166500000D02*
G75*
G02*
X112968300Y-164500000I0J2000000D01*
G01*
X144968300Y-176500000D02*
G75*
G02*
X144968300Y-174500000I0J1000000D01*
G01*
X96468300Y-164000000D02*
X96468300Y-164500000D01*
X44149434Y-200079434D02*
X44149340Y-200410660D01*
X146200000Y-174500000D02*
X147200000Y-174500000D01*
X94468300Y-169500000D02*
G75*
G02*
X93468300Y-170500000I-1000000J0D01*
G01*
X79468401Y-173078401D02*
G75*
G02*
X54468401Y-198080001I-25000001J-1599D01*
G01*
X127468300Y-169000000D02*
X127468300Y-169500000D01*
X148468300Y-178000000D02*
G75*
G02*
X147968300Y-177500000I0J500000D01*
G01*
X44149340Y-212410660D02*
G75*
G02*
X46149340Y-212410660I1000000J0D01*
G01*
X67699964Y-215020522D02*
X46649313Y-215020055D01*
X147968300Y-177000000D02*
X147968300Y-177500000D01*
X43791253Y-229709638D02*
G75*
G02*
X40893187Y-227486819I-453J3000038D01*
G01*
X144984541Y-163979490D02*
X123810048Y-154115832D01*
X79468300Y-171500000D02*
G75*
G02*
X80468300Y-170500000I1000000J0D01*
G01*
X60117613Y-225697730D02*
X58668723Y-226085958D01*
X109468300Y-164500000D02*
G75*
G02*
X108968300Y-165000000I-500000J0D01*
G01*
X158470000Y-165850000D02*
G75*
G02*
X163470000Y-170850000I0J-5000000D01*
G01*
X81468300Y-170500000D02*
G75*
G02*
X81468300Y-172500000I0J-1000000D01*
G01*
X81468300Y-174000000D02*
G75*
G02*
X80968300Y-173500000I0J500000D01*
G01*
X120968300Y-170000000D02*
X114968300Y-170000000D01*
X61023478Y-229078468D02*
G75*
G02*
X60411140Y-228724907I-129378J482968D01*
G01*
X96468300Y-161500000D02*
X96968300Y-161500000D01*
X118320660Y-152900000D02*
G75*
G02*
X123810055Y-154115817I40J-13000000D01*
G01*
X108968300Y-161500000D02*
X110968300Y-161500000D01*
X81814114Y-154285422D02*
G75*
G02*
X76327418Y-155499984I-5486614J11785222D01*
G01*
X93968300Y-173500000D02*
G75*
G02*
X93468300Y-174000000I-500000J0D01*
G01*
X118320700Y-152900000D02*
X87667782Y-152900000D01*
X67699964Y-215020521D02*
G75*
G02*
X72699979Y-220020521I36J-4999979D01*
G01*
X96968300Y-165000000D02*
G75*
G02*
X96468300Y-164500000I0J500000D01*
G01*
X47649340Y-212410660D02*
G75*
G02*
X47149340Y-212910740I-500040J-40D01*
G01*
X108968300Y-163500000D02*
G75*
G02*
X108968300Y-161500000I0J1000000D01*
G01*
X87468300Y-174000000D02*
X93468300Y-174000000D01*
X47649340Y-206410660D02*
X47649340Y-200410660D01*
X72700000Y-221552015D02*
G75*
G02*
X71982474Y-222511275I-1000000J15D01*
G01*
X126968300Y-168500000D02*
G75*
G02*
X127468300Y-169000000I0J-500000D01*
G01*
X114968300Y-166500000D02*
G75*
G02*
X114968300Y-168500000I0J-1000000D01*
G01*
X114468300Y-169000000D02*
X114468300Y-169500000D01*
X132900000Y-174500000D02*
X132968300Y-174500000D01*
X163470000Y-171500000D02*
X163470000Y-170850000D01*
X66819033Y-227525556D02*
X72614588Y-225972641D01*
X160968300Y-177000000D02*
X160968300Y-177500000D01*
X46149340Y-200410660D02*
G75*
G02*
X44149340Y-200410660I-1000000J0D01*
G01*
X94468300Y-169500000D02*
X94468300Y-163500000D01*
X44149340Y-212410660D02*
X44149368Y-212520687D01*
X154468300Y-178000000D02*
X160468300Y-178000000D01*
X60117613Y-225697730D02*
G75*
G02*
X60635233Y-227629511I258887J-965870D01*
G01*
X60281696Y-228241954D02*
G75*
G02*
X60635262Y-227629619I483004J129354D01*
G01*
X145100000Y-174500000D02*
X146200000Y-174500000D01*
X145468300Y-177000000D02*
X145468300Y-177500000D01*
X96468300Y-164000000D02*
G75*
G02*
X96968300Y-163500000I500000J0D01*
G01*
X51847183Y-231537252D02*
X57642738Y-229984337D01*
X71708722Y-222591902D02*
X71982478Y-222511289D01*
X46649313Y-215020055D02*
G75*
G02*
X44149345Y-212520687I87J2500055D01*
G01*
X112968300Y-163500000D02*
X112968300Y-164500000D01*
X94468300Y-163500000D02*
G75*
G02*
X96468300Y-161500000I2000000J0D01*
G01*
X132968300Y-174500000D02*
G75*
G02*
X132968300Y-176500000I0J-1000000D01*
G01*
X144968300Y-176500000D02*
G75*
G02*
X145468300Y-177000000I0J-500000D01*
G01*
X72226361Y-224523753D02*
G75*
G02*
X72838757Y-224877300I129439J-482947D01*
G01*
X46149434Y-198080000D02*
X54468401Y-198080000D01*
X126968300Y-168500000D02*
G75*
G02*
X126968300Y-166500000I0J1000000D01*
G01*
X160468300Y-176500000D02*
G75*
G02*
X160968300Y-177000000I0J-500000D01*
G01*
X57866881Y-228889001D02*
X57996292Y-229371965D01*
X82181086Y-154114578D02*
X81814114Y-154285422D01*
X144968300Y-174500000D02*
X145100000Y-174500000D01*
X130900000Y-166500000D02*
G75*
G02*
X131900000Y-167500000I0J-1000000D01*
G01*
X46649340Y-212910660D02*
G75*
G02*
X46149340Y-212410660I-40J499960D01*
G01*
X47149340Y-199910660D02*
G75*
G02*
X47649340Y-200410660I-40J-500040D01*
G01*
X132968300Y-178000000D02*
G75*
G02*
X132468300Y-177500000I0J500000D01*
G01*
X132900000Y-174500000D02*
G75*
G02*
X131900000Y-173500000I0J1000000D01*
G01*
X110968300Y-161500000D02*
G75*
G02*
X112968300Y-163500000I0J-2000000D01*
G01*
X45309845Y-232253649D02*
X45439256Y-232736611D01*
X79468300Y-171500000D02*
X79468401Y-173078401D01*
X46649340Y-212910660D02*
X47149340Y-212910660D01*
X45145762Y-229709424D02*
G75*
G02*
X45663414Y-231641329I258738J-965976D01*
G01*
X114968300Y-170000000D02*
G75*
G02*
X114468300Y-169500000I0J500000D01*
G01*
X57254510Y-228535447D02*
G75*
G02*
X57866871Y-228889004I129290J-483153D01*
G01*
X35460000Y-160500000D02*
G75*
G02*
X40460000Y-155500000I5000000J0D01*
G01*
X56736873Y-226603595D02*
X58668723Y-226085958D01*
X114468300Y-169000000D02*
G75*
G02*
X114968300Y-168500000I500000J0D01*
G01*
X148468300Y-174500000D02*
G75*
G02*
X148468300Y-176500000I0J-1000000D01*
G01*
X72968143Y-225360269D02*
G75*
G02*
X72614591Y-225972654I-482943J-129431D01*
G01*
X47649340Y-206410660D02*
X47649340Y-212410660D01*
X72700000Y-221552015D02*
X72700000Y-220020521D01*
X57996292Y-229371965D02*
G75*
G02*
X57642738Y-229984338I-483092J-129335D01*
G01*
X40460000Y-155500000D02*
X76327418Y-155500000D01*
X153429753Y-165849999D02*
X158470000Y-165850000D01*
X46149340Y-200410660D02*
G75*
G02*
X46649340Y-199910740I499960J-40D01*
G01*
X145468300Y-177500000D02*
G75*
G02*
X144968300Y-178000000I-500000J0D01*
G01*
X80968300Y-173000000D02*
G75*
G02*
X81468300Y-172500000I500000J0D01*
G01*
X109468300Y-164000000D02*
X109468300Y-164500000D01*
X45309845Y-232253649D02*
G75*
G02*
X45663407Y-231641303I482855J129449D01*
G01*
X36142771Y-209775605D02*
G75*
G02*
X35459994Y-204594420I19317229J5181205D01*
G01*
X44149434Y-200079434D02*
G75*
G02*
X46149434Y-198080034I1999966J-566D01*
G01*
X35460000Y-204594420D02*
X35460000Y-160500000D01*
X102968300Y-165000000D02*
X108968300Y-165000000D01*
X132468300Y-177000000D02*
G75*
G02*
X132968300Y-176500000I500000J0D01*
G01*
X81468300Y-170500000D02*
X80468300Y-170500000D01*
X93468300Y-172500000D02*
G75*
G02*
X93468300Y-170500000I0J1000000D01*
G01*
X45145762Y-229709425D02*
X43791253Y-229709638D01*
X160968300Y-177500000D02*
G75*
G02*
X160468300Y-178000000I-500000J0D01*
G01*
X66819033Y-227525556D02*
X61023478Y-229078468D01*
X108968300Y-163500000D02*
G75*
G02*
X109468300Y-164000000I0J-500000D01*
G01*
X154468300Y-178000000D02*
X148468300Y-178000000D01*
X131900000Y-173500000D02*
X131900000Y-167500000D01*
X132468300Y-177000000D02*
X132468300Y-177500000D01*
X96968300Y-161500000D02*
G75*
G02*
X96968300Y-163500000I0J-1000000D01*
G01*
X163470000Y-171500000D02*
G75*
G02*
X160470000Y-174500000I-3000000J0D01*
G01*
X82181086Y-154114578D02*
G75*
G02*
X87667782Y-152900016I5486614J-11785222D01*
G01*
X126968300Y-166500000D02*
X130900000Y-166500000D01*
M02*
