G04 #@! TF.GenerationSoftware,KiCad,Pcbnew,9.0.2*
G04 #@! TF.CreationDate,2026-07-21T20:03:05-04:00*
G04 #@! TF.ProjectId,ThumbsUp,5468756d-6273-4557-902e-6b696361645f,rev?*
G04 #@! TF.SameCoordinates,Original*
G04 #@! TF.FileFunction,Soldermask,Top*
G04 #@! TF.FilePolarity,Negative*
%FSLAX46Y46*%
G04 Gerber Fmt 4.6, Leading zero omitted, Abs format (unit mm)*
G04 Created by KiCad (PCBNEW 9.0.2) date 2026-07-21 20:03:05*
%MOMM*%
%LPD*%
G01*
G04 APERTURE LIST*
G04 APERTURE END LIST*
G36*
X39621040Y-202876774D02*
G01*
X39962823Y-202944759D01*
X40296296Y-203045917D01*
X40618248Y-203179274D01*
X40925579Y-203343546D01*
X41215328Y-203537150D01*
X41484706Y-203758223D01*
X41731117Y-204004634D01*
X41952190Y-204274012D01*
X42145794Y-204563761D01*
X42310066Y-204871092D01*
X42443423Y-205193044D01*
X42544581Y-205526517D01*
X42612566Y-205868300D01*
X42646723Y-206215101D01*
X42646723Y-206563579D01*
X42612566Y-206910380D01*
X42544581Y-207252163D01*
X42443423Y-207585636D01*
X42310066Y-207907588D01*
X42145794Y-208214919D01*
X41952190Y-208504668D01*
X41731117Y-208774046D01*
X41484706Y-209020457D01*
X41215328Y-209241530D01*
X40925579Y-209435134D01*
X40618248Y-209599406D01*
X40296296Y-209732763D01*
X39962823Y-209833921D01*
X39621040Y-209901906D01*
X39274239Y-209936063D01*
X38925761Y-209936063D01*
X38578960Y-209901906D01*
X38237177Y-209833921D01*
X37903704Y-209732763D01*
X37581752Y-209599406D01*
X37274421Y-209435134D01*
X36984672Y-209241530D01*
X36715294Y-209020457D01*
X36468883Y-208774046D01*
X36247810Y-208504668D01*
X36054206Y-208214919D01*
X35889934Y-207907588D01*
X35756577Y-207585636D01*
X35655419Y-207252163D01*
X35587434Y-206910380D01*
X35553277Y-206563579D01*
X35553277Y-206215101D01*
X35587434Y-205868300D01*
X35655419Y-205526517D01*
X35756577Y-205193044D01*
X35889934Y-204871092D01*
X36054206Y-204563761D01*
X36247810Y-204274012D01*
X36468883Y-204004634D01*
X36715294Y-203758223D01*
X36984672Y-203537150D01*
X37274421Y-203343546D01*
X37581752Y-203179274D01*
X37903704Y-203045917D01*
X38237177Y-202944759D01*
X38578960Y-202876774D01*
X38925761Y-202842617D01*
X39274239Y-202842617D01*
X39621040Y-202876774D01*
G37*
G36*
X139639340Y-165937434D02*
G01*
X139981123Y-166005419D01*
X140314596Y-166106577D01*
X140636548Y-166239934D01*
X140943879Y-166404206D01*
X141233628Y-166597810D01*
X141503006Y-166818883D01*
X141749417Y-167065294D01*
X141970490Y-167334672D01*
X142164094Y-167624421D01*
X142328366Y-167931752D01*
X142461723Y-168253704D01*
X142562881Y-168587177D01*
X142630866Y-168928960D01*
X142665023Y-169275761D01*
X142665023Y-169624239D01*
X142630866Y-169971040D01*
X142562881Y-170312823D01*
X142461723Y-170646296D01*
X142328366Y-170968248D01*
X142164094Y-171275579D01*
X141970490Y-171565328D01*
X141749417Y-171834706D01*
X141503006Y-172081117D01*
X141233628Y-172302190D01*
X140943879Y-172495794D01*
X140636548Y-172660066D01*
X140314596Y-172793423D01*
X139981123Y-172894581D01*
X139639340Y-172962566D01*
X139292539Y-172996723D01*
X138944061Y-172996723D01*
X138597260Y-172962566D01*
X138255477Y-172894581D01*
X137922004Y-172793423D01*
X137600052Y-172660066D01*
X137292721Y-172495794D01*
X137002972Y-172302190D01*
X136733594Y-172081117D01*
X136487183Y-171834706D01*
X136266110Y-171565328D01*
X136072506Y-171275579D01*
X135908234Y-170968248D01*
X135774877Y-170646296D01*
X135673719Y-170312823D01*
X135605734Y-169971040D01*
X135571577Y-169624239D01*
X135571577Y-169275761D01*
X135605734Y-168928960D01*
X135673719Y-168587177D01*
X135774877Y-168253704D01*
X135908234Y-167931752D01*
X136072506Y-167624421D01*
X136266110Y-167334672D01*
X136487183Y-167065294D01*
X136733594Y-166818883D01*
X137002972Y-166597810D01*
X137292721Y-166404206D01*
X137600052Y-166239934D01*
X137922004Y-166106577D01*
X138255477Y-166005419D01*
X138597260Y-165937434D01*
X138944061Y-165903277D01*
X139292539Y-165903277D01*
X139639340Y-165937434D01*
G37*
G36*
X154989340Y-165937434D02*
G01*
X155331123Y-166005419D01*
X155664596Y-166106577D01*
X155986548Y-166239934D01*
X156293879Y-166404206D01*
X156583628Y-166597810D01*
X156853006Y-166818883D01*
X157099417Y-167065294D01*
X157320490Y-167334672D01*
X157514094Y-167624421D01*
X157678366Y-167931752D01*
X157811723Y-168253704D01*
X157912881Y-168587177D01*
X157980866Y-168928960D01*
X158015023Y-169275761D01*
X158015023Y-169624239D01*
X157980866Y-169971040D01*
X157912881Y-170312823D01*
X157811723Y-170646296D01*
X157678366Y-170968248D01*
X157514094Y-171275579D01*
X157320490Y-171565328D01*
X157099417Y-171834706D01*
X156853006Y-172081117D01*
X156583628Y-172302190D01*
X156293879Y-172495794D01*
X155986548Y-172660066D01*
X155664596Y-172793423D01*
X155331123Y-172894581D01*
X154989340Y-172962566D01*
X154642539Y-172996723D01*
X154294061Y-172996723D01*
X153947260Y-172962566D01*
X153605477Y-172894581D01*
X153272004Y-172793423D01*
X152950052Y-172660066D01*
X152642721Y-172495794D01*
X152352972Y-172302190D01*
X152083594Y-172081117D01*
X151837183Y-171834706D01*
X151616110Y-171565328D01*
X151422506Y-171275579D01*
X151258234Y-170968248D01*
X151124877Y-170646296D01*
X151023719Y-170312823D01*
X150955734Y-169971040D01*
X150921577Y-169624239D01*
X150921577Y-169275761D01*
X150955734Y-168928960D01*
X151023719Y-168587177D01*
X151124877Y-168253704D01*
X151258234Y-167931752D01*
X151422506Y-167624421D01*
X151616110Y-167334672D01*
X151837183Y-167065294D01*
X152083594Y-166818883D01*
X152352972Y-166597810D01*
X152642721Y-166404206D01*
X152950052Y-166239934D01*
X153272004Y-166106577D01*
X153605477Y-166005419D01*
X153947260Y-165937434D01*
X154294061Y-165903277D01*
X154642539Y-165903277D01*
X154989340Y-165937434D01*
G37*
G36*
X87989340Y-161937434D02*
G01*
X88331123Y-162005419D01*
X88664596Y-162106577D01*
X88986548Y-162239934D01*
X89293879Y-162404206D01*
X89583628Y-162597810D01*
X89853006Y-162818883D01*
X90099417Y-163065294D01*
X90320490Y-163334672D01*
X90514094Y-163624421D01*
X90678366Y-163931752D01*
X90811723Y-164253704D01*
X90912881Y-164587177D01*
X90980866Y-164928960D01*
X91015023Y-165275761D01*
X91015023Y-165624239D01*
X90980866Y-165971040D01*
X90912881Y-166312823D01*
X90811723Y-166646296D01*
X90678366Y-166968248D01*
X90514094Y-167275579D01*
X90320490Y-167565328D01*
X90099417Y-167834706D01*
X89853006Y-168081117D01*
X89583628Y-168302190D01*
X89293879Y-168495794D01*
X88986548Y-168660066D01*
X88664596Y-168793423D01*
X88331123Y-168894581D01*
X87989340Y-168962566D01*
X87642539Y-168996723D01*
X87294061Y-168996723D01*
X86947260Y-168962566D01*
X86605477Y-168894581D01*
X86272004Y-168793423D01*
X85950052Y-168660066D01*
X85642721Y-168495794D01*
X85352972Y-168302190D01*
X85083594Y-168081117D01*
X84837183Y-167834706D01*
X84616110Y-167565328D01*
X84422506Y-167275579D01*
X84258234Y-166968248D01*
X84124877Y-166646296D01*
X84023719Y-166312823D01*
X83955734Y-165971040D01*
X83921577Y-165624239D01*
X83921577Y-165275761D01*
X83955734Y-164928960D01*
X84023719Y-164587177D01*
X84124877Y-164253704D01*
X84258234Y-163931752D01*
X84422506Y-163624421D01*
X84616110Y-163334672D01*
X84837183Y-163065294D01*
X85083594Y-162818883D01*
X85352972Y-162597810D01*
X85642721Y-162404206D01*
X85950052Y-162239934D01*
X86272004Y-162106577D01*
X86605477Y-162005419D01*
X86947260Y-161937434D01*
X87294061Y-161903277D01*
X87642539Y-161903277D01*
X87989340Y-161937434D01*
G37*
G36*
X121489340Y-157937434D02*
G01*
X121831123Y-158005419D01*
X122164596Y-158106577D01*
X122486548Y-158239934D01*
X122793879Y-158404206D01*
X123083628Y-158597810D01*
X123353006Y-158818883D01*
X123599417Y-159065294D01*
X123820490Y-159334672D01*
X124014094Y-159624421D01*
X124178366Y-159931752D01*
X124311723Y-160253704D01*
X124412881Y-160587177D01*
X124480866Y-160928960D01*
X124515023Y-161275761D01*
X124515023Y-161624239D01*
X124480866Y-161971040D01*
X124412881Y-162312823D01*
X124311723Y-162646296D01*
X124178366Y-162968248D01*
X124014094Y-163275579D01*
X123820490Y-163565328D01*
X123599417Y-163834706D01*
X123353006Y-164081117D01*
X123083628Y-164302190D01*
X122793879Y-164495794D01*
X122486548Y-164660066D01*
X122164596Y-164793423D01*
X121831123Y-164894581D01*
X121489340Y-164962566D01*
X121142539Y-164996723D01*
X120794061Y-164996723D01*
X120447260Y-164962566D01*
X120105477Y-164894581D01*
X119772004Y-164793423D01*
X119450052Y-164660066D01*
X119142721Y-164495794D01*
X118852972Y-164302190D01*
X118583594Y-164081117D01*
X118337183Y-163834706D01*
X118116110Y-163565328D01*
X117922506Y-163275579D01*
X117758234Y-162968248D01*
X117624877Y-162646296D01*
X117523719Y-162312823D01*
X117455734Y-161971040D01*
X117421577Y-161624239D01*
X117421577Y-161275761D01*
X117455734Y-160928960D01*
X117523719Y-160587177D01*
X117624877Y-160253704D01*
X117758234Y-159931752D01*
X117922506Y-159624421D01*
X118116110Y-159334672D01*
X118337183Y-159065294D01*
X118583594Y-158818883D01*
X118852972Y-158597810D01*
X119142721Y-158404206D01*
X119450052Y-158239934D01*
X119772004Y-158106577D01*
X120105477Y-158005419D01*
X120447260Y-157937434D01*
X120794061Y-157903277D01*
X121142539Y-157903277D01*
X121489340Y-157937434D01*
G37*
G36*
X40121040Y-155877434D02*
G01*
X40462823Y-155945419D01*
X40796296Y-156046577D01*
X41118248Y-156179934D01*
X41425579Y-156344206D01*
X41715328Y-156537810D01*
X41984706Y-156758883D01*
X42231117Y-157005294D01*
X42452190Y-157274672D01*
X42645794Y-157564421D01*
X42810066Y-157871752D01*
X42943423Y-158193704D01*
X43044581Y-158527177D01*
X43112566Y-158868960D01*
X43146723Y-159215761D01*
X43146723Y-159564239D01*
X43112566Y-159911040D01*
X43044581Y-160252823D01*
X42943423Y-160586296D01*
X42810066Y-160908248D01*
X42645794Y-161215579D01*
X42452190Y-161505328D01*
X42231117Y-161774706D01*
X41984706Y-162021117D01*
X41715328Y-162242190D01*
X41425579Y-162435794D01*
X41118248Y-162600066D01*
X40796296Y-162733423D01*
X40462823Y-162834581D01*
X40121040Y-162902566D01*
X39774239Y-162936723D01*
X39425761Y-162936723D01*
X39078960Y-162902566D01*
X38737177Y-162834581D01*
X38403704Y-162733423D01*
X38081752Y-162600066D01*
X37774421Y-162435794D01*
X37484672Y-162242190D01*
X37215294Y-162021117D01*
X36968883Y-161774706D01*
X36747810Y-161505328D01*
X36554206Y-161215579D01*
X36389934Y-160908248D01*
X36256577Y-160586296D01*
X36155419Y-160252823D01*
X36087434Y-159911040D01*
X36053277Y-159564239D01*
X36053277Y-159215761D01*
X36087434Y-158868960D01*
X36155419Y-158527177D01*
X36256577Y-158193704D01*
X36389934Y-157871752D01*
X36554206Y-157564421D01*
X36747810Y-157274672D01*
X36968883Y-157005294D01*
X37215294Y-156758883D01*
X37484672Y-156537810D01*
X37774421Y-156344206D01*
X38081752Y-156179934D01*
X38403704Y-156046577D01*
X38737177Y-155945419D01*
X39078960Y-155877434D01*
X39425761Y-155843277D01*
X39774239Y-155843277D01*
X40121040Y-155877434D01*
G37*
G36*
X103489340Y-152937434D02*
G01*
X103831123Y-153005419D01*
X104164596Y-153106577D01*
X104486548Y-153239934D01*
X104793879Y-153404206D01*
X105083628Y-153597810D01*
X105353006Y-153818883D01*
X105599417Y-154065294D01*
X105820490Y-154334672D01*
X106014094Y-154624421D01*
X106178366Y-154931752D01*
X106311723Y-155253704D01*
X106412881Y-155587177D01*
X106480866Y-155928960D01*
X106515023Y-156275761D01*
X106515023Y-156624239D01*
X106480866Y-156971040D01*
X106412881Y-157312823D01*
X106311723Y-157646296D01*
X106178366Y-157968248D01*
X106014094Y-158275579D01*
X105820490Y-158565328D01*
X105599417Y-158834706D01*
X105353006Y-159081117D01*
X105083628Y-159302190D01*
X104793879Y-159495794D01*
X104486548Y-159660066D01*
X104164596Y-159793423D01*
X103831123Y-159894581D01*
X103489340Y-159962566D01*
X103142539Y-159996723D01*
X102794061Y-159996723D01*
X102447260Y-159962566D01*
X102105477Y-159894581D01*
X101772004Y-159793423D01*
X101450052Y-159660066D01*
X101142721Y-159495794D01*
X100852972Y-159302190D01*
X100583594Y-159081117D01*
X100337183Y-158834706D01*
X100116110Y-158565328D01*
X99922506Y-158275579D01*
X99758234Y-157968248D01*
X99624877Y-157646296D01*
X99523719Y-157312823D01*
X99455734Y-156971040D01*
X99421577Y-156624239D01*
X99421577Y-156275761D01*
X99455734Y-155928960D01*
X99523719Y-155587177D01*
X99624877Y-155253704D01*
X99758234Y-154931752D01*
X99922506Y-154624421D01*
X100116110Y-154334672D01*
X100337183Y-154065294D01*
X100583594Y-153818883D01*
X100852972Y-153597810D01*
X101142721Y-153404206D01*
X101450052Y-153239934D01*
X101772004Y-153106577D01*
X102105477Y-153005419D01*
X102447260Y-152937434D01*
X102794061Y-152903277D01*
X103142539Y-152903277D01*
X103489340Y-152937434D01*
G37*
M02*
