G04 #@! TF.GenerationSoftware,KiCad,Pcbnew,9.0.2*
G04 #@! TF.CreationDate,2025-12-10T21:35:09-05:00*
G04 #@! TF.ProjectId,ThumbsUp,5468756d-6273-4557-902e-6b696361645f,rev?*
G04 #@! TF.SameCoordinates,Original*
G04 #@! TF.FileFunction,Profile,NP*
%FSLAX46Y46*%
G04 Gerber Fmt 4.6, Leading zero omitted, Abs format (unit mm)*
G04 Created by KiCad (PCBNEW 9.0.2) date 2025-12-10 21:35:09*
%MOMM*%
%LPD*%
G01*
G04 APERTURE LIST*
G04 #@! TA.AperFunction,Profile*
%ADD10C,0.050000*%
G04 #@! TD*
G04 APERTURE END LIST*
D10*
X99368747Y-187203553D02*
X99368747Y-186703553D01*
X165868300Y-136000000D02*
X166868300Y-136000000D01*
X105868747Y-186203553D02*
X111868747Y-186203553D01*
X130368300Y-138000000D02*
G75*
G02*
X129868300Y-138500000I-500000J0D01*
G01*
X87868300Y-142500000D02*
X81868300Y-142500000D01*
X147868747Y-199703553D02*
G75*
G02*
X147868747Y-197703647I-47J999953D01*
G01*
X153368300Y-138500000D02*
G75*
G02*
X153868300Y-138000000I500000J0D01*
G01*
X93868300Y-141000000D02*
G75*
G02*
X94368300Y-141500000I0J-500000D01*
G01*
X105549731Y-205000000D02*
X168868300Y-205000000D01*
X83249797Y-125539501D02*
X74486803Y-128460499D01*
X141868300Y-143500000D02*
X135868300Y-143500000D01*
X48925234Y-212515469D02*
X47921221Y-212784494D01*
X173868300Y-135000000D02*
X173868300Y-200000000D01*
X113868747Y-191703553D02*
X113868747Y-192703550D01*
X94368747Y-196203553D02*
X94368747Y-195703553D01*
X123868300Y-138500000D02*
X129868300Y-138500000D01*
X81368300Y-141500000D02*
X81368300Y-142000000D01*
X168868300Y-193702367D02*
G75*
G02*
X166870668Y-195702399I-2000000J-33D01*
G01*
X153868300Y-136000000D02*
X151868300Y-136000000D01*
X131868747Y-196703553D02*
X131868747Y-197703553D01*
X60516343Y-209409641D02*
X62448195Y-208892003D01*
X141868300Y-143500000D02*
X147868300Y-143500000D01*
X130368747Y-192203553D02*
X130368747Y-191703553D01*
X47665813Y-209747102D02*
G75*
G02*
X48019365Y-209134722I482987J129402D01*
G01*
X53814922Y-207581815D02*
X48019367Y-209134729D01*
X75868300Y-146000000D02*
G75*
G02*
X75868300Y-144000000I0J1000000D01*
G01*
X129868747Y-191203553D02*
G75*
G02*
X130368747Y-191703553I-47J-500047D01*
G01*
X97868577Y-191703482D02*
X97868399Y-196701874D01*
X92736630Y-124000000D02*
X118999970Y-124000000D01*
X131868300Y-135000000D02*
G75*
G02*
X133868300Y-137000000I0J-2000000D01*
G01*
X63368300Y-146500000D02*
G75*
G02*
X63868300Y-146000000I500000J0D01*
G01*
X79868436Y-202689758D02*
G75*
G02*
X78386079Y-204621478I-2000036J158D01*
G01*
X117868747Y-192703553D02*
G75*
G02*
X117368747Y-192203553I-47J499953D01*
G01*
X47921221Y-212784494D02*
G75*
G02*
X45473876Y-211378254I-517621J1931894D01*
G01*
X60968300Y-146000000D02*
G75*
G02*
X62968300Y-144000000I2000000J0D01*
G01*
X105868300Y-133500000D02*
X99868300Y-133500000D01*
X65794260Y-205924875D02*
G75*
G02*
X65181938Y-205571309I-129360J482975D01*
G01*
X65052478Y-205088359D02*
G75*
G02*
X65406056Y-204476074I482922J129359D01*
G01*
X77903008Y-204750898D02*
X78386074Y-204621461D01*
X94368747Y-196203553D02*
G75*
G02*
X93868747Y-196703647I-500047J-47D01*
G01*
X94368300Y-141500000D02*
X94368300Y-142000000D01*
X165868300Y-138000000D02*
G75*
G02*
X165868300Y-136000000I0J1000000D01*
G01*
X123868747Y-191203553D02*
X117868747Y-191203553D01*
X38823002Y-216611490D02*
X28396822Y-177826101D01*
X117868300Y-135000000D02*
G75*
G02*
X115868300Y-133000000I0J2000000D01*
G01*
X147868300Y-142000000D02*
G75*
G02*
X147868300Y-140000000I0J1000000D01*
G01*
X97868577Y-191703482D02*
G75*
G02*
X99868747Y-189703577I2000023J-118D01*
G01*
X99368300Y-132500000D02*
X99368300Y-133000000D01*
X133868300Y-138000000D02*
X133868300Y-137000000D01*
X159868747Y-192203553D02*
X153868747Y-192203553D01*
X71201587Y-202923072D02*
X76997142Y-201370158D01*
X95868300Y-137000000D02*
G75*
G02*
X93868300Y-139000000I-2000000J0D01*
G01*
X118999970Y-124000000D02*
G75*
G02*
X128486806Y-125539492I30J-30000000D01*
G01*
X63368300Y-146500000D02*
X63368300Y-147000000D01*
X47795223Y-210230064D02*
X47665813Y-209747102D01*
X77868300Y-142000000D02*
G75*
G02*
X75868300Y-144000000I-2000000J0D01*
G01*
X173868300Y-200000000D02*
G75*
G02*
X168868300Y-205000000I-5000000J0D01*
G01*
X28396822Y-177826101D02*
G75*
G02*
X27368308Y-170038069I28971478J7788001D01*
G01*
X87868747Y-195203553D02*
X93868747Y-195203553D01*
X41910652Y-179200321D02*
X57264419Y-175079396D01*
X130368300Y-137500000D02*
X130368300Y-138000000D01*
X153868300Y-139500000D02*
G75*
G02*
X153368300Y-139000000I0J500000D01*
G01*
X123868747Y-191203553D02*
X129868747Y-191203553D01*
X153368300Y-138500000D02*
X153368300Y-139000000D01*
X63868300Y-144000000D02*
X62968300Y-144000000D01*
X60968301Y-170250310D02*
X60968300Y-146000000D01*
X66311898Y-207856727D02*
X64380047Y-208374365D01*
X71201587Y-202923072D02*
X65406032Y-204475986D01*
X62448195Y-208892001D02*
X64380047Y-208374365D01*
X135368747Y-196703553D02*
G75*
G02*
X135868747Y-196203647I499953J-47D01*
G01*
X112368300Y-133000000D02*
G75*
G02*
X111868300Y-133500000I-500000J0D01*
G01*
X63868300Y-147500000D02*
G75*
G02*
X63368300Y-147000000I0J500000D01*
G01*
X115868747Y-194703553D02*
X115865194Y-194703547D01*
X111868747Y-189703553D02*
G75*
G02*
X111868747Y-187703647I-47J999953D01*
G01*
X81868300Y-139000000D02*
G75*
G02*
X81868300Y-141000000I0J-1000000D01*
G01*
X112368747Y-187203553D02*
G75*
G02*
X111868747Y-187703647I-500047J-47D01*
G01*
X81868300Y-142500000D02*
G75*
G02*
X81368300Y-142000000I0J500000D01*
G01*
X93868747Y-198703553D02*
G75*
G02*
X93868747Y-196703647I-47J999953D01*
G01*
X166870668Y-195702366D02*
X165868747Y-195703552D01*
X111868747Y-186203553D02*
G75*
G02*
X112368747Y-186703553I-47J-500047D01*
G01*
X123868300Y-138500000D02*
X117868300Y-138500000D01*
X117868747Y-192703553D02*
G75*
G02*
X117868747Y-194703647I-47J-1000047D01*
G01*
X135868747Y-199703553D02*
X133868747Y-199703553D01*
X32368300Y-130000000D02*
X64999970Y-130000000D01*
X129868747Y-194703553D02*
G75*
G02*
X129868747Y-192703647I-47J999953D01*
G01*
X111868300Y-130000000D02*
X113868300Y-130000000D01*
X117368747Y-192203553D02*
X117368747Y-191703553D01*
X94368300Y-142000000D02*
G75*
G02*
X93868300Y-142500000I-500000J0D01*
G01*
X87868747Y-195203553D02*
X81868747Y-195203553D01*
X76997142Y-201370158D02*
G75*
G02*
X77609439Y-201723731I129358J-482942D01*
G01*
X129868747Y-194703553D02*
G75*
G02*
X131868747Y-196703553I-47J-2000047D01*
G01*
X38381259Y-185338769D02*
G75*
G02*
X41910663Y-179200361I4825441J1309369D01*
G01*
X115865194Y-194703547D02*
G75*
G02*
X113868650Y-192703550I3506J2000047D01*
G01*
X97868399Y-196701874D02*
G75*
G02*
X95870175Y-198701798I-1999999J74D01*
G01*
X65181888Y-205571322D02*
X65052478Y-205088359D01*
X153368747Y-193203553D02*
X153368747Y-192703553D01*
X74486803Y-128460499D02*
G75*
G02*
X64999970Y-129999991I-9486803J28460499D01*
G01*
X168868300Y-130000000D02*
G75*
G02*
X173868300Y-135000000I0J-5000000D01*
G01*
X151868747Y-197703553D02*
G75*
G02*
X149868747Y-199703647I-2000047J-47D01*
G01*
X99868300Y-133500000D02*
G75*
G02*
X99368300Y-133000000I0J500000D01*
G01*
X135868300Y-140000000D02*
G75*
G02*
X133868300Y-138000000I0J2000000D01*
G01*
X111868300Y-132000000D02*
G75*
G02*
X111868300Y-130000000I0J1000000D01*
G01*
X151868747Y-197703553D02*
G75*
G02*
X153868747Y-195703547I2000153J-147D01*
G01*
X153368747Y-192703553D02*
G75*
G02*
X153868747Y-192203647I499953J-47D01*
G01*
X166368747Y-193203553D02*
G75*
G02*
X165868747Y-193703647I-500047J-47D01*
G01*
X87868300Y-142500000D02*
X93868300Y-142500000D01*
X75868300Y-146000000D02*
G75*
G02*
X76368300Y-146500000I0J-500000D01*
G01*
X129868300Y-137000000D02*
G75*
G02*
X130368300Y-137500000I0J-500000D01*
G01*
X60352259Y-206865417D02*
X60222849Y-206382454D01*
X60516343Y-209409641D02*
G75*
G02*
X59998694Y-207477749I-258843J965941D01*
G01*
X27368300Y-170038069D02*
X27368300Y-135000000D01*
X117868300Y-135000000D02*
G75*
G02*
X117868300Y-137000000I0J-1000000D01*
G01*
X117368300Y-137500000D02*
X117368300Y-138000000D01*
X153868747Y-193703553D02*
G75*
G02*
X153868747Y-195703647I-47J-1000047D01*
G01*
X65794260Y-205924875D02*
G75*
G02*
X66311900Y-207856736I258840J-965925D01*
G01*
X93868747Y-198703552D02*
X95870175Y-198701775D01*
X166368300Y-138500000D02*
X166368300Y-139000000D01*
X95868300Y-137000000D02*
X95868300Y-132000000D01*
X159868300Y-139500000D02*
X165868300Y-139500000D01*
X117368747Y-191703553D02*
G75*
G02*
X117868747Y-191203647I499953J-47D01*
G01*
X76368300Y-147000000D02*
G75*
G02*
X75868300Y-147500000I-500000J0D01*
G01*
X60352259Y-206865417D02*
G75*
G02*
X59998696Y-207477756I-482959J-129383D01*
G01*
X77738924Y-202206674D02*
X77609514Y-201723711D01*
X77738924Y-202206674D02*
G75*
G02*
X77385368Y-202819039I-482924J-129426D01*
G01*
X38381259Y-185338769D02*
X45473884Y-211378252D01*
X147868747Y-196203553D02*
G75*
G02*
X148368747Y-196703553I-47J-500047D01*
G01*
X97804301Y-206017103D02*
G75*
G02*
X105549731Y-204999996I7745499J-28983297D01*
G01*
X79868584Y-200703600D02*
X79868436Y-202689758D01*
X83249797Y-125539501D02*
G75*
G02*
X92736630Y-124000009I9486803J-28460499D01*
G01*
X166368747Y-193203553D02*
X166368747Y-192703553D01*
X128486803Y-125539501D02*
X137249797Y-128460499D01*
X148368300Y-142500000D02*
X148368300Y-143000000D01*
X99368300Y-132500000D02*
G75*
G02*
X99868300Y-132000000I500000J0D01*
G01*
X153868747Y-193703553D02*
G75*
G02*
X153368747Y-193203553I-47J499953D01*
G01*
X27368300Y-135000000D02*
G75*
G02*
X32368300Y-130000000I5000000J0D01*
G01*
X166868300Y-136000000D02*
G75*
G02*
X168868300Y-138000000I0J-2000000D01*
G01*
X115868300Y-132000000D02*
X115868300Y-133000000D01*
X95868300Y-132000000D02*
G75*
G02*
X97868300Y-130000000I2000000J0D01*
G01*
X135868300Y-140000000D02*
G75*
G02*
X135868300Y-142000000I0J-1000000D01*
G01*
X147868300Y-142000000D02*
G75*
G02*
X148368300Y-142500000I0J-500000D01*
G01*
X148368747Y-197203553D02*
X148368747Y-196703553D01*
X76368300Y-146500000D02*
X76368300Y-147000000D01*
X159868747Y-192203553D02*
X165868747Y-192203553D01*
X79868584Y-200703390D02*
G75*
G02*
X81868747Y-198703584I1999916J-110D01*
G01*
X77868300Y-142000000D02*
X77868300Y-141000000D01*
X168868300Y-138000000D02*
X168868300Y-193702367D01*
X59610477Y-206028901D02*
G75*
G02*
X60222890Y-206382443I129423J-482999D01*
G01*
X135368747Y-197203553D02*
X135368747Y-196703553D01*
X129868300Y-137000000D02*
G75*
G02*
X129868300Y-135000000I0J1000000D01*
G01*
X165868300Y-138000000D02*
G75*
G02*
X166368300Y-138500000I0J-500000D01*
G01*
X44942486Y-220143968D02*
G75*
G02*
X38823034Y-216611481I-1290886J4830468D01*
G01*
X99368747Y-186703553D02*
G75*
G02*
X99868747Y-186203647I499953J-47D01*
G01*
X99868700Y-187703553D02*
G75*
G02*
X99868747Y-189703647I0J-1000047D01*
G01*
X159868300Y-130000000D02*
X168868300Y-130000000D01*
X147868747Y-199703553D02*
X149868747Y-199703553D01*
X53814922Y-207581815D02*
X59610477Y-206028901D01*
X135868300Y-143500000D02*
G75*
G02*
X135368300Y-143000000I0J500000D01*
G01*
X69868300Y-147500000D02*
X75868300Y-147500000D01*
X141868747Y-196203553D02*
X135868747Y-196203553D01*
X113868300Y-130000000D02*
G75*
G02*
X115868300Y-132000000I0J-2000000D01*
G01*
X146736630Y-130000000D02*
G75*
G02*
X137249794Y-128460508I-30J30000000D01*
G01*
X97804301Y-206017103D02*
X44942486Y-220143968D01*
X48407595Y-210583618D02*
G75*
G02*
X47795270Y-210230051I-129395J482918D01*
G01*
X135868747Y-197703553D02*
G75*
G02*
X135368747Y-197203553I-47J499953D01*
G01*
X81868747Y-196703553D02*
G75*
G02*
X81868747Y-198703647I-47J-1000047D01*
G01*
X105868747Y-186203553D02*
X99868747Y-186203553D01*
X60968301Y-170250310D02*
G75*
G02*
X57264417Y-175079388I-5000001J10D01*
G01*
X77903008Y-204750898D02*
G75*
G02*
X77385385Y-202819104I-258808J965898D01*
G01*
X165868747Y-192203553D02*
G75*
G02*
X166368747Y-192703553I-47J-500047D01*
G01*
X112368747Y-187203553D02*
X112368747Y-186703553D01*
X117868300Y-138500000D02*
G75*
G02*
X117368300Y-138000000I0J500000D01*
G01*
X146736630Y-130000000D02*
X159868300Y-130000000D01*
X117368300Y-137500000D02*
G75*
G02*
X117868300Y-137000000I500000J0D01*
G01*
X153868300Y-136000000D02*
G75*
G02*
X153868300Y-138000000I0J-1000000D01*
G01*
X135868747Y-197703553D02*
G75*
G02*
X135868747Y-199703647I-47J-1000047D01*
G01*
X148368747Y-197203553D02*
G75*
G02*
X147868747Y-197703647I-500047J-47D01*
G01*
X117868747Y-194703553D02*
X115868747Y-194703553D01*
X63868300Y-144000000D02*
G75*
G02*
X63868300Y-146000000I0J-1000000D01*
G01*
X141868747Y-196203553D02*
X147868747Y-196203553D01*
X81368747Y-195703553D02*
G75*
G02*
X81868747Y-195203647I499953J-47D01*
G01*
X111868747Y-189703553D02*
G75*
G02*
X113868747Y-191703553I-47J-2000047D01*
G01*
X130368747Y-192203553D02*
G75*
G02*
X129868747Y-192703647I-500047J-47D01*
G01*
X148368300Y-143000000D02*
G75*
G02*
X147868300Y-143500000I-500000J0D01*
G01*
X81368300Y-141500000D02*
G75*
G02*
X81868300Y-141000000I500000J0D01*
G01*
X112368300Y-132500000D02*
X112368300Y-133000000D01*
X99868300Y-130000000D02*
X97868300Y-130000000D01*
X93868747Y-195203553D02*
G75*
G02*
X94368747Y-195703553I-47J-500047D01*
G01*
X149868300Y-138000000D02*
G75*
G02*
X147868300Y-140000000I-2000000J0D01*
G01*
X133868747Y-199703553D02*
G75*
G02*
X131868747Y-197703553I-47J1999953D01*
G01*
X81868747Y-196703553D02*
G75*
G02*
X81368747Y-196203553I-47J499953D01*
G01*
X48407595Y-210583618D02*
G75*
G02*
X48925210Y-212515381I258805J-965882D01*
G01*
X105868300Y-133500000D02*
X111868300Y-133500000D01*
X135368300Y-142500000D02*
G75*
G02*
X135868300Y-142000000I500000J0D01*
G01*
X81868300Y-139000000D02*
X79868300Y-139000000D01*
X93868300Y-141000000D02*
G75*
G02*
X93868300Y-139000000I0J1000000D01*
G01*
X77868300Y-141000000D02*
G75*
G02*
X79868300Y-139000000I2000000J0D01*
G01*
X166368300Y-139000000D02*
G75*
G02*
X165868300Y-139500000I-500000J0D01*
G01*
X111868300Y-132000000D02*
G75*
G02*
X112368300Y-132500000I0J-500000D01*
G01*
X159868300Y-139500000D02*
X153868300Y-139500000D01*
X81368747Y-196203553D02*
X81368747Y-195703553D01*
X165868747Y-195703553D02*
G75*
G02*
X165868747Y-193703647I-47J999953D01*
G01*
X69868300Y-147500000D02*
X63868300Y-147500000D01*
X135368300Y-142500000D02*
X135368300Y-143000000D01*
X149868300Y-138000000D02*
G75*
G02*
X151868300Y-136000000I2000000J0D01*
G01*
X99868300Y-130000000D02*
G75*
G02*
X99868300Y-132000000I0J-1000000D01*
G01*
X99868747Y-187703553D02*
G75*
G02*
X99368747Y-187203553I-47J499953D01*
G01*
X129868300Y-135000000D02*
X131868300Y-135000000D01*
M02*
