G04 #@! TF.GenerationSoftware,KiCad,Pcbnew,9.0.2*
G04 #@! TF.CreationDate,2025-12-10T21:35:08-05:00*
G04 #@! TF.ProjectId,ThumbsUp,5468756d-6273-4557-902e-6b696361645f,rev?*
G04 #@! TF.SameCoordinates,Original*
G04 #@! TF.FileFunction,Soldermask,Top*
G04 #@! TF.FilePolarity,Negative*
%FSLAX46Y46*%
G04 Gerber Fmt 4.6, Leading zero omitted, Abs format (unit mm)*
G04 Created by KiCad (PCBNEW 9.0.2) date 2025-12-10 21:35:08*
%MOMM*%
%LPD*%
G01*
G04 APERTURE LIST*
G04 APERTURE END LIST*
G36*
X60987937Y-213329601D02*
G01*
X61002899Y-213342721D01*
X61011700Y-213360568D01*
X61451692Y-215002642D01*
X61452994Y-215022499D01*
X61446597Y-215041341D01*
X61433477Y-215056303D01*
X61415630Y-215065104D01*
X59773556Y-215505096D01*
X59753699Y-215506398D01*
X59734857Y-215500001D01*
X59719895Y-215486881D01*
X59711094Y-215469034D01*
X59366269Y-214182129D01*
X59274287Y-213838848D01*
X59274286Y-213838846D01*
X59271102Y-213826960D01*
X59269800Y-213807103D01*
X59276197Y-213788261D01*
X59289317Y-213773299D01*
X59307164Y-213764498D01*
X60309754Y-213495855D01*
X60937349Y-213327691D01*
X60937352Y-213327690D01*
X60949238Y-213324506D01*
X60969095Y-213323204D01*
X60987937Y-213329601D01*
G37*
G36*
X63076395Y-212895198D02*
G01*
X63239577Y-212962790D01*
X63386437Y-213060919D01*
X63511331Y-213185813D01*
X63609460Y-213332673D01*
X63677052Y-213495855D01*
X63711510Y-213669088D01*
X63711510Y-213845714D01*
X63677052Y-214018947D01*
X63609460Y-214182129D01*
X63511331Y-214328989D01*
X63386437Y-214453883D01*
X63239577Y-214552012D01*
X63076395Y-214619604D01*
X62903162Y-214654062D01*
X62726536Y-214654062D01*
X62553303Y-214619604D01*
X62390121Y-214552012D01*
X62243261Y-214453883D01*
X62118367Y-214328989D01*
X62020238Y-214182129D01*
X61952646Y-214018947D01*
X61918188Y-213845714D01*
X61918188Y-213669088D01*
X61952646Y-213495855D01*
X62020238Y-213332673D01*
X62118367Y-213185813D01*
X62243261Y-213060919D01*
X62390121Y-212962790D01*
X62553303Y-212895198D01*
X62726536Y-212860740D01*
X62903162Y-212860740D01*
X63076395Y-212895198D01*
G37*
G36*
X65529846Y-212237797D02*
G01*
X65693028Y-212305389D01*
X65839888Y-212403518D01*
X65964782Y-212528412D01*
X66062911Y-212675272D01*
X66130503Y-212838454D01*
X66164961Y-213011687D01*
X66164961Y-213188313D01*
X66130503Y-213361546D01*
X66062911Y-213524728D01*
X65964782Y-213671588D01*
X65839888Y-213796482D01*
X65693028Y-213894611D01*
X65529846Y-213962203D01*
X65356613Y-213996661D01*
X65179987Y-213996661D01*
X65006754Y-213962203D01*
X64843572Y-213894611D01*
X64696712Y-213796482D01*
X64571818Y-213671588D01*
X64473689Y-213524728D01*
X64406097Y-213361546D01*
X64371639Y-213188313D01*
X64371639Y-213011687D01*
X64406097Y-212838454D01*
X64473689Y-212675272D01*
X64571818Y-212528412D01*
X64696712Y-212403518D01*
X64843572Y-212305389D01*
X65006754Y-212237797D01*
X65179987Y-212203339D01*
X65356613Y-212203339D01*
X65529846Y-212237797D01*
G37*
G36*
X67983298Y-211580397D02*
G01*
X68146480Y-211647989D01*
X68293340Y-211746118D01*
X68418234Y-211871012D01*
X68516363Y-212017872D01*
X68583955Y-212181054D01*
X68618413Y-212354287D01*
X68618413Y-212530913D01*
X68583955Y-212704146D01*
X68516363Y-212867328D01*
X68418234Y-213014188D01*
X68293340Y-213139082D01*
X68146480Y-213237211D01*
X67983298Y-213304803D01*
X67810065Y-213339261D01*
X67633439Y-213339261D01*
X67460206Y-213304803D01*
X67297024Y-213237211D01*
X67150164Y-213139082D01*
X67025270Y-213014188D01*
X66927141Y-212867328D01*
X66859549Y-212704146D01*
X66825091Y-212530913D01*
X66825091Y-212354287D01*
X66859549Y-212181054D01*
X66927141Y-212017872D01*
X67025270Y-211871012D01*
X67150164Y-211746118D01*
X67297024Y-211647989D01*
X67460206Y-211580397D01*
X67633439Y-211545939D01*
X67810065Y-211545939D01*
X67983298Y-211580397D01*
G37*
G36*
X147037817Y-202602882D02*
G01*
X147054362Y-202613938D01*
X147065418Y-202630483D01*
X147069300Y-202650000D01*
X147069300Y-204350000D01*
X147065418Y-204369517D01*
X147054362Y-204386062D01*
X147037817Y-204397118D01*
X147018300Y-204401000D01*
X145318300Y-204401000D01*
X145298783Y-204397118D01*
X145282238Y-204386062D01*
X145271182Y-204369517D01*
X145267300Y-204350000D01*
X145267300Y-202650000D01*
X145271182Y-202630483D01*
X145282238Y-202613938D01*
X145298783Y-202602882D01*
X145318300Y-202599000D01*
X147018300Y-202599000D01*
X147037817Y-202602882D01*
G37*
G36*
X148969846Y-202637797D02*
G01*
X149133028Y-202705389D01*
X149279888Y-202803518D01*
X149404782Y-202928412D01*
X149502911Y-203075272D01*
X149570503Y-203238454D01*
X149604961Y-203411687D01*
X149604961Y-203588313D01*
X149570503Y-203761546D01*
X149502911Y-203924728D01*
X149404782Y-204071588D01*
X149279888Y-204196482D01*
X149133028Y-204294611D01*
X148969846Y-204362203D01*
X148796613Y-204396661D01*
X148619987Y-204396661D01*
X148446754Y-204362203D01*
X148283572Y-204294611D01*
X148136712Y-204196482D01*
X148011818Y-204071588D01*
X147913689Y-203924728D01*
X147846097Y-203761546D01*
X147811639Y-203588313D01*
X147811639Y-203411687D01*
X147846097Y-203238454D01*
X147913689Y-203075272D01*
X148011818Y-202928412D01*
X148136712Y-202803518D01*
X148283572Y-202705389D01*
X148446754Y-202637797D01*
X148619987Y-202603339D01*
X148796613Y-202603339D01*
X148969846Y-202637797D01*
G37*
G36*
X151509846Y-202637797D02*
G01*
X151673028Y-202705389D01*
X151819888Y-202803518D01*
X151944782Y-202928412D01*
X152042911Y-203075272D01*
X152110503Y-203238454D01*
X152144961Y-203411687D01*
X152144961Y-203588313D01*
X152110503Y-203761546D01*
X152042911Y-203924728D01*
X151944782Y-204071588D01*
X151819888Y-204196482D01*
X151673028Y-204294611D01*
X151509846Y-204362203D01*
X151336613Y-204396661D01*
X151159987Y-204396661D01*
X150986754Y-204362203D01*
X150823572Y-204294611D01*
X150676712Y-204196482D01*
X150551818Y-204071588D01*
X150453689Y-203924728D01*
X150386097Y-203761546D01*
X150351639Y-203588313D01*
X150351639Y-203411687D01*
X150386097Y-203238454D01*
X150453689Y-203075272D01*
X150551818Y-202928412D01*
X150676712Y-202803518D01*
X150823572Y-202705389D01*
X150986754Y-202637797D01*
X151159987Y-202603339D01*
X151336613Y-202603339D01*
X151509846Y-202637797D01*
G37*
G36*
X154049846Y-202637797D02*
G01*
X154213028Y-202705389D01*
X154359888Y-202803518D01*
X154484782Y-202928412D01*
X154582911Y-203075272D01*
X154650503Y-203238454D01*
X154684961Y-203411687D01*
X154684961Y-203588313D01*
X154650503Y-203761546D01*
X154582911Y-203924728D01*
X154484782Y-204071588D01*
X154359888Y-204196482D01*
X154213028Y-204294611D01*
X154049846Y-204362203D01*
X153876613Y-204396661D01*
X153699987Y-204396661D01*
X153526754Y-204362203D01*
X153363572Y-204294611D01*
X153216712Y-204196482D01*
X153091818Y-204071588D01*
X152993689Y-203924728D01*
X152926097Y-203761546D01*
X152891639Y-203588313D01*
X152891639Y-203411687D01*
X152926097Y-203238454D01*
X152993689Y-203075272D01*
X153091818Y-202928412D01*
X153216712Y-202803518D01*
X153363572Y-202705389D01*
X153526754Y-202637797D01*
X153699987Y-202603339D01*
X153876613Y-202603339D01*
X154049846Y-202637797D01*
G37*
G36*
X37124670Y-202418478D02*
G01*
X37287852Y-202486070D01*
X37434712Y-202584199D01*
X37559606Y-202709093D01*
X37657735Y-202855953D01*
X37725327Y-203019135D01*
X37759785Y-203192368D01*
X37759785Y-203368994D01*
X37725327Y-203542227D01*
X37657735Y-203705409D01*
X37559606Y-203852269D01*
X37434712Y-203977163D01*
X37287852Y-204075292D01*
X37124670Y-204142884D01*
X36951437Y-204177342D01*
X36774811Y-204177342D01*
X36601578Y-204142884D01*
X36438396Y-204075292D01*
X36291536Y-203977163D01*
X36166642Y-203852269D01*
X36068513Y-203705409D01*
X36000921Y-203542227D01*
X35966463Y-203368994D01*
X35966463Y-203192368D01*
X36000921Y-203019135D01*
X36068513Y-202855953D01*
X36166642Y-202709093D01*
X36291536Y-202584199D01*
X36438396Y-202486070D01*
X36601578Y-202418478D01*
X36774811Y-202384020D01*
X36951437Y-202384020D01*
X37124670Y-202418478D01*
G37*
G36*
X36467270Y-199965026D02*
G01*
X36630452Y-200032618D01*
X36777312Y-200130747D01*
X36902206Y-200255641D01*
X37000335Y-200402501D01*
X37067927Y-200565683D01*
X37102385Y-200738916D01*
X37102385Y-200915542D01*
X37067927Y-201088775D01*
X37000335Y-201251957D01*
X36902206Y-201398817D01*
X36777312Y-201523711D01*
X36630452Y-201621840D01*
X36467270Y-201689432D01*
X36294037Y-201723890D01*
X36117411Y-201723890D01*
X35944178Y-201689432D01*
X35780996Y-201621840D01*
X35634136Y-201523711D01*
X35509242Y-201398817D01*
X35411113Y-201251957D01*
X35343521Y-201088775D01*
X35309063Y-200915542D01*
X35309063Y-200738916D01*
X35343521Y-200565683D01*
X35411113Y-200402501D01*
X35509242Y-200255641D01*
X35634136Y-200130747D01*
X35780996Y-200032618D01*
X35944178Y-199965026D01*
X36117411Y-199930568D01*
X36294037Y-199930568D01*
X36467270Y-199965026D01*
G37*
G36*
X106489340Y-194287434D02*
G01*
X106831123Y-194355419D01*
X107164596Y-194456577D01*
X107486548Y-194589934D01*
X107793879Y-194754206D01*
X108083628Y-194947810D01*
X108353006Y-195168883D01*
X108599417Y-195415294D01*
X108820490Y-195684672D01*
X109014094Y-195974421D01*
X109178366Y-196281752D01*
X109311723Y-196603704D01*
X109412881Y-196937177D01*
X109480866Y-197278960D01*
X109515023Y-197625761D01*
X109515023Y-197974239D01*
X109480866Y-198321040D01*
X109412881Y-198662823D01*
X109311723Y-198996296D01*
X109178366Y-199318248D01*
X109014094Y-199625579D01*
X108820490Y-199915328D01*
X108599417Y-200184706D01*
X108353006Y-200431117D01*
X108083628Y-200652190D01*
X107793879Y-200845794D01*
X107486548Y-201010066D01*
X107164596Y-201143423D01*
X106831123Y-201244581D01*
X106489340Y-201312566D01*
X106142539Y-201346723D01*
X105794061Y-201346723D01*
X105447260Y-201312566D01*
X105105477Y-201244581D01*
X104772004Y-201143423D01*
X104450052Y-201010066D01*
X104142721Y-200845794D01*
X103852972Y-200652190D01*
X103583594Y-200431117D01*
X103337183Y-200184706D01*
X103116110Y-199915328D01*
X102922506Y-199625579D01*
X102758234Y-199318248D01*
X102624877Y-198996296D01*
X102523719Y-198662823D01*
X102455734Y-198321040D01*
X102421577Y-197974239D01*
X102421577Y-197625761D01*
X102455734Y-197278960D01*
X102523719Y-196937177D01*
X102624877Y-196603704D01*
X102758234Y-196281752D01*
X102922506Y-195974421D01*
X103116110Y-195684672D01*
X103337183Y-195415294D01*
X103583594Y-195168883D01*
X103852972Y-194947810D01*
X104142721Y-194754206D01*
X104450052Y-194589934D01*
X104772004Y-194456577D01*
X105105477Y-194355419D01*
X105447260Y-194287434D01*
X105794061Y-194253277D01*
X106142539Y-194253277D01*
X106489340Y-194287434D01*
G37*
G36*
X35809869Y-197511575D02*
G01*
X35973051Y-197579167D01*
X36119911Y-197677296D01*
X36244805Y-197802190D01*
X36342934Y-197949050D01*
X36410526Y-198112232D01*
X36444984Y-198285465D01*
X36444984Y-198462091D01*
X36410526Y-198635324D01*
X36342934Y-198798506D01*
X36244805Y-198945366D01*
X36119911Y-199070260D01*
X35973051Y-199168389D01*
X35809869Y-199235981D01*
X35636636Y-199270439D01*
X35460010Y-199270439D01*
X35286777Y-199235981D01*
X35123595Y-199168389D01*
X34976735Y-199070260D01*
X34851841Y-198945366D01*
X34753712Y-198798506D01*
X34686120Y-198635324D01*
X34651662Y-198462091D01*
X34651662Y-198285465D01*
X34686120Y-198112232D01*
X34753712Y-197949050D01*
X34851841Y-197802190D01*
X34976735Y-197677296D01*
X35123595Y-197579167D01*
X35286777Y-197511575D01*
X35460010Y-197477117D01*
X35636636Y-197477117D01*
X35809869Y-197511575D01*
G37*
G36*
X35517463Y-194835126D02*
G01*
X35532425Y-194848246D01*
X35541226Y-194866093D01*
X35981218Y-196508167D01*
X35982520Y-196528024D01*
X35976123Y-196546866D01*
X35963003Y-196561828D01*
X35945156Y-196570629D01*
X34303082Y-197010621D01*
X34283225Y-197011923D01*
X34264383Y-197005526D01*
X34249421Y-196992406D01*
X34240620Y-196974559D01*
X33894996Y-195684672D01*
X33803813Y-195344373D01*
X33803812Y-195344371D01*
X33800628Y-195332485D01*
X33799326Y-195312628D01*
X33805723Y-195293786D01*
X33818843Y-195278824D01*
X33836690Y-195270023D01*
X34796884Y-195012739D01*
X35466875Y-194833216D01*
X35466878Y-194833215D01*
X35478764Y-194830031D01*
X35498621Y-194828729D01*
X35517463Y-194835126D01*
G37*
G36*
X35072910Y-171487434D02*
G01*
X35414693Y-171555419D01*
X35748166Y-171656577D01*
X36070118Y-171789934D01*
X36377449Y-171954206D01*
X36667198Y-172147810D01*
X36936576Y-172368883D01*
X37182987Y-172615294D01*
X37404060Y-172884672D01*
X37597664Y-173174421D01*
X37761936Y-173481752D01*
X37895293Y-173803704D01*
X37996451Y-174137177D01*
X38064436Y-174478960D01*
X38098593Y-174825761D01*
X38098593Y-175174239D01*
X38064436Y-175521040D01*
X37996451Y-175862823D01*
X37895293Y-176196296D01*
X37761936Y-176518248D01*
X37597664Y-176825579D01*
X37404060Y-177115328D01*
X37182987Y-177384706D01*
X36936576Y-177631117D01*
X36667198Y-177852190D01*
X36377449Y-178045794D01*
X36070118Y-178210066D01*
X35748166Y-178343423D01*
X35414693Y-178444581D01*
X35072910Y-178512566D01*
X34726109Y-178546723D01*
X34377631Y-178546723D01*
X34030830Y-178512566D01*
X33689047Y-178444581D01*
X33355574Y-178343423D01*
X33033622Y-178210066D01*
X32726291Y-178045794D01*
X32436542Y-177852190D01*
X32167164Y-177631117D01*
X31920753Y-177384706D01*
X31699680Y-177115328D01*
X31506076Y-176825579D01*
X31341804Y-176518248D01*
X31208447Y-176196296D01*
X31107289Y-175862823D01*
X31039304Y-175521040D01*
X31005147Y-175174239D01*
X31005147Y-174825761D01*
X31039304Y-174478960D01*
X31107289Y-174137177D01*
X31208447Y-173803704D01*
X31341804Y-173481752D01*
X31506076Y-173174421D01*
X31699680Y-172884672D01*
X31920753Y-172615294D01*
X32167164Y-172368883D01*
X32436542Y-172147810D01*
X32726291Y-171954206D01*
X33033622Y-171789934D01*
X33355574Y-171656577D01*
X33689047Y-171555419D01*
X34030830Y-171487434D01*
X34377631Y-171453277D01*
X34726109Y-171453277D01*
X35072910Y-171487434D01*
G37*
G36*
X172629846Y-168677797D02*
G01*
X172793028Y-168745389D01*
X172939888Y-168843518D01*
X173064782Y-168968412D01*
X173162911Y-169115272D01*
X173230503Y-169278454D01*
X173264961Y-169451687D01*
X173264961Y-169628313D01*
X173230503Y-169801546D01*
X173162911Y-169964728D01*
X173064782Y-170111588D01*
X172939888Y-170236482D01*
X172793028Y-170334611D01*
X172629846Y-170402203D01*
X172456613Y-170436661D01*
X172279987Y-170436661D01*
X172106754Y-170402203D01*
X171943572Y-170334611D01*
X171796712Y-170236482D01*
X171671818Y-170111588D01*
X171573689Y-169964728D01*
X171506097Y-169801546D01*
X171471639Y-169628313D01*
X171471639Y-169451687D01*
X171506097Y-169278454D01*
X171573689Y-169115272D01*
X171671818Y-168968412D01*
X171796712Y-168843518D01*
X171943572Y-168745389D01*
X172106754Y-168677797D01*
X172279987Y-168643339D01*
X172456613Y-168643339D01*
X172629846Y-168677797D01*
G37*
G36*
X172629846Y-166137797D02*
G01*
X172793028Y-166205389D01*
X172939888Y-166303518D01*
X173064782Y-166428412D01*
X173162911Y-166575272D01*
X173230503Y-166738454D01*
X173264961Y-166911687D01*
X173264961Y-167088313D01*
X173230503Y-167261546D01*
X173162911Y-167424728D01*
X173064782Y-167571588D01*
X172939888Y-167696482D01*
X172793028Y-167794611D01*
X172629846Y-167862203D01*
X172456613Y-167896661D01*
X172279987Y-167896661D01*
X172106754Y-167862203D01*
X171943572Y-167794611D01*
X171796712Y-167696482D01*
X171671818Y-167571588D01*
X171573689Y-167424728D01*
X171506097Y-167261546D01*
X171471639Y-167088313D01*
X171471639Y-166911687D01*
X171506097Y-166738454D01*
X171573689Y-166575272D01*
X171671818Y-166428412D01*
X171796712Y-166303518D01*
X171943572Y-166205389D01*
X172106754Y-166137797D01*
X172279987Y-166103339D01*
X172456613Y-166103339D01*
X172629846Y-166137797D01*
G37*
G36*
X172629846Y-163597797D02*
G01*
X172793028Y-163665389D01*
X172939888Y-163763518D01*
X173064782Y-163888412D01*
X173162911Y-164035272D01*
X173230503Y-164198454D01*
X173264961Y-164371687D01*
X173264961Y-164548313D01*
X173230503Y-164721546D01*
X173162911Y-164884728D01*
X173064782Y-165031588D01*
X172939888Y-165156482D01*
X172793028Y-165254611D01*
X172629846Y-165322203D01*
X172456613Y-165356661D01*
X172279987Y-165356661D01*
X172106754Y-165322203D01*
X171943572Y-165254611D01*
X171796712Y-165156482D01*
X171671818Y-165031588D01*
X171573689Y-164884728D01*
X171506097Y-164721546D01*
X171471639Y-164548313D01*
X171471639Y-164371687D01*
X171506097Y-164198454D01*
X171573689Y-164035272D01*
X171671818Y-163888412D01*
X171796712Y-163763518D01*
X171943572Y-163665389D01*
X172106754Y-163597797D01*
X172279987Y-163563339D01*
X172456613Y-163563339D01*
X172629846Y-163597797D01*
G37*
G36*
X173237817Y-161022882D02*
G01*
X173254362Y-161033938D01*
X173265418Y-161050483D01*
X173269300Y-161070000D01*
X173269300Y-162770000D01*
X173265418Y-162789517D01*
X173254362Y-162806062D01*
X173237817Y-162817118D01*
X173218300Y-162821000D01*
X171518300Y-162821000D01*
X171498783Y-162817118D01*
X171482238Y-162806062D01*
X171471182Y-162789517D01*
X171467300Y-162770000D01*
X171467300Y-161070000D01*
X171471182Y-161050483D01*
X171482238Y-161033938D01*
X171498783Y-161022882D01*
X171518300Y-161019000D01*
X173218300Y-161019000D01*
X173237817Y-161022882D01*
G37*
G36*
X29729846Y-156657797D02*
G01*
X29893028Y-156725389D01*
X30039888Y-156823518D01*
X30164782Y-156948412D01*
X30262911Y-157095272D01*
X30330503Y-157258454D01*
X30364961Y-157431687D01*
X30364961Y-157608313D01*
X30330503Y-157781546D01*
X30262911Y-157944728D01*
X30164782Y-158091588D01*
X30039888Y-158216482D01*
X29893028Y-158314611D01*
X29729846Y-158382203D01*
X29556613Y-158416661D01*
X29379987Y-158416661D01*
X29206754Y-158382203D01*
X29043572Y-158314611D01*
X28896712Y-158216482D01*
X28771818Y-158091588D01*
X28673689Y-157944728D01*
X28606097Y-157781546D01*
X28571639Y-157608313D01*
X28571639Y-157431687D01*
X28606097Y-157258454D01*
X28673689Y-157095272D01*
X28771818Y-156948412D01*
X28896712Y-156823518D01*
X29043572Y-156725389D01*
X29206754Y-156657797D01*
X29379987Y-156623339D01*
X29556613Y-156623339D01*
X29729846Y-156657797D01*
G37*
G36*
X29729846Y-154117797D02*
G01*
X29893028Y-154185389D01*
X30039888Y-154283518D01*
X30164782Y-154408412D01*
X30262911Y-154555272D01*
X30330503Y-154718454D01*
X30364961Y-154891687D01*
X30364961Y-155068313D01*
X30330503Y-155241546D01*
X30262911Y-155404728D01*
X30164782Y-155551588D01*
X30039888Y-155676482D01*
X29893028Y-155774611D01*
X29729846Y-155842203D01*
X29556613Y-155876661D01*
X29379987Y-155876661D01*
X29206754Y-155842203D01*
X29043572Y-155774611D01*
X28896712Y-155676482D01*
X28771818Y-155551588D01*
X28673689Y-155404728D01*
X28606097Y-155241546D01*
X28571639Y-155068313D01*
X28571639Y-154891687D01*
X28606097Y-154718454D01*
X28673689Y-154555272D01*
X28771818Y-154408412D01*
X28896712Y-154283518D01*
X29043572Y-154185389D01*
X29206754Y-154117797D01*
X29379987Y-154083339D01*
X29556613Y-154083339D01*
X29729846Y-154117797D01*
G37*
G36*
X29729846Y-151577797D02*
G01*
X29893028Y-151645389D01*
X30039888Y-151743518D01*
X30164782Y-151868412D01*
X30262911Y-152015272D01*
X30330503Y-152178454D01*
X30364961Y-152351687D01*
X30364961Y-152528313D01*
X30330503Y-152701546D01*
X30262911Y-152864728D01*
X30164782Y-153011588D01*
X30039888Y-153136482D01*
X29893028Y-153234611D01*
X29729846Y-153302203D01*
X29556613Y-153336661D01*
X29379987Y-153336661D01*
X29206754Y-153302203D01*
X29043572Y-153234611D01*
X28896712Y-153136482D01*
X28771818Y-153011588D01*
X28673689Y-152864728D01*
X28606097Y-152701546D01*
X28571639Y-152528313D01*
X28571639Y-152351687D01*
X28606097Y-152178454D01*
X28673689Y-152015272D01*
X28771818Y-151868412D01*
X28896712Y-151743518D01*
X29043572Y-151645389D01*
X29206754Y-151577797D01*
X29379987Y-151543339D01*
X29556613Y-151543339D01*
X29729846Y-151577797D01*
G37*
G36*
X30337817Y-149002882D02*
G01*
X30354362Y-149013938D01*
X30365418Y-149030483D01*
X30369300Y-149050000D01*
X30369300Y-150750000D01*
X30365418Y-150769517D01*
X30354362Y-150786062D01*
X30337817Y-150797118D01*
X30318300Y-150801000D01*
X28618300Y-150801000D01*
X28598783Y-150797118D01*
X28582238Y-150786062D01*
X28571182Y-150769517D01*
X28567300Y-150750000D01*
X28567300Y-149050000D01*
X28571182Y-149030483D01*
X28582238Y-149013938D01*
X28598783Y-149002882D01*
X28618300Y-148999000D01*
X30318300Y-148999000D01*
X30337817Y-149002882D01*
G37*
G36*
X140789340Y-130687434D02*
G01*
X141131123Y-130755419D01*
X141464596Y-130856577D01*
X141786548Y-130989934D01*
X142093879Y-131154206D01*
X142383628Y-131347810D01*
X142653006Y-131568883D01*
X142899417Y-131815294D01*
X143120490Y-132084672D01*
X143314094Y-132374421D01*
X143478366Y-132681752D01*
X143611723Y-133003704D01*
X143712881Y-133337177D01*
X143780866Y-133678960D01*
X143815023Y-134025761D01*
X143815023Y-134374239D01*
X143780866Y-134721040D01*
X143712881Y-135062823D01*
X143611723Y-135396296D01*
X143478366Y-135718248D01*
X143314094Y-136025579D01*
X143120490Y-136315328D01*
X142899417Y-136584706D01*
X142653006Y-136831117D01*
X142383628Y-137052190D01*
X142093879Y-137245794D01*
X141786548Y-137410066D01*
X141464596Y-137543423D01*
X141131123Y-137644581D01*
X140789340Y-137712566D01*
X140442539Y-137746723D01*
X140094061Y-137746723D01*
X139747260Y-137712566D01*
X139405477Y-137644581D01*
X139072004Y-137543423D01*
X138750052Y-137410066D01*
X138442721Y-137245794D01*
X138152972Y-137052190D01*
X137883594Y-136831117D01*
X137637183Y-136584706D01*
X137416110Y-136315328D01*
X137222506Y-136025579D01*
X137058234Y-135718248D01*
X136924877Y-135396296D01*
X136823719Y-135062823D01*
X136755734Y-134721040D01*
X136721577Y-134374239D01*
X136721577Y-134025761D01*
X136755734Y-133678960D01*
X136823719Y-133337177D01*
X136924877Y-133003704D01*
X137058234Y-132681752D01*
X137222506Y-132374421D01*
X137416110Y-132084672D01*
X137637183Y-131815294D01*
X137883594Y-131568883D01*
X138152972Y-131347810D01*
X138442721Y-131154206D01*
X138750052Y-130989934D01*
X139072004Y-130856577D01*
X139405477Y-130755419D01*
X139747260Y-130687434D01*
X140094061Y-130653277D01*
X140442539Y-130653277D01*
X140789340Y-130687434D01*
G37*
G36*
X86689340Y-127187434D02*
G01*
X87031123Y-127255419D01*
X87364596Y-127356577D01*
X87686548Y-127489934D01*
X87993879Y-127654206D01*
X88283628Y-127847810D01*
X88553006Y-128068883D01*
X88799417Y-128315294D01*
X89020490Y-128584672D01*
X89214094Y-128874421D01*
X89378366Y-129181752D01*
X89511723Y-129503704D01*
X89612881Y-129837177D01*
X89680866Y-130178960D01*
X89715023Y-130525761D01*
X89715023Y-130874239D01*
X89680866Y-131221040D01*
X89612881Y-131562823D01*
X89511723Y-131896296D01*
X89378366Y-132218248D01*
X89214094Y-132525579D01*
X89020490Y-132815328D01*
X88799417Y-133084706D01*
X88553006Y-133331117D01*
X88283628Y-133552190D01*
X87993879Y-133745794D01*
X87686548Y-133910066D01*
X87364596Y-134043423D01*
X87031123Y-134144581D01*
X86689340Y-134212566D01*
X86342539Y-134246723D01*
X85994061Y-134246723D01*
X85647260Y-134212566D01*
X85305477Y-134144581D01*
X84972004Y-134043423D01*
X84650052Y-133910066D01*
X84342721Y-133745794D01*
X84052972Y-133552190D01*
X83783594Y-133331117D01*
X83537183Y-133084706D01*
X83316110Y-132815328D01*
X83122506Y-132525579D01*
X82958234Y-132218248D01*
X82824877Y-131896296D01*
X82723719Y-131562823D01*
X82655734Y-131221040D01*
X82621577Y-130874239D01*
X82621577Y-130525761D01*
X82655734Y-130178960D01*
X82723719Y-129837177D01*
X82824877Y-129503704D01*
X82958234Y-129181752D01*
X83122506Y-128874421D01*
X83316110Y-128584672D01*
X83537183Y-128315294D01*
X83783594Y-128068883D01*
X84052972Y-127847810D01*
X84342721Y-127654206D01*
X84650052Y-127489934D01*
X84972004Y-127356577D01*
X85305477Y-127255419D01*
X85647260Y-127187434D01*
X85994061Y-127153277D01*
X86342539Y-127153277D01*
X86689340Y-127187434D01*
G37*
G36*
X157107817Y-130602882D02*
G01*
X157124362Y-130613938D01*
X157135418Y-130630483D01*
X157139300Y-130650000D01*
X157139300Y-132350000D01*
X157135418Y-132369517D01*
X157124362Y-132386062D01*
X157107817Y-132397118D01*
X157088300Y-132401000D01*
X155388300Y-132401000D01*
X155368783Y-132397118D01*
X155352238Y-132386062D01*
X155341182Y-132369517D01*
X155337300Y-132350000D01*
X155337300Y-130650000D01*
X155341182Y-130630483D01*
X155352238Y-130613938D01*
X155368783Y-130602882D01*
X155388300Y-130599000D01*
X157088300Y-130599000D01*
X157107817Y-130602882D01*
G37*
G36*
X159039846Y-130637797D02*
G01*
X159203028Y-130705389D01*
X159349888Y-130803518D01*
X159474782Y-130928412D01*
X159572911Y-131075272D01*
X159640503Y-131238454D01*
X159674961Y-131411687D01*
X159674961Y-131588313D01*
X159640503Y-131761546D01*
X159572911Y-131924728D01*
X159474782Y-132071588D01*
X159349888Y-132196482D01*
X159203028Y-132294611D01*
X159039846Y-132362203D01*
X158866613Y-132396661D01*
X158689987Y-132396661D01*
X158516754Y-132362203D01*
X158353572Y-132294611D01*
X158206712Y-132196482D01*
X158081818Y-132071588D01*
X157983689Y-131924728D01*
X157916097Y-131761546D01*
X157881639Y-131588313D01*
X157881639Y-131411687D01*
X157916097Y-131238454D01*
X157983689Y-131075272D01*
X158081818Y-130928412D01*
X158206712Y-130803518D01*
X158353572Y-130705389D01*
X158516754Y-130637797D01*
X158689987Y-130603339D01*
X158866613Y-130603339D01*
X159039846Y-130637797D01*
G37*
G36*
X161579846Y-130637797D02*
G01*
X161743028Y-130705389D01*
X161889888Y-130803518D01*
X162014782Y-130928412D01*
X162112911Y-131075272D01*
X162180503Y-131238454D01*
X162214961Y-131411687D01*
X162214961Y-131588313D01*
X162180503Y-131761546D01*
X162112911Y-131924728D01*
X162014782Y-132071588D01*
X161889888Y-132196482D01*
X161743028Y-132294611D01*
X161579846Y-132362203D01*
X161406613Y-132396661D01*
X161229987Y-132396661D01*
X161056754Y-132362203D01*
X160893572Y-132294611D01*
X160746712Y-132196482D01*
X160621818Y-132071588D01*
X160523689Y-131924728D01*
X160456097Y-131761546D01*
X160421639Y-131588313D01*
X160421639Y-131411687D01*
X160456097Y-131238454D01*
X160523689Y-131075272D01*
X160621818Y-130928412D01*
X160746712Y-130803518D01*
X160893572Y-130705389D01*
X161056754Y-130637797D01*
X161229987Y-130603339D01*
X161406613Y-130603339D01*
X161579846Y-130637797D01*
G37*
G36*
X164119846Y-130637797D02*
G01*
X164283028Y-130705389D01*
X164429888Y-130803518D01*
X164554782Y-130928412D01*
X164652911Y-131075272D01*
X164720503Y-131238454D01*
X164754961Y-131411687D01*
X164754961Y-131588313D01*
X164720503Y-131761546D01*
X164652911Y-131924728D01*
X164554782Y-132071588D01*
X164429888Y-132196482D01*
X164283028Y-132294611D01*
X164119846Y-132362203D01*
X163946613Y-132396661D01*
X163769987Y-132396661D01*
X163596754Y-132362203D01*
X163433572Y-132294611D01*
X163286712Y-132196482D01*
X163161818Y-132071588D01*
X163063689Y-131924728D01*
X162996097Y-131761546D01*
X162961639Y-131588313D01*
X162961639Y-131411687D01*
X162996097Y-131238454D01*
X163063689Y-131075272D01*
X163161818Y-130928412D01*
X163286712Y-130803518D01*
X163433572Y-130705389D01*
X163596754Y-130637797D01*
X163769987Y-130603339D01*
X163946613Y-130603339D01*
X164119846Y-130637797D01*
G37*
G36*
X102917817Y-124602882D02*
G01*
X102934362Y-124613938D01*
X102945418Y-124630483D01*
X102949300Y-124650000D01*
X102949300Y-126350000D01*
X102945418Y-126369517D01*
X102934362Y-126386062D01*
X102917817Y-126397118D01*
X102898300Y-126401000D01*
X101198300Y-126401000D01*
X101178783Y-126397118D01*
X101162238Y-126386062D01*
X101151182Y-126369517D01*
X101147300Y-126350000D01*
X101147300Y-124650000D01*
X101151182Y-124630483D01*
X101162238Y-124613938D01*
X101178783Y-124602882D01*
X101198300Y-124599000D01*
X102898300Y-124599000D01*
X102917817Y-124602882D01*
G37*
G36*
X104849846Y-124637797D02*
G01*
X105013028Y-124705389D01*
X105159888Y-124803518D01*
X105284782Y-124928412D01*
X105382911Y-125075272D01*
X105450503Y-125238454D01*
X105484961Y-125411687D01*
X105484961Y-125588313D01*
X105450503Y-125761546D01*
X105382911Y-125924728D01*
X105284782Y-126071588D01*
X105159888Y-126196482D01*
X105013028Y-126294611D01*
X104849846Y-126362203D01*
X104676613Y-126396661D01*
X104499987Y-126396661D01*
X104326754Y-126362203D01*
X104163572Y-126294611D01*
X104016712Y-126196482D01*
X103891818Y-126071588D01*
X103793689Y-125924728D01*
X103726097Y-125761546D01*
X103691639Y-125588313D01*
X103691639Y-125411687D01*
X103726097Y-125238454D01*
X103793689Y-125075272D01*
X103891818Y-124928412D01*
X104016712Y-124803518D01*
X104163572Y-124705389D01*
X104326754Y-124637797D01*
X104499987Y-124603339D01*
X104676613Y-124603339D01*
X104849846Y-124637797D01*
G37*
G36*
X107389846Y-124637797D02*
G01*
X107553028Y-124705389D01*
X107699888Y-124803518D01*
X107824782Y-124928412D01*
X107922911Y-125075272D01*
X107990503Y-125238454D01*
X108024961Y-125411687D01*
X108024961Y-125588313D01*
X107990503Y-125761546D01*
X107922911Y-125924728D01*
X107824782Y-126071588D01*
X107699888Y-126196482D01*
X107553028Y-126294611D01*
X107389846Y-126362203D01*
X107216613Y-126396661D01*
X107039987Y-126396661D01*
X106866754Y-126362203D01*
X106703572Y-126294611D01*
X106556712Y-126196482D01*
X106431818Y-126071588D01*
X106333689Y-125924728D01*
X106266097Y-125761546D01*
X106231639Y-125588313D01*
X106231639Y-125411687D01*
X106266097Y-125238454D01*
X106333689Y-125075272D01*
X106431818Y-124928412D01*
X106556712Y-124803518D01*
X106703572Y-124705389D01*
X106866754Y-124637797D01*
X107039987Y-124603339D01*
X107216613Y-124603339D01*
X107389846Y-124637797D01*
G37*
G36*
X109929846Y-124637797D02*
G01*
X110093028Y-124705389D01*
X110239888Y-124803518D01*
X110364782Y-124928412D01*
X110462911Y-125075272D01*
X110530503Y-125238454D01*
X110564961Y-125411687D01*
X110564961Y-125588313D01*
X110530503Y-125761546D01*
X110462911Y-125924728D01*
X110364782Y-126071588D01*
X110239888Y-126196482D01*
X110093028Y-126294611D01*
X109929846Y-126362203D01*
X109756613Y-126396661D01*
X109579987Y-126396661D01*
X109406754Y-126362203D01*
X109243572Y-126294611D01*
X109096712Y-126196482D01*
X108971818Y-126071588D01*
X108873689Y-125924728D01*
X108806097Y-125761546D01*
X108771639Y-125588313D01*
X108771639Y-125411687D01*
X108806097Y-125238454D01*
X108873689Y-125075272D01*
X108971818Y-124928412D01*
X109096712Y-124803518D01*
X109243572Y-124705389D01*
X109406754Y-124637797D01*
X109579987Y-124603339D01*
X109756613Y-124603339D01*
X109929846Y-124637797D01*
G37*
M02*
