M48
; DRILL file {KiCad 9.0.2} date 2025-12-10T21:35:13-0500
; FORMAT={-:-/ absolute / metric / decimal}
; #@! TF.CreationDate,2025-12-10T21:35:13-05:00
; #@! TF.GenerationSoftware,Kicad,Pcbnew,9.0.2
; #@! TF.FileFunction,Plated,1,2,PTH
FMAT,2
METRIC
; #@! TA.AperFunction,Plated,PTH,ViaDrill
T1C0.400
; #@! TA.AperFunction,Plated,PTH,ComponentDrill
T2C1.000
; #@! TA.AperFunction,Plated,PTH,ComponentDrill
T3C3.500
%
G90
G05
T1
X35.0Y-140.0
X35.0Y-160.0
X55.0Y-140.0
X55.0Y-160.0
X90.0Y-200.0
X125.0Y-130.0
X125.0Y-200.0
T2
X29.468Y-149.9
X29.468Y-152.44
X29.468Y-154.98
X29.468Y-157.52
X34.891Y-195.92
X35.548Y-198.374
X36.206Y-200.827
X36.863Y-203.281
X60.361Y-214.415
X62.815Y-213.757
X65.268Y-213.1
X67.722Y-212.443
X102.048Y-125.5
X104.588Y-125.5
X107.128Y-125.5
X109.668Y-125.5
X146.168Y-203.5
X148.708Y-203.5
X151.248Y-203.5
X153.788Y-203.5
X156.238Y-131.5
X158.778Y-131.5
X161.318Y-131.5
X163.858Y-131.5
X172.368Y-161.92
X172.368Y-164.46
X172.368Y-167.0
X172.368Y-169.54
T3
X34.552Y-175.0
X86.168Y-130.7
X105.968Y-197.8
X140.268Y-134.2
M30
