G04 #@! TF.GenerationSoftware,KiCad,Pcbnew,9.0.2*
G04 #@! TF.CreationDate,2026-01-01T18:22:32-05:00*
G04 #@! TF.ProjectId,ThumbsUp,5468756d-6273-4557-902e-6b696361645f,rev?*
G04 #@! TF.SameCoordinates,Original*
G04 #@! TF.FileFunction,Profile,NP*
%FSLAX46Y46*%
G04 Gerber Fmt 4.6, Leading zero omitted, Abs format (unit mm)*
G04 Created by KiCad (PCBNEW 9.0.2) date 2026-01-01 18:22:32*
%MOMM*%
%LPD*%
G01*
G04 APERTURE LIST*
G04 #@! TA.AperFunction,Profile*
%ADD10C,0.050000*%
G04 #@! TD*
G04 APERTURE END LIST*
D10*
X96468747Y-204703553D02*
X96468747Y-204203553D01*
X157968300Y-153500000D02*
X158968300Y-153500000D01*
X102968747Y-203703553D02*
X108968747Y-203703553D01*
X127468300Y-155500000D02*
G75*
G02*
X126968300Y-156000000I-500000J0D01*
G01*
X87468300Y-160000000D02*
X81468300Y-160000000D01*
X142468747Y-217203553D02*
G75*
G02*
X142468747Y-215203647I-47J999953D01*
G01*
X130468300Y-157500000D02*
X130400000Y-157500000D01*
X52649340Y-179910660D02*
X53149340Y-179910660D01*
X145468300Y-156000000D02*
G75*
G02*
X145968300Y-155500000I500000J0D01*
G01*
X93468300Y-158500000D02*
G75*
G02*
X93968300Y-159000000I0J-500000D01*
G01*
X136468300Y-161000000D02*
X130468300Y-161000000D01*
X49168746Y-216382921D02*
X43730899Y-218918630D01*
X128000000Y-213203451D02*
X128000000Y-216201438D01*
X165968300Y-152500000D02*
X165968300Y-217500000D01*
X110968747Y-209203553D02*
X110968747Y-210203550D01*
X43730899Y-218918630D02*
G75*
G02*
X43066415Y-218676795I-211299J453230D01*
G01*
X126968747Y-212203553D02*
X126996555Y-212203457D01*
X93968747Y-213703553D02*
X93968747Y-213203553D01*
X120968300Y-156000000D02*
X126968300Y-156000000D01*
X80968300Y-159000000D02*
X80968300Y-159500000D01*
X143600000Y-156500000D02*
G75*
G02*
X142600000Y-157500000I-1000000J0D01*
G01*
X160968300Y-211202367D02*
G75*
G02*
X158970668Y-213202299I-1999900J-33D01*
G01*
X145968300Y-153500000D02*
X144600000Y-153500000D01*
X74901556Y-216720868D02*
X71186339Y-208741349D01*
X136468300Y-161000000D02*
X142468300Y-161000000D01*
X127468747Y-209703553D02*
X127468747Y-209203553D01*
X68684899Y-206179012D02*
X68896210Y-206632165D01*
X126968747Y-208703553D02*
G75*
G02*
X127468747Y-209203553I-47J-500047D01*
G01*
X71639569Y-207647798D02*
G75*
G02*
X71398321Y-208311553I-453469J-210902D01*
G01*
X56902898Y-211673049D02*
X57114207Y-212126202D01*
X114968747Y-210203553D02*
G75*
G02*
X114468747Y-209703553I-47J499953D01*
G01*
X68020438Y-205937166D02*
G75*
G02*
X67175185Y-204124517I-422538J906366D01*
G01*
X102968300Y-151000000D02*
X96968300Y-151000000D01*
X93468747Y-216203553D02*
X94968399Y-216203553D01*
X53972666Y-212487749D02*
G75*
G02*
X53127458Y-210675193I-422666J906249D01*
G01*
X126996555Y-212203457D02*
G75*
G02*
X127999949Y-213203451I3445J-999943D01*
G01*
X83967110Y-222499999D02*
G75*
G02*
X74901549Y-216720871I-10J9999999D01*
G01*
X95968399Y-208203553D02*
G75*
G02*
X96968747Y-207203599I1000001J-47D01*
G01*
X93968747Y-213703553D02*
G75*
G02*
X93468747Y-214203547I-499847J-147D01*
G01*
X93968300Y-159000000D02*
X93968300Y-159500000D01*
X143600000Y-156500000D02*
X143600000Y-154500000D01*
X157968300Y-155500000D02*
G75*
G02*
X157968300Y-153500000I0J1000000D01*
G01*
X120968747Y-208703553D02*
X114968747Y-208703553D01*
X114968300Y-152500000D02*
G75*
G02*
X112968300Y-150500000I0J2000000D01*
G01*
X142468300Y-159500000D02*
G75*
G02*
X142468300Y-157500000I0J1000000D01*
G01*
X96468300Y-150000000D02*
X96468300Y-150500000D01*
X50150000Y-179080000D02*
X50149340Y-180410660D01*
X95968399Y-215203553D02*
X95968399Y-208203553D01*
X151968747Y-209703553D02*
X145968747Y-209703553D01*
X94468300Y-155500000D02*
G75*
G02*
X93468300Y-156500000I-1000000J0D01*
G01*
X165968300Y-217500000D02*
G75*
G02*
X160968300Y-222500000I-5000000J0D01*
G01*
X87468747Y-212703553D02*
X93468747Y-212703553D01*
X127468300Y-155000000D02*
X127468300Y-155500000D01*
X145968300Y-157000000D02*
G75*
G02*
X145468300Y-156500000I0J500000D01*
G01*
X120968747Y-208703553D02*
X126968747Y-208703553D01*
X50149340Y-192410660D02*
G75*
G02*
X52149340Y-192410660I1000000J0D01*
G01*
X145468300Y-156000000D02*
X145468300Y-156500000D01*
X79468300Y-157500000D02*
G75*
G02*
X80468300Y-156500000I1000000J0D01*
G01*
X111091670Y-141500000D02*
G75*
G02*
X120578501Y-143039507I30J-29999700D01*
G01*
X56299508Y-209195970D02*
X54940045Y-209829897D01*
X129968747Y-214203553D02*
G75*
G02*
X130468747Y-213703547I500153J-147D01*
G01*
X109468300Y-150500000D02*
G75*
G02*
X108968300Y-151000000I-500000J0D01*
G01*
X112968747Y-212203553D02*
X112965194Y-212203547D01*
X108968747Y-207203553D02*
G75*
G02*
X108968747Y-205203647I-47J999953D01*
G01*
X81468300Y-156500000D02*
G75*
G02*
X81468300Y-158500000I0J-1000000D01*
G01*
X109468747Y-204703553D02*
G75*
G02*
X108968747Y-205203547I-499847J-147D01*
G01*
X81468300Y-160000000D02*
G75*
G02*
X80968300Y-159500000I0J500000D01*
G01*
X93468747Y-216203553D02*
G75*
G02*
X93468747Y-214203647I-47J999953D01*
G01*
X158970668Y-213202366D02*
X157968747Y-213203552D01*
X108968747Y-203703553D02*
G75*
G02*
X109468747Y-204203553I-47J-500047D01*
G01*
X120968300Y-156000000D02*
X114968300Y-156000000D01*
X57778670Y-212368046D02*
G75*
G02*
X57114258Y-212126178I-211270J453146D01*
G01*
X96468300Y-147500000D02*
X96968300Y-147500000D01*
X114968747Y-210203553D02*
G75*
G02*
X114968747Y-212203647I-47J-1000047D01*
G01*
X130468747Y-217203553D02*
X128998561Y-217201437D01*
X126968747Y-212203553D02*
G75*
G02*
X126968747Y-210203647I-47J999953D01*
G01*
X108968300Y-147500000D02*
X110968300Y-147500000D01*
X114468747Y-209703553D02*
X114468747Y-209203553D01*
X93968300Y-159500000D02*
G75*
G02*
X93468300Y-160000000I-500000J0D01*
G01*
X87468747Y-212703553D02*
X81468747Y-212703553D01*
X112965194Y-212203547D02*
G75*
G02*
X110968750Y-210203550I3406J1999847D01*
G01*
X145468747Y-210703553D02*
X145468747Y-210203553D01*
X160968300Y-147500000D02*
G75*
G02*
X165968300Y-152500000I0J-5000000D01*
G01*
X96968300Y-151000000D02*
G75*
G02*
X96468300Y-150500000I0J500000D01*
G01*
X53649340Y-192410660D02*
G75*
G02*
X53149340Y-192910740I-500040J-40D01*
G01*
X108968300Y-149500000D02*
G75*
G02*
X108968300Y-147500000I0J1000000D01*
G01*
X145468747Y-210203553D02*
G75*
G02*
X145968747Y-209703547I500153J-147D01*
G01*
X158468747Y-210703553D02*
G75*
G02*
X157968747Y-211203547I-499847J-147D01*
G01*
X87468300Y-160000000D02*
X93468300Y-160000000D01*
X51149314Y-195020686D02*
X59299513Y-195020487D01*
X53649340Y-186410660D02*
X53649340Y-180410660D01*
X126968300Y-154500000D02*
G75*
G02*
X127468300Y-155000000I0J-500000D01*
G01*
X114968300Y-152500000D02*
G75*
G02*
X114968300Y-154500000I0J-1000000D01*
G01*
X114468300Y-155000000D02*
X114468300Y-155500000D01*
X128998561Y-217201437D02*
G75*
G02*
X128000062Y-216201438I1439J999937D01*
G01*
X63216517Y-209832338D02*
X68654363Y-207296628D01*
X145968747Y-211203553D02*
G75*
G02*
X145968747Y-213203647I-47J-1000047D01*
G01*
X158468300Y-156000000D02*
X158468300Y-156500000D01*
X95968399Y-215203553D02*
G75*
G02*
X94968399Y-216203599I-999999J-47D01*
G01*
X42251736Y-215746552D02*
X41798486Y-215957907D01*
X52149340Y-180410660D02*
G75*
G02*
X50149340Y-180410660I-1000000J0D01*
G01*
X94468300Y-155500000D02*
X94468300Y-149500000D01*
X50149340Y-192410660D02*
X50150000Y-194020686D01*
X151968300Y-157000000D02*
X157968300Y-157000000D01*
X114468747Y-209203553D02*
G75*
G02*
X114968747Y-208703547I500153J-147D01*
G01*
X79300000Y-215203553D02*
X79300000Y-215020487D01*
X56299508Y-209195970D02*
G75*
G02*
X57144788Y-211008678I422692J-906330D01*
G01*
X41798486Y-215957907D02*
X41461930Y-215958069D01*
X56902898Y-211673049D02*
G75*
G02*
X57144769Y-211008636I453202J211249D01*
G01*
X142468747Y-213703553D02*
G75*
G02*
X142968747Y-214203553I-47J-500047D01*
G01*
X158468747Y-210703553D02*
X158468747Y-210203553D01*
X80300000Y-216203553D02*
G75*
G02*
X79299947Y-215203553I0J1000053D01*
G01*
X142968300Y-160000000D02*
X142968300Y-160500000D01*
X145968747Y-213203553D02*
X145900000Y-213203553D01*
X96468300Y-150000000D02*
G75*
G02*
X96968300Y-149500000I500000J0D01*
G01*
X145968747Y-211203553D02*
G75*
G02*
X145468747Y-210703553I-47J499953D01*
G01*
X49168746Y-216382921D02*
X54606593Y-213847212D01*
X67175201Y-204124552D02*
X68594611Y-203468482D01*
X158968300Y-153500000D02*
G75*
G02*
X160968300Y-155500000I0J-2000000D01*
G01*
X112968300Y-149500000D02*
X112968300Y-150500000D01*
X94468300Y-149500000D02*
G75*
G02*
X96468300Y-147500000I2000000J0D01*
G01*
X130468300Y-157500000D02*
G75*
G02*
X130468300Y-159500000I0J-1000000D01*
G01*
X142468300Y-159500000D02*
G75*
G02*
X142968300Y-160000000I0J-500000D01*
G01*
X71186339Y-208741351D02*
G75*
G02*
X71331071Y-208343062I271861J126651D01*
G01*
X142968747Y-214703553D02*
X142968747Y-214203553D01*
X68020438Y-205937166D02*
G75*
G02*
X68684956Y-206178985I211362J-453134D01*
G01*
X151968747Y-209703553D02*
X157968747Y-209703553D01*
X160968300Y-155500000D02*
X160968300Y-211202367D01*
X129968747Y-214703553D02*
X129968747Y-214203553D01*
X126968300Y-154500000D02*
G75*
G02*
X126968300Y-152500000I0J1000000D01*
G01*
X157968300Y-155500000D02*
G75*
G02*
X158468300Y-156000000I0J-500000D01*
G01*
X54637128Y-212729594D02*
X54848439Y-213182748D01*
X96468747Y-204203553D02*
G75*
G02*
X96968747Y-203703547I500153J-147D01*
G01*
X142468300Y-157500000D02*
X142600000Y-157500000D01*
X128400000Y-152500000D02*
G75*
G02*
X129400000Y-153500000I0J-1000000D01*
G01*
X52649340Y-192910660D02*
G75*
G02*
X52149340Y-192410660I-40J499960D01*
G01*
X96968700Y-205203553D02*
G75*
G02*
X96968747Y-207203647I0J-1000047D01*
G01*
X142468747Y-217203553D02*
X143900000Y-217203553D01*
X53149340Y-179910660D02*
G75*
G02*
X53649340Y-180410660I-40J-500040D01*
G01*
X130468300Y-161000000D02*
G75*
G02*
X129968300Y-160500000I0J500000D01*
G01*
X130400000Y-157500000D02*
G75*
G02*
X129400000Y-156500000I0J1000000D01*
G01*
X136468747Y-213703553D02*
X130468747Y-213703553D01*
X110968300Y-147500000D02*
G75*
G02*
X112968300Y-149500000I0J-2000000D01*
G01*
X41461930Y-215958069D02*
G75*
G02*
X37460031Y-211958070I-1930J3999969D01*
G01*
X59468348Y-178080000D02*
X51150000Y-178080000D01*
X42855127Y-218223631D02*
X43066437Y-218676785D01*
X79468300Y-157500000D02*
X79468348Y-158078348D01*
X81468747Y-216203553D02*
X80300000Y-216203553D01*
X52649340Y-192910660D02*
X53149340Y-192910660D01*
X130468747Y-215203553D02*
G75*
G02*
X129968747Y-214703553I-47J499953D01*
G01*
X42251736Y-215746552D02*
G75*
G02*
X43096984Y-217559192I422564J-906348D01*
G01*
X81468747Y-214203553D02*
G75*
G02*
X81468747Y-216203647I-47J-1000047D01*
G01*
X102968747Y-203703553D02*
X96968747Y-203703553D01*
X157968747Y-209703553D02*
G75*
G02*
X158468747Y-210203553I-47J-500047D01*
G01*
X144900000Y-216203553D02*
G75*
G02*
X143900000Y-217203500I-999900J-47D01*
G01*
X68594611Y-203468482D02*
G75*
G02*
X69920843Y-203954293I419589J-907718D01*
G01*
X109468747Y-204703553D02*
X109468747Y-204203553D01*
X114968300Y-156000000D02*
G75*
G02*
X114468300Y-155500000I0J500000D01*
G01*
X53972666Y-212487749D02*
G75*
G02*
X54637125Y-212729595I211234J-453351D01*
G01*
X37460000Y-146500000D02*
G75*
G02*
X42460000Y-141500000I5000000J0D01*
G01*
X53127430Y-210675133D02*
X54940045Y-209829897D01*
X79468348Y-158078348D02*
G75*
G02*
X59468348Y-178079998I-19999998J-1652D01*
G01*
X114468300Y-155000000D02*
G75*
G02*
X114968300Y-154500000I500000J0D01*
G01*
X138828330Y-147500000D02*
X151960000Y-147500000D01*
X145968300Y-153500000D02*
G75*
G02*
X145968300Y-155500000I0J-1000000D01*
G01*
X130468747Y-215203553D02*
G75*
G02*
X130468747Y-217203647I-47J-1000047D01*
G01*
X142968747Y-214703553D02*
G75*
G02*
X142468747Y-215203547I-499847J-147D01*
G01*
X114968747Y-212203553D02*
X112968747Y-212203553D01*
X68896210Y-206632165D02*
G75*
G02*
X68654389Y-207296685I-453210J-211335D01*
G01*
X53649340Y-186410660D02*
X53649340Y-192410660D01*
X136468747Y-213703553D02*
X142468747Y-213703553D01*
X80968747Y-213203553D02*
G75*
G02*
X81468747Y-212703547I500153J-147D01*
G01*
X54848439Y-213182748D02*
G75*
G02*
X54606599Y-213847224I-453339J-211252D01*
G01*
X42460000Y-141500000D02*
X111091700Y-141500000D01*
X71331064Y-208343046D02*
X71398318Y-208311547D01*
X144900000Y-214203600D02*
X144900000Y-216203553D01*
X108968747Y-207203553D02*
G75*
G02*
X110968747Y-209203553I-47J-2000047D01*
G01*
X127468747Y-209703553D02*
G75*
G02*
X126968747Y-210203547I-499847J-147D01*
G01*
X151960000Y-147500000D02*
X160960000Y-147500000D01*
X52149340Y-180410660D02*
G75*
G02*
X52649340Y-179910740I499960J-40D01*
G01*
X142968300Y-160500000D02*
G75*
G02*
X142468300Y-161000000I-500000J0D01*
G01*
X80968300Y-159000000D02*
G75*
G02*
X81468300Y-158500000I500000J0D01*
G01*
X109468300Y-150000000D02*
X109468300Y-150500000D01*
X42855127Y-218223631D02*
G75*
G02*
X43096977Y-217559177I453073J211331D01*
G01*
X143600000Y-154500000D02*
G75*
G02*
X144600000Y-153500000I1000000J0D01*
G01*
X93468747Y-212703553D02*
G75*
G02*
X93968747Y-213203553I-47J-500047D01*
G01*
X59299513Y-195020487D02*
G75*
G02*
X79300013Y-215020487I487J-20000013D01*
G01*
X120578503Y-143039501D02*
X129341497Y-145960499D01*
X51149314Y-195020686D02*
G75*
G02*
X50150014Y-194020686I686J999986D01*
G01*
X37460000Y-211958070D02*
X37460000Y-146500000D01*
X69920815Y-203954306D02*
X71639569Y-207647798D01*
X81468747Y-214203553D02*
G75*
G02*
X80968747Y-213703553I-47J499953D01*
G01*
X50150000Y-179080000D02*
G75*
G02*
X51150000Y-178080000I1000000J0D01*
G01*
X144900000Y-214203553D02*
G75*
G02*
X145900000Y-213203500I1000100J-47D01*
G01*
X102968300Y-151000000D02*
X108968300Y-151000000D01*
X129968300Y-160000000D02*
G75*
G02*
X130468300Y-159500000I500000J0D01*
G01*
X81468300Y-156500000D02*
X80468300Y-156500000D01*
X93468300Y-158500000D02*
G75*
G02*
X93468300Y-156500000I0J1000000D01*
G01*
X158468300Y-156500000D02*
G75*
G02*
X157968300Y-157000000I-500000J0D01*
G01*
X63216517Y-209832338D02*
X57778670Y-212368046D01*
X108968300Y-149500000D02*
G75*
G02*
X109468300Y-150000000I0J-500000D01*
G01*
X151968300Y-157000000D02*
X145968300Y-157000000D01*
X80968747Y-213703553D02*
X80968747Y-213203553D01*
X129400000Y-156500000D02*
X129400000Y-153500000D01*
X157968747Y-213203553D02*
G75*
G02*
X157968747Y-211203647I-47J999953D01*
G01*
X138828330Y-147500000D02*
G75*
G02*
X129341499Y-145960493I-30J29999700D01*
G01*
X129968300Y-160000000D02*
X129968300Y-160500000D01*
X96968300Y-147500000D02*
G75*
G02*
X96968300Y-149500000I0J-1000000D01*
G01*
X83967110Y-222499999D02*
X160968300Y-222500000D01*
X96968747Y-205203553D02*
G75*
G02*
X96468747Y-204703553I-47J499953D01*
G01*
X126968300Y-152500000D02*
X128400000Y-152500000D01*
M02*
