M48
; DRILL file {KiCad 9.0.2} date 2026-01-27T16:41:07-0500
; FORMAT={-:-/ absolute / metric / decimal}
; #@! TF.CreationDate,2026-01-27T16:41:07-05:00
; #@! TF.GenerationSoftware,Kicad,Pcbnew,9.0.2
; #@! TF.FileFunction,Plated,1,2,PTH
FMAT,2
METRIC
; #@! TA.AperFunction,Plated,PTH,ComponentDrill
T1C1.000
; #@! TA.AperFunction,Plated,PTH,ComponentDrill
T2C3.500
%
G90
G05
T1
X42.6Y-155.39
X42.6Y-157.93
X42.6Y-160.47
X42.6Y-163.01
X55.193Y-204.944
X57.694Y-204.503
X60.196Y-204.062
X62.697Y-203.621
X83.69Y-220.95
X86.23Y-220.95
X88.77Y-220.95
X91.31Y-220.95
X109.148Y-146.0
X111.688Y-146.0
X114.228Y-146.0
X116.768Y-146.0
X125.168Y-230.0
X127.708Y-230.0
X130.248Y-230.0
X132.788Y-230.0
X155.338Y-155.0
X157.878Y-155.0
X160.418Y-155.0
X162.958Y-155.0
X166.968Y-188.42
X166.968Y-190.96
X166.968Y-193.5
X166.968Y-196.04
T2
X44.4Y-186.4
X87.568Y-149.7
X103.068Y-221.3
X137.368Y-157.7
X164.0Y-227.6
M30
