G04 #@! TF.GenerationSoftware,KiCad,Pcbnew,9.0.2*
G04 #@! TF.CreationDate,2026-01-27T16:40:59-05:00*
G04 #@! TF.ProjectId,ThumbsUp,5468756d-6273-4557-902e-6b696361645f,rev?*
G04 #@! TF.SameCoordinates,Original*
G04 #@! TF.FileFunction,Profile,NP*
%FSLAX46Y46*%
G04 Gerber Fmt 4.6, Leading zero omitted, Abs format (unit mm)*
G04 Created by KiCad (PCBNEW 9.0.2) date 2026-01-27 16:40:59*
%MOMM*%
%LPD*%
G01*
G04 APERTURE LIST*
G04 #@! TA.AperFunction,Profile*
%ADD10C,0.050000*%
G04 #@! TD*
G04 APERTURE END LIST*
D10*
X96468747Y-210703553D02*
X96468747Y-210203553D01*
X160468300Y-162500000D02*
X161468300Y-162500000D01*
X102968747Y-209703553D02*
X108968747Y-209703553D01*
X130998720Y-223202713D02*
G75*
G02*
X127999987Y-220202713I1280J3000013D01*
G01*
X127468300Y-161500000D02*
G75*
G02*
X126968300Y-162000000I-500000J0D01*
G01*
X87468300Y-160000000D02*
X81468300Y-160000000D01*
X144968747Y-223203553D02*
G75*
G02*
X144968747Y-221203647I-47J999953D01*
G01*
X132968300Y-163500000D02*
X132900000Y-163500000D01*
X52649340Y-179910660D02*
X53149340Y-179910660D01*
X147968300Y-165000000D02*
G75*
G02*
X148468300Y-164500000I500000J0D01*
G01*
X93468300Y-158500000D02*
G75*
G02*
X93968300Y-159000000I0J-500000D01*
G01*
X138968300Y-167000000D02*
X132968300Y-167000000D01*
X50856191Y-214068335D02*
X44947344Y-215110224D01*
X128000000Y-219203451D02*
X128000000Y-220202713D01*
X168468300Y-158500000D02*
X168468300Y-226500000D01*
X110968747Y-215203553D02*
X110968747Y-216203550D01*
X44947344Y-215110224D02*
G75*
G02*
X44368077Y-214704651I-86844J492424D01*
G01*
X126968747Y-218203553D02*
X126996555Y-218203457D01*
X93968747Y-213703553D02*
X93968747Y-213203553D01*
X120968300Y-162000000D02*
X126968300Y-162000000D01*
X80968300Y-159000000D02*
X80968300Y-159500000D01*
X163468300Y-220202367D02*
G75*
G02*
X161470668Y-222202299I-1999900J-33D01*
G01*
X148468300Y-162500000D02*
X146600000Y-162500000D01*
X138968300Y-167000000D02*
X144968300Y-167000000D01*
X127468747Y-215703553D02*
X127468747Y-215203553D01*
X72348313Y-209263268D02*
X72435139Y-209755671D01*
X126968747Y-214703553D02*
G75*
G02*
X127468747Y-215203553I-47J-500047D01*
G01*
X59545813Y-211520694D02*
X59632637Y-212013097D01*
X114968747Y-216203553D02*
G75*
G02*
X114468747Y-215703553I-47J499953D01*
G01*
X71769087Y-208857688D02*
G75*
G02*
X71421800Y-206888132I-173587J984788D01*
G01*
X102968300Y-157000000D02*
X96968300Y-157000000D01*
X93468747Y-216203553D02*
X94968399Y-216203553D01*
X139757738Y-153500000D02*
G75*
G02*
X135273640Y-152438300I-38J10000000D01*
G01*
X56504566Y-211549234D02*
G75*
G02*
X56157260Y-209579561I-173666J984834D01*
G01*
X126996555Y-218203457D02*
G75*
G02*
X127999949Y-219203451I3445J-999943D01*
G01*
X95968399Y-214203553D02*
G75*
G02*
X96968747Y-213203599I1000001J-47D01*
G01*
X93968747Y-213703553D02*
G75*
G02*
X93468747Y-214203547I-499847J-147D01*
G01*
X93968300Y-159000000D02*
X93968300Y-159500000D01*
X160468300Y-164500000D02*
G75*
G02*
X160468300Y-162500000I0J1000000D01*
G01*
X108674021Y-225500000D02*
G75*
G02*
X113087223Y-226526490I-21J-10000200D01*
G01*
X120968747Y-214703553D02*
X114968747Y-214703553D01*
X114968300Y-158500000D02*
G75*
G02*
X112968300Y-156500000I0J2000000D01*
G01*
X144968300Y-165500000D02*
G75*
G02*
X144968300Y-163500000I0J1000000D01*
G01*
X96468300Y-156000000D02*
X96468300Y-156500000D01*
X50150000Y-179080000D02*
X50149340Y-180410660D01*
X95968399Y-215203553D02*
X95968399Y-214203553D01*
X154468747Y-218703553D02*
X148468747Y-218703553D01*
X94468300Y-155500000D02*
G75*
G02*
X93468300Y-156500000I-1000000J0D01*
G01*
X168468300Y-226500000D02*
G75*
G02*
X163468300Y-231500000I-5000000J0D01*
G01*
X87468747Y-212703553D02*
X93468747Y-212703553D01*
X127468300Y-161000000D02*
X127468300Y-161500000D01*
X148468300Y-166000000D02*
G75*
G02*
X147968300Y-165500000I0J500000D01*
G01*
X120968747Y-214703553D02*
X126968747Y-214703553D01*
X125525979Y-231500000D02*
G75*
G02*
X121112777Y-230473509I21J10000200D01*
G01*
X50149340Y-192410660D02*
G75*
G02*
X52149340Y-192410660I1000000J0D01*
G01*
X147968300Y-165000000D02*
X147968300Y-165500000D01*
X79468300Y-157500000D02*
G75*
G02*
X80468300Y-156500000I1000000J0D01*
G01*
X59604098Y-208971851D02*
X58126885Y-209232322D01*
X132468747Y-220203553D02*
G75*
G02*
X132968747Y-219703547I500153J-147D01*
G01*
X109468300Y-156500000D02*
G75*
G02*
X108968300Y-157000000I-500000J0D01*
G01*
X112968747Y-218203553D02*
X112965194Y-218203547D01*
X108968747Y-213203553D02*
G75*
G02*
X108968747Y-211203647I-47J999953D01*
G01*
X81468300Y-156500000D02*
G75*
G02*
X81468300Y-158500000I0J-1000000D01*
G01*
X109468747Y-210703553D02*
G75*
G02*
X108968747Y-211203547I-499847J-147D01*
G01*
X81468300Y-160000000D02*
G75*
G02*
X80968300Y-159500000I0J500000D01*
G01*
X93468747Y-216203553D02*
G75*
G02*
X93468747Y-214203647I-47J999953D01*
G01*
X135273648Y-152438285D02*
X121566352Y-145561715D01*
X161470668Y-222202366D02*
X160468700Y-222203553D01*
X108968747Y-209703553D02*
G75*
G02*
X109468747Y-210203553I-47J-500047D01*
G01*
X120968300Y-162000000D02*
X114968300Y-162000000D01*
X60211865Y-212418676D02*
G75*
G02*
X59632647Y-212013095I-86765J492476D01*
G01*
X95469150Y-153500000D02*
X96968300Y-153500000D01*
X114968747Y-216203553D02*
G75*
G02*
X114968747Y-218203647I-47J-1000047D01*
G01*
X132968747Y-223203646D02*
X130998720Y-223202713D01*
X126968747Y-218203553D02*
G75*
G02*
X126968747Y-216203647I-47J999953D01*
G01*
X108968300Y-153500000D02*
X110968300Y-153500000D01*
X114468747Y-215703553D02*
X114468747Y-215203553D01*
X93968300Y-159500000D02*
G75*
G02*
X93468300Y-160000000I-500000J0D01*
G01*
X74117936Y-207434246D02*
X76572082Y-221367338D01*
X87468747Y-212703553D02*
X81468747Y-212703553D01*
X112965194Y-218203547D02*
G75*
G02*
X110968750Y-216203550I3406J1999847D01*
G01*
X147968747Y-219703553D02*
X147968747Y-219203553D01*
X163468300Y-153500000D02*
G75*
G02*
X168468300Y-158500000I0J-5000000D01*
G01*
X96968300Y-157000000D02*
G75*
G02*
X96468300Y-156500000I0J500000D01*
G01*
X53649340Y-192410660D02*
G75*
G02*
X53149340Y-192910740I-500040J-40D01*
G01*
X108968300Y-155500000D02*
G75*
G02*
X108968300Y-153500000I0J1000000D01*
G01*
X147968747Y-219203553D02*
G75*
G02*
X148468747Y-218703547I500153J-147D01*
G01*
X160968747Y-219703553D02*
G75*
G02*
X160468747Y-220203547I-499847J-147D01*
G01*
X87468300Y-160000000D02*
X93468300Y-160000000D01*
X51149314Y-195020686D02*
X59299513Y-195020487D01*
X53649340Y-186410660D02*
X53649340Y-180410660D01*
X126968300Y-160500000D02*
G75*
G02*
X127468300Y-161000000I0J-500000D01*
G01*
X117082262Y-144500000D02*
G75*
G02*
X121566360Y-145561700I38J-10000000D01*
G01*
X114968300Y-158500000D02*
G75*
G02*
X114968300Y-160500000I0J-1000000D01*
G01*
X114468300Y-161000000D02*
X114468300Y-161500000D01*
X66120711Y-211376789D02*
X72029557Y-210334899D01*
X148468747Y-220203553D02*
G75*
G02*
X148468747Y-222203647I-47J-1000047D01*
G01*
X160968300Y-165000000D02*
X160968300Y-165500000D01*
X95968399Y-215203553D02*
G75*
G02*
X94968399Y-216203599I-999999J-47D01*
G01*
X44339577Y-211663396D02*
X43980947Y-211726632D01*
X52149340Y-180410660D02*
G75*
G02*
X50149340Y-180410660I-1000000J0D01*
G01*
X94468300Y-155500000D02*
X94469151Y-154499150D01*
X50149340Y-192410660D02*
X50150000Y-194020686D01*
X154468300Y-166000000D02*
X160468300Y-166000000D01*
X114468747Y-215203553D02*
G75*
G02*
X114968747Y-214703547I500153J-147D01*
G01*
X79300000Y-215203553D02*
X79300000Y-215020487D01*
X147400000Y-222703553D02*
X147400000Y-222701687D01*
X59604098Y-208971851D02*
G75*
G02*
X59951394Y-210941466I173752J-984789D01*
G01*
X59545813Y-211520694D02*
G75*
G02*
X59951408Y-210941548I492487J86694D01*
G01*
X144968747Y-219703553D02*
G75*
G02*
X145468747Y-220203553I-47J-500047D01*
G01*
X160968747Y-219703553D02*
X160968747Y-219203553D01*
X80300000Y-216203553D02*
G75*
G02*
X79299947Y-215203553I0J1000053D01*
G01*
X145468300Y-166000000D02*
X145468300Y-166500000D01*
X147400000Y-222703553D02*
G75*
G02*
X146900000Y-223203500I-499900J-47D01*
G01*
X96468300Y-156000000D02*
G75*
G02*
X96968300Y-155500000I500000J0D01*
G01*
X148468747Y-220203553D02*
G75*
G02*
X147968747Y-219703553I-47J499953D01*
G01*
X50856191Y-214068335D02*
X56765037Y-213026447D01*
X71421790Y-206888073D02*
X72962638Y-206621729D01*
X163468300Y-231500000D02*
X125525979Y-231500000D01*
X161468300Y-162500000D02*
G75*
G02*
X163468300Y-164500000I0J-2000000D01*
G01*
X112968300Y-155500000D02*
X112968300Y-156500000D01*
X132968300Y-163500000D02*
G75*
G02*
X132968300Y-165500000I0J-1000000D01*
G01*
X144968300Y-165500000D02*
G75*
G02*
X145468300Y-166000000I0J-500000D01*
G01*
X145468747Y-220703553D02*
X145468747Y-220203553D01*
X71769087Y-208857688D02*
G75*
G02*
X72348343Y-209263263I86913J-492312D01*
G01*
X154468747Y-218703553D02*
X160468747Y-218703553D01*
X163468300Y-164500000D02*
X163468300Y-220202367D01*
X148468747Y-222203553D02*
X147901684Y-222201703D01*
X132468747Y-220703553D02*
X132468747Y-220203553D01*
X126968300Y-160500000D02*
G75*
G02*
X126968300Y-158500000I0J1000000D01*
G01*
X160468300Y-164500000D02*
G75*
G02*
X160968300Y-165000000I0J-500000D01*
G01*
X57083793Y-211954814D02*
X57170619Y-212447218D01*
X96468747Y-210203553D02*
G75*
G02*
X96968747Y-209703547I500153J-147D01*
G01*
X144968300Y-163500000D02*
X145100000Y-163500000D01*
X130900000Y-158500000D02*
G75*
G02*
X131900000Y-159500000I0J-1000000D01*
G01*
X94469151Y-154499150D02*
G75*
G02*
X95469150Y-153500051I999949J-850D01*
G01*
X52649340Y-192910660D02*
G75*
G02*
X52149340Y-192410660I-40J499960D01*
G01*
X96968700Y-211203553D02*
G75*
G02*
X96968747Y-213203647I0J-1000047D01*
G01*
X144968747Y-223203553D02*
X146900000Y-223203553D01*
X53149340Y-179910660D02*
G75*
G02*
X53649340Y-180410660I-40J-500040D01*
G01*
X132968300Y-167000000D02*
G75*
G02*
X132468300Y-166500000I0J500000D01*
G01*
X132900000Y-163500000D02*
G75*
G02*
X131900000Y-162500000I0J1000000D01*
G01*
X138968747Y-219703553D02*
X132971349Y-219703553D01*
X110968300Y-153500000D02*
G75*
G02*
X112968300Y-155500000I0J-2000000D01*
G01*
X59468348Y-178080000D02*
X51150000Y-178080000D01*
X81496279Y-225500000D02*
G75*
G02*
X76572102Y-221367335I21J5000000D01*
G01*
X44281292Y-214212240D02*
X44368117Y-214704644D01*
X79468300Y-157500000D02*
X79468348Y-158078348D01*
X81468747Y-216203553D02*
X80300000Y-216203553D01*
X52649340Y-192910660D02*
X53149340Y-192910660D01*
X132968747Y-221203553D02*
G75*
G02*
X132468747Y-220703553I-47J499953D01*
G01*
X44339577Y-211663396D02*
G75*
G02*
X44686870Y-213632996I173623J-984804D01*
G01*
X81468747Y-214203553D02*
G75*
G02*
X81468747Y-216203647I-47J-1000047D01*
G01*
X102968747Y-209703553D02*
X96968747Y-209703553D01*
X160468747Y-218703553D02*
G75*
G02*
X160968747Y-219203553I-47J-500047D01*
G01*
X81496279Y-225500000D02*
X108674021Y-225500000D01*
X72962638Y-206621729D02*
G75*
G02*
X74117936Y-207434242I170362J-985371D01*
G01*
X109468747Y-210703553D02*
X109468747Y-210203553D01*
X114968300Y-162000000D02*
G75*
G02*
X114468300Y-161500000I0J500000D01*
G01*
X147400000Y-222701687D02*
G75*
G02*
X147901684Y-222201703I500000J-13D01*
G01*
X56504566Y-211549234D02*
G75*
G02*
X57083821Y-211954809I86734J-492566D01*
G01*
X40460000Y-149500000D02*
G75*
G02*
X45460000Y-144500000I5000000J0D01*
G01*
X56157270Y-209579618D02*
X58126885Y-209232322D01*
X79468348Y-158078348D02*
G75*
G02*
X59468348Y-178079998I-19999998J-1652D01*
G01*
X114468300Y-161000000D02*
G75*
G02*
X114968300Y-160500000I500000J0D01*
G01*
X139757738Y-153500000D02*
X154460000Y-153500000D01*
X148468300Y-162500000D02*
G75*
G02*
X148468300Y-164500000I0J-1000000D01*
G01*
X132968747Y-221203553D02*
G75*
G02*
X132968747Y-223203647I-47J-1000047D01*
G01*
X145468747Y-220703553D02*
G75*
G02*
X144968747Y-221203547I-499847J-147D01*
G01*
X114968747Y-218203553D02*
X112968747Y-218203553D01*
X72435139Y-209755671D02*
G75*
G02*
X72029549Y-210334853I-492339J-86829D01*
G01*
X53649340Y-186410660D02*
X53649340Y-192410660D01*
X138968747Y-219703553D02*
X144968747Y-219703553D01*
X80968747Y-213203553D02*
G75*
G02*
X81468747Y-212703547I500153J-147D01*
G01*
X57170619Y-212447218D02*
G75*
G02*
X56765025Y-213026376I-492519J-86682D01*
G01*
X45460000Y-144500000D02*
X117082262Y-144500000D01*
X43980947Y-211726632D02*
G75*
G02*
X40459991Y-208772210I-520947J2954432D01*
G01*
X108968747Y-213203553D02*
G75*
G02*
X110968747Y-215203553I-47J-2000047D01*
G01*
X127468747Y-215703553D02*
G75*
G02*
X126968747Y-216203547I-499847J-147D01*
G01*
X154460000Y-153500000D02*
X163460000Y-153500000D01*
X52149340Y-180410660D02*
G75*
G02*
X52649340Y-179910740I499960J-40D01*
G01*
X145468300Y-166500000D02*
G75*
G02*
X144968300Y-167000000I-500000J0D01*
G01*
X80968300Y-159000000D02*
G75*
G02*
X81468300Y-158500000I500000J0D01*
G01*
X109468300Y-156000000D02*
X109468300Y-156500000D01*
X44281292Y-214212240D02*
G75*
G02*
X44686883Y-213633070I492308J86840D01*
G01*
X113087218Y-226526500D02*
X121112782Y-230473499D01*
X93468747Y-212703553D02*
G75*
G02*
X93968747Y-213203553I-47J-500047D01*
G01*
X59299513Y-195020487D02*
G75*
G02*
X79300013Y-215020487I487J-20000013D01*
G01*
X145100000Y-163500000D02*
X145600000Y-163500000D01*
X51149314Y-195020686D02*
G75*
G02*
X50150014Y-194020686I686J999986D01*
G01*
X40460000Y-208772210D02*
X40460000Y-149500000D01*
X81468747Y-214203553D02*
G75*
G02*
X80968747Y-213703553I-47J499953D01*
G01*
X146100000Y-163000000D02*
G75*
G02*
X146600000Y-162500000I500000J0D01*
G01*
X50150000Y-179080000D02*
G75*
G02*
X51150000Y-178080000I1000000J0D01*
G01*
X102968300Y-157000000D02*
X108968300Y-157000000D01*
X132468300Y-166000000D02*
G75*
G02*
X132968300Y-165500000I500000J0D01*
G01*
X81468300Y-156500000D02*
X80468300Y-156500000D01*
X93468300Y-158500000D02*
G75*
G02*
X93468300Y-156500000I0J1000000D01*
G01*
X160968300Y-165500000D02*
G75*
G02*
X160468300Y-166000000I-500000J0D01*
G01*
X66120711Y-211376789D02*
X60211865Y-212418676D01*
X146100000Y-163000000D02*
G75*
G02*
X145600000Y-163500000I-500000J0D01*
G01*
X108968300Y-155500000D02*
G75*
G02*
X109468300Y-156000000I0J-500000D01*
G01*
X154468300Y-166000000D02*
X148468300Y-166000000D01*
X80968747Y-213703553D02*
X80968747Y-213203553D01*
X131900000Y-162500000D02*
X131900000Y-159500000D01*
X160468747Y-222203553D02*
G75*
G02*
X160468747Y-220203647I-47J999953D01*
G01*
X132468300Y-166000000D02*
X132468300Y-166500000D01*
X96968300Y-153500000D02*
G75*
G02*
X96968300Y-155500000I0J-1000000D01*
G01*
X96968747Y-211203553D02*
G75*
G02*
X96468747Y-210703553I-47J499953D01*
G01*
X126968300Y-158500000D02*
X130900000Y-158500000D01*
M02*
