G04 #@! TF.GenerationSoftware,KiCad,Pcbnew,9.0.2*
G04 #@! TF.CreationDate,2026-07-21T20:03:05-04:00*
G04 #@! TF.ProjectId,ThumbsUp,5468756d-6273-4557-902e-6b696361645f,rev?*
G04 #@! TF.SameCoordinates,Original*
G04 #@! TF.FileFunction,Copper,L1,Top*
G04 #@! TF.FilePolarity,Positive*
%FSLAX46Y46*%
G04 Gerber Fmt 4.6, Leading zero omitted, Abs format (unit mm)*
G04 Created by KiCad (PCBNEW 9.0.2) date 2026-07-21 20:03:05*
%MOMM*%
%LPD*%
G01*
G04 APERTURE LIST*
G04 #@! TA.AperFunction,ComponentPad*
%ADD10C,7.000000*%
G04 #@! TD*
G04 #@! TA.AperFunction,Conductor*
%ADD11C,0.200000*%
G04 #@! TD*
G04 APERTURE END LIST*
D10*
X39600000Y-159390000D03*
X87468300Y-165450000D03*
X102968300Y-156450000D03*
X39100000Y-206389340D03*
X139118300Y-169450000D03*
X120968300Y-161450000D03*
X154468300Y-169450000D03*
D11*
X139368300Y-168950000D02*
X139118300Y-168700000D01*
X139118300Y-168700000D02*
X136620000Y-168700000D01*
X37250000Y-161740000D02*
X39600000Y-159390000D01*
G04 #@! TA.AperFunction,NonConductor*
G36*
X100686244Y-152945185D02*
G01*
X100731999Y-152997989D01*
X100741943Y-153067147D01*
X100712918Y-153130703D01*
X100688096Y-153152602D01*
X100577568Y-153226454D01*
X100577554Y-153226464D01*
X100273104Y-153476320D01*
X99994620Y-153754804D01*
X99744764Y-154059254D01*
X99744754Y-154059268D01*
X99525953Y-154386727D01*
X99525942Y-154386745D01*
X99340292Y-154734071D01*
X99340290Y-154734076D01*
X99189569Y-155097946D01*
X99075239Y-155474844D01*
X98998405Y-155861115D01*
X98998402Y-155861132D01*
X98959800Y-156253078D01*
X98959800Y-156646921D01*
X98998402Y-157038867D01*
X98998405Y-157038884D01*
X99075239Y-157425155D01*
X99189569Y-157802053D01*
X99340290Y-158165923D01*
X99340292Y-158165928D01*
X99525942Y-158513254D01*
X99525953Y-158513272D01*
X99744754Y-158840731D01*
X99744764Y-158840745D01*
X99994620Y-159145195D01*
X100273104Y-159423679D01*
X100273109Y-159423683D01*
X100273110Y-159423684D01*
X100577560Y-159673540D01*
X100905034Y-159892351D01*
X100905043Y-159892356D01*
X100905045Y-159892357D01*
X101252371Y-160078007D01*
X101252373Y-160078007D01*
X101252379Y-160078011D01*
X101616248Y-160228731D01*
X101993139Y-160343059D01*
X102379422Y-160419896D01*
X102771375Y-160458500D01*
X102771378Y-160458500D01*
X103165222Y-160458500D01*
X103165225Y-160458500D01*
X103557178Y-160419896D01*
X103943461Y-160343059D01*
X104320352Y-160228731D01*
X104684221Y-160078011D01*
X105031566Y-159892351D01*
X105359040Y-159673540D01*
X105663490Y-159423684D01*
X105941984Y-159145190D01*
X106037675Y-159028590D01*
X107265315Y-159028590D01*
X108134770Y-159898045D01*
X109196844Y-158835971D01*
X110608229Y-158835971D01*
X111670304Y-159898045D01*
X112732378Y-158835971D01*
X114143763Y-158835971D01*
X115205838Y-159898046D01*
X116267912Y-158835971D01*
X115205838Y-157773896D01*
X114143763Y-158835971D01*
X112732378Y-158835971D01*
X111670304Y-157773896D01*
X110608229Y-158835971D01*
X109196844Y-158835971D01*
X108134769Y-157773896D01*
X107629722Y-158278943D01*
X107513657Y-158559151D01*
X107512459Y-158561946D01*
X107505004Y-158578765D01*
X107503737Y-158581531D01*
X107493264Y-158603676D01*
X107491928Y-158606412D01*
X107483646Y-158622866D01*
X107482244Y-158625569D01*
X107285033Y-158994524D01*
X107283565Y-158997192D01*
X107274490Y-159013211D01*
X107272957Y-159015841D01*
X107265315Y-159028590D01*
X106037675Y-159028590D01*
X106191840Y-158840740D01*
X106410651Y-158513266D01*
X106596311Y-158165921D01*
X106747031Y-157802052D01*
X106861359Y-157425161D01*
X106932363Y-157068204D01*
X108840462Y-157068204D01*
X109902537Y-158130278D01*
X110964611Y-157068204D01*
X112375996Y-157068204D01*
X113438071Y-158130279D01*
X114500145Y-157068204D01*
X115911530Y-157068204D01*
X116973605Y-158130279D01*
X118035679Y-157068204D01*
X117893754Y-156926279D01*
X123124522Y-156926279D01*
X123124712Y-156926372D01*
X123141166Y-156934654D01*
X123143869Y-156936056D01*
X123512824Y-157133267D01*
X123515492Y-157134735D01*
X123531511Y-157143810D01*
X123534141Y-157145343D01*
X123555152Y-157157937D01*
X123557741Y-157159532D01*
X123573291Y-157169379D01*
X123575842Y-157171039D01*
X123923690Y-157403463D01*
X123926198Y-157405184D01*
X123941262Y-157415793D01*
X123943734Y-157417579D01*
X123963410Y-157432173D01*
X123965831Y-157434016D01*
X123980330Y-157445332D01*
X123982703Y-157447231D01*
X124306074Y-157712615D01*
X124308397Y-157714570D01*
X124322318Y-157726577D01*
X124324598Y-157728592D01*
X124342750Y-157745042D01*
X124344984Y-157747117D01*
X124358334Y-157759827D01*
X124360513Y-157761954D01*
X124386755Y-157788196D01*
X125106747Y-157068203D01*
X126518131Y-157068203D01*
X127580206Y-158130278D01*
X128350491Y-157359993D01*
X126901378Y-156684956D01*
X126518131Y-157068203D01*
X125106747Y-157068203D01*
X124044672Y-156006129D01*
X123124522Y-156926279D01*
X117893754Y-156926279D01*
X116973605Y-156006129D01*
X115911530Y-157068204D01*
X114500145Y-157068204D01*
X113438071Y-156006129D01*
X112375996Y-157068204D01*
X110964611Y-157068204D01*
X109902537Y-156006129D01*
X108840462Y-157068204D01*
X106932363Y-157068204D01*
X106938196Y-157038878D01*
X106976800Y-156646925D01*
X106976800Y-156253075D01*
X106938196Y-155861122D01*
X106861359Y-155474839D01*
X106747031Y-155097948D01*
X106596311Y-154734079D01*
X106582142Y-154707572D01*
X107665559Y-154707572D01*
X107673749Y-154727343D01*
X107674879Y-154730170D01*
X107681503Y-154747342D01*
X107682564Y-154750195D01*
X107690817Y-154773261D01*
X107691806Y-154776136D01*
X107697582Y-154793619D01*
X107698502Y-154796523D01*
X107819943Y-155196861D01*
X107820792Y-155199789D01*
X107825703Y-155217538D01*
X107826478Y-155220479D01*
X107832429Y-155244240D01*
X107833130Y-155247194D01*
X107837162Y-155265147D01*
X107837793Y-155268128D01*
X107919404Y-155678412D01*
X107919960Y-155681396D01*
X107923101Y-155699491D01*
X107923584Y-155702491D01*
X107927181Y-155726723D01*
X107927591Y-155729743D01*
X107929851Y-155748057D01*
X107930188Y-155751090D01*
X107971194Y-156167436D01*
X107971455Y-156170468D01*
X107972808Y-156188810D01*
X107972994Y-156191843D01*
X107973453Y-156201195D01*
X108134770Y-156362512D01*
X109196844Y-155300437D01*
X110608229Y-155300437D01*
X111670304Y-156362512D01*
X112732378Y-155300437D01*
X114143763Y-155300437D01*
X115205838Y-156362512D01*
X116267912Y-155300437D01*
X117679297Y-155300437D01*
X118741372Y-156362512D01*
X119803446Y-155300437D01*
X121214830Y-155300437D01*
X122276906Y-156362512D01*
X123338980Y-155300437D01*
X122853458Y-154814915D01*
X122846164Y-154811730D01*
X122304006Y-154605628D01*
X122006522Y-154508745D01*
X121214830Y-155300437D01*
X119803446Y-155300437D01*
X118741372Y-154238363D01*
X117679297Y-155300437D01*
X116267912Y-155300437D01*
X115205838Y-154238363D01*
X114143763Y-155300437D01*
X112732378Y-155300437D01*
X111670304Y-154238363D01*
X110608229Y-155300437D01*
X109196844Y-155300437D01*
X108134769Y-154238362D01*
X107665559Y-154707572D01*
X106582142Y-154707572D01*
X106567317Y-154679836D01*
X106410657Y-154386745D01*
X106410656Y-154386743D01*
X106410651Y-154386734D01*
X106191840Y-154059260D01*
X106080424Y-153923500D01*
X109231292Y-153923500D01*
X109902537Y-154594745D01*
X110573783Y-153923500D01*
X112766825Y-153923500D01*
X113438071Y-154594745D01*
X114109317Y-153923500D01*
X116302359Y-153923500D01*
X116973605Y-154594745D01*
X117644851Y-153923500D01*
X116302359Y-153923500D01*
X114109317Y-153923500D01*
X112766825Y-153923500D01*
X110573783Y-153923500D01*
X109231292Y-153923500D01*
X106080424Y-153923500D01*
X105941984Y-153754810D01*
X105941983Y-153754809D01*
X105941979Y-153754804D01*
X105663495Y-153476320D01*
X105359045Y-153226464D01*
X105359044Y-153226463D01*
X105359040Y-153226460D01*
X105248504Y-153152602D01*
X105203699Y-153098990D01*
X105194992Y-153029665D01*
X105225146Y-152966637D01*
X105284589Y-152929918D01*
X105317395Y-152925500D01*
X118312375Y-152925500D01*
X118319144Y-152925500D01*
X118322146Y-152925536D01*
X118945884Y-152940642D01*
X118951853Y-152940932D01*
X119572606Y-152986112D01*
X119578584Y-152986693D01*
X120196428Y-153061876D01*
X120202352Y-153062743D01*
X120815821Y-153167751D01*
X120821690Y-153168902D01*
X121429371Y-153303494D01*
X121435172Y-153304927D01*
X122035631Y-153468786D01*
X122041378Y-153470506D01*
X122633183Y-153663241D01*
X122638832Y-153665233D01*
X123188531Y-153874202D01*
X123220587Y-153886388D01*
X123226148Y-153888657D01*
X123797302Y-154138064D01*
X123799995Y-154139280D01*
X144970254Y-164000965D01*
X144970268Y-164000977D01*
X144970270Y-164000973D01*
X145035281Y-164031268D01*
X145035436Y-164031303D01*
X145333542Y-164170149D01*
X146065739Y-164476537D01*
X146809521Y-164753682D01*
X147563683Y-165001134D01*
X148032855Y-165134735D01*
X148327064Y-165218514D01*
X148673974Y-165302595D01*
X149098468Y-165405481D01*
X149618118Y-165509821D01*
X149876652Y-165561733D01*
X150660427Y-165687032D01*
X151448550Y-165781179D01*
X152239785Y-165844027D01*
X152245834Y-165844266D01*
X152312040Y-165866588D01*
X152355670Y-165921162D01*
X152362868Y-165990659D01*
X152331351Y-166053017D01*
X152309816Y-166071271D01*
X152077568Y-166226454D01*
X152077554Y-166226464D01*
X151773104Y-166476320D01*
X151494620Y-166754804D01*
X151244764Y-167059254D01*
X151244754Y-167059268D01*
X151025953Y-167386727D01*
X151025942Y-167386745D01*
X150840292Y-167734071D01*
X150840290Y-167734076D01*
X150689569Y-168097946D01*
X150575239Y-168474844D01*
X150498405Y-168861115D01*
X150498402Y-168861132D01*
X150477042Y-169078009D01*
X150459800Y-169253075D01*
X150459800Y-169646925D01*
X150467880Y-169728961D01*
X150498402Y-170038867D01*
X150498405Y-170038884D01*
X150575239Y-170425155D01*
X150689569Y-170802053D01*
X150754095Y-170957831D01*
X150824198Y-171127075D01*
X150840290Y-171165923D01*
X150840292Y-171165928D01*
X151025942Y-171513254D01*
X151025953Y-171513272D01*
X151244754Y-171840731D01*
X151244764Y-171840745D01*
X151494620Y-172145195D01*
X151773104Y-172423679D01*
X151773109Y-172423683D01*
X151773110Y-172423684D01*
X152077560Y-172673540D01*
X152405034Y-172892351D01*
X152405043Y-172892356D01*
X152405045Y-172892357D01*
X152752371Y-173078007D01*
X152752373Y-173078007D01*
X152752379Y-173078011D01*
X153116248Y-173228731D01*
X153493139Y-173343059D01*
X153879422Y-173419896D01*
X154271375Y-173458500D01*
X154271378Y-173458500D01*
X154665222Y-173458500D01*
X154665225Y-173458500D01*
X155057178Y-173419896D01*
X155443461Y-173343059D01*
X155820352Y-173228731D01*
X156184221Y-173078011D01*
X156531566Y-172892351D01*
X156859040Y-172673540D01*
X157163490Y-172423684D01*
X157441984Y-172145190D01*
X157691840Y-171840740D01*
X157735865Y-171774852D01*
X158902449Y-171774852D01*
X159400012Y-172272415D01*
X160462087Y-171210340D01*
X159426902Y-170175155D01*
X159423584Y-170197509D01*
X159423101Y-170200509D01*
X159419960Y-170218604D01*
X159419404Y-170221588D01*
X159337793Y-170631872D01*
X159337162Y-170634853D01*
X159333130Y-170652806D01*
X159332429Y-170655760D01*
X159326478Y-170679521D01*
X159325703Y-170682462D01*
X159320792Y-170700211D01*
X159319943Y-170703139D01*
X159198502Y-171103477D01*
X159197582Y-171106381D01*
X159191806Y-171123864D01*
X159190817Y-171126739D01*
X159182564Y-171149805D01*
X159181503Y-171152658D01*
X159174879Y-171169830D01*
X159173749Y-171172656D01*
X159013657Y-171559151D01*
X159012459Y-171561946D01*
X159005004Y-171578765D01*
X159003737Y-171581531D01*
X158993264Y-171603676D01*
X158991928Y-171606412D01*
X158983646Y-171622866D01*
X158982244Y-171625569D01*
X158902449Y-171774852D01*
X157735865Y-171774852D01*
X157910651Y-171513266D01*
X158096311Y-171165921D01*
X158247031Y-170802052D01*
X158361359Y-170425161D01*
X158438196Y-170038878D01*
X158476800Y-169646925D01*
X158476800Y-169442573D01*
X160105704Y-169442573D01*
X161167778Y-170504647D01*
X162197418Y-169475007D01*
X162155909Y-169368628D01*
X161167779Y-168380498D01*
X160105704Y-169442573D01*
X158476800Y-169442573D01*
X158476800Y-169253075D01*
X158438196Y-168861122D01*
X158361359Y-168474839D01*
X158247031Y-168097948D01*
X158096311Y-167734079D01*
X158072812Y-167690116D01*
X157910657Y-167386745D01*
X157910656Y-167386743D01*
X157910651Y-167386734D01*
X157729396Y-167115466D01*
X158897275Y-167115466D01*
X158982244Y-167274431D01*
X158983646Y-167277134D01*
X158991928Y-167293588D01*
X158993264Y-167296324D01*
X159003737Y-167318469D01*
X159005004Y-167321235D01*
X159012459Y-167338054D01*
X159013657Y-167340849D01*
X159173749Y-167727344D01*
X159174879Y-167730170D01*
X159181503Y-167747342D01*
X159182564Y-167750195D01*
X159190817Y-167773261D01*
X159191806Y-167776136D01*
X159197582Y-167793619D01*
X159198502Y-167796523D01*
X159319943Y-168196861D01*
X159320792Y-168199789D01*
X159325703Y-168217538D01*
X159326478Y-168220479D01*
X159332429Y-168244240D01*
X159333130Y-168247194D01*
X159337162Y-168265147D01*
X159337793Y-168268128D01*
X159419404Y-168678412D01*
X159419960Y-168681396D01*
X159423101Y-168699491D01*
X159423584Y-168702491D01*
X159424982Y-168711910D01*
X160462087Y-167674806D01*
X159951368Y-167164087D01*
X159760902Y-167089767D01*
X159445963Y-166996006D01*
X159124371Y-166928575D01*
X159088622Y-166924119D01*
X158897275Y-167115466D01*
X157729396Y-167115466D01*
X157691840Y-167059260D01*
X157441984Y-166754810D01*
X157441983Y-166754809D01*
X157441979Y-166754804D01*
X157163495Y-166476320D01*
X156859045Y-166226464D01*
X156859044Y-166226463D01*
X156859040Y-166226460D01*
X156754456Y-166156579D01*
X156673672Y-166102601D01*
X156628867Y-166048989D01*
X156620160Y-165979664D01*
X156650314Y-165916637D01*
X156709757Y-165879917D01*
X156742563Y-165875499D01*
X158437048Y-165875499D01*
X158437052Y-165875500D01*
X158461715Y-165875500D01*
X158467439Y-165875500D01*
X158472562Y-165875605D01*
X158875682Y-165892278D01*
X158885855Y-165893121D01*
X159283690Y-165942712D01*
X159293798Y-165944399D01*
X159686146Y-166026665D01*
X159696082Y-166029181D01*
X160080319Y-166143573D01*
X160089987Y-166146892D01*
X160303863Y-166230348D01*
X160463459Y-166292623D01*
X160472830Y-166296732D01*
X160832998Y-166472808D01*
X160841994Y-166477677D01*
X161186390Y-166682891D01*
X161194965Y-166688493D01*
X161287839Y-166754804D01*
X161521224Y-166921439D01*
X161529311Y-166927733D01*
X161684615Y-167059268D01*
X161818492Y-167172656D01*
X161835229Y-167186831D01*
X161842769Y-167193773D01*
X162126226Y-167477230D01*
X162133168Y-167484770D01*
X162392266Y-167790688D01*
X162398560Y-167798775D01*
X162631502Y-168125028D01*
X162637108Y-168133609D01*
X162842322Y-168478005D01*
X162847195Y-168487010D01*
X163003286Y-168806298D01*
X163023260Y-168847155D01*
X163027376Y-168856540D01*
X163173102Y-169230000D01*
X163176430Y-169239693D01*
X163290818Y-169623917D01*
X163293334Y-169633853D01*
X163375600Y-170026201D01*
X163377287Y-170036309D01*
X163426876Y-170434123D01*
X163427722Y-170444337D01*
X163444394Y-170847437D01*
X163444500Y-170852561D01*
X163444500Y-171496753D01*
X163444330Y-171503243D01*
X163428544Y-171804433D01*
X163427187Y-171817340D01*
X163380517Y-172112010D01*
X163377819Y-172124706D01*
X163300600Y-172412892D01*
X163296589Y-172425237D01*
X163189670Y-172703770D01*
X163184391Y-172715627D01*
X163048941Y-172981464D01*
X163042455Y-172992697D01*
X162973217Y-173099315D01*
X162879962Y-173242914D01*
X162872333Y-173253414D01*
X162684570Y-173485282D01*
X162675885Y-173494927D01*
X162464927Y-173705885D01*
X162455282Y-173714570D01*
X162223414Y-173902333D01*
X162212914Y-173909962D01*
X161962697Y-174072455D01*
X161951464Y-174078941D01*
X161685627Y-174214391D01*
X161673770Y-174219670D01*
X161395237Y-174326589D01*
X161382892Y-174330600D01*
X161094706Y-174407819D01*
X161082010Y-174410517D01*
X160787340Y-174457187D01*
X160774433Y-174458544D01*
X160473244Y-174474330D01*
X160466754Y-174474500D01*
X160373273Y-174474500D01*
X160186456Y-174509423D01*
X160009242Y-174578075D01*
X160009238Y-174578077D01*
X159847649Y-174678129D01*
X159707201Y-174806164D01*
X159592667Y-174957830D01*
X159507953Y-175127957D01*
X159455942Y-175310760D01*
X159438407Y-175499999D01*
X159438407Y-175500000D01*
X159455942Y-175689239D01*
X159507953Y-175872042D01*
X159592286Y-176041403D01*
X159592667Y-176042169D01*
X159707200Y-176193834D01*
X159847651Y-176321872D01*
X160009237Y-176421922D01*
X160186456Y-176490577D01*
X160373273Y-176525500D01*
X160460015Y-176525500D01*
X160460174Y-176525500D01*
X160476359Y-176526561D01*
X160574923Y-176539537D01*
X160606190Y-176547915D01*
X160650949Y-176566454D01*
X160690468Y-176582823D01*
X160718497Y-176599005D01*
X160746565Y-176620543D01*
X160790871Y-176654541D01*
X160813758Y-176677428D01*
X160869291Y-176749798D01*
X160885477Y-176777834D01*
X160920384Y-176862109D01*
X160928762Y-176893375D01*
X160941739Y-176991939D01*
X160942800Y-177008125D01*
X160942800Y-177491874D01*
X160941739Y-177508060D01*
X160928762Y-177606624D01*
X160920384Y-177637890D01*
X160885477Y-177722165D01*
X160869291Y-177750201D01*
X160813758Y-177822571D01*
X160790871Y-177845458D01*
X160718501Y-177900991D01*
X160690465Y-177917177D01*
X160606190Y-177952084D01*
X160574924Y-177960462D01*
X160486544Y-177972098D01*
X160476358Y-177973439D01*
X160460174Y-177974500D01*
X148476426Y-177974500D01*
X148460241Y-177973439D01*
X148448508Y-177971894D01*
X148361675Y-177960462D01*
X148330409Y-177952084D01*
X148246134Y-177917177D01*
X148218100Y-177900992D01*
X148182840Y-177873936D01*
X148145728Y-177845458D01*
X148122841Y-177822571D01*
X148091212Y-177781352D01*
X148067305Y-177750197D01*
X148051123Y-177722168D01*
X148031445Y-177674660D01*
X148016215Y-177637890D01*
X148007837Y-177606623D01*
X147994861Y-177508059D01*
X147993800Y-177491874D01*
X147993800Y-177008125D01*
X147994861Y-176991940D01*
X148001595Y-176940790D01*
X148003782Y-176924174D01*
X149909636Y-176924174D01*
X149961962Y-176976500D01*
X151160393Y-176976500D01*
X151623252Y-176513641D01*
X153034636Y-176513641D01*
X153497495Y-176976500D01*
X154695927Y-176976500D01*
X155158786Y-176513641D01*
X156570170Y-176513641D01*
X157033029Y-176976500D01*
X158231461Y-176976500D01*
X158694319Y-176513640D01*
X157632245Y-175451566D01*
X156570170Y-176513641D01*
X155158786Y-176513641D01*
X154096711Y-175451566D01*
X153034636Y-176513641D01*
X151623252Y-176513641D01*
X150561176Y-175451565D01*
X150496193Y-175516549D01*
X150496193Y-175523061D01*
X150496061Y-175528789D01*
X150494460Y-175563409D01*
X150494063Y-175569122D01*
X150472271Y-175804293D01*
X150471611Y-175809983D01*
X150466822Y-175844315D01*
X150465899Y-175849973D01*
X150457423Y-175895308D01*
X150456241Y-175900909D01*
X150448309Y-175934634D01*
X150446870Y-175940177D01*
X150382241Y-176167330D01*
X150380546Y-176172802D01*
X150369533Y-176205661D01*
X150367587Y-176211050D01*
X150350925Y-176254059D01*
X150348733Y-176259351D01*
X150334733Y-176291058D01*
X150332299Y-176296244D01*
X150227028Y-176507656D01*
X150224357Y-176512723D01*
X150207498Y-176542991D01*
X150204598Y-176547926D01*
X150180319Y-176587141D01*
X150177190Y-176591943D01*
X150157599Y-176620543D01*
X150154253Y-176625194D01*
X150011923Y-176813668D01*
X150008366Y-176818159D01*
X149986230Y-176844816D01*
X149982471Y-176849135D01*
X149951400Y-176883219D01*
X149947443Y-176887363D01*
X149922934Y-176911872D01*
X149918791Y-176915829D01*
X149909636Y-176924174D01*
X148003782Y-176924174D01*
X148007837Y-176893375D01*
X148016215Y-176862109D01*
X148031445Y-176825340D01*
X148051125Y-176777828D01*
X148067303Y-176749805D01*
X148122841Y-176677427D01*
X148145728Y-176654541D01*
X148218105Y-176599003D01*
X148246128Y-176582825D01*
X148330409Y-176547915D01*
X148361675Y-176539537D01*
X148460241Y-176526561D01*
X148476426Y-176525500D01*
X148563325Y-176525500D01*
X148563327Y-176525500D01*
X148750144Y-176490577D01*
X148927363Y-176421922D01*
X149088949Y-176321872D01*
X149229400Y-176193834D01*
X149343933Y-176042169D01*
X149428647Y-175872040D01*
X149480657Y-175689242D01*
X149498193Y-175500000D01*
X149480657Y-175310758D01*
X149428647Y-175127960D01*
X149428206Y-175127075D01*
X149344314Y-174958597D01*
X149343933Y-174957831D01*
X149229400Y-174806166D01*
X149216426Y-174794339D01*
X149163261Y-174745873D01*
X151266868Y-174745873D01*
X152328944Y-175807949D01*
X153391019Y-174745874D01*
X153391018Y-174745873D01*
X154802402Y-174745873D01*
X155864478Y-175807949D01*
X156926553Y-174745874D01*
X156293607Y-174112928D01*
X156190956Y-174155449D01*
X156188130Y-174156579D01*
X156170958Y-174163203D01*
X156168105Y-174164264D01*
X156145039Y-174172517D01*
X156142164Y-174173506D01*
X156124681Y-174179282D01*
X156121777Y-174180202D01*
X155721439Y-174301643D01*
X155718511Y-174302492D01*
X155700762Y-174307403D01*
X155697821Y-174308178D01*
X155674060Y-174314129D01*
X155671106Y-174314830D01*
X155653153Y-174318862D01*
X155650172Y-174319493D01*
X155239888Y-174401104D01*
X155236904Y-174401660D01*
X155218809Y-174404801D01*
X155215809Y-174405284D01*
X155191577Y-174408881D01*
X155188557Y-174409291D01*
X155170243Y-174411551D01*
X155167209Y-174411888D01*
X155133021Y-174415254D01*
X154802402Y-174745873D01*
X153391018Y-174745873D01*
X152829928Y-174184783D01*
X152814824Y-174180202D01*
X152811919Y-174179282D01*
X152794436Y-174173506D01*
X152791561Y-174172517D01*
X152768495Y-174164264D01*
X152765642Y-174163203D01*
X152748470Y-174156579D01*
X152745644Y-174155449D01*
X152359149Y-173995357D01*
X152356354Y-173994159D01*
X152339535Y-173986704D01*
X152336769Y-173985437D01*
X152314624Y-173974964D01*
X152311888Y-173973628D01*
X152295434Y-173965346D01*
X152292731Y-173963944D01*
X152133766Y-173878975D01*
X151266868Y-174745873D01*
X149163261Y-174745873D01*
X149088950Y-174678129D01*
X149088949Y-174678128D01*
X148927363Y-174578078D01*
X148927361Y-174578077D01*
X148927357Y-174578075D01*
X148839978Y-174544225D01*
X148750144Y-174509423D01*
X148563327Y-174474500D01*
X148478862Y-174474500D01*
X147210562Y-174474500D01*
X146210562Y-174474500D01*
X145110562Y-174474500D01*
X144976585Y-174474500D01*
X144968300Y-174474500D01*
X144873273Y-174474500D01*
X144686456Y-174509423D01*
X144509242Y-174578075D01*
X144509238Y-174578077D01*
X144347649Y-174678129D01*
X144207201Y-174806164D01*
X144092667Y-174957830D01*
X144007953Y-175127957D01*
X143955942Y-175310760D01*
X143938407Y-175499999D01*
X143938407Y-175500000D01*
X143955942Y-175689239D01*
X144007953Y-175872042D01*
X144092286Y-176041403D01*
X144092667Y-176042169D01*
X144207200Y-176193834D01*
X144347651Y-176321872D01*
X144509237Y-176421922D01*
X144686456Y-176490577D01*
X144873273Y-176525500D01*
X144960015Y-176525500D01*
X144960174Y-176525500D01*
X144976359Y-176526561D01*
X145074923Y-176539537D01*
X145106190Y-176547915D01*
X145150949Y-176566454D01*
X145190468Y-176582823D01*
X145218497Y-176599005D01*
X145246565Y-176620543D01*
X145290871Y-176654541D01*
X145313758Y-176677428D01*
X145369291Y-176749798D01*
X145385477Y-176777834D01*
X145420384Y-176862109D01*
X145428762Y-176893375D01*
X145441739Y-176991939D01*
X145442800Y-177008125D01*
X145442800Y-177491874D01*
X145441739Y-177508060D01*
X145428762Y-177606624D01*
X145420384Y-177637890D01*
X145385477Y-177722165D01*
X145369291Y-177750201D01*
X145313758Y-177822571D01*
X145290871Y-177845458D01*
X145218501Y-177900991D01*
X145190465Y-177917177D01*
X145106190Y-177952084D01*
X145074924Y-177960462D01*
X144986544Y-177972098D01*
X144976358Y-177973439D01*
X144960174Y-177974500D01*
X132976426Y-177974500D01*
X132960241Y-177973439D01*
X132948508Y-177971894D01*
X132861675Y-177960462D01*
X132830409Y-177952084D01*
X132746134Y-177917177D01*
X132718100Y-177900992D01*
X132682840Y-177873936D01*
X132645728Y-177845458D01*
X132622841Y-177822571D01*
X132591212Y-177781352D01*
X132567305Y-177750197D01*
X132551123Y-177722168D01*
X132531445Y-177674660D01*
X132516215Y-177637890D01*
X132507837Y-177606623D01*
X132494861Y-177508059D01*
X132493800Y-177491874D01*
X132493800Y-177008125D01*
X132494861Y-176991940D01*
X132501595Y-176940790D01*
X132507837Y-176893375D01*
X132516215Y-176862109D01*
X132531445Y-176825340D01*
X132551125Y-176777828D01*
X132567303Y-176749805D01*
X132622841Y-176677427D01*
X132645728Y-176654541D01*
X132718105Y-176599003D01*
X132746128Y-176582825D01*
X132830409Y-176547915D01*
X132861675Y-176539537D01*
X132960241Y-176526561D01*
X132976426Y-176525500D01*
X133063325Y-176525500D01*
X133063327Y-176525500D01*
X133126766Y-176513641D01*
X135356967Y-176513641D01*
X135819826Y-176976500D01*
X137018258Y-176976500D01*
X137481117Y-176513641D01*
X138892501Y-176513641D01*
X139355360Y-176976500D01*
X140553792Y-176976500D01*
X141016651Y-176513641D01*
X141016650Y-176513640D01*
X142428034Y-176513640D01*
X142890894Y-176976500D01*
X143584363Y-176976500D01*
X143517809Y-176915828D01*
X143513666Y-176911872D01*
X143489157Y-176887363D01*
X143485200Y-176883219D01*
X143454129Y-176849135D01*
X143450370Y-176844816D01*
X143428234Y-176818159D01*
X143424677Y-176813668D01*
X143282347Y-176625194D01*
X143279001Y-176620543D01*
X143259410Y-176591943D01*
X143256281Y-176587141D01*
X143232002Y-176547926D01*
X143229102Y-176542991D01*
X143212243Y-176512723D01*
X143209572Y-176507656D01*
X143104301Y-176296244D01*
X143101867Y-176291058D01*
X143087867Y-176259351D01*
X143085675Y-176254059D01*
X143069013Y-176211050D01*
X143067067Y-176205661D01*
X143056054Y-176172802D01*
X143054359Y-176167330D01*
X142992336Y-175949338D01*
X142428034Y-176513640D01*
X141016650Y-176513640D01*
X139954576Y-175451566D01*
X138892501Y-176513641D01*
X137481117Y-176513641D01*
X136419042Y-175451566D01*
X135356967Y-176513641D01*
X133126766Y-176513641D01*
X133250144Y-176490577D01*
X133427363Y-176421922D01*
X133588949Y-176321872D01*
X133729400Y-176193834D01*
X133843933Y-176042169D01*
X133928647Y-175872040D01*
X133980657Y-175689242D01*
X133998193Y-175500000D01*
X133980657Y-175310758D01*
X133928647Y-175127960D01*
X133928206Y-175127075D01*
X133844314Y-174958597D01*
X133843933Y-174957831D01*
X133729400Y-174806166D01*
X133716426Y-174794339D01*
X133588950Y-174678129D01*
X133588949Y-174678128D01*
X133427363Y-174578078D01*
X133427361Y-174578077D01*
X133427357Y-174578075D01*
X133339978Y-174544225D01*
X133250144Y-174509423D01*
X133063327Y-174474500D01*
X133063325Y-174474500D01*
X132905412Y-174474500D01*
X132894606Y-174474028D01*
X132875883Y-174472390D01*
X132741589Y-174460640D01*
X132720303Y-174456887D01*
X132577175Y-174418536D01*
X132556870Y-174411146D01*
X132422573Y-174348522D01*
X132403866Y-174337721D01*
X132282485Y-174252728D01*
X132265928Y-174238835D01*
X132161164Y-174134071D01*
X132147271Y-174117514D01*
X132067862Y-174004108D01*
X134330965Y-174004108D01*
X134418791Y-174084172D01*
X134422934Y-174088128D01*
X134447443Y-174112637D01*
X134451400Y-174116781D01*
X134482471Y-174150865D01*
X134486230Y-174155184D01*
X134508366Y-174181841D01*
X134511923Y-174186332D01*
X134654253Y-174374806D01*
X134657599Y-174379457D01*
X134677190Y-174408057D01*
X134680319Y-174412859D01*
X134704598Y-174452074D01*
X134707498Y-174457009D01*
X134724357Y-174487277D01*
X134727028Y-174492344D01*
X134832299Y-174703756D01*
X134834733Y-174708942D01*
X134848733Y-174740649D01*
X134850925Y-174745941D01*
X134867587Y-174788950D01*
X134869533Y-174794339D01*
X134880546Y-174827198D01*
X134882241Y-174832670D01*
X134946870Y-175059823D01*
X134948309Y-175065366D01*
X134956241Y-175099091D01*
X134957423Y-175104692D01*
X134965899Y-175150027D01*
X134966822Y-175155685D01*
X134971611Y-175190017D01*
X134972271Y-175195707D01*
X134994063Y-175430878D01*
X134994460Y-175436591D01*
X134995705Y-175463517D01*
X135713349Y-174745873D01*
X137124733Y-174745873D01*
X138186809Y-175807949D01*
X139248884Y-174745874D01*
X139248883Y-174745873D01*
X140660267Y-174745873D01*
X141722342Y-175807948D01*
X142784417Y-174745873D01*
X141750817Y-173712273D01*
X141725842Y-173728961D01*
X141723291Y-173730621D01*
X141707741Y-173740468D01*
X141705152Y-173742063D01*
X141684141Y-173754657D01*
X141681511Y-173756190D01*
X141665492Y-173765265D01*
X141662823Y-173766734D01*
X141612520Y-173793620D01*
X140660267Y-174745873D01*
X139248883Y-174745873D01*
X138959510Y-174456500D01*
X138909119Y-174456500D01*
X138906070Y-174456463D01*
X138887651Y-174456010D01*
X138884611Y-174455897D01*
X138860143Y-174454694D01*
X138857110Y-174454508D01*
X138838768Y-174453155D01*
X138835736Y-174452894D01*
X138419390Y-174411888D01*
X138416357Y-174411551D01*
X138398043Y-174409291D01*
X138395023Y-174408881D01*
X138370791Y-174405284D01*
X138367791Y-174404801D01*
X138349696Y-174401660D01*
X138346712Y-174401104D01*
X137936428Y-174319493D01*
X137933447Y-174318862D01*
X137915494Y-174314830D01*
X137912540Y-174314129D01*
X137888779Y-174308178D01*
X137885838Y-174307403D01*
X137868089Y-174302492D01*
X137865161Y-174301643D01*
X137637902Y-174232704D01*
X137124733Y-174745873D01*
X135713349Y-174745873D01*
X134651274Y-173683798D01*
X134330965Y-174004108D01*
X132067862Y-174004108D01*
X132062278Y-173996133D01*
X132051479Y-173977430D01*
X131988851Y-173843123D01*
X131981463Y-173822824D01*
X131963608Y-173756190D01*
X131943111Y-173679695D01*
X131939359Y-173658409D01*
X131925972Y-173505394D01*
X131925500Y-173494587D01*
X131925500Y-173456430D01*
X132923500Y-173456430D01*
X132925114Y-173474884D01*
X132943579Y-173476500D01*
X133086389Y-173476500D01*
X133092117Y-173476632D01*
X133126738Y-173478233D01*
X133132452Y-173478630D01*
X133178378Y-173482886D01*
X133184067Y-173483546D01*
X133218391Y-173488334D01*
X133224045Y-173489256D01*
X133401298Y-173522390D01*
X133945582Y-172978106D01*
X132923500Y-171956024D01*
X132923500Y-173456430D01*
X131925500Y-173456430D01*
X131925500Y-171210339D01*
X133589199Y-171210339D01*
X134651274Y-172272414D01*
X134850076Y-172073612D01*
X134839339Y-172057542D01*
X134837679Y-172054991D01*
X134827832Y-172039441D01*
X134826237Y-172036852D01*
X134813643Y-172015841D01*
X134812110Y-172013211D01*
X134803035Y-171997192D01*
X134801567Y-171994524D01*
X134604356Y-171625569D01*
X134602954Y-171622866D01*
X134594672Y-171606412D01*
X134593336Y-171603676D01*
X134582863Y-171581531D01*
X134581596Y-171578765D01*
X134574141Y-171561946D01*
X134572943Y-171559151D01*
X134412851Y-171172656D01*
X134411721Y-171169830D01*
X134405097Y-171152658D01*
X134404036Y-171149805D01*
X134395783Y-171126739D01*
X134394794Y-171123864D01*
X134389018Y-171106381D01*
X134388098Y-171103477D01*
X134266657Y-170703139D01*
X134265808Y-170700211D01*
X134260897Y-170682462D01*
X134260122Y-170679521D01*
X134254171Y-170655760D01*
X134253470Y-170652806D01*
X134249438Y-170634853D01*
X134248807Y-170631872D01*
X134235344Y-170564194D01*
X133589199Y-171210339D01*
X131925500Y-171210339D01*
X131925500Y-170464656D01*
X132923500Y-170464656D01*
X133945583Y-169442573D01*
X133756085Y-169253075D01*
X135109800Y-169253075D01*
X135109800Y-169646925D01*
X135117880Y-169728961D01*
X135148402Y-170038867D01*
X135148405Y-170038884D01*
X135225239Y-170425155D01*
X135339569Y-170802053D01*
X135404095Y-170957831D01*
X135474198Y-171127075D01*
X135490290Y-171165923D01*
X135490292Y-171165928D01*
X135675942Y-171513254D01*
X135675953Y-171513272D01*
X135894754Y-171840731D01*
X135894764Y-171840745D01*
X136144620Y-172145195D01*
X136423104Y-172423679D01*
X136423109Y-172423683D01*
X136423110Y-172423684D01*
X136727560Y-172673540D01*
X137055034Y-172892351D01*
X137055043Y-172892356D01*
X137055045Y-172892357D01*
X137402371Y-173078007D01*
X137402373Y-173078007D01*
X137402379Y-173078011D01*
X137766248Y-173228731D01*
X138143139Y-173343059D01*
X138529422Y-173419896D01*
X138921375Y-173458500D01*
X138921378Y-173458500D01*
X139315222Y-173458500D01*
X139315225Y-173458500D01*
X139707178Y-173419896D01*
X140093461Y-173343059D01*
X140470352Y-173228731D01*
X140782789Y-173099315D01*
X142549243Y-173099315D01*
X143490109Y-174040181D01*
X144552184Y-172978107D01*
X145963568Y-172978107D01*
X146461961Y-173476500D01*
X147589325Y-173476500D01*
X148087718Y-172978107D01*
X148087717Y-172978106D01*
X149499102Y-172978106D01*
X150561176Y-174040181D01*
X150970603Y-173630754D01*
X157222817Y-173630754D01*
X157632245Y-174040182D01*
X158694320Y-172978107D01*
X160105704Y-172978107D01*
X160596116Y-173468519D01*
X160676459Y-173464308D01*
X160880653Y-173431968D01*
X161080344Y-173378461D01*
X161273351Y-173304373D01*
X161457574Y-173210507D01*
X161630947Y-173097916D01*
X161791623Y-172967803D01*
X161937803Y-172821623D01*
X161998462Y-172746715D01*
X161167779Y-171916032D01*
X160105704Y-172978107D01*
X158694320Y-172978107D01*
X158340146Y-172623933D01*
X158205686Y-172787774D01*
X158203730Y-172790097D01*
X158191723Y-172804018D01*
X158189708Y-172806298D01*
X158173258Y-172824450D01*
X158171183Y-172826684D01*
X158158473Y-172840034D01*
X158156346Y-172842213D01*
X157860513Y-173138046D01*
X157858334Y-173140173D01*
X157844984Y-173152883D01*
X157842750Y-173154958D01*
X157824598Y-173171408D01*
X157822318Y-173173423D01*
X157808397Y-173185430D01*
X157806074Y-173187385D01*
X157482703Y-173452769D01*
X157480330Y-173454668D01*
X157465831Y-173465984D01*
X157463410Y-173467827D01*
X157443734Y-173482421D01*
X157441262Y-173484207D01*
X157426198Y-173494816D01*
X157423690Y-173496537D01*
X157222817Y-173630754D01*
X150970603Y-173630754D01*
X151286207Y-173315150D01*
X151130526Y-173187385D01*
X151128203Y-173185430D01*
X151114282Y-173173423D01*
X151112002Y-173171408D01*
X151093850Y-173154958D01*
X151091616Y-173152883D01*
X151078266Y-173140173D01*
X151076087Y-173138046D01*
X150780254Y-172842213D01*
X150778127Y-172840034D01*
X150765417Y-172826684D01*
X150763342Y-172824450D01*
X150746892Y-172806298D01*
X150744877Y-172804018D01*
X150732870Y-172790097D01*
X150730915Y-172787774D01*
X150465531Y-172464403D01*
X150463632Y-172462030D01*
X150452316Y-172447531D01*
X150450473Y-172445110D01*
X150435879Y-172425434D01*
X150434093Y-172422962D01*
X150423484Y-172407898D01*
X150421763Y-172405390D01*
X150281595Y-172195613D01*
X149499102Y-172978106D01*
X148087717Y-172978106D01*
X147025643Y-171916032D01*
X145963568Y-172978107D01*
X144552184Y-172978107D01*
X143490110Y-171916032D01*
X143461919Y-171944222D01*
X143435034Y-171994523D01*
X143433565Y-171997192D01*
X143424490Y-172013211D01*
X143422957Y-172015841D01*
X143410363Y-172036852D01*
X143408768Y-172039441D01*
X143398921Y-172054991D01*
X143397261Y-172057542D01*
X143164837Y-172405390D01*
X143163116Y-172407898D01*
X143152507Y-172422962D01*
X143150721Y-172425434D01*
X143136127Y-172445110D01*
X143134284Y-172447531D01*
X143122968Y-172462030D01*
X143121069Y-172464403D01*
X142855685Y-172787774D01*
X142853730Y-172790097D01*
X142841723Y-172804018D01*
X142839708Y-172806298D01*
X142823258Y-172824450D01*
X142821183Y-172826684D01*
X142808473Y-172840034D01*
X142806346Y-172842213D01*
X142549243Y-173099315D01*
X140782789Y-173099315D01*
X140834221Y-173078011D01*
X141181566Y-172892351D01*
X141509040Y-172673540D01*
X141813490Y-172423684D01*
X142091984Y-172145190D01*
X142341840Y-171840740D01*
X142560651Y-171513266D01*
X142722569Y-171210340D01*
X144195802Y-171210340D01*
X145257876Y-172272414D01*
X146319951Y-171210340D01*
X147731335Y-171210340D01*
X148793409Y-172272414D01*
X149801020Y-171264803D01*
X149762851Y-171172656D01*
X149761721Y-171169830D01*
X149755097Y-171152658D01*
X149754036Y-171149805D01*
X149745783Y-171126739D01*
X149744794Y-171123864D01*
X149739018Y-171106381D01*
X149738099Y-171103478D01*
X149733516Y-171088371D01*
X148793410Y-170148265D01*
X147731335Y-171210340D01*
X146319951Y-171210340D01*
X145257876Y-170148265D01*
X144195802Y-171210340D01*
X142722569Y-171210340D01*
X142746311Y-171165921D01*
X142897031Y-170802052D01*
X143011359Y-170425161D01*
X143088196Y-170038878D01*
X143126800Y-169646925D01*
X143126800Y-169442573D01*
X145963568Y-169442573D01*
X147025643Y-170504647D01*
X148087718Y-169442573D01*
X147025643Y-168380498D01*
X145963568Y-169442573D01*
X143126800Y-169442573D01*
X143126800Y-169253075D01*
X143088196Y-168861122D01*
X143011359Y-168474839D01*
X142897031Y-168097948D01*
X142746311Y-167734079D01*
X142722812Y-167690116D01*
X142714629Y-167674806D01*
X144195802Y-167674806D01*
X145257876Y-168736880D01*
X146319951Y-167674806D01*
X147731335Y-167674806D01*
X148793409Y-168736880D01*
X149740175Y-167790114D01*
X149744794Y-167776136D01*
X149745783Y-167773261D01*
X149754036Y-167750195D01*
X149755097Y-167747342D01*
X149761721Y-167730170D01*
X149762851Y-167727345D01*
X149805370Y-167624691D01*
X148793410Y-166612731D01*
X147731335Y-167674806D01*
X146319951Y-167674806D01*
X145257876Y-166612731D01*
X144195802Y-167674806D01*
X142714629Y-167674806D01*
X142560657Y-167386745D01*
X142560656Y-167386743D01*
X142560651Y-167386734D01*
X142341840Y-167059260D01*
X142091984Y-166754810D01*
X142091983Y-166754809D01*
X142091979Y-166754804D01*
X141813495Y-166476320D01*
X141509045Y-166226464D01*
X141509044Y-166226463D01*
X141509040Y-166226460D01*
X141181566Y-166007649D01*
X141181561Y-166007646D01*
X141181554Y-166007642D01*
X140834228Y-165821992D01*
X140834223Y-165821990D01*
X140795989Y-165806153D01*
X140764856Y-165793257D01*
X142541816Y-165793257D01*
X142806346Y-166057787D01*
X142808473Y-166059966D01*
X142821183Y-166073316D01*
X142823258Y-166075550D01*
X142839708Y-166093702D01*
X142841723Y-166095982D01*
X142853730Y-166109903D01*
X142855685Y-166112226D01*
X143121069Y-166435597D01*
X143122968Y-166437970D01*
X143134284Y-166452469D01*
X143136127Y-166454890D01*
X143150721Y-166474566D01*
X143152507Y-166477038D01*
X143163116Y-166492102D01*
X143164837Y-166494610D01*
X143397261Y-166842458D01*
X143398921Y-166845009D01*
X143408768Y-166860559D01*
X143410363Y-166863148D01*
X143422957Y-166884159D01*
X143424490Y-166886789D01*
X143433565Y-166902808D01*
X143435033Y-166905476D01*
X143444863Y-166923867D01*
X143490109Y-166969113D01*
X144552184Y-165907039D01*
X144552183Y-165907038D01*
X145963568Y-165907038D01*
X147025642Y-166969113D01*
X147869004Y-166125751D01*
X147273701Y-165956233D01*
X147269003Y-165954794D01*
X146481919Y-165696540D01*
X146477280Y-165694916D01*
X146257561Y-165613045D01*
X145963568Y-165907038D01*
X144552183Y-165907038D01*
X143490109Y-164844963D01*
X142541816Y-165793257D01*
X140764856Y-165793257D01*
X140671668Y-165754657D01*
X140470353Y-165671269D01*
X140093455Y-165556939D01*
X139707184Y-165480105D01*
X139707167Y-165480102D01*
X139410769Y-165450910D01*
X139315225Y-165441500D01*
X138921375Y-165441500D01*
X138833011Y-165450203D01*
X138529432Y-165480102D01*
X138529415Y-165480105D01*
X138143144Y-165556939D01*
X137766246Y-165671269D01*
X137402376Y-165821990D01*
X137402371Y-165821992D01*
X137055045Y-166007642D01*
X137055027Y-166007653D01*
X136727568Y-166226454D01*
X136727554Y-166226464D01*
X136423104Y-166476320D01*
X136144620Y-166754804D01*
X135894764Y-167059254D01*
X135894754Y-167059268D01*
X135675953Y-167386727D01*
X135675942Y-167386745D01*
X135490292Y-167734071D01*
X135490290Y-167734076D01*
X135339569Y-168097946D01*
X135225239Y-168474844D01*
X135148405Y-168861115D01*
X135148402Y-168861132D01*
X135127042Y-169078009D01*
X135109800Y-169253075D01*
X133756085Y-169253075D01*
X132923500Y-168420490D01*
X132923500Y-170464656D01*
X131925500Y-170464656D01*
X131925500Y-167674806D01*
X133589200Y-167674806D01*
X134237809Y-168323415D01*
X134248807Y-168268127D01*
X134249438Y-168265147D01*
X134253470Y-168247194D01*
X134254171Y-168244240D01*
X134260122Y-168220479D01*
X134260897Y-168217538D01*
X134265808Y-168199789D01*
X134266657Y-168196861D01*
X134388098Y-167796523D01*
X134389018Y-167793619D01*
X134394794Y-167776136D01*
X134395783Y-167773261D01*
X134404036Y-167750195D01*
X134405097Y-167747342D01*
X134411721Y-167730170D01*
X134412851Y-167727344D01*
X134572943Y-167340849D01*
X134574141Y-167338054D01*
X134581596Y-167321235D01*
X134582863Y-167318469D01*
X134593336Y-167296324D01*
X134594672Y-167293588D01*
X134602954Y-167277134D01*
X134604356Y-167274431D01*
X134801567Y-166905476D01*
X134803035Y-166902808D01*
X134812110Y-166886789D01*
X134813643Y-166884159D01*
X134826237Y-166863148D01*
X134827832Y-166860559D01*
X134837679Y-166845009D01*
X134839338Y-166842459D01*
X134856026Y-166817482D01*
X134651275Y-166612731D01*
X133589200Y-167674806D01*
X131925500Y-167674806D01*
X131925500Y-167410282D01*
X131925500Y-167410280D01*
X131894340Y-167233567D01*
X131832969Y-167064950D01*
X131743249Y-166909551D01*
X131674147Y-166827198D01*
X131627908Y-166772091D01*
X131490450Y-166656752D01*
X131490449Y-166656751D01*
X131424337Y-166618581D01*
X131335054Y-166567033D01*
X131335051Y-166567032D01*
X131335050Y-166567031D01*
X131166433Y-166505660D01*
X130989720Y-166474500D01*
X130910562Y-166474500D01*
X126976585Y-166474500D01*
X126968300Y-166474500D01*
X126873273Y-166474500D01*
X126686456Y-166509423D01*
X126509242Y-166578075D01*
X126509238Y-166578077D01*
X126347649Y-166678129D01*
X126207201Y-166806164D01*
X126092667Y-166957830D01*
X126007953Y-167127957D01*
X125955942Y-167310760D01*
X125938407Y-167499999D01*
X125938407Y-167500000D01*
X125955942Y-167689239D01*
X126007953Y-167872042D01*
X126079557Y-168015841D01*
X126092667Y-168042169D01*
X126207200Y-168193834D01*
X126347651Y-168321872D01*
X126509237Y-168421922D01*
X126686456Y-168490577D01*
X126873273Y-168525500D01*
X126960015Y-168525500D01*
X126960174Y-168525500D01*
X126976359Y-168526561D01*
X127074923Y-168539537D01*
X127106190Y-168547915D01*
X127150949Y-168566454D01*
X127190468Y-168582823D01*
X127218497Y-168599005D01*
X127253760Y-168626064D01*
X127290871Y-168654541D01*
X127313758Y-168677428D01*
X127369291Y-168749798D01*
X127385477Y-168777834D01*
X127420384Y-168862109D01*
X127428762Y-168893375D01*
X127441739Y-168991939D01*
X127442800Y-169008125D01*
X127442800Y-169491874D01*
X127441739Y-169508060D01*
X127428762Y-169606624D01*
X127420384Y-169637890D01*
X127385477Y-169722165D01*
X127369291Y-169750201D01*
X127313758Y-169822571D01*
X127290871Y-169845458D01*
X127218501Y-169900991D01*
X127190465Y-169917177D01*
X127106190Y-169952084D01*
X127074924Y-169960462D01*
X126986544Y-169972098D01*
X126976358Y-169973439D01*
X126960174Y-169974500D01*
X114976426Y-169974500D01*
X114960241Y-169973439D01*
X114948508Y-169971894D01*
X114861675Y-169960462D01*
X114830409Y-169952084D01*
X114746134Y-169917177D01*
X114718100Y-169900992D01*
X114676427Y-169869015D01*
X114645728Y-169845458D01*
X114622841Y-169822571D01*
X114579764Y-169766433D01*
X114567305Y-169750197D01*
X114551123Y-169722168D01*
X114519957Y-169646925D01*
X114516215Y-169637890D01*
X114507837Y-169606623D01*
X114494861Y-169508059D01*
X114493800Y-169491874D01*
X114493800Y-169008125D01*
X114494861Y-168991940D01*
X114507837Y-168893376D01*
X114516215Y-168862109D01*
X114531445Y-168825340D01*
X114551125Y-168777828D01*
X114567303Y-168749805D01*
X114622841Y-168677427D01*
X114645728Y-168654541D01*
X114663466Y-168640930D01*
X114718105Y-168599003D01*
X114746128Y-168582825D01*
X114830409Y-168547915D01*
X114861675Y-168539537D01*
X114960241Y-168526561D01*
X114976426Y-168525500D01*
X115063325Y-168525500D01*
X115063327Y-168525500D01*
X115220749Y-168496072D01*
X116732796Y-168496072D01*
X116973605Y-168736881D01*
X118035680Y-167674806D01*
X119447064Y-167674806D01*
X120509139Y-168736881D01*
X121571214Y-167674806D01*
X122982598Y-167674806D01*
X124044672Y-168736880D01*
X124965794Y-167815758D01*
X124964989Y-167809983D01*
X124964329Y-167804293D01*
X124942537Y-167569122D01*
X124942140Y-167563409D01*
X124940539Y-167528789D01*
X124940407Y-167523061D01*
X124940407Y-167508465D01*
X124044673Y-166612731D01*
X122982598Y-167674806D01*
X121571214Y-167674806D01*
X120509139Y-166612731D01*
X119447064Y-167674806D01*
X118035680Y-167674806D01*
X116973604Y-166612730D01*
X116847799Y-166738535D01*
X116848733Y-166740649D01*
X116850925Y-166745941D01*
X116867587Y-166788950D01*
X116869533Y-166794339D01*
X116880546Y-166827198D01*
X116882241Y-166832670D01*
X116946870Y-167059823D01*
X116948309Y-167065366D01*
X116956241Y-167099091D01*
X116957423Y-167104692D01*
X116965899Y-167150027D01*
X116966822Y-167155685D01*
X116971611Y-167190017D01*
X116972271Y-167195707D01*
X116994063Y-167430878D01*
X116994460Y-167436591D01*
X116996061Y-167471211D01*
X116996193Y-167476939D01*
X116996193Y-167523061D01*
X116996061Y-167528789D01*
X116994460Y-167563409D01*
X116994063Y-167569122D01*
X116972271Y-167804293D01*
X116971611Y-167809983D01*
X116966822Y-167844315D01*
X116965899Y-167849973D01*
X116957423Y-167895308D01*
X116956241Y-167900909D01*
X116948309Y-167934634D01*
X116946870Y-167940177D01*
X116882241Y-168167330D01*
X116880546Y-168172802D01*
X116869533Y-168205661D01*
X116867587Y-168211050D01*
X116850925Y-168254059D01*
X116848733Y-168259351D01*
X116834733Y-168291058D01*
X116832299Y-168296244D01*
X116732796Y-168496072D01*
X115220749Y-168496072D01*
X115250144Y-168490577D01*
X115427363Y-168421922D01*
X115588949Y-168321872D01*
X115729400Y-168193834D01*
X115843933Y-168042169D01*
X115928647Y-167872040D01*
X115980657Y-167689242D01*
X115998193Y-167500000D01*
X115980657Y-167310758D01*
X115928647Y-167127960D01*
X115928206Y-167127075D01*
X115849551Y-166969114D01*
X115843933Y-166957831D01*
X115729400Y-166806166D01*
X115716426Y-166794339D01*
X115620312Y-166706719D01*
X115588949Y-166678128D01*
X115427363Y-166578078D01*
X115427361Y-166578077D01*
X115427357Y-166578075D01*
X115339978Y-166544225D01*
X115250144Y-166509423D01*
X115063327Y-166474500D01*
X115063325Y-166474500D01*
X114972367Y-166474500D01*
X114964257Y-166474235D01*
X114718679Y-166458139D01*
X114702598Y-166456021D01*
X114465235Y-166408806D01*
X114449568Y-166404608D01*
X114220388Y-166326812D01*
X114205402Y-166320605D01*
X114205217Y-166320514D01*
X114178631Y-166307403D01*
X113988339Y-166213561D01*
X113974292Y-166205451D01*
X113810460Y-166095982D01*
X113773056Y-166070990D01*
X113760190Y-166061117D01*
X113744383Y-166047255D01*
X113660428Y-165973628D01*
X113578228Y-165901540D01*
X113566759Y-165890071D01*
X113415353Y-165717426D01*
X113407179Y-165708106D01*
X113397308Y-165695241D01*
X113397146Y-165694999D01*
X113262848Y-165494007D01*
X113254738Y-165479960D01*
X113222296Y-165414174D01*
X114636626Y-165414174D01*
X114716120Y-165441158D01*
X114841118Y-165466022D01*
X115000968Y-165476500D01*
X115086389Y-165476500D01*
X115092117Y-165476632D01*
X115126738Y-165478233D01*
X115132452Y-165478630D01*
X115178378Y-165482886D01*
X115184067Y-165483546D01*
X115218391Y-165488334D01*
X115224045Y-165489256D01*
X115456206Y-165532655D01*
X115461814Y-165533838D01*
X115495565Y-165541777D01*
X115501111Y-165543218D01*
X115545469Y-165555841D01*
X115550939Y-165557535D01*
X115583780Y-165568543D01*
X115589165Y-165570487D01*
X115809392Y-165655803D01*
X115814685Y-165657996D01*
X115846407Y-165672003D01*
X115851596Y-165674439D01*
X115892882Y-165694999D01*
X115897950Y-165697671D01*
X115928209Y-165714527D01*
X115933143Y-165717426D01*
X116133938Y-165841753D01*
X116138736Y-165844880D01*
X116167333Y-165864469D01*
X116171986Y-165867816D01*
X116208791Y-165895611D01*
X116213280Y-165899167D01*
X116239937Y-165921303D01*
X116244257Y-165925063D01*
X116247202Y-165927748D01*
X116267912Y-165907038D01*
X117679296Y-165907038D01*
X118741371Y-166969113D01*
X119304847Y-166405637D01*
X121713429Y-166405637D01*
X122276906Y-166969114D01*
X123338981Y-165907039D01*
X124750365Y-165907039D01*
X125256244Y-166412918D01*
X125256281Y-166412859D01*
X125259410Y-166408057D01*
X125279001Y-166379457D01*
X125282347Y-166374806D01*
X125424677Y-166186332D01*
X125428234Y-166181841D01*
X125450370Y-166155184D01*
X125454129Y-166150865D01*
X125485200Y-166116781D01*
X125489157Y-166112637D01*
X125513666Y-166088128D01*
X125517809Y-166084172D01*
X125692343Y-165925063D01*
X125696663Y-165921303D01*
X125723320Y-165899167D01*
X125727809Y-165895611D01*
X125764614Y-165867816D01*
X125769267Y-165864469D01*
X125797864Y-165844880D01*
X125802662Y-165841753D01*
X125913867Y-165772898D01*
X131955572Y-165772898D01*
X132008309Y-165803346D01*
X132012935Y-165806153D01*
X132040536Y-165823737D01*
X132045034Y-165826743D01*
X132080713Y-165851726D01*
X132085074Y-165854923D01*
X132111043Y-165874849D01*
X132115263Y-165878236D01*
X132286091Y-166021576D01*
X132290157Y-166025142D01*
X132314290Y-166047255D01*
X132318200Y-166050998D01*
X132349002Y-166081800D01*
X132352745Y-166085710D01*
X132374858Y-166109843D01*
X132378424Y-166113909D01*
X132521764Y-166284737D01*
X132525151Y-166288957D01*
X132545077Y-166314926D01*
X132548274Y-166319287D01*
X132573257Y-166354966D01*
X132576263Y-166359464D01*
X132593847Y-166387065D01*
X132596654Y-166391691D01*
X132708151Y-166584810D01*
X132710753Y-166589553D01*
X132725864Y-166618581D01*
X132728257Y-166623432D01*
X132746666Y-166662909D01*
X132748845Y-166667861D01*
X132761372Y-166698103D01*
X132763333Y-166703147D01*
X132839605Y-166912704D01*
X132841344Y-166917827D01*
X132845544Y-166931150D01*
X132883508Y-166969114D01*
X133945583Y-165907039D01*
X132883507Y-164844963D01*
X131955572Y-165772898D01*
X125913867Y-165772898D01*
X126003457Y-165717426D01*
X126008391Y-165714527D01*
X126038650Y-165697671D01*
X126043718Y-165694999D01*
X126085004Y-165674439D01*
X126090193Y-165672003D01*
X126121915Y-165657996D01*
X126127208Y-165655803D01*
X126347435Y-165570487D01*
X126352820Y-165568543D01*
X126385661Y-165557535D01*
X126391131Y-165555841D01*
X126435489Y-165543218D01*
X126441035Y-165541777D01*
X126474786Y-165533838D01*
X126480394Y-165532655D01*
X126497022Y-165529546D01*
X125812440Y-164844964D01*
X124750365Y-165907039D01*
X123338981Y-165907039D01*
X123308101Y-165876159D01*
X123143870Y-165963944D01*
X123141166Y-165965346D01*
X123124712Y-165973628D01*
X123121976Y-165974964D01*
X123099831Y-165985437D01*
X123097065Y-165986704D01*
X123080246Y-165994159D01*
X123077451Y-165995357D01*
X122690956Y-166155449D01*
X122688130Y-166156579D01*
X122670958Y-166163203D01*
X122668105Y-166164264D01*
X122645039Y-166172517D01*
X122642164Y-166173506D01*
X122624681Y-166179282D01*
X122621777Y-166180202D01*
X122221439Y-166301643D01*
X122218511Y-166302492D01*
X122200762Y-166307403D01*
X122197821Y-166308178D01*
X122174060Y-166314129D01*
X122171106Y-166314830D01*
X122153153Y-166318862D01*
X122150172Y-166319493D01*
X121739888Y-166401104D01*
X121736904Y-166401660D01*
X121718809Y-166404801D01*
X121715809Y-166405284D01*
X121713429Y-166405637D01*
X119304847Y-166405637D01*
X119480136Y-166230348D01*
X119314823Y-166180202D01*
X119311919Y-166179282D01*
X119294436Y-166173506D01*
X119291561Y-166172517D01*
X119268495Y-166164264D01*
X119265642Y-166163203D01*
X119248470Y-166156579D01*
X119245644Y-166155449D01*
X118859149Y-165995357D01*
X118856354Y-165994159D01*
X118839535Y-165986704D01*
X118836769Y-165985437D01*
X118814624Y-165974964D01*
X118811888Y-165973628D01*
X118795434Y-165965346D01*
X118792731Y-165963944D01*
X118423776Y-165766733D01*
X118421108Y-165765265D01*
X118405089Y-165756190D01*
X118402459Y-165754657D01*
X118381448Y-165742063D01*
X118378859Y-165740468D01*
X118363309Y-165730621D01*
X118360758Y-165728961D01*
X118059001Y-165527334D01*
X117679296Y-165907038D01*
X116267912Y-165907038D01*
X115205837Y-164844963D01*
X114636626Y-165414174D01*
X113222296Y-165414174D01*
X113218009Y-165405481D01*
X113147691Y-165262890D01*
X113141487Y-165247911D01*
X113063691Y-165018731D01*
X113059493Y-165003064D01*
X113033808Y-164873936D01*
X113012276Y-164765690D01*
X113010161Y-164749632D01*
X112994065Y-164504043D01*
X112993800Y-164495933D01*
X112993800Y-164139271D01*
X115911529Y-164139271D01*
X116973604Y-165201346D01*
X117306496Y-164868455D01*
X117280254Y-164842213D01*
X117278127Y-164840034D01*
X117265417Y-164826684D01*
X117263342Y-164824450D01*
X117246892Y-164806298D01*
X117244877Y-164804018D01*
X117232870Y-164790097D01*
X117230915Y-164787774D01*
X116965531Y-164464403D01*
X116963632Y-164462030D01*
X116952316Y-164447531D01*
X116950473Y-164445110D01*
X116935879Y-164425434D01*
X116934093Y-164422962D01*
X116923484Y-164407898D01*
X116921763Y-164405390D01*
X116689339Y-164057542D01*
X116687679Y-164054991D01*
X116677832Y-164039441D01*
X116676237Y-164036852D01*
X116663643Y-164015841D01*
X116662110Y-164013211D01*
X116653035Y-163997192D01*
X116651567Y-163994524D01*
X116454356Y-163625569D01*
X116452954Y-163622866D01*
X116444672Y-163606412D01*
X116444579Y-163606221D01*
X115911529Y-164139271D01*
X112993800Y-164139271D01*
X112993800Y-163367248D01*
X112993800Y-163367242D01*
X112959143Y-163103997D01*
X112890422Y-162847527D01*
X112889379Y-162845009D01*
X112788818Y-162602231D01*
X112788810Y-162602214D01*
X112656059Y-162372285D01*
X112656055Y-162372278D01*
X112655462Y-162371505D01*
X114143763Y-162371505D01*
X115205837Y-163433579D01*
X116083665Y-162555751D01*
X116017196Y-162221588D01*
X116016640Y-162218604D01*
X116013499Y-162200509D01*
X116013016Y-162197509D01*
X116009419Y-162173277D01*
X116009009Y-162170257D01*
X116006749Y-162151943D01*
X116006412Y-162148911D01*
X116002161Y-162105753D01*
X115205838Y-161309430D01*
X114143763Y-162371505D01*
X112655462Y-162371505D01*
X112544160Y-162226454D01*
X112494420Y-162161631D01*
X112494414Y-162161624D01*
X112306675Y-161973885D01*
X112306668Y-161973879D01*
X112096030Y-161812251D01*
X112096028Y-161812249D01*
X112096022Y-161812245D01*
X112096017Y-161812242D01*
X112096014Y-161812240D01*
X111866085Y-161679489D01*
X111866068Y-161679481D01*
X111620777Y-161577879D01*
X111620779Y-161577879D01*
X111364301Y-161509156D01*
X111101067Y-161474501D01*
X111101064Y-161474500D01*
X111101058Y-161474500D01*
X110978862Y-161474500D01*
X108976585Y-161474500D01*
X108968300Y-161474500D01*
X108873273Y-161474500D01*
X108686456Y-161509423D01*
X108509242Y-161578075D01*
X108509238Y-161578077D01*
X108347649Y-161678129D01*
X108207201Y-161806164D01*
X108092667Y-161957830D01*
X108007953Y-162127957D01*
X107955942Y-162310760D01*
X107938407Y-162499999D01*
X107938407Y-162500000D01*
X107955942Y-162689239D01*
X108007953Y-162872042D01*
X108039186Y-162934765D01*
X108092667Y-163042169D01*
X108207200Y-163193834D01*
X108347651Y-163321872D01*
X108509237Y-163421922D01*
X108686456Y-163490577D01*
X108873273Y-163525500D01*
X108960015Y-163525500D01*
X108960174Y-163525500D01*
X108976359Y-163526561D01*
X109074923Y-163539537D01*
X109106190Y-163547915D01*
X109150949Y-163566454D01*
X109190468Y-163582823D01*
X109218497Y-163599005D01*
X109249592Y-163622866D01*
X109290871Y-163654541D01*
X109313758Y-163677428D01*
X109369291Y-163749798D01*
X109385477Y-163777834D01*
X109420384Y-163862109D01*
X109428762Y-163893375D01*
X109441739Y-163991939D01*
X109442800Y-164008125D01*
X109442800Y-164491874D01*
X109441739Y-164508060D01*
X109428762Y-164606624D01*
X109420384Y-164637890D01*
X109385477Y-164722165D01*
X109369291Y-164750201D01*
X109313758Y-164822571D01*
X109290871Y-164845458D01*
X109218501Y-164900991D01*
X109190465Y-164917177D01*
X109106190Y-164952084D01*
X109074924Y-164960462D01*
X108986544Y-164972098D01*
X108976358Y-164973439D01*
X108960174Y-164974500D01*
X96976426Y-164974500D01*
X96960241Y-164973439D01*
X96948508Y-164971894D01*
X96861675Y-164960462D01*
X96830409Y-164952084D01*
X96746134Y-164917177D01*
X96718100Y-164900992D01*
X96675697Y-164868455D01*
X96645728Y-164845458D01*
X96622841Y-164822571D01*
X96573081Y-164757724D01*
X96567305Y-164750197D01*
X96551123Y-164722168D01*
X96526962Y-164663837D01*
X96516215Y-164637890D01*
X96507837Y-164606623D01*
X96494861Y-164508059D01*
X96493800Y-164491874D01*
X96493800Y-164008125D01*
X96494861Y-163991940D01*
X96496894Y-163976500D01*
X98396633Y-163976500D01*
X100195239Y-163976500D01*
X101932167Y-163976500D01*
X103730773Y-163976500D01*
X105467701Y-163976500D01*
X107266306Y-163976500D01*
X106367003Y-163077197D01*
X105467701Y-163976500D01*
X103730773Y-163976500D01*
X102831470Y-163077197D01*
X101932167Y-163976500D01*
X100195239Y-163976500D01*
X99295936Y-163077197D01*
X98396633Y-163976500D01*
X96496894Y-163976500D01*
X96507837Y-163893376D01*
X96516215Y-163862109D01*
X96531445Y-163825340D01*
X96551125Y-163777828D01*
X96567303Y-163749805D01*
X96622841Y-163677427D01*
X96645728Y-163654541D01*
X96718105Y-163599003D01*
X96746128Y-163582825D01*
X96830409Y-163547915D01*
X96861675Y-163539537D01*
X96960241Y-163526561D01*
X96976426Y-163525500D01*
X97063325Y-163525500D01*
X97063327Y-163525500D01*
X97250144Y-163490577D01*
X97427363Y-163421922D01*
X97588949Y-163321872D01*
X97729400Y-163193834D01*
X97843933Y-163042169D01*
X97928647Y-162872040D01*
X97980657Y-162689242D01*
X97998193Y-162500000D01*
X97986286Y-162371505D01*
X100001628Y-162371505D01*
X101063703Y-163433580D01*
X102125778Y-162371505D01*
X103537162Y-162371505D01*
X104599236Y-163433579D01*
X105661311Y-162371505D01*
X104599236Y-161309430D01*
X103537162Y-162371505D01*
X102125778Y-162371505D01*
X101063703Y-161309430D01*
X100001628Y-162371505D01*
X97986286Y-162371505D01*
X97980657Y-162310758D01*
X97928647Y-162127960D01*
X97928206Y-162127075D01*
X97886639Y-162043597D01*
X97843933Y-161957831D01*
X97729400Y-161806166D01*
X97588949Y-161678128D01*
X97427363Y-161578078D01*
X97427361Y-161578077D01*
X97427357Y-161578075D01*
X97331989Y-161541130D01*
X97250144Y-161509423D01*
X97063327Y-161474500D01*
X96978862Y-161474500D01*
X96476585Y-161474500D01*
X96468300Y-161474500D01*
X96335542Y-161474500D01*
X96335536Y-161474500D01*
X96335532Y-161474501D01*
X96072298Y-161509156D01*
X95815821Y-161577879D01*
X95570531Y-161679481D01*
X95570514Y-161679489D01*
X95340585Y-161812240D01*
X95340569Y-161812251D01*
X95129931Y-161973879D01*
X95129924Y-161973885D01*
X94942185Y-162161624D01*
X94942179Y-162161631D01*
X94780551Y-162372269D01*
X94780540Y-162372285D01*
X94647789Y-162602214D01*
X94647781Y-162602231D01*
X94546179Y-162847521D01*
X94477456Y-163103998D01*
X94442801Y-163367232D01*
X94442800Y-163367248D01*
X94442800Y-169494587D01*
X94442328Y-169505395D01*
X94428940Y-169658410D01*
X94425187Y-169679696D01*
X94386836Y-169822824D01*
X94379444Y-169843133D01*
X94316824Y-169977421D01*
X94306021Y-169996133D01*
X94221028Y-170117514D01*
X94207135Y-170134071D01*
X94102371Y-170238835D01*
X94085814Y-170252728D01*
X93964433Y-170337721D01*
X93945721Y-170348524D01*
X93811434Y-170411144D01*
X93791124Y-170418536D01*
X93647996Y-170456887D01*
X93626710Y-170460640D01*
X93490506Y-170472557D01*
X93473693Y-170474028D01*
X93462888Y-170474500D01*
X93373273Y-170474500D01*
X93186456Y-170509423D01*
X93009242Y-170578075D01*
X93009238Y-170578077D01*
X92847649Y-170678129D01*
X92707201Y-170806164D01*
X92592667Y-170957830D01*
X92507953Y-171127957D01*
X92455942Y-171310760D01*
X92438407Y-171499999D01*
X92438407Y-171500000D01*
X92455942Y-171689239D01*
X92507953Y-171872042D01*
X92579557Y-172015841D01*
X92592667Y-172042169D01*
X92707200Y-172193834D01*
X92847651Y-172321872D01*
X93009237Y-172421922D01*
X93009241Y-172421923D01*
X93009242Y-172421924D01*
X93013772Y-172423679D01*
X93186456Y-172490577D01*
X93373273Y-172525500D01*
X93460015Y-172525500D01*
X93460174Y-172525500D01*
X93476359Y-172526561D01*
X93574923Y-172539537D01*
X93606190Y-172547915D01*
X93650949Y-172566454D01*
X93690468Y-172582823D01*
X93718497Y-172599005D01*
X93746565Y-172620543D01*
X93790871Y-172654541D01*
X93813758Y-172677428D01*
X93869291Y-172749798D01*
X93885477Y-172777834D01*
X93920384Y-172862109D01*
X93928762Y-172893375D01*
X93935005Y-172940790D01*
X93941121Y-172987250D01*
X93941739Y-172991939D01*
X93942800Y-173008125D01*
X93942800Y-173491874D01*
X93941739Y-173508060D01*
X93928762Y-173606624D01*
X93920384Y-173637890D01*
X93885477Y-173722165D01*
X93869291Y-173750201D01*
X93813758Y-173822571D01*
X93790871Y-173845458D01*
X93718501Y-173900991D01*
X93690465Y-173917177D01*
X93606190Y-173952084D01*
X93574924Y-173960462D01*
X93486544Y-173972098D01*
X93476358Y-173973439D01*
X93460174Y-173974500D01*
X81476426Y-173974500D01*
X81460241Y-173973439D01*
X81448508Y-173971894D01*
X81361675Y-173960462D01*
X81330409Y-173952084D01*
X81246134Y-173917177D01*
X81218100Y-173900992D01*
X81182840Y-173873936D01*
X81145728Y-173845458D01*
X81122841Y-173822571D01*
X81079764Y-173766433D01*
X81067305Y-173750197D01*
X81051123Y-173722168D01*
X81018036Y-173642287D01*
X81016215Y-173637890D01*
X81007837Y-173606623D01*
X80994861Y-173508059D01*
X80993800Y-173491874D01*
X80993800Y-173008125D01*
X80994861Y-172991940D01*
X80995190Y-172989438D01*
X80996893Y-172976500D01*
X82852237Y-172976500D01*
X84446501Y-172976500D01*
X85861099Y-172976500D01*
X87982035Y-172976500D01*
X89396633Y-172976500D01*
X91517569Y-172976500D01*
X90457101Y-171916032D01*
X89396633Y-172976500D01*
X87982035Y-172976500D01*
X86921567Y-171916032D01*
X85861099Y-172976500D01*
X84446501Y-172976500D01*
X83438742Y-171968741D01*
X83382241Y-172167330D01*
X83380546Y-172172802D01*
X83369533Y-172205661D01*
X83367587Y-172211050D01*
X83350925Y-172254059D01*
X83348733Y-172259351D01*
X83334733Y-172291058D01*
X83332299Y-172296244D01*
X83227028Y-172507656D01*
X83224357Y-172512723D01*
X83207498Y-172542991D01*
X83204598Y-172547926D01*
X83180319Y-172587141D01*
X83177190Y-172591943D01*
X83157599Y-172620543D01*
X83154253Y-172625194D01*
X83011923Y-172813668D01*
X83008366Y-172818159D01*
X82986230Y-172844816D01*
X82982471Y-172849135D01*
X82951400Y-172883219D01*
X82947443Y-172887363D01*
X82922934Y-172911872D01*
X82918791Y-172915828D01*
X82852237Y-172976500D01*
X80996893Y-172976500D01*
X81007837Y-172893375D01*
X81016215Y-172862109D01*
X81031445Y-172825340D01*
X81051125Y-172777828D01*
X81067303Y-172749805D01*
X81122841Y-172677427D01*
X81145728Y-172654541D01*
X81218105Y-172599003D01*
X81246128Y-172582825D01*
X81330409Y-172547915D01*
X81361675Y-172539537D01*
X81460241Y-172526561D01*
X81476426Y-172525500D01*
X81563325Y-172525500D01*
X81563327Y-172525500D01*
X81750144Y-172490577D01*
X81927363Y-172421922D01*
X82088949Y-172321872D01*
X82229400Y-172193834D01*
X82343933Y-172042169D01*
X82428647Y-171872040D01*
X82480657Y-171689242D01*
X82498193Y-171500000D01*
X82497214Y-171489440D01*
X82480657Y-171310760D01*
X82480657Y-171310758D01*
X82452086Y-171210340D01*
X84091725Y-171210340D01*
X85153800Y-172272415D01*
X86215875Y-171210340D01*
X86215874Y-171210339D01*
X87627258Y-171210339D01*
X88689334Y-172272415D01*
X89751409Y-171210340D01*
X88814485Y-170273416D01*
X88721440Y-170301642D01*
X88718511Y-170302492D01*
X88700762Y-170307403D01*
X88697821Y-170308178D01*
X88674060Y-170314129D01*
X88671106Y-170314830D01*
X88653153Y-170318862D01*
X88650172Y-170319493D01*
X88485313Y-170352284D01*
X87627258Y-171210339D01*
X86215874Y-171210339D01*
X85153800Y-170148265D01*
X84091725Y-171210340D01*
X82452086Y-171210340D01*
X82428647Y-171127960D01*
X82428206Y-171127075D01*
X82355685Y-170981433D01*
X82343933Y-170957831D01*
X82229400Y-170806166D01*
X82088949Y-170678128D01*
X81927363Y-170578078D01*
X81927361Y-170578077D01*
X81927357Y-170578075D01*
X81839978Y-170544225D01*
X81750144Y-170509423D01*
X81563327Y-170474500D01*
X81478862Y-170474500D01*
X80476585Y-170474500D01*
X80468300Y-170474500D01*
X80378580Y-170474500D01*
X80378579Y-170474500D01*
X80201866Y-170505660D01*
X80033252Y-170567030D01*
X80033245Y-170567033D01*
X79877852Y-170656750D01*
X79877849Y-170656752D01*
X79740391Y-170772091D01*
X79625052Y-170909548D01*
X79611387Y-170933218D01*
X79560819Y-170981433D01*
X79492212Y-170994655D01*
X79427348Y-170968687D01*
X79386820Y-170911773D01*
X79380000Y-170871217D01*
X79380000Y-169442573D01*
X82323958Y-169442573D01*
X83386033Y-170504648D01*
X84021665Y-169869015D01*
X89821468Y-169869015D01*
X90457101Y-170504648D01*
X91519176Y-169442573D01*
X91037581Y-168960978D01*
X90860513Y-169138046D01*
X90858334Y-169140173D01*
X90844984Y-169152883D01*
X90842750Y-169154958D01*
X90824598Y-169171408D01*
X90822318Y-169173423D01*
X90808397Y-169185430D01*
X90806074Y-169187385D01*
X90482703Y-169452769D01*
X90480330Y-169454668D01*
X90465831Y-169465984D01*
X90463410Y-169467827D01*
X90443734Y-169482421D01*
X90441262Y-169484207D01*
X90426198Y-169494816D01*
X90423690Y-169496537D01*
X90075842Y-169728961D01*
X90073291Y-169730621D01*
X90057741Y-169740468D01*
X90055152Y-169742063D01*
X90034141Y-169754657D01*
X90031511Y-169756190D01*
X90015492Y-169765265D01*
X90012824Y-169766733D01*
X89821468Y-169869015D01*
X84021665Y-169869015D01*
X84445117Y-169445563D01*
X84130526Y-169187385D01*
X84128203Y-169185430D01*
X84114282Y-169173423D01*
X84112002Y-169171408D01*
X84093850Y-169154958D01*
X84091616Y-169152883D01*
X84078266Y-169140173D01*
X84076087Y-169138046D01*
X83780254Y-168842213D01*
X83778127Y-168840034D01*
X83765417Y-168826684D01*
X83763342Y-168824450D01*
X83746892Y-168806298D01*
X83744877Y-168804018D01*
X83732870Y-168790097D01*
X83730915Y-168787774D01*
X83465531Y-168464403D01*
X83463632Y-168462030D01*
X83452316Y-168447531D01*
X83450474Y-168445111D01*
X83449980Y-168444445D01*
X83386033Y-168380498D01*
X82323958Y-169442573D01*
X79380000Y-169442573D01*
X79380000Y-167674806D01*
X80556191Y-167674806D01*
X81618266Y-168736881D01*
X82680341Y-167674806D01*
X81618266Y-166612731D01*
X80556191Y-167674806D01*
X79380000Y-167674806D01*
X79380000Y-165253075D01*
X83459800Y-165253075D01*
X83459800Y-165646925D01*
X83465826Y-165708109D01*
X83498402Y-166038867D01*
X83498405Y-166038884D01*
X83575239Y-166425155D01*
X83689569Y-166802053D01*
X83769908Y-166996006D01*
X83833705Y-167150027D01*
X83840290Y-167165923D01*
X83840292Y-167165928D01*
X84025942Y-167513254D01*
X84025953Y-167513272D01*
X84244754Y-167840731D01*
X84244764Y-167840745D01*
X84494620Y-168145195D01*
X84773104Y-168423679D01*
X84773109Y-168423683D01*
X84773110Y-168423684D01*
X85077560Y-168673540D01*
X85405034Y-168892351D01*
X85405043Y-168892356D01*
X85405045Y-168892357D01*
X85752371Y-169078007D01*
X85752373Y-169078007D01*
X85752379Y-169078011D01*
X86116248Y-169228731D01*
X86493139Y-169343059D01*
X86879422Y-169419896D01*
X87271375Y-169458500D01*
X87271378Y-169458500D01*
X87665222Y-169458500D01*
X87665225Y-169458500D01*
X88057178Y-169419896D01*
X88443461Y-169343059D01*
X88820352Y-169228731D01*
X89184221Y-169078011D01*
X89531566Y-168892351D01*
X89859040Y-168673540D01*
X90163490Y-168423684D01*
X90408703Y-168178471D01*
X91666458Y-168178471D01*
X92224868Y-168736881D01*
X93286943Y-167674806D01*
X92318856Y-166706719D01*
X92198502Y-167103477D01*
X92197582Y-167106381D01*
X92191806Y-167123864D01*
X92190817Y-167126739D01*
X92182564Y-167149805D01*
X92181503Y-167152658D01*
X92174879Y-167169830D01*
X92173749Y-167172656D01*
X92013657Y-167559151D01*
X92012459Y-167561946D01*
X92005004Y-167578765D01*
X92003737Y-167581531D01*
X91993264Y-167603676D01*
X91991928Y-167606412D01*
X91983646Y-167622866D01*
X91982244Y-167625569D01*
X91785033Y-167994524D01*
X91783565Y-167997192D01*
X91774490Y-168013211D01*
X91772957Y-168015841D01*
X91760363Y-168036852D01*
X91758768Y-168039441D01*
X91748921Y-168054991D01*
X91747261Y-168057542D01*
X91666458Y-168178471D01*
X90408703Y-168178471D01*
X90441984Y-168145190D01*
X90691840Y-167840740D01*
X90910651Y-167513266D01*
X91096311Y-167165921D01*
X91247031Y-166802052D01*
X91361359Y-166425161D01*
X91438196Y-166038878D01*
X91476800Y-165646925D01*
X91476800Y-165253075D01*
X91438196Y-164861122D01*
X91361359Y-164474839D01*
X91247031Y-164097948D01*
X91096311Y-163734079D01*
X91066030Y-163677428D01*
X90910657Y-163386745D01*
X90910656Y-163386743D01*
X90910651Y-163386734D01*
X90855900Y-163304794D01*
X91997269Y-163304794D01*
X92003737Y-163318469D01*
X92005004Y-163321235D01*
X92012459Y-163338054D01*
X92013657Y-163340849D01*
X92173749Y-163727344D01*
X92174879Y-163730170D01*
X92181503Y-163747342D01*
X92182564Y-163750195D01*
X92190817Y-163773261D01*
X92191806Y-163776136D01*
X92197582Y-163793619D01*
X92198502Y-163796523D01*
X92319943Y-164196861D01*
X92320792Y-164199789D01*
X92325703Y-164217538D01*
X92326478Y-164220479D01*
X92332429Y-164244240D01*
X92333130Y-164247194D01*
X92337162Y-164265147D01*
X92337793Y-164268128D01*
X92419404Y-164678412D01*
X92419960Y-164681396D01*
X92423101Y-164699491D01*
X92423584Y-164702491D01*
X92427181Y-164726723D01*
X92427591Y-164729743D01*
X92429851Y-164748057D01*
X92430188Y-164751090D01*
X92452148Y-164974066D01*
X93286943Y-164139272D01*
X92224867Y-163077196D01*
X91997269Y-163304794D01*
X90855900Y-163304794D01*
X90691840Y-163059260D01*
X90441984Y-162754810D01*
X90441983Y-162754809D01*
X90441979Y-162754804D01*
X90163495Y-162476320D01*
X90035778Y-162371505D01*
X92930560Y-162371505D01*
X93493820Y-162934765D01*
X93494721Y-162929307D01*
X93495448Y-162925309D01*
X93501821Y-162893272D01*
X93502677Y-162889308D01*
X93508250Y-162865406D01*
X93509236Y-162861469D01*
X93586409Y-162573457D01*
X93587523Y-162569558D01*
X93594643Y-162546085D01*
X93595883Y-162542224D01*
X93606381Y-162511294D01*
X93607748Y-162507474D01*
X93616399Y-162484486D01*
X93617892Y-162480707D01*
X93732003Y-162205218D01*
X93733616Y-162201497D01*
X93743745Y-162179141D01*
X93745481Y-162175472D01*
X93759929Y-162146174D01*
X93761782Y-162142565D01*
X93773355Y-162120913D01*
X93775327Y-162117364D01*
X93924418Y-161859134D01*
X93926501Y-161855659D01*
X93939457Y-161834822D01*
X93941658Y-161831408D01*
X93959804Y-161804250D01*
X93962113Y-161800914D01*
X93976415Y-161780955D01*
X93978833Y-161777695D01*
X94160355Y-161541130D01*
X94162880Y-161537948D01*
X94178451Y-161518976D01*
X94181073Y-161515887D01*
X94189491Y-161506286D01*
X93992635Y-161309430D01*
X92930560Y-162371505D01*
X90035778Y-162371505D01*
X89859045Y-162226464D01*
X89859044Y-162226463D01*
X89859040Y-162226460D01*
X89531566Y-162007649D01*
X89531561Y-162007646D01*
X89531554Y-162007642D01*
X89184228Y-161821992D01*
X89184223Y-161821990D01*
X89133341Y-161800914D01*
X88961011Y-161729532D01*
X88820353Y-161671269D01*
X88443455Y-161556939D01*
X88057184Y-161480105D01*
X88057167Y-161480102D01*
X87760769Y-161450910D01*
X87665225Y-161441500D01*
X87271375Y-161441500D01*
X87183011Y-161450203D01*
X86879432Y-161480102D01*
X86879415Y-161480105D01*
X86493144Y-161556939D01*
X86116246Y-161671269D01*
X85752376Y-161821990D01*
X85752371Y-161821992D01*
X85405045Y-162007642D01*
X85405027Y-162007653D01*
X85077568Y-162226454D01*
X85077554Y-162226464D01*
X84773104Y-162476320D01*
X84494620Y-162754804D01*
X84244764Y-163059254D01*
X84244754Y-163059268D01*
X84025953Y-163386727D01*
X84025942Y-163386745D01*
X83840292Y-163734071D01*
X83840290Y-163734076D01*
X83689569Y-164097946D01*
X83575239Y-164474844D01*
X83498405Y-164861115D01*
X83498402Y-164861132D01*
X83471600Y-165133267D01*
X83459800Y-165253075D01*
X79380000Y-165253075D01*
X79380000Y-164139272D01*
X80556191Y-164139272D01*
X81618265Y-165201346D01*
X82614272Y-164205339D01*
X82615808Y-164199789D01*
X82616657Y-164196861D01*
X82644882Y-164103813D01*
X81618266Y-163077197D01*
X80556191Y-164139272D01*
X79380000Y-164139272D01*
X79380000Y-162371505D01*
X82323958Y-162371505D01*
X83049284Y-163096831D01*
X83151567Y-162905475D01*
X83153035Y-162902808D01*
X83162110Y-162886789D01*
X83163643Y-162884159D01*
X83176237Y-162863148D01*
X83177832Y-162860559D01*
X83187679Y-162845009D01*
X83189339Y-162842458D01*
X83421763Y-162494610D01*
X83423484Y-162492102D01*
X83434093Y-162477038D01*
X83435879Y-162474566D01*
X83450473Y-162454890D01*
X83452316Y-162452469D01*
X83463632Y-162437970D01*
X83465531Y-162435597D01*
X83730915Y-162112226D01*
X83732870Y-162109903D01*
X83744877Y-162095982D01*
X83746892Y-162093702D01*
X83763342Y-162075550D01*
X83765417Y-162073316D01*
X83778127Y-162059966D01*
X83780254Y-162057787D01*
X83957322Y-161880719D01*
X83386033Y-161309430D01*
X82323958Y-162371505D01*
X79380000Y-162371505D01*
X79380000Y-160603738D01*
X80556191Y-160603738D01*
X81618266Y-161665813D01*
X82680340Y-160603738D01*
X84091725Y-160603738D01*
X84739828Y-161251841D01*
X84860759Y-161171039D01*
X84863309Y-161169379D01*
X84878859Y-161159532D01*
X84881448Y-161157937D01*
X84902459Y-161145343D01*
X84905089Y-161143810D01*
X84921108Y-161134735D01*
X84923776Y-161133267D01*
X85292731Y-160936056D01*
X85295434Y-160934654D01*
X85311888Y-160926372D01*
X85314624Y-160925036D01*
X85336769Y-160914563D01*
X85339535Y-160913296D01*
X85356354Y-160905841D01*
X85359149Y-160904643D01*
X85745644Y-160744551D01*
X85748470Y-160743421D01*
X85765642Y-160736797D01*
X85768495Y-160735736D01*
X85791561Y-160727483D01*
X85794436Y-160726494D01*
X85811919Y-160720718D01*
X85814823Y-160719798D01*
X86211580Y-160599443D01*
X86062204Y-160450067D01*
X87780929Y-160450067D01*
X88167210Y-160488112D01*
X88170243Y-160488449D01*
X88188557Y-160490709D01*
X88191577Y-160491119D01*
X88215809Y-160494716D01*
X88218809Y-160495199D01*
X88236904Y-160498340D01*
X88239888Y-160498896D01*
X88650172Y-160580507D01*
X88653153Y-160581138D01*
X88671106Y-160585170D01*
X88674060Y-160585871D01*
X88697821Y-160591822D01*
X88700762Y-160592597D01*
X88718511Y-160597508D01*
X88721439Y-160598357D01*
X89121777Y-160719798D01*
X89124681Y-160720718D01*
X89142164Y-160726494D01*
X89145039Y-160727483D01*
X89168105Y-160735736D01*
X89170958Y-160736797D01*
X89188130Y-160743421D01*
X89190956Y-160744551D01*
X89487685Y-160867460D01*
X89751407Y-160603738D01*
X91162793Y-160603738D01*
X92224868Y-161665813D01*
X93286942Y-160603738D01*
X94698327Y-160603738D01*
X94968982Y-160874393D01*
X95085665Y-160807027D01*
X95089213Y-160805055D01*
X95110865Y-160793482D01*
X95114474Y-160791629D01*
X95143772Y-160777181D01*
X95147441Y-160775445D01*
X95169797Y-160765316D01*
X95173518Y-160763703D01*
X95449007Y-160649592D01*
X95452786Y-160648099D01*
X95475774Y-160639448D01*
X95479594Y-160638081D01*
X95510524Y-160627583D01*
X95514385Y-160626343D01*
X95537858Y-160619223D01*
X95541757Y-160618109D01*
X95595390Y-160603738D01*
X98233861Y-160603738D01*
X99295935Y-161665812D01*
X100179374Y-160782373D01*
X105483564Y-160782373D01*
X106367003Y-161665812D01*
X107429078Y-160603738D01*
X112375996Y-160603738D01*
X113438071Y-161665813D01*
X113850809Y-161253075D01*
X116959800Y-161253075D01*
X116959800Y-161646925D01*
X116963122Y-161680649D01*
X116998402Y-162038867D01*
X116998405Y-162038884D01*
X117075239Y-162425155D01*
X117189569Y-162802053D01*
X117340290Y-163165923D01*
X117340292Y-163165928D01*
X117525942Y-163513254D01*
X117525953Y-163513272D01*
X117744754Y-163840731D01*
X117744764Y-163840745D01*
X117994620Y-164145195D01*
X118273104Y-164423679D01*
X118273109Y-164423683D01*
X118273110Y-164423684D01*
X118577560Y-164673540D01*
X118905034Y-164892351D01*
X118905043Y-164892356D01*
X118905045Y-164892357D01*
X119252371Y-165078007D01*
X119252373Y-165078007D01*
X119252379Y-165078011D01*
X119616248Y-165228731D01*
X119993139Y-165343059D01*
X120379422Y-165419896D01*
X120771375Y-165458500D01*
X120771378Y-165458500D01*
X121165222Y-165458500D01*
X121165225Y-165458500D01*
X121557178Y-165419896D01*
X121943461Y-165343059D01*
X122320352Y-165228731D01*
X122684221Y-165078011D01*
X123031566Y-164892351D01*
X123359040Y-164673540D01*
X123663490Y-164423684D01*
X123941984Y-164145190D01*
X123946841Y-164139272D01*
X126518132Y-164139272D01*
X127580207Y-165201347D01*
X128642282Y-164139272D01*
X130053666Y-164139272D01*
X131115741Y-165201347D01*
X132177816Y-164139272D01*
X133589200Y-164139272D01*
X134651275Y-165201347D01*
X135713350Y-164139272D01*
X137124734Y-164139272D01*
X137649299Y-164663837D01*
X137865161Y-164598357D01*
X137868089Y-164597508D01*
X137885838Y-164592597D01*
X137888779Y-164591822D01*
X137912540Y-164585871D01*
X137915494Y-164585170D01*
X137933447Y-164581138D01*
X137936428Y-164580507D01*
X138346712Y-164498896D01*
X138349696Y-164498340D01*
X138367791Y-164495199D01*
X138370791Y-164494716D01*
X138395023Y-164491119D01*
X138398043Y-164490709D01*
X138416357Y-164488449D01*
X138419390Y-164488112D01*
X138835736Y-164447106D01*
X138838768Y-164446845D01*
X138857110Y-164445492D01*
X138860143Y-164445306D01*
X138884611Y-164444103D01*
X138887651Y-164443990D01*
X138906070Y-164443537D01*
X138909119Y-164443500D01*
X138944656Y-164443500D01*
X139248884Y-164139272D01*
X139248883Y-164139271D01*
X140660267Y-164139271D01*
X141644430Y-165123434D01*
X141662825Y-165133267D01*
X141665492Y-165134735D01*
X141681511Y-165143810D01*
X141684141Y-165145343D01*
X141705152Y-165157937D01*
X141707741Y-165159532D01*
X141723291Y-165169379D01*
X141725842Y-165171039D01*
X141741912Y-165181776D01*
X142784417Y-164139272D01*
X142680401Y-164035256D01*
X141373208Y-163426330D01*
X140660267Y-164139271D01*
X139248883Y-164139271D01*
X138186809Y-163077197D01*
X137124734Y-164139272D01*
X135713350Y-164139272D01*
X134651275Y-163077197D01*
X133589200Y-164139272D01*
X132177816Y-164139272D01*
X131115741Y-163077197D01*
X130053666Y-164139272D01*
X128642282Y-164139272D01*
X127580207Y-163077197D01*
X126518132Y-164139272D01*
X123946841Y-164139272D01*
X124191840Y-163840740D01*
X124410651Y-163513266D01*
X124546513Y-163259087D01*
X125637947Y-163259087D01*
X125812440Y-163433580D01*
X126874515Y-162371505D01*
X128285899Y-162371505D01*
X129347974Y-163433580D01*
X130410049Y-162371505D01*
X131821433Y-162371505D01*
X132883508Y-163433580D01*
X133945583Y-162371505D01*
X135356967Y-162371505D01*
X136419042Y-163433580D01*
X137481117Y-162371505D01*
X137481116Y-162371504D01*
X138892500Y-162371504D01*
X139954575Y-163433579D01*
X140410350Y-162977804D01*
X138961236Y-162302768D01*
X138892500Y-162371504D01*
X137481116Y-162371504D01*
X136419042Y-161309430D01*
X135356967Y-162371505D01*
X133945583Y-162371505D01*
X132883508Y-161309430D01*
X131821433Y-162371505D01*
X130410049Y-162371505D01*
X129347974Y-161309430D01*
X128285899Y-162371505D01*
X126874515Y-162371505D01*
X125974800Y-161471790D01*
X125974800Y-161659181D01*
X125974763Y-161662230D01*
X125974310Y-161680649D01*
X125974197Y-161683689D01*
X125972994Y-161708157D01*
X125972808Y-161711190D01*
X125971455Y-161729532D01*
X125971194Y-161732564D01*
X125930188Y-162148910D01*
X125929851Y-162151943D01*
X125927591Y-162170257D01*
X125927181Y-162173277D01*
X125923584Y-162197509D01*
X125923101Y-162200509D01*
X125919960Y-162218604D01*
X125919404Y-162221588D01*
X125837793Y-162631872D01*
X125837162Y-162634853D01*
X125833130Y-162652806D01*
X125832429Y-162655760D01*
X125826478Y-162679521D01*
X125825703Y-162682462D01*
X125820792Y-162700211D01*
X125819943Y-162703139D01*
X125698502Y-163103477D01*
X125697582Y-163106381D01*
X125691806Y-163123864D01*
X125690817Y-163126739D01*
X125682564Y-163149805D01*
X125681503Y-163152658D01*
X125674879Y-163169830D01*
X125673749Y-163172657D01*
X125637947Y-163259087D01*
X124546513Y-163259087D01*
X124596311Y-163165921D01*
X124747031Y-162802052D01*
X124861359Y-162425161D01*
X124938196Y-162038878D01*
X124976800Y-161646925D01*
X124976800Y-161253075D01*
X124938196Y-160861122D01*
X124886999Y-160603738D01*
X126518132Y-160603738D01*
X127580207Y-161665813D01*
X128642281Y-160603738D01*
X130053666Y-160603738D01*
X131115741Y-161665813D01*
X132177815Y-160603738D01*
X132177814Y-160603737D01*
X133589199Y-160603737D01*
X134651274Y-161665812D01*
X135586406Y-160730680D01*
X134137293Y-160055643D01*
X133589199Y-160603737D01*
X132177814Y-160603737D01*
X131115741Y-159541663D01*
X130053666Y-160603738D01*
X128642281Y-160603738D01*
X127580207Y-159541663D01*
X126518132Y-160603738D01*
X124886999Y-160603738D01*
X124861359Y-160474839D01*
X124747031Y-160097948D01*
X124596311Y-159734079D01*
X124571847Y-159688311D01*
X124410657Y-159386745D01*
X124410656Y-159386743D01*
X124410651Y-159386734D01*
X124191840Y-159059260D01*
X123941984Y-158754810D01*
X123941983Y-158754809D01*
X123941979Y-158754804D01*
X123727876Y-158540701D01*
X125045634Y-158540701D01*
X125247261Y-158842458D01*
X125248921Y-158845009D01*
X125258768Y-158860559D01*
X125260363Y-158863148D01*
X125272957Y-158884159D01*
X125274490Y-158886789D01*
X125283565Y-158902808D01*
X125285033Y-158905476D01*
X125482244Y-159274431D01*
X125483646Y-159277134D01*
X125491928Y-159293588D01*
X125493264Y-159296324D01*
X125503737Y-159318469D01*
X125505004Y-159321235D01*
X125512459Y-159338054D01*
X125513657Y-159340849D01*
X125673749Y-159727344D01*
X125674879Y-159730170D01*
X125681503Y-159747342D01*
X125682564Y-159750195D01*
X125690817Y-159773261D01*
X125691806Y-159776136D01*
X125692435Y-159778041D01*
X125812440Y-159898046D01*
X126874514Y-158835971D01*
X128285899Y-158835971D01*
X129347974Y-159898046D01*
X130410048Y-158835971D01*
X129442982Y-157868905D01*
X129313350Y-157808519D01*
X128285899Y-158835971D01*
X126874514Y-158835971D01*
X125812439Y-157773896D01*
X125045634Y-158540701D01*
X123727876Y-158540701D01*
X123663495Y-158476320D01*
X123359045Y-158226464D01*
X123359044Y-158226463D01*
X123359040Y-158226460D01*
X123031566Y-158007649D01*
X123031561Y-158007646D01*
X123031554Y-158007642D01*
X122684228Y-157821992D01*
X122684223Y-157821990D01*
X122651701Y-157808519D01*
X122498455Y-157745042D01*
X122320353Y-157671269D01*
X121943455Y-157556939D01*
X121557184Y-157480105D01*
X121557167Y-157480102D01*
X121260769Y-157450910D01*
X121165225Y-157441500D01*
X120771375Y-157441500D01*
X120683011Y-157450203D01*
X120379432Y-157480102D01*
X120379415Y-157480105D01*
X119993144Y-157556939D01*
X119616246Y-157671269D01*
X119252376Y-157821990D01*
X119252371Y-157821992D01*
X118905045Y-158007642D01*
X118905027Y-158007653D01*
X118577568Y-158226454D01*
X118577554Y-158226464D01*
X118273104Y-158476320D01*
X117994620Y-158754804D01*
X117744764Y-159059254D01*
X117744754Y-159059268D01*
X117525953Y-159386727D01*
X117525942Y-159386745D01*
X117340292Y-159734071D01*
X117340290Y-159734076D01*
X117189569Y-160097946D01*
X117075239Y-160474844D01*
X116998405Y-160861115D01*
X116998402Y-160861132D01*
X116974293Y-161105921D01*
X116959800Y-161253075D01*
X113850809Y-161253075D01*
X114500145Y-160603738D01*
X113438071Y-159541663D01*
X112375996Y-160603738D01*
X107429078Y-160603738D01*
X107301840Y-160476500D01*
X108967701Y-160476500D01*
X110837374Y-160476500D01*
X109902537Y-159541663D01*
X108967701Y-160476500D01*
X107301840Y-160476500D01*
X106661838Y-159836498D01*
X106658473Y-159840034D01*
X106656346Y-159842213D01*
X106360513Y-160138046D01*
X106358334Y-160140173D01*
X106344984Y-160152883D01*
X106342750Y-160154958D01*
X106324598Y-160171408D01*
X106322318Y-160173423D01*
X106308397Y-160185430D01*
X106306074Y-160187385D01*
X105982703Y-160452769D01*
X105980330Y-160454668D01*
X105965831Y-160465984D01*
X105963410Y-160467827D01*
X105943734Y-160482421D01*
X105941262Y-160484207D01*
X105926198Y-160494816D01*
X105923690Y-160496537D01*
X105575842Y-160728961D01*
X105573291Y-160730621D01*
X105557741Y-160740468D01*
X105555152Y-160742063D01*
X105534141Y-160754657D01*
X105531511Y-160756190D01*
X105515492Y-160765265D01*
X105512824Y-160766734D01*
X105483564Y-160782373D01*
X100179374Y-160782373D01*
X100284044Y-160677703D01*
X100012910Y-160496537D01*
X100010402Y-160494816D01*
X99995338Y-160484207D01*
X99992866Y-160482421D01*
X99973190Y-160467827D01*
X99970769Y-160465984D01*
X99956270Y-160454668D01*
X99953897Y-160452769D01*
X99630526Y-160187385D01*
X99628203Y-160185430D01*
X99614282Y-160173423D01*
X99612002Y-160171408D01*
X99593850Y-160154958D01*
X99591616Y-160152883D01*
X99578266Y-160140173D01*
X99576087Y-160138046D01*
X99280254Y-159842213D01*
X99278127Y-159840034D01*
X99265417Y-159826684D01*
X99263342Y-159824450D01*
X99246892Y-159806298D01*
X99244877Y-159804018D01*
X99232870Y-159790097D01*
X99230915Y-159787774D01*
X99149287Y-159688311D01*
X98233861Y-160603738D01*
X95595390Y-160603738D01*
X95829769Y-160540936D01*
X95833706Y-160539950D01*
X95857608Y-160534377D01*
X95861572Y-160533521D01*
X95893609Y-160527148D01*
X95897607Y-160526421D01*
X95921827Y-160522423D01*
X95925836Y-160521828D01*
X96221468Y-160482906D01*
X96225501Y-160482442D01*
X96249931Y-160480036D01*
X96253976Y-160479704D01*
X96286572Y-160477568D01*
X96290623Y-160477369D01*
X96315154Y-160476566D01*
X96319211Y-160476500D01*
X96695239Y-160476500D01*
X95760402Y-159541663D01*
X94698327Y-160603738D01*
X93286942Y-160603738D01*
X92224868Y-159541663D01*
X91162793Y-160603738D01*
X89751407Y-160603738D01*
X89751408Y-160603737D01*
X88689333Y-159541663D01*
X87780929Y-160450067D01*
X86062204Y-160450067D01*
X85153800Y-159541663D01*
X84091725Y-160603738D01*
X82680340Y-160603738D01*
X81618266Y-159541663D01*
X80556191Y-160603738D01*
X79380000Y-160603738D01*
X79380000Y-158835971D01*
X82323958Y-158835971D01*
X83386033Y-159898046D01*
X84448107Y-158835971D01*
X85859492Y-158835971D01*
X86921567Y-159898046D01*
X87983641Y-158835971D01*
X89395026Y-158835971D01*
X90457101Y-159898046D01*
X91519175Y-158835971D01*
X92930560Y-158835971D01*
X93992635Y-159898046D01*
X95054709Y-158835971D01*
X96466094Y-158835971D01*
X97528168Y-159898045D01*
X98574977Y-158851236D01*
X98539918Y-158785645D01*
X97528169Y-157773896D01*
X96466094Y-158835971D01*
X95054709Y-158835971D01*
X93992635Y-157773896D01*
X92930560Y-158835971D01*
X91519175Y-158835971D01*
X90457101Y-157773896D01*
X89395026Y-158835971D01*
X87983641Y-158835971D01*
X86921567Y-157773896D01*
X85859492Y-158835971D01*
X84448107Y-158835971D01*
X83386033Y-157773896D01*
X82323958Y-158835971D01*
X79380000Y-158835971D01*
X79380000Y-157068204D01*
X80556191Y-157068204D01*
X81618266Y-158130279D01*
X82680340Y-157068204D01*
X84091725Y-157068204D01*
X85153800Y-158130279D01*
X86215874Y-157068204D01*
X87627259Y-157068204D01*
X88689334Y-158130279D01*
X89751408Y-157068204D01*
X91162793Y-157068204D01*
X92224868Y-158130279D01*
X93286942Y-157068204D01*
X94698327Y-157068204D01*
X95760402Y-158130279D01*
X96822476Y-157068204D01*
X95760402Y-156006129D01*
X94698327Y-157068204D01*
X93286942Y-157068204D01*
X92224868Y-156006129D01*
X91162793Y-157068204D01*
X89751408Y-157068204D01*
X88689334Y-156006129D01*
X87627259Y-157068204D01*
X86215874Y-157068204D01*
X85153800Y-156006129D01*
X84091725Y-157068204D01*
X82680340Y-157068204D01*
X81618266Y-156006129D01*
X80556191Y-157068204D01*
X79380000Y-157068204D01*
X79380000Y-155300437D01*
X82323957Y-155300437D01*
X83386033Y-156362512D01*
X84448107Y-155300437D01*
X85859492Y-155300437D01*
X86921567Y-156362512D01*
X87983641Y-155300437D01*
X89395026Y-155300437D01*
X90457101Y-156362512D01*
X91519175Y-155300437D01*
X92930560Y-155300437D01*
X93992635Y-156362512D01*
X95054709Y-155300437D01*
X96466094Y-155300437D01*
X97528168Y-156362512D01*
X97991861Y-155898819D01*
X98006412Y-155751090D01*
X98006749Y-155748057D01*
X98009009Y-155729743D01*
X98009419Y-155726723D01*
X98013016Y-155702491D01*
X98013499Y-155699491D01*
X98016640Y-155681396D01*
X98017196Y-155678412D01*
X98098807Y-155268128D01*
X98099438Y-155265147D01*
X98103470Y-155247194D01*
X98104171Y-155244240D01*
X98110122Y-155220479D01*
X98110897Y-155217538D01*
X98115808Y-155199789D01*
X98116657Y-155196861D01*
X98202774Y-154912968D01*
X97528169Y-154238363D01*
X96466094Y-155300437D01*
X95054709Y-155300437D01*
X93992635Y-154238363D01*
X92930560Y-155300437D01*
X91519175Y-155300437D01*
X90457101Y-154238363D01*
X89395026Y-155300437D01*
X87983641Y-155300437D01*
X86921567Y-154238363D01*
X85859492Y-155300437D01*
X84448107Y-155300437D01*
X83736356Y-154588686D01*
X83686494Y-154604916D01*
X83144498Y-154810839D01*
X82602129Y-155047540D01*
X82554838Y-155069556D01*
X82323957Y-155300437D01*
X79380000Y-155300437D01*
X79380000Y-155260051D01*
X79399685Y-155193012D01*
X79452489Y-155147257D01*
X79474270Y-155139668D01*
X79755840Y-155070149D01*
X80360134Y-154889510D01*
X80954977Y-154679838D01*
X81538977Y-154441625D01*
X81763232Y-154337233D01*
X81763269Y-154337227D01*
X81832378Y-154305047D01*
X81832381Y-154305044D01*
X81832388Y-154305042D01*
X81832387Y-154305042D01*
X82189160Y-154138947D01*
X82189161Y-154138949D01*
X82189186Y-154138934D01*
X82190525Y-154138311D01*
X82193128Y-154137137D01*
X82682649Y-153923500D01*
X88018088Y-153923500D01*
X88689334Y-154594745D01*
X89360580Y-153923500D01*
X91553622Y-153923500D01*
X92224868Y-154594745D01*
X92896114Y-153923500D01*
X95089156Y-153923500D01*
X95760402Y-154594745D01*
X96431648Y-153923500D01*
X95089156Y-153923500D01*
X92896114Y-153923500D01*
X91553622Y-153923500D01*
X89360580Y-153923500D01*
X88018088Y-153923500D01*
X82682649Y-153923500D01*
X82764779Y-153887657D01*
X82770252Y-153885425D01*
X83351806Y-153664471D01*
X83357443Y-153662485D01*
X83948986Y-153469942D01*
X83954691Y-153468237D01*
X84554871Y-153304543D01*
X84560640Y-153303119D01*
X85168072Y-153168654D01*
X85173888Y-153167514D01*
X85787086Y-153062609D01*
X85792980Y-153061747D01*
X86410555Y-152986636D01*
X86416464Y-152986063D01*
X87036925Y-152940930D01*
X87042866Y-152940642D01*
X87666968Y-152925535D01*
X87669944Y-152925500D01*
X87676067Y-152925500D01*
X100619205Y-152925500D01*
X100686244Y-152945185D01*
G37*
G04 #@! TD.AperFunction*
G04 #@! TA.AperFunction,NonConductor*
G36*
X45000104Y-198199685D02*
G01*
X45045859Y-198252489D01*
X45055803Y-198321647D01*
X45026778Y-198385203D01*
X45008539Y-198402385D01*
X44811266Y-198553718D01*
X44811256Y-198553728D01*
X44623523Y-198741404D01*
X44623516Y-198741412D01*
X44461879Y-198951989D01*
X44329102Y-199181859D01*
X44329099Y-199181866D01*
X44227457Y-199427102D01*
X44158690Y-199683499D01*
X44158689Y-199683500D01*
X44123969Y-199946692D01*
X44123937Y-200068863D01*
X44123937Y-200068865D01*
X44123846Y-200387946D01*
X44123840Y-200387998D01*
X44123840Y-200410679D01*
X44123830Y-200445828D01*
X44123840Y-200445878D01*
X44123840Y-200505687D01*
X44133374Y-200556686D01*
X44158763Y-200692502D01*
X44158763Y-200692503D01*
X44227415Y-200869717D01*
X44227417Y-200869721D01*
X44227418Y-200869723D01*
X44327468Y-201031309D01*
X44455506Y-201171760D01*
X44607171Y-201286293D01*
X44777298Y-201371006D01*
X44777299Y-201371006D01*
X44777300Y-201371007D01*
X44960098Y-201423017D01*
X45149339Y-201440553D01*
X45149340Y-201440553D01*
X45149341Y-201440553D01*
X45196650Y-201436169D01*
X45338582Y-201423017D01*
X45521380Y-201371007D01*
X45691509Y-201286293D01*
X45843174Y-201171760D01*
X45971212Y-201031309D01*
X46071262Y-200869723D01*
X46139917Y-200692504D01*
X46174840Y-200505687D01*
X46174840Y-200418791D01*
X46175902Y-200402598D01*
X46176231Y-200400098D01*
X46188885Y-200304044D01*
X46197266Y-200272780D01*
X46232176Y-200188519D01*
X46248363Y-200160487D01*
X46248377Y-200160469D01*
X46303896Y-200088126D01*
X46326779Y-200065246D01*
X46399158Y-200009717D01*
X46427180Y-199993543D01*
X46511457Y-199958641D01*
X46542716Y-199950268D01*
X46641902Y-199937218D01*
X46658067Y-199936160D01*
X47141208Y-199936160D01*
X47157400Y-199937221D01*
X47255959Y-199950204D01*
X47287223Y-199958583D01*
X47371499Y-199993495D01*
X47399527Y-200009677D01*
X47471903Y-200065215D01*
X47494784Y-200088096D01*
X47550320Y-200160469D01*
X47566504Y-200188500D01*
X47601416Y-200272776D01*
X47609795Y-200304038D01*
X47622778Y-200402596D01*
X47623840Y-200418791D01*
X47623840Y-212402542D01*
X47622780Y-212418718D01*
X47609809Y-212517297D01*
X47601434Y-212548564D01*
X47566529Y-212632852D01*
X47550346Y-212660888D01*
X47494812Y-212733273D01*
X47471924Y-212756164D01*
X47399552Y-212811706D01*
X47371520Y-212827893D01*
X47287240Y-212862811D01*
X47255974Y-212871192D01*
X47172769Y-212882153D01*
X47158005Y-212884098D01*
X47141812Y-212885160D01*
X46657459Y-212885160D01*
X46641282Y-212884100D01*
X46641267Y-212884098D01*
X46542711Y-212871129D01*
X46511444Y-212862754D01*
X46427163Y-212827847D01*
X46399127Y-212811661D01*
X46326758Y-212756131D01*
X46303868Y-212733241D01*
X46248338Y-212660872D01*
X46232153Y-212632839D01*
X46197243Y-212548550D01*
X46188870Y-212517290D01*
X46177828Y-212433369D01*
X46175900Y-212418715D01*
X46174840Y-212402540D01*
X46174840Y-212315635D01*
X46157064Y-212220544D01*
X46139917Y-212128816D01*
X46071262Y-211951597D01*
X45971212Y-211790011D01*
X45843174Y-211649560D01*
X45691509Y-211535027D01*
X45641929Y-211510339D01*
X45521381Y-211450313D01*
X45521382Y-211450313D01*
X45416482Y-211420467D01*
X45338582Y-211398303D01*
X45338579Y-211398302D01*
X45338581Y-211398302D01*
X45149341Y-211380767D01*
X45149339Y-211380767D01*
X44960100Y-211398302D01*
X44777297Y-211450313D01*
X44607170Y-211535027D01*
X44455504Y-211649561D01*
X44327469Y-211790009D01*
X44227417Y-211951598D01*
X44227415Y-211951602D01*
X44158763Y-212128816D01*
X44158763Y-212128817D01*
X44123840Y-212315635D01*
X44123840Y-212379980D01*
X44123831Y-212380037D01*
X44123840Y-212410657D01*
X44123840Y-212433328D01*
X44123844Y-212433369D01*
X44123860Y-212491765D01*
X44123855Y-212491801D01*
X44123868Y-212521480D01*
X44123868Y-212521494D01*
X44123878Y-212555873D01*
X44123884Y-212555902D01*
X44124013Y-212821244D01*
X44124013Y-212821261D01*
X44124014Y-212824131D01*
X44123547Y-212834925D01*
X44110225Y-212987996D01*
X44106480Y-213009290D01*
X44068177Y-213152472D01*
X44060790Y-213172792D01*
X43998197Y-213307147D01*
X43987392Y-213325875D01*
X43902416Y-213447311D01*
X43888523Y-213463877D01*
X43783747Y-213568706D01*
X43767188Y-213582608D01*
X43661179Y-213656868D01*
X43645791Y-213667647D01*
X43627073Y-213678457D01*
X43492749Y-213741118D01*
X43472437Y-213748514D01*
X43329271Y-213786890D01*
X43307979Y-213790646D01*
X43155103Y-213804028D01*
X43144290Y-213804500D01*
X38768401Y-213804500D01*
X38760295Y-213804235D01*
X38514762Y-213788149D01*
X38498683Y-213786033D01*
X38261338Y-213738834D01*
X38245672Y-213734637D01*
X38016522Y-213656868D01*
X38001547Y-213650666D01*
X37813066Y-213557738D01*
X37784495Y-213543651D01*
X37770450Y-213535543D01*
X37569235Y-213401126D01*
X37556367Y-213391255D01*
X37460437Y-213307147D01*
X37374409Y-213231720D01*
X37362940Y-213220254D01*
X37203357Y-213038336D01*
X37193494Y-213025486D01*
X37059009Y-212824284D01*
X37050904Y-212810250D01*
X36943835Y-212593233D01*
X36937625Y-212578250D01*
X36922419Y-212533483D01*
X36858675Y-212345819D01*
X36856322Y-212338063D01*
X36800210Y-212128817D01*
X36539860Y-211157944D01*
X37573119Y-211157944D01*
X37812849Y-212051923D01*
X37864179Y-212203040D01*
X37920558Y-212317314D01*
X37967540Y-212387605D01*
X38486166Y-211868979D01*
X39897550Y-211868979D01*
X40835071Y-212806500D01*
X41084181Y-212806500D01*
X42021701Y-211868980D01*
X41123072Y-210970351D01*
X40822656Y-211094789D01*
X40819830Y-211095919D01*
X40802658Y-211102543D01*
X40799805Y-211103604D01*
X40776739Y-211111857D01*
X40773864Y-211112846D01*
X40756381Y-211118622D01*
X40753477Y-211119542D01*
X40600619Y-211165910D01*
X39897550Y-211868979D01*
X38486166Y-211868979D01*
X37862549Y-211245362D01*
X37849789Y-211241832D01*
X37846861Y-211240983D01*
X37573119Y-211157944D01*
X36539860Y-211157944D01*
X36352181Y-210458069D01*
X42022174Y-210458069D01*
X42727393Y-211163288D01*
X43789468Y-210101213D01*
X45200852Y-210101213D01*
X45515778Y-210416139D01*
X45544648Y-210421537D01*
X45550249Y-210422719D01*
X45583974Y-210430651D01*
X45589517Y-210432090D01*
X45816670Y-210496719D01*
X45822142Y-210498414D01*
X45855001Y-210509427D01*
X45860390Y-210511373D01*
X45903399Y-210528035D01*
X45908691Y-210530227D01*
X45940398Y-210544227D01*
X45945584Y-210546661D01*
X46156996Y-210651932D01*
X46162063Y-210654603D01*
X46192331Y-210671462D01*
X46197266Y-210674362D01*
X46236481Y-210698641D01*
X46241283Y-210701770D01*
X46269883Y-210721361D01*
X46274534Y-210724707D01*
X46463008Y-210867037D01*
X46467499Y-210870594D01*
X46494156Y-210892730D01*
X46498475Y-210896489D01*
X46514822Y-210911391D01*
X46625840Y-210800374D01*
X46625840Y-209402051D01*
X46262927Y-209039138D01*
X45200852Y-210101213D01*
X43789468Y-210101213D01*
X43097913Y-209409658D01*
X42837385Y-209727114D01*
X42835430Y-209729437D01*
X42823423Y-209743358D01*
X42821408Y-209745638D01*
X42804958Y-209763790D01*
X42802883Y-209766024D01*
X42790173Y-209779374D01*
X42788046Y-209781553D01*
X42492213Y-210077386D01*
X42490034Y-210079513D01*
X42476684Y-210092223D01*
X42474450Y-210094298D01*
X42456298Y-210110748D01*
X42454018Y-210112763D01*
X42440097Y-210124770D01*
X42437774Y-210126725D01*
X42114403Y-210392109D01*
X42112030Y-210394008D01*
X42097531Y-210405324D01*
X42095110Y-210407167D01*
X42075434Y-210421761D01*
X42072962Y-210423547D01*
X42057898Y-210434156D01*
X42055389Y-210435877D01*
X42022174Y-210458069D01*
X36352181Y-210458069D01*
X36178153Y-209809099D01*
X36178153Y-209809080D01*
X36168207Y-209772008D01*
X36167697Y-209770106D01*
X36167153Y-209768000D01*
X36062454Y-209346251D01*
X36065406Y-209276447D01*
X36105631Y-209219317D01*
X36170356Y-209193004D01*
X36239033Y-209205861D01*
X36270482Y-209228697D01*
X36404804Y-209363019D01*
X36404809Y-209363023D01*
X36404810Y-209363024D01*
X36709260Y-209612880D01*
X37036734Y-209831691D01*
X37036743Y-209831696D01*
X37036745Y-209831697D01*
X37384071Y-210017347D01*
X37384073Y-210017347D01*
X37384079Y-210017351D01*
X37747948Y-210168071D01*
X38124839Y-210282399D01*
X38511122Y-210359236D01*
X38903075Y-210397840D01*
X38903078Y-210397840D01*
X39296922Y-210397840D01*
X39296925Y-210397840D01*
X39688878Y-210359236D01*
X40075161Y-210282399D01*
X40452052Y-210168071D01*
X40815921Y-210017351D01*
X41163266Y-209831691D01*
X41490740Y-209612880D01*
X41795190Y-209363024D01*
X42073684Y-209084530D01*
X42323540Y-208780080D01*
X42489966Y-208531005D01*
X43630644Y-208531005D01*
X44495160Y-209395521D01*
X45557235Y-208333446D01*
X44495159Y-207271370D01*
X43876570Y-207889959D01*
X43830202Y-208042817D01*
X43829282Y-208045721D01*
X43823506Y-208063204D01*
X43822517Y-208066079D01*
X43814264Y-208089145D01*
X43813203Y-208091998D01*
X43806579Y-208109170D01*
X43805449Y-208111996D01*
X43645357Y-208498491D01*
X43644159Y-208501286D01*
X43636704Y-208518105D01*
X43635437Y-208520871D01*
X43630644Y-208531005D01*
X42489966Y-208531005D01*
X42542351Y-208452606D01*
X42728011Y-208105261D01*
X42878731Y-207741392D01*
X42993059Y-207364501D01*
X43069896Y-206978218D01*
X43108500Y-206586265D01*
X43108500Y-206565679D01*
X45200852Y-206565679D01*
X46262927Y-207627754D01*
X46625840Y-207264841D01*
X46625840Y-205866517D01*
X46262927Y-205503604D01*
X45200852Y-206565679D01*
X43108500Y-206565679D01*
X43108500Y-206192415D01*
X43069896Y-205800462D01*
X42993059Y-205414179D01*
X42878731Y-205037288D01*
X42728011Y-204673419D01*
X42633271Y-204496174D01*
X43734821Y-204496174D01*
X43805449Y-204666684D01*
X43806579Y-204669510D01*
X43813203Y-204686682D01*
X43814264Y-204689535D01*
X43822517Y-204712601D01*
X43823506Y-204715476D01*
X43829282Y-204732959D01*
X43830202Y-204735863D01*
X43951643Y-205136201D01*
X43952492Y-205139129D01*
X43957403Y-205156878D01*
X43958178Y-205159819D01*
X43964129Y-205183580D01*
X43964830Y-205186534D01*
X43968862Y-205204487D01*
X43969493Y-205207468D01*
X44000990Y-205365817D01*
X44495160Y-205859987D01*
X45557235Y-204797912D01*
X44495159Y-203735836D01*
X43734821Y-204496174D01*
X42633271Y-204496174D01*
X42542357Y-204326085D01*
X42542356Y-204326083D01*
X42542351Y-204326074D01*
X42323540Y-203998600D01*
X42073684Y-203694150D01*
X42073683Y-203694149D01*
X42073679Y-203694144D01*
X41795195Y-203415660D01*
X41490745Y-203165804D01*
X41490744Y-203165803D01*
X41490740Y-203165800D01*
X41163266Y-202946989D01*
X41163261Y-202946986D01*
X41163254Y-202946982D01*
X40815928Y-202761332D01*
X40815923Y-202761330D01*
X40452053Y-202610609D01*
X40075155Y-202496279D01*
X39964342Y-202474237D01*
X42221224Y-202474237D01*
X42437774Y-202651955D01*
X42440097Y-202653910D01*
X42454018Y-202665917D01*
X42456298Y-202667932D01*
X42474450Y-202684382D01*
X42476684Y-202686457D01*
X42490034Y-202699167D01*
X42492213Y-202701294D01*
X42788046Y-202997127D01*
X42790173Y-202999306D01*
X42802883Y-203012656D01*
X42804958Y-203014890D01*
X42821408Y-203033042D01*
X42823423Y-203035322D01*
X42835430Y-203049243D01*
X42837385Y-203051566D01*
X43102769Y-203374937D01*
X43104668Y-203377310D01*
X43115984Y-203391809D01*
X43117827Y-203394230D01*
X43132421Y-203413906D01*
X43134207Y-203416378D01*
X43144816Y-203431442D01*
X43146537Y-203433950D01*
X43242316Y-203577295D01*
X43789467Y-203030144D01*
X45200851Y-203030144D01*
X46262927Y-204092220D01*
X46625840Y-203729307D01*
X46625840Y-202330983D01*
X46341157Y-202046300D01*
X46274534Y-202096613D01*
X46269883Y-202099959D01*
X46241283Y-202119550D01*
X46236481Y-202122679D01*
X46197266Y-202146958D01*
X46192331Y-202149858D01*
X46162063Y-202166717D01*
X46156995Y-202169388D01*
X45967004Y-202263991D01*
X45200851Y-203030144D01*
X43789467Y-203030144D01*
X42727392Y-201968069D01*
X42221224Y-202474237D01*
X39964342Y-202474237D01*
X39688884Y-202419445D01*
X39688867Y-202419442D01*
X39392469Y-202390250D01*
X39296925Y-202380840D01*
X38903075Y-202380840D01*
X38814711Y-202389543D01*
X38511132Y-202419442D01*
X38511115Y-202419445D01*
X38124844Y-202496279D01*
X37747946Y-202610609D01*
X37384076Y-202761330D01*
X37384071Y-202761332D01*
X37036745Y-202946982D01*
X37036727Y-202946993D01*
X36709268Y-203165794D01*
X36709254Y-203165804D01*
X36404804Y-203415660D01*
X36126320Y-203694144D01*
X35876464Y-203998594D01*
X35876454Y-203998608D01*
X35712602Y-204243831D01*
X35658990Y-204288636D01*
X35589665Y-204297343D01*
X35526638Y-204267189D01*
X35489918Y-204207746D01*
X35485500Y-204174940D01*
X35485500Y-201140895D01*
X36483500Y-201140895D01*
X36483500Y-201383860D01*
X36958335Y-201858695D01*
X36968469Y-201853903D01*
X36971235Y-201852636D01*
X36988054Y-201845181D01*
X36990849Y-201843983D01*
X37377344Y-201683891D01*
X37380170Y-201682761D01*
X37397342Y-201676137D01*
X37400195Y-201675076D01*
X37423261Y-201666823D01*
X37426136Y-201665834D01*
X37443619Y-201660058D01*
X37446523Y-201659138D01*
X37846861Y-201537697D01*
X37849789Y-201536848D01*
X37867538Y-201531937D01*
X37870479Y-201531162D01*
X37894240Y-201525211D01*
X37897194Y-201524510D01*
X37915147Y-201520478D01*
X37918128Y-201519847D01*
X38305812Y-201442731D01*
X38486165Y-201262378D01*
X39897551Y-201262378D01*
X40123521Y-201488348D01*
X40281873Y-201519847D01*
X40284853Y-201520478D01*
X40302806Y-201524510D01*
X40305760Y-201525211D01*
X40329521Y-201531162D01*
X40332462Y-201531937D01*
X40350211Y-201536848D01*
X40353139Y-201537697D01*
X40753477Y-201659138D01*
X40756381Y-201660058D01*
X40773864Y-201665834D01*
X40776739Y-201666823D01*
X40799805Y-201675076D01*
X40802658Y-201676137D01*
X40819830Y-201682761D01*
X40822656Y-201683891D01*
X41209151Y-201843983D01*
X41211946Y-201845181D01*
X41228765Y-201852636D01*
X41231531Y-201853903D01*
X41253676Y-201864376D01*
X41256412Y-201865712D01*
X41272866Y-201873994D01*
X41275569Y-201875396D01*
X41362315Y-201921762D01*
X42021700Y-201262377D01*
X40959626Y-200200303D01*
X39897551Y-201262378D01*
X38486165Y-201262378D01*
X38486166Y-201262377D01*
X37424092Y-200200303D01*
X36483500Y-201140895D01*
X35485500Y-201140895D01*
X35485500Y-199494611D01*
X38129784Y-199494611D01*
X39191859Y-200556686D01*
X40253934Y-199494611D01*
X41665318Y-199494611D01*
X42727392Y-200556685D01*
X43125910Y-200158167D01*
X43125937Y-200068580D01*
X43125974Y-199930094D01*
X43126042Y-199926034D01*
X43126852Y-199901506D01*
X43127051Y-199897459D01*
X43129195Y-199864867D01*
X43129529Y-199860818D01*
X43131942Y-199836390D01*
X43132406Y-199832362D01*
X43171395Y-199536807D01*
X43171991Y-199532795D01*
X43175990Y-199508610D01*
X43176716Y-199504627D01*
X43183093Y-199472596D01*
X43183951Y-199468625D01*
X43189535Y-199444699D01*
X43190523Y-199440760D01*
X43227203Y-199304000D01*
X41855929Y-199304000D01*
X41665318Y-199494611D01*
X40253934Y-199494611D01*
X40063323Y-199304000D01*
X38320395Y-199304000D01*
X38129784Y-199494611D01*
X35485500Y-199494611D01*
X35485500Y-198304000D01*
X35505185Y-198236961D01*
X35557989Y-198191206D01*
X35609500Y-198180000D01*
X44933065Y-198180000D01*
X45000104Y-198199685D01*
G37*
G04 #@! TD.AperFunction*
M02*
