G04 #@! TF.GenerationSoftware,KiCad,Pcbnew,9.0.2*
G04 #@! TF.CreationDate,2026-03-17T14:20:44-04:00*
G04 #@! TF.ProjectId,ThumbsUp,5468756d-6273-4557-902e-6b696361645f,rev?*
G04 #@! TF.SameCoordinates,Original*
G04 #@! TF.FileFunction,Profile,NP*
%FSLAX46Y46*%
G04 Gerber Fmt 4.6, Leading zero omitted, Abs format (unit mm)*
G04 Created by KiCad (PCBNEW 9.0.2) date 2026-03-17 14:20:44*
%MOMM*%
%LPD*%
G01*
G04 APERTURE LIST*
G04 #@! TA.AperFunction,Profile*
%ADD10C,0.050000*%
G04 #@! TD*
G04 APERTURE END LIST*
D10*
X96468747Y-230703553D02*
X96468747Y-230203553D01*
X160468300Y-173500000D02*
X161468300Y-173500000D01*
X102968747Y-229703553D02*
X108968747Y-229703553D01*
X127468300Y-169500000D02*
G75*
G02*
X126968300Y-170000000I-500000J0D01*
G01*
X87468300Y-174000000D02*
X81468300Y-174000000D01*
X144968747Y-246203553D02*
G75*
G02*
X144968747Y-244203647I-47J999953D01*
G01*
X132968300Y-174500000D02*
X132900000Y-174500000D01*
X46649340Y-199910660D02*
X47149340Y-199910660D01*
X147968300Y-176000000D02*
G75*
G02*
X148468300Y-175500000I500000J0D01*
G01*
X146700000Y-174000000D02*
G75*
G02*
X147200000Y-173500000I500000J0D01*
G01*
X116214447Y-155500000D02*
G75*
G02*
X122538997Y-156526348I-47J-20000000D01*
G01*
X93468300Y-172500000D02*
G75*
G02*
X93968300Y-173000000I0J-500000D01*
G01*
X138968300Y-178000000D02*
X132968300Y-178000000D01*
X146700000Y-245703553D02*
X146700000Y-245701013D01*
X47168746Y-237382921D02*
X41730899Y-239918630D01*
X128000000Y-239203451D02*
X128000000Y-243211865D01*
X168468300Y-169500000D02*
X168468300Y-246500000D01*
X110968747Y-235203553D02*
X110968747Y-236203550D01*
X41730899Y-239918630D02*
G75*
G02*
X41066415Y-239676795I-211299J453230D01*
G01*
X126968747Y-238203553D02*
X126996555Y-238203457D01*
X54299498Y-215020502D02*
G75*
G02*
X79299998Y-240020502I502J-24999998D01*
G01*
X93968747Y-239703553D02*
X93968747Y-239203553D01*
X120968300Y-170000000D02*
X126968300Y-170000000D01*
X80968300Y-173000000D02*
X80968300Y-173500000D01*
X163468300Y-243202367D02*
G75*
G02*
X161470668Y-245202299I-1999900J-33D01*
G01*
X148468300Y-173500000D02*
X147200000Y-173500000D01*
X138968300Y-178000000D02*
X144968300Y-178000000D01*
X127468747Y-235703553D02*
X127468747Y-235203553D01*
X66684899Y-227179012D02*
X66896210Y-227632165D01*
X126968747Y-234703553D02*
G75*
G02*
X127468747Y-235203553I-47J-500047D01*
G01*
X69639569Y-228647798D02*
G75*
G02*
X69398321Y-229311553I-453469J-210902D01*
G01*
X54902898Y-232673049D02*
X55114207Y-233126202D01*
X114968747Y-236203553D02*
G75*
G02*
X114468747Y-235703553I-47J499953D01*
G01*
X66020438Y-226937166D02*
G75*
G02*
X65175185Y-225124517I-422538J906366D01*
G01*
X102968300Y-165000000D02*
X96968300Y-165000000D01*
X93468747Y-242203553D02*
X94968399Y-242203553D01*
X51972666Y-233487749D02*
G75*
G02*
X51127458Y-231675193I-422666J906249D01*
G01*
X126996555Y-238203457D02*
G75*
G02*
X128000049Y-239203451I3445J-1000043D01*
G01*
X95968399Y-234203553D02*
G75*
G02*
X96968747Y-233203499I1000101J-47D01*
G01*
X93968747Y-239703553D02*
G75*
G02*
X93468747Y-240203547I-499847J-147D01*
G01*
X93968300Y-173000000D02*
X93968300Y-173500000D01*
X160468300Y-175500000D02*
G75*
G02*
X160468300Y-173500000I0J1000000D01*
G01*
X120968747Y-234703553D02*
X114968747Y-234703553D01*
X114968300Y-166500000D02*
G75*
G02*
X112968300Y-164500000I0J2000000D01*
G01*
X144968300Y-176500000D02*
G75*
G02*
X144968300Y-174500000I0J1000000D01*
G01*
X96468300Y-164000000D02*
X96468300Y-164500000D01*
X44150000Y-199080000D02*
X44149340Y-200410660D01*
X95968399Y-241203553D02*
X95968399Y-234203553D01*
X154468747Y-241703553D02*
X148468747Y-241703553D01*
X94468300Y-169500000D02*
G75*
G02*
X93468300Y-170500000I-1000000J0D01*
G01*
X79468401Y-173078401D02*
G75*
G02*
X54468401Y-198080001I-25000001J-1599D01*
G01*
X168468300Y-246500000D02*
G75*
G02*
X163468300Y-251500000I-5000000J0D01*
G01*
X87468747Y-238703553D02*
X93468747Y-238703553D01*
X127468300Y-169000000D02*
X127468300Y-169500000D01*
X148468300Y-177000000D02*
G75*
G02*
X147968300Y-176500000I0J500000D01*
G01*
X120968747Y-234703553D02*
X126968747Y-234703553D01*
X44149340Y-212410660D02*
G75*
G02*
X46149340Y-212410660I1000000J0D01*
G01*
X147968300Y-176000000D02*
X147968300Y-176500000D01*
X39997636Y-236865151D02*
G75*
G02*
X31459997Y-231428203I-2537636J5436951D01*
G01*
X79468300Y-171500000D02*
G75*
G02*
X80468300Y-170500000I1000000J0D01*
G01*
X54299508Y-230195970D02*
X52940045Y-230829897D01*
X132468747Y-243203553D02*
G75*
G02*
X132968747Y-242703547I500153J-147D01*
G01*
X109468300Y-164500000D02*
G75*
G02*
X108968300Y-165000000I-500000J0D01*
G01*
X112968747Y-238203553D02*
X112965194Y-238203547D01*
X108968747Y-233203553D02*
G75*
G02*
X108968747Y-231203647I-47J999953D01*
G01*
X81468300Y-170500000D02*
G75*
G02*
X81468300Y-172500000I0J-1000000D01*
G01*
X109468747Y-230703553D02*
G75*
G02*
X108968747Y-231203547I-499847J-147D01*
G01*
X81468300Y-174000000D02*
G75*
G02*
X80968300Y-173500000I0J500000D01*
G01*
X93468747Y-242203553D02*
G75*
G02*
X93468747Y-240203647I-47J999953D01*
G01*
X73935345Y-239941533D02*
X69186340Y-229741351D01*
X161470668Y-245202366D02*
X160468747Y-245203552D01*
X108968747Y-229703553D02*
G75*
G02*
X109468747Y-230203553I-47J-500047D01*
G01*
X120968300Y-170000000D02*
X114968300Y-170000000D01*
X55778670Y-233368046D02*
G75*
G02*
X55114214Y-233126199I-211270J453246D01*
G01*
X96468300Y-161500000D02*
X96968300Y-161500000D01*
X114968747Y-236203553D02*
G75*
G02*
X114968747Y-238203647I-47J-1000047D01*
G01*
X132968747Y-246203553D02*
X130998722Y-246202714D01*
X130998722Y-246202714D02*
G75*
G02*
X127999986Y-243202714I1278J3000014D01*
G01*
X126968747Y-238203553D02*
G75*
G02*
X126968747Y-236203647I-47J999953D01*
G01*
X108968300Y-161500000D02*
X110968300Y-161500000D01*
X114468747Y-235703553D02*
X114468747Y-235203553D01*
X93968300Y-173500000D02*
G75*
G02*
X93468300Y-174000000I-500000J0D01*
G01*
X87468747Y-238703553D02*
X81468747Y-238703553D01*
X112965194Y-238203547D02*
G75*
G02*
X110968750Y-236203550I3406J1999847D01*
G01*
X147968747Y-242703553D02*
X147968747Y-242203553D01*
X163468300Y-164500000D02*
G75*
G02*
X168468300Y-169500000I0J-5000000D01*
G01*
X96968300Y-165000000D02*
G75*
G02*
X96468300Y-164500000I0J500000D01*
G01*
X47649340Y-212410660D02*
G75*
G02*
X47149340Y-212910740I-500040J-40D01*
G01*
X108968300Y-163500000D02*
G75*
G02*
X108968300Y-161500000I0J1000000D01*
G01*
X147968747Y-242203553D02*
G75*
G02*
X148468747Y-241703547I500153J-147D01*
G01*
X160968747Y-242703553D02*
G75*
G02*
X160468747Y-243203547I-499847J-147D01*
G01*
X87468300Y-174000000D02*
X93468300Y-174000000D01*
X45149314Y-215020686D02*
X54299498Y-215020502D01*
X47649340Y-206410660D02*
X47649340Y-200410660D01*
X126968300Y-168500000D02*
G75*
G02*
X127468300Y-169000000I0J-500000D01*
G01*
X114968300Y-166500000D02*
G75*
G02*
X114968300Y-168500000I0J-1000000D01*
G01*
X114468300Y-169000000D02*
X114468300Y-169500000D01*
X61216517Y-230832338D02*
X66654363Y-228296628D01*
X148468747Y-243203553D02*
G75*
G02*
X148468747Y-245203647I-47J-1000047D01*
G01*
X160968300Y-176000000D02*
X160968300Y-176500000D01*
X95968399Y-241203553D02*
G75*
G02*
X94968399Y-242203499I-999899J-47D01*
G01*
X46149340Y-200410660D02*
G75*
G02*
X44149340Y-200410660I-1000000J0D01*
G01*
X94468300Y-169500000D02*
X94468300Y-163500000D01*
X44149340Y-212410660D02*
X44150000Y-214020686D01*
X154468300Y-177000000D02*
X160468300Y-177000000D01*
X114468747Y-235203553D02*
G75*
G02*
X114968747Y-234703547I500153J-147D01*
G01*
X79300000Y-240020502D02*
X79300000Y-241203553D01*
X54299508Y-230195970D02*
G75*
G02*
X55144788Y-232008678I422692J-906330D01*
G01*
X146700000Y-245703553D02*
G75*
G02*
X146200000Y-246203500I-499900J-47D01*
G01*
X54902898Y-232673049D02*
G75*
G02*
X55144748Y-232008593I453302J211249D01*
G01*
X144968747Y-242703553D02*
G75*
G02*
X145468747Y-243203553I-47J-500047D01*
G01*
X160968747Y-242703553D02*
X160968747Y-242203553D01*
X145100000Y-174500000D02*
X146200000Y-174500000D01*
X80300000Y-242203553D02*
G75*
G02*
X79300047Y-241203553I0J999953D01*
G01*
X145468300Y-177000000D02*
X145468300Y-177500000D01*
X96468300Y-164000000D02*
G75*
G02*
X96968300Y-163500000I500000J0D01*
G01*
X148468747Y-243203553D02*
G75*
G02*
X147968747Y-242703553I-47J499953D01*
G01*
X47168746Y-237382921D02*
X52606593Y-234847212D01*
X65175201Y-225124552D02*
X66594611Y-224468482D01*
X161468300Y-173500000D02*
G75*
G02*
X163468300Y-175500000I0J-2000000D01*
G01*
X112968300Y-163500000D02*
X112968300Y-164500000D01*
X94468300Y-163500000D02*
G75*
G02*
X96468300Y-161500000I2000000J0D01*
G01*
X132968300Y-174500000D02*
G75*
G02*
X132968300Y-176500000I0J-1000000D01*
G01*
X144968300Y-176500000D02*
G75*
G02*
X145468300Y-177000000I0J-500000D01*
G01*
X69186339Y-229741351D02*
G75*
G02*
X69331071Y-229343062I271861J126651D01*
G01*
X145468747Y-243703553D02*
X145468747Y-243203553D01*
X66020438Y-226937166D02*
G75*
G02*
X66684912Y-227179006I211362J-453034D01*
G01*
X154468747Y-241703553D02*
X160468747Y-241703553D01*
X163468300Y-175500000D02*
X163468300Y-243202367D01*
X132468747Y-243703553D02*
X132468747Y-243203553D01*
X126968300Y-168500000D02*
G75*
G02*
X126968300Y-166500000I0J1000000D01*
G01*
X160468300Y-175500000D02*
G75*
G02*
X160968300Y-176000000I0J-500000D01*
G01*
X52637128Y-233729594D02*
X52848439Y-234182748D01*
X96468747Y-230203553D02*
G75*
G02*
X96968747Y-229703547I500153J-147D01*
G01*
X144968300Y-174500000D02*
X145100000Y-174500000D01*
X130900000Y-166500000D02*
G75*
G02*
X131900000Y-167500000I0J-1000000D01*
G01*
X46649340Y-212910660D02*
G75*
G02*
X46149340Y-212410660I-40J499960D01*
G01*
X96968700Y-231203553D02*
G75*
G02*
X96968747Y-233203647I0J-1000047D01*
G01*
X144968747Y-246203553D02*
X146200000Y-246203553D01*
X47149340Y-199910660D02*
G75*
G02*
X47649340Y-200410660I-40J-500040D01*
G01*
X132968300Y-178000000D02*
G75*
G02*
X132468300Y-177500000I0J500000D01*
G01*
X132900000Y-174500000D02*
G75*
G02*
X131900000Y-173500000I0J1000000D01*
G01*
X40251736Y-236746553D02*
X39997636Y-236865151D01*
X138968747Y-242703553D02*
X132968747Y-242703553D01*
X110968300Y-161500000D02*
G75*
G02*
X112968300Y-163500000I0J-2000000D01*
G01*
X54468401Y-198080000D02*
X45150000Y-198080000D01*
X40855127Y-239223631D02*
X41066437Y-239676785D01*
X79468300Y-171500000D02*
X79468401Y-173078401D01*
X81468747Y-242203553D02*
X80300000Y-242203553D01*
X46649340Y-212910660D02*
X47149340Y-212910660D01*
X132968747Y-244203553D02*
G75*
G02*
X132468747Y-243703553I-47J499953D01*
G01*
X40251736Y-236746552D02*
G75*
G02*
X41096984Y-238559192I422564J-906348D01*
G01*
X81468747Y-240203553D02*
G75*
G02*
X81468747Y-242203647I-47J-1000047D01*
G01*
X102968747Y-229703553D02*
X96968747Y-229703553D01*
X160468747Y-241703553D02*
G75*
G02*
X160968747Y-242203553I-47J-500047D01*
G01*
X66594611Y-224468482D02*
G75*
G02*
X67920799Y-224954314I419589J-907618D01*
G01*
X109468747Y-230703553D02*
X109468747Y-230203553D01*
X114968300Y-170000000D02*
G75*
G02*
X114468300Y-169500000I0J500000D01*
G01*
X51972666Y-233487749D02*
G75*
G02*
X52637125Y-233729595I211234J-453351D01*
G01*
X31460000Y-160500000D02*
G75*
G02*
X36460000Y-155500000I5000000J0D01*
G01*
X51127430Y-231675133D02*
X52940045Y-230829897D01*
X92066548Y-251499999D02*
G75*
G02*
X73935342Y-239941534I2J20000009D01*
G01*
X114468300Y-169000000D02*
G75*
G02*
X114968300Y-168500000I500000J0D01*
G01*
X151328300Y-164500000D02*
X154460000Y-164500000D01*
X148468300Y-173500000D02*
G75*
G02*
X148468300Y-175500000I0J-1000000D01*
G01*
X132968747Y-244203553D02*
G75*
G02*
X132968747Y-246203647I-47J-1000047D01*
G01*
X145468747Y-243703553D02*
G75*
G02*
X144968747Y-244203547I-499847J-147D01*
G01*
X114968747Y-238203553D02*
X112968747Y-238203553D01*
X66896210Y-227632165D02*
G75*
G02*
X66654369Y-228296641I-453110J-211335D01*
G01*
X47649340Y-206410660D02*
X47649340Y-212410660D01*
X138968747Y-242703553D02*
X144968747Y-242703553D01*
X80968747Y-239203553D02*
G75*
G02*
X81468747Y-238703547I500153J-147D01*
G01*
X52848439Y-234182748D02*
G75*
G02*
X52606599Y-234847224I-453339J-211252D01*
G01*
X36460000Y-155500000D02*
X116214447Y-155500000D01*
X69331064Y-229343046D02*
X69398318Y-229311547D01*
X108968747Y-233203553D02*
G75*
G02*
X110968747Y-235203553I-47J-2000047D01*
G01*
X127468747Y-235703553D02*
G75*
G02*
X126968747Y-236203547I-499847J-147D01*
G01*
X154460000Y-164500000D02*
X163460000Y-164500000D01*
X46149340Y-200410660D02*
G75*
G02*
X46649340Y-199910740I499960J-40D01*
G01*
X145468300Y-177500000D02*
G75*
G02*
X144968300Y-178000000I-500000J0D01*
G01*
X80968300Y-173000000D02*
G75*
G02*
X81468300Y-172500000I500000J0D01*
G01*
X109468300Y-164000000D02*
X109468300Y-164500000D01*
X146700000Y-245701013D02*
G75*
G02*
X147201012Y-245201001I500000J13D01*
G01*
X40855127Y-239223631D02*
G75*
G02*
X41096977Y-238559177I453073J211331D01*
G01*
X93468747Y-238703553D02*
G75*
G02*
X93968747Y-239203553I-47J-500047D01*
G01*
X122539002Y-156526334D02*
X141841497Y-162960499D01*
X45149314Y-215020686D02*
G75*
G02*
X44150014Y-214020686I686J999986D01*
G01*
X31460000Y-231428203D02*
X31460000Y-160500000D01*
X67920815Y-224954306D02*
X69639569Y-228647798D01*
X146700000Y-174000000D02*
G75*
G02*
X146200000Y-174500000I-500000J0D01*
G01*
X81468747Y-240203553D02*
G75*
G02*
X80968747Y-239703553I-47J499953D01*
G01*
X44150000Y-199080000D02*
G75*
G02*
X45150000Y-198080000I1000000J0D01*
G01*
X102968300Y-165000000D02*
X108968300Y-165000000D01*
X132468300Y-177000000D02*
G75*
G02*
X132968300Y-176500000I500000J0D01*
G01*
X81468300Y-170500000D02*
X80468300Y-170500000D01*
X93468300Y-172500000D02*
G75*
G02*
X93468300Y-170500000I0J1000000D01*
G01*
X147201012Y-245201014D02*
X148478291Y-245203601D01*
X160968300Y-176500000D02*
G75*
G02*
X160468300Y-177000000I-500000J0D01*
G01*
X61216517Y-230832338D02*
X55778670Y-233368046D01*
X108968300Y-163500000D02*
G75*
G02*
X109468300Y-164000000I0J-500000D01*
G01*
X154468300Y-177000000D02*
X148468300Y-177000000D01*
X80968747Y-239703553D02*
X80968747Y-239203553D01*
X131900000Y-173500000D02*
X131900000Y-167500000D01*
X160468747Y-245203553D02*
G75*
G02*
X160468747Y-243203647I-47J999953D01*
G01*
X151328330Y-164500000D02*
G75*
G02*
X141841496Y-162960503I-30J29999900D01*
G01*
X132468300Y-177000000D02*
X132468300Y-177500000D01*
X96968300Y-161500000D02*
G75*
G02*
X96968300Y-163500000I0J-1000000D01*
G01*
X92066548Y-251499999D02*
X163468300Y-251500000D01*
X96968747Y-231203553D02*
G75*
G02*
X96468747Y-230703553I-47J499953D01*
G01*
X126968300Y-166500000D02*
X130900000Y-166500000D01*
M02*
