M48
; DRILL file {KiCad 9.0.2} date 2026-01-01T18:18:48-0500
; FORMAT={-:-/ absolute / metric / decimal}
; #@! TF.CreationDate,2026-01-01T18:18:48-05:00
; #@! TF.GenerationSoftware,Kicad,Pcbnew,9.0.2
; #@! TF.FileFunction,Plated,1,2,PTH
FMAT,2
METRIC
; #@! TA.AperFunction,Plated,PTH,ViaDrill
T1C0.400
; #@! TA.AperFunction,Plated,PTH,ComponentDrill
T2C0.600
; #@! TA.AperFunction,Plated,PTH,ComponentDrill
T3C1.000
; #@! TA.AperFunction,Plated,PTH,ComponentDrill
T4C1.100
; #@! TA.AperFunction,Plated,PTH,ComponentDrill
T5C1.194
; #@! TA.AperFunction,Plated,PTH,ComponentDrill
T6C3.500
; #@! TA.AperFunction,Plated,PTH,ComponentDrill
T7C4.500
%
G90
G05
T1
X44.0Y-49.25
X54.0Y-54.0
X55.0Y-56.0
X56.25Y-57.25
X57.75Y-57.5
X64.5Y-58.25
X66.0Y-54.5
X71.75Y-51.25
T3
X39.6Y-32.4
X39.6Y-34.94
X39.6Y-37.48
X39.6Y-40.02
X51.037Y-86.467
X53.339Y-85.393
X55.641Y-84.32
X57.943Y-83.246
X83.68Y-101.0
X86.22Y-101.0
X88.76Y-101.0
X91.3Y-101.0
X99.16Y-23.0
X101.7Y-23.0
X104.24Y-23.0
X106.78Y-23.0
X132.72Y-101.0
X135.26Y-101.0
X137.8Y-101.0
X140.34Y-101.0
X148.38Y-29.0
X150.92Y-29.0
X153.46Y-29.0
X156.0Y-29.0
X164.5Y-59.4
X164.5Y-61.94
X164.5Y-64.48
X164.5Y-67.02
T4
X52.06Y-24.96
X52.06Y-27.5
X52.06Y-30.04
X52.06Y-32.58
X52.06Y-35.12
X52.06Y-37.66
X52.06Y-40.2
X52.06Y-42.74
X52.06Y-45.28
X52.06Y-47.82
X52.06Y-50.36
X52.06Y-52.9
X67.3Y-24.96
X67.3Y-27.5
X67.3Y-30.04
X67.3Y-32.58
X67.3Y-35.12
X67.3Y-37.66
X67.3Y-40.2
X67.3Y-42.74
X67.3Y-45.28
X67.3Y-47.82
X67.3Y-50.36
X67.3Y-52.9
T5
X47.697Y-99.074
X49.329Y-96.658
X51.476Y-101.262
X52.229Y-96.961
X53.623Y-105.866
X54.193Y-66.407
X55.693Y-63.907
X55.693Y-68.907
X59.273Y-66.407
X61.745Y-92.523
X63.377Y-90.107
X64.353Y-66.407
X65.524Y-94.711
X66.276Y-90.41
X67.671Y-99.315
X85.0Y-42.0
X85.0Y-90.66
X87.5Y-40.5
X87.5Y-45.58
X87.5Y-50.66
X87.5Y-82.0
X87.5Y-87.08
X87.5Y-92.16
X90.0Y-42.0
X90.0Y-90.66
X100.5Y-33.0
X100.5Y-81.66
X103.0Y-31.5
X103.0Y-36.58
X103.0Y-41.66
X103.0Y-73.0
X103.0Y-78.08
X103.0Y-83.16
X105.5Y-33.0
X105.5Y-81.66
X118.5Y-38.0
X118.5Y-86.66
X121.0Y-36.5
X121.0Y-41.58
X121.0Y-46.66
X121.0Y-78.0
X121.0Y-83.08
X121.0Y-88.16
X123.5Y-38.0
X123.5Y-86.66
X134.0Y-43.0
X134.0Y-91.66
X136.5Y-41.5
X136.5Y-46.58
X136.5Y-51.66
X136.5Y-83.0
X136.5Y-88.08
X136.5Y-93.16
X139.0Y-43.0
X139.0Y-91.66
X149.5Y-39.0
X149.5Y-87.66
X152.0Y-37.5
X152.0Y-42.58
X152.0Y-47.66
X152.0Y-79.0
X152.0Y-84.08
X152.0Y-89.16
X154.5Y-39.0
X154.5Y-87.66
T6
X42.9Y-66.4
X85.8Y-28.2
X103.1Y-95.3
X134.9Y-31.7
X152.0Y-98.6
T7
X93.6Y-65.1
T2
G00X42.56Y-26.09
M15
G01X42.56Y-26.69
M16
G05
G00X42.56Y-29.09
M15
G01X42.56Y-29.69
M16
G05
G00X42.56Y-33.09
M15
G01X42.56Y-33.69
M16
G05
G00X44.73Y-34.17
M15
G01X44.73Y-34.77
M16
G05
G00X47.16Y-34.19
M15
G01X47.16Y-34.79
M16
G05
G00X49.33Y-26.07
M15
G01X49.33Y-26.67
M16
G05
G00X49.33Y-29.07
M15
G01X49.33Y-29.67
M16
G05
G00X49.33Y-33.07
M15
G01X49.33Y-33.67
M16
G05
M30
