M48
; DRILL file {KiCad 9.0.2} date 2026-03-17T14:17:33-0400
; FORMAT={-:-/ absolute / metric / decimal}
; #@! TF.CreationDate,2026-03-17T14:17:33-04:00
; #@! TF.GenerationSoftware,Kicad,Pcbnew,9.0.2
; #@! TF.FileFunction,Plated,1,2,PTH
FMAT,2
METRIC
; #@! TA.AperFunction,Plated,PTH,ViaDrill
T1C0.400
; #@! TA.AperFunction,Plated,PTH,ComponentDrill
T2C0.600
; #@! TA.AperFunction,Plated,PTH,ComponentDrill
T3C1.000
; #@! TA.AperFunction,Plated,PTH,ComponentDrill
T4C1.100
; #@! TA.AperFunction,Plated,PTH,ComponentDrill
T5C1.194
; #@! TA.AperFunction,Plated,PTH,ComponentDrill
T6C3.500
; #@! TA.AperFunction,Plated,PTH,ComponentDrill
T7C4.500
%
G90
G05
T1
X35.2Y-46.35
X39.5Y-47.3
X40.0Y-41.7
X42.603Y-47.297
X47.0Y-64.3
X47.6Y-45.4
X47.768Y-65.978
X48.46Y-36.56
X48.5Y-43.05
X48.7Y-66.527
X49.25Y-43.85
X49.6Y-66.804
X50.7Y-67.2
X51.1Y-42.15
X52.1Y-44.4
X52.337Y-47.587
X53.887Y-51.087
X55.287Y-47.487
X59.5Y-67.181
X63.0Y-67.4
X63.8Y-62.223
X64.777Y-61.839
X65.446Y-61.029
X66.324Y-60.453
X67.196Y-59.869
X67.96Y-59.149
X68.757Y-58.465
X72.0Y-27.98
X72.4Y-31.98
X77.4Y-68.05
X78.45Y-72.45
X82.15Y-61.5
X97.6Y-61.4
X103.412Y-66.858
X115.41Y-62.377
X122.62Y-68.43
X134.03Y-62.05
X136.55Y-66.4
X148.19Y-61.14
X148.2Y-64.7
T3
X33.6Y-31.4
X33.6Y-33.94
X33.6Y-36.48
X33.6Y-39.02
X49.037Y-97.467
X51.339Y-96.393
X53.641Y-95.32
X55.943Y-94.246
X83.68Y-117.0
X86.22Y-117.0
X88.76Y-117.0
X91.3Y-117.0
X109.16Y-27.0
X111.7Y-27.0
X114.24Y-27.0
X116.78Y-27.0
X131.22Y-120.0
X133.76Y-120.0
X136.3Y-120.0
X138.84Y-120.0
X155.88Y-36.0
X158.42Y-36.0
X160.96Y-36.0
X163.5Y-36.0
X167.0Y-72.4
X167.0Y-74.94
X167.0Y-77.48
X167.0Y-80.02
T4
X46.06Y-28.94
X46.06Y-31.48
X46.06Y-34.02
X46.06Y-36.56
X46.06Y-39.1
X46.06Y-41.64
X46.06Y-44.18
X46.06Y-46.72
X46.06Y-49.26
X46.06Y-51.8
X46.06Y-54.34
X46.06Y-56.88
X61.3Y-28.94
X61.3Y-31.48
X61.3Y-34.02
X61.3Y-36.56
X61.3Y-39.1
X61.3Y-41.64
X61.3Y-44.18
X61.3Y-46.72
X61.3Y-49.26
X61.3Y-51.8
X61.3Y-54.34
X61.3Y-56.88
T5
X45.697Y-110.074
X47.329Y-107.658
X48.193Y-76.407
X49.476Y-112.262
X49.693Y-73.907
X49.693Y-78.907
X50.229Y-107.961
X51.623Y-116.866
X53.273Y-76.407
X58.353Y-76.407
X59.745Y-103.523
X61.377Y-101.107
X63.524Y-105.711
X64.276Y-101.41
X65.671Y-110.315
X85.0Y-46.0
X85.0Y-106.66
X87.5Y-44.5
X87.5Y-49.58
X87.5Y-54.66
X87.5Y-98.0
X87.5Y-103.08
X87.5Y-108.16
X90.0Y-46.0
X90.0Y-106.66
X100.5Y-37.0
X100.5Y-97.66
X103.0Y-35.5
X103.0Y-40.58
X103.0Y-45.66
X103.0Y-89.0
X103.0Y-94.08
X103.0Y-99.16
X105.5Y-37.0
X105.5Y-97.66
X118.5Y-42.0
X118.5Y-102.66
X121.0Y-40.5
X121.0Y-45.58
X121.0Y-50.66
X121.0Y-94.0
X121.0Y-99.08
X121.0Y-104.16
X123.5Y-42.0
X123.5Y-102.66
X136.5Y-50.0
X136.5Y-110.66
X139.0Y-48.5
X139.0Y-53.58
X139.0Y-58.66
X139.0Y-102.0
X139.0Y-107.08
X139.0Y-112.16
X141.5Y-50.0
X141.5Y-110.66
X152.0Y-49.0
X152.0Y-109.66
X154.5Y-47.5
X154.5Y-52.58
X154.5Y-57.66
X154.5Y-101.0
X154.5Y-106.08
X154.5Y-111.16
X157.0Y-49.0
X157.0Y-109.66
T6
X36.9Y-76.4
X85.8Y-32.2
X111.1Y-114.3
X137.4Y-38.7
X164.5Y-117.6
T7
X93.6Y-75.1
T2
G00X36.56Y-30.09
M15
G01X36.56Y-30.69
M16
G05
G00X36.56Y-33.09
M15
G01X36.56Y-33.69
M16
G05
G00X36.56Y-37.09
M15
G01X36.56Y-37.69
M16
G05
G00X38.73Y-38.17
M15
G01X38.73Y-38.77
M16
G05
G00X41.16Y-38.19
M15
G01X41.16Y-38.79
M16
G05
G00X43.33Y-30.07
M15
G01X43.33Y-30.67
M16
G05
G00X43.33Y-33.07
M15
G01X43.33Y-33.67
M16
G05
G00X43.33Y-37.07
M15
G01X43.33Y-37.67
M16
G05
M30
