M48
; DRILL file {KiCad 9.0.2} date 2026-07-21T19:59:17-0400
; FORMAT={-:-/ absolute / metric / decimal}
; #@! TF.CreationDate,2026-07-21T19:59:17-04:00
; #@! TF.GenerationSoftware,Kicad,Pcbnew,9.0.2
; #@! TF.FileFunction,Plated,1,2,PTH
FMAT,2
METRIC
; #@! TA.AperFunction,Plated,PTH,ViaDrill
T1C0.400
; #@! TA.AperFunction,Plated,PTH,ComponentDrill
T2C0.600
; #@! TA.AperFunction,Plated,PTH,ComponentDrill
T3C1.100
; #@! TA.AperFunction,Plated,PTH,ComponentDrill
T4C1.194
; #@! TA.AperFunction,Plated,PTH,ComponentDrill
T5C3.500
; #@! TA.AperFunction,Plated,PTH,ComponentDrill
T6C4.500
%
G90
G05
T1
X41.75Y-46.5
X44.5Y-47.25
X47.5Y-50.25
X47.75Y-46.0
X47.75Y-41.175
X49.0Y-67.5
X50.5Y-44.5
X51.376Y-61.0
X52.25Y-60.5
X53.042Y-60.0
X53.9Y-59.5
X58.0Y-48.25
X59.13Y-66.81
X59.25Y-43.75
X59.25Y-45.75
X59.734Y-59.655
X59.75Y-49.0
X60.0Y-36.0
X61.0Y-46.75
X61.377Y-67.25
X62.75Y-51.087
X64.337Y-48.0
X66.0Y-36.0
X66.0Y-44.5
X66.0Y-46.75
X68.25Y-60.85
X72.3Y-61.5
X72.3Y-65.6
X73.0Y-35.0
X73.2Y-60.9
X74.06Y-60.197
X74.873Y-59.527
X75.677Y-58.899
X75.95Y-64.25
X76.5Y-58.3
X77.4Y-57.7
X78.45Y-72.45
X79.55Y-69.55
X81.25Y-35.1
X81.3Y-45.7
X82.15Y-61.5
X84.9Y-41.95
X97.6Y-61.4
X103.412Y-66.858
X115.41Y-62.377
X122.62Y-68.43
X133.416Y-61.805
X136.55Y-67.05
X150.36Y-66.3
X150.5Y-61.0
T3
X55.06Y-28.94
X55.06Y-31.48
X55.06Y-34.02
X55.06Y-36.56
X55.06Y-39.1
X55.06Y-41.64
X55.06Y-44.18
X55.06Y-46.72
X55.06Y-49.26
X55.06Y-51.8
X55.06Y-54.34
X55.06Y-56.88
X70.3Y-28.94
X70.3Y-31.48
X70.3Y-34.02
X70.3Y-36.56
X70.3Y-39.1
X70.3Y-41.64
X70.3Y-44.18
X70.3Y-46.72
X70.3Y-49.26
X70.3Y-51.8
X70.3Y-54.34
X70.3Y-56.88
T4
X48.193Y-76.407
X49.693Y-73.907
X49.693Y-78.907
X49.866Y-103.957
X51.893Y-101.861
X53.207Y-106.768
X53.257Y-113.061
X53.273Y-76.407
X54.522Y-111.675
X54.696Y-102.663
X55.757Y-104.401
X55.757Y-109.481
X55.757Y-114.561
X58.257Y-113.061
X58.353Y-76.407
X64.838Y-99.945
X66.864Y-97.849
X68.179Y-102.756
X68.757Y-113.061
X69.494Y-107.663
X69.668Y-98.651
X71.257Y-104.401
X71.257Y-109.481
X71.257Y-114.561
X73.757Y-113.061
X85.0Y-46.0
X85.0Y-106.66
X87.5Y-44.5
X87.5Y-49.58
X87.5Y-54.66
X87.5Y-98.0
X87.5Y-103.08
X87.5Y-108.16
X90.0Y-46.0
X90.0Y-106.66
X100.5Y-37.0
X100.5Y-97.66
X103.0Y-35.5
X103.0Y-40.58
X103.0Y-45.66
X103.0Y-89.0
X103.0Y-94.08
X103.0Y-99.16
X105.5Y-37.0
X105.5Y-97.66
X118.5Y-42.0
X118.5Y-102.66
X121.0Y-40.5
X121.0Y-45.58
X121.0Y-50.66
X121.0Y-94.0
X121.0Y-99.08
X121.0Y-104.16
X123.5Y-42.0
X123.5Y-102.66
X136.5Y-50.0
X136.5Y-110.66
X139.0Y-48.5
X139.0Y-53.58
X139.0Y-58.66
X139.0Y-102.0
X139.0Y-107.08
X139.0Y-112.16
X141.5Y-50.0
X141.5Y-110.66
X152.0Y-50.0
X152.0Y-110.66
X154.5Y-48.5
X154.5Y-53.58
X154.5Y-58.66
X154.5Y-102.0
X154.5Y-107.08
X154.5Y-112.16
X157.0Y-50.0
X157.0Y-110.66
T5
X39.1Y-76.4
X39.6Y-29.41
X49.521Y-92.983
X54.29Y-131.66
X55.757Y-123.85
X64.46Y-88.877
X71.25Y-123.75
X87.468Y-35.45
X87.468Y-117.2
X102.968Y-26.45
X102.968Y-108.2
X120.968Y-31.45
X120.968Y-113.2
X139.118Y-39.45
X139.118Y-121.2
X154.468Y-39.45
X154.468Y-121.2
T6
X93.6Y-75.1
T2
G00X45.76Y-30.09
M15
G01X45.76Y-30.69
M16
G05
G00X45.76Y-33.09
M15
G01X45.76Y-33.69
M16
G05
G00X45.76Y-37.09
M15
G01X45.76Y-37.69
M16
G05
G00X47.93Y-38.17
M15
G01X47.93Y-38.77
M16
G05
G00X50.36Y-38.19
M15
G01X50.36Y-38.79
M16
G05
G00X52.53Y-30.07
M15
G01X52.53Y-30.67
M16
G05
G00X52.53Y-33.07
M15
G01X52.53Y-33.67
M16
G05
G00X52.53Y-37.07
M15
G01X52.53Y-37.67
M16
G05
M30
