M48
; DRILL file {KiCad 9.0.2} date 2026-01-27T16:36:27-0500
; FORMAT={-:-/ absolute / metric / decimal}
; #@! TF.CreationDate,2026-01-27T16:36:27-05:00
; #@! TF.GenerationSoftware,Kicad,Pcbnew,9.0.2
; #@! TF.FileFunction,Plated,1,2,PTH
FMAT,2
METRIC
; #@! TA.AperFunction,Plated,PTH,ViaDrill
T1C0.400
; #@! TA.AperFunction,Plated,PTH,ComponentDrill
T2C0.600
; #@! TA.AperFunction,Plated,PTH,ComponentDrill
T3C1.000
; #@! TA.AperFunction,Plated,PTH,ComponentDrill
T4C1.100
; #@! TA.AperFunction,Plated,PTH,ComponentDrill
T5C1.194
; #@! TA.AperFunction,Plated,PTH,ComponentDrill
T6C3.500
; #@! TA.AperFunction,Plated,PTH,ComponentDrill
T7C4.500
%
G90
G05
T1
X47.0Y-47.0
X57.0Y-32.75
X68.5Y-37.0
X74.0Y-48.5
X75.0Y-50.0
X76.363Y-51.887
X77.632Y-53.618
T3
X42.6Y-35.4
X42.6Y-37.94
X42.6Y-40.48
X42.6Y-43.02
X55.192Y-84.944
X57.694Y-84.503
X60.195Y-84.062
X62.697Y-83.621
X83.68Y-101.0
X86.22Y-101.0
X88.76Y-101.0
X91.3Y-101.0
X109.16Y-26.0
X111.7Y-26.0
X114.24Y-26.0
X116.78Y-26.0
X125.22Y-110.0
X127.76Y-110.0
X130.3Y-110.0
X132.84Y-110.0
X155.38Y-35.0
X157.92Y-35.0
X160.46Y-35.0
X163.0Y-35.0
X167.0Y-68.4
X167.0Y-70.94
X167.0Y-73.48
X167.0Y-76.02
T4
X55.06Y-27.96
X55.06Y-30.5
X55.06Y-33.04
X55.06Y-35.58
X55.06Y-38.12
X55.06Y-40.66
X55.06Y-43.2
X55.06Y-45.74
X55.06Y-48.28
X55.06Y-50.82
X55.06Y-53.36
X55.06Y-55.9
X70.3Y-27.96
X70.3Y-30.5
X70.3Y-33.04
X70.3Y-35.58
X70.3Y-38.12
X70.3Y-40.66
X70.3Y-43.2
X70.3Y-45.74
X70.3Y-48.28
X70.3Y-50.82
X70.3Y-53.36
X70.3Y-55.9
T5
X48.703Y-96.257
X50.905Y-94.346
X51.787Y-99.349
X52.669Y-104.351
X53.627Y-95.389
X54.193Y-66.407
X55.693Y-63.907
X55.693Y-68.907
X59.273Y-66.407
X63.968Y-93.566
X64.353Y-66.407
X66.169Y-91.654
X67.051Y-96.657
X67.934Y-101.66
X68.892Y-92.697
X85.0Y-42.0
X85.0Y-90.66
X87.5Y-40.5
X87.5Y-45.58
X87.5Y-50.66
X87.5Y-82.0
X87.5Y-87.08
X87.5Y-92.16
X90.0Y-42.0
X90.0Y-90.66
X100.5Y-39.0
X100.5Y-87.66
X103.0Y-37.5
X103.0Y-42.58
X103.0Y-47.66
X103.0Y-79.0
X103.0Y-84.08
X103.0Y-89.16
X105.5Y-39.0
X105.5Y-87.66
X118.5Y-44.0
X118.5Y-92.66
X121.0Y-42.5
X121.0Y-47.58
X121.0Y-52.66
X121.0Y-84.0
X121.0Y-89.08
X121.0Y-94.16
X123.5Y-44.0
X123.5Y-92.66
X136.5Y-49.0
X136.5Y-97.66
X139.0Y-47.5
X139.0Y-52.58
X139.0Y-57.66
X139.0Y-89.0
X139.0Y-94.08
X139.0Y-99.16
X141.5Y-49.0
X141.5Y-97.66
X152.0Y-48.0
X152.0Y-96.66
X154.5Y-46.5
X154.5Y-51.58
X154.5Y-56.66
X154.5Y-88.0
X154.5Y-93.08
X154.5Y-98.16
X157.0Y-48.0
X157.0Y-96.66
T6
X44.4Y-66.4
X87.6Y-29.7
X103.1Y-101.3
X137.4Y-37.7
X164.0Y-107.6
T7
X93.6Y-71.1
T2
G00X45.56Y-29.09
M15
G01X45.56Y-29.69
M16
G05
G00X45.56Y-32.09
M15
G01X45.56Y-32.69
M16
G05
G00X45.56Y-36.09
M15
G01X45.56Y-36.69
M16
G05
G00X47.73Y-37.17
M15
G01X47.73Y-37.77
M16
G05
G00X50.16Y-37.19
M15
G01X50.16Y-37.79
M16
G05
G00X52.33Y-29.07
M15
G01X52.33Y-29.67
M16
G05
G00X52.33Y-32.07
M15
G01X52.33Y-32.67
M16
G05
G00X52.33Y-36.07
M15
G01X52.33Y-36.67
M16
G05
M30
