M48
; DRILL file {KiCad 9.0.2} date 2025-12-10T20:56:22-0500
; FORMAT={-:-/ absolute / metric / decimal}
; #@! TF.CreationDate,2025-12-10T20:56:22-05:00
; #@! TF.GenerationSoftware,Kicad,Pcbnew,9.0.2
; #@! TF.FileFunction,Plated,1,2,PTH
FMAT,2
METRIC
; #@! TA.AperFunction,Plated,PTH,ComponentDrill
T1C0.600
; #@! TA.AperFunction,Plated,PTH,ComponentDrill
T2C1.000
; #@! TA.AperFunction,Plated,PTH,ComponentDrill
T3C1.100
; #@! TA.AperFunction,Plated,PTH,ComponentDrill
T4C1.194
; #@! TA.AperFunction,Plated,PTH,ComponentDrill
T5C3.500
%
G90
G05
T2
X26.6Y-47.4
X26.6Y-49.94
X26.6Y-52.48
X26.6Y-55.02
X32.028Y-93.44
X32.685Y-95.893
X33.343Y-98.347
X34.0Y-100.8
X57.464Y-111.923
X59.918Y-111.265
X62.371Y-110.608
X64.824Y-109.95
X99.16Y-23.0
X101.7Y-23.0
X104.24Y-23.0
X106.78Y-23.0
X143.32Y-101.0
X145.86Y-101.0
X148.4Y-101.0
X150.94Y-101.0
X153.38Y-29.0
X155.92Y-29.0
X158.46Y-29.0
X161.0Y-29.0
X169.5Y-59.4
X169.5Y-61.94
X169.5Y-64.48
X169.5Y-67.02
T3
X39.88Y-32.03
X39.88Y-34.57
X39.88Y-37.11
X39.88Y-39.65
X39.88Y-42.19
X39.88Y-44.73
X39.88Y-47.27
X39.88Y-49.81
X39.88Y-52.35
X39.88Y-54.89
X39.88Y-57.43
X39.88Y-59.97
X55.12Y-32.03
X55.12Y-34.57
X55.12Y-37.11
X55.12Y-39.65
X55.12Y-42.19
X55.12Y-44.73
X55.12Y-47.27
X55.12Y-49.81
X55.12Y-52.35
X55.12Y-54.89
X55.12Y-57.43
X55.12Y-59.97
T4
X48.087Y-104.067
X48.26Y-95.056
X49.575Y-99.962
X50.89Y-104.869
X52.916Y-102.773
X64.5Y-47.0
X65.473Y-99.409
X65.647Y-90.397
X66.962Y-95.304
X67.0Y-45.5
X67.0Y-50.58
X67.0Y-55.66
X68.276Y-100.211
X69.5Y-47.0
X70.303Y-98.115
X82.5Y-42.0
X82.5Y-90.66
X85.0Y-40.5
X85.0Y-45.58
X85.0Y-50.66
X85.0Y-82.0
X85.0Y-87.08
X85.0Y-92.16
X87.5Y-42.0
X87.5Y-90.66
X100.5Y-33.0
X100.5Y-81.66
X103.0Y-31.5
X103.0Y-36.58
X103.0Y-41.66
X103.0Y-73.0
X103.0Y-78.08
X103.0Y-83.16
X105.5Y-33.0
X105.5Y-81.66
X118.5Y-38.0
X118.5Y-86.66
X121.0Y-36.5
X121.0Y-41.58
X121.0Y-46.66
X121.0Y-78.0
X121.0Y-83.08
X121.0Y-88.16
X123.5Y-38.0
X123.5Y-86.66
X136.5Y-43.0
X136.5Y-91.66
X139.0Y-41.5
X139.0Y-46.58
X139.0Y-51.66
X139.0Y-83.0
X139.0Y-88.08
X139.0Y-93.16
X141.5Y-43.0
X141.5Y-91.66
X154.5Y-39.0
X154.5Y-87.66
X157.0Y-37.5
X157.0Y-42.58
X157.0Y-47.66
X157.0Y-79.0
X157.0Y-84.08
X157.0Y-89.16
X159.5Y-39.0
X159.5Y-87.66
T5
X22.4Y-275.2
X31.684Y-72.5
X83.3Y-28.2
X103.1Y-95.3
X137.4Y-31.7
T1
G00X27.4Y-33.6
M15
G01X27.4Y-34.2
M16
G05
G00X27.4Y-36.6
M15
G01X27.4Y-37.2
M16
G05
G00X27.4Y-40.6
M15
G01X27.4Y-41.2
M16
G05
G00X31.9Y-41.7
M15
G01X31.9Y-42.3
M16
G05
G00X32.0Y-41.7
M15
G01X32.0Y-42.3
M16
G05
G00X36.5Y-33.6
M15
G01X36.5Y-34.2
M16
G05
G00X36.5Y-36.6
M15
G01X36.5Y-37.2
M16
G05
G00X36.5Y-40.6
M15
G01X36.5Y-41.2
M16
G05
M30
