G04 #@! TF.GenerationSoftware,KiCad,Pcbnew,9.0.2*
G04 #@! TF.CreationDate,2025-12-10T20:56:20-05:00*
G04 #@! TF.ProjectId,ThumbsUp,5468756d-6273-4557-902e-6b696361645f,rev?*
G04 #@! TF.SameCoordinates,Original*
G04 #@! TF.FileFunction,Soldermask,Bot*
G04 #@! TF.FilePolarity,Negative*
%FSLAX46Y46*%
G04 Gerber Fmt 4.6, Leading zero omitted, Abs format (unit mm)*
G04 Created by KiCad (PCBNEW 9.0.2) date 2025-12-10 20:56:20*
%MOMM*%
%LPD*%
G01*
G04 APERTURE LIST*
G04 APERTURE END LIST*
G36*
X22921040Y-271687434D02*
G01*
X23262823Y-271755419D01*
X23596296Y-271856577D01*
X23918248Y-271989934D01*
X24225579Y-272154206D01*
X24515328Y-272347810D01*
X24784706Y-272568883D01*
X25031117Y-272815294D01*
X25252190Y-273084672D01*
X25445794Y-273374421D01*
X25610066Y-273681752D01*
X25743423Y-274003704D01*
X25844581Y-274337177D01*
X25912566Y-274678960D01*
X25946723Y-275025761D01*
X25946723Y-275374239D01*
X25912566Y-275721040D01*
X25844581Y-276062823D01*
X25743423Y-276396296D01*
X25610066Y-276718248D01*
X25445794Y-277025579D01*
X25252190Y-277315328D01*
X25031117Y-277584706D01*
X24784706Y-277831117D01*
X24515328Y-278052190D01*
X24225579Y-278245794D01*
X23918248Y-278410066D01*
X23596296Y-278543423D01*
X23262823Y-278644581D01*
X22921040Y-278712566D01*
X22574239Y-278746723D01*
X22225761Y-278746723D01*
X21878960Y-278712566D01*
X21537177Y-278644581D01*
X21203704Y-278543423D01*
X20881752Y-278410066D01*
X20574421Y-278245794D01*
X20284672Y-278052190D01*
X20015294Y-277831117D01*
X19768883Y-277584706D01*
X19547810Y-277315328D01*
X19354206Y-277025579D01*
X19189934Y-276718248D01*
X19056577Y-276396296D01*
X18955419Y-276062823D01*
X18887434Y-275721040D01*
X18853277Y-275374239D01*
X18853277Y-275025761D01*
X18887434Y-274678960D01*
X18955419Y-274337177D01*
X19056577Y-274003704D01*
X19189934Y-273681752D01*
X19354206Y-273374421D01*
X19547810Y-273084672D01*
X19768883Y-272815294D01*
X20015294Y-272568883D01*
X20284672Y-272347810D01*
X20574421Y-272154206D01*
X20881752Y-271989934D01*
X21203704Y-271856577D01*
X21537177Y-271755419D01*
X21878960Y-271687434D01*
X22225761Y-271653277D01*
X22574239Y-271653277D01*
X22921040Y-271687434D01*
G37*
G36*
X58090660Y-110837366D02*
G01*
X58105622Y-110850486D01*
X58114423Y-110868333D01*
X58554415Y-112510407D01*
X58555717Y-112530264D01*
X58549320Y-112549106D01*
X58536200Y-112564068D01*
X58518353Y-112572869D01*
X56876279Y-113012861D01*
X56856422Y-113014163D01*
X56837580Y-113007766D01*
X56822618Y-112994646D01*
X56813817Y-112976799D01*
X56468992Y-111689894D01*
X56377010Y-111346613D01*
X56377009Y-111346611D01*
X56373825Y-111334725D01*
X56372523Y-111314868D01*
X56378920Y-111296026D01*
X56392040Y-111281064D01*
X56409887Y-111272263D01*
X57412477Y-111003620D01*
X58040072Y-110835456D01*
X58040075Y-110835455D01*
X58051961Y-110832271D01*
X58071818Y-110830969D01*
X58090660Y-110837366D01*
G37*
G36*
X60179118Y-110402963D02*
G01*
X60342300Y-110470555D01*
X60489160Y-110568684D01*
X60614054Y-110693578D01*
X60712183Y-110840438D01*
X60779775Y-111003620D01*
X60814233Y-111176853D01*
X60814233Y-111353479D01*
X60779775Y-111526712D01*
X60712183Y-111689894D01*
X60614054Y-111836754D01*
X60489160Y-111961648D01*
X60342300Y-112059777D01*
X60179118Y-112127369D01*
X60005885Y-112161827D01*
X59829259Y-112161827D01*
X59656026Y-112127369D01*
X59492844Y-112059777D01*
X59345984Y-111961648D01*
X59221090Y-111836754D01*
X59122961Y-111689894D01*
X59055369Y-111526712D01*
X59020911Y-111353479D01*
X59020911Y-111176853D01*
X59055369Y-111003620D01*
X59122961Y-110840438D01*
X59221090Y-110693578D01*
X59345984Y-110568684D01*
X59492844Y-110470555D01*
X59656026Y-110402963D01*
X59829259Y-110368505D01*
X60005885Y-110368505D01*
X60179118Y-110402963D01*
G37*
G36*
X62632569Y-109745562D02*
G01*
X62795751Y-109813154D01*
X62942611Y-109911283D01*
X63067505Y-110036177D01*
X63165634Y-110183037D01*
X63233226Y-110346219D01*
X63267684Y-110519452D01*
X63267684Y-110696078D01*
X63233226Y-110869311D01*
X63165634Y-111032493D01*
X63067505Y-111179353D01*
X62942611Y-111304247D01*
X62795751Y-111402376D01*
X62632569Y-111469968D01*
X62459336Y-111504426D01*
X62282710Y-111504426D01*
X62109477Y-111469968D01*
X61946295Y-111402376D01*
X61799435Y-111304247D01*
X61674541Y-111179353D01*
X61576412Y-111032493D01*
X61508820Y-110869311D01*
X61474362Y-110696078D01*
X61474362Y-110519452D01*
X61508820Y-110346219D01*
X61576412Y-110183037D01*
X61674541Y-110036177D01*
X61799435Y-109911283D01*
X61946295Y-109813154D01*
X62109477Y-109745562D01*
X62282710Y-109711104D01*
X62459336Y-109711104D01*
X62632569Y-109745562D01*
G37*
G36*
X65086021Y-109088162D02*
G01*
X65249203Y-109155754D01*
X65396063Y-109253883D01*
X65520957Y-109378777D01*
X65619086Y-109525637D01*
X65686678Y-109688819D01*
X65721136Y-109862052D01*
X65721136Y-110038678D01*
X65686678Y-110211911D01*
X65619086Y-110375093D01*
X65520957Y-110521953D01*
X65396063Y-110646847D01*
X65249203Y-110744976D01*
X65086021Y-110812568D01*
X64912788Y-110847026D01*
X64736162Y-110847026D01*
X64562929Y-110812568D01*
X64399747Y-110744976D01*
X64252887Y-110646847D01*
X64127993Y-110521953D01*
X64029864Y-110375093D01*
X63962272Y-110211911D01*
X63927814Y-110038678D01*
X63927814Y-109862052D01*
X63962272Y-109688819D01*
X64029864Y-109525637D01*
X64127993Y-109378777D01*
X64252887Y-109253883D01*
X64399747Y-109155754D01*
X64562929Y-109088162D01*
X64736162Y-109053704D01*
X64912788Y-109053704D01*
X65086021Y-109088162D01*
G37*
G36*
X51516859Y-103783009D02*
G01*
X51531820Y-103796129D01*
X51540621Y-103813976D01*
X51981080Y-105457788D01*
X51982381Y-105477645D01*
X51975984Y-105496488D01*
X51962864Y-105511449D01*
X51945017Y-105520250D01*
X50301205Y-105960709D01*
X50281348Y-105962010D01*
X50262505Y-105955613D01*
X50247544Y-105942493D01*
X50238743Y-105924646D01*
X49798284Y-104280834D01*
X49796983Y-104260977D01*
X49803380Y-104242134D01*
X49816500Y-104227173D01*
X49834347Y-104218372D01*
X51478159Y-103777913D01*
X51498016Y-103776612D01*
X51516859Y-103783009D01*
G37*
G36*
X48348447Y-103204406D02*
G01*
X48511792Y-103272065D01*
X48658798Y-103370292D01*
X48783817Y-103495311D01*
X48882044Y-103642317D01*
X48949703Y-103805662D01*
X48984196Y-103979068D01*
X48984196Y-104155872D01*
X48949703Y-104329278D01*
X48882044Y-104492623D01*
X48783817Y-104639629D01*
X48658798Y-104764648D01*
X48511792Y-104862875D01*
X48348447Y-104930534D01*
X48175041Y-104965027D01*
X47998237Y-104965027D01*
X47824831Y-104930534D01*
X47661486Y-104862875D01*
X47514480Y-104764648D01*
X47389461Y-104639629D01*
X47291234Y-104492623D01*
X47223575Y-104329278D01*
X47189082Y-104155872D01*
X47189082Y-103979068D01*
X47223575Y-103805662D01*
X47291234Y-103642317D01*
X47389461Y-103495311D01*
X47514480Y-103370292D01*
X47661486Y-103272065D01*
X47824831Y-103204406D01*
X47998237Y-103169913D01*
X48175041Y-103169913D01*
X48348447Y-103204406D01*
G37*
G36*
X53543445Y-101687073D02*
G01*
X53558406Y-101700193D01*
X53567207Y-101718040D01*
X54007666Y-103361852D01*
X54008967Y-103381709D01*
X54002570Y-103400552D01*
X53989450Y-103415513D01*
X53971603Y-103424314D01*
X52327791Y-103864773D01*
X52307934Y-103866074D01*
X52289091Y-103859677D01*
X52274130Y-103846557D01*
X52265329Y-103828710D01*
X51824870Y-102184898D01*
X51823569Y-102165041D01*
X51829966Y-102146198D01*
X51843086Y-102131237D01*
X51860933Y-102122436D01*
X53504745Y-101681977D01*
X53524602Y-101680676D01*
X53543445Y-101687073D01*
G37*
G36*
X144189517Y-100102882D02*
G01*
X144206062Y-100113938D01*
X144217118Y-100130483D01*
X144221000Y-100150000D01*
X144221000Y-101850000D01*
X144217118Y-101869517D01*
X144206062Y-101886062D01*
X144189517Y-101897118D01*
X144170000Y-101901000D01*
X142470000Y-101901000D01*
X142450483Y-101897118D01*
X142433938Y-101886062D01*
X142422882Y-101869517D01*
X142419000Y-101850000D01*
X142419000Y-100150000D01*
X142422882Y-100130483D01*
X142433938Y-100113938D01*
X142450483Y-100102882D01*
X142470000Y-100099000D01*
X144170000Y-100099000D01*
X144189517Y-100102882D01*
G37*
G36*
X146121546Y-100137797D02*
G01*
X146284728Y-100205389D01*
X146431588Y-100303518D01*
X146556482Y-100428412D01*
X146654611Y-100575272D01*
X146722203Y-100738454D01*
X146756661Y-100911687D01*
X146756661Y-101088313D01*
X146722203Y-101261546D01*
X146654611Y-101424728D01*
X146556482Y-101571588D01*
X146431588Y-101696482D01*
X146284728Y-101794611D01*
X146121546Y-101862203D01*
X145948313Y-101896661D01*
X145771687Y-101896661D01*
X145598454Y-101862203D01*
X145435272Y-101794611D01*
X145288412Y-101696482D01*
X145163518Y-101571588D01*
X145065389Y-101424728D01*
X144997797Y-101261546D01*
X144963339Y-101088313D01*
X144963339Y-100911687D01*
X144997797Y-100738454D01*
X145065389Y-100575272D01*
X145163518Y-100428412D01*
X145288412Y-100303518D01*
X145435272Y-100205389D01*
X145598454Y-100137797D01*
X145771687Y-100103339D01*
X145948313Y-100103339D01*
X146121546Y-100137797D01*
G37*
G36*
X148661546Y-100137797D02*
G01*
X148824728Y-100205389D01*
X148971588Y-100303518D01*
X149096482Y-100428412D01*
X149194611Y-100575272D01*
X149262203Y-100738454D01*
X149296661Y-100911687D01*
X149296661Y-101088313D01*
X149262203Y-101261546D01*
X149194611Y-101424728D01*
X149096482Y-101571588D01*
X148971588Y-101696482D01*
X148824728Y-101794611D01*
X148661546Y-101862203D01*
X148488313Y-101896661D01*
X148311687Y-101896661D01*
X148138454Y-101862203D01*
X147975272Y-101794611D01*
X147828412Y-101696482D01*
X147703518Y-101571588D01*
X147605389Y-101424728D01*
X147537797Y-101261546D01*
X147503339Y-101088313D01*
X147503339Y-100911687D01*
X147537797Y-100738454D01*
X147605389Y-100575272D01*
X147703518Y-100428412D01*
X147828412Y-100303518D01*
X147975272Y-100205389D01*
X148138454Y-100137797D01*
X148311687Y-100103339D01*
X148488313Y-100103339D01*
X148661546Y-100137797D01*
G37*
G36*
X151201546Y-100137797D02*
G01*
X151364728Y-100205389D01*
X151511588Y-100303518D01*
X151636482Y-100428412D01*
X151734611Y-100575272D01*
X151802203Y-100738454D01*
X151836661Y-100911687D01*
X151836661Y-101088313D01*
X151802203Y-101261546D01*
X151734611Y-101424728D01*
X151636482Y-101571588D01*
X151511588Y-101696482D01*
X151364728Y-101794611D01*
X151201546Y-101862203D01*
X151028313Y-101896661D01*
X150851687Y-101896661D01*
X150678454Y-101862203D01*
X150515272Y-101794611D01*
X150368412Y-101696482D01*
X150243518Y-101571588D01*
X150145389Y-101424728D01*
X150077797Y-101261546D01*
X150043339Y-101088313D01*
X150043339Y-100911687D01*
X150077797Y-100738454D01*
X150145389Y-100575272D01*
X150243518Y-100428412D01*
X150368412Y-100303518D01*
X150515272Y-100205389D01*
X150678454Y-100137797D01*
X150851687Y-100103339D01*
X151028313Y-100103339D01*
X151201546Y-100137797D01*
G37*
G36*
X34261546Y-99937797D02*
G01*
X34424728Y-100005389D01*
X34571588Y-100103518D01*
X34696482Y-100228412D01*
X34794611Y-100375272D01*
X34862203Y-100538454D01*
X34896661Y-100711687D01*
X34896661Y-100888313D01*
X34862203Y-101061546D01*
X34794611Y-101224728D01*
X34696482Y-101371588D01*
X34571588Y-101496482D01*
X34424728Y-101594611D01*
X34261546Y-101662203D01*
X34088313Y-101696661D01*
X33911687Y-101696661D01*
X33738454Y-101662203D01*
X33575272Y-101594611D01*
X33428412Y-101496482D01*
X33303518Y-101371588D01*
X33205389Y-101224728D01*
X33137797Y-101061546D01*
X33103339Y-100888313D01*
X33103339Y-100711687D01*
X33137797Y-100538454D01*
X33205389Y-100375272D01*
X33303518Y-100228412D01*
X33428412Y-100103518D01*
X33575272Y-100005389D01*
X33738454Y-99937797D01*
X33911687Y-99903339D01*
X34088313Y-99903339D01*
X34261546Y-99937797D01*
G37*
G36*
X68903524Y-99124266D02*
G01*
X68918485Y-99137386D01*
X68927286Y-99155233D01*
X69367745Y-100799045D01*
X69369046Y-100818902D01*
X69362649Y-100837745D01*
X69349529Y-100852706D01*
X69331682Y-100861507D01*
X67687870Y-101301966D01*
X67668013Y-101303267D01*
X67649170Y-101296870D01*
X67634209Y-101283750D01*
X67625408Y-101265903D01*
X67184949Y-99622091D01*
X67183648Y-99602234D01*
X67190045Y-99583391D01*
X67203165Y-99568430D01*
X67221012Y-99559629D01*
X68864824Y-99119170D01*
X68884681Y-99117869D01*
X68903524Y-99124266D01*
G37*
G36*
X49836689Y-99099344D02*
G01*
X50000034Y-99167003D01*
X50147040Y-99265230D01*
X50272059Y-99390249D01*
X50370286Y-99537255D01*
X50437945Y-99700600D01*
X50472438Y-99874006D01*
X50472438Y-100050810D01*
X50437945Y-100224216D01*
X50370286Y-100387561D01*
X50272059Y-100534567D01*
X50147040Y-100659586D01*
X50000034Y-100757813D01*
X49836689Y-100825472D01*
X49663283Y-100859965D01*
X49486479Y-100859965D01*
X49313073Y-100825472D01*
X49149728Y-100757813D01*
X49002722Y-100659586D01*
X48877703Y-100534567D01*
X48779476Y-100387561D01*
X48711817Y-100224216D01*
X48677324Y-100050810D01*
X48677324Y-99874006D01*
X48711817Y-99700600D01*
X48779476Y-99537255D01*
X48877703Y-99390249D01*
X49002722Y-99265230D01*
X49149728Y-99167003D01*
X49313073Y-99099344D01*
X49486479Y-99064851D01*
X49663283Y-99064851D01*
X49836689Y-99099344D01*
G37*
G36*
X65735112Y-98545663D02*
G01*
X65898457Y-98613322D01*
X66045463Y-98711549D01*
X66170482Y-98836568D01*
X66268709Y-98983574D01*
X66336368Y-99146919D01*
X66370861Y-99320325D01*
X66370861Y-99497129D01*
X66336368Y-99670535D01*
X66268709Y-99833880D01*
X66170482Y-99980886D01*
X66045463Y-100105905D01*
X65898457Y-100204132D01*
X65735112Y-100271791D01*
X65561706Y-100306284D01*
X65384902Y-100306284D01*
X65211496Y-100271791D01*
X65048151Y-100204132D01*
X64901145Y-100105905D01*
X64776126Y-99980886D01*
X64677899Y-99833880D01*
X64610240Y-99670535D01*
X64575747Y-99497129D01*
X64575747Y-99320325D01*
X64610240Y-99146919D01*
X64677899Y-98983574D01*
X64776126Y-98836568D01*
X64901145Y-98711549D01*
X65048151Y-98613322D01*
X65211496Y-98545663D01*
X65384902Y-98511170D01*
X65561706Y-98511170D01*
X65735112Y-98545663D01*
G37*
G36*
X33604146Y-97484345D02*
G01*
X33767328Y-97551937D01*
X33914188Y-97650066D01*
X34039082Y-97774960D01*
X34137211Y-97921820D01*
X34204803Y-98085002D01*
X34239261Y-98258235D01*
X34239261Y-98434861D01*
X34204803Y-98608094D01*
X34137211Y-98771276D01*
X34039082Y-98918136D01*
X33914188Y-99043030D01*
X33767328Y-99141159D01*
X33604146Y-99208751D01*
X33430913Y-99243209D01*
X33254287Y-99243209D01*
X33081054Y-99208751D01*
X32917872Y-99141159D01*
X32771012Y-99043030D01*
X32646118Y-98918136D01*
X32547989Y-98771276D01*
X32480397Y-98608094D01*
X32445939Y-98434861D01*
X32445939Y-98258235D01*
X32480397Y-98085002D01*
X32547989Y-97921820D01*
X32646118Y-97774960D01*
X32771012Y-97650066D01*
X32917872Y-97551937D01*
X33081054Y-97484345D01*
X33254287Y-97449887D01*
X33430913Y-97449887D01*
X33604146Y-97484345D01*
G37*
G36*
X70930110Y-97028330D02*
G01*
X70945071Y-97041450D01*
X70953872Y-97059297D01*
X71394331Y-98703109D01*
X71395632Y-98722966D01*
X71389235Y-98741809D01*
X71376115Y-98756770D01*
X71358268Y-98765571D01*
X69714456Y-99206030D01*
X69694599Y-99207331D01*
X69675756Y-99200934D01*
X69660795Y-99187814D01*
X69651994Y-99169967D01*
X69211535Y-97526155D01*
X69210234Y-97506298D01*
X69216631Y-97487455D01*
X69229751Y-97472494D01*
X69247598Y-97463693D01*
X70891410Y-97023234D01*
X70911267Y-97021933D01*
X70930110Y-97028330D01*
G37*
G36*
X103621040Y-91787434D02*
G01*
X103962823Y-91855419D01*
X104296296Y-91956577D01*
X104618248Y-92089934D01*
X104925579Y-92254206D01*
X105215328Y-92447810D01*
X105484706Y-92668883D01*
X105731117Y-92915294D01*
X105952190Y-93184672D01*
X106145794Y-93474421D01*
X106310066Y-93781752D01*
X106443423Y-94103704D01*
X106544581Y-94437177D01*
X106612566Y-94778960D01*
X106646723Y-95125761D01*
X106646723Y-95474239D01*
X106612566Y-95821040D01*
X106544581Y-96162823D01*
X106443423Y-96496296D01*
X106310066Y-96818248D01*
X106145794Y-97125579D01*
X105952190Y-97415328D01*
X105731117Y-97684706D01*
X105484706Y-97931117D01*
X105215328Y-98152190D01*
X104925579Y-98345794D01*
X104618248Y-98510066D01*
X104296296Y-98643423D01*
X103962823Y-98744581D01*
X103621040Y-98812566D01*
X103274239Y-98846723D01*
X102925761Y-98846723D01*
X102578960Y-98812566D01*
X102237177Y-98744581D01*
X101903704Y-98643423D01*
X101581752Y-98510066D01*
X101274421Y-98345794D01*
X100984672Y-98152190D01*
X100715294Y-97931117D01*
X100468883Y-97684706D01*
X100247810Y-97415328D01*
X100054206Y-97125579D01*
X99889934Y-96818248D01*
X99756577Y-96496296D01*
X99655419Y-96162823D01*
X99587434Y-95821040D01*
X99553277Y-95474239D01*
X99553277Y-95125761D01*
X99587434Y-94778960D01*
X99655419Y-94437177D01*
X99756577Y-94103704D01*
X99889934Y-93781752D01*
X100054206Y-93474421D01*
X100247810Y-93184672D01*
X100468883Y-92915294D01*
X100715294Y-92668883D01*
X100984672Y-92447810D01*
X101274421Y-92254206D01*
X101581752Y-92089934D01*
X101903704Y-91956577D01*
X102237177Y-91855419D01*
X102578960Y-91787434D01*
X102925761Y-91753277D01*
X103274239Y-91753277D01*
X103621040Y-91787434D01*
G37*
G36*
X32946745Y-95030894D02*
G01*
X33109927Y-95098486D01*
X33256787Y-95196615D01*
X33381681Y-95321509D01*
X33479810Y-95468369D01*
X33547402Y-95631551D01*
X33581860Y-95804784D01*
X33581860Y-95981410D01*
X33547402Y-96154643D01*
X33479810Y-96317825D01*
X33381681Y-96464685D01*
X33256787Y-96589579D01*
X33109927Y-96687708D01*
X32946745Y-96755300D01*
X32773512Y-96789758D01*
X32596886Y-96789758D01*
X32423653Y-96755300D01*
X32260471Y-96687708D01*
X32113611Y-96589579D01*
X31988717Y-96464685D01*
X31890588Y-96317825D01*
X31822996Y-96154643D01*
X31788538Y-95981410D01*
X31788538Y-95804784D01*
X31822996Y-95631551D01*
X31890588Y-95468369D01*
X31988717Y-95321509D01*
X32113611Y-95196615D01*
X32260471Y-95098486D01*
X32423653Y-95030894D01*
X32596886Y-94996436D01*
X32773512Y-94996436D01*
X32946745Y-95030894D01*
G37*
G36*
X67223354Y-94440601D02*
G01*
X67386699Y-94508260D01*
X67533705Y-94606487D01*
X67658724Y-94731506D01*
X67756951Y-94878512D01*
X67824610Y-95041857D01*
X67859103Y-95215263D01*
X67859103Y-95392067D01*
X67824610Y-95565473D01*
X67756951Y-95728818D01*
X67658724Y-95875824D01*
X67533705Y-96000843D01*
X67386699Y-96099070D01*
X67223354Y-96166729D01*
X67049948Y-96201222D01*
X66873144Y-96201222D01*
X66699738Y-96166729D01*
X66536393Y-96099070D01*
X66389387Y-96000843D01*
X66264368Y-95875824D01*
X66166141Y-95728818D01*
X66098482Y-95565473D01*
X66063989Y-95392067D01*
X66063989Y-95215263D01*
X66098482Y-95041857D01*
X66166141Y-94878512D01*
X66264368Y-94731506D01*
X66389387Y-94606487D01*
X66536393Y-94508260D01*
X66699738Y-94440601D01*
X66873144Y-94406108D01*
X67049948Y-94406108D01*
X67223354Y-94440601D01*
G37*
G36*
X48521889Y-94192442D02*
G01*
X48685234Y-94260101D01*
X48832240Y-94358328D01*
X48957259Y-94483347D01*
X49055486Y-94630353D01*
X49123145Y-94793698D01*
X49157638Y-94967104D01*
X49157638Y-95143908D01*
X49123145Y-95317314D01*
X49055486Y-95480659D01*
X48957259Y-95627665D01*
X48832240Y-95752684D01*
X48685234Y-95850911D01*
X48521889Y-95918570D01*
X48348483Y-95953063D01*
X48171679Y-95953063D01*
X47998273Y-95918570D01*
X47834928Y-95850911D01*
X47687922Y-95752684D01*
X47562903Y-95627665D01*
X47464676Y-95480659D01*
X47397017Y-95317314D01*
X47362524Y-95143908D01*
X47362524Y-94967104D01*
X47397017Y-94793698D01*
X47464676Y-94630353D01*
X47562903Y-94483347D01*
X47687922Y-94358328D01*
X47834928Y-94260101D01*
X47998273Y-94192442D01*
X48171679Y-94157949D01*
X48348483Y-94157949D01*
X48521889Y-94192442D01*
G37*
G36*
X32654339Y-92354445D02*
G01*
X32669301Y-92367565D01*
X32678102Y-92385412D01*
X33118094Y-94027486D01*
X33119396Y-94047343D01*
X33112999Y-94066185D01*
X33099879Y-94081147D01*
X33082032Y-94089948D01*
X31439958Y-94529940D01*
X31420101Y-94531242D01*
X31401259Y-94524845D01*
X31386297Y-94511725D01*
X31377496Y-94493878D01*
X30985112Y-93029480D01*
X30940689Y-92863692D01*
X30940688Y-92863690D01*
X30937504Y-92851804D01*
X30936202Y-92831947D01*
X30942599Y-92813105D01*
X30955719Y-92798143D01*
X30973566Y-92789342D01*
X31969491Y-92522485D01*
X32603751Y-92352535D01*
X32603754Y-92352534D01*
X32615640Y-92349350D01*
X32635497Y-92348048D01*
X32654339Y-92354445D01*
G37*
G36*
X139870417Y-92261982D02*
G01*
X139886962Y-92273038D01*
X139898018Y-92289583D01*
X139901900Y-92309100D01*
X139901900Y-94010900D01*
X139898018Y-94030417D01*
X139886962Y-94046962D01*
X139870417Y-94058018D01*
X139850900Y-94061900D01*
X138149100Y-94061900D01*
X138129583Y-94058018D01*
X138113038Y-94046962D01*
X138101982Y-94030417D01*
X138098100Y-94010900D01*
X138098100Y-92309100D01*
X138101982Y-92289583D01*
X138113038Y-92273038D01*
X138129583Y-92261982D01*
X138149100Y-92258100D01*
X139850900Y-92258100D01*
X139870417Y-92261982D01*
G37*
G36*
X85870417Y-91261982D02*
G01*
X85886962Y-91273038D01*
X85898018Y-91289583D01*
X85901900Y-91309100D01*
X85901900Y-93010900D01*
X85898018Y-93030417D01*
X85886962Y-93046962D01*
X85870417Y-93058018D01*
X85850900Y-93061900D01*
X84149100Y-93061900D01*
X84129583Y-93058018D01*
X84113038Y-93046962D01*
X84101982Y-93030417D01*
X84098100Y-93010900D01*
X84098100Y-91309100D01*
X84101982Y-91289583D01*
X84113038Y-91273038D01*
X84129583Y-91261982D01*
X84149100Y-91258100D01*
X85850900Y-91258100D01*
X85870417Y-91261982D01*
G37*
G36*
X142370417Y-90761982D02*
G01*
X142386962Y-90773038D01*
X142398018Y-90789583D01*
X142401900Y-90809100D01*
X142401900Y-92510900D01*
X142398018Y-92530417D01*
X142386962Y-92546962D01*
X142370417Y-92558018D01*
X142350900Y-92561900D01*
X140649100Y-92561900D01*
X140629583Y-92558018D01*
X140613038Y-92546962D01*
X140601982Y-92530417D01*
X140598100Y-92510900D01*
X140598100Y-90809100D01*
X140601982Y-90789583D01*
X140613038Y-90773038D01*
X140629583Y-90761982D01*
X140649100Y-90758100D01*
X142350900Y-90758100D01*
X142370417Y-90761982D01*
G37*
G36*
X136761808Y-90796936D02*
G01*
X136925153Y-90864595D01*
X137072159Y-90962822D01*
X137197178Y-91087841D01*
X137295405Y-91234847D01*
X137363064Y-91398192D01*
X137397557Y-91571598D01*
X137397557Y-91748402D01*
X137363064Y-91921808D01*
X137295405Y-92085153D01*
X137197178Y-92232159D01*
X137072159Y-92357178D01*
X136925153Y-92455405D01*
X136761808Y-92523064D01*
X136588402Y-92557557D01*
X136411598Y-92557557D01*
X136238192Y-92523064D01*
X136074847Y-92455405D01*
X135927841Y-92357178D01*
X135802822Y-92232159D01*
X135704595Y-92085153D01*
X135636936Y-91921808D01*
X135602443Y-91748402D01*
X135602443Y-91571598D01*
X135636936Y-91398192D01*
X135704595Y-91234847D01*
X135802822Y-91087841D01*
X135927841Y-90962822D01*
X136074847Y-90864595D01*
X136238192Y-90796936D01*
X136411598Y-90762443D01*
X136588402Y-90762443D01*
X136761808Y-90796936D01*
G37*
G36*
X88370417Y-89761982D02*
G01*
X88386962Y-89773038D01*
X88398018Y-89789583D01*
X88401900Y-89809100D01*
X88401900Y-91510900D01*
X88398018Y-91530417D01*
X88386962Y-91546962D01*
X88370417Y-91558018D01*
X88350900Y-91561900D01*
X86649100Y-91561900D01*
X86629583Y-91558018D01*
X86613038Y-91546962D01*
X86601982Y-91530417D01*
X86598100Y-91510900D01*
X86598100Y-89809100D01*
X86601982Y-89789583D01*
X86613038Y-89773038D01*
X86629583Y-89761982D01*
X86649100Y-89758100D01*
X88350900Y-89758100D01*
X88370417Y-89761982D01*
G37*
G36*
X82761808Y-89796936D02*
G01*
X82925153Y-89864595D01*
X83072159Y-89962822D01*
X83197178Y-90087841D01*
X83295405Y-90234847D01*
X83363064Y-90398192D01*
X83397557Y-90571598D01*
X83397557Y-90748402D01*
X83363064Y-90921808D01*
X83295405Y-91085153D01*
X83197178Y-91232159D01*
X83072159Y-91357178D01*
X82925153Y-91455405D01*
X82761808Y-91523064D01*
X82588402Y-91557557D01*
X82411598Y-91557557D01*
X82238192Y-91523064D01*
X82074847Y-91455405D01*
X81927841Y-91357178D01*
X81802822Y-91232159D01*
X81704595Y-91085153D01*
X81636936Y-90921808D01*
X81602443Y-90748402D01*
X81602443Y-90571598D01*
X81636936Y-90398192D01*
X81704595Y-90234847D01*
X81802822Y-90087841D01*
X81927841Y-89962822D01*
X82074847Y-89864595D01*
X82238192Y-89796936D01*
X82411598Y-89762443D01*
X82588402Y-89762443D01*
X82761808Y-89796936D01*
G37*
G36*
X65908554Y-89533699D02*
G01*
X66071899Y-89601358D01*
X66218905Y-89699585D01*
X66343924Y-89824604D01*
X66442151Y-89971610D01*
X66509810Y-90134955D01*
X66544303Y-90308361D01*
X66544303Y-90485165D01*
X66509810Y-90658571D01*
X66442151Y-90821916D01*
X66343924Y-90968922D01*
X66218905Y-91093941D01*
X66071899Y-91192168D01*
X65908554Y-91259827D01*
X65735148Y-91294320D01*
X65558344Y-91294320D01*
X65384938Y-91259827D01*
X65221593Y-91192168D01*
X65074587Y-91093941D01*
X64949568Y-90968922D01*
X64851341Y-90821916D01*
X64783682Y-90658571D01*
X64749189Y-90485165D01*
X64749189Y-90308361D01*
X64783682Y-90134955D01*
X64851341Y-89971610D01*
X64949568Y-89824604D01*
X65074587Y-89699585D01*
X65221593Y-89601358D01*
X65384938Y-89533699D01*
X65558344Y-89499206D01*
X65735148Y-89499206D01*
X65908554Y-89533699D01*
G37*
G36*
X157870417Y-88261982D02*
G01*
X157886962Y-88273038D01*
X157898018Y-88289583D01*
X157901900Y-88309100D01*
X157901900Y-90010900D01*
X157898018Y-90030417D01*
X157886962Y-90046962D01*
X157870417Y-90058018D01*
X157850900Y-90061900D01*
X156149100Y-90061900D01*
X156129583Y-90058018D01*
X156113038Y-90046962D01*
X156101982Y-90030417D01*
X156098100Y-90010900D01*
X156098100Y-88309100D01*
X156101982Y-88289583D01*
X156113038Y-88273038D01*
X156129583Y-88261982D01*
X156149100Y-88258100D01*
X157850900Y-88258100D01*
X157870417Y-88261982D01*
G37*
G36*
X121870417Y-87261982D02*
G01*
X121886962Y-87273038D01*
X121898018Y-87289583D01*
X121901900Y-87309100D01*
X121901900Y-89010900D01*
X121898018Y-89030417D01*
X121886962Y-89046962D01*
X121870417Y-89058018D01*
X121850900Y-89061900D01*
X120149100Y-89061900D01*
X120129583Y-89058018D01*
X120113038Y-89046962D01*
X120101982Y-89030417D01*
X120098100Y-89010900D01*
X120098100Y-87309100D01*
X120101982Y-87289583D01*
X120113038Y-87273038D01*
X120129583Y-87261982D01*
X120149100Y-87258100D01*
X121850900Y-87258100D01*
X121870417Y-87261982D01*
G37*
G36*
X139261808Y-87216936D02*
G01*
X139425153Y-87284595D01*
X139572159Y-87382822D01*
X139697178Y-87507841D01*
X139795405Y-87654847D01*
X139863064Y-87818192D01*
X139897557Y-87991598D01*
X139897557Y-88168402D01*
X139863064Y-88341808D01*
X139795405Y-88505153D01*
X139697178Y-88652159D01*
X139572159Y-88777178D01*
X139425153Y-88875405D01*
X139261808Y-88943064D01*
X139088402Y-88977557D01*
X138911598Y-88977557D01*
X138738192Y-88943064D01*
X138574847Y-88875405D01*
X138427841Y-88777178D01*
X138302822Y-88652159D01*
X138204595Y-88505153D01*
X138136936Y-88341808D01*
X138102443Y-88168402D01*
X138102443Y-87991598D01*
X138136936Y-87818192D01*
X138204595Y-87654847D01*
X138302822Y-87507841D01*
X138427841Y-87382822D01*
X138574847Y-87284595D01*
X138738192Y-87216936D01*
X138911598Y-87182443D01*
X139088402Y-87182443D01*
X139261808Y-87216936D01*
G37*
G36*
X160370417Y-86761982D02*
G01*
X160386962Y-86773038D01*
X160398018Y-86789583D01*
X160401900Y-86809100D01*
X160401900Y-88510900D01*
X160398018Y-88530417D01*
X160386962Y-88546962D01*
X160370417Y-88558018D01*
X160350900Y-88561900D01*
X158649100Y-88561900D01*
X158629583Y-88558018D01*
X158613038Y-88546962D01*
X158601982Y-88530417D01*
X158598100Y-88510900D01*
X158598100Y-86809100D01*
X158601982Y-86789583D01*
X158613038Y-86773038D01*
X158629583Y-86761982D01*
X158649100Y-86758100D01*
X160350900Y-86758100D01*
X160370417Y-86761982D01*
G37*
G36*
X154761808Y-86796936D02*
G01*
X154925153Y-86864595D01*
X155072159Y-86962822D01*
X155197178Y-87087841D01*
X155295405Y-87234847D01*
X155363064Y-87398192D01*
X155397557Y-87571598D01*
X155397557Y-87748402D01*
X155363064Y-87921808D01*
X155295405Y-88085153D01*
X155197178Y-88232159D01*
X155072159Y-88357178D01*
X154925153Y-88455405D01*
X154761808Y-88523064D01*
X154588402Y-88557557D01*
X154411598Y-88557557D01*
X154238192Y-88523064D01*
X154074847Y-88455405D01*
X153927841Y-88357178D01*
X153802822Y-88232159D01*
X153704595Y-88085153D01*
X153636936Y-87921808D01*
X153602443Y-87748402D01*
X153602443Y-87571598D01*
X153636936Y-87398192D01*
X153704595Y-87234847D01*
X153802822Y-87087841D01*
X153927841Y-86962822D01*
X154074847Y-86864595D01*
X154238192Y-86796936D01*
X154411598Y-86762443D01*
X154588402Y-86762443D01*
X154761808Y-86796936D01*
G37*
G36*
X85261808Y-86216936D02*
G01*
X85425153Y-86284595D01*
X85572159Y-86382822D01*
X85697178Y-86507841D01*
X85795405Y-86654847D01*
X85863064Y-86818192D01*
X85897557Y-86991598D01*
X85897557Y-87168402D01*
X85863064Y-87341808D01*
X85795405Y-87505153D01*
X85697178Y-87652159D01*
X85572159Y-87777178D01*
X85425153Y-87875405D01*
X85261808Y-87943064D01*
X85088402Y-87977557D01*
X84911598Y-87977557D01*
X84738192Y-87943064D01*
X84574847Y-87875405D01*
X84427841Y-87777178D01*
X84302822Y-87652159D01*
X84204595Y-87505153D01*
X84136936Y-87341808D01*
X84102443Y-87168402D01*
X84102443Y-86991598D01*
X84136936Y-86818192D01*
X84204595Y-86654847D01*
X84302822Y-86507841D01*
X84427841Y-86382822D01*
X84574847Y-86284595D01*
X84738192Y-86216936D01*
X84911598Y-86182443D01*
X85088402Y-86182443D01*
X85261808Y-86216936D01*
G37*
G36*
X124370417Y-85761982D02*
G01*
X124386962Y-85773038D01*
X124398018Y-85789583D01*
X124401900Y-85809100D01*
X124401900Y-87510900D01*
X124398018Y-87530417D01*
X124386962Y-87546962D01*
X124370417Y-87558018D01*
X124350900Y-87561900D01*
X122649100Y-87561900D01*
X122629583Y-87558018D01*
X122613038Y-87546962D01*
X122601982Y-87530417D01*
X122598100Y-87510900D01*
X122598100Y-85809100D01*
X122601982Y-85789583D01*
X122613038Y-85773038D01*
X122629583Y-85761982D01*
X122649100Y-85758100D01*
X124350900Y-85758100D01*
X124370417Y-85761982D01*
G37*
G36*
X118761808Y-85796936D02*
G01*
X118925153Y-85864595D01*
X119072159Y-85962822D01*
X119197178Y-86087841D01*
X119295405Y-86234847D01*
X119363064Y-86398192D01*
X119397557Y-86571598D01*
X119397557Y-86748402D01*
X119363064Y-86921808D01*
X119295405Y-87085153D01*
X119197178Y-87232159D01*
X119072159Y-87357178D01*
X118925153Y-87455405D01*
X118761808Y-87523064D01*
X118588402Y-87557557D01*
X118411598Y-87557557D01*
X118238192Y-87523064D01*
X118074847Y-87455405D01*
X117927841Y-87357178D01*
X117802822Y-87232159D01*
X117704595Y-87085153D01*
X117636936Y-86921808D01*
X117602443Y-86748402D01*
X117602443Y-86571598D01*
X117636936Y-86398192D01*
X117704595Y-86234847D01*
X117802822Y-86087841D01*
X117927841Y-85962822D01*
X118074847Y-85864595D01*
X118238192Y-85796936D01*
X118411598Y-85762443D01*
X118588402Y-85762443D01*
X118761808Y-85796936D01*
G37*
G36*
X157261808Y-83216936D02*
G01*
X157425153Y-83284595D01*
X157572159Y-83382822D01*
X157697178Y-83507841D01*
X157795405Y-83654847D01*
X157863064Y-83818192D01*
X157897557Y-83991598D01*
X157897557Y-84168402D01*
X157863064Y-84341808D01*
X157795405Y-84505153D01*
X157697178Y-84652159D01*
X157572159Y-84777178D01*
X157425153Y-84875405D01*
X157261808Y-84943064D01*
X157088402Y-84977557D01*
X156911598Y-84977557D01*
X156738192Y-84943064D01*
X156574847Y-84875405D01*
X156427841Y-84777178D01*
X156302822Y-84652159D01*
X156204595Y-84505153D01*
X156136936Y-84341808D01*
X156102443Y-84168402D01*
X156102443Y-83991598D01*
X156136936Y-83818192D01*
X156204595Y-83654847D01*
X156302822Y-83507841D01*
X156427841Y-83382822D01*
X156574847Y-83284595D01*
X156738192Y-83216936D01*
X156911598Y-83182443D01*
X157088402Y-83182443D01*
X157261808Y-83216936D01*
G37*
G36*
X103870417Y-82261982D02*
G01*
X103886962Y-82273038D01*
X103898018Y-82289583D01*
X103901900Y-82309100D01*
X103901900Y-84010900D01*
X103898018Y-84030417D01*
X103886962Y-84046962D01*
X103870417Y-84058018D01*
X103850900Y-84061900D01*
X102149100Y-84061900D01*
X102129583Y-84058018D01*
X102113038Y-84046962D01*
X102101982Y-84030417D01*
X102098100Y-84010900D01*
X102098100Y-82309100D01*
X102101982Y-82289583D01*
X102113038Y-82273038D01*
X102129583Y-82261982D01*
X102149100Y-82258100D01*
X103850900Y-82258100D01*
X103870417Y-82261982D01*
G37*
G36*
X121261808Y-82216936D02*
G01*
X121425153Y-82284595D01*
X121572159Y-82382822D01*
X121697178Y-82507841D01*
X121795405Y-82654847D01*
X121863064Y-82818192D01*
X121897557Y-82991598D01*
X121897557Y-83168402D01*
X121863064Y-83341808D01*
X121795405Y-83505153D01*
X121697178Y-83652159D01*
X121572159Y-83777178D01*
X121425153Y-83875405D01*
X121261808Y-83943064D01*
X121088402Y-83977557D01*
X120911598Y-83977557D01*
X120738192Y-83943064D01*
X120574847Y-83875405D01*
X120427841Y-83777178D01*
X120302822Y-83652159D01*
X120204595Y-83505153D01*
X120136936Y-83341808D01*
X120102443Y-83168402D01*
X120102443Y-82991598D01*
X120136936Y-82818192D01*
X120204595Y-82654847D01*
X120302822Y-82507841D01*
X120427841Y-82382822D01*
X120574847Y-82284595D01*
X120738192Y-82216936D01*
X120911598Y-82182443D01*
X121088402Y-82182443D01*
X121261808Y-82216936D01*
G37*
G36*
X139261808Y-82136936D02*
G01*
X139425153Y-82204595D01*
X139572159Y-82302822D01*
X139697178Y-82427841D01*
X139795405Y-82574847D01*
X139863064Y-82738192D01*
X139897557Y-82911598D01*
X139897557Y-83088402D01*
X139863064Y-83261808D01*
X139795405Y-83425153D01*
X139697178Y-83572159D01*
X139572159Y-83697178D01*
X139425153Y-83795405D01*
X139261808Y-83863064D01*
X139088402Y-83897557D01*
X138911598Y-83897557D01*
X138738192Y-83863064D01*
X138574847Y-83795405D01*
X138427841Y-83697178D01*
X138302822Y-83572159D01*
X138204595Y-83425153D01*
X138136936Y-83261808D01*
X138102443Y-83088402D01*
X138102443Y-82911598D01*
X138136936Y-82738192D01*
X138204595Y-82574847D01*
X138302822Y-82427841D01*
X138427841Y-82302822D01*
X138574847Y-82204595D01*
X138738192Y-82136936D01*
X138911598Y-82102443D01*
X139088402Y-82102443D01*
X139261808Y-82136936D01*
G37*
G36*
X85261808Y-81136936D02*
G01*
X85425153Y-81204595D01*
X85572159Y-81302822D01*
X85697178Y-81427841D01*
X85795405Y-81574847D01*
X85863064Y-81738192D01*
X85897557Y-81911598D01*
X85897557Y-82088402D01*
X85863064Y-82261808D01*
X85795405Y-82425153D01*
X85697178Y-82572159D01*
X85572159Y-82697178D01*
X85425153Y-82795405D01*
X85261808Y-82863064D01*
X85088402Y-82897557D01*
X84911598Y-82897557D01*
X84738192Y-82863064D01*
X84574847Y-82795405D01*
X84427841Y-82697178D01*
X84302822Y-82572159D01*
X84204595Y-82425153D01*
X84136936Y-82261808D01*
X84102443Y-82088402D01*
X84102443Y-81911598D01*
X84136936Y-81738192D01*
X84204595Y-81574847D01*
X84302822Y-81427841D01*
X84427841Y-81302822D01*
X84574847Y-81204595D01*
X84738192Y-81136936D01*
X84911598Y-81102443D01*
X85088402Y-81102443D01*
X85261808Y-81136936D01*
G37*
G36*
X106370417Y-80761982D02*
G01*
X106386962Y-80773038D01*
X106398018Y-80789583D01*
X106401900Y-80809100D01*
X106401900Y-82510900D01*
X106398018Y-82530417D01*
X106386962Y-82546962D01*
X106370417Y-82558018D01*
X106350900Y-82561900D01*
X104649100Y-82561900D01*
X104629583Y-82558018D01*
X104613038Y-82546962D01*
X104601982Y-82530417D01*
X104598100Y-82510900D01*
X104598100Y-80809100D01*
X104601982Y-80789583D01*
X104613038Y-80773038D01*
X104629583Y-80761982D01*
X104649100Y-80758100D01*
X106350900Y-80758100D01*
X106370417Y-80761982D01*
G37*
G36*
X100761808Y-80796936D02*
G01*
X100925153Y-80864595D01*
X101072159Y-80962822D01*
X101197178Y-81087841D01*
X101295405Y-81234847D01*
X101363064Y-81398192D01*
X101397557Y-81571598D01*
X101397557Y-81748402D01*
X101363064Y-81921808D01*
X101295405Y-82085153D01*
X101197178Y-82232159D01*
X101072159Y-82357178D01*
X100925153Y-82455405D01*
X100761808Y-82523064D01*
X100588402Y-82557557D01*
X100411598Y-82557557D01*
X100238192Y-82523064D01*
X100074847Y-82455405D01*
X99927841Y-82357178D01*
X99802822Y-82232159D01*
X99704595Y-82085153D01*
X99636936Y-81921808D01*
X99602443Y-81748402D01*
X99602443Y-81571598D01*
X99636936Y-81398192D01*
X99704595Y-81234847D01*
X99802822Y-81087841D01*
X99927841Y-80962822D01*
X100074847Y-80864595D01*
X100238192Y-80796936D01*
X100411598Y-80762443D01*
X100588402Y-80762443D01*
X100761808Y-80796936D01*
G37*
G36*
X157261808Y-78136936D02*
G01*
X157425153Y-78204595D01*
X157572159Y-78302822D01*
X157697178Y-78427841D01*
X157795405Y-78574847D01*
X157863064Y-78738192D01*
X157897557Y-78911598D01*
X157897557Y-79088402D01*
X157863064Y-79261808D01*
X157795405Y-79425153D01*
X157697178Y-79572159D01*
X157572159Y-79697178D01*
X157425153Y-79795405D01*
X157261808Y-79863064D01*
X157088402Y-79897557D01*
X156911598Y-79897557D01*
X156738192Y-79863064D01*
X156574847Y-79795405D01*
X156427841Y-79697178D01*
X156302822Y-79572159D01*
X156204595Y-79425153D01*
X156136936Y-79261808D01*
X156102443Y-79088402D01*
X156102443Y-78911598D01*
X156136936Y-78738192D01*
X156204595Y-78574847D01*
X156302822Y-78427841D01*
X156427841Y-78302822D01*
X156574847Y-78204595D01*
X156738192Y-78136936D01*
X156911598Y-78102443D01*
X157088402Y-78102443D01*
X157261808Y-78136936D01*
G37*
G36*
X103261808Y-77216936D02*
G01*
X103425153Y-77284595D01*
X103572159Y-77382822D01*
X103697178Y-77507841D01*
X103795405Y-77654847D01*
X103863064Y-77818192D01*
X103897557Y-77991598D01*
X103897557Y-78168402D01*
X103863064Y-78341808D01*
X103795405Y-78505153D01*
X103697178Y-78652159D01*
X103572159Y-78777178D01*
X103425153Y-78875405D01*
X103261808Y-78943064D01*
X103088402Y-78977557D01*
X102911598Y-78977557D01*
X102738192Y-78943064D01*
X102574847Y-78875405D01*
X102427841Y-78777178D01*
X102302822Y-78652159D01*
X102204595Y-78505153D01*
X102136936Y-78341808D01*
X102102443Y-78168402D01*
X102102443Y-77991598D01*
X102136936Y-77818192D01*
X102204595Y-77654847D01*
X102302822Y-77507841D01*
X102427841Y-77382822D01*
X102574847Y-77284595D01*
X102738192Y-77216936D01*
X102911598Y-77182443D01*
X103088402Y-77182443D01*
X103261808Y-77216936D01*
G37*
G36*
X121261808Y-77136936D02*
G01*
X121425153Y-77204595D01*
X121572159Y-77302822D01*
X121697178Y-77427841D01*
X121795405Y-77574847D01*
X121863064Y-77738192D01*
X121897557Y-77911598D01*
X121897557Y-78088402D01*
X121863064Y-78261808D01*
X121795405Y-78425153D01*
X121697178Y-78572159D01*
X121572159Y-78697178D01*
X121425153Y-78795405D01*
X121261808Y-78863064D01*
X121088402Y-78897557D01*
X120911598Y-78897557D01*
X120738192Y-78863064D01*
X120574847Y-78795405D01*
X120427841Y-78697178D01*
X120302822Y-78572159D01*
X120204595Y-78425153D01*
X120136936Y-78261808D01*
X120102443Y-78088402D01*
X120102443Y-77911598D01*
X120136936Y-77738192D01*
X120204595Y-77574847D01*
X120302822Y-77427841D01*
X120427841Y-77302822D01*
X120574847Y-77204595D01*
X120738192Y-77136936D01*
X120911598Y-77102443D01*
X121088402Y-77102443D01*
X121261808Y-77136936D01*
G37*
G36*
X32204610Y-68987434D02*
G01*
X32546393Y-69055419D01*
X32879866Y-69156577D01*
X33201818Y-69289934D01*
X33509149Y-69454206D01*
X33798898Y-69647810D01*
X34068276Y-69868883D01*
X34314687Y-70115294D01*
X34535760Y-70384672D01*
X34729364Y-70674421D01*
X34893636Y-70981752D01*
X35026993Y-71303704D01*
X35128151Y-71637177D01*
X35196136Y-71978960D01*
X35230293Y-72325761D01*
X35230293Y-72674239D01*
X35196136Y-73021040D01*
X35128151Y-73362823D01*
X35026993Y-73696296D01*
X34893636Y-74018248D01*
X34729364Y-74325579D01*
X34535760Y-74615328D01*
X34314687Y-74884706D01*
X34068276Y-75131117D01*
X33798898Y-75352190D01*
X33509149Y-75545794D01*
X33201818Y-75710066D01*
X32879866Y-75843423D01*
X32546393Y-75944581D01*
X32204610Y-76012566D01*
X31857809Y-76046723D01*
X31509331Y-76046723D01*
X31162530Y-76012566D01*
X30820747Y-75944581D01*
X30487274Y-75843423D01*
X30165322Y-75710066D01*
X29857991Y-75545794D01*
X29568242Y-75352190D01*
X29298864Y-75131117D01*
X29052453Y-74884706D01*
X28831380Y-74615328D01*
X28637776Y-74325579D01*
X28473504Y-74018248D01*
X28340147Y-73696296D01*
X28238989Y-73362823D01*
X28171004Y-73021040D01*
X28136847Y-72674239D01*
X28136847Y-72325761D01*
X28171004Y-71978960D01*
X28238989Y-71637177D01*
X28340147Y-71303704D01*
X28473504Y-70981752D01*
X28637776Y-70674421D01*
X28831380Y-70384672D01*
X29052453Y-70115294D01*
X29298864Y-69868883D01*
X29568242Y-69647810D01*
X29857991Y-69454206D01*
X30165322Y-69289934D01*
X30487274Y-69156577D01*
X30820747Y-69055419D01*
X31162530Y-68987434D01*
X31509331Y-68953277D01*
X31857809Y-68953277D01*
X32204610Y-68987434D01*
G37*
G36*
X103261808Y-72136936D02*
G01*
X103425153Y-72204595D01*
X103572159Y-72302822D01*
X103697178Y-72427841D01*
X103795405Y-72574847D01*
X103863064Y-72738192D01*
X103897557Y-72911598D01*
X103897557Y-73088402D01*
X103863064Y-73261808D01*
X103795405Y-73425153D01*
X103697178Y-73572159D01*
X103572159Y-73697178D01*
X103425153Y-73795405D01*
X103261808Y-73863064D01*
X103088402Y-73897557D01*
X102911598Y-73897557D01*
X102738192Y-73863064D01*
X102574847Y-73795405D01*
X102427841Y-73697178D01*
X102302822Y-73572159D01*
X102204595Y-73425153D01*
X102136936Y-73261808D01*
X102102443Y-73088402D01*
X102102443Y-72911598D01*
X102136936Y-72738192D01*
X102204595Y-72574847D01*
X102302822Y-72427841D01*
X102427841Y-72302822D01*
X102574847Y-72204595D01*
X102738192Y-72136936D01*
X102911598Y-72102443D01*
X103088402Y-72102443D01*
X103261808Y-72136936D01*
G37*
G36*
X169761546Y-66157797D02*
G01*
X169924728Y-66225389D01*
X170071588Y-66323518D01*
X170196482Y-66448412D01*
X170294611Y-66595272D01*
X170362203Y-66758454D01*
X170396661Y-66931687D01*
X170396661Y-67108313D01*
X170362203Y-67281546D01*
X170294611Y-67444728D01*
X170196482Y-67591588D01*
X170071588Y-67716482D01*
X169924728Y-67814611D01*
X169761546Y-67882203D01*
X169588313Y-67916661D01*
X169411687Y-67916661D01*
X169238454Y-67882203D01*
X169075272Y-67814611D01*
X168928412Y-67716482D01*
X168803518Y-67591588D01*
X168705389Y-67444728D01*
X168637797Y-67281546D01*
X168603339Y-67108313D01*
X168603339Y-66931687D01*
X168637797Y-66758454D01*
X168705389Y-66595272D01*
X168803518Y-66448412D01*
X168928412Y-66323518D01*
X169075272Y-66225389D01*
X169238454Y-66157797D01*
X169411687Y-66123339D01*
X169588313Y-66123339D01*
X169761546Y-66157797D01*
G37*
G36*
X169761546Y-63617797D02*
G01*
X169924728Y-63685389D01*
X170071588Y-63783518D01*
X170196482Y-63908412D01*
X170294611Y-64055272D01*
X170362203Y-64218454D01*
X170396661Y-64391687D01*
X170396661Y-64568313D01*
X170362203Y-64741546D01*
X170294611Y-64904728D01*
X170196482Y-65051588D01*
X170071588Y-65176482D01*
X169924728Y-65274611D01*
X169761546Y-65342203D01*
X169588313Y-65376661D01*
X169411687Y-65376661D01*
X169238454Y-65342203D01*
X169075272Y-65274611D01*
X168928412Y-65176482D01*
X168803518Y-65051588D01*
X168705389Y-64904728D01*
X168637797Y-64741546D01*
X168603339Y-64568313D01*
X168603339Y-64391687D01*
X168637797Y-64218454D01*
X168705389Y-64055272D01*
X168803518Y-63908412D01*
X168928412Y-63783518D01*
X169075272Y-63685389D01*
X169238454Y-63617797D01*
X169411687Y-63583339D01*
X169588313Y-63583339D01*
X169761546Y-63617797D01*
G37*
G36*
X169761546Y-61077797D02*
G01*
X169924728Y-61145389D01*
X170071588Y-61243518D01*
X170196482Y-61368412D01*
X170294611Y-61515272D01*
X170362203Y-61678454D01*
X170396661Y-61851687D01*
X170396661Y-62028313D01*
X170362203Y-62201546D01*
X170294611Y-62364728D01*
X170196482Y-62511588D01*
X170071588Y-62636482D01*
X169924728Y-62734611D01*
X169761546Y-62802203D01*
X169588313Y-62836661D01*
X169411687Y-62836661D01*
X169238454Y-62802203D01*
X169075272Y-62734611D01*
X168928412Y-62636482D01*
X168803518Y-62511588D01*
X168705389Y-62364728D01*
X168637797Y-62201546D01*
X168603339Y-62028313D01*
X168603339Y-61851687D01*
X168637797Y-61678454D01*
X168705389Y-61515272D01*
X168803518Y-61368412D01*
X168928412Y-61243518D01*
X169075272Y-61145389D01*
X169238454Y-61077797D01*
X169411687Y-61043339D01*
X169588313Y-61043339D01*
X169761546Y-61077797D01*
G37*
G36*
X40127032Y-59155644D02*
G01*
X40281159Y-59219485D01*
X40419869Y-59312168D01*
X40537832Y-59430131D01*
X40630515Y-59568841D01*
X40694356Y-59722968D01*
X40726902Y-59886587D01*
X40726902Y-60053413D01*
X40694356Y-60217032D01*
X40630515Y-60371159D01*
X40537832Y-60509869D01*
X40419869Y-60627832D01*
X40281159Y-60720515D01*
X40127032Y-60784356D01*
X39963413Y-60816902D01*
X39796587Y-60816902D01*
X39632968Y-60784356D01*
X39478841Y-60720515D01*
X39340131Y-60627832D01*
X39222168Y-60509869D01*
X39129485Y-60371159D01*
X39065644Y-60217032D01*
X39033098Y-60053413D01*
X39033098Y-59886587D01*
X39065644Y-59722968D01*
X39129485Y-59568841D01*
X39222168Y-59430131D01*
X39340131Y-59312168D01*
X39478841Y-59219485D01*
X39632968Y-59155644D01*
X39796587Y-59123098D01*
X39963413Y-59123098D01*
X40127032Y-59155644D01*
G37*
G36*
X55367032Y-59155644D02*
G01*
X55521159Y-59219485D01*
X55659869Y-59312168D01*
X55777832Y-59430131D01*
X55870515Y-59568841D01*
X55934356Y-59722968D01*
X55966902Y-59886587D01*
X55966902Y-60053413D01*
X55934356Y-60217032D01*
X55870515Y-60371159D01*
X55777832Y-60509869D01*
X55659869Y-60627832D01*
X55521159Y-60720515D01*
X55367032Y-60784356D01*
X55203413Y-60816902D01*
X55036587Y-60816902D01*
X54872968Y-60784356D01*
X54718841Y-60720515D01*
X54580131Y-60627832D01*
X54462168Y-60509869D01*
X54369485Y-60371159D01*
X54305644Y-60217032D01*
X54273098Y-60053413D01*
X54273098Y-59886587D01*
X54305644Y-59722968D01*
X54369485Y-59568841D01*
X54462168Y-59430131D01*
X54580131Y-59312168D01*
X54718841Y-59219485D01*
X54872968Y-59155644D01*
X55036587Y-59123098D01*
X55203413Y-59123098D01*
X55367032Y-59155644D01*
G37*
G36*
X170369517Y-58502882D02*
G01*
X170386062Y-58513938D01*
X170397118Y-58530483D01*
X170401000Y-58550000D01*
X170401000Y-60250000D01*
X170397118Y-60269517D01*
X170386062Y-60286062D01*
X170369517Y-60297118D01*
X170350000Y-60301000D01*
X168650000Y-60301000D01*
X168630483Y-60297118D01*
X168613938Y-60286062D01*
X168602882Y-60269517D01*
X168599000Y-60250000D01*
X168599000Y-58550000D01*
X168602882Y-58530483D01*
X168613938Y-58513938D01*
X168630483Y-58502882D01*
X168650000Y-58499000D01*
X170350000Y-58499000D01*
X170369517Y-58502882D01*
G37*
G36*
X40127032Y-56615644D02*
G01*
X40281159Y-56679485D01*
X40419869Y-56772168D01*
X40537832Y-56890131D01*
X40630515Y-57028841D01*
X40694356Y-57182968D01*
X40726902Y-57346587D01*
X40726902Y-57513413D01*
X40694356Y-57677032D01*
X40630515Y-57831159D01*
X40537832Y-57969869D01*
X40419869Y-58087832D01*
X40281159Y-58180515D01*
X40127032Y-58244356D01*
X39963413Y-58276902D01*
X39796587Y-58276902D01*
X39632968Y-58244356D01*
X39478841Y-58180515D01*
X39340131Y-58087832D01*
X39222168Y-57969869D01*
X39129485Y-57831159D01*
X39065644Y-57677032D01*
X39033098Y-57513413D01*
X39033098Y-57346587D01*
X39065644Y-57182968D01*
X39129485Y-57028841D01*
X39222168Y-56890131D01*
X39340131Y-56772168D01*
X39478841Y-56679485D01*
X39632968Y-56615644D01*
X39796587Y-56583098D01*
X39963413Y-56583098D01*
X40127032Y-56615644D01*
G37*
G36*
X55367032Y-56615644D02*
G01*
X55521159Y-56679485D01*
X55659869Y-56772168D01*
X55777832Y-56890131D01*
X55870515Y-57028841D01*
X55934356Y-57182968D01*
X55966902Y-57346587D01*
X55966902Y-57513413D01*
X55934356Y-57677032D01*
X55870515Y-57831159D01*
X55777832Y-57969869D01*
X55659869Y-58087832D01*
X55521159Y-58180515D01*
X55367032Y-58244356D01*
X55203413Y-58276902D01*
X55036587Y-58276902D01*
X54872968Y-58244356D01*
X54718841Y-58180515D01*
X54580131Y-58087832D01*
X54462168Y-57969869D01*
X54369485Y-57831159D01*
X54305644Y-57677032D01*
X54273098Y-57513413D01*
X54273098Y-57346587D01*
X54305644Y-57182968D01*
X54369485Y-57028841D01*
X54462168Y-56890131D01*
X54580131Y-56772168D01*
X54718841Y-56679485D01*
X54872968Y-56615644D01*
X55036587Y-56583098D01*
X55203413Y-56583098D01*
X55367032Y-56615644D01*
G37*
G36*
X67261808Y-54796936D02*
G01*
X67425153Y-54864595D01*
X67572159Y-54962822D01*
X67697178Y-55087841D01*
X67795405Y-55234847D01*
X67863064Y-55398192D01*
X67897557Y-55571598D01*
X67897557Y-55748402D01*
X67863064Y-55921808D01*
X67795405Y-56085153D01*
X67697178Y-56232159D01*
X67572159Y-56357178D01*
X67425153Y-56455405D01*
X67261808Y-56523064D01*
X67088402Y-56557557D01*
X66911598Y-56557557D01*
X66738192Y-56523064D01*
X66574847Y-56455405D01*
X66427841Y-56357178D01*
X66302822Y-56232159D01*
X66204595Y-56085153D01*
X66136936Y-55921808D01*
X66102443Y-55748402D01*
X66102443Y-55571598D01*
X66136936Y-55398192D01*
X66204595Y-55234847D01*
X66302822Y-55087841D01*
X66427841Y-54962822D01*
X66574847Y-54864595D01*
X66738192Y-54796936D01*
X66911598Y-54762443D01*
X67088402Y-54762443D01*
X67261808Y-54796936D01*
G37*
G36*
X26861546Y-54157797D02*
G01*
X27024728Y-54225389D01*
X27171588Y-54323518D01*
X27296482Y-54448412D01*
X27394611Y-54595272D01*
X27462203Y-54758454D01*
X27496661Y-54931687D01*
X27496661Y-55108313D01*
X27462203Y-55281546D01*
X27394611Y-55444728D01*
X27296482Y-55591588D01*
X27171588Y-55716482D01*
X27024728Y-55814611D01*
X26861546Y-55882203D01*
X26688313Y-55916661D01*
X26511687Y-55916661D01*
X26338454Y-55882203D01*
X26175272Y-55814611D01*
X26028412Y-55716482D01*
X25903518Y-55591588D01*
X25805389Y-55444728D01*
X25737797Y-55281546D01*
X25703339Y-55108313D01*
X25703339Y-54931687D01*
X25737797Y-54758454D01*
X25805389Y-54595272D01*
X25903518Y-54448412D01*
X26028412Y-54323518D01*
X26175272Y-54225389D01*
X26338454Y-54157797D01*
X26511687Y-54123339D01*
X26688313Y-54123339D01*
X26861546Y-54157797D01*
G37*
G36*
X40127032Y-54075644D02*
G01*
X40281159Y-54139485D01*
X40419869Y-54232168D01*
X40537832Y-54350131D01*
X40630515Y-54488841D01*
X40694356Y-54642968D01*
X40726902Y-54806587D01*
X40726902Y-54973413D01*
X40694356Y-55137032D01*
X40630515Y-55291159D01*
X40537832Y-55429869D01*
X40419869Y-55547832D01*
X40281159Y-55640515D01*
X40127032Y-55704356D01*
X39963413Y-55736902D01*
X39796587Y-55736902D01*
X39632968Y-55704356D01*
X39478841Y-55640515D01*
X39340131Y-55547832D01*
X39222168Y-55429869D01*
X39129485Y-55291159D01*
X39065644Y-55137032D01*
X39033098Y-54973413D01*
X39033098Y-54806587D01*
X39065644Y-54642968D01*
X39129485Y-54488841D01*
X39222168Y-54350131D01*
X39340131Y-54232168D01*
X39478841Y-54139485D01*
X39632968Y-54075644D01*
X39796587Y-54043098D01*
X39963413Y-54043098D01*
X40127032Y-54075644D01*
G37*
G36*
X55367032Y-54075644D02*
G01*
X55521159Y-54139485D01*
X55659869Y-54232168D01*
X55777832Y-54350131D01*
X55870515Y-54488841D01*
X55934356Y-54642968D01*
X55966902Y-54806587D01*
X55966902Y-54973413D01*
X55934356Y-55137032D01*
X55870515Y-55291159D01*
X55777832Y-55429869D01*
X55659869Y-55547832D01*
X55521159Y-55640515D01*
X55367032Y-55704356D01*
X55203413Y-55736902D01*
X55036587Y-55736902D01*
X54872968Y-55704356D01*
X54718841Y-55640515D01*
X54580131Y-55547832D01*
X54462168Y-55429869D01*
X54369485Y-55291159D01*
X54305644Y-55137032D01*
X54273098Y-54973413D01*
X54273098Y-54806587D01*
X54305644Y-54642968D01*
X54369485Y-54488841D01*
X54462168Y-54350131D01*
X54580131Y-54232168D01*
X54718841Y-54139485D01*
X54872968Y-54075644D01*
X55036587Y-54043098D01*
X55203413Y-54043098D01*
X55367032Y-54075644D01*
G37*
G36*
X26861546Y-51617797D02*
G01*
X27024728Y-51685389D01*
X27171588Y-51783518D01*
X27296482Y-51908412D01*
X27394611Y-52055272D01*
X27462203Y-52218454D01*
X27496661Y-52391687D01*
X27496661Y-52568313D01*
X27462203Y-52741546D01*
X27394611Y-52904728D01*
X27296482Y-53051588D01*
X27171588Y-53176482D01*
X27024728Y-53274611D01*
X26861546Y-53342203D01*
X26688313Y-53376661D01*
X26511687Y-53376661D01*
X26338454Y-53342203D01*
X26175272Y-53274611D01*
X26028412Y-53176482D01*
X25903518Y-53051588D01*
X25805389Y-52904728D01*
X25737797Y-52741546D01*
X25703339Y-52568313D01*
X25703339Y-52391687D01*
X25737797Y-52218454D01*
X25805389Y-52055272D01*
X25903518Y-51908412D01*
X26028412Y-51783518D01*
X26175272Y-51685389D01*
X26338454Y-51617797D01*
X26511687Y-51583339D01*
X26688313Y-51583339D01*
X26861546Y-51617797D01*
G37*
G36*
X40127032Y-51535644D02*
G01*
X40281159Y-51599485D01*
X40419869Y-51692168D01*
X40537832Y-51810131D01*
X40630515Y-51948841D01*
X40694356Y-52102968D01*
X40726902Y-52266587D01*
X40726902Y-52433413D01*
X40694356Y-52597032D01*
X40630515Y-52751159D01*
X40537832Y-52889869D01*
X40419869Y-53007832D01*
X40281159Y-53100515D01*
X40127032Y-53164356D01*
X39963413Y-53196902D01*
X39796587Y-53196902D01*
X39632968Y-53164356D01*
X39478841Y-53100515D01*
X39340131Y-53007832D01*
X39222168Y-52889869D01*
X39129485Y-52751159D01*
X39065644Y-52597032D01*
X39033098Y-52433413D01*
X39033098Y-52266587D01*
X39065644Y-52102968D01*
X39129485Y-51948841D01*
X39222168Y-51810131D01*
X39340131Y-51692168D01*
X39478841Y-51599485D01*
X39632968Y-51535644D01*
X39796587Y-51503098D01*
X39963413Y-51503098D01*
X40127032Y-51535644D01*
G37*
G36*
X55367032Y-51535644D02*
G01*
X55521159Y-51599485D01*
X55659869Y-51692168D01*
X55777832Y-51810131D01*
X55870515Y-51948841D01*
X55934356Y-52102968D01*
X55966902Y-52266587D01*
X55966902Y-52433413D01*
X55934356Y-52597032D01*
X55870515Y-52751159D01*
X55777832Y-52889869D01*
X55659869Y-53007832D01*
X55521159Y-53100515D01*
X55367032Y-53164356D01*
X55203413Y-53196902D01*
X55036587Y-53196902D01*
X54872968Y-53164356D01*
X54718841Y-53100515D01*
X54580131Y-53007832D01*
X54462168Y-52889869D01*
X54369485Y-52751159D01*
X54305644Y-52597032D01*
X54273098Y-52433413D01*
X54273098Y-52266587D01*
X54305644Y-52102968D01*
X54369485Y-51948841D01*
X54462168Y-51810131D01*
X54580131Y-51692168D01*
X54718841Y-51599485D01*
X54872968Y-51535644D01*
X55036587Y-51503098D01*
X55203413Y-51503098D01*
X55367032Y-51535644D01*
G37*
G36*
X139261808Y-50796936D02*
G01*
X139425153Y-50864595D01*
X139572159Y-50962822D01*
X139697178Y-51087841D01*
X139795405Y-51234847D01*
X139863064Y-51398192D01*
X139897557Y-51571598D01*
X139897557Y-51748402D01*
X139863064Y-51921808D01*
X139795405Y-52085153D01*
X139697178Y-52232159D01*
X139572159Y-52357178D01*
X139425153Y-52455405D01*
X139261808Y-52523064D01*
X139088402Y-52557557D01*
X138911598Y-52557557D01*
X138738192Y-52523064D01*
X138574847Y-52455405D01*
X138427841Y-52357178D01*
X138302822Y-52232159D01*
X138204595Y-52085153D01*
X138136936Y-51921808D01*
X138102443Y-51748402D01*
X138102443Y-51571598D01*
X138136936Y-51398192D01*
X138204595Y-51234847D01*
X138302822Y-51087841D01*
X138427841Y-50962822D01*
X138574847Y-50864595D01*
X138738192Y-50796936D01*
X138911598Y-50762443D01*
X139088402Y-50762443D01*
X139261808Y-50796936D01*
G37*
G36*
X85261808Y-49796936D02*
G01*
X85425153Y-49864595D01*
X85572159Y-49962822D01*
X85697178Y-50087841D01*
X85795405Y-50234847D01*
X85863064Y-50398192D01*
X85897557Y-50571598D01*
X85897557Y-50748402D01*
X85863064Y-50921808D01*
X85795405Y-51085153D01*
X85697178Y-51232159D01*
X85572159Y-51357178D01*
X85425153Y-51455405D01*
X85261808Y-51523064D01*
X85088402Y-51557557D01*
X84911598Y-51557557D01*
X84738192Y-51523064D01*
X84574847Y-51455405D01*
X84427841Y-51357178D01*
X84302822Y-51232159D01*
X84204595Y-51085153D01*
X84136936Y-50921808D01*
X84102443Y-50748402D01*
X84102443Y-50571598D01*
X84136936Y-50398192D01*
X84204595Y-50234847D01*
X84302822Y-50087841D01*
X84427841Y-49962822D01*
X84574847Y-49864595D01*
X84738192Y-49796936D01*
X84911598Y-49762443D01*
X85088402Y-49762443D01*
X85261808Y-49796936D01*
G37*
G36*
X67261808Y-49716936D02*
G01*
X67425153Y-49784595D01*
X67572159Y-49882822D01*
X67697178Y-50007841D01*
X67795405Y-50154847D01*
X67863064Y-50318192D01*
X67897557Y-50491598D01*
X67897557Y-50668402D01*
X67863064Y-50841808D01*
X67795405Y-51005153D01*
X67697178Y-51152159D01*
X67572159Y-51277178D01*
X67425153Y-51375405D01*
X67261808Y-51443064D01*
X67088402Y-51477557D01*
X66911598Y-51477557D01*
X66738192Y-51443064D01*
X66574847Y-51375405D01*
X66427841Y-51277178D01*
X66302822Y-51152159D01*
X66204595Y-51005153D01*
X66136936Y-50841808D01*
X66102443Y-50668402D01*
X66102443Y-50491598D01*
X66136936Y-50318192D01*
X66204595Y-50154847D01*
X66302822Y-50007841D01*
X66427841Y-49882822D01*
X66574847Y-49784595D01*
X66738192Y-49716936D01*
X66911598Y-49682443D01*
X67088402Y-49682443D01*
X67261808Y-49716936D01*
G37*
G36*
X26861546Y-49077797D02*
G01*
X27024728Y-49145389D01*
X27171588Y-49243518D01*
X27296482Y-49368412D01*
X27394611Y-49515272D01*
X27462203Y-49678454D01*
X27496661Y-49851687D01*
X27496661Y-50028313D01*
X27462203Y-50201546D01*
X27394611Y-50364728D01*
X27296482Y-50511588D01*
X27171588Y-50636482D01*
X27024728Y-50734611D01*
X26861546Y-50802203D01*
X26688313Y-50836661D01*
X26511687Y-50836661D01*
X26338454Y-50802203D01*
X26175272Y-50734611D01*
X26028412Y-50636482D01*
X25903518Y-50511588D01*
X25805389Y-50364728D01*
X25737797Y-50201546D01*
X25703339Y-50028313D01*
X25703339Y-49851687D01*
X25737797Y-49678454D01*
X25805389Y-49515272D01*
X25903518Y-49368412D01*
X26028412Y-49243518D01*
X26175272Y-49145389D01*
X26338454Y-49077797D01*
X26511687Y-49043339D01*
X26688313Y-49043339D01*
X26861546Y-49077797D01*
G37*
G36*
X40127032Y-48995644D02*
G01*
X40281159Y-49059485D01*
X40419869Y-49152168D01*
X40537832Y-49270131D01*
X40630515Y-49408841D01*
X40694356Y-49562968D01*
X40726902Y-49726587D01*
X40726902Y-49893413D01*
X40694356Y-50057032D01*
X40630515Y-50211159D01*
X40537832Y-50349869D01*
X40419869Y-50467832D01*
X40281159Y-50560515D01*
X40127032Y-50624356D01*
X39963413Y-50656902D01*
X39796587Y-50656902D01*
X39632968Y-50624356D01*
X39478841Y-50560515D01*
X39340131Y-50467832D01*
X39222168Y-50349869D01*
X39129485Y-50211159D01*
X39065644Y-50057032D01*
X39033098Y-49893413D01*
X39033098Y-49726587D01*
X39065644Y-49562968D01*
X39129485Y-49408841D01*
X39222168Y-49270131D01*
X39340131Y-49152168D01*
X39478841Y-49059485D01*
X39632968Y-48995644D01*
X39796587Y-48963098D01*
X39963413Y-48963098D01*
X40127032Y-48995644D01*
G37*
G36*
X55367032Y-48995644D02*
G01*
X55521159Y-49059485D01*
X55659869Y-49152168D01*
X55777832Y-49270131D01*
X55870515Y-49408841D01*
X55934356Y-49562968D01*
X55966902Y-49726587D01*
X55966902Y-49893413D01*
X55934356Y-50057032D01*
X55870515Y-50211159D01*
X55777832Y-50349869D01*
X55659869Y-50467832D01*
X55521159Y-50560515D01*
X55367032Y-50624356D01*
X55203413Y-50656902D01*
X55036587Y-50656902D01*
X54872968Y-50624356D01*
X54718841Y-50560515D01*
X54580131Y-50467832D01*
X54462168Y-50349869D01*
X54369485Y-50211159D01*
X54305644Y-50057032D01*
X54273098Y-49893413D01*
X54273098Y-49726587D01*
X54305644Y-49562968D01*
X54369485Y-49408841D01*
X54462168Y-49270131D01*
X54580131Y-49152168D01*
X54718841Y-49059485D01*
X54872968Y-48995644D01*
X55036587Y-48963098D01*
X55203413Y-48963098D01*
X55367032Y-48995644D01*
G37*
G36*
X157261808Y-46796936D02*
G01*
X157425153Y-46864595D01*
X157572159Y-46962822D01*
X157697178Y-47087841D01*
X157795405Y-47234847D01*
X157863064Y-47398192D01*
X157897557Y-47571598D01*
X157897557Y-47748402D01*
X157863064Y-47921808D01*
X157795405Y-48085153D01*
X157697178Y-48232159D01*
X157572159Y-48357178D01*
X157425153Y-48455405D01*
X157261808Y-48523064D01*
X157088402Y-48557557D01*
X156911598Y-48557557D01*
X156738192Y-48523064D01*
X156574847Y-48455405D01*
X156427841Y-48357178D01*
X156302822Y-48232159D01*
X156204595Y-48085153D01*
X156136936Y-47921808D01*
X156102443Y-47748402D01*
X156102443Y-47571598D01*
X156136936Y-47398192D01*
X156204595Y-47234847D01*
X156302822Y-47087841D01*
X156427841Y-46962822D01*
X156574847Y-46864595D01*
X156738192Y-46796936D01*
X156911598Y-46762443D01*
X157088402Y-46762443D01*
X157261808Y-46796936D01*
G37*
G36*
X27469517Y-46502882D02*
G01*
X27486062Y-46513938D01*
X27497118Y-46530483D01*
X27501000Y-46550000D01*
X27501000Y-48250000D01*
X27497118Y-48269517D01*
X27486062Y-48286062D01*
X27469517Y-48297118D01*
X27450000Y-48301000D01*
X25750000Y-48301000D01*
X25730483Y-48297118D01*
X25713938Y-48286062D01*
X25702882Y-48269517D01*
X25699000Y-48250000D01*
X25699000Y-46550000D01*
X25702882Y-46530483D01*
X25713938Y-46513938D01*
X25730483Y-46502882D01*
X25750000Y-46499000D01*
X27450000Y-46499000D01*
X27469517Y-46502882D01*
G37*
G36*
X40127032Y-46455644D02*
G01*
X40281159Y-46519485D01*
X40419869Y-46612168D01*
X40537832Y-46730131D01*
X40630515Y-46868841D01*
X40694356Y-47022968D01*
X40726902Y-47186587D01*
X40726902Y-47353413D01*
X40694356Y-47517032D01*
X40630515Y-47671159D01*
X40537832Y-47809869D01*
X40419869Y-47927832D01*
X40281159Y-48020515D01*
X40127032Y-48084356D01*
X39963413Y-48116902D01*
X39796587Y-48116902D01*
X39632968Y-48084356D01*
X39478841Y-48020515D01*
X39340131Y-47927832D01*
X39222168Y-47809869D01*
X39129485Y-47671159D01*
X39065644Y-47517032D01*
X39033098Y-47353413D01*
X39033098Y-47186587D01*
X39065644Y-47022968D01*
X39129485Y-46868841D01*
X39222168Y-46730131D01*
X39340131Y-46612168D01*
X39478841Y-46519485D01*
X39632968Y-46455644D01*
X39796587Y-46423098D01*
X39963413Y-46423098D01*
X40127032Y-46455644D01*
G37*
G36*
X55367032Y-46455644D02*
G01*
X55521159Y-46519485D01*
X55659869Y-46612168D01*
X55777832Y-46730131D01*
X55870515Y-46868841D01*
X55934356Y-47022968D01*
X55966902Y-47186587D01*
X55966902Y-47353413D01*
X55934356Y-47517032D01*
X55870515Y-47671159D01*
X55777832Y-47809869D01*
X55659869Y-47927832D01*
X55521159Y-48020515D01*
X55367032Y-48084356D01*
X55203413Y-48116902D01*
X55036587Y-48116902D01*
X54872968Y-48084356D01*
X54718841Y-48020515D01*
X54580131Y-47927832D01*
X54462168Y-47809869D01*
X54369485Y-47671159D01*
X54305644Y-47517032D01*
X54273098Y-47353413D01*
X54273098Y-47186587D01*
X54305644Y-47022968D01*
X54369485Y-46868841D01*
X54462168Y-46730131D01*
X54580131Y-46612168D01*
X54718841Y-46519485D01*
X54872968Y-46455644D01*
X55036587Y-46423098D01*
X55203413Y-46423098D01*
X55367032Y-46455644D01*
G37*
G36*
X65370417Y-46101982D02*
G01*
X65386962Y-46113038D01*
X65398018Y-46129583D01*
X65401900Y-46149100D01*
X65401900Y-47850900D01*
X65398018Y-47870417D01*
X65386962Y-47886962D01*
X65370417Y-47898018D01*
X65350900Y-47901900D01*
X63649100Y-47901900D01*
X63629583Y-47898018D01*
X63613038Y-47886962D01*
X63601982Y-47870417D01*
X63598100Y-47850900D01*
X63598100Y-46149100D01*
X63601982Y-46129583D01*
X63613038Y-46113038D01*
X63629583Y-46101982D01*
X63649100Y-46098100D01*
X65350900Y-46098100D01*
X65370417Y-46101982D01*
G37*
G36*
X69761808Y-46136936D02*
G01*
X69925153Y-46204595D01*
X70072159Y-46302822D01*
X70197178Y-46427841D01*
X70295405Y-46574847D01*
X70363064Y-46738192D01*
X70397557Y-46911598D01*
X70397557Y-47088402D01*
X70363064Y-47261808D01*
X70295405Y-47425153D01*
X70197178Y-47572159D01*
X70072159Y-47697178D01*
X69925153Y-47795405D01*
X69761808Y-47863064D01*
X69588402Y-47897557D01*
X69411598Y-47897557D01*
X69238192Y-47863064D01*
X69074847Y-47795405D01*
X68927841Y-47697178D01*
X68802822Y-47572159D01*
X68704595Y-47425153D01*
X68636936Y-47261808D01*
X68602443Y-47088402D01*
X68602443Y-46911598D01*
X68636936Y-46738192D01*
X68704595Y-46574847D01*
X68802822Y-46427841D01*
X68927841Y-46302822D01*
X69074847Y-46204595D01*
X69238192Y-46136936D01*
X69411598Y-46102443D01*
X69588402Y-46102443D01*
X69761808Y-46136936D01*
G37*
G36*
X121261808Y-45796936D02*
G01*
X121425153Y-45864595D01*
X121572159Y-45962822D01*
X121697178Y-46087841D01*
X121795405Y-46234847D01*
X121863064Y-46398192D01*
X121897557Y-46571598D01*
X121897557Y-46748402D01*
X121863064Y-46921808D01*
X121795405Y-47085153D01*
X121697178Y-47232159D01*
X121572159Y-47357178D01*
X121425153Y-47455405D01*
X121261808Y-47523064D01*
X121088402Y-47557557D01*
X120911598Y-47557557D01*
X120738192Y-47523064D01*
X120574847Y-47455405D01*
X120427841Y-47357178D01*
X120302822Y-47232159D01*
X120204595Y-47085153D01*
X120136936Y-46921808D01*
X120102443Y-46748402D01*
X120102443Y-46571598D01*
X120136936Y-46398192D01*
X120204595Y-46234847D01*
X120302822Y-46087841D01*
X120427841Y-45962822D01*
X120574847Y-45864595D01*
X120738192Y-45796936D01*
X120911598Y-45762443D01*
X121088402Y-45762443D01*
X121261808Y-45796936D01*
G37*
G36*
X139261808Y-45716936D02*
G01*
X139425153Y-45784595D01*
X139572159Y-45882822D01*
X139697178Y-46007841D01*
X139795405Y-46154847D01*
X139863064Y-46318192D01*
X139897557Y-46491598D01*
X139897557Y-46668402D01*
X139863064Y-46841808D01*
X139795405Y-47005153D01*
X139697178Y-47152159D01*
X139572159Y-47277178D01*
X139425153Y-47375405D01*
X139261808Y-47443064D01*
X139088402Y-47477557D01*
X138911598Y-47477557D01*
X138738192Y-47443064D01*
X138574847Y-47375405D01*
X138427841Y-47277178D01*
X138302822Y-47152159D01*
X138204595Y-47005153D01*
X138136936Y-46841808D01*
X138102443Y-46668402D01*
X138102443Y-46491598D01*
X138136936Y-46318192D01*
X138204595Y-46154847D01*
X138302822Y-46007841D01*
X138427841Y-45882822D01*
X138574847Y-45784595D01*
X138738192Y-45716936D01*
X138911598Y-45682443D01*
X139088402Y-45682443D01*
X139261808Y-45716936D01*
G37*
G36*
X85261808Y-44716936D02*
G01*
X85425153Y-44784595D01*
X85572159Y-44882822D01*
X85697178Y-45007841D01*
X85795405Y-45154847D01*
X85863064Y-45318192D01*
X85897557Y-45491598D01*
X85897557Y-45668402D01*
X85863064Y-45841808D01*
X85795405Y-46005153D01*
X85697178Y-46152159D01*
X85572159Y-46277178D01*
X85425153Y-46375405D01*
X85261808Y-46443064D01*
X85088402Y-46477557D01*
X84911598Y-46477557D01*
X84738192Y-46443064D01*
X84574847Y-46375405D01*
X84427841Y-46277178D01*
X84302822Y-46152159D01*
X84204595Y-46005153D01*
X84136936Y-45841808D01*
X84102443Y-45668402D01*
X84102443Y-45491598D01*
X84136936Y-45318192D01*
X84204595Y-45154847D01*
X84302822Y-45007841D01*
X84427841Y-44882822D01*
X84574847Y-44784595D01*
X84738192Y-44716936D01*
X84911598Y-44682443D01*
X85088402Y-44682443D01*
X85261808Y-44716936D01*
G37*
G36*
X67870417Y-44601982D02*
G01*
X67886962Y-44613038D01*
X67898018Y-44629583D01*
X67901900Y-44649100D01*
X67901900Y-46350900D01*
X67898018Y-46370417D01*
X67886962Y-46386962D01*
X67870417Y-46398018D01*
X67850900Y-46401900D01*
X66149100Y-46401900D01*
X66129583Y-46398018D01*
X66113038Y-46386962D01*
X66101982Y-46370417D01*
X66098100Y-46350900D01*
X66098100Y-44649100D01*
X66101982Y-44629583D01*
X66113038Y-44613038D01*
X66129583Y-44601982D01*
X66149100Y-44598100D01*
X67850900Y-44598100D01*
X67870417Y-44601982D01*
G37*
G36*
X40127032Y-43915644D02*
G01*
X40281159Y-43979485D01*
X40419869Y-44072168D01*
X40537832Y-44190131D01*
X40630515Y-44328841D01*
X40694356Y-44482968D01*
X40726902Y-44646587D01*
X40726902Y-44813413D01*
X40694356Y-44977032D01*
X40630515Y-45131159D01*
X40537832Y-45269869D01*
X40419869Y-45387832D01*
X40281159Y-45480515D01*
X40127032Y-45544356D01*
X39963413Y-45576902D01*
X39796587Y-45576902D01*
X39632968Y-45544356D01*
X39478841Y-45480515D01*
X39340131Y-45387832D01*
X39222168Y-45269869D01*
X39129485Y-45131159D01*
X39065644Y-44977032D01*
X39033098Y-44813413D01*
X39033098Y-44646587D01*
X39065644Y-44482968D01*
X39129485Y-44328841D01*
X39222168Y-44190131D01*
X39340131Y-44072168D01*
X39478841Y-43979485D01*
X39632968Y-43915644D01*
X39796587Y-43883098D01*
X39963413Y-43883098D01*
X40127032Y-43915644D01*
G37*
G36*
X55367032Y-43915644D02*
G01*
X55521159Y-43979485D01*
X55659869Y-44072168D01*
X55777832Y-44190131D01*
X55870515Y-44328841D01*
X55934356Y-44482968D01*
X55966902Y-44646587D01*
X55966902Y-44813413D01*
X55934356Y-44977032D01*
X55870515Y-45131159D01*
X55777832Y-45269869D01*
X55659869Y-45387832D01*
X55521159Y-45480515D01*
X55367032Y-45544356D01*
X55203413Y-45576902D01*
X55036587Y-45576902D01*
X54872968Y-45544356D01*
X54718841Y-45480515D01*
X54580131Y-45387832D01*
X54462168Y-45269869D01*
X54369485Y-45131159D01*
X54305644Y-44977032D01*
X54273098Y-44813413D01*
X54273098Y-44646587D01*
X54305644Y-44482968D01*
X54369485Y-44328841D01*
X54462168Y-44190131D01*
X54580131Y-44072168D01*
X54718841Y-43979485D01*
X54872968Y-43915644D01*
X55036587Y-43883098D01*
X55203413Y-43883098D01*
X55367032Y-43915644D01*
G37*
G36*
X137370417Y-42101982D02*
G01*
X137386962Y-42113038D01*
X137398018Y-42129583D01*
X137401900Y-42149100D01*
X137401900Y-43850900D01*
X137398018Y-43870417D01*
X137386962Y-43886962D01*
X137370417Y-43898018D01*
X137350900Y-43901900D01*
X135649100Y-43901900D01*
X135629583Y-43898018D01*
X135613038Y-43886962D01*
X135601982Y-43870417D01*
X135598100Y-43850900D01*
X135598100Y-42149100D01*
X135601982Y-42129583D01*
X135613038Y-42113038D01*
X135629583Y-42101982D01*
X135649100Y-42098100D01*
X137350900Y-42098100D01*
X137370417Y-42101982D01*
G37*
G36*
X141761808Y-42136936D02*
G01*
X141925153Y-42204595D01*
X142072159Y-42302822D01*
X142197178Y-42427841D01*
X142295405Y-42574847D01*
X142363064Y-42738192D01*
X142397557Y-42911598D01*
X142397557Y-43088402D01*
X142363064Y-43261808D01*
X142295405Y-43425153D01*
X142197178Y-43572159D01*
X142072159Y-43697178D01*
X141925153Y-43795405D01*
X141761808Y-43863064D01*
X141588402Y-43897557D01*
X141411598Y-43897557D01*
X141238192Y-43863064D01*
X141074847Y-43795405D01*
X140927841Y-43697178D01*
X140802822Y-43572159D01*
X140704595Y-43425153D01*
X140636936Y-43261808D01*
X140602443Y-43088402D01*
X140602443Y-42911598D01*
X140636936Y-42738192D01*
X140704595Y-42574847D01*
X140802822Y-42427841D01*
X140927841Y-42302822D01*
X141074847Y-42204595D01*
X141238192Y-42136936D01*
X141411598Y-42102443D01*
X141588402Y-42102443D01*
X141761808Y-42136936D01*
G37*
G36*
X157261808Y-41716936D02*
G01*
X157425153Y-41784595D01*
X157572159Y-41882822D01*
X157697178Y-42007841D01*
X157795405Y-42154847D01*
X157863064Y-42318192D01*
X157897557Y-42491598D01*
X157897557Y-42668402D01*
X157863064Y-42841808D01*
X157795405Y-43005153D01*
X157697178Y-43152159D01*
X157572159Y-43277178D01*
X157425153Y-43375405D01*
X157261808Y-43443064D01*
X157088402Y-43477557D01*
X156911598Y-43477557D01*
X156738192Y-43443064D01*
X156574847Y-43375405D01*
X156427841Y-43277178D01*
X156302822Y-43152159D01*
X156204595Y-43005153D01*
X156136936Y-42841808D01*
X156102443Y-42668402D01*
X156102443Y-42491598D01*
X156136936Y-42318192D01*
X156204595Y-42154847D01*
X156302822Y-42007841D01*
X156427841Y-41882822D01*
X156574847Y-41784595D01*
X156738192Y-41716936D01*
X156911598Y-41682443D01*
X157088402Y-41682443D01*
X157261808Y-41716936D01*
G37*
G36*
X40127032Y-41375644D02*
G01*
X40281159Y-41439485D01*
X40419869Y-41532168D01*
X40537832Y-41650131D01*
X40630515Y-41788841D01*
X40694356Y-41942968D01*
X40726902Y-42106587D01*
X40726902Y-42273413D01*
X40694356Y-42437032D01*
X40630515Y-42591159D01*
X40537832Y-42729869D01*
X40419869Y-42847832D01*
X40281159Y-42940515D01*
X40127032Y-43004356D01*
X39963413Y-43036902D01*
X39796587Y-43036902D01*
X39632968Y-43004356D01*
X39478841Y-42940515D01*
X39340131Y-42847832D01*
X39222168Y-42729869D01*
X39129485Y-42591159D01*
X39065644Y-42437032D01*
X39033098Y-42273413D01*
X39033098Y-42106587D01*
X39065644Y-41942968D01*
X39129485Y-41788841D01*
X39222168Y-41650131D01*
X39340131Y-41532168D01*
X39478841Y-41439485D01*
X39632968Y-41375644D01*
X39796587Y-41343098D01*
X39963413Y-41343098D01*
X40127032Y-41375644D01*
G37*
G36*
X55367032Y-41375644D02*
G01*
X55521159Y-41439485D01*
X55659869Y-41532168D01*
X55777832Y-41650131D01*
X55870515Y-41788841D01*
X55934356Y-41942968D01*
X55966902Y-42106587D01*
X55966902Y-42273413D01*
X55934356Y-42437032D01*
X55870515Y-42591159D01*
X55777832Y-42729869D01*
X55659869Y-42847832D01*
X55521159Y-42940515D01*
X55367032Y-43004356D01*
X55203413Y-43036902D01*
X55036587Y-43036902D01*
X54872968Y-43004356D01*
X54718841Y-42940515D01*
X54580131Y-42847832D01*
X54462168Y-42729869D01*
X54369485Y-42591159D01*
X54305644Y-42437032D01*
X54273098Y-42273413D01*
X54273098Y-42106587D01*
X54305644Y-41942968D01*
X54369485Y-41788841D01*
X54462168Y-41650131D01*
X54580131Y-41532168D01*
X54718841Y-41439485D01*
X54872968Y-41375644D01*
X55036587Y-41343098D01*
X55203413Y-41343098D01*
X55367032Y-41375644D01*
G37*
G36*
X32188975Y-41077032D02*
G01*
X32306879Y-41125869D01*
X32412990Y-41196770D01*
X32503230Y-41287010D01*
X32574131Y-41393121D01*
X32622968Y-41511025D01*
X32647865Y-41636191D01*
X32651000Y-41700000D01*
X32651000Y-42300000D01*
X32647865Y-42363809D01*
X32622968Y-42488975D01*
X32574131Y-42606879D01*
X32503230Y-42712990D01*
X32412990Y-42803230D01*
X32306879Y-42874131D01*
X32188975Y-42922968D01*
X32063809Y-42947865D01*
X31936191Y-42947865D01*
X31836191Y-42947865D01*
X31711025Y-42922968D01*
X31593121Y-42874131D01*
X31487010Y-42803230D01*
X31396770Y-42712990D01*
X31325869Y-42606879D01*
X31277032Y-42488975D01*
X31252135Y-42363809D01*
X31249000Y-42300000D01*
X31249000Y-41700000D01*
X31252135Y-41636191D01*
X31277032Y-41511025D01*
X31325869Y-41393121D01*
X31396770Y-41287010D01*
X31487010Y-41196770D01*
X31593121Y-41125869D01*
X31711025Y-41077032D01*
X31836191Y-41052135D01*
X31963809Y-41052135D01*
X32063809Y-41052135D01*
X32188975Y-41077032D01*
G37*
G36*
X83370417Y-41101982D02*
G01*
X83386962Y-41113038D01*
X83398018Y-41129583D01*
X83401900Y-41149100D01*
X83401900Y-42850900D01*
X83398018Y-42870417D01*
X83386962Y-42886962D01*
X83370417Y-42898018D01*
X83350900Y-42901900D01*
X81649100Y-42901900D01*
X81629583Y-42898018D01*
X81613038Y-42886962D01*
X81601982Y-42870417D01*
X81598100Y-42850900D01*
X81598100Y-41149100D01*
X81601982Y-41129583D01*
X81613038Y-41113038D01*
X81629583Y-41101982D01*
X81649100Y-41098100D01*
X83350900Y-41098100D01*
X83370417Y-41101982D01*
G37*
G36*
X87761808Y-41136936D02*
G01*
X87925153Y-41204595D01*
X88072159Y-41302822D01*
X88197178Y-41427841D01*
X88295405Y-41574847D01*
X88363064Y-41738192D01*
X88397557Y-41911598D01*
X88397557Y-42088402D01*
X88363064Y-42261808D01*
X88295405Y-42425153D01*
X88197178Y-42572159D01*
X88072159Y-42697178D01*
X87925153Y-42795405D01*
X87761808Y-42863064D01*
X87588402Y-42897557D01*
X87411598Y-42897557D01*
X87238192Y-42863064D01*
X87074847Y-42795405D01*
X86927841Y-42697178D01*
X86802822Y-42572159D01*
X86704595Y-42425153D01*
X86636936Y-42261808D01*
X86602443Y-42088402D01*
X86602443Y-41911598D01*
X86636936Y-41738192D01*
X86704595Y-41574847D01*
X86802822Y-41427841D01*
X86927841Y-41302822D01*
X87074847Y-41204595D01*
X87238192Y-41136936D01*
X87411598Y-41102443D01*
X87588402Y-41102443D01*
X87761808Y-41136936D01*
G37*
G36*
X103261808Y-40796936D02*
G01*
X103425153Y-40864595D01*
X103572159Y-40962822D01*
X103697178Y-41087841D01*
X103795405Y-41234847D01*
X103863064Y-41398192D01*
X103897557Y-41571598D01*
X103897557Y-41748402D01*
X103863064Y-41921808D01*
X103795405Y-42085153D01*
X103697178Y-42232159D01*
X103572159Y-42357178D01*
X103425153Y-42455405D01*
X103261808Y-42523064D01*
X103088402Y-42557557D01*
X102911598Y-42557557D01*
X102738192Y-42523064D01*
X102574847Y-42455405D01*
X102427841Y-42357178D01*
X102302822Y-42232159D01*
X102204595Y-42085153D01*
X102136936Y-41921808D01*
X102102443Y-41748402D01*
X102102443Y-41571598D01*
X102136936Y-41398192D01*
X102204595Y-41234847D01*
X102302822Y-41087841D01*
X102427841Y-40962822D01*
X102574847Y-40864595D01*
X102738192Y-40796936D01*
X102911598Y-40762443D01*
X103088402Y-40762443D01*
X103261808Y-40796936D01*
G37*
G36*
X121261808Y-40716936D02*
G01*
X121425153Y-40784595D01*
X121572159Y-40882822D01*
X121697178Y-41007841D01*
X121795405Y-41154847D01*
X121863064Y-41318192D01*
X121897557Y-41491598D01*
X121897557Y-41668402D01*
X121863064Y-41841808D01*
X121795405Y-42005153D01*
X121697178Y-42152159D01*
X121572159Y-42277178D01*
X121425153Y-42375405D01*
X121261808Y-42443064D01*
X121088402Y-42477557D01*
X120911598Y-42477557D01*
X120738192Y-42443064D01*
X120574847Y-42375405D01*
X120427841Y-42277178D01*
X120302822Y-42152159D01*
X120204595Y-42005153D01*
X120136936Y-41841808D01*
X120102443Y-41668402D01*
X120102443Y-41491598D01*
X120136936Y-41318192D01*
X120204595Y-41154847D01*
X120302822Y-41007841D01*
X120427841Y-40882822D01*
X120574847Y-40784595D01*
X120738192Y-40716936D01*
X120911598Y-40682443D01*
X121088402Y-40682443D01*
X121261808Y-40716936D01*
G37*
G36*
X139870417Y-40601982D02*
G01*
X139886962Y-40613038D01*
X139898018Y-40629583D01*
X139901900Y-40649100D01*
X139901900Y-42350900D01*
X139898018Y-42370417D01*
X139886962Y-42386962D01*
X139870417Y-42398018D01*
X139850900Y-42401900D01*
X138149100Y-42401900D01*
X138129583Y-42398018D01*
X138113038Y-42386962D01*
X138101982Y-42370417D01*
X138098100Y-42350900D01*
X138098100Y-40649100D01*
X138101982Y-40629583D01*
X138113038Y-40613038D01*
X138129583Y-40601982D01*
X138149100Y-40598100D01*
X139850900Y-40598100D01*
X139870417Y-40601982D01*
G37*
G36*
X27588975Y-39977032D02*
G01*
X27706879Y-40025869D01*
X27812990Y-40096770D01*
X27903230Y-40187010D01*
X27974131Y-40293121D01*
X28022968Y-40411025D01*
X28047865Y-40536191D01*
X28051000Y-40600000D01*
X28051000Y-41200000D01*
X28047865Y-41263809D01*
X28022968Y-41388975D01*
X27974131Y-41506879D01*
X27903230Y-41612990D01*
X27812990Y-41703230D01*
X27706879Y-41774131D01*
X27588975Y-41822968D01*
X27463809Y-41847865D01*
X27336191Y-41847865D01*
X27211025Y-41822968D01*
X27093121Y-41774131D01*
X26987010Y-41703230D01*
X26896770Y-41612990D01*
X26825869Y-41506879D01*
X26777032Y-41388975D01*
X26752135Y-41263809D01*
X26749000Y-41200000D01*
X26749000Y-40600000D01*
X26752135Y-40536191D01*
X26777032Y-40411025D01*
X26825869Y-40293121D01*
X26896770Y-40187010D01*
X26987010Y-40096770D01*
X27093121Y-40025869D01*
X27211025Y-39977032D01*
X27336191Y-39952135D01*
X27463809Y-39952135D01*
X27588975Y-39977032D01*
G37*
G36*
X36688975Y-39977032D02*
G01*
X36806879Y-40025869D01*
X36912990Y-40096770D01*
X37003230Y-40187010D01*
X37074131Y-40293121D01*
X37122968Y-40411025D01*
X37147865Y-40536191D01*
X37151000Y-40600000D01*
X37151000Y-41200000D01*
X37147865Y-41263809D01*
X37122968Y-41388975D01*
X37074131Y-41506879D01*
X37003230Y-41612990D01*
X36912990Y-41703230D01*
X36806879Y-41774131D01*
X36688975Y-41822968D01*
X36563809Y-41847865D01*
X36436191Y-41847865D01*
X36311025Y-41822968D01*
X36193121Y-41774131D01*
X36087010Y-41703230D01*
X35996770Y-41612990D01*
X35925869Y-41506879D01*
X35877032Y-41388975D01*
X35852135Y-41263809D01*
X35849000Y-41200000D01*
X35849000Y-40600000D01*
X35852135Y-40536191D01*
X35877032Y-40411025D01*
X35925869Y-40293121D01*
X35996770Y-40187010D01*
X36087010Y-40096770D01*
X36193121Y-40025869D01*
X36311025Y-39977032D01*
X36436191Y-39952135D01*
X36563809Y-39952135D01*
X36688975Y-39977032D01*
G37*
G36*
X85870417Y-39601982D02*
G01*
X85886962Y-39613038D01*
X85898018Y-39629583D01*
X85901900Y-39649100D01*
X85901900Y-41350900D01*
X85898018Y-41370417D01*
X85886962Y-41386962D01*
X85870417Y-41398018D01*
X85850900Y-41401900D01*
X84149100Y-41401900D01*
X84129583Y-41398018D01*
X84113038Y-41386962D01*
X84101982Y-41370417D01*
X84098100Y-41350900D01*
X84098100Y-39649100D01*
X84101982Y-39629583D01*
X84113038Y-39613038D01*
X84129583Y-39601982D01*
X84149100Y-39598100D01*
X85850900Y-39598100D01*
X85870417Y-39601982D01*
G37*
G36*
X40127032Y-38835644D02*
G01*
X40281159Y-38899485D01*
X40419869Y-38992168D01*
X40537832Y-39110131D01*
X40630515Y-39248841D01*
X40694356Y-39402968D01*
X40726902Y-39566587D01*
X40726902Y-39733413D01*
X40694356Y-39897032D01*
X40630515Y-40051159D01*
X40537832Y-40189869D01*
X40419869Y-40307832D01*
X40281159Y-40400515D01*
X40127032Y-40464356D01*
X39963413Y-40496902D01*
X39796587Y-40496902D01*
X39632968Y-40464356D01*
X39478841Y-40400515D01*
X39340131Y-40307832D01*
X39222168Y-40189869D01*
X39129485Y-40051159D01*
X39065644Y-39897032D01*
X39033098Y-39733413D01*
X39033098Y-39566587D01*
X39065644Y-39402968D01*
X39129485Y-39248841D01*
X39222168Y-39110131D01*
X39340131Y-38992168D01*
X39478841Y-38899485D01*
X39632968Y-38835644D01*
X39796587Y-38803098D01*
X39963413Y-38803098D01*
X40127032Y-38835644D01*
G37*
G36*
X55367032Y-38835644D02*
G01*
X55521159Y-38899485D01*
X55659869Y-38992168D01*
X55777832Y-39110131D01*
X55870515Y-39248841D01*
X55934356Y-39402968D01*
X55966902Y-39566587D01*
X55966902Y-39733413D01*
X55934356Y-39897032D01*
X55870515Y-40051159D01*
X55777832Y-40189869D01*
X55659869Y-40307832D01*
X55521159Y-40400515D01*
X55367032Y-40464356D01*
X55203413Y-40496902D01*
X55036587Y-40496902D01*
X54872968Y-40464356D01*
X54718841Y-40400515D01*
X54580131Y-40307832D01*
X54462168Y-40189869D01*
X54369485Y-40051159D01*
X54305644Y-39897032D01*
X54273098Y-39733413D01*
X54273098Y-39566587D01*
X54305644Y-39402968D01*
X54369485Y-39248841D01*
X54462168Y-39110131D01*
X54580131Y-38992168D01*
X54718841Y-38899485D01*
X54872968Y-38835644D01*
X55036587Y-38803098D01*
X55203413Y-38803098D01*
X55367032Y-38835644D01*
G37*
G36*
X29932518Y-38533491D02*
G01*
X30077589Y-38593581D01*
X30208149Y-38680819D01*
X30319181Y-38791851D01*
X30406419Y-38922411D01*
X30466509Y-39067482D01*
X30497143Y-39221488D01*
X30497143Y-39378512D01*
X30466509Y-39532518D01*
X30406419Y-39677589D01*
X30319181Y-39808149D01*
X30208149Y-39919181D01*
X30077589Y-40006419D01*
X29932518Y-40066509D01*
X29778512Y-40097143D01*
X29621488Y-40097143D01*
X29467482Y-40066509D01*
X29322411Y-40006419D01*
X29191851Y-39919181D01*
X29080819Y-39808149D01*
X28993581Y-39677589D01*
X28933491Y-39532518D01*
X28902857Y-39378512D01*
X28902857Y-39221488D01*
X28933491Y-39067482D01*
X28993581Y-38922411D01*
X29080819Y-38791851D01*
X29191851Y-38680819D01*
X29322411Y-38593581D01*
X29467482Y-38533491D01*
X29621488Y-38502857D01*
X29778512Y-38502857D01*
X29932518Y-38533491D01*
G37*
G36*
X34432518Y-38533491D02*
G01*
X34577589Y-38593581D01*
X34708149Y-38680819D01*
X34819181Y-38791851D01*
X34906419Y-38922411D01*
X34966509Y-39067482D01*
X34997143Y-39221488D01*
X34997143Y-39378512D01*
X34966509Y-39532518D01*
X34906419Y-39677589D01*
X34819181Y-39808149D01*
X34708149Y-39919181D01*
X34577589Y-40006419D01*
X34432518Y-40066509D01*
X34278512Y-40097143D01*
X34121488Y-40097143D01*
X33967482Y-40066509D01*
X33822411Y-40006419D01*
X33691851Y-39919181D01*
X33580819Y-39808149D01*
X33493581Y-39677589D01*
X33433491Y-39532518D01*
X33402857Y-39378512D01*
X33402857Y-39221488D01*
X33433491Y-39067482D01*
X33493581Y-38922411D01*
X33580819Y-38791851D01*
X33691851Y-38680819D01*
X33822411Y-38593581D01*
X33967482Y-38533491D01*
X34121488Y-38502857D01*
X34278512Y-38502857D01*
X34432518Y-38533491D01*
G37*
G36*
X155370417Y-38101982D02*
G01*
X155386962Y-38113038D01*
X155398018Y-38129583D01*
X155401900Y-38149100D01*
X155401900Y-39850900D01*
X155398018Y-39870417D01*
X155386962Y-39886962D01*
X155370417Y-39898018D01*
X155350900Y-39901900D01*
X153649100Y-39901900D01*
X153629583Y-39898018D01*
X153613038Y-39886962D01*
X153601982Y-39870417D01*
X153598100Y-39850900D01*
X153598100Y-38149100D01*
X153601982Y-38129583D01*
X153613038Y-38113038D01*
X153629583Y-38101982D01*
X153649100Y-38098100D01*
X155350900Y-38098100D01*
X155370417Y-38101982D01*
G37*
G36*
X159761808Y-38136936D02*
G01*
X159925153Y-38204595D01*
X160072159Y-38302822D01*
X160197178Y-38427841D01*
X160295405Y-38574847D01*
X160363064Y-38738192D01*
X160397557Y-38911598D01*
X160397557Y-39088402D01*
X160363064Y-39261808D01*
X160295405Y-39425153D01*
X160197178Y-39572159D01*
X160072159Y-39697178D01*
X159925153Y-39795405D01*
X159761808Y-39863064D01*
X159588402Y-39897557D01*
X159411598Y-39897557D01*
X159238192Y-39863064D01*
X159074847Y-39795405D01*
X158927841Y-39697178D01*
X158802822Y-39572159D01*
X158704595Y-39425153D01*
X158636936Y-39261808D01*
X158602443Y-39088402D01*
X158602443Y-38911598D01*
X158636936Y-38738192D01*
X158704595Y-38574847D01*
X158802822Y-38427841D01*
X158927841Y-38302822D01*
X159074847Y-38204595D01*
X159238192Y-38136936D01*
X159411598Y-38102443D01*
X159588402Y-38102443D01*
X159761808Y-38136936D01*
G37*
G36*
X119370417Y-37101982D02*
G01*
X119386962Y-37113038D01*
X119398018Y-37129583D01*
X119401900Y-37149100D01*
X119401900Y-38850900D01*
X119398018Y-38870417D01*
X119386962Y-38886962D01*
X119370417Y-38898018D01*
X119350900Y-38901900D01*
X117649100Y-38901900D01*
X117629583Y-38898018D01*
X117613038Y-38886962D01*
X117601982Y-38870417D01*
X117598100Y-38850900D01*
X117598100Y-37149100D01*
X117601982Y-37129583D01*
X117613038Y-37113038D01*
X117629583Y-37101982D01*
X117649100Y-37098100D01*
X119350900Y-37098100D01*
X119370417Y-37101982D01*
G37*
G36*
X123761808Y-37136936D02*
G01*
X123925153Y-37204595D01*
X124072159Y-37302822D01*
X124197178Y-37427841D01*
X124295405Y-37574847D01*
X124363064Y-37738192D01*
X124397557Y-37911598D01*
X124397557Y-38088402D01*
X124363064Y-38261808D01*
X124295405Y-38425153D01*
X124197178Y-38572159D01*
X124072159Y-38697178D01*
X123925153Y-38795405D01*
X123761808Y-38863064D01*
X123588402Y-38897557D01*
X123411598Y-38897557D01*
X123238192Y-38863064D01*
X123074847Y-38795405D01*
X122927841Y-38697178D01*
X122802822Y-38572159D01*
X122704595Y-38425153D01*
X122636936Y-38261808D01*
X122602443Y-38088402D01*
X122602443Y-37911598D01*
X122636936Y-37738192D01*
X122704595Y-37574847D01*
X122802822Y-37427841D01*
X122927841Y-37302822D01*
X123074847Y-37204595D01*
X123238192Y-37136936D01*
X123411598Y-37102443D01*
X123588402Y-37102443D01*
X123761808Y-37136936D01*
G37*
G36*
X157870417Y-36601982D02*
G01*
X157886962Y-36613038D01*
X157898018Y-36629583D01*
X157901900Y-36649100D01*
X157901900Y-38350900D01*
X157898018Y-38370417D01*
X157886962Y-38386962D01*
X157870417Y-38398018D01*
X157850900Y-38401900D01*
X156149100Y-38401900D01*
X156129583Y-38398018D01*
X156113038Y-38386962D01*
X156101982Y-38370417D01*
X156098100Y-38350900D01*
X156098100Y-36649100D01*
X156101982Y-36629583D01*
X156113038Y-36613038D01*
X156129583Y-36601982D01*
X156149100Y-36598100D01*
X157850900Y-36598100D01*
X157870417Y-36601982D01*
G37*
G36*
X40127032Y-36295644D02*
G01*
X40281159Y-36359485D01*
X40419869Y-36452168D01*
X40537832Y-36570131D01*
X40630515Y-36708841D01*
X40694356Y-36862968D01*
X40726902Y-37026587D01*
X40726902Y-37193413D01*
X40694356Y-37357032D01*
X40630515Y-37511159D01*
X40537832Y-37649869D01*
X40419869Y-37767832D01*
X40281159Y-37860515D01*
X40127032Y-37924356D01*
X39963413Y-37956902D01*
X39796587Y-37956902D01*
X39632968Y-37924356D01*
X39478841Y-37860515D01*
X39340131Y-37767832D01*
X39222168Y-37649869D01*
X39129485Y-37511159D01*
X39065644Y-37357032D01*
X39033098Y-37193413D01*
X39033098Y-37026587D01*
X39065644Y-36862968D01*
X39129485Y-36708841D01*
X39222168Y-36570131D01*
X39340131Y-36452168D01*
X39478841Y-36359485D01*
X39632968Y-36295644D01*
X39796587Y-36263098D01*
X39963413Y-36263098D01*
X40127032Y-36295644D01*
G37*
G36*
X55367032Y-36295644D02*
G01*
X55521159Y-36359485D01*
X55659869Y-36452168D01*
X55777832Y-36570131D01*
X55870515Y-36708841D01*
X55934356Y-36862968D01*
X55966902Y-37026587D01*
X55966902Y-37193413D01*
X55934356Y-37357032D01*
X55870515Y-37511159D01*
X55777832Y-37649869D01*
X55659869Y-37767832D01*
X55521159Y-37860515D01*
X55367032Y-37924356D01*
X55203413Y-37956902D01*
X55036587Y-37956902D01*
X54872968Y-37924356D01*
X54718841Y-37860515D01*
X54580131Y-37767832D01*
X54462168Y-37649869D01*
X54369485Y-37511159D01*
X54305644Y-37357032D01*
X54273098Y-37193413D01*
X54273098Y-37026587D01*
X54305644Y-36862968D01*
X54369485Y-36708841D01*
X54462168Y-36570131D01*
X54580131Y-36452168D01*
X54718841Y-36359485D01*
X54872968Y-36295644D01*
X55036587Y-36263098D01*
X55203413Y-36263098D01*
X55367032Y-36295644D01*
G37*
G36*
X27588975Y-35977032D02*
G01*
X27706879Y-36025869D01*
X27812990Y-36096770D01*
X27903230Y-36187010D01*
X27974131Y-36293121D01*
X28022968Y-36411025D01*
X28047865Y-36536191D01*
X28051000Y-36600000D01*
X28051000Y-37200000D01*
X28047865Y-37263809D01*
X28022968Y-37388975D01*
X27974131Y-37506879D01*
X27903230Y-37612990D01*
X27812990Y-37703230D01*
X27706879Y-37774131D01*
X27588975Y-37822968D01*
X27463809Y-37847865D01*
X27336191Y-37847865D01*
X27211025Y-37822968D01*
X27093121Y-37774131D01*
X26987010Y-37703230D01*
X26896770Y-37612990D01*
X26825869Y-37506879D01*
X26777032Y-37388975D01*
X26752135Y-37263809D01*
X26749000Y-37200000D01*
X26749000Y-36600000D01*
X26752135Y-36536191D01*
X26777032Y-36411025D01*
X26825869Y-36293121D01*
X26896770Y-36187010D01*
X26987010Y-36096770D01*
X27093121Y-36025869D01*
X27211025Y-35977032D01*
X27336191Y-35952135D01*
X27463809Y-35952135D01*
X27588975Y-35977032D01*
G37*
G36*
X36688975Y-35977032D02*
G01*
X36806879Y-36025869D01*
X36912990Y-36096770D01*
X37003230Y-36187010D01*
X37074131Y-36293121D01*
X37122968Y-36411025D01*
X37147865Y-36536191D01*
X37151000Y-36600000D01*
X37151000Y-37200000D01*
X37147865Y-37263809D01*
X37122968Y-37388975D01*
X37074131Y-37506879D01*
X37003230Y-37612990D01*
X36912990Y-37703230D01*
X36806879Y-37774131D01*
X36688975Y-37822968D01*
X36563809Y-37847865D01*
X36436191Y-37847865D01*
X36311025Y-37822968D01*
X36193121Y-37774131D01*
X36087010Y-37703230D01*
X35996770Y-37612990D01*
X35925869Y-37506879D01*
X35877032Y-37388975D01*
X35852135Y-37263809D01*
X35849000Y-37200000D01*
X35849000Y-36600000D01*
X35852135Y-36536191D01*
X35877032Y-36411025D01*
X35925869Y-36293121D01*
X35996770Y-36187010D01*
X36087010Y-36096770D01*
X36193121Y-36025869D01*
X36311025Y-35977032D01*
X36436191Y-35952135D01*
X36563809Y-35952135D01*
X36688975Y-35977032D01*
G37*
G36*
X103261808Y-35716936D02*
G01*
X103425153Y-35784595D01*
X103572159Y-35882822D01*
X103697178Y-36007841D01*
X103795405Y-36154847D01*
X103863064Y-36318192D01*
X103897557Y-36491598D01*
X103897557Y-36668402D01*
X103863064Y-36841808D01*
X103795405Y-37005153D01*
X103697178Y-37152159D01*
X103572159Y-37277178D01*
X103425153Y-37375405D01*
X103261808Y-37443064D01*
X103088402Y-37477557D01*
X102911598Y-37477557D01*
X102738192Y-37443064D01*
X102574847Y-37375405D01*
X102427841Y-37277178D01*
X102302822Y-37152159D01*
X102204595Y-37005153D01*
X102136936Y-36841808D01*
X102102443Y-36668402D01*
X102102443Y-36491598D01*
X102136936Y-36318192D01*
X102204595Y-36154847D01*
X102302822Y-36007841D01*
X102427841Y-35882822D01*
X102574847Y-35784595D01*
X102738192Y-35716936D01*
X102911598Y-35682443D01*
X103088402Y-35682443D01*
X103261808Y-35716936D01*
G37*
G36*
X121870417Y-35601982D02*
G01*
X121886962Y-35613038D01*
X121898018Y-35629583D01*
X121901900Y-35649100D01*
X121901900Y-37350900D01*
X121898018Y-37370417D01*
X121886962Y-37386962D01*
X121870417Y-37398018D01*
X121850900Y-37401900D01*
X120149100Y-37401900D01*
X120129583Y-37398018D01*
X120113038Y-37386962D01*
X120101982Y-37370417D01*
X120098100Y-37350900D01*
X120098100Y-35649100D01*
X120101982Y-35629583D01*
X120113038Y-35613038D01*
X120129583Y-35601982D01*
X120149100Y-35598100D01*
X121850900Y-35598100D01*
X121870417Y-35601982D01*
G37*
G36*
X63829517Y-36002882D02*
G01*
X63846062Y-36013938D01*
X63857118Y-36030483D01*
X63861000Y-36050000D01*
X63861000Y-37050000D01*
X63857118Y-37069517D01*
X63846062Y-37086062D01*
X63829517Y-37097118D01*
X63810000Y-37101000D01*
X61010000Y-37101000D01*
X60990483Y-37097118D01*
X60973938Y-37086062D01*
X60962882Y-37069517D01*
X60959000Y-37050000D01*
X60959000Y-36050000D01*
X60962882Y-36030483D01*
X60973938Y-36013938D01*
X60990483Y-36002882D01*
X61010000Y-35999000D01*
X63810000Y-35999000D01*
X63829517Y-36002882D01*
G37*
G36*
X69629517Y-36002882D02*
G01*
X69646062Y-36013938D01*
X69657118Y-36030483D01*
X69661000Y-36050000D01*
X69661000Y-37050000D01*
X69657118Y-37069517D01*
X69646062Y-37086062D01*
X69629517Y-37097118D01*
X69610000Y-37101000D01*
X66810000Y-37101000D01*
X66790483Y-37097118D01*
X66773938Y-37086062D01*
X66762882Y-37069517D01*
X66759000Y-37050000D01*
X66759000Y-36050000D01*
X66762882Y-36030483D01*
X66773938Y-36013938D01*
X66790483Y-36002882D01*
X66810000Y-35999000D01*
X69610000Y-35999000D01*
X69629517Y-36002882D01*
G37*
G36*
X40127032Y-33755644D02*
G01*
X40281159Y-33819485D01*
X40419869Y-33912168D01*
X40537832Y-34030131D01*
X40630515Y-34168841D01*
X40694356Y-34322968D01*
X40726902Y-34486587D01*
X40726902Y-34653413D01*
X40694356Y-34817032D01*
X40630515Y-34971159D01*
X40537832Y-35109869D01*
X40419869Y-35227832D01*
X40281159Y-35320515D01*
X40127032Y-35384356D01*
X39963413Y-35416902D01*
X39796587Y-35416902D01*
X39632968Y-35384356D01*
X39478841Y-35320515D01*
X39340131Y-35227832D01*
X39222168Y-35109869D01*
X39129485Y-34971159D01*
X39065644Y-34817032D01*
X39033098Y-34653413D01*
X39033098Y-34486587D01*
X39065644Y-34322968D01*
X39129485Y-34168841D01*
X39222168Y-34030131D01*
X39340131Y-33912168D01*
X39478841Y-33819485D01*
X39632968Y-33755644D01*
X39796587Y-33723098D01*
X39963413Y-33723098D01*
X40127032Y-33755644D01*
G37*
G36*
X55367032Y-33755644D02*
G01*
X55521159Y-33819485D01*
X55659869Y-33912168D01*
X55777832Y-34030131D01*
X55870515Y-34168841D01*
X55934356Y-34322968D01*
X55966902Y-34486587D01*
X55966902Y-34653413D01*
X55934356Y-34817032D01*
X55870515Y-34971159D01*
X55777832Y-35109869D01*
X55659869Y-35227832D01*
X55521159Y-35320515D01*
X55367032Y-35384356D01*
X55203413Y-35416902D01*
X55036587Y-35416902D01*
X54872968Y-35384356D01*
X54718841Y-35320515D01*
X54580131Y-35227832D01*
X54462168Y-35109869D01*
X54369485Y-34971159D01*
X54305644Y-34817032D01*
X54273098Y-34653413D01*
X54273098Y-34486587D01*
X54305644Y-34322968D01*
X54369485Y-34168841D01*
X54462168Y-34030131D01*
X54580131Y-33912168D01*
X54718841Y-33819485D01*
X54872968Y-33755644D01*
X55036587Y-33723098D01*
X55203413Y-33723098D01*
X55367032Y-33755644D01*
G37*
G36*
X137921040Y-28187434D02*
G01*
X138262823Y-28255419D01*
X138596296Y-28356577D01*
X138918248Y-28489934D01*
X139225579Y-28654206D01*
X139515328Y-28847810D01*
X139784706Y-29068883D01*
X140031117Y-29315294D01*
X140252190Y-29584672D01*
X140445794Y-29874421D01*
X140610066Y-30181752D01*
X140743423Y-30503704D01*
X140844581Y-30837177D01*
X140912566Y-31178960D01*
X140946723Y-31525761D01*
X140946723Y-31874239D01*
X140912566Y-32221040D01*
X140844581Y-32562823D01*
X140743423Y-32896296D01*
X140610066Y-33218248D01*
X140445794Y-33525579D01*
X140252190Y-33815328D01*
X140031117Y-34084706D01*
X139784706Y-34331117D01*
X139515328Y-34552190D01*
X139225579Y-34745794D01*
X138918248Y-34910066D01*
X138596296Y-35043423D01*
X138262823Y-35144581D01*
X137921040Y-35212566D01*
X137574239Y-35246723D01*
X137225761Y-35246723D01*
X136878960Y-35212566D01*
X136537177Y-35144581D01*
X136203704Y-35043423D01*
X135881752Y-34910066D01*
X135574421Y-34745794D01*
X135284672Y-34552190D01*
X135015294Y-34331117D01*
X134768883Y-34084706D01*
X134547810Y-33815328D01*
X134354206Y-33525579D01*
X134189934Y-33218248D01*
X134056577Y-32896296D01*
X133955419Y-32562823D01*
X133887434Y-32221040D01*
X133853277Y-31874239D01*
X133853277Y-31525761D01*
X133887434Y-31178960D01*
X133955419Y-30837177D01*
X134056577Y-30503704D01*
X134189934Y-30181752D01*
X134354206Y-29874421D01*
X134547810Y-29584672D01*
X134768883Y-29315294D01*
X135015294Y-29068883D01*
X135284672Y-28847810D01*
X135574421Y-28654206D01*
X135881752Y-28489934D01*
X136203704Y-28356577D01*
X136537177Y-28255419D01*
X136878960Y-28187434D01*
X137225761Y-28153277D01*
X137574239Y-28153277D01*
X137921040Y-28187434D01*
G37*
G36*
X27588975Y-32977032D02*
G01*
X27706879Y-33025869D01*
X27812990Y-33096770D01*
X27903230Y-33187010D01*
X27974131Y-33293121D01*
X28022968Y-33411025D01*
X28047865Y-33536191D01*
X28051000Y-33600000D01*
X28051000Y-34200000D01*
X28047865Y-34263809D01*
X28022968Y-34388975D01*
X27974131Y-34506879D01*
X27903230Y-34612990D01*
X27812990Y-34703230D01*
X27706879Y-34774131D01*
X27588975Y-34822968D01*
X27463809Y-34847865D01*
X27336191Y-34847865D01*
X27211025Y-34822968D01*
X27093121Y-34774131D01*
X26987010Y-34703230D01*
X26896770Y-34612990D01*
X26825869Y-34506879D01*
X26777032Y-34388975D01*
X26752135Y-34263809D01*
X26749000Y-34200000D01*
X26749000Y-33600000D01*
X26752135Y-33536191D01*
X26777032Y-33411025D01*
X26825869Y-33293121D01*
X26896770Y-33187010D01*
X26987010Y-33096770D01*
X27093121Y-33025869D01*
X27211025Y-32977032D01*
X27336191Y-32952135D01*
X27463809Y-32952135D01*
X27588975Y-32977032D01*
G37*
G36*
X36688975Y-32977032D02*
G01*
X36806879Y-33025869D01*
X36912990Y-33096770D01*
X37003230Y-33187010D01*
X37074131Y-33293121D01*
X37122968Y-33411025D01*
X37147865Y-33536191D01*
X37151000Y-33600000D01*
X37151000Y-34200000D01*
X37147865Y-34263809D01*
X37122968Y-34388975D01*
X37074131Y-34506879D01*
X37003230Y-34612990D01*
X36912990Y-34703230D01*
X36806879Y-34774131D01*
X36688975Y-34822968D01*
X36563809Y-34847865D01*
X36436191Y-34847865D01*
X36311025Y-34822968D01*
X36193121Y-34774131D01*
X36087010Y-34703230D01*
X35996770Y-34612990D01*
X35925869Y-34506879D01*
X35877032Y-34388975D01*
X35852135Y-34263809D01*
X35849000Y-34200000D01*
X35849000Y-33600000D01*
X35852135Y-33536191D01*
X35877032Y-33411025D01*
X35925869Y-33293121D01*
X35996770Y-33187010D01*
X36087010Y-33096770D01*
X36193121Y-33025869D01*
X36311025Y-32977032D01*
X36436191Y-32952135D01*
X36563809Y-32952135D01*
X36688975Y-32977032D01*
G37*
G36*
X101370417Y-32101982D02*
G01*
X101386962Y-32113038D01*
X101398018Y-32129583D01*
X101401900Y-32149100D01*
X101401900Y-33850900D01*
X101398018Y-33870417D01*
X101386962Y-33886962D01*
X101370417Y-33898018D01*
X101350900Y-33901900D01*
X99649100Y-33901900D01*
X99629583Y-33898018D01*
X99613038Y-33886962D01*
X99601982Y-33870417D01*
X99598100Y-33850900D01*
X99598100Y-32149100D01*
X99601982Y-32129583D01*
X99613038Y-32113038D01*
X99629583Y-32101982D01*
X99649100Y-32098100D01*
X101350900Y-32098100D01*
X101370417Y-32101982D01*
G37*
G36*
X105761808Y-32136936D02*
G01*
X105925153Y-32204595D01*
X106072159Y-32302822D01*
X106197178Y-32427841D01*
X106295405Y-32574847D01*
X106363064Y-32738192D01*
X106397557Y-32911598D01*
X106397557Y-33088402D01*
X106363064Y-33261808D01*
X106295405Y-33425153D01*
X106197178Y-33572159D01*
X106072159Y-33697178D01*
X105925153Y-33795405D01*
X105761808Y-33863064D01*
X105588402Y-33897557D01*
X105411598Y-33897557D01*
X105238192Y-33863064D01*
X105074847Y-33795405D01*
X104927841Y-33697178D01*
X104802822Y-33572159D01*
X104704595Y-33425153D01*
X104636936Y-33261808D01*
X104602443Y-33088402D01*
X104602443Y-32911598D01*
X104636936Y-32738192D01*
X104704595Y-32574847D01*
X104802822Y-32427841D01*
X104927841Y-32302822D01*
X105074847Y-32204595D01*
X105238192Y-32136936D01*
X105411598Y-32102443D01*
X105588402Y-32102443D01*
X105761808Y-32136936D01*
G37*
G36*
X63829517Y-32002882D02*
G01*
X63846062Y-32013938D01*
X63857118Y-32030483D01*
X63861000Y-32050000D01*
X63861000Y-33050000D01*
X63857118Y-33069517D01*
X63846062Y-33086062D01*
X63829517Y-33097118D01*
X63810000Y-33101000D01*
X61010000Y-33101000D01*
X60990483Y-33097118D01*
X60973938Y-33086062D01*
X60962882Y-33069517D01*
X60959000Y-33050000D01*
X60959000Y-32050000D01*
X60962882Y-32030483D01*
X60973938Y-32013938D01*
X60990483Y-32002882D01*
X61010000Y-31999000D01*
X63810000Y-31999000D01*
X63829517Y-32002882D01*
G37*
G36*
X69629517Y-32002882D02*
G01*
X69646062Y-32013938D01*
X69657118Y-32030483D01*
X69661000Y-32050000D01*
X69661000Y-33050000D01*
X69657118Y-33069517D01*
X69646062Y-33086062D01*
X69629517Y-33097118D01*
X69610000Y-33101000D01*
X66810000Y-33101000D01*
X66790483Y-33097118D01*
X66773938Y-33086062D01*
X66762882Y-33069517D01*
X66759000Y-33050000D01*
X66759000Y-32050000D01*
X66762882Y-32030483D01*
X66773938Y-32013938D01*
X66790483Y-32002882D01*
X66810000Y-31999000D01*
X69610000Y-31999000D01*
X69629517Y-32002882D01*
G37*
G36*
X29932518Y-31533491D02*
G01*
X30077589Y-31593581D01*
X30208149Y-31680819D01*
X30319181Y-31791851D01*
X30406419Y-31922411D01*
X30466509Y-32067482D01*
X30497143Y-32221488D01*
X30497143Y-32378512D01*
X30466509Y-32532518D01*
X30406419Y-32677589D01*
X30319181Y-32808149D01*
X30208149Y-32919181D01*
X30077589Y-33006419D01*
X29932518Y-33066509D01*
X29778512Y-33097143D01*
X29621488Y-33097143D01*
X29467482Y-33066509D01*
X29322411Y-33006419D01*
X29191851Y-32919181D01*
X29080819Y-32808149D01*
X28993581Y-32677589D01*
X28933491Y-32532518D01*
X28902857Y-32378512D01*
X28902857Y-32221488D01*
X28933491Y-32067482D01*
X28993581Y-31922411D01*
X29080819Y-31791851D01*
X29191851Y-31680819D01*
X29322411Y-31593581D01*
X29467482Y-31533491D01*
X29621488Y-31502857D01*
X29778512Y-31502857D01*
X29932518Y-31533491D01*
G37*
G36*
X34432518Y-31533491D02*
G01*
X34577589Y-31593581D01*
X34708149Y-31680819D01*
X34819181Y-31791851D01*
X34906419Y-31922411D01*
X34966509Y-32067482D01*
X34997143Y-32221488D01*
X34997143Y-32378512D01*
X34966509Y-32532518D01*
X34906419Y-32677589D01*
X34819181Y-32808149D01*
X34708149Y-32919181D01*
X34577589Y-33006419D01*
X34432518Y-33066509D01*
X34278512Y-33097143D01*
X34121488Y-33097143D01*
X33967482Y-33066509D01*
X33822411Y-33006419D01*
X33691851Y-32919181D01*
X33580819Y-32808149D01*
X33493581Y-32677589D01*
X33433491Y-32532518D01*
X33402857Y-32378512D01*
X33402857Y-32221488D01*
X33433491Y-32067482D01*
X33493581Y-31922411D01*
X33580819Y-31791851D01*
X33691851Y-31680819D01*
X33822411Y-31593581D01*
X33967482Y-31533491D01*
X34121488Y-31502857D01*
X34278512Y-31502857D01*
X34432518Y-31533491D01*
G37*
G36*
X40699517Y-31182882D02*
G01*
X40716062Y-31193938D01*
X40727118Y-31210483D01*
X40731000Y-31230000D01*
X40731000Y-32830000D01*
X40727118Y-32849517D01*
X40716062Y-32866062D01*
X40699517Y-32877118D01*
X40680000Y-32881000D01*
X39080000Y-32881000D01*
X39060483Y-32877118D01*
X39043938Y-32866062D01*
X39032882Y-32849517D01*
X39029000Y-32830000D01*
X39029000Y-31230000D01*
X39032882Y-31210483D01*
X39043938Y-31193938D01*
X39060483Y-31182882D01*
X39080000Y-31179000D01*
X40680000Y-31179000D01*
X40699517Y-31182882D01*
G37*
G36*
X55367032Y-31215644D02*
G01*
X55521159Y-31279485D01*
X55659869Y-31372168D01*
X55777832Y-31490131D01*
X55870515Y-31628841D01*
X55934356Y-31782968D01*
X55966902Y-31946587D01*
X55966902Y-32113413D01*
X55934356Y-32277032D01*
X55870515Y-32431159D01*
X55777832Y-32569869D01*
X55659869Y-32687832D01*
X55521159Y-32780515D01*
X55367032Y-32844356D01*
X55203413Y-32876902D01*
X55036587Y-32876902D01*
X54872968Y-32844356D01*
X54718841Y-32780515D01*
X54580131Y-32687832D01*
X54462168Y-32569869D01*
X54369485Y-32431159D01*
X54305644Y-32277032D01*
X54273098Y-32113413D01*
X54273098Y-31946587D01*
X54305644Y-31782968D01*
X54369485Y-31628841D01*
X54462168Y-31490131D01*
X54580131Y-31372168D01*
X54718841Y-31279485D01*
X54872968Y-31215644D01*
X55036587Y-31183098D01*
X55203413Y-31183098D01*
X55367032Y-31215644D01*
G37*
G36*
X103870417Y-30601982D02*
G01*
X103886962Y-30613038D01*
X103898018Y-30629583D01*
X103901900Y-30649100D01*
X103901900Y-32350900D01*
X103898018Y-32370417D01*
X103886962Y-32386962D01*
X103870417Y-32398018D01*
X103850900Y-32401900D01*
X102149100Y-32401900D01*
X102129583Y-32398018D01*
X102113038Y-32386962D01*
X102101982Y-32370417D01*
X102098100Y-32350900D01*
X102098100Y-30649100D01*
X102101982Y-30629583D01*
X102113038Y-30613038D01*
X102129583Y-30601982D01*
X102149100Y-30598100D01*
X103850900Y-30598100D01*
X103870417Y-30601982D01*
G37*
G36*
X83821040Y-24687434D02*
G01*
X84162823Y-24755419D01*
X84496296Y-24856577D01*
X84818248Y-24989934D01*
X85125579Y-25154206D01*
X85415328Y-25347810D01*
X85684706Y-25568883D01*
X85931117Y-25815294D01*
X86152190Y-26084672D01*
X86345794Y-26374421D01*
X86510066Y-26681752D01*
X86643423Y-27003704D01*
X86744581Y-27337177D01*
X86812566Y-27678960D01*
X86846723Y-28025761D01*
X86846723Y-28374239D01*
X86812566Y-28721040D01*
X86744581Y-29062823D01*
X86643423Y-29396296D01*
X86510066Y-29718248D01*
X86345794Y-30025579D01*
X86152190Y-30315328D01*
X85931117Y-30584706D01*
X85684706Y-30831117D01*
X85415328Y-31052190D01*
X85125579Y-31245794D01*
X84818248Y-31410066D01*
X84496296Y-31543423D01*
X84162823Y-31644581D01*
X83821040Y-31712566D01*
X83474239Y-31746723D01*
X83125761Y-31746723D01*
X82778960Y-31712566D01*
X82437177Y-31644581D01*
X82103704Y-31543423D01*
X81781752Y-31410066D01*
X81474421Y-31245794D01*
X81184672Y-31052190D01*
X80915294Y-30831117D01*
X80668883Y-30584706D01*
X80447810Y-30315328D01*
X80254206Y-30025579D01*
X80089934Y-29718248D01*
X79956577Y-29396296D01*
X79855419Y-29062823D01*
X79787434Y-28721040D01*
X79753277Y-28374239D01*
X79753277Y-28025761D01*
X79787434Y-27678960D01*
X79855419Y-27337177D01*
X79956577Y-27003704D01*
X80089934Y-26681752D01*
X80254206Y-26374421D01*
X80447810Y-26084672D01*
X80668883Y-25815294D01*
X80915294Y-25568883D01*
X81184672Y-25347810D01*
X81474421Y-25154206D01*
X81781752Y-24989934D01*
X82103704Y-24856577D01*
X82437177Y-24755419D01*
X82778960Y-24687434D01*
X83125761Y-24653277D01*
X83474239Y-24653277D01*
X83821040Y-24687434D01*
G37*
G36*
X154249517Y-28102882D02*
G01*
X154266062Y-28113938D01*
X154277118Y-28130483D01*
X154281000Y-28150000D01*
X154281000Y-29850000D01*
X154277118Y-29869517D01*
X154266062Y-29886062D01*
X154249517Y-29897118D01*
X154230000Y-29901000D01*
X152530000Y-29901000D01*
X152510483Y-29897118D01*
X152493938Y-29886062D01*
X152482882Y-29869517D01*
X152479000Y-29850000D01*
X152479000Y-28150000D01*
X152482882Y-28130483D01*
X152493938Y-28113938D01*
X152510483Y-28102882D01*
X152530000Y-28099000D01*
X154230000Y-28099000D01*
X154249517Y-28102882D01*
G37*
G36*
X156181546Y-28137797D02*
G01*
X156344728Y-28205389D01*
X156491588Y-28303518D01*
X156616482Y-28428412D01*
X156714611Y-28575272D01*
X156782203Y-28738454D01*
X156816661Y-28911687D01*
X156816661Y-29088313D01*
X156782203Y-29261546D01*
X156714611Y-29424728D01*
X156616482Y-29571588D01*
X156491588Y-29696482D01*
X156344728Y-29794611D01*
X156181546Y-29862203D01*
X156008313Y-29896661D01*
X155831687Y-29896661D01*
X155658454Y-29862203D01*
X155495272Y-29794611D01*
X155348412Y-29696482D01*
X155223518Y-29571588D01*
X155125389Y-29424728D01*
X155057797Y-29261546D01*
X155023339Y-29088313D01*
X155023339Y-28911687D01*
X155057797Y-28738454D01*
X155125389Y-28575272D01*
X155223518Y-28428412D01*
X155348412Y-28303518D01*
X155495272Y-28205389D01*
X155658454Y-28137797D01*
X155831687Y-28103339D01*
X156008313Y-28103339D01*
X156181546Y-28137797D01*
G37*
G36*
X158721546Y-28137797D02*
G01*
X158884728Y-28205389D01*
X159031588Y-28303518D01*
X159156482Y-28428412D01*
X159254611Y-28575272D01*
X159322203Y-28738454D01*
X159356661Y-28911687D01*
X159356661Y-29088313D01*
X159322203Y-29261546D01*
X159254611Y-29424728D01*
X159156482Y-29571588D01*
X159031588Y-29696482D01*
X158884728Y-29794611D01*
X158721546Y-29862203D01*
X158548313Y-29896661D01*
X158371687Y-29896661D01*
X158198454Y-29862203D01*
X158035272Y-29794611D01*
X157888412Y-29696482D01*
X157763518Y-29571588D01*
X157665389Y-29424728D01*
X157597797Y-29261546D01*
X157563339Y-29088313D01*
X157563339Y-28911687D01*
X157597797Y-28738454D01*
X157665389Y-28575272D01*
X157763518Y-28428412D01*
X157888412Y-28303518D01*
X158035272Y-28205389D01*
X158198454Y-28137797D01*
X158371687Y-28103339D01*
X158548313Y-28103339D01*
X158721546Y-28137797D01*
G37*
G36*
X161261546Y-28137797D02*
G01*
X161424728Y-28205389D01*
X161571588Y-28303518D01*
X161696482Y-28428412D01*
X161794611Y-28575272D01*
X161862203Y-28738454D01*
X161896661Y-28911687D01*
X161896661Y-29088313D01*
X161862203Y-29261546D01*
X161794611Y-29424728D01*
X161696482Y-29571588D01*
X161571588Y-29696482D01*
X161424728Y-29794611D01*
X161261546Y-29862203D01*
X161088313Y-29896661D01*
X160911687Y-29896661D01*
X160738454Y-29862203D01*
X160575272Y-29794611D01*
X160428412Y-29696482D01*
X160303518Y-29571588D01*
X160205389Y-29424728D01*
X160137797Y-29261546D01*
X160103339Y-29088313D01*
X160103339Y-28911687D01*
X160137797Y-28738454D01*
X160205389Y-28575272D01*
X160303518Y-28428412D01*
X160428412Y-28303518D01*
X160575272Y-28205389D01*
X160738454Y-28137797D01*
X160911687Y-28103339D01*
X161088313Y-28103339D01*
X161261546Y-28137797D01*
G37*
G36*
X100029517Y-22102882D02*
G01*
X100046062Y-22113938D01*
X100057118Y-22130483D01*
X100061000Y-22150000D01*
X100061000Y-23850000D01*
X100057118Y-23869517D01*
X100046062Y-23886062D01*
X100029517Y-23897118D01*
X100010000Y-23901000D01*
X98310000Y-23901000D01*
X98290483Y-23897118D01*
X98273938Y-23886062D01*
X98262882Y-23869517D01*
X98259000Y-23850000D01*
X98259000Y-22150000D01*
X98262882Y-22130483D01*
X98273938Y-22113938D01*
X98290483Y-22102882D01*
X98310000Y-22099000D01*
X100010000Y-22099000D01*
X100029517Y-22102882D01*
G37*
G36*
X101961546Y-22137797D02*
G01*
X102124728Y-22205389D01*
X102271588Y-22303518D01*
X102396482Y-22428412D01*
X102494611Y-22575272D01*
X102562203Y-22738454D01*
X102596661Y-22911687D01*
X102596661Y-23088313D01*
X102562203Y-23261546D01*
X102494611Y-23424728D01*
X102396482Y-23571588D01*
X102271588Y-23696482D01*
X102124728Y-23794611D01*
X101961546Y-23862203D01*
X101788313Y-23896661D01*
X101611687Y-23896661D01*
X101438454Y-23862203D01*
X101275272Y-23794611D01*
X101128412Y-23696482D01*
X101003518Y-23571588D01*
X100905389Y-23424728D01*
X100837797Y-23261546D01*
X100803339Y-23088313D01*
X100803339Y-22911687D01*
X100837797Y-22738454D01*
X100905389Y-22575272D01*
X101003518Y-22428412D01*
X101128412Y-22303518D01*
X101275272Y-22205389D01*
X101438454Y-22137797D01*
X101611687Y-22103339D01*
X101788313Y-22103339D01*
X101961546Y-22137797D01*
G37*
G36*
X104501546Y-22137797D02*
G01*
X104664728Y-22205389D01*
X104811588Y-22303518D01*
X104936482Y-22428412D01*
X105034611Y-22575272D01*
X105102203Y-22738454D01*
X105136661Y-22911687D01*
X105136661Y-23088313D01*
X105102203Y-23261546D01*
X105034611Y-23424728D01*
X104936482Y-23571588D01*
X104811588Y-23696482D01*
X104664728Y-23794611D01*
X104501546Y-23862203D01*
X104328313Y-23896661D01*
X104151687Y-23896661D01*
X103978454Y-23862203D01*
X103815272Y-23794611D01*
X103668412Y-23696482D01*
X103543518Y-23571588D01*
X103445389Y-23424728D01*
X103377797Y-23261546D01*
X103343339Y-23088313D01*
X103343339Y-22911687D01*
X103377797Y-22738454D01*
X103445389Y-22575272D01*
X103543518Y-22428412D01*
X103668412Y-22303518D01*
X103815272Y-22205389D01*
X103978454Y-22137797D01*
X104151687Y-22103339D01*
X104328313Y-22103339D01*
X104501546Y-22137797D01*
G37*
G36*
X107041546Y-22137797D02*
G01*
X107204728Y-22205389D01*
X107351588Y-22303518D01*
X107476482Y-22428412D01*
X107574611Y-22575272D01*
X107642203Y-22738454D01*
X107676661Y-22911687D01*
X107676661Y-23088313D01*
X107642203Y-23261546D01*
X107574611Y-23424728D01*
X107476482Y-23571588D01*
X107351588Y-23696482D01*
X107204728Y-23794611D01*
X107041546Y-23862203D01*
X106868313Y-23896661D01*
X106691687Y-23896661D01*
X106518454Y-23862203D01*
X106355272Y-23794611D01*
X106208412Y-23696482D01*
X106083518Y-23571588D01*
X105985389Y-23424728D01*
X105917797Y-23261546D01*
X105883339Y-23088313D01*
X105883339Y-22911687D01*
X105917797Y-22738454D01*
X105985389Y-22575272D01*
X106083518Y-22428412D01*
X106208412Y-22303518D01*
X106355272Y-22205389D01*
X106518454Y-22137797D01*
X106691687Y-22103339D01*
X106868313Y-22103339D01*
X107041546Y-22137797D01*
G37*
M02*
