G04 #@! TF.GenerationSoftware,KiCad,Pcbnew,9.0.2*
G04 #@! TF.CreationDate,2026-07-21T20:05:37-04:00*
G04 #@! TF.ProjectId,ThumbsUp,5468756d-6273-4557-902e-6b696361645f,rev?*
G04 #@! TF.SameCoordinates,Original*
G04 #@! TF.FileFunction,Profile,NP*
%FSLAX46Y46*%
G04 Gerber Fmt 4.6, Leading zero omitted, Abs format (unit mm)*
G04 Created by KiCad (PCBNEW 9.0.2) date 2026-07-21 20:05:37*
%MOMM*%
%LPD*%
G01*
G04 APERTURE LIST*
G04 #@! TA.AperFunction,Profile*
%ADD10C,0.050000*%
G04 #@! TD*
G04 APERTURE END LIST*
D10*
X49747891Y-246387718D02*
G75*
G02*
X49247882Y-245887718I-91J499918D01*
G01*
X61747891Y-248387718D02*
X63247892Y-248387719D01*
X65247892Y-246387720D02*
G75*
G02*
X64747880Y-245887719I208J500220D01*
G01*
X55747893Y-244887719D02*
X49747893Y-244887719D01*
X77247892Y-248387720D02*
G75*
G02*
X77247892Y-246387680I108J1000020D01*
G01*
X77747894Y-245887719D02*
G75*
G02*
X77247892Y-246387794I-499994J-81D01*
G01*
X49247893Y-245887718D02*
X49247891Y-245387719D01*
X78020000Y-248390000D02*
X78577267Y-250471467D01*
X47177628Y-250913603D02*
G75*
G02*
X49105750Y-248395373I1931692J518233D01*
G01*
X77247893Y-244887719D02*
G75*
G02*
X77747881Y-245387720I7J-499981D01*
G01*
X77747894Y-245887719D02*
X77747892Y-245387720D01*
X49247891Y-245387719D02*
G75*
G02*
X49747893Y-244887691I500009J19D01*
G01*
X71247893Y-244887718D02*
X65247893Y-244887719D01*
X49173356Y-258352387D02*
X47177628Y-250913603D01*
X77248000Y-248387720D02*
X78020000Y-248390000D01*
X49747891Y-246387718D02*
G75*
G02*
X49747892Y-248387722I-31J-1000002D01*
G01*
X49747892Y-248387718D02*
X49462600Y-248394731D01*
X61747892Y-244887721D02*
G75*
G02*
X62247879Y-245387720I-92J-500079D01*
G01*
X65247891Y-248387720D02*
X63247892Y-248387719D01*
X62247893Y-245887719D02*
G75*
G02*
X61747891Y-246387693I-499993J19D01*
G01*
X55747893Y-244887719D02*
X61747892Y-244887721D01*
X61747891Y-248387718D02*
G75*
G02*
X61747891Y-246387682I9J1000018D01*
G01*
X55296949Y-261886326D02*
G75*
G02*
X49173403Y-258352374I-1294349J4829526D01*
G01*
X71247893Y-244887718D02*
X77247893Y-244887719D01*
X78577267Y-250471467D02*
G75*
G02*
X75041838Y-256594117I-4829867J-1293133D01*
G01*
X49462600Y-248394731D02*
X49105750Y-248395368D01*
X62247893Y-245887719D02*
X62247893Y-245387720D01*
X80134960Y-243698387D02*
X80827291Y-244911753D01*
X65247892Y-246387720D02*
G75*
G02*
X65247891Y-248387680I8J-999980D01*
G01*
X64747893Y-245887719D02*
X64747892Y-245387718D01*
X75041832Y-256594096D02*
X55296949Y-261886326D01*
X64747892Y-245387718D02*
G75*
G02*
X65247893Y-244887792I500108J-182D01*
G01*
M02*
