G04 #@! TF.GenerationSoftware,KiCad,Pcbnew,9.0.2*
G04 #@! TF.CreationDate,2026-07-21T20:05:37-04:00*
G04 #@! TF.ProjectId,ThumbsUp,5468756d-6273-4557-902e-6b696361645f,rev?*
G04 #@! TF.SameCoordinates,Original*
G04 #@! TF.FileFunction,Soldermask,Bot*
G04 #@! TF.FilePolarity,Negative*
%FSLAX46Y46*%
G04 Gerber Fmt 4.6, Leading zero omitted, Abs format (unit mm)*
G04 Created by KiCad (PCBNEW 9.0.2) date 2026-07-21 20:05:37*
%MOMM*%
%LPD*%
G01*
G04 APERTURE LIST*
G04 APERTURE END LIST*
G36*
X56271039Y-250237435D02*
G01*
X56612822Y-250305420D01*
X56946295Y-250406578D01*
X57268247Y-250539935D01*
X57575578Y-250704207D01*
X57865327Y-250897811D01*
X58134705Y-251118884D01*
X58381116Y-251365295D01*
X58602189Y-251634673D01*
X58795793Y-251924422D01*
X58960065Y-252231753D01*
X59093422Y-252553705D01*
X59194580Y-252887178D01*
X59262565Y-253228961D01*
X59296722Y-253575762D01*
X59296722Y-253924240D01*
X59262565Y-254271041D01*
X59194580Y-254612824D01*
X59093422Y-254946297D01*
X58960065Y-255268249D01*
X58795793Y-255575580D01*
X58602189Y-255865329D01*
X58381116Y-256134707D01*
X58134705Y-256381118D01*
X57865327Y-256602191D01*
X57575578Y-256795795D01*
X57268247Y-256960067D01*
X56946295Y-257093424D01*
X56612822Y-257194582D01*
X56271039Y-257262567D01*
X55924238Y-257296724D01*
X55575760Y-257296724D01*
X55228959Y-257262567D01*
X54887176Y-257194582D01*
X54553703Y-257093424D01*
X54231751Y-256960067D01*
X53924420Y-256795795D01*
X53634671Y-256602191D01*
X53365293Y-256381118D01*
X53118882Y-256134707D01*
X52897809Y-255865329D01*
X52704205Y-255575580D01*
X52539933Y-255268249D01*
X52406576Y-254946297D01*
X52305418Y-254612824D01*
X52237433Y-254271041D01*
X52203276Y-253924240D01*
X52203276Y-253575762D01*
X52237433Y-253228961D01*
X52305418Y-252887178D01*
X52406576Y-252553705D01*
X52539933Y-252231753D01*
X52704205Y-251924422D01*
X52897809Y-251634673D01*
X53118882Y-251365295D01*
X53365293Y-251118884D01*
X53634671Y-250897811D01*
X53924420Y-250704207D01*
X54231751Y-250539935D01*
X54553703Y-250406578D01*
X54887176Y-250305420D01*
X55228959Y-250237435D01*
X55575760Y-250203278D01*
X55924238Y-250203278D01*
X56271039Y-250237435D01*
G37*
G36*
X71771040Y-250237434D02*
G01*
X72112823Y-250305419D01*
X72446296Y-250406577D01*
X72768248Y-250539934D01*
X73075579Y-250704206D01*
X73365328Y-250897810D01*
X73634706Y-251118883D01*
X73881117Y-251365294D01*
X74102190Y-251634672D01*
X74295794Y-251924421D01*
X74460066Y-252231752D01*
X74593423Y-252553704D01*
X74694581Y-252887177D01*
X74762566Y-253228960D01*
X74796723Y-253575761D01*
X74796723Y-253924239D01*
X74762566Y-254271040D01*
X74694581Y-254612823D01*
X74593423Y-254946296D01*
X74460066Y-255268248D01*
X74295794Y-255575579D01*
X74102190Y-255865328D01*
X73881117Y-256134706D01*
X73634706Y-256381117D01*
X73365328Y-256602190D01*
X73075579Y-256795794D01*
X72768248Y-256960066D01*
X72446296Y-257093423D01*
X72112823Y-257194581D01*
X71771040Y-257262566D01*
X71424239Y-257296723D01*
X71075761Y-257296723D01*
X70728960Y-257262566D01*
X70387177Y-257194581D01*
X70053704Y-257093423D01*
X69731752Y-256960066D01*
X69424421Y-256795794D01*
X69134672Y-256602190D01*
X68865294Y-256381117D01*
X68618883Y-256134706D01*
X68397810Y-255865328D01*
X68204206Y-255575579D01*
X68039934Y-255268248D01*
X67906577Y-254946296D01*
X67805419Y-254612823D01*
X67737434Y-254271040D01*
X67703277Y-253924239D01*
X67703277Y-253575761D01*
X67737434Y-253228960D01*
X67805419Y-252887177D01*
X67906577Y-252553704D01*
X68039934Y-252231752D01*
X68204206Y-251924421D01*
X68397810Y-251634672D01*
X68618883Y-251365294D01*
X68865294Y-251118883D01*
X69134672Y-250897810D01*
X69424421Y-250704206D01*
X69731752Y-250539934D01*
X70053704Y-250406577D01*
X70387177Y-250305419D01*
X70728960Y-250237434D01*
X71075761Y-250203277D01*
X71424239Y-250203277D01*
X71771040Y-250237434D01*
G37*
M02*
