ISO-10303-21;
HEADER;
FILE_DESCRIPTION(('KiCad electronic assembly'),'2;1');
FILE_NAME('Bottom Plate rev.5.step','2026-07-18T16:36:50',('Pcbnew'),(
    'Kicad'),'Open CASCADE STEP processor 7.8','KiCad to STEP converter'
  ,'Unknown');
FILE_SCHEMA(('AUTOMOTIVE_DESIGN { 1 0 10303 214 1 1 1 1 }'));
ENDSEC;
DATA;
#1 = APPLICATION_PROTOCOL_DEFINITION('international standard',
  'automotive_design',2000,#2);
#2 = APPLICATION_CONTEXT(
  'core data for automotive mechanical design processes');
#3 = SHAPE_DEFINITION_REPRESENTATION(#4,#10);
#4 = PRODUCT_DEFINITION_SHAPE('','',#5);
#5 = PRODUCT_DEFINITION('design','',#6,#9);
#6 = PRODUCT_DEFINITION_FORMATION('','',#7);
#7 = PRODUCT('Bottom Plate rev.5 1','Bottom Plate rev.5 1','',(#8));
#8 = PRODUCT_CONTEXT('',#2,'mechanical');
#9 = PRODUCT_DEFINITION_CONTEXT('part definition',#2,'design');
#10 = SHAPE_REPRESENTATION('',(#11,#15),#19);
#11 = AXIS2_PLACEMENT_3D('',#12,#13,#14);
#12 = CARTESIAN_POINT('',(0.,0.,0.));
#13 = DIRECTION('',(0.,0.,1.));
#14 = DIRECTION('',(1.,0.,-0.));
#15 = AXIS2_PLACEMENT_3D('',#16,#17,#18);
#16 = CARTESIAN_POINT('',(0.,0.,0.));
#17 = DIRECTION('',(0.,0.,1.));
#18 = DIRECTION('',(1.,0.,-0.));
#19 = ( GEOMETRIC_REPRESENTATION_CONTEXT(3) 
GLOBAL_UNCERTAINTY_ASSIGNED_CONTEXT((#23)) GLOBAL_UNIT_ASSIGNED_CONTEXT(
(#20,#21,#22)) REPRESENTATION_CONTEXT('Context #1',
  '3D Context with UNIT and UNCERTAINTY') );
#20 = ( LENGTH_UNIT() NAMED_UNIT(*) SI_UNIT(.MILLI.,.METRE.) );
#21 = ( NAMED_UNIT(*) PLANE_ANGLE_UNIT() SI_UNIT($,.RADIAN.) );
#22 = ( NAMED_UNIT(*) SI_UNIT($,.STERADIAN.) SOLID_ANGLE_UNIT() );
#23 = UNCERTAINTY_MEASURE_WITH_UNIT(LENGTH_MEASURE(1.E-07),#20,
  'distance_accuracy_value','confusion accuracy');
#24 = PRODUCT_RELATED_PRODUCT_CATEGORY('part',$,(#7));
#25 = SHAPE_DEFINITION_REPRESENTATION(#26,#32);
#26 = PRODUCT_DEFINITION_SHAPE('','',#27);
#27 = PRODUCT_DEFINITION('design','',#28,#31);
#28 = PRODUCT_DEFINITION_FORMATION('','',#29);
#29 = PRODUCT('ThumbsUp_PCB','ThumbsUp_PCB','',(#30));
#30 = PRODUCT_CONTEXT('',#2,'mechanical');
#31 = PRODUCT_DEFINITION_CONTEXT('part definition',#2,'design');
#32 = ADVANCED_BREP_SHAPE_REPRESENTATION('',(#11,#33),#809);
#33 = MANIFOLD_SOLID_BREP('',#34);
#34 = CLOSED_SHELL('',(#35,#77,#108,#139,#315,#491,#508,#525,#542,#559,
    #576,#593,#610,#627,#644,#661,#678,#695,#712,#729,#746,#763,#775,
    #792));
#35 = ADVANCED_FACE('',(#36),#72,.T.);
#36 = FACE_BOUND('',#37,.T.);
#37 = EDGE_LOOP('',(#38,#48,#57,#65));
#38 = ORIENTED_EDGE('',*,*,#39,.T.);
#39 = EDGE_CURVE('',#40,#42,#44,.T.);
#40 = VERTEX_POINT('',#41);
#41 = CARTESIAN_POINT('',(118.32036,-22.9,0.));
#42 = VERTEX_POINT('',#43);
#43 = CARTESIAN_POINT('',(118.32036,-22.9,1.51));
#44 = LINE('',#45,#46);
#45 = CARTESIAN_POINT('',(118.32036,-22.9,0.));
#46 = VECTOR('',#47,1.);
#47 = DIRECTION('',(0.,0.,1.));
#48 = ORIENTED_EDGE('',*,*,#49,.T.);
#49 = EDGE_CURVE('',#42,#50,#52,.T.);
#50 = VERTEX_POINT('',#51);
#51 = CARTESIAN_POINT('',(123.809748,-24.115832,1.51));
#52 = CIRCLE('',#53,12.999994897335);
#53 = AXIS2_PLACEMENT_3D('',#54,#55,#56);
#54 = CARTESIAN_POINT('',(118.32036077192,-35.89999489733,1.51));
#55 = DIRECTION('',(0.,0.,-1.));
#56 = DIRECTION('',(-5.937847062826E-08,1.,0.));
#57 = ORIENTED_EDGE('',*,*,#58,.F.);
#58 = EDGE_CURVE('',#59,#50,#61,.T.);
#59 = VERTEX_POINT('',#60);
#60 = CARTESIAN_POINT('',(123.809748,-24.115832,0.));
#61 = LINE('',#62,#63);
#62 = CARTESIAN_POINT('',(123.809748,-24.115832,0.));
#63 = VECTOR('',#64,1.);
#64 = DIRECTION('',(0.,0.,1.));
#65 = ORIENTED_EDGE('',*,*,#66,.F.);
#66 = EDGE_CURVE('',#40,#59,#67,.T.);
#67 = CIRCLE('',#68,12.999994897335);
#68 = AXIS2_PLACEMENT_3D('',#69,#70,#71);
#69 = CARTESIAN_POINT('',(118.32036077192,-35.89999489733,0.));
#70 = DIRECTION('',(0.,0.,-1.));
#71 = DIRECTION('',(-5.937847062826E-08,1.,0.));
#72 = CYLINDRICAL_SURFACE('',#73,12.999994897335);
#73 = AXIS2_PLACEMENT_3D('',#74,#75,#76);
#74 = CARTESIAN_POINT('',(118.32036077192,-35.89999489733,0.));
#75 = DIRECTION('',(0.,0.,-1.));
#76 = DIRECTION('',(-5.937847062826E-08,1.,0.));
#77 = ADVANCED_FACE('',(#78),#103,.T.);
#78 = FACE_BOUND('',#79,.T.);
#79 = EDGE_LOOP('',(#80,#90,#96,#97));
#80 = ORIENTED_EDGE('',*,*,#81,.T.);
#81 = EDGE_CURVE('',#82,#84,#86,.T.);
#82 = VERTEX_POINT('',#83);
#83 = CARTESIAN_POINT('',(87.667482,-22.9,0.));
#84 = VERTEX_POINT('',#85);
#85 = CARTESIAN_POINT('',(87.667482,-22.9,1.51));
#86 = LINE('',#87,#88);
#87 = CARTESIAN_POINT('',(87.667482,-22.9,0.));
#88 = VECTOR('',#89,1.);
#89 = DIRECTION('',(0.,0.,1.));
#90 = ORIENTED_EDGE('',*,*,#91,.T.);
#91 = EDGE_CURVE('',#84,#42,#92,.T.);
#92 = LINE('',#93,#94);
#93 = CARTESIAN_POINT('',(87.667482,-22.9,1.51));
#94 = VECTOR('',#95,1.);
#95 = DIRECTION('',(1.,0.,0.));
#96 = ORIENTED_EDGE('',*,*,#39,.F.);
#97 = ORIENTED_EDGE('',*,*,#98,.F.);
#98 = EDGE_CURVE('',#82,#40,#99,.T.);
#99 = LINE('',#100,#101);
#100 = CARTESIAN_POINT('',(87.667482,-22.9,0.));
#101 = VECTOR('',#102,1.);
#102 = DIRECTION('',(1.,0.,0.));
#103 = PLANE('',#104);
#104 = AXIS2_PLACEMENT_3D('',#105,#106,#107);
#105 = CARTESIAN_POINT('',(87.667482,-22.9,0.));
#106 = DIRECTION('',(0.,1.,0.));
#107 = DIRECTION('',(1.,0.,0.));
#108 = ADVANCED_FACE('',(#109),#134,.T.);
#109 = FACE_BOUND('',#110,.T.);
#110 = EDGE_LOOP('',(#111,#112,#120,#128));
#111 = ORIENTED_EDGE('',*,*,#58,.T.);
#112 = ORIENTED_EDGE('',*,*,#113,.T.);
#113 = EDGE_CURVE('',#50,#114,#116,.T.);
#114 = VERTEX_POINT('',#115);
#115 = CARTESIAN_POINT('',(144.984241,-33.97949,1.51));
#116 = LINE('',#117,#118);
#117 = CARTESIAN_POINT('',(123.809748,-24.115832,1.51));
#118 = VECTOR('',#119,1.);
#119 = DIRECTION('',(0.906474478781,-0.422260605929,0.));
#120 = ORIENTED_EDGE('',*,*,#121,.F.);
#121 = EDGE_CURVE('',#122,#114,#124,.T.);
#122 = VERTEX_POINT('',#123);
#123 = CARTESIAN_POINT('',(144.984241,-33.97949,0.));
#124 = LINE('',#125,#126);
#125 = CARTESIAN_POINT('',(144.984241,-33.97949,0.));
#126 = VECTOR('',#127,1.);
#127 = DIRECTION('',(0.,0.,1.));
#128 = ORIENTED_EDGE('',*,*,#129,.F.);
#129 = EDGE_CURVE('',#59,#122,#130,.T.);
#130 = LINE('',#131,#132);
#131 = CARTESIAN_POINT('',(123.809748,-24.115832,0.));
#132 = VECTOR('',#133,1.);
#133 = DIRECTION('',(0.906474478781,-0.422260605929,0.));
#134 = PLANE('',#135);
#135 = AXIS2_PLACEMENT_3D('',#136,#137,#138);
#136 = CARTESIAN_POINT('',(123.809748,-24.115832,0.));
#137 = DIRECTION('',(0.422260605929,0.906474478781,-0.));
#138 = DIRECTION('',(0.906474478781,-0.422260605929,0.));
#139 = ADVANCED_FACE('',(#140,#288,#299),#310,.F.);
#140 = FACE_BOUND('',#141,.F.);
#141 = EDGE_LOOP('',(#142,#143,#144,#153,#161,#170,#178,#187,#195,#204,
    #212,#221,#229,#238,#246,#255,#263,#272,#280,#287));
#142 = ORIENTED_EDGE('',*,*,#66,.F.);
#143 = ORIENTED_EDGE('',*,*,#98,.F.);
#144 = ORIENTED_EDGE('',*,*,#145,.F.);
#145 = EDGE_CURVE('',#146,#82,#148,.T.);
#146 = VERTEX_POINT('',#147);
#147 = CARTESIAN_POINT('',(82.180786,-24.114578,0.));
#148 = CIRCLE('',#149,12.999834512211);
#149 = AXIS2_PLACEMENT_3D('',#150,#151,#152);
#150 = CARTESIAN_POINT('',(87.667444936685,-35.89983451215,0.));
#151 = DIRECTION('',(0.,0.,-1.));
#152 = DIRECTION('',(-0.422056060139,0.906569733721,0.));
#153 = ORIENTED_EDGE('',*,*,#154,.F.);
#154 = EDGE_CURVE('',#155,#146,#157,.T.);
#155 = VERTEX_POINT('',#156);
#156 = CARTESIAN_POINT('',(81.813814,-24.285422,0.));
#157 = LINE('',#158,#159);
#158 = CARTESIAN_POINT('',(81.813814,-24.285422,0.));
#159 = VECTOR('',#160,1.);
#160 = DIRECTION('',(0.906570522916,0.422054364957,0.));
#161 = ORIENTED_EDGE('',*,*,#162,.F.);
#162 = EDGE_CURVE('',#163,#155,#165,.T.);
#163 = VERTEX_POINT('',#164);
#164 = CARTESIAN_POINT('',(76.327118,-25.5,0.));
#165 = CIRCLE('',#166,12.999834512211);
#166 = AXIS2_PLACEMENT_3D('',#167,#168,#169);
#167 = CARTESIAN_POINT('',(76.327155063315,-12.50016548784,0.));
#168 = DIRECTION('',(0.,0.,1.));
#169 = DIRECTION('',(-2.851060530176E-06,-0.999999999996,0.));
#170 = ORIENTED_EDGE('',*,*,#171,.F.);
#171 = EDGE_CURVE('',#172,#163,#174,.T.);
#172 = VERTEX_POINT('',#173);
#173 = CARTESIAN_POINT('',(40.4597,-25.5,0.));
#174 = LINE('',#175,#176);
#175 = CARTESIAN_POINT('',(40.4597,-25.5,0.));
#176 = VECTOR('',#177,1.);
#177 = DIRECTION('',(1.,0.,0.));
#178 = ORIENTED_EDGE('',*,*,#179,.F.);
#179 = EDGE_CURVE('',#180,#172,#182,.T.);
#180 = VERTEX_POINT('',#181);
#181 = CARTESIAN_POINT('',(35.4597,-30.5,0.));
#182 = CIRCLE('',#183,4.999999678834);
#183 = AXIS2_PLACEMENT_3D('',#184,#185,#186);
#184 = CARTESIAN_POINT('',(40.459699678834,-30.49999967883,0.));
#185 = DIRECTION('',(0.,0.,-1.));
#186 = DIRECTION('',(-1.,-6.423314275614E-08,-0.));
#187 = ORIENTED_EDGE('',*,*,#188,.F.);
#188 = EDGE_CURVE('',#189,#180,#191,.T.);
#189 = VERTEX_POINT('',#190);
#190 = CARTESIAN_POINT('',(35.459983,-74.598059,0.));
#191 = LINE('',#192,#193);
#192 = CARTESIAN_POINT('',(35.459983,-74.598059,0.));
#193 = VECTOR('',#194,1.);
#194 = DIRECTION('',(-6.417516018048E-06,0.999999999979,0.));
#195 = ORIENTED_EDGE('',*,*,#196,.F.);
#196 = EDGE_CURVE('',#197,#189,#199,.T.);
#197 = VERTEX_POINT('',#198);
#198 = CARTESIAN_POINT('',(36.143014,-79.780083,0.));
#199 = CIRCLE('',#200,20.000069393767);
#200 = AXIS2_PLACEMENT_3D('',#201,#202,#203);
#201 = CARTESIAN_POINT('',(55.460052393291,-74.59792095432,0.));
#202 = DIRECTION('',(0.,0.,-1.));
#203 = DIRECTION('',(-0.965848568471,-0.259107203262,-0.));
#204 = ORIENTED_EDGE('',*,*,#205,.F.);
#205 = EDGE_CURVE('',#206,#197,#208,.T.);
#206 = VERTEX_POINT('',#207);
#207 = CARTESIAN_POINT('',(50.088151,-131.761925,0.));
#208 = LINE('',#209,#210);
#209 = CARTESIAN_POINT('',(50.088151,-131.761925,0.));
#210 = VECTOR('',#211,1.);
#211 = DIRECTION('',(-0.259107578468,0.965848467815,0.));
#212 = ORIENTED_EDGE('',*,*,#213,.F.);
#213 = EDGE_CURVE('',#214,#206,#216,.T.);
#214 = VERTEX_POINT('',#215);
#215 = CARTESIAN_POINT('',(56.211705,-135.295958,0.));
#216 = CIRCLE('',#217,5.000000428577);
#217 = AXIS2_PLACEMENT_3D('',#218,#219,#220);
#218 = CARTESIAN_POINT('',(54.917393581876,-130.4663863586,0.));
#219 = DIRECTION('',(0.,0.,-1.));
#220 = DIRECTION('',(0.258862261436,-0.965914245471,0.));
#221 = ORIENTED_EDGE('',*,*,#222,.F.);
#222 = EDGE_CURVE('',#223,#214,#225,.T.);
#223 = VERTEX_POINT('',#224);
#224 = CARTESIAN_POINT('',(90.814239,-126.022574,0.));
#225 = LINE('',#226,#227);
#226 = CARTESIAN_POINT('',(90.814239,-126.022574,0.));
#227 = VECTOR('',#228,1.);
#228 = DIRECTION('',(-0.965914220132,-0.258862355987,0.));
#229 = ORIENTED_EDGE('',*,*,#230,.F.);
#230 = EDGE_CURVE('',#231,#223,#233,.T.);
#231 = VERTEX_POINT('',#232);
#232 = CARTESIAN_POINT('',(98.58011,-125.,0.));
#233 = CIRCLE('',#234,29.999969689525);
#234 = AXIS2_PLACEMENT_3D('',#235,#236,#237);
#235 = CARTESIAN_POINT('',(98.580107942052,-154.9999696895,0.));
#236 = DIRECTION('',(0.,0.,1.));
#237 = DIRECTION('',(6.859835144445E-08,1.,-0.));
#238 = ORIENTED_EDGE('',*,*,#239,.F.);
#239 = EDGE_CURVE('',#240,#231,#242,.T.);
#240 = VERTEX_POINT('',#241);
#241 = CARTESIAN_POINT('',(158.4697,-125.,0.));
#242 = LINE('',#243,#244);
#243 = CARTESIAN_POINT('',(158.4697,-125.,0.));
#244 = VECTOR('',#245,1.);
#245 = DIRECTION('',(-1.,0.,0.));
#246 = ORIENTED_EDGE('',*,*,#247,.F.);
#247 = EDGE_CURVE('',#248,#240,#250,.T.);
#248 = VERTEX_POINT('',#249);
#249 = CARTESIAN_POINT('',(163.4697,-120.,0.));
#250 = CIRCLE('',#251,4.999999678834);
#251 = AXIS2_PLACEMENT_3D('',#252,#253,#254);
#252 = CARTESIAN_POINT('',(158.46970032116,-120.0000003211,0.));
#253 = DIRECTION('',(0.,0.,-1.));
#254 = DIRECTION('',(1.,6.42331470194E-08,0.));
#255 = ORIENTED_EDGE('',*,*,#256,.F.);
#256 = EDGE_CURVE('',#257,#248,#259,.T.);
#257 = VERTEX_POINT('',#258);
#258 = CARTESIAN_POINT('',(163.4697,-40.85,0.));
#259 = LINE('',#260,#261);
#260 = CARTESIAN_POINT('',(163.4697,-40.85,0.));
#261 = VECTOR('',#262,1.);
#262 = DIRECTION('',(0.,-1.,0.));
#263 = ORIENTED_EDGE('',*,*,#264,.F.);
#264 = EDGE_CURVE('',#265,#257,#267,.T.);
#265 = VERTEX_POINT('',#266);
#266 = CARTESIAN_POINT('',(158.4697,-35.85,0.));
#267 = CIRCLE('',#268,4.999999678834);
#268 = AXIS2_PLACEMENT_3D('',#269,#270,#271);
#269 = CARTESIAN_POINT('',(158.46970032116,-40.84999967883,0.));
#270 = DIRECTION('',(0.,0.,-1.));
#271 = DIRECTION('',(-6.42331470194E-08,1.,0.));
#272 = ORIENTED_EDGE('',*,*,#273,.F.);
#273 = EDGE_CURVE('',#274,#265,#276,.T.);
#274 = VERTEX_POINT('',#275);
#275 = CARTESIAN_POINT('',(153.429453,-35.85,0.));
#276 = LINE('',#277,#278);
#277 = CARTESIAN_POINT('',(153.429453,-35.85,0.));
#278 = VECTOR('',#279,1.);
#279 = DIRECTION('',(1.,0.,0.));
#280 = ORIENTED_EDGE('',*,*,#281,.F.);
#281 = EDGE_CURVE('',#122,#274,#282,.T.);
#282 = CIRCLE('',#283,19.999997941011);
#283 = AXIS2_PLACEMENT_3D('',#284,#285,#286);
#284 = CARTESIAN_POINT('',(153.42945175149,-15.85000205898,0.));
#285 = DIRECTION('',(0.,0.,1.));
#286 = DIRECTION('',(-0.422260581046,-0.906474490372,0.));
#287 = ORIENTED_EDGE('',*,*,#129,.F.);
#288 = FACE_BOUND('',#289,.F.);
#289 = EDGE_LOOP('',(#290));
#290 = ORIENTED_EDGE('',*,*,#291,.T.);
#291 = EDGE_CURVE('',#292,#292,#294,.T.);
#292 = VERTEX_POINT('',#293);
#293 = CARTESIAN_POINT('',(39.1,-78.15,0.));
#294 = CIRCLE('',#295,1.75);
#295 = AXIS2_PLACEMENT_3D('',#296,#297,#298);
#296 = CARTESIAN_POINT('',(39.1,-76.4,0.));
#297 = DIRECTION('',(-0.,0.,-1.));
#298 = DIRECTION('',(-0.,-1.,0.));
#299 = FACE_BOUND('',#300,.F.);
#300 = EDGE_LOOP('',(#301));
#301 = ORIENTED_EDGE('',*,*,#302,.T.);
#302 = EDGE_CURVE('',#303,#303,#305,.T.);
#303 = VERTEX_POINT('',#304);
#304 = CARTESIAN_POINT('',(39.6,-31.16,0.));
#305 = CIRCLE('',#306,1.75);
#306 = AXIS2_PLACEMENT_3D('',#307,#308,#309);
#307 = CARTESIAN_POINT('',(39.6,-29.41,0.));
#308 = DIRECTION('',(-0.,0.,-1.));
#309 = DIRECTION('',(-0.,-1.,0.));
#310 = PLANE('',#311);
#311 = AXIS2_PLACEMENT_3D('',#312,#313,#314);
#312 = CARTESIAN_POINT('',(0.,0.,0.));
#313 = DIRECTION('',(0.,0.,1.));
#314 = DIRECTION('',(1.,0.,-0.));
#315 = ADVANCED_FACE('',(#316,#464,#475),#486,.T.);
#316 = FACE_BOUND('',#317,.T.);
#317 = EDGE_LOOP('',(#318,#319,#320,#329,#337,#346,#354,#363,#371,#380,
    #388,#397,#405,#414,#422,#431,#439,#448,#456,#463));
#318 = ORIENTED_EDGE('',*,*,#49,.F.);
#319 = ORIENTED_EDGE('',*,*,#91,.F.);
#320 = ORIENTED_EDGE('',*,*,#321,.F.);
#321 = EDGE_CURVE('',#322,#84,#324,.T.);
#322 = VERTEX_POINT('',#323);
#323 = CARTESIAN_POINT('',(82.180786,-24.114578,1.51));
#324 = CIRCLE('',#325,12.999834512211);
#325 = AXIS2_PLACEMENT_3D('',#326,#327,#328);
#326 = CARTESIAN_POINT('',(87.667444936685,-35.89983451215,1.51));
#327 = DIRECTION('',(0.,0.,-1.));
#328 = DIRECTION('',(-0.422056060139,0.906569733721,0.));
#329 = ORIENTED_EDGE('',*,*,#330,.F.);
#330 = EDGE_CURVE('',#331,#322,#333,.T.);
#331 = VERTEX_POINT('',#332);
#332 = CARTESIAN_POINT('',(81.813814,-24.285422,1.51));
#333 = LINE('',#334,#335);
#334 = CARTESIAN_POINT('',(81.813814,-24.285422,1.51));
#335 = VECTOR('',#336,1.);
#336 = DIRECTION('',(0.906570522916,0.422054364957,0.));
#337 = ORIENTED_EDGE('',*,*,#338,.F.);
#338 = EDGE_CURVE('',#339,#331,#341,.T.);
#339 = VERTEX_POINT('',#340);
#340 = CARTESIAN_POINT('',(76.327118,-25.5,1.51));
#341 = CIRCLE('',#342,12.999834512211);
#342 = AXIS2_PLACEMENT_3D('',#343,#344,#345);
#343 = CARTESIAN_POINT('',(76.327155063315,-12.50016548784,1.51));
#344 = DIRECTION('',(0.,0.,1.));
#345 = DIRECTION('',(-2.851060530176E-06,-0.999999999996,0.));
#346 = ORIENTED_EDGE('',*,*,#347,.F.);
#347 = EDGE_CURVE('',#348,#339,#350,.T.);
#348 = VERTEX_POINT('',#349);
#349 = CARTESIAN_POINT('',(40.4597,-25.5,1.51));
#350 = LINE('',#351,#352);
#351 = CARTESIAN_POINT('',(40.4597,-25.5,1.51));
#352 = VECTOR('',#353,1.);
#353 = DIRECTION('',(1.,0.,0.));
#354 = ORIENTED_EDGE('',*,*,#355,.F.);
#355 = EDGE_CURVE('',#356,#348,#358,.T.);
#356 = VERTEX_POINT('',#357);
#357 = CARTESIAN_POINT('',(35.4597,-30.5,1.51));
#358 = CIRCLE('',#359,4.999999678834);
#359 = AXIS2_PLACEMENT_3D('',#360,#361,#362);
#360 = CARTESIAN_POINT('',(40.459699678834,-30.49999967883,1.51));
#361 = DIRECTION('',(0.,0.,-1.));
#362 = DIRECTION('',(-1.,-6.423314275614E-08,-0.));
#363 = ORIENTED_EDGE('',*,*,#364,.F.);
#364 = EDGE_CURVE('',#365,#356,#367,.T.);
#365 = VERTEX_POINT('',#366);
#366 = CARTESIAN_POINT('',(35.459983,-74.598059,1.51));
#367 = LINE('',#368,#369);
#368 = CARTESIAN_POINT('',(35.459983,-74.598059,1.51));
#369 = VECTOR('',#370,1.);
#370 = DIRECTION('',(-6.417516018048E-06,0.999999999979,0.));
#371 = ORIENTED_EDGE('',*,*,#372,.F.);
#372 = EDGE_CURVE('',#373,#365,#375,.T.);
#373 = VERTEX_POINT('',#374);
#374 = CARTESIAN_POINT('',(36.143014,-79.780083,1.51));
#375 = CIRCLE('',#376,20.000069393767);
#376 = AXIS2_PLACEMENT_3D('',#377,#378,#379);
#377 = CARTESIAN_POINT('',(55.460052393291,-74.59792095432,1.51));
#378 = DIRECTION('',(0.,0.,-1.));
#379 = DIRECTION('',(-0.965848568471,-0.259107203262,-0.));
#380 = ORIENTED_EDGE('',*,*,#381,.F.);
#381 = EDGE_CURVE('',#382,#373,#384,.T.);
#382 = VERTEX_POINT('',#383);
#383 = CARTESIAN_POINT('',(50.088151,-131.761925,1.51));
#384 = LINE('',#385,#386);
#385 = CARTESIAN_POINT('',(50.088151,-131.761925,1.51));
#386 = VECTOR('',#387,1.);
#387 = DIRECTION('',(-0.259107578468,0.965848467815,0.));
#388 = ORIENTED_EDGE('',*,*,#389,.F.);
#389 = EDGE_CURVE('',#390,#382,#392,.T.);
#390 = VERTEX_POINT('',#391);
#391 = CARTESIAN_POINT('',(56.211705,-135.295958,1.51));
#392 = CIRCLE('',#393,5.000000428577);
#393 = AXIS2_PLACEMENT_3D('',#394,#395,#396);
#394 = CARTESIAN_POINT('',(54.917393581876,-130.4663863586,1.51));
#395 = DIRECTION('',(0.,0.,-1.));
#396 = DIRECTION('',(0.258862261436,-0.965914245471,0.));
#397 = ORIENTED_EDGE('',*,*,#398,.F.);
#398 = EDGE_CURVE('',#399,#390,#401,.T.);
#399 = VERTEX_POINT('',#400);
#400 = CARTESIAN_POINT('',(90.814239,-126.022574,1.51));
#401 = LINE('',#402,#403);
#402 = CARTESIAN_POINT('',(90.814239,-126.022574,1.51));
#403 = VECTOR('',#404,1.);
#404 = DIRECTION('',(-0.965914220132,-0.258862355987,0.));
#405 = ORIENTED_EDGE('',*,*,#406,.F.);
#406 = EDGE_CURVE('',#407,#399,#409,.T.);
#407 = VERTEX_POINT('',#408);
#408 = CARTESIAN_POINT('',(98.58011,-125.,1.51));
#409 = CIRCLE('',#410,29.999969689525);
#410 = AXIS2_PLACEMENT_3D('',#411,#412,#413);
#411 = CARTESIAN_POINT('',(98.580107942052,-154.9999696895,1.51));
#412 = DIRECTION('',(0.,0.,1.));
#413 = DIRECTION('',(6.859835144445E-08,1.,-0.));
#414 = ORIENTED_EDGE('',*,*,#415,.F.);
#415 = EDGE_CURVE('',#416,#407,#418,.T.);
#416 = VERTEX_POINT('',#417);
#417 = CARTESIAN_POINT('',(158.4697,-125.,1.51));
#418 = LINE('',#419,#420);
#419 = CARTESIAN_POINT('',(158.4697,-125.,1.51));
#420 = VECTOR('',#421,1.);
#421 = DIRECTION('',(-1.,0.,0.));
#422 = ORIENTED_EDGE('',*,*,#423,.F.);
#423 = EDGE_CURVE('',#424,#416,#426,.T.);
#424 = VERTEX_POINT('',#425);
#425 = CARTESIAN_POINT('',(163.4697,-120.,1.51));
#426 = CIRCLE('',#427,4.999999678834);
#427 = AXIS2_PLACEMENT_3D('',#428,#429,#430);
#428 = CARTESIAN_POINT('',(158.46970032116,-120.0000003211,1.51));
#429 = DIRECTION('',(0.,0.,-1.));
#430 = DIRECTION('',(1.,6.42331470194E-08,0.));
#431 = ORIENTED_EDGE('',*,*,#432,.F.);
#432 = EDGE_CURVE('',#433,#424,#435,.T.);
#433 = VERTEX_POINT('',#434);
#434 = CARTESIAN_POINT('',(163.4697,-40.85,1.51));
#435 = LINE('',#436,#437);
#436 = CARTESIAN_POINT('',(163.4697,-40.85,1.51));
#437 = VECTOR('',#438,1.);
#438 = DIRECTION('',(0.,-1.,0.));
#439 = ORIENTED_EDGE('',*,*,#440,.F.);
#440 = EDGE_CURVE('',#441,#433,#443,.T.);
#441 = VERTEX_POINT('',#442);
#442 = CARTESIAN_POINT('',(158.4697,-35.85,1.51));
#443 = CIRCLE('',#444,4.999999678834);
#444 = AXIS2_PLACEMENT_3D('',#445,#446,#447);
#445 = CARTESIAN_POINT('',(158.46970032116,-40.84999967883,1.51));
#446 = DIRECTION('',(0.,0.,-1.));
#447 = DIRECTION('',(-6.42331470194E-08,1.,0.));
#448 = ORIENTED_EDGE('',*,*,#449,.F.);
#449 = EDGE_CURVE('',#450,#441,#452,.T.);
#450 = VERTEX_POINT('',#451);
#451 = CARTESIAN_POINT('',(153.429453,-35.85,1.51));
#452 = LINE('',#453,#454);
#453 = CARTESIAN_POINT('',(153.429453,-35.85,1.51));
#454 = VECTOR('',#455,1.);
#455 = DIRECTION('',(1.,0.,0.));
#456 = ORIENTED_EDGE('',*,*,#457,.F.);
#457 = EDGE_CURVE('',#114,#450,#458,.T.);
#458 = CIRCLE('',#459,19.999997941011);
#459 = AXIS2_PLACEMENT_3D('',#460,#461,#462);
#460 = CARTESIAN_POINT('',(153.42945175149,-15.85000205898,1.51));
#461 = DIRECTION('',(0.,0.,1.));
#462 = DIRECTION('',(-0.422260581046,-0.906474490372,0.));
#463 = ORIENTED_EDGE('',*,*,#113,.F.);
#464 = FACE_BOUND('',#465,.T.);
#465 = EDGE_LOOP('',(#466));
#466 = ORIENTED_EDGE('',*,*,#467,.T.);
#467 = EDGE_CURVE('',#468,#468,#470,.T.);
#468 = VERTEX_POINT('',#469);
#469 = CARTESIAN_POINT('',(39.1,-78.15,1.51));
#470 = CIRCLE('',#471,1.75);
#471 = AXIS2_PLACEMENT_3D('',#472,#473,#474);
#472 = CARTESIAN_POINT('',(39.1,-76.4,1.51));
#473 = DIRECTION('',(-0.,0.,-1.));
#474 = DIRECTION('',(-0.,-1.,0.));
#475 = FACE_BOUND('',#476,.T.);
#476 = EDGE_LOOP('',(#477));
#477 = ORIENTED_EDGE('',*,*,#478,.T.);
#478 = EDGE_CURVE('',#479,#479,#481,.T.);
#479 = VERTEX_POINT('',#480);
#480 = CARTESIAN_POINT('',(39.6,-31.16,1.51));
#481 = CIRCLE('',#482,1.75);
#482 = AXIS2_PLACEMENT_3D('',#483,#484,#485);
#483 = CARTESIAN_POINT('',(39.6,-29.41,1.51));
#484 = DIRECTION('',(-0.,0.,-1.));
#485 = DIRECTION('',(-0.,-1.,0.));
#486 = PLANE('',#487);
#487 = AXIS2_PLACEMENT_3D('',#488,#489,#490);
#488 = CARTESIAN_POINT('',(0.,0.,1.51));
#489 = DIRECTION('',(0.,0.,1.));
#490 = DIRECTION('',(1.,0.,-0.));
#491 = ADVANCED_FACE('',(#492),#503,.T.);
#492 = FACE_BOUND('',#493,.T.);
#493 = EDGE_LOOP('',(#494,#500,#501,#502));
#494 = ORIENTED_EDGE('',*,*,#495,.T.);
#495 = EDGE_CURVE('',#146,#322,#496,.T.);
#496 = LINE('',#497,#498);
#497 = CARTESIAN_POINT('',(82.180786,-24.114578,0.));
#498 = VECTOR('',#499,1.);
#499 = DIRECTION('',(0.,0.,1.));
#500 = ORIENTED_EDGE('',*,*,#321,.T.);
#501 = ORIENTED_EDGE('',*,*,#81,.F.);
#502 = ORIENTED_EDGE('',*,*,#145,.F.);
#503 = CYLINDRICAL_SURFACE('',#504,12.999834512211);
#504 = AXIS2_PLACEMENT_3D('',#505,#506,#507);
#505 = CARTESIAN_POINT('',(87.667444936685,-35.89983451215,0.));
#506 = DIRECTION('',(0.,0.,-1.));
#507 = DIRECTION('',(-0.422056060139,0.906569733721,0.));
#508 = ADVANCED_FACE('',(#509),#520,.F.);
#509 = FACE_BOUND('',#510,.T.);
#510 = EDGE_LOOP('',(#511,#512,#513,#519));
#511 = ORIENTED_EDGE('',*,*,#121,.T.);
#512 = ORIENTED_EDGE('',*,*,#457,.T.);
#513 = ORIENTED_EDGE('',*,*,#514,.F.);
#514 = EDGE_CURVE('',#274,#450,#515,.T.);
#515 = LINE('',#516,#517);
#516 = CARTESIAN_POINT('',(153.429453,-35.85,0.));
#517 = VECTOR('',#518,1.);
#518 = DIRECTION('',(0.,0.,1.));
#519 = ORIENTED_EDGE('',*,*,#281,.F.);
#520 = CYLINDRICAL_SURFACE('',#521,19.999997941011);
#521 = AXIS2_PLACEMENT_3D('',#522,#523,#524);
#522 = CARTESIAN_POINT('',(153.42945175149,-15.85000205898,0.));
#523 = DIRECTION('',(-0.,-0.,-1.));
#524 = DIRECTION('',(-0.422260581046,-0.906474490372,0.));
#525 = ADVANCED_FACE('',(#526),#537,.T.);
#526 = FACE_BOUND('',#527,.T.);
#527 = EDGE_LOOP('',(#528,#534,#535,#536));
#528 = ORIENTED_EDGE('',*,*,#529,.T.);
#529 = EDGE_CURVE('',#155,#331,#530,.T.);
#530 = LINE('',#531,#532);
#531 = CARTESIAN_POINT('',(81.813814,-24.285422,0.));
#532 = VECTOR('',#533,1.);
#533 = DIRECTION('',(0.,0.,1.));
#534 = ORIENTED_EDGE('',*,*,#330,.T.);
#535 = ORIENTED_EDGE('',*,*,#495,.F.);
#536 = ORIENTED_EDGE('',*,*,#154,.F.);
#537 = PLANE('',#538);
#538 = AXIS2_PLACEMENT_3D('',#539,#540,#541);
#539 = CARTESIAN_POINT('',(81.813814,-24.285422,0.));
#540 = DIRECTION('',(-0.422054364957,0.906570522916,0.));
#541 = DIRECTION('',(0.906570522916,0.422054364957,0.));
#542 = ADVANCED_FACE('',(#543),#554,.T.);
#543 = FACE_BOUND('',#544,.T.);
#544 = EDGE_LOOP('',(#545,#546,#547,#553));
#545 = ORIENTED_EDGE('',*,*,#514,.T.);
#546 = ORIENTED_EDGE('',*,*,#449,.T.);
#547 = ORIENTED_EDGE('',*,*,#548,.F.);
#548 = EDGE_CURVE('',#265,#441,#549,.T.);
#549 = LINE('',#550,#551);
#550 = CARTESIAN_POINT('',(158.4697,-35.85,0.));
#551 = VECTOR('',#552,1.);
#552 = DIRECTION('',(0.,0.,1.));
#553 = ORIENTED_EDGE('',*,*,#273,.F.);
#554 = PLANE('',#555);
#555 = AXIS2_PLACEMENT_3D('',#556,#557,#558);
#556 = CARTESIAN_POINT('',(153.429453,-35.85,0.));
#557 = DIRECTION('',(0.,1.,0.));
#558 = DIRECTION('',(1.,0.,0.));
#559 = ADVANCED_FACE('',(#560),#571,.F.);
#560 = FACE_BOUND('',#561,.T.);
#561 = EDGE_LOOP('',(#562,#568,#569,#570));
#562 = ORIENTED_EDGE('',*,*,#563,.T.);
#563 = EDGE_CURVE('',#163,#339,#564,.T.);
#564 = LINE('',#565,#566);
#565 = CARTESIAN_POINT('',(76.327118,-25.5,0.));
#566 = VECTOR('',#567,1.);
#567 = DIRECTION('',(0.,0.,1.));
#568 = ORIENTED_EDGE('',*,*,#338,.T.);
#569 = ORIENTED_EDGE('',*,*,#529,.F.);
#570 = ORIENTED_EDGE('',*,*,#162,.F.);
#571 = CYLINDRICAL_SURFACE('',#572,12.999834512211);
#572 = AXIS2_PLACEMENT_3D('',#573,#574,#575);
#573 = CARTESIAN_POINT('',(76.327155063315,-12.50016548784,0.));
#574 = DIRECTION('',(-0.,-0.,-1.));
#575 = DIRECTION('',(-2.851060530176E-06,-0.999999999996,0.));
#576 = ADVANCED_FACE('',(#577),#588,.T.);
#577 = FACE_BOUND('',#578,.T.);
#578 = EDGE_LOOP('',(#579,#580,#581,#587));
#579 = ORIENTED_EDGE('',*,*,#548,.T.);
#580 = ORIENTED_EDGE('',*,*,#440,.T.);
#581 = ORIENTED_EDGE('',*,*,#582,.F.);
#582 = EDGE_CURVE('',#257,#433,#583,.T.);
#583 = LINE('',#584,#585);
#584 = CARTESIAN_POINT('',(163.4697,-40.85,0.));
#585 = VECTOR('',#586,1.);
#586 = DIRECTION('',(0.,0.,1.));
#587 = ORIENTED_EDGE('',*,*,#264,.F.);
#588 = CYLINDRICAL_SURFACE('',#589,4.999999678834);
#589 = AXIS2_PLACEMENT_3D('',#590,#591,#592);
#590 = CARTESIAN_POINT('',(158.46970032116,-40.84999967883,0.));
#591 = DIRECTION('',(0.,0.,-1.));
#592 = DIRECTION('',(-6.42331470194E-08,1.,0.));
#593 = ADVANCED_FACE('',(#594),#605,.T.);
#594 = FACE_BOUND('',#595,.T.);
#595 = EDGE_LOOP('',(#596,#602,#603,#604));
#596 = ORIENTED_EDGE('',*,*,#597,.T.);
#597 = EDGE_CURVE('',#172,#348,#598,.T.);
#598 = LINE('',#599,#600);
#599 = CARTESIAN_POINT('',(40.4597,-25.5,0.));
#600 = VECTOR('',#601,1.);
#601 = DIRECTION('',(0.,0.,1.));
#602 = ORIENTED_EDGE('',*,*,#347,.T.);
#603 = ORIENTED_EDGE('',*,*,#563,.F.);
#604 = ORIENTED_EDGE('',*,*,#171,.F.);
#605 = PLANE('',#606);
#606 = AXIS2_PLACEMENT_3D('',#607,#608,#609);
#607 = CARTESIAN_POINT('',(40.4597,-25.5,0.));
#608 = DIRECTION('',(0.,1.,0.));
#609 = DIRECTION('',(1.,0.,0.));
#610 = ADVANCED_FACE('',(#611),#622,.T.);
#611 = FACE_BOUND('',#612,.T.);
#612 = EDGE_LOOP('',(#613,#614,#615,#621));
#613 = ORIENTED_EDGE('',*,*,#582,.T.);
#614 = ORIENTED_EDGE('',*,*,#432,.T.);
#615 = ORIENTED_EDGE('',*,*,#616,.F.);
#616 = EDGE_CURVE('',#248,#424,#617,.T.);
#617 = LINE('',#618,#619);
#618 = CARTESIAN_POINT('',(163.4697,-120.,0.));
#619 = VECTOR('',#620,1.);
#620 = DIRECTION('',(0.,0.,1.));
#621 = ORIENTED_EDGE('',*,*,#256,.F.);
#622 = PLANE('',#623);
#623 = AXIS2_PLACEMENT_3D('',#624,#625,#626);
#624 = CARTESIAN_POINT('',(163.4697,-40.85,0.));
#625 = DIRECTION('',(1.,0.,-0.));
#626 = DIRECTION('',(0.,-1.,0.));
#627 = ADVANCED_FACE('',(#628),#639,.T.);
#628 = FACE_BOUND('',#629,.T.);
#629 = EDGE_LOOP('',(#630,#636,#637,#638));
#630 = ORIENTED_EDGE('',*,*,#631,.T.);
#631 = EDGE_CURVE('',#180,#356,#632,.T.);
#632 = LINE('',#633,#634);
#633 = CARTESIAN_POINT('',(35.4597,-30.5,0.));
#634 = VECTOR('',#635,1.);
#635 = DIRECTION('',(0.,0.,1.));
#636 = ORIENTED_EDGE('',*,*,#355,.T.);
#637 = ORIENTED_EDGE('',*,*,#597,.F.);
#638 = ORIENTED_EDGE('',*,*,#179,.F.);
#639 = CYLINDRICAL_SURFACE('',#640,4.999999678834);
#640 = AXIS2_PLACEMENT_3D('',#641,#642,#643);
#641 = CARTESIAN_POINT('',(40.459699678834,-30.49999967883,0.));
#642 = DIRECTION('',(0.,0.,-1.));
#643 = DIRECTION('',(-1.,-6.423314275614E-08,-0.));
#644 = ADVANCED_FACE('',(#645),#656,.T.);
#645 = FACE_BOUND('',#646,.T.);
#646 = EDGE_LOOP('',(#647,#648,#649,#655));
#647 = ORIENTED_EDGE('',*,*,#616,.T.);
#648 = ORIENTED_EDGE('',*,*,#423,.T.);
#649 = ORIENTED_EDGE('',*,*,#650,.F.);
#650 = EDGE_CURVE('',#240,#416,#651,.T.);
#651 = LINE('',#652,#653);
#652 = CARTESIAN_POINT('',(158.4697,-125.,0.));
#653 = VECTOR('',#654,1.);
#654 = DIRECTION('',(0.,0.,1.));
#655 = ORIENTED_EDGE('',*,*,#247,.F.);
#656 = CYLINDRICAL_SURFACE('',#657,4.999999678834);
#657 = AXIS2_PLACEMENT_3D('',#658,#659,#660);
#658 = CARTESIAN_POINT('',(158.46970032116,-120.0000003211,0.));
#659 = DIRECTION('',(0.,0.,-1.));
#660 = DIRECTION('',(1.,6.42331470194E-08,0.));
#661 = ADVANCED_FACE('',(#662),#673,.T.);
#662 = FACE_BOUND('',#663,.T.);
#663 = EDGE_LOOP('',(#664,#670,#671,#672));
#664 = ORIENTED_EDGE('',*,*,#665,.T.);
#665 = EDGE_CURVE('',#189,#365,#666,.T.);
#666 = LINE('',#667,#668);
#667 = CARTESIAN_POINT('',(35.459983,-74.598059,0.));
#668 = VECTOR('',#669,1.);
#669 = DIRECTION('',(0.,0.,1.));
#670 = ORIENTED_EDGE('',*,*,#364,.T.);
#671 = ORIENTED_EDGE('',*,*,#631,.F.);
#672 = ORIENTED_EDGE('',*,*,#188,.F.);
#673 = PLANE('',#674);
#674 = AXIS2_PLACEMENT_3D('',#675,#676,#677);
#675 = CARTESIAN_POINT('',(35.459983,-74.598059,0.));
#676 = DIRECTION('',(-0.999999999979,-6.417516018048E-06,0.));
#677 = DIRECTION('',(-6.417516018048E-06,0.999999999979,0.));
#678 = ADVANCED_FACE('',(#679),#690,.T.);
#679 = FACE_BOUND('',#680,.T.);
#680 = EDGE_LOOP('',(#681,#682,#683,#689));
#681 = ORIENTED_EDGE('',*,*,#650,.T.);
#682 = ORIENTED_EDGE('',*,*,#415,.T.);
#683 = ORIENTED_EDGE('',*,*,#684,.F.);
#684 = EDGE_CURVE('',#231,#407,#685,.T.);
#685 = LINE('',#686,#687);
#686 = CARTESIAN_POINT('',(98.58011,-125.,0.));
#687 = VECTOR('',#688,1.);
#688 = DIRECTION('',(0.,0.,1.));
#689 = ORIENTED_EDGE('',*,*,#239,.F.);
#690 = PLANE('',#691);
#691 = AXIS2_PLACEMENT_3D('',#692,#693,#694);
#692 = CARTESIAN_POINT('',(158.4697,-125.,0.));
#693 = DIRECTION('',(0.,-1.,0.));
#694 = DIRECTION('',(-1.,0.,0.));
#695 = ADVANCED_FACE('',(#696),#707,.T.);
#696 = FACE_BOUND('',#697,.T.);
#697 = EDGE_LOOP('',(#698,#704,#705,#706));
#698 = ORIENTED_EDGE('',*,*,#699,.T.);
#699 = EDGE_CURVE('',#197,#373,#700,.T.);
#700 = LINE('',#701,#702);
#701 = CARTESIAN_POINT('',(36.143014,-79.780083,0.));
#702 = VECTOR('',#703,1.);
#703 = DIRECTION('',(0.,0.,1.));
#704 = ORIENTED_EDGE('',*,*,#372,.T.);
#705 = ORIENTED_EDGE('',*,*,#665,.F.);
#706 = ORIENTED_EDGE('',*,*,#196,.F.);
#707 = CYLINDRICAL_SURFACE('',#708,20.000069393767);
#708 = AXIS2_PLACEMENT_3D('',#709,#710,#711);
#709 = CARTESIAN_POINT('',(55.460052393291,-74.59792095432,0.));
#710 = DIRECTION('',(0.,0.,-1.));
#711 = DIRECTION('',(-0.965848568471,-0.259107203262,-0.));
#712 = ADVANCED_FACE('',(#713),#724,.F.);
#713 = FACE_BOUND('',#714,.T.);
#714 = EDGE_LOOP('',(#715,#716,#717,#723));
#715 = ORIENTED_EDGE('',*,*,#684,.T.);
#716 = ORIENTED_EDGE('',*,*,#406,.T.);
#717 = ORIENTED_EDGE('',*,*,#718,.F.);
#718 = EDGE_CURVE('',#223,#399,#719,.T.);
#719 = LINE('',#720,#721);
#720 = CARTESIAN_POINT('',(90.814239,-126.022574,0.));
#721 = VECTOR('',#722,1.);
#722 = DIRECTION('',(0.,0.,1.));
#723 = ORIENTED_EDGE('',*,*,#230,.F.);
#724 = CYLINDRICAL_SURFACE('',#725,29.999969689525);
#725 = AXIS2_PLACEMENT_3D('',#726,#727,#728);
#726 = CARTESIAN_POINT('',(98.580107942052,-154.9999696895,0.));
#727 = DIRECTION('',(-0.,-0.,-1.));
#728 = DIRECTION('',(6.859835144445E-08,1.,-0.));
#729 = ADVANCED_FACE('',(#730),#741,.T.);
#730 = FACE_BOUND('',#731,.T.);
#731 = EDGE_LOOP('',(#732,#738,#739,#740));
#732 = ORIENTED_EDGE('',*,*,#733,.T.);
#733 = EDGE_CURVE('',#206,#382,#734,.T.);
#734 = LINE('',#735,#736);
#735 = CARTESIAN_POINT('',(50.088151,-131.761925,0.));
#736 = VECTOR('',#737,1.);
#737 = DIRECTION('',(0.,0.,1.));
#738 = ORIENTED_EDGE('',*,*,#381,.T.);
#739 = ORIENTED_EDGE('',*,*,#699,.F.);
#740 = ORIENTED_EDGE('',*,*,#205,.F.);
#741 = PLANE('',#742);
#742 = AXIS2_PLACEMENT_3D('',#743,#744,#745);
#743 = CARTESIAN_POINT('',(50.088151,-131.761925,0.));
#744 = DIRECTION('',(-0.965848467815,-0.259107578468,0.));
#745 = DIRECTION('',(-0.259107578468,0.965848467815,0.));
#746 = ADVANCED_FACE('',(#747),#758,.T.);
#747 = FACE_BOUND('',#748,.T.);
#748 = EDGE_LOOP('',(#749,#750,#751,#757));
#749 = ORIENTED_EDGE('',*,*,#718,.T.);
#750 = ORIENTED_EDGE('',*,*,#398,.T.);
#751 = ORIENTED_EDGE('',*,*,#752,.F.);
#752 = EDGE_CURVE('',#214,#390,#753,.T.);
#753 = LINE('',#754,#755);
#754 = CARTESIAN_POINT('',(56.211705,-135.295958,0.));
#755 = VECTOR('',#756,1.);
#756 = DIRECTION('',(0.,0.,1.));
#757 = ORIENTED_EDGE('',*,*,#222,.F.);
#758 = PLANE('',#759);
#759 = AXIS2_PLACEMENT_3D('',#760,#761,#762);
#760 = CARTESIAN_POINT('',(90.814239,-126.022574,0.));
#761 = DIRECTION('',(0.258862355987,-0.965914220132,0.));
#762 = DIRECTION('',(-0.965914220132,-0.258862355987,0.));
#763 = ADVANCED_FACE('',(#764),#770,.T.);
#764 = FACE_BOUND('',#765,.T.);
#765 = EDGE_LOOP('',(#766,#767,#768,#769));
#766 = ORIENTED_EDGE('',*,*,#752,.T.);
#767 = ORIENTED_EDGE('',*,*,#389,.T.);
#768 = ORIENTED_EDGE('',*,*,#733,.F.);
#769 = ORIENTED_EDGE('',*,*,#213,.F.);
#770 = CYLINDRICAL_SURFACE('',#771,5.000000428577);
#771 = AXIS2_PLACEMENT_3D('',#772,#773,#774);
#772 = CARTESIAN_POINT('',(54.917393581876,-130.4663863586,0.));
#773 = DIRECTION('',(0.,0.,-1.));
#774 = DIRECTION('',(0.258862261436,-0.965914245471,0.));
#775 = ADVANCED_FACE('',(#776),#787,.F.);
#776 = FACE_BOUND('',#777,.T.);
#777 = EDGE_LOOP('',(#778,#779,#785,#786));
#778 = ORIENTED_EDGE('',*,*,#291,.T.);
#779 = ORIENTED_EDGE('',*,*,#780,.T.);
#780 = EDGE_CURVE('',#292,#468,#781,.T.);
#781 = LINE('',#782,#783);
#782 = CARTESIAN_POINT('',(39.1,-78.15,-4.6E-02));
#783 = VECTOR('',#784,1.);
#784 = DIRECTION('',(0.,0.,1.));
#785 = ORIENTED_EDGE('',*,*,#467,.F.);
#786 = ORIENTED_EDGE('',*,*,#780,.F.);
#787 = CYLINDRICAL_SURFACE('',#788,1.75);
#788 = AXIS2_PLACEMENT_3D('',#789,#790,#791);
#789 = CARTESIAN_POINT('',(39.1,-76.4,-4.6E-02));
#790 = DIRECTION('',(-0.,-0.,-1.));
#791 = DIRECTION('',(-0.,-1.,0.));
#792 = ADVANCED_FACE('',(#793),#804,.F.);
#793 = FACE_BOUND('',#794,.T.);
#794 = EDGE_LOOP('',(#795,#796,#802,#803));
#795 = ORIENTED_EDGE('',*,*,#302,.T.);
#796 = ORIENTED_EDGE('',*,*,#797,.T.);
#797 = EDGE_CURVE('',#303,#479,#798,.T.);
#798 = LINE('',#799,#800);
#799 = CARTESIAN_POINT('',(39.6,-31.16,-4.6E-02));
#800 = VECTOR('',#801,1.);
#801 = DIRECTION('',(0.,0.,1.));
#802 = ORIENTED_EDGE('',*,*,#478,.F.);
#803 = ORIENTED_EDGE('',*,*,#797,.F.);
#804 = CYLINDRICAL_SURFACE('',#805,1.75);
#805 = AXIS2_PLACEMENT_3D('',#806,#807,#808);
#806 = CARTESIAN_POINT('',(39.6,-29.41,-4.6E-02));
#807 = DIRECTION('',(-0.,-0.,-1.));
#808 = DIRECTION('',(-0.,-1.,0.));
#809 = ( GEOMETRIC_REPRESENTATION_CONTEXT(3) 
GLOBAL_UNCERTAINTY_ASSIGNED_CONTEXT((#813)) GLOBAL_UNIT_ASSIGNED_CONTEXT
((#810,#811,#812)) REPRESENTATION_CONTEXT('Context #1',
  '3D Context with UNIT and UNCERTAINTY') );
#810 = ( LENGTH_UNIT() NAMED_UNIT(*) SI_UNIT(.MILLI.,.METRE.) );
#811 = ( NAMED_UNIT(*) PLANE_ANGLE_UNIT() SI_UNIT($,.RADIAN.) );
#812 = ( NAMED_UNIT(*) SI_UNIT($,.STERADIAN.) SOLID_ANGLE_UNIT() );
#813 = UNCERTAINTY_MEASURE_WITH_UNIT(LENGTH_MEASURE(1.E-07),#810,
  'distance_accuracy_value','confusion accuracy');
#814 = CONTEXT_DEPENDENT_SHAPE_REPRESENTATION(#815,#817);
#815 = ( REPRESENTATION_RELATIONSHIP('','',#32,#10) 
REPRESENTATION_RELATIONSHIP_WITH_TRANSFORMATION(#816) 
SHAPE_REPRESENTATION_RELATIONSHIP() );
#816 = ITEM_DEFINED_TRANSFORMATION('','',#11,#15);
#817 = PRODUCT_DEFINITION_SHAPE('Placement','Placement of an item',#818
  );
#818 = NEXT_ASSEMBLY_USAGE_OCCURRENCE('1','=>[0:1:1:2]','',#5,#27,$);
#819 = PRODUCT_RELATED_PRODUCT_CATEGORY('part',$,(#29));
#820 = MECHANICAL_DESIGN_GEOMETRIC_PRESENTATION_REPRESENTATION('',(#821)
  ,#809);
#821 = STYLED_ITEM('color',(#822),#33);
#822 = PRESENTATION_STYLE_ASSIGNMENT((#823));
#823 = SURFACE_STYLE_USAGE(.BOTH.,#824);
#824 = SURFACE_SIDE_STYLE('',(#825));
#825 = SURFACE_STYLE_FILL_AREA(#826);
#826 = FILL_AREA_STYLE('',(#827));
#827 = FILL_AREA_STYLE_COLOUR('',#828);
#828 = COLOUR_RGB('',0.313304153717,0.484529207832,0.410020903123);
ENDSEC;
END-ISO-10303-21;
